<svg width="36" height="36" viewBox="0 0 36 36" fill="none" xmlns="http://www.w3.org/2000/svg">
<g clip-path="url(#clip0_1027_254)">
<path d="M28.8333 19.2942C30.6706 19.2942 32.16 17.1869 32.16 14.5875C32.16 11.9881 30.6706 9.88086 28.8333 9.88086C26.9961 9.88086 25.5067 11.9881 25.5067 14.5875C25.5067 17.1869 26.9961 19.2942 28.8333 19.2942Z" fill="#969696"/>
<path d="M28.8333 19.4726C26.9 19.4726 25.3267 17.2792 25.3267 14.5859C25.3267 11.8926 26.9 9.69922 28.8333 9.69922C30.7667 9.69922 32.34 11.8926 32.34 14.5859C32.34 17.2792 30.7667 19.4726 28.8333 19.4726ZM28.8333 10.0592C27.1 10.0592 25.6867 12.0859 25.6867 14.5859C25.6867 17.0859 27.1 19.1126 28.8333 19.1126C30.5667 19.1126 31.98 17.0859 31.98 14.5859C31.98 12.0859 30.5667 10.0592 28.8333 10.0592Z" fill="black"/>
<path d="M6.05333 16.4392C5.39333 10.6125 9.33333 4.35919 18.1867 4.29919C27.04 4.24586 30.4333 10.1192 30.4733 16.2859C30.5 20.5659 26.54 22.5459 22.1333 23.2325C19.3533 28.0392 21.4133 29.4192 21.4133 29.4192L20.4933 30.8392C20.4933 30.8392 7.74666 31.4059 6.05333 16.4392Z" fill="#91E1FF"/>
<path d="M21.0733 25.6199C21.0733 25.6199 22.4133 26.5932 22.9867 26.0332C23.4267 25.5999 23.12 24.0666 21.9067 22.7266" fill="#92E3FF"/>
<path d="M22.5133 26.3866C21.8533 26.3866 21.0867 25.8466 20.9733 25.7666C20.8933 25.7133 20.88 25.6 20.9333 25.5266C20.9867 25.4466 21.1 25.4333 21.1733 25.4866C21.4933 25.72 22.4867 26.2933 22.8667 25.92C23.18 25.6133 23.0067 24.2133 21.78 22.8533C21.7133 22.78 21.72 22.6733 21.7933 22.6066C21.8667 22.54 21.9733 22.5466 22.04 22.62C23.3 24.0133 23.6467 25.6466 23.1133 26.1666C22.9467 26.3333 22.74 26.3933 22.5133 26.3933V26.3866Z" fill="black"/>
<path d="M12.24 25.1258C12.24 25.1258 10.7067 25.7658 10.28 25.0858C9.95334 24.5591 10.6133 23.1458 12.1 22.1191" fill="#92E3FF"/>
<path d="M11.0267 25.5731C10.6667 25.5731 10.3267 25.4798 10.14 25.1731C9.74001 24.5398 10.46 23.0331 12.0133 21.9731C12.0933 21.9198 12.2 21.9398 12.2533 22.0198C12.3067 22.0998 12.2867 22.2065 12.2067 22.2598C10.6933 23.2998 10.2 24.6198 10.4333 24.9931C10.72 25.4465 11.8133 25.1198 12.18 24.9665C12.2667 24.9265 12.3733 24.9665 12.4067 25.0598C12.4467 25.1465 12.4067 25.2531 12.3133 25.2865C12.2067 25.3331 11.6 25.5731 11.0267 25.5731Z" fill="black"/>
<g opacity="0.2">
<path d="M12.32 6.42614C11.1267 7.01947 9.91335 7.81281 9.45335 9.05947C9.34668 9.34614 9.30001 9.69281 9.48668 9.92614C9.57334 10.0328 9.70001 10.1061 9.82668 10.1461C10.54 10.3661 11.2267 9.79281 11.8133 9.33947C12.9533 8.45947 14.3067 7.88614 15.6867 7.45281C16.04 7.33947 16.4333 7.21281 16.6133 6.88614C17.12 5.97947 15.7467 5.65281 15.1267 5.63281C14.14 5.59947 13.1867 5.99947 12.32 6.42614Z" fill="white"/>
</g>
<path d="M21.2933 29.4732C21.2933 29.4732 22.4467 27.8332 23.8933 27.8399C25.0133 27.8465 24.84 29.1599 23.76 30.1665C22.92 30.9465 23.68 32.3865 23.68 32.3865C23.68 32.3865 24.2067 33.4332 23.1 33.5532C22.0733 33.6665 20.42 31.7599 20.2267 30.6865L21.2933 29.4732Z" fill="#91E1FF"/>
<path d="M14.5067 21.7266L21.2867 22.5866C17.7467 26.7199 20.6467 28.6066 19.6933 29.3599C18.5133 30.2932 13.2267 28.2332 14.5067 21.7266Z" fill="white"/>
<mask id="mask0_1027_254" style="mask-type:luminance" maskUnits="userSpaceOnUse" x="5" y="4" width="26" height="27">
<path d="M6.05333 16.4392C5.39333 10.6125 9.33333 4.35919 18.1867 4.29919C27.04 4.24586 30.4333 10.1192 30.4733 16.2859C30.5 20.5659 26.54 22.5459 22.1333 23.2325C19.3533 28.0392 21.4133 29.4192 21.4133 29.4192L20.4933 30.8392C20.4933 30.8392 7.74666 31.4059 6.05333 16.4392Z" fill="white"/>
</mask>
<g mask="url(#mask0_1027_254)">
<path d="M26.08 20.2323C26.08 20.2323 26.48 21.2989 25.6533 22.3656C25.6533 22.3656 23 23.7723 19.1667 23.1189C19.1667 23.1189 15.12 22.7856 13.72 21.7523C13.72 21.7523 14.2267 20.4856 15.5067 20.2656C15.5067 20.2656 17.9267 20.7456 21.6067 19.0723C21.6067 19.0723 24.6 20.2123 26.0867 20.2256L26.08 20.2323Z" fill="white"/>
<path d="M16.5467 20.5729C16.0667 20.5729 15.62 20.5129 15.2133 20.3796C14.5 20.1329 14.0667 19.7996 13.94 19.3729C13.8 18.9196 14.0733 18.5529 14.0867 18.5396C14.16 18.4463 14.2933 18.4263 14.3933 18.4996C14.4867 18.5729 14.5067 18.7063 14.4333 18.8063C14.4333 18.8063 14.2867 19.0129 14.36 19.2596C14.4467 19.5329 14.7933 19.7863 15.3533 19.9796C17.34 20.6596 20.92 19.1263 21.6133 18.8063C21.7867 18.7263 21.9867 18.7263 22.1667 18.7996C22.8133 19.0663 25.0467 19.9396 26.7267 19.9729C27.4333 19.9863 27.9333 19.8463 28.16 19.5729C28.3467 19.3529 28.3 19.1063 28.3 19.1063C28.2733 18.9863 28.3533 18.8729 28.4667 18.8463C28.5867 18.8196 28.7 18.8996 28.72 19.0129C28.72 19.0329 28.8067 19.4596 28.4867 19.8463C28.1667 20.2329 27.5667 20.4263 26.7133 20.4063C24.96 20.3729 22.66 19.4729 22 19.1996C21.9333 19.1729 21.86 19.1729 21.7933 19.1996C20.9733 19.5729 18.5467 20.5796 16.5467 20.5796V20.5729Z" fill="black"/>
<path d="M24.3103 18.0704C24.6858 18.0619 24.9804 17.6283 24.9685 17.1019C24.9566 16.5755 24.6425 16.1557 24.267 16.1643C23.8916 16.1728 23.5969 16.6064 23.6088 17.1328C23.6208 17.6592 23.9348 18.079 24.3103 18.0704Z" fill="black"/>
<path d="M19.1675 18.1798C19.543 18.1713 19.8377 17.7377 19.8257 17.2113C19.8138 16.6849 19.4997 16.2651 19.1243 16.2736C18.7488 16.2822 18.4541 16.7158 18.4661 17.2422C18.478 17.7685 18.7921 18.1883 19.1675 18.1798Z" fill="black"/>
</g>
<path d="M20.1533 23.5191C18.0867 23.5191 14.86 23.1658 12.6267 21.2525C12.5533 21.1925 12.5467 21.0791 12.6067 21.0058C12.6667 20.9325 12.78 20.9258 12.8533 20.9858C16.18 23.8458 22.0533 23.0591 22.1067 23.0525C22.2 23.0391 22.2867 23.1058 22.3 23.1991C22.3133 23.2925 22.2467 23.3791 22.1533 23.3925C22.0667 23.4058 21.28 23.5125 20.1467 23.5125L20.1533 23.5191Z" fill="black"/>
<path d="M23.0467 33.7258C21.9867 33.7258 20.52 32.0925 20.14 31.0125C19.0933 30.9925 16.0467 30.7658 13.0133 28.9525C8.94667 26.5258 6.54667 22.3191 5.88 16.4525C5.52667 13.3525 6.47333 10.2791 8.47333 8.02581C10.04 6.26581 12.9933 4.15247 18.1867 4.11914C18.2267 4.11914 18.2733 4.11914 18.3133 4.11914C22.42 4.11914 25.6 5.37247 27.7667 7.83914C29.6267 9.95914 30.6267 12.8791 30.6467 16.2791C30.6667 20.0125 27.6533 22.5391 22.16 23.3991C22.0667 23.4125 21.9733 23.3458 21.96 23.2525C21.9467 23.1591 22.0133 23.0658 22.1067 23.0525C25.18 22.5725 30.3267 21.0591 30.3 16.2791C30.2867 13.9658 29.7867 10.6658 27.5067 8.06581C25.3867 5.65247 22.2533 4.43914 18.1933 4.46581C14.1867 4.49247 10.92 5.79914 8.74 8.25247C6.80667 10.4325 5.89333 13.4058 6.23333 16.4125C6.88667 22.1658 9.22667 26.2791 13.2 28.6525C16.2933 30.4991 19.4 30.6591 20.28 30.6658C20.36 30.6658 20.4267 30.7191 20.4467 30.7925C20.74 31.8391 22.24 33.4391 23.1 33.3791C23.3133 33.3658 23.4533 33.2991 23.5333 33.1791C23.6733 32.9591 23.58 32.5791 23.5333 32.4525C23.5067 32.3991 22.76 30.8391 23.66 30.0391C24.4467 29.3391 24.6733 28.6858 24.5467 28.3458C24.4467 28.0791 24.1467 28.0191 23.9133 28.0191H23.9C22.7533 28.0191 21.7867 29.1458 21.52 29.4925C21.4933 29.5325 21.4467 29.5525 21.4 29.5591C21.3533 29.5591 21.3067 29.5525 21.2667 29.5191C21.0133 29.3058 19.8267 28.0791 21.1133 24.9258C21.1467 24.8391 21.2533 24.7925 21.34 24.8325C21.4267 24.8658 21.4733 24.9725 21.4333 25.0591C20.4 27.5925 21.0333 28.7458 21.3667 29.1258C21.7733 28.6458 22.7333 27.6725 23.9 27.6725H23.9133C24.3933 27.6725 24.74 27.8791 24.8733 28.2258C25.08 28.7858 24.7067 29.5791 23.8933 30.2991C23.1933 30.9191 23.8533 32.2991 23.86 32.3125C23.8733 32.3525 24.1 32.9525 23.8333 33.3658C23.6933 33.5858 23.46 33.7058 23.1333 33.7258C23.1133 33.7258 23.0867 33.7258 23.0667 33.7258H23.0467Z" fill="black"/>
<path d="M17.7467 4.31934C17.66 4.31934 17.58 4.25267 17.5733 4.15934C17.5333 3.67934 17.5267 2.82601 17.9533 2.45267C18.14 2.29267 18.3733 2.23934 18.66 2.29934C18.8933 2.33267 19.24 2.55267 19.1933 3.02601C19.1867 3.11934 19.1 3.19267 19 3.17934C18.9067 3.17267 18.8333 3.08601 18.8467 2.98601C18.8733 2.69934 18.6667 2.64601 18.6 2.63267C18.42 2.59267 18.2867 2.61934 18.1867 2.70601C17.9667 2.89934 17.8667 3.43267 17.9267 4.11934C17.9333 4.21267 17.8667 4.29934 17.7667 4.30601C17.7667 4.30601 17.76 4.30601 17.7533 4.30601L17.7467 4.31934Z" fill="black"/>
<path d="M17.6867 4.30096C17.5933 4.30096 17.5133 4.22096 17.5133 4.12762C17.52 3.44096 17.3867 2.92762 17.1533 2.74762C17.0467 2.66762 16.9133 2.65429 16.7467 2.70096C16.6733 2.72096 16.4667 2.78762 16.5133 3.07429C16.5267 3.16762 16.4667 3.26096 16.3733 3.27429C16.28 3.29429 16.1867 3.22762 16.1733 3.13429C16.0933 2.66762 16.42 2.42096 16.6667 2.36762C16.9333 2.29429 17.1733 2.32762 17.3667 2.47429C17.8133 2.81429 17.8667 3.66096 17.86 4.13429C17.86 4.22762 17.78 4.30762 17.6867 4.30762V4.30096Z" fill="black"/>
<path d="M10.4946 14.4089C10.791 11.5931 9.81133 9.18194 8.30639 9.0235C6.80145 8.86506 5.34113 11.0193 5.04468 13.8351C4.74823 16.6509 5.7279 19.062 7.23284 19.2205C8.73779 19.3789 10.1981 17.2247 10.4946 14.4089Z" fill="#C8C8C8"/>
<path d="M7.39332 19.4324C7.33332 19.4324 7.27332 19.4324 7.21332 19.4257C5.57332 19.2524 4.53332 16.7857 4.84665 13.8124C4.99332 12.419 5.42665 11.1324 6.05999 10.199C6.71999 9.22571 7.52665 8.73905 8.33332 8.81905C9.13999 8.90571 9.82665 9.55238 10.2667 10.639C10.6933 11.6857 10.8467 13.0324 10.7 14.4257C10.4 17.2924 8.96665 19.4324 7.39999 19.4324H7.39332ZM8.15332 9.21238C7.54665 9.21238 6.92665 9.63905 6.39332 10.419C5.79332 11.299 5.39332 12.519 5.25332 13.8457C4.96665 16.5457 5.86665 18.859 7.25999 19.0057C8.64665 19.1457 10.0133 17.0724 10.2933 14.3724C10.4333 13.0457 10.2933 11.7657 9.88665 10.779C9.50665 9.83238 8.93332 9.27905 8.28665 9.20571C8.23999 9.20571 8.19332 9.19905 8.15332 9.19905V9.21238Z" fill="black"/>
<path d="M18.5867 3.85353C12.9333 3.84686 9.31334 6.4202 7.65334 9.00686C7.50667 8.9402 7.35334 8.89353 7.18 8.87353C5.65334 8.71353 4.18 10.7935 3.89334 13.5202C3.60667 16.2469 4.61334 18.5869 6.14 18.7535C7.66667 18.9135 8.53334 16.7669 8.82 14.0402C8.96667 12.6669 8.93334 11.4002 8.67334 10.4669C8.67334 10.4669 11.5667 4.77353 19.2733 5.01353C26.2133 5.23353 28.3133 8.5602 28.74 9.4202C28.2533 8.40686 25.68 3.86686 18.5867 3.85353Z" fill="#969696"/>
<path d="M6.30001 18.9397C6.24001 18.9397 6.18001 18.9397 6.12001 18.933C4.49334 18.7597 3.41334 16.3264 3.71334 13.5064C4.01334 10.6864 5.57334 8.52635 7.20001 8.69969C7.33334 8.71302 7.46001 8.74635 7.58667 8.78635C8.50001 7.43302 11.6533 3.67969 18.56 3.67969H18.5867C25.82 3.69302 28.4533 8.40635 28.9067 9.34635C28.9467 9.43302 28.9067 9.54635 28.82 9.58635C28.7333 9.63302 28.62 9.59302 28.58 9.50635C28.1067 8.55302 26.0267 5.41969 19.2667 5.19969C12.1933 4.97302 9.20667 9.89302 8.86667 10.493C9.10667 11.393 9.15334 12.6264 9.00001 14.0597C8.67334 17.1797 7.69334 18.9397 6.30001 18.9397ZM7.00667 9.04635C5.63334 9.04635 4.33334 11.0064 4.07334 13.5397C3.80001 16.1664 4.73334 18.4197 6.16001 18.573C7.40001 18.7064 8.32667 16.9997 8.64001 14.0197C8.78667 12.593 8.74001 11.3797 8.50001 10.5197C8.48667 10.473 8.49334 10.4264 8.51334 10.3864C8.63334 10.1464 11.5933 4.59969 19.28 4.83969C22.6667 4.94635 24.92 5.77969 26.4 6.72635C24.8467 5.36635 22.3667 4.04635 18.5867 4.03969H18.56C11.6067 4.03969 8.57334 7.91969 7.80667 9.10635C7.76001 9.18635 7.66001 9.21302 7.57334 9.17302C7.44667 9.11302 7.30667 9.07302 7.16001 9.05302C7.11334 9.05302 7.06001 9.04635 7.01334 9.04635H7.00667Z" fill="black"/>
<path d="M28.74 9.41992C28.8 9.54659 28.8333 9.61992 28.8333 9.61992C28.8333 9.61992 28.8067 9.54659 28.74 9.41992Z" fill="#969696"/>
<path d="M28.8333 9.80661C28.76 9.80661 28.6933 9.76661 28.6667 9.69328C28.6667 9.69328 28.64 9.61994 28.58 9.49994C28.54 9.41328 28.58 9.29994 28.6667 9.25994C28.7533 9.21328 28.8667 9.25328 28.9067 9.33994C28.9733 9.47994 29.0067 9.55994 29.0067 9.55994C29.04 9.65328 28.9933 9.75328 28.9 9.79328C28.88 9.79994 28.8533 9.80661 28.8333 9.80661Z" fill="black"/>
<path d="M29.7933 7.22751C29.2267 6.11417 28.2333 5.94084 27.0867 6.53417C26.36 6.90751 26.1667 7.08751 25.9533 7.74084L27.8267 9.18751C27.8267 9.18751 30.6467 8.92751 29.7867 7.22751H29.7933Z" fill="#3B8AFF"/>
<path d="M27.8333 9.36043C27.7933 9.36043 27.76 9.3471 27.7267 9.3271L25.8533 7.88043C25.7933 7.83376 25.7733 7.76043 25.7933 7.6871C26.02 6.97376 26.26 6.7671 27.0067 6.38043C27.6867 6.0271 28.3 5.94043 28.8267 6.11377C29.2933 6.2671 29.6733 6.61376 29.9467 7.15376C30.1733 7.60043 30.1867 8.00043 30 8.3471C29.5267 9.20043 27.92 9.36043 27.8467 9.3671H27.8333V9.36043ZM26.16 7.68043L27.88 9.0071C28.1733 8.9671 29.3533 8.7871 29.6933 8.17377C29.8267 7.93377 29.8067 7.6471 29.6333 7.3071C29.4067 6.85377 29.0933 6.56043 28.72 6.44043C28.2867 6.30043 27.7467 6.3871 27.1667 6.6871C26.5067 7.0271 26.3333 7.1871 26.16 7.67377V7.68043Z" fill="black"/>
<path d="M25.5867 3.98663C26.8067 4.2533 27.2267 5.1733 26.9467 6.42663C26.7667 7.22663 26.6267 7.44663 26.0533 7.8133L24.18 6.36663C24.18 6.36663 23.7267 3.58663 25.5933 3.98663H25.5867Z" fill="#3B8AFF"/>
<path d="M26.0467 7.97967C26.0067 7.97967 25.9733 7.96634 25.94 7.94634L24.0667 6.49967C24.0333 6.473 24.0067 6.433 24 6.393C23.9867 6.32634 23.74 4.73967 24.4533 4.073C24.74 3.79967 25.1333 3.713 25.6267 3.81967C26.22 3.94634 26.6533 4.21967 26.9133 4.63967C27.2133 5.10634 27.28 5.72634 27.1133 6.473C26.9267 7.31967 26.76 7.573 26.14 7.96634C26.1133 7.98634 26.08 7.993 26.0467 7.993V7.97967ZM24.3333 6.26634L26.0533 7.593C26.5 7.293 26.6133 7.08634 26.7733 6.37967C26.92 5.73967 26.86 5.193 26.62 4.813C26.4067 4.47967 26.0467 4.253 25.5533 4.14634C25.18 4.06634 24.9 4.11967 24.6933 4.313C24.1867 4.793 24.3 5.973 24.34 6.25967L24.3333 6.26634Z" fill="black"/>
<path d="M28.5 5.46648C28.5 5.46648 28.4467 5.46648 28.4267 5.45982C28.1067 5.37315 27.8867 5.18648 27.7733 4.89982C27.7267 4.77982 27.76 4.63982 27.8667 4.55982L28.0667 4.39982L27.8067 4.25315C27.6867 4.18648 27.6333 4.04648 27.6667 3.91982C27.7533 3.59982 27.94 3.37982 28.2267 3.26648C28.26 3.25315 28.3 3.24648 28.34 3.24648C28.4333 3.24648 28.5133 3.28648 28.5733 3.35982L28.7333 3.55982L28.88 3.29982C28.9333 3.20648 29.0333 3.14648 29.14 3.14648C29.1667 3.14648 29.1933 3.14648 29.2133 3.15315C29.5333 3.23982 29.7533 3.42648 29.8667 3.71315C29.9133 3.83315 29.88 3.97315 29.7733 4.05315L29.5733 4.21315L29.8333 4.35982C29.9533 4.42648 30.0067 4.56648 29.9733 4.69315C29.8867 5.01315 29.7 5.23315 29.4133 5.34648C29.38 5.35982 29.34 5.36648 29.3 5.36648C29.2067 5.36648 29.1267 5.32648 29.0667 5.25315L28.9067 5.05315L28.76 5.31315C28.7067 5.40648 28.6067 5.46648 28.5 5.46648Z" fill="#FFE800"/>
<path d="M29.12 3.31346C29.12 3.31346 29.14 3.31346 29.1533 3.31346C29.4133 3.38013 29.5933 3.5268 29.6933 3.7668C29.7133 3.82013 29.6933 3.87346 29.6533 3.9068L29.2533 4.2268L29.74 4.50013C29.7867 4.5268 29.8133 4.5868 29.8 4.64013C29.7333 4.90013 29.5867 5.08013 29.3467 5.18013C29.3333 5.18013 29.3133 5.1868 29.3 5.1868C29.26 5.1868 29.2267 5.17346 29.2067 5.14013L28.8867 4.74013L28.6133 5.2268C28.5933 5.2668 28.5467 5.2868 28.5067 5.2868C28.4933 5.2868 28.4867 5.2868 28.4733 5.2868C28.2133 5.22013 28.0333 5.07346 27.9333 4.83346C27.9133 4.78013 27.9333 4.7268 27.9733 4.69346L28.3733 4.37346L27.8867 4.10013C27.84 4.07346 27.8133 4.01346 27.8267 3.96013C27.8933 3.70013 28.04 3.52013 28.28 3.42013C28.2933 3.42013 28.3133 3.41346 28.3267 3.41346C28.3667 3.41346 28.4 3.4268 28.42 3.46013L28.74 3.86013L29.0133 3.37346C29.0333 3.33346 29.08 3.31346 29.12 3.31346ZM29.12 2.9668C28.9533 2.9668 28.7933 3.06013 28.7067 3.2068L28.6867 3.24013C28.6 3.1268 28.4667 3.0668 28.32 3.0668C28.26 3.0668 28.2 3.08013 28.1467 3.10013C27.8133 3.23346 27.58 3.50013 27.4867 3.87346C27.4333 4.08013 27.5267 4.30013 27.7133 4.40013L27.7467 4.42013C27.5867 4.5468 27.5333 4.77346 27.6067 4.96013C27.74 5.29346 28.0067 5.5268 28.38 5.62013C28.42 5.63346 28.46 5.63346 28.5 5.63346C28.6667 5.63346 28.8267 5.54013 28.9133 5.39346L28.9333 5.36013C29.02 5.47346 29.1533 5.53346 29.3 5.53346C29.36 5.53346 29.42 5.52013 29.4733 5.50013C29.8067 5.3668 30.04 5.10013 30.1333 4.7268C30.1867 4.52013 30.0933 4.30013 29.9067 4.20013L29.8733 4.18013C30.0333 4.05346 30.0867 3.8268 30.0133 3.64013C29.88 3.3068 29.6133 3.07346 29.24 2.98013C29.2 2.9668 29.16 2.9668 29.12 2.9668Z" fill="black"/>
<path d="M28.0333 8.38694C29 7.59361 29.9467 6.30028 28.1267 5.04028C25.44 2.73361 24.8 6.84695 24.8 6.84695L27.2067 8.70695C27.2067 8.70695 27.4533 8.86694 28.0333 8.38694Z" fill="#3B8AFF"/>
<path d="M27.3267 8.9007C27.2067 8.9007 27.1333 8.8607 27.1067 8.84737L24.6867 6.9807C24.6333 6.9407 24.6133 6.8807 24.62 6.81404C24.6333 6.72737 24.9667 4.6807 26.1667 4.2407C26.7667 4.0207 27.4667 4.2407 28.2333 4.9007C28.9267 5.3807 29.3 5.92737 29.3267 6.51404C29.3533 7.16737 28.9533 7.8407 28.14 8.51404C27.7667 8.8207 27.4933 8.89404 27.3267 8.89404V8.9007ZM27.2933 8.55404C27.3333 8.5607 27.5267 8.5807 27.9267 8.25404C28.4267 7.8407 29.0133 7.21404 28.9867 6.53404C28.9667 6.0607 28.6467 5.60737 28.0267 5.1807C27.3467 4.59404 26.7667 4.39404 26.2933 4.56737C25.42 4.88737 25.0667 6.36737 24.9933 6.76737L27.3 8.54737L27.2933 8.55404Z" fill="black"/>
<path d="M27.2867 9.96052C25.92 9.22052 24.6933 8.26719 23.5933 7.11385L24.1667 6.36719C25.62 7.04052 26.84 8.00052 27.86 9.21385L27.2867 9.96052Z" fill="#FFE800"/>
<path d="M27.2867 10.1339C27.2867 10.1339 27.2333 10.1339 27.2067 10.1139C25.8533 9.38057 24.6 8.41391 23.4733 7.23391C23.4133 7.17391 23.4067 7.07391 23.46 7.00724L24.0333 6.26057C24.08 6.19391 24.1733 6.17391 24.2467 6.20724C25.68 6.87391 26.9467 7.84724 28 9.10057C28.0533 9.16057 28.0533 9.25391 28 9.32057L27.4267 10.0672C27.3933 10.1139 27.34 10.1339 27.2867 10.1339ZM23.82 7.09391C24.86 8.16057 26.0067 9.04724 27.24 9.73391L27.64 9.21391C26.6667 8.08057 25.52 7.20057 24.22 6.57391L23.82 7.09391Z" fill="black"/>
<path d="M10.9933 19.6535C8.23333 19.6535 5.98666 17.4068 5.98666 14.6468C5.98666 14.5468 6.06666 14.4668 6.16666 14.4668C6.26666 14.4668 6.34666 14.5468 6.34666 14.6468C6.34666 17.2068 8.43333 19.2935 10.9933 19.2935C11.0933 19.2935 11.1733 19.3735 11.1733 19.4735C11.1733 19.5735 11.0933 19.6535 10.9933 19.6535Z" fill="black"/>
<path d="M13.76 18.293H12.1733C11.5217 18.293 10.9933 18.8213 10.9933 19.473C10.9933 20.1247 11.5217 20.653 12.1733 20.653H13.76C14.4117 20.653 14.94 20.1247 14.94 19.473C14.94 18.8213 14.4117 18.293 13.76 18.293Z" fill="#3A3A3A"/>
<path d="M13.7533 20.8333H12.1667C11.4133 20.8333 10.8067 20.2199 10.8067 19.4733C10.8067 18.7266 11.42 18.1133 12.1667 18.1133H13.7533C14.5067 18.1133 15.1133 18.7266 15.1133 19.4733C15.1133 20.2199 14.5 20.8333 13.7533 20.8333ZM12.1733 18.4733C11.62 18.4733 11.1733 18.9199 11.1733 19.4733C11.1733 20.0266 11.62 20.4733 12.1733 20.4733H13.76C14.3133 20.4733 14.76 20.0266 14.76 19.4733C14.76 18.9199 14.3133 18.4733 13.76 18.4733H12.1733Z" fill="black"/>
</g>
<defs>
<clipPath id="clip0_1027_254">
<rect width="36" height="36" fill="white"/>
</clipPath>
</defs>
</svg>
