<svg width="54" height="54" viewBox="0 0 54 54" fill="none" xmlns="http://www.w3.org/2000/svg">
<path d="M29.6299 3.94C29.9099 3.8 30.1199 3.91 30.1199 4.19C30.1199 4.47 29.8999 4.83 29.6299 5.01V20.23C29.9099 20.09 30.1199 20.2 30.1199 20.48C30.1199 20.76 29.8999 21.12 29.6299 21.3V21.75L20.6499 26.93L15.5599 29.87L12.9999 31.35L30.7299 21.11C31.3199 20.77 31.7999 20.97 31.7999 21.56C31.7999 22.15 31.3199 22.91 30.7299 23.26L5.28989 37.95C4.69989 38.29 4.21989 38.09 4.21989 37.5C4.21989 36.91 4.69989 36.15 5.28989 35.81L6.57989 35.06V34.61C6.29989 34.75 6.08989 34.64 6.08989 34.36C6.08989 34.08 6.30989 33.72 6.57989 33.54V18.32C6.29989 18.46 6.08989 18.35 6.08989 18.07C6.08989 17.79 6.30989 17.43 6.57989 17.25V16.6L4.13989 18.01L17.9999 4.44L31.8599 2L29.6199 3.29V3.94H29.6299Z" fill="#85ABFA"/>
<path d="M3.98992 39.2196L32.0099 23.0396C32.5999 22.6996 33.0799 22.8996 33.0799 23.4896C33.0799 24.0796 32.5999 24.8396 32.0099 25.1796L3.98992 41.3696C3.39992 41.7096 2.91992 41.5096 2.91992 40.9196C2.91992 40.3296 3.39992 39.5696 3.98992 39.2296V39.2196Z" fill="#466CBA"/>
<path d="M50.8299 33.4298L32.5799 22.7998L3.13989 41.4298L21.1699 51.9198L50.8299 33.4298Z" fill="#466CBA"/>
<path d="M49.52 31.4904L31.27 20.8604L4.53003 38.0004L22.56 48.4904L49.52 31.4904Z" fill="#85ABFA"/>
<path d="M6.57007 35.0597L24.5701 45.6096V26.9396L6.57007 16.3896V35.0597Z" fill="#E3E3E3"/>
<path d="M6.23999 34.65L24.22 45.11L24.57 44.01L6.56999 33.54L6.23999 34.65Z" fill="#85ABFA"/>
<path d="M24.5701 45.5297L47.6201 32.2197V13.6797L24.5701 26.9897V45.5297Z" fill="white"/>
<path d="M49.8599 12.4697L35.9999 14.8997L22.1399 28.4697L49.8599 12.4697Z" fill="#466CBA"/>
<path d="M44.8999 16.5203C44.8999 16.8203 45.1399 16.9203 45.4399 16.7503L47.5899 15.5103C47.8899 15.3403 48.1299 14.9603 48.1299 14.6603C48.1299 14.3603 47.8899 14.2603 47.5899 14.4303L45.4399 15.6703C45.1399 15.8403 44.8999 16.2203 44.8999 16.5203Z" fill="#A6C3FF"/>
<path d="M44.8999 32.8103C44.8999 33.1103 45.1399 33.2103 45.4399 33.0403L47.5899 31.8003C47.8899 31.6303 48.1299 31.2503 48.1299 30.9503C48.1299 30.6503 47.8899 30.5503 47.5899 30.7203L45.4399 31.9603C45.1399 32.1303 44.8999 32.5103 44.8999 32.8103Z" fill="#A6C3FF"/>
<path d="M45.3899 31.8597L47.6199 30.5697L47.4899 15.6797L45.5199 16.8197L45.3899 31.8597Z" fill="#A6C3FF"/>
<path d="M40.8401 18.8601C40.8401 19.1601 41.0801 19.2601 41.3801 19.0901L43.5301 17.8501C43.8301 17.6801 44.0701 17.3001 44.0701 17.0001C44.0701 16.7001 43.8301 16.6001 43.5301 16.7701L41.3801 18.0101C41.0801 18.1801 40.8401 18.5601 40.8401 18.8601Z" fill="#A6C3FF"/>
<path d="M40.8401 35.1501C40.8401 35.4501 41.0801 35.5501 41.3801 35.3801L43.5301 34.1401C43.8301 33.9701 44.0701 33.5901 44.0701 33.2901C44.0701 32.9901 43.8301 32.8901 43.5301 33.0601L41.3801 34.3001C41.0801 34.4701 40.8401 34.8501 40.8401 35.1501Z" fill="#A6C3FF"/>
<path d="M41.3301 34.2103L43.5601 32.9203L43.4301 18.0303L41.4601 19.1703L41.3301 34.2103Z" fill="#A6C3FF"/>
<path d="M28.1399 26.1902C28.1399 26.4902 28.3799 26.5902 28.6799 26.4202L30.8299 25.1802C31.1299 25.0102 31.3699 24.6302 31.3699 24.3302C31.3699 24.0302 31.1299 23.9302 30.8299 24.1002L28.6799 25.3402C28.3799 25.5102 28.1399 25.8902 28.1399 26.1902Z" fill="#A6C3FF"/>
<path d="M28.1399 42.4802C28.1399 42.7802 28.3799 42.8802 28.6799 42.7102L30.8299 41.4702C31.1299 41.3002 31.3699 40.9202 31.3699 40.6202C31.3699 40.3202 31.1299 40.2202 30.8299 40.3902L28.6799 41.6302C28.3799 41.8002 28.1399 42.1802 28.1399 42.4802Z" fill="#A6C3FF"/>
<path d="M28.6299 41.5404L30.8699 40.2504L30.7399 25.3604L28.7599 26.5004L28.6299 41.5404Z" fill="#A6C3FF"/>
<path d="M24.0801 28.53C24.0801 28.83 24.3201 28.93 24.6201 28.76L26.7701 27.52C27.0701 27.35 27.3101 26.97 27.3101 26.67C27.3101 26.37 27.0701 26.27 26.7701 26.44L24.6201 27.68C24.3201 27.85 24.0801 28.23 24.0801 28.53Z" fill="#A6C3FF"/>
<path d="M24.0801 44.8298C24.0801 45.1298 24.3201 45.2298 24.6201 45.0598L26.7701 43.8198C27.0701 43.6498 27.3101 43.2698 27.3101 42.9698C27.3101 42.6698 27.0701 42.5698 26.7701 42.7398L24.6201 43.9798C24.3201 44.1498 24.0801 44.5298 24.0801 44.8298Z" fill="#A6C3FF"/>
<path d="M24.5701 43.8802L26.8001 42.5902L26.6801 27.7002L24.7001 28.8402L24.5701 43.8802Z" fill="#A6C3FF"/>
<path d="M22.2 47.9702C22.2 48.5602 22.68 48.7702 23.27 48.4202L48.7099 33.7302C49.2999 33.3902 49.7799 32.6302 49.7799 32.0302C49.7799 31.4402 49.2999 31.2302 48.7099 31.5802L23.27 46.2702C22.68 46.6102 22.2 47.3702 22.2 47.9602V47.9702Z" fill="#A6C3FF"/>
<path d="M20.9199 51.3801C20.9199 51.9701 21.3999 52.1801 21.9899 51.8301L50.0099 35.6501C50.5999 35.3101 51.0799 34.5501 51.0799 33.9501C51.0799 33.3601 50.5999 33.1501 50.0099 33.5001L21.9899 49.6801C21.3999 50.0201 20.9199 50.7801 20.9199 51.3701V51.3801Z" fill="#85ABFA"/>
<path d="M34.9399 18.6001C34.9399 19.4301 35.4199 19.8201 36.0199 19.4801C36.6199 19.1401 37.0999 18.1901 37.0999 17.3601C37.0999 16.5301 36.6199 16.1401 36.0199 16.4801C35.4199 16.8201 34.9399 17.7801 34.9399 18.6001Z" fill="white"/>
<path d="M33.55 40.3502V36.3802C33.55 34.9702 34.69 33.1702 36.1 32.3602C37.51 31.5502 38.6501 32.0302 38.6501 33.4402V37.4102L33.5601 40.3502H33.55Z" fill="#1D1D33"/>
<path d="M33.0801 40.1305V36.1605C33.0801 34.7505 34.2201 32.9505 35.6301 32.1405C37.0401 31.3305 38.1801 31.8105 38.1801 33.2205V37.1905L33.0901 40.1305H33.0801Z" fill="#9A9A9A"/>
<path d="M38.1801 37.1702V33.2002C38.1801 32.6402 38.0001 32.2302 37.7001 31.9902C38.2801 32.1202 38.6501 32.6202 38.6501 33.4302V37.4002L33.5601 40.3402L33.0901 40.1402L38.1801 37.1802V37.1702Z" fill="#B8B8B8"/>
<path d="M35.9999 14.8804L17.9899 4.44043L4.12988 18.0304L22.1399 28.4704L35.9999 14.8804Z" fill="url(#paint0_linear_1022_125)"/>
<path d="M49.86 12.47L31.87 2L17.99 4.44L36 14.88L49.86 12.47Z" fill="url(#paint1_linear_1022_125)"/>
<defs>
<linearGradient id="paint0_linear_1022_125" x1="36" y1="14" x2="4" y2="17.5" gradientUnits="userSpaceOnUse">
<stop stop-color="#6699FF"/>
<stop offset="1" stop-color="#6699FF"/>
</linearGradient>
<linearGradient id="paint1_linear_1022_125" x1="50" y1="12.5" x2="18" y2="4" gradientUnits="userSpaceOnUse">
<stop stop-color="#EEF4FF"/>
<stop offset="1" stop-color="#6699FF"/>
</linearGradient>
</defs>
</svg>
