<svg width="80" height="80" viewBox="0 0 80 80" fill="none" xmlns="http://www.w3.org/2000/svg">
<path d="M10.7085 50.7887C10.7085 50.7887 13.5542 51.4173 16.8799 50.8801C25.9771 49.4058 32.2514 42.2173 32.2514 33.3258C32.2514 24.4344 25.9314 17.2115 16.8799 15.7715C13.6799 15.2573 10.7085 15.8515 10.7085 15.8515V50.8001V50.7887ZM17.4056 22.743C22.3885 24.2401 25.5656 28.3087 25.5656 33.3258C25.5656 38.343 22.3885 42.4115 17.4056 43.9087V22.743Z" fill="#C80000"/>
<path d="M48.1602 15.84V79.0628C48.1602 79.0628 50.6516 79.7028 54.3316 79.1428C58.4687 78.5257 62.2516 76.3657 64.9944 73.1771C67.7602 69.9543 69.2916 65.84 69.2916 61.5886C69.2916 56.0228 66.6859 50.8114 62.2859 47.4514C66.6859 44.0914 69.2916 38.88 69.2916 33.3143C69.2916 29.0628 67.7602 24.9486 64.9944 21.7257C62.2516 18.5371 58.4687 16.4343 54.3316 15.76C50.8459 15.2 48.1602 15.84 48.1602 15.84ZM54.8573 51.0286C59.4516 52.48 62.6059 56.7314 62.6059 61.6C62.6059 66.4686 59.463 70.7314 54.8573 72.1714V51.0286ZM54.8573 22.7428C59.463 24.1828 62.6059 28.4228 62.6059 33.3143C62.6059 38.2057 59.4516 42.4343 54.8573 43.8857V22.7428Z" fill="#C80000"/>
<path d="M35.8172 19.76V51.1315H42.5143V19.76L61.6572 0.617188H52.1829L39.1657 13.6343L26.1486 0.617188H16.6743L35.8172 19.76Z" fill="#C80000"/>
</svg>
