<svg width="20" height="20" viewBox="0 0 20 20" fill="none" xmlns="http://www.w3.org/2000/svg">
<path d="M12.3295 10.0001L14.746 7.58364C15.3883 6.94128 15.3883 5.89658 14.746 5.25423C14.1036 4.61187 13.0589 4.61187 12.4166 5.25423L10.0001 7.6707L7.58364 5.25423C6.94128 4.61187 5.89658 4.61187 5.25423 5.25423C4.61187 5.89658 4.61187 6.94128 5.25423 7.58364L7.6707 10.0001L5.25423 12.4166C4.61187 13.0589 4.61187 14.1036 5.25423 14.746C5.57658 15.0683 5.99776 15.2283 6.41893 15.2283C6.84011 15.2283 7.26128 15.0683 7.58364 14.746L10.0001 12.3295L12.4166 14.746C12.7389 15.0683 13.1601 15.2283 13.5813 15.2283C14.0025 15.2283 14.4236 15.0683 14.746 14.746C15.3883 14.1036 15.3883 13.0589 14.746 12.4166L12.3295 10.0001Z" fill="#FF7D5A"/>
</svg>
