<svg width="30" height="30" viewBox="0 0 30 30" fill="none" xmlns="http://www.w3.org/2000/svg">
<g clip-path="url(#clip0_1010_931)">
<path d="M15 30C23.2843 30 30 23.2843 30 15C30 6.71573 23.2843 0 15 0C6.71573 0 0 6.71573 0 15C0 23.2843 6.71573 30 15 30Z" fill="url(#paint0_linear_1010_931)"/>
<path d="M17.5852 15L21.4652 11.12C22.1783 10.407 22.1783 9.24777 21.4652 8.53476C20.7522 7.82175 19.593 7.82175 18.88 8.53476L15 12.4148L11.12 8.53476C10.407 7.82175 9.24777 7.82175 8.53476 8.53476C7.82175 9.24777 7.82175 10.407 8.53476 11.12L12.4148 15L8.53476 18.88C7.82175 19.593 7.82175 20.7522 8.53476 21.4652C9.24777 22.1783 10.407 22.1783 11.12 21.4652L15 17.5852L18.88 21.4652C19.593 22.1783 20.7522 22.1783 21.4652 21.4652C22.1783 20.7522 22.1783 19.593 21.4652 18.88L17.5852 15Z" fill="white"/>
</g>
<defs>
<linearGradient id="paint0_linear_1010_931" x1="15" y1="0" x2="15" y2="30" gradientUnits="userSpaceOnUse">
<stop stop-color="#FF3E24"/>
<stop offset="0.6" stop-color="#FF6248"/>
<stop offset="1" stop-color="#FFA85A"/>
</linearGradient>
<clipPath id="clip0_1010_931">
<rect width="30" height="30" fill="white"/>
</clipPath>
</defs>
</svg>
