<svg width="20" height="20" viewBox="0 0 20 20" fill="none" xmlns="http://www.w3.org/2000/svg">
<g clip-path="url(#clip0_893_3779)">
<path d="M10 20C15.5228 20 20 15.5228 20 10C20 4.47715 15.5228 0 10 0C4.47715 0 0 4.47715 0 10C0 15.5228 4.47715 20 10 20Z" fill="url(#paint0_linear_893_3779)"/>
<path d="M10 18.1924C14.5246 18.1924 18.1924 14.5246 18.1924 10C18.1924 5.47548 14.5246 1.80762 10 1.80762C5.47548 1.80762 1.80762 5.47548 1.80762 10C1.80762 14.5246 5.47548 18.1924 10 18.1924Z" fill="url(#paint1_linear_893_3779)"/>
<path d="M6.75708 5.23682H10.4188C12.8936 5.23682 14.3444 6.61773 14.3444 8.72014C14.3444 10.8225 12.8936 12.2267 10.4188 12.2267H8.89052V14.7636H6.76484V5.23682H6.75708ZM10.318 10.3415C11.4972 10.3415 12.2109 9.78298 12.2109 8.72014C12.2109 7.6573 11.4972 7.122 10.318 7.122H8.88276V10.3493H10.318V10.3415Z" fill="url(#paint2_linear_893_3779)"/>
<path d="M10.0001 17.2383C5.6401 17.2383 2.0792 13.8248 1.8387 9.52686C1.83095 9.68201 1.81543 9.83717 1.81543 10.0001C1.81543 14.523 5.48494 18.1925 10.0078 18.1925C14.5307 18.1925 18.2002 14.523 18.2002 10.0001C18.2002 9.83717 18.1847 9.68201 18.177 9.52686C17.9287 13.8248 14.3756 17.2383 10.0156 17.2383H10.0001Z" fill="url(#paint3_linear_893_3779)"/>
</g>
<defs>
<linearGradient id="paint0_linear_893_3779" x1="10" y1="0" x2="10" y2="20" gradientUnits="userSpaceOnUse">
<stop stop-color="#FFE172"/>
<stop offset="1" stop-color="#FFC373"/>
</linearGradient>
<linearGradient id="paint1_linear_893_3779" x1="10" y1="18.1847" x2="10" y2="1.80762" gradientUnits="userSpaceOnUse">
<stop stop-color="#FFDB80"/>
<stop offset="1" stop-color="#FFA937"/>
</linearGradient>
<linearGradient id="paint2_linear_893_3779" x1="10.5507" y1="14.7636" x2="10.5507" y2="5.23682" gradientUnits="userSpaceOnUse">
<stop stop-color="#7A392B"/>
<stop offset="1" stop-color="#7A4C0E"/>
</linearGradient>
<linearGradient id="paint3_linear_893_3779" x1="1.80767" y1="13.8558" x2="18.1847" y2="13.8558" gradientUnits="userSpaceOnUse">
<stop stop-color="white" stop-opacity="0"/>
<stop offset="1" stop-color="white" stop-opacity="0.4"/>
</linearGradient>
<clipPath id="clip0_893_3779">
<rect width="20" height="20" fill="white"/>
</clipPath>
</defs>
</svg>
