<svg width="36" height="36" viewBox="0 0 36 36" fill="none" xmlns="http://www.w3.org/2000/svg">
<path d="M17.9996 1.91211C9.11773 1.91211 1.91211 9.11773 1.91211 17.9996C1.91211 26.8815 9.11211 34.0871 17.9996 34.0871C26.8871 34.0871 34.0871 26.8871 34.0871 17.9996C34.0871 9.11211 26.8815 1.91211 17.9996 1.91211ZM15.7046 22.404C15.7046 23.8271 14.5515 24.9802 13.1284 24.9802C11.7052 24.9802 10.5521 23.8271 10.5521 22.404V13.5896C10.5521 12.1665 11.7052 11.0134 13.1284 11.0134C14.5515 11.0134 15.7046 12.1665 15.7046 13.5896V22.404ZM25.4527 22.404C25.4527 23.8271 24.2996 24.9802 22.8765 24.9802C21.4534 24.9802 20.3002 23.8271 20.3002 22.404V13.5896C20.3002 12.1665 21.4534 11.0134 22.8765 11.0134C24.2996 11.0134 25.4527 12.1665 25.4527 13.5896V22.404Z" fill="#C4CDE0"/>
</svg>
