<svg width="20" height="20" viewBox="0 0 20 20" fill="none" xmlns="http://www.w3.org/2000/svg">
<path d="M17.7962 0.959473H4.53324C3.28509 0.959473 2.27398 1.94466 2.21472 3.17799C2.21472 3.21503 2.20361 3.24836 2.20361 3.2891C2.20361 4.57429 3.24806 5.61873 4.53324 5.61873H17.7925V0.959473H17.7962Z" fill="url(#paint0_linear_921_4426)"/>
<path d="M4.53324 5.61869C3.24806 5.61869 2.20361 4.57425 2.20361 3.28906V16.6372H2.21102C2.21102 16.6631 2.20361 16.6891 2.20361 16.715C2.20361 18.0002 3.24806 19.0446 4.53324 19.0446H17.7925V5.61869H4.53324Z" fill="url(#paint1_linear_921_4426)"/>
<path d="M9.84825 11.3184L7.8001 9.92211L5.75195 11.3184V8.47766V5.64062H7.8001H9.84825V8.47766V11.3184Z" fill="#FF6E4F"/>
<path d="M16.9925 3.75161H10.8184C10.5629 3.75161 10.3555 3.5442 10.3555 3.28865C10.3555 3.03309 10.5629 2.82568 10.8184 2.82568H16.9925C17.2481 2.82568 17.4555 3.03309 17.4555 3.28865C17.4555 3.5442 17.2481 3.75161 16.9925 3.75161Z" fill="#D2D2D2"/>
<defs>
<linearGradient id="paint0_linear_921_4426" x1="9.99991" y1="5.61873" x2="9.99991" y2="0.959473" gradientUnits="userSpaceOnUse">
<stop stop-color="white"/>
<stop offset="1" stop-color="#F0F0F0"/>
</linearGradient>
<linearGradient id="paint1_linear_921_4426" x1="9.99806" y1="3.28906" x2="9.99806" y2="19.0446" gradientUnits="userSpaceOnUse">
<stop stop-color="#FFC93E"/>
<stop offset="1" stop-color="#FFE27C"/>
</linearGradient>
</defs>
</svg>
