<svg width="36" height="36" viewBox="0 0 36 36" fill="none" xmlns="http://www.w3.org/2000/svg">
<path d="M25.9309 3.62207H8.70152C7.19172 3.62207 5.96777 4.84601 5.96777 6.35582V29.6377C5.96777 31.1475 7.19172 32.3714 8.70152 32.3714H25.9309C27.4407 32.3714 28.6646 31.1475 28.6646 29.6377V6.35582C28.6646 4.84601 27.4407 3.62207 25.9309 3.62207Z" fill="url(#paint0_linear_914_12472)"/>
<path opacity="0.5" d="M24.289 8.86523H10.3559C10.1415 8.86523 9.96777 9.03774 9.96777 9.25055C9.96777 9.46335 10.1415 9.63586 10.3559 9.63586H24.289C24.5034 9.63586 24.6771 9.46335 24.6771 9.25055C24.6771 9.03774 24.5034 8.86523 24.289 8.86523Z" fill="#606168"/>
<path opacity="0.5" d="M24.289 13.3203H10.3559C10.1415 13.3203 9.96777 13.4928 9.96777 13.7056C9.96777 13.9184 10.1415 14.0909 10.3559 14.0909H24.289C24.5034 14.0909 24.6771 13.9184 24.6771 13.7056C24.6771 13.4928 24.5034 13.3203 24.289 13.3203Z" fill="#606168"/>
<path opacity="0.5" d="M24.289 17.7754H10.3559C10.1415 17.7754 9.96777 17.9479 9.96777 18.1607C9.96777 18.3735 10.1415 18.546 10.3559 18.546H24.289C24.5034 18.546 24.6771 18.3735 24.6771 18.1607C24.6771 17.9479 24.5034 17.7754 24.289 17.7754Z" fill="#606168"/>
<path opacity="0.5" d="M24.289 22.2354H10.3559C10.1415 22.2354 9.96777 22.4079 9.96777 22.6207C9.96777 22.8335 10.1415 23.006 10.3559 23.006H24.289C24.5034 23.006 24.6771 22.8335 24.6771 22.6207C24.6771 22.4079 24.5034 22.2354 24.289 22.2354Z" fill="#606168"/>
<path opacity="0.5" d="M24.289 26.6904H10.3559C10.1415 26.6904 9.96777 26.8629 9.96777 27.0757C9.96777 27.2885 10.1415 27.4611 10.3559 27.4611H24.289C24.5034 27.4611 24.6771 27.2885 24.6771 27.0757C24.6771 26.8629 24.5034 26.6904 24.289 26.6904Z" fill="#606168"/>
<path d="M31.8112 18.6608L27.6826 14.5322L17.9696 24.2452L22.0982 28.3738L31.8112 18.6608Z" fill="url(#paint1_linear_914_12472)"/>
<path d="M31.7107 12.659L33.6875 14.6358C34.2802 15.2284 34.2802 16.1909 33.6875 16.7836L32.8164 17.6547L28.6878 13.526L29.5589 12.655C30.1515 12.0623 31.1141 12.0623 31.7067 12.655L31.7107 12.659Z" fill="url(#paint2_linear_914_12472)"/>
<path d="M32.8112 17.6569L28.6826 13.5283L27.6803 14.5306L31.8089 18.6593L32.8112 17.6569Z" fill="#F0F0F0"/>
<path d="M22.101 28.3729L19.1085 29.9985L17.3703 30.9435C16.8022 31.2529 16.1047 31.1516 15.6491 30.696C15.1935 30.2404 15.0922 29.5373 15.4016 28.9748L16.3466 27.2366L17.9722 24.2441L22.101 28.3729Z" fill="#FFC9C9"/>
<path d="M19.1085 29.9982L17.3703 30.9432C16.8022 31.2526 16.1047 31.1513 15.6491 30.6957C15.1935 30.2401 15.0922 29.537 15.4016 28.9745L16.3466 27.2363L19.1085 29.9982Z" fill="#474747"/>
<defs>
<linearGradient id="paint0_linear_914_12472" x1="17.3162" y1="3.62207" x2="17.3162" y2="32.3714" gradientUnits="userSpaceOnUse">
<stop stop-color="white"/>
<stop offset="0.5" stop-color="white"/>
<stop offset="1" stop-color="#E4EAFF"/>
</linearGradient>
<linearGradient id="paint1_linear_914_12472" x1="29.7469" y1="16.5965" x2="20.0339" y2="26.3095" gradientUnits="userSpaceOnUse">
<stop stop-color="#FF9595"/>
<stop offset="1" stop-color="#FF6E4F"/>
</linearGradient>
<linearGradient id="paint2_linear_914_12472" x1="34.5311" y1="15.94" x2="32.4922" y2="11.612" gradientUnits="userSpaceOnUse">
<stop stop-color="#FFC93E"/>
<stop offset="1" stop-color="#FFE27C"/>
</linearGradient>
</defs>
</svg>
