<svg width="36" height="36" viewBox="0 0 36 36" fill="none" xmlns="http://www.w3.org/2000/svg">
<path d="M18 27.75C23.3848 27.75 27.75 23.3848 27.75 18C27.75 12.6152 23.3848 8.25 18 8.25C12.6152 8.25 8.25 12.6152 8.25 18C8.25 23.3848 12.6152 27.75 18 27.75Z" fill="white"/>
<path d="M18 30C24.6274 30 30 24.6274 30 18C30 11.3726 24.6274 6 18 6C11.3726 6 6 11.3726 6 18C6 24.6274 11.3726 30 18 30Z" fill="url(#paint0_linear_914_12488)"/>
<path d="M18 27.75C23.3848 27.75 27.75 23.3848 27.75 18C27.75 12.6152 23.3848 8.25 18 8.25C12.6152 8.25 8.25 12.6152 8.25 18C8.25 23.3848 12.6152 27.75 18 27.75Z" fill="url(#paint1_linear_914_12488)"/>
<path d="M24.3422 15.6946L17.2145 22.1238C16.9457 22.3662 16.5842 22.5 16.2042 22.5C15.8242 22.5 15.4627 22.3662 15.1939 22.1238L11.6671 18.9426C11.111 18.441 11.111 17.6259 11.6671 17.1242C12.2232 16.6226 13.1269 16.6226 13.6831 17.1242L16.1995 19.3941L22.3169 13.8762C22.8731 13.3746 23.7768 13.3746 24.3329 13.8762C24.889 14.3778 24.889 15.193 24.3329 15.6946H24.3422Z" fill="white"/>
<defs>
<linearGradient id="paint0_linear_914_12488" x1="18" y1="6" x2="18" y2="30" gradientUnits="userSpaceOnUse">
<stop stop-color="#FF9595"/>
<stop offset="1" stop-color="#FF6E4F"/>
</linearGradient>
<linearGradient id="paint1_linear_914_12488" x1="18" y1="8.25" x2="18" y2="27.75" gradientUnits="userSpaceOnUse">
<stop stop-color="#FF6E4F"/>
<stop offset="1" stop-color="#FF9595"/>
</linearGradient>
</defs>
</svg>
