<svg width="20" height="20" viewBox="0 0 20 20" fill="none" xmlns="http://www.w3.org/2000/svg">
<path d="M17.4074 11.937C17.1519 11.937 16.9445 11.7296 16.9445 11.474V9.39625C16.9445 5.56662 13.8296 2.4518 10 2.4518C6.17038 2.4518 3.05556 5.56662 3.05556 9.39625V11.474C3.05556 11.7296 2.84816 11.937 2.5926 11.937C2.33705 11.937 2.12964 11.7296 2.12964 11.474V9.39625C2.12964 5.05551 5.65927 1.52588 10 1.52588C14.3407 1.52588 17.8704 5.05551 17.8704 9.39625V11.474C17.8704 11.7296 17.663 11.937 17.4074 11.937Z" fill="#A9B1C0"/>
<path d="M0.662842 14.1817C0.662842 16.2632 2.3258 17.9595 4.39618 18.0113V10.3521C2.3258 10.4039 0.662842 12.0965 0.662842 14.1817Z" fill="url(#paint0_linear_893_3824)"/>
<path d="M19.3371 14.1817C19.3371 16.2632 17.6741 17.9595 15.6038 18.0113V10.3521C17.6741 10.4039 19.3371 12.0965 19.3371 14.1817Z" fill="url(#paint1_linear_893_3824)"/>
<defs>
<linearGradient id="paint0_linear_893_3824" x1="2.52951" y1="10.3521" x2="2.52951" y2="18.0113" gradientUnits="userSpaceOnUse">
<stop stop-color="#BB67E1"/>
<stop offset="1" stop-color="#9D29D1"/>
</linearGradient>
<linearGradient id="paint1_linear_893_3824" x1="17.4704" y1="10.3521" x2="17.4704" y2="18.0113" gradientUnits="userSpaceOnUse">
<stop stop-color="#BB67E1"/>
<stop offset="1" stop-color="#9D29D1"/>
</linearGradient>
</defs>
</svg>
