<svg width="485" height="200" viewBox="0 0 485 200" fill="none" xmlns="http://www.w3.org/2000/svg">
<g clip-path="url(#clip0_968_947)">
<path d="M36.2102 188.182L32.6113 187.021C33.0025 186.2 33.6023 185.613 34.3847 185.287H36.1972V188.182H36.2102Z" fill="#FFCBF1"/>
<path d="M34.4759 185.3C33.8631 185.482 33.3024 185.795 32.8721 186.278L34.4759 185.3Z" fill="#FFCBF1"/>
<path d="M32.8853 186.604C32.9766 186.604 33.0679 186.565 33.1331 186.487C33.4851 186.082 33.9676 185.795 34.5804 185.613C34.75 185.561 34.8543 185.378 34.8021 185.195C34.75 185.013 34.5674 184.921 34.3849 184.974C33.6546 185.195 33.0679 185.561 32.6376 186.056C32.5202 186.2 32.5333 186.408 32.6637 186.526C32.7288 186.578 32.8071 186.604 32.8853 186.604Z" fill="black"/>
<path d="M57.1388 163.856L53.3965 156.851C53.3965 156.851 57.8168 157.816 60.0726 150.968C60.9724 148.255 64.2192 145.633 67.2834 148.36C68.7178 149.638 69.774 152.325 69.3567 154.321C68.8221 156.838 67.2965 161.56 57.1388 163.856Z" fill="#FFCBF1"/>
<path d="M56.8519 164.012L53.1096 157.008C53.0444 156.891 53.0575 156.76 53.1357 156.656C53.2139 156.551 53.3443 156.512 53.4617 156.538C53.5008 156.538 57.6212 157.373 59.7597 150.877C60.2682 149.325 61.6374 147.538 63.5411 147.029C64.493 146.769 65.9534 146.756 67.5051 148.125C69.135 149.56 70.0999 152.377 69.6827 154.399C69.0177 157.543 67.0096 161.965 57.217 164.182C57.1909 164.182 57.1649 164.182 57.1388 164.182C57.0214 164.182 56.9041 164.117 56.8519 164.012ZM63.7106 147.656C62.0416 148.099 60.842 149.703 60.3856 151.073C58.5731 156.564 55.3263 157.204 53.9572 157.217L57.3083 163.478C67.5964 161.078 68.6395 156.121 69.0307 154.256C69.448 152.286 68.3527 149.743 67.0618 148.608C66.2664 147.903 65.4058 147.551 64.5452 147.551C64.2713 147.551 63.9845 147.59 63.7106 147.669V147.656Z" fill="black"/>
<path d="M56.7475 163.282L55.5479 160.295C55.5479 160.295 61.4938 157.164 63.0716 153.238C63.6975 151.673 65.197 149.69 67.2442 151.034C68.1178 151.608 68.4568 153.238 68.17 154.347C66.9704 158.912 63.6714 160.438 56.7605 163.282H56.7475Z" fill="white"/>
<path d="M31.112 178.725L23.3535 171.877C23.3535 171.877 23.6274 179.925 22.4669 186.839C21.9844 189.695 20.6283 193.4 24.7096 194.182C26.6264 194.547 28.8953 193.921 30.2774 192.369C32.0117 190.413 33.4982 186.473 31.0989 178.738L31.112 178.725Z" fill="#FFCBF1"/>
<path d="M43.1473 153.917C32.2203 153.917 23.3535 161.899 23.3535 172.256C23.3535 182.613 32.2073 185.939 43.1473 185.939C54.0743 185.939 63.0454 182.548 62.6412 172.882C62.5108 169.765 61.4676 169.112 59.8638 165.134C58.26 161.156 57.0082 158.795 54.309 157.008C51.0492 154.856 47.4764 153.917 43.1473 153.917Z" fill="#FFCBF1"/>
<path d="M24.6573 194.496C23.4577 194.261 22.6231 193.778 22.1016 193.022C21.1758 191.652 21.58 189.643 21.932 187.882C22.0103 187.504 22.0885 187.126 22.1407 186.774C22.9882 181.752 23.0665 176.169 23.0534 173.312C23.0274 172.947 23.0274 172.608 23.0274 172.269C23.0274 172.204 23.0274 172.126 23.0274 172.06V171.943V171.891C23.0274 171.865 23.0274 171.852 23.0274 171.826C23.2751 161.599 32.0897 153.59 43.1341 153.59C47.6327 153.59 51.2316 154.582 54.4784 156.734C57.1905 158.534 58.4684 160.83 60.1635 165.017C60.6981 166.347 61.1545 167.273 61.5718 168.095C62.3541 169.686 62.8757 170.73 62.967 172.869C63.1104 176.234 62.1325 179.039 60.0723 181.178C56.8776 184.504 51.0229 186.265 43.1341 186.265C39.0528 186.265 35.5321 185.795 32.6504 184.882C32.846 188.169 32.1288 190.765 30.525 192.578C29.3906 193.856 27.6042 194.6 25.8047 194.6C25.4136 194.6 25.0224 194.561 24.6442 194.496H24.6573ZM32.4027 184.1C35.2974 185.104 38.9093 185.6 43.1471 185.6C50.8534 185.6 56.5386 183.917 59.6028 180.721C61.5327 178.713 62.4454 176.078 62.302 172.895C62.2238 170.899 61.7543 169.947 60.972 168.382C60.5808 167.586 60.0853 166.608 59.5507 165.251C57.9077 161.195 56.682 158.977 54.1133 157.269C50.9838 155.195 47.5023 154.243 43.1341 154.243C32.4418 154.243 23.901 161.991 23.6793 171.878C23.6793 171.878 23.6793 171.891 23.6793 171.904V171.93V172.073C23.6793 172.139 23.6793 172.191 23.6793 172.256C23.6793 172.582 23.6793 172.908 23.7054 173.286C23.7315 176.182 23.6402 181.817 22.7926 186.891C22.7275 187.256 22.6492 187.635 22.584 188.026C22.245 189.748 21.8799 191.522 22.6492 192.669C23.0534 193.269 23.7576 193.661 24.7746 193.856C26.6914 194.222 28.8038 193.543 30.0295 192.148C31.5942 190.387 32.2462 187.791 31.9593 184.452C31.9593 184.334 31.9985 184.23 32.0897 184.165C32.1549 184.113 32.2201 184.1 32.2984 184.1C32.3375 184.1 32.3766 184.1 32.4027 184.113V184.1Z" fill="black"/>
<path d="M26.0525 179.991C25.883 181.96 25.6222 184.243 25.2571 186.382C24.892 188.521 23.9792 190.974 26.1959 191.678C27.2391 192.004 28.856 191.534 29.6774 190.347C30.4989 189.16 30.851 187.165 30.7206 183.539" fill="white"/>
<path d="M49.7451 184.047C49.7451 184.047 55.1434 186.317 55.4955 189.134C55.4955 189.134 55.9258 191.574 53.1354 191.861C49.8234 192.187 48.5977 185.873 48.5977 185.873L49.7451 184.047Z" fill="#FFCBF1"/>
<path d="M43.356 196.635C43.4212 198.865 44.347 199.674 45.6378 199.674C46.9287 199.674 48.2588 198.461 48.2588 198.461C51.8185 195.317 51.662 191.47 51.4404 190.296C51.4013 189.839 51.31 189.356 51.1535 188.861C51.0231 188.43 50.9058 188 50.8014 187.583" fill="#FFCBF1"/>
<path d="M48.2718 185.939C48.2588 185.861 48.2718 185.769 48.3109 185.704L49.4584 183.878C49.5497 183.734 49.7192 183.682 49.8626 183.747C50.0843 183.839 55.4435 186.121 55.8086 189.082C55.8086 189.135 56.0042 190.23 55.3131 191.13C54.8567 191.73 54.1265 192.095 53.1486 192.187C53.0442 192.187 52.953 192.2 52.8617 192.2C49.5106 192.2 48.3109 186.2 48.2588 185.939H48.2718ZM48.9368 185.939C49.1324 186.8 50.3581 191.795 53.0834 191.535C53.8657 191.456 54.4395 191.182 54.7785 190.739C55.287 190.074 55.1436 189.213 55.1436 189.187C54.8567 186.917 50.9058 184.961 49.8496 184.478L48.9238 185.952L48.9368 185.939Z" fill="black"/>
<path d="M50.9577 188.861C49.4321 183.917 50.1754 179.6 43.1732 179.43C36.1711 179.6 36.9013 183.93 35.3887 188.861C33.9544 193.53 37.6836 196.439 43.1732 196.635C48.6758 196.439 52.4051 193.53 50.9577 188.861Z" fill="#FFCBF1"/>
<path d="M43.2778 196.635C43.2126 198.865 42.2868 199.674 40.9959 199.674C39.705 199.674 38.375 198.461 38.375 198.461C34.8153 195.317 34.9717 191.47 35.1934 190.296C35.2325 189.839 35.3238 189.356 35.4803 188.861C35.6107 188.43 35.728 188 35.8323 187.583" fill="#FFCBF1"/>
<path d="M47.7761 191.704C47.7761 194.287 47.3197 196.374 43.2384 196.374C39.1701 196.374 38.7007 194.287 38.7007 191.704C38.7007 189.122 40.7348 187.035 43.2384 187.035C45.742 187.035 47.7761 189.122 47.7761 191.704Z" fill="white"/>
<path d="M41.126 200C42.2735 200 43.6687 199.413 43.7339 196.648C43.7339 196.465 43.5905 196.309 43.4079 196.309C43.2123 196.309 43.0689 196.452 43.0689 196.635C43.0167 198.461 42.3778 199.348 41.113 199.348C39.9655 199.348 38.7268 198.239 38.7268 198.226C34.9323 194.874 35.5582 190.817 35.6495 190.361C35.6886 189.878 35.7799 189.422 35.9233 188.965C36.0407 188.561 36.158 188.143 36.2884 187.674C36.3275 187.491 36.2232 187.322 36.0537 187.269C35.8842 187.23 35.7016 187.335 35.6495 187.504C35.5321 187.961 35.4148 188.378 35.2974 188.769C35.1409 189.278 35.0366 189.774 34.9975 190.269C34.9062 190.726 34.2282 195.122 38.2965 198.709C38.3486 198.761 39.7308 200 41.126 200Z" fill="black"/>
<path d="M45.638 200C47.0463 200 48.4154 198.761 48.4806 198.709C52.5358 195.122 51.8578 190.726 51.7665 190.243C51.7274 189.774 51.6231 189.278 51.4666 188.769C51.3493 188.378 51.2319 187.974 51.1145 187.504C51.0754 187.321 50.8929 187.217 50.7103 187.269C50.5278 187.308 50.4235 187.491 50.4756 187.674C50.593 188.143 50.7103 188.574 50.8407 188.965C50.9842 189.421 51.0754 189.878 51.1145 190.335C51.2058 190.817 51.8317 194.874 48.0373 198.226C48.0242 198.239 46.7855 199.348 45.638 199.348C44.3732 199.348 43.7343 198.461 43.6821 196.635C43.6821 196.452 43.5387 196.322 43.3431 196.309C43.1605 196.309 43.0171 196.465 43.0171 196.648C43.0953 199.426 44.4775 200 45.625 200H45.638Z" fill="black"/>
<path d="M43.0562 196.857C43.656 196.857 44.3993 196.791 45.2468 196.609C45.4294 196.57 45.5337 196.387 45.4946 196.217C45.4555 196.035 45.2729 195.93 45.1034 195.97C43.0171 196.439 41.5958 196.061 41.5828 196.048C41.4132 195.996 41.2307 196.1 41.1785 196.27C41.1264 196.439 41.2307 196.622 41.4002 196.674C41.4393 196.674 42.0522 196.857 43.0562 196.857Z" fill="black"/>
<path d="M24.9053 178.765C27.9043 184.073 34.9456 185.939 43.1343 185.939C50.2669 185.939 56.5779 184.491 59.9682 180.799" fill="#FFCBF1"/>
<path d="M43.1474 186.265C51.1667 186.265 57.0735 184.452 60.229 181.021C60.3594 180.891 60.3464 180.682 60.216 180.552C60.0856 180.421 59.877 180.434 59.7466 180.565C56.7214 183.852 50.9711 185.6 43.1474 185.6C33.8764 185.6 27.8262 183.239 25.2052 178.595C25.114 178.439 24.9184 178.386 24.7489 178.465C24.5924 178.556 24.5402 178.752 24.6185 178.921C27.3828 183.787 33.6026 186.265 43.1344 186.265H43.1474Z" fill="black"/>
<path d="M39.8877 155.234L37.8535 155.886L38.0621 154.008L39.8877 155.234Z" fill="#FFCBF1"/>
<path d="M42.3387 156.16C41.6215 156.46 41.1912 157.347 41.2825 158.182C41.3738 159.016 41.9084 159.734 42.5864 160.125C43.2645 160.516 44.0729 160.582 44.8292 160.451C44.8292 160.451 48.1412 160.086 48.1412 156.042C48.1412 154.242 47.0328 152.677 45.416 151.764C43.7991 150.851 41.8301 150.864 40.2393 151.647C39.1179 152.194 38.14 153.251 37.9053 154.555" fill="#FFCBF1"/>
<path d="M44.1385 160.843C44.4123 160.843 44.66 160.817 44.8817 160.778C44.8947 160.778 48.4675 160.334 48.4675 156.043C48.4675 154.217 47.3853 152.508 45.5728 151.477C43.9429 150.551 41.7914 150.499 40.0832 151.347C38.7402 152.012 37.8013 153.186 37.5666 154.49C37.5405 154.673 37.6579 154.843 37.8274 154.869C38.01 154.895 38.1795 154.777 38.2055 154.608C38.4011 153.499 39.2096 152.508 40.3701 151.934C41.8827 151.19 43.7994 151.23 45.2338 152.051C46.8376 152.964 47.8025 154.451 47.8025 156.043C47.8025 159.747 44.9078 160.099 44.7904 160.125C44.2428 160.217 43.4604 160.243 42.7433 159.838C42.1174 159.486 41.674 158.834 41.6088 158.156C41.5306 157.451 41.9087 156.708 42.4694 156.473C42.6389 156.408 42.7172 156.212 42.652 156.043C42.5868 155.873 42.3912 155.795 42.2217 155.86C41.4002 156.199 40.8525 157.217 40.9569 158.221C41.0481 159.108 41.6088 159.956 42.4173 160.412C43.004 160.738 43.6169 160.843 44.1385 160.843Z" fill="black"/>
<path d="M46.1075 171.865C45.9771 172.582 45.299 173.247 44.3472 173.573V173.652L44.4254 174.695C44.4515 174.995 44.7384 175.243 45.0774 175.243H47.6592C47.9982 175.243 48.259 174.995 48.2329 174.695L48.1677 173.769L48.1416 173.573C47.1376 173.247 46.3422 172.582 46.1075 171.865Z" fill="white"/>
<path d="M44.0732 173.821C44.0732 173.821 44.2036 173.821 44.2688 173.821C45.3641 173.717 46.2899 172.96 46.4333 172.073C46.4594 171.891 46.342 171.721 46.1595 171.695C45.9769 171.669 45.8074 171.786 45.7813 171.969C45.6901 172.556 44.999 173.078 44.2036 173.156C43.4603 173.234 43.0952 172.621 43.0822 172.595C42.9909 172.439 42.7953 172.386 42.6258 172.478C42.4693 172.569 42.4172 172.765 42.4954 172.921C42.5215 172.96 43.017 173.821 44.0601 173.821H44.0732Z" fill="black"/>
<path d="M48.3629 173.808C49.2235 173.808 49.7059 173.208 49.8363 172.869C49.9015 172.699 49.8363 172.504 49.6538 172.438C49.4843 172.373 49.2887 172.438 49.2235 172.621C49.1974 172.686 48.9496 173.208 48.2325 173.143C47.3067 173.052 46.5895 172.438 46.42 171.904C46.3678 171.734 46.1853 171.63 46.0027 171.682C45.8332 171.734 45.7289 171.917 45.7811 172.099C46.0549 172.973 47.0459 173.691 48.1542 173.808C48.2194 173.808 48.2846 173.808 48.3498 173.808H48.3629Z" fill="black"/>
<path d="M45.0773 175.582H47.659C47.9198 175.582 48.1676 175.478 48.3371 175.295C48.4936 175.125 48.5718 174.904 48.5588 174.669L48.4936 173.743C48.4805 173.56 48.311 173.43 48.1415 173.443C47.959 173.456 47.8286 173.612 47.8416 173.795L47.9068 174.721C47.9068 174.721 47.9068 174.812 47.8677 174.838C47.8286 174.891 47.7503 174.917 47.6721 174.917H45.0903C44.9208 174.917 44.7773 174.799 44.7643 174.669L44.6861 173.625C44.673 173.443 44.5166 173.299 44.334 173.325C44.1515 173.338 44.0211 173.495 44.0341 173.678L44.1123 174.721C44.1515 175.204 44.5818 175.582 45.1033 175.582H45.0773Z" fill="black"/>
<path d="M52.0484 172.995C52.8562 172.848 53.3527 171.856 53.1574 170.778C52.962 169.701 52.1488 168.946 51.341 169.093C50.5333 169.24 50.0368 170.232 50.2321 171.309C50.4275 172.387 51.2407 173.141 52.0484 172.995Z" fill="black"/>
<path d="M41.8172 171.043C41.8954 172.125 41.2956 173.012 40.4741 173.012C39.6526 173.012 38.9094 172.139 38.8181 171.043C38.7268 169.947 39.3397 169.073 40.1612 169.073C40.9826 169.073 41.7259 169.947 41.8172 171.043Z" fill="black"/>
<path d="M32.8852 186.278C32.3505 186.891 32.0115 187.66 31.8029 188.443C31.6073 189.2 31.8159 190.191 32.3636 190.765C32.8982 191.313 33.5502 191.795 34.3065 191.887C35.154 191.991 36.0407 191.548 36.4971 190.817C36.9534 190.087 36.9926 189.134 36.6275 188.365C36.458 188.013 36.2102 187.687 35.8842 187.491C35.5582 187.295 35.0367 187.165 34.5412 187.23" fill="#FFCBF1"/>
<path d="M34.5543 192.239C35.428 192.239 36.3016 191.769 36.7841 191.013C37.2926 190.217 37.3578 189.122 36.9406 188.235C36.7319 187.778 36.419 187.426 36.0539 187.217C35.7018 187.022 35.115 186.826 34.5022 186.917C34.3196 186.943 34.1892 187.113 34.2153 187.282C34.2414 187.465 34.3979 187.595 34.5804 187.569C35.0368 187.517 35.4801 187.648 35.7149 187.791C36.0278 187.974 36.2234 188.287 36.3277 188.509C36.6537 189.2 36.6015 190.035 36.2104 190.648C35.8192 191.274 35.0368 191.652 34.3327 191.561C33.7589 191.496 33.1722 191.143 32.5854 190.543C32.1421 190.074 31.9334 189.213 32.1029 188.535C32.3116 187.713 32.6506 187.022 33.107 186.5C33.2243 186.356 33.2113 186.148 33.0809 186.03C32.9505 185.913 32.7288 185.926 32.6115 186.056C32.0769 186.656 31.6987 187.439 31.464 188.365C31.2293 189.265 31.5031 190.374 32.1029 191C32.794 191.73 33.5242 192.135 34.2414 192.226C34.3327 192.226 34.424 192.239 34.5152 192.239H34.5543Z" fill="black"/>
<path d="M109.009 50.0879V0.625977H121.214V19.2786H140.747V0.625977H152.952V50.0879H140.747V30.0527H121.214V50.0879H109.009Z" fill="black"/>
<path d="M159.211 33.8095C159.211 31.1746 159.693 28.7876 160.645 26.6354C161.61 24.4832 162.927 22.644 164.622 21.0918C166.317 19.5527 168.299 18.3526 170.594 17.5178C172.889 16.683 175.393 16.2656 178.105 16.2656C180.817 16.2656 183.321 16.683 185.616 17.5178C187.911 18.3526 189.906 19.5396 191.588 21.0918C193.283 22.631 194.6 24.4832 195.565 26.6354C196.53 28.7876 196.999 31.1746 196.999 33.8095C196.999 36.4443 196.517 38.8313 195.565 40.9836C194.6 43.1358 193.283 44.9749 191.588 46.5271C189.893 48.0663 187.911 49.2533 185.616 50.1011C183.321 50.9359 180.817 51.3533 178.105 51.3533C175.393 51.3533 172.889 50.9359 170.594 50.1011C168.299 49.2663 166.304 48.0794 164.622 46.5271C162.927 44.988 161.61 43.1358 160.645 40.9836C159.68 38.8313 159.211 36.4443 159.211 33.8095ZM170.972 33.8095C170.972 36.0661 171.624 37.9183 172.941 39.3792C174.258 40.8401 175.98 41.5705 178.105 41.5705C180.23 41.5705 181.952 40.8401 183.269 39.3792C184.586 37.9183 185.238 36.0661 185.238 33.8095C185.238 31.5529 184.586 29.7007 183.269 28.2398C181.952 26.7789 180.23 26.0484 178.105 26.0484C175.98 26.0484 174.258 26.7789 172.941 28.2398C171.624 29.7007 170.972 31.5529 170.972 33.8095Z" fill="black"/>
<path d="M200.768 33.8095C200.768 31.1746 201.25 28.7876 202.202 26.6354C203.167 24.4832 204.484 22.644 206.179 21.0918C207.874 19.5527 209.856 18.3526 212.151 17.5178C214.446 16.683 216.949 16.2656 219.662 16.2656C222.374 16.2656 224.877 16.683 227.172 17.5178C229.467 18.3526 231.462 19.5396 233.144 21.0918C234.839 22.631 236.156 24.4832 237.121 26.6354C238.086 28.7876 238.556 31.1746 238.556 33.8095C238.556 36.4443 238.073 38.8313 237.121 40.9836C236.17 43.1358 234.839 44.9749 233.144 46.5271C231.449 48.0663 229.467 49.2533 227.172 50.1011C224.877 50.9359 222.374 51.3533 219.662 51.3533C216.949 51.3533 214.446 50.9359 212.151 50.1011C209.856 49.2663 207.861 48.0794 206.179 46.5271C204.484 44.988 203.167 43.1358 202.202 40.9836C201.237 38.8313 200.768 36.4443 200.768 33.8095ZM212.529 33.8095C212.529 36.0661 213.181 37.9183 214.498 39.3792C215.815 40.8401 217.536 41.5705 219.662 41.5705C221.787 41.5705 223.508 40.8401 224.825 39.3792C226.142 37.9183 226.794 36.0661 226.794 33.8095C226.794 31.5529 226.142 29.7007 224.825 28.2398C223.508 26.7789 221.787 26.0484 219.662 26.0484C217.536 26.0484 215.815 26.7789 214.498 28.2398C213.181 29.7007 212.529 31.5529 212.529 33.8095Z" fill="black"/>
<path d="M269.172 29.244C268.207 28.6179 267.164 28.1222 266.043 27.77C264.921 27.4178 263.722 27.2352 262.47 27.2352C260.553 27.2352 258.936 27.9396 257.619 29.3614C256.302 30.7831 255.65 32.7788 255.65 35.3745V50.0879H243.889V17.5307H255.65V22.983C256.446 20.7264 257.645 19.0437 259.249 17.9481C260.853 16.8393 262.665 16.2915 264.66 16.2915C266.043 16.2915 267.399 16.448 268.755 16.7611C270.111 17.0741 271.389 17.5176 272.601 18.1046L269.159 29.244H269.172Z" fill="black"/>
<path d="M272.497 33.8095C272.497 31.1746 272.914 28.7876 273.749 26.6354C274.583 24.4832 275.731 22.644 277.191 21.0918C278.652 19.5527 280.386 18.3526 282.381 17.5178C284.389 16.683 286.554 16.2656 288.888 16.2656C290.974 16.2656 292.839 16.7091 294.495 17.583C296.137 18.457 297.494 19.67 298.537 21.2092V17.5178H310.051V50.0098H298.537V46.3837C297.494 48.0141 296.151 49.2402 294.495 50.0751C292.852 50.9099 290.974 51.3273 288.888 51.3273C286.554 51.3273 284.376 50.9099 282.381 50.0751C280.373 49.2402 278.652 48.0533 277.191 46.5011C275.731 44.9489 274.583 43.1097 273.749 40.9575C272.914 38.8052 272.497 36.4182 272.497 33.7834V33.8095ZM284.259 33.8095C284.259 36.0661 284.911 37.9183 286.228 39.3792C287.545 40.8401 289.266 41.5705 291.391 41.5705C293.517 41.5705 295.238 40.8401 296.555 39.3792C297.872 37.9183 298.524 36.0661 298.524 33.8095C298.524 31.5529 297.872 29.7007 296.555 28.2398C295.238 26.7789 293.517 26.0484 291.391 26.0484C289.266 26.0484 287.545 26.7789 286.228 28.2398C284.911 29.7007 284.259 31.5529 284.259 33.8095Z" fill="black"/>
<path d="M313.806 17.5308H326.323L332.517 32.805L334.525 38.3095L336.533 32.805L342.61 17.5308H355.127L334.538 63.2361H322.151L328.279 49.1488L313.819 17.5308H313.806Z" fill="black"/>
<path d="M370.566 53.2186C369.562 53.2186 368.637 53.0359 367.776 52.6838C366.915 52.3316 366.185 51.8359 365.559 51.2098C364.933 50.5837 364.438 49.8663 364.086 49.0445C363.734 48.2228 363.551 47.3489 363.551 46.3836C363.551 45.4184 363.734 44.5836 364.086 43.7488C364.438 42.914 364.933 42.1835 365.559 41.5574C366.185 40.9313 366.928 40.4357 367.776 40.0835C368.624 39.7313 369.562 39.5487 370.566 39.5487C371.57 39.5487 372.496 39.7313 373.357 40.0835C374.217 40.4357 374.948 40.9313 375.574 41.5574C376.199 42.1835 376.695 42.914 377.047 43.7488C377.399 44.5836 377.582 45.4575 377.582 46.3836C377.582 47.3097 377.399 48.2358 377.047 49.0445C376.695 49.8533 376.199 50.5837 375.574 51.2098C374.948 51.8359 374.204 52.3316 373.357 52.6838C372.496 53.0359 371.57 53.2186 370.566 53.2186ZM366.12 34.6181L364.112 0H377.008L375 34.6181H366.107H366.12Z" fill="black"/>
<path d="M31.1509 114.263V64.8013H67.8959V75.5102H43.3557V86.2843H66.0704V96.7976H43.3557V114.263H31.1509Z" fill="black"/>
<path d="M84.5995 81.7061V99.1717C84.5995 101.011 85.095 102.446 86.099 103.489C87.1031 104.533 88.4983 105.054 90.2977 105.054C92.0972 105.054 93.4924 104.533 94.4964 103.489C95.5004 102.446 95.9959 101.011 95.9959 99.1717V81.7061H107.705V100.424C107.705 105.185 106.206 108.889 103.194 111.537C100.195 114.185 95.8916 115.515 90.2977 115.515C84.7038 115.515 80.4139 114.185 77.4018 111.537C74.4027 108.889 72.8901 105.185 72.8901 100.424V81.7061H84.5995Z" fill="black"/>
<path d="M137.865 114.264V96.8632C137.865 94.9849 137.344 93.4718 136.301 92.3239C135.258 91.1761 133.797 90.6021 131.919 90.6021C130.042 90.6021 128.581 91.1761 127.538 92.3239C126.495 93.4718 125.974 94.9849 125.974 96.8632V114.264H114.264V81.7063H125.843V85.0846C126.678 83.6629 127.89 82.5411 129.468 81.7063C131.059 80.8715 132.91 80.4541 135.036 80.4541C139.548 80.4541 143.094 81.7715 145.676 84.3933C148.258 87.0282 149.562 90.8239 149.562 95.7936V114.264H137.852H137.865Z" fill="black"/>
<path d="M177.74 63.5493H189.319V100.424C189.319 101.885 189.684 102.981 190.414 103.711C191.144 104.442 192.135 104.807 193.387 104.807C194.052 104.807 194.73 104.742 195.421 104.624C196.112 104.494 196.764 104.35 197.39 104.181L198.459 114.759C197.338 115.007 196.073 115.203 194.678 115.359C193.283 115.503 191.953 115.581 190.701 115.581C186.528 115.581 183.321 114.472 181.091 112.268C178.861 110.05 177.74 106.881 177.74 102.746V63.5493Z" fill="black"/>
<path d="M199.698 97.9848C199.698 95.3108 200.142 92.8977 201.041 90.7194C201.941 88.5541 203.18 86.7019 204.771 85.1758C206.361 83.6497 208.239 82.4888 210.43 81.667C212.62 80.8453 215.006 80.4409 217.601 80.4409C220.196 80.4409 222.582 80.8453 224.773 81.667C226.964 82.4757 228.854 83.6236 230.432 85.1106C232.023 86.5976 233.262 88.3715 234.161 90.4324C235.061 92.4934 235.504 94.8021 235.504 97.3456C235.504 98.1022 235.478 98.8065 235.439 99.4718C235.4 100.137 235.309 100.789 235.191 101.415H210.964C212.177 104.715 215.306 106.359 220.353 106.359C222.1 106.359 223.873 106.124 225.673 105.668C227.472 105.211 229.037 104.494 230.367 103.541L233.679 112.242C229.585 114.407 224.734 115.503 219.101 115.503C216.141 115.503 213.455 115.111 211.056 114.342C208.656 113.572 206.609 112.437 204.927 110.963C203.232 109.476 201.941 107.65 201.041 105.485C200.142 103.32 199.698 100.815 199.698 97.9717V97.9848ZM224.734 94.6064C224.525 92.976 223.769 91.7107 222.452 90.7846C221.135 89.8716 219.518 89.402 217.601 89.402C216.011 89.402 214.615 89.8324 213.403 90.6803C212.19 91.5412 211.342 92.8455 210.834 94.5934H224.734V94.6064Z" fill="black"/>
<path d="M239.26 97.9848C239.26 95.3499 239.677 92.9629 240.512 90.8107C241.346 88.6585 242.494 86.8193 243.954 85.2671C245.414 83.728 247.149 82.5279 249.144 81.6931C251.152 80.8583 253.316 80.4409 255.65 80.4409C257.737 80.4409 259.601 80.8844 261.257 81.7583C262.9 82.6323 264.256 83.8453 265.299 85.3845V81.6931H276.813V114.185H265.299V110.559C264.256 112.189 262.913 113.416 261.257 114.25C259.614 115.085 257.737 115.503 255.65 115.503C253.316 115.503 251.139 115.085 249.144 114.25C247.136 113.416 245.414 112.229 243.954 110.676C242.494 109.137 241.346 107.285 240.512 105.133C239.677 102.981 239.26 100.594 239.26 97.9587V97.9848ZM251.021 97.9848C251.021 100.241 251.673 102.094 252.99 103.554C254.307 105.015 256.028 105.746 258.154 105.746C260.279 105.746 262 105.015 263.317 103.554C264.634 102.094 265.286 100.241 265.286 97.9848C265.286 95.7282 264.634 93.876 263.317 92.4151C262 90.9542 260.279 90.2237 258.154 90.2237C256.028 90.2237 254.307 90.9542 252.99 92.4151C251.673 93.876 251.021 95.7282 251.021 97.9848Z" fill="black"/>
<path d="M308.981 93.4193C308.016 92.7932 306.973 92.2975 305.852 91.9453C304.73 91.5931 303.531 91.4105 302.279 91.4105C300.362 91.4105 298.745 92.1149 297.428 93.5366C296.111 94.9584 295.459 96.9541 295.459 99.5498V114.263H283.698V81.706H295.459V87.1582C296.255 84.9017 297.454 83.219 299.058 82.1234C300.662 81.0146 302.474 80.4668 304.469 80.4668C305.852 80.4668 307.208 80.6233 308.564 80.9364C309.92 81.2494 311.198 81.6929 312.41 82.2799L308.968 93.4193H308.981Z" fill="black"/>
<path d="M339.65 114.264V96.8632C339.65 94.9849 339.129 93.4718 338.085 92.3239C337.042 91.1761 335.582 90.6021 333.704 90.6021C331.826 90.6021 330.366 91.1761 329.323 92.3239C328.28 93.4718 327.758 94.9849 327.758 96.8632V114.264H316.049V81.7063H327.628V85.0846C328.462 83.6629 329.675 82.5411 331.253 81.7063C332.844 80.8715 334.695 80.4541 336.821 80.4541C341.332 80.4541 344.866 81.7715 347.461 84.3933C350.043 87.0282 351.346 90.8239 351.346 95.7936V114.264H339.637H339.65Z" fill="black"/>
<path d="M363.747 77.1928C362.743 77.1928 361.817 77.0102 360.956 76.658C360.096 76.3058 359.365 75.8102 358.74 75.1841C358.114 74.558 357.618 73.8406 357.266 73.0188C356.914 72.2101 356.731 71.3231 356.731 70.3579C356.731 69.3926 356.914 68.5578 357.266 67.723C357.618 66.8882 358.114 66.1578 358.74 65.5317C359.365 64.9056 360.109 64.4099 360.956 64.0577C361.817 63.7056 362.743 63.5229 363.747 63.5229C364.751 63.5229 365.676 63.7056 366.537 64.0577C367.398 64.4099 368.128 64.9056 368.754 65.5317C369.38 66.1578 369.875 66.8882 370.227 67.723C370.579 68.5578 370.762 69.4318 370.762 70.3579C370.762 71.284 370.579 72.2101 370.227 73.0188C369.875 73.8275 369.38 74.558 368.754 75.1841C368.128 75.8102 367.385 76.3058 366.537 76.658C365.69 77.0102 364.751 77.1928 363.747 77.1928ZM357.931 81.7059H369.575V114.263H357.931V81.7059Z" fill="black"/>
<path d="M400.362 114.264V96.8632C400.362 94.9849 399.84 93.4718 398.797 92.3239C397.754 91.1761 396.293 90.6021 394.416 90.6021C392.538 90.6021 391.077 91.1761 390.034 92.3239C388.991 93.4718 388.47 94.9849 388.47 96.8632V114.264H376.76V81.7063H388.339V85.0846C389.174 83.6629 390.386 82.5411 391.964 81.7063C393.542 80.8715 395.407 80.4541 397.532 80.4541C402.044 80.4541 405.59 81.7715 408.172 84.3933C410.754 87.0282 412.058 90.8239 412.058 95.7936V114.264H400.349H400.362Z" fill="black"/>
<path d="M434.851 111.198C432.269 111.198 429.883 110.846 427.718 110.129C425.553 109.424 423.676 108.407 422.085 107.089C420.494 105.772 419.268 104.168 418.395 102.263C417.521 100.359 417.078 98.2196 417.078 95.8456C417.078 93.4716 417.521 91.3325 418.395 89.4281C419.268 87.5237 420.481 85.9063 422.02 84.5758C423.558 83.2453 425.384 82.2149 427.47 81.5105C429.557 80.8061 431.812 80.4409 434.225 80.4409C435.229 80.4409 436.35 80.5453 437.602 80.754C438.854 80.9627 439.923 81.2757 440.796 81.6931L455.44 81.067V90.015H449.05C449.885 90.7194 450.615 91.6846 451.241 92.8977C451.867 94.1108 452.18 95.5065 452.18 97.0978C452.18 98.937 451.763 100.607 450.928 102.107C450.094 103.607 448.803 104.885 447.042 105.928C449.168 106.633 450.824 107.755 451.984 109.281C453.158 110.807 453.732 112.881 453.732 115.516C453.732 117.642 453.288 119.52 452.389 121.151C451.489 122.781 450.211 124.151 448.542 125.285C446.873 126.407 444.839 127.255 442.439 127.816C440.04 128.377 437.315 128.664 434.277 128.664C431.239 128.664 427.94 128.233 424.797 127.385C421.642 126.525 418.903 125.272 416.569 123.603L421.824 114.655C422.58 115.359 423.441 115.998 424.419 116.559C425.397 117.12 426.44 117.59 427.549 117.968C428.657 118.346 429.778 118.633 430.926 118.842C432.073 119.05 433.195 119.155 434.277 119.155C436.78 119.155 438.736 118.816 440.158 118.15C441.579 117.485 442.283 116.52 442.283 115.268C442.283 113.676 441.631 112.607 440.34 112.046C439.049 111.485 437.211 111.198 434.838 111.198H434.851ZM428.774 96.2891C428.774 98.2065 429.335 99.7457 430.469 100.894C431.591 102.041 433.051 102.615 434.851 102.615C436.65 102.615 438.045 102.041 439.167 100.894C440.288 99.7457 440.862 98.2065 440.862 96.2891C440.862 94.3717 440.301 92.8325 439.167 91.6846C438.045 90.5368 436.598 89.9629 434.851 89.9629C433.103 89.9629 431.591 90.5368 430.469 91.6846C429.348 92.8325 428.774 94.3717 428.774 96.2891Z" fill="black"/>
<path d="M83.1392 141.877C82.1352 141.877 81.2094 141.694 80.3488 141.342C79.4882 140.99 78.758 140.494 78.1321 139.868C77.5062 139.242 77.0107 138.525 76.6586 137.703C76.3066 136.894 76.124 136.007 76.124 135.042C76.124 134.077 76.3066 133.242 76.6586 132.407C77.0107 131.572 77.5062 130.842 78.1321 130.216C78.758 129.59 79.5012 129.094 80.3488 128.742C81.2094 128.39 82.1352 128.207 83.1392 128.207C84.1432 128.207 85.069 128.39 85.9296 128.742C86.7902 129.094 87.5204 129.59 88.1463 130.216C88.7722 130.842 89.2677 131.572 89.6198 132.407C89.9719 133.242 90.1544 134.116 90.1544 135.042C90.1544 135.968 89.9719 136.894 89.6198 137.703C89.2677 138.512 88.7722 139.242 88.1463 139.868C87.5204 140.494 86.7772 140.99 85.9296 141.342C85.069 141.694 84.1432 141.877 83.1392 141.877ZM77.3106 146.377H88.9548V178.934H77.3106V146.377Z" fill="black"/>
<path d="M95.3962 156.017C95.3962 152.638 96.7262 149.977 99.3993 148.034C102.072 146.09 106.01 145.125 111.226 145.125C113.56 145.125 115.894 145.373 118.241 145.882C120.575 146.377 122.701 147.069 124.63 147.942L121.371 156.643C119.988 155.808 118.424 155.156 116.65 154.673C114.877 154.19 113.286 153.956 111.865 153.956C108.488 153.956 106.793 154.621 106.793 155.964C106.793 156.512 107.34 156.943 108.449 157.282C109.557 157.621 111.5 158.117 114.303 158.782C117.68 159.617 120.327 160.843 122.257 162.447C124.174 164.051 125.139 166.36 125.139 169.36C125.139 171.239 124.787 172.856 124.07 174.213C123.366 175.569 122.362 176.691 121.071 177.591C119.78 178.491 118.228 179.143 116.403 179.561C114.59 179.978 112.569 180.187 110.365 180.187C109.035 180.187 107.666 180.121 106.271 180.004C104.876 179.874 103.481 179.691 102.111 179.443C100.729 179.195 99.3992 178.895 98.1083 178.53C96.8174 178.178 95.6048 177.747 94.4834 177.252L97.7432 168.304C99.3732 169.217 101.199 169.96 103.22 170.521C105.241 171.082 107.21 171.369 109.14 171.369C110.561 171.369 111.682 171.226 112.517 170.926C113.351 170.639 113.769 170.13 113.769 169.426C113.769 168.669 113.195 168.108 112.047 167.704C110.9 167.312 109.048 166.843 106.506 166.295C102.411 165.421 99.5427 164.143 97.8997 162.473C96.2568 160.804 95.4222 158.651 95.4222 156.03L95.3962 156.017Z" fill="black"/>
<path d="M182.838 177.056C182.082 177.552 181.221 178.008 180.243 178.4C179.265 178.791 178.222 179.117 177.114 179.365C176.005 179.613 174.884 179.808 173.737 179.965C172.589 180.108 171.468 180.187 170.385 180.187C167.543 180.187 164.935 179.782 162.562 178.961C160.189 178.152 158.115 176.991 156.368 175.491C154.621 173.991 153.252 172.152 152.274 169.986C151.296 167.821 150.8 165.369 150.8 162.656C150.8 159.943 151.296 157.504 152.274 155.325C153.252 153.16 154.621 151.321 156.368 149.821C158.115 148.321 160.189 147.16 162.562 146.351C164.935 145.542 167.543 145.125 170.385 145.125C171.429 145.125 172.524 145.203 173.671 145.347C174.819 145.49 175.94 145.686 177.022 145.947C178.105 146.195 179.135 146.495 180.087 146.86C181.052 147.212 181.886 147.616 182.59 148.086L178.705 157.66C177.831 156.956 176.657 156.382 175.197 155.964C173.737 155.547 172.354 155.338 171.064 155.338C168.808 155.338 166.93 155.99 165.43 157.282C163.931 158.573 163.175 160.373 163.175 162.669C163.175 164.965 163.931 166.765 165.43 168.056C166.93 169.347 168.899 169.999 171.311 169.999C172.733 169.999 174.154 169.791 175.601 169.373C177.036 168.956 178.235 168.395 179.2 167.678L182.825 177.069L182.838 177.056Z" fill="black"/>
<path d="M184.898 162.656C184.898 160.021 185.381 157.634 186.333 155.482C187.298 153.329 188.615 151.49 190.31 149.938C192.005 148.399 193.987 147.199 196.282 146.364C198.577 145.529 201.08 145.112 203.792 145.112C206.505 145.112 209.008 145.529 211.303 146.364C213.598 147.199 215.593 148.386 217.275 149.938C218.97 151.477 220.287 153.329 221.252 155.482C222.217 157.634 222.687 160.021 222.687 162.656C222.687 165.291 222.204 167.678 221.252 169.83C220.287 171.982 218.97 173.821 217.275 175.373C215.58 176.913 213.598 178.113 211.303 178.947C209.008 179.782 206.505 180.2 203.792 180.2C201.08 180.2 198.577 179.782 196.282 178.947C193.987 178.113 191.992 176.926 190.31 175.373C188.615 173.834 187.298 171.982 186.333 169.83C185.368 167.678 184.898 165.291 184.898 162.656ZM196.673 162.656C196.673 164.912 197.325 166.764 198.642 168.225C199.959 169.686 201.68 170.417 203.806 170.417C205.931 170.417 207.652 169.686 208.969 168.225C210.286 166.764 210.938 164.912 210.938 162.656C210.938 160.399 210.286 158.547 208.969 157.086C207.652 155.625 205.931 154.895 203.806 154.895C201.68 154.895 199.959 155.625 198.642 157.086C197.325 158.547 196.673 160.399 196.673 162.656Z" fill="black"/>
<path d="M271.206 178.934V161.534C271.206 159.656 270.75 158.143 269.824 156.995C268.898 155.847 267.659 155.273 266.068 155.273C264.478 155.273 263.226 155.847 262.313 156.995C261.4 158.143 260.931 159.656 260.931 161.534V178.934H249.73V161.534C249.73 159.656 249.248 158.143 248.296 156.995C247.331 155.847 246.105 155.273 244.606 155.273C243.015 155.273 241.763 155.847 240.85 156.995C239.938 158.143 239.468 159.656 239.468 161.534V178.934H228.02V146.377H239.351V149.756C240.185 148.334 241.359 147.212 242.884 146.377C244.41 145.542 246.236 145.125 248.361 145.125C250.486 145.125 252.325 145.516 253.994 146.312C255.663 147.108 257.032 148.295 258.127 149.886C259.092 148.464 260.357 147.316 261.948 146.442C263.539 145.568 265.325 145.125 267.333 145.125C272.301 145.125 276.096 146.442 278.73 149.064C281.364 151.699 282.668 155.495 282.668 160.464V178.934H271.219H271.206Z" fill="black"/>
<path d="M295.055 141.877C294.051 141.877 293.125 141.694 292.265 141.342C291.404 140.99 290.674 140.494 290.048 139.868C289.422 139.242 288.927 138.525 288.575 137.703C288.223 136.894 288.04 136.007 288.04 135.042C288.04 134.077 288.223 133.242 288.575 132.407C288.927 131.572 289.422 130.842 290.048 130.216C290.674 129.59 291.417 129.094 292.265 128.742C293.125 128.39 294.051 128.207 295.055 128.207C296.059 128.207 296.985 128.39 297.846 128.742C298.706 129.094 299.436 129.59 300.062 130.216C300.688 130.842 301.184 131.572 301.536 132.407C301.888 133.242 302.07 134.116 302.07 135.042C302.07 135.968 301.888 136.894 301.536 137.703C301.184 138.512 300.688 139.242 300.062 139.868C299.436 140.494 298.693 140.99 297.846 141.342C296.985 141.694 296.059 141.877 295.055 141.877ZM289.24 146.377H300.884V178.934H289.24V146.377Z" fill="black"/>
<path d="M331.67 178.934V161.534C331.67 159.656 331.148 158.143 330.105 156.995C329.062 155.847 327.601 155.273 325.724 155.273C323.846 155.273 322.386 155.847 321.342 156.995C320.299 158.143 319.778 159.656 319.778 161.534V178.934H308.068V146.377H319.647V149.756C320.482 148.334 321.695 147.212 323.272 146.377C324.85 145.542 326.715 145.125 328.84 145.125C333.352 145.125 336.898 146.442 339.48 149.064C342.062 151.699 343.366 155.495 343.366 160.464V178.934H331.657H331.67Z" fill="black"/>
<path d="M366.159 175.869C363.577 175.869 361.191 175.517 359.027 174.799C356.862 174.095 354.984 173.078 353.394 171.76C351.803 170.443 350.577 168.838 349.703 166.934C348.83 165.03 348.386 162.89 348.386 160.516C348.386 158.143 348.83 156.003 349.703 154.099C350.577 152.195 351.79 150.577 353.328 149.247C354.867 147.916 356.693 146.886 358.779 146.181C360.865 145.477 363.121 145.112 365.533 145.112C366.537 145.112 367.659 145.216 368.91 145.425C370.162 145.634 371.231 145.947 372.105 146.364L386.748 145.738V154.686H380.359C381.194 155.39 381.924 156.356 382.55 157.569C383.176 158.782 383.488 160.177 383.488 161.769C383.488 163.608 383.071 165.277 382.237 166.778C381.402 168.278 380.111 169.556 378.351 170.599C380.476 171.304 382.132 172.425 383.293 173.952C384.466 175.478 385.04 177.552 385.04 180.186C385.04 182.313 384.597 184.191 383.697 185.821C382.797 187.452 381.52 188.821 379.85 189.956C378.181 191.078 376.147 191.926 373.748 192.487C371.349 193.048 368.624 193.335 365.585 193.335C362.547 193.335 359.248 192.904 356.106 192.056C352.95 191.195 350.212 189.943 347.878 188.274L353.133 179.326C353.889 180.03 354.75 180.669 355.728 181.23C356.706 181.791 357.749 182.26 358.857 182.639C359.965 183.017 361.087 183.304 362.234 183.513C363.382 183.721 364.503 183.826 365.585 183.826C368.089 183.826 370.045 183.487 371.466 182.821C372.887 182.156 373.592 181.191 373.592 179.939C373.592 178.347 372.94 177.278 371.649 176.717C370.358 176.156 368.519 175.869 366.146 175.869H366.159ZM360.083 160.973C360.083 162.89 360.643 164.43 361.778 165.577C362.899 166.725 364.36 167.299 366.159 167.299C367.959 167.299 369.354 166.725 370.475 165.577C371.597 164.43 372.17 162.89 372.17 160.973C372.17 159.056 371.61 157.516 370.475 156.369C369.354 155.221 367.906 154.647 366.159 154.647C364.412 154.647 362.899 155.221 361.778 156.369C360.657 157.516 360.083 159.056 360.083 160.973Z" fill="black"/>
<path d="M403.465 182.065C402.461 182.065 401.535 181.882 400.674 181.53C399.814 181.178 399.084 180.682 398.458 180.056C397.832 179.43 397.336 178.713 396.984 177.891C396.632 177.082 396.45 176.195 396.45 175.23C396.45 174.265 396.632 173.43 396.984 172.595C397.336 171.76 397.832 171.03 398.458 170.404C399.084 169.778 399.827 169.282 400.674 168.93C401.535 168.578 402.461 168.395 403.465 168.395C404.469 168.395 405.395 168.578 406.255 168.93C407.116 169.282 407.846 169.778 408.472 170.404C409.098 171.03 409.593 171.76 409.945 172.595C410.298 173.43 410.48 174.304 410.48 175.23C410.48 176.156 410.298 177.082 409.945 177.891C409.593 178.7 409.098 179.43 408.472 180.056C407.846 180.682 407.103 181.178 406.255 181.53C405.408 181.882 404.469 182.065 403.465 182.065ZM399.018 163.478L397.01 128.859H409.906L407.898 163.478H399.005H399.018Z" fill="black"/>
<path d="M0.495566 54.601C-0.677979 41.4007 8.56695 27.4699 28.5694 27.8352C48.5718 28.1873 55.926 41.6615 55.6783 55.5923C55.5087 65.2577 46.4594 69.523 36.4582 70.8404C29.9124 81.5494 34.4893 84.7842 34.4893 84.7842L32.3377 87.9408C32.3377 87.9408 3.50766 88.5278 0.495566 54.614V54.601Z" fill="#91E1FF"/>
<g opacity="0.2">
<path d="M13.6655 33.6401C11.0837 35.1923 8.47584 37.188 7.65436 40.0706C7.47181 40.7228 7.40661 41.5185 7.87603 42.0142C8.08466 42.2359 8.38457 42.3794 8.68447 42.4446C10.3274 42.8229 11.7748 41.4141 13.0266 40.2793C15.4519 38.088 18.3988 36.5619 21.424 35.3488C22.2063 35.0357 23.0669 34.6836 23.419 33.914C24.41 31.7748 21.2544 31.2791 19.8462 31.3444C17.6165 31.4487 15.5301 32.5053 13.6525 33.627L13.6655 33.6401Z" fill="white"/>
</g>
<path d="M43.6165 64.2794C43.6165 64.2794 44.6206 67.0838 43.8252 69.0404C43.8252 69.0404 36.471 72.1057 27.8389 70.423C27.8389 70.423 20.5238 69.3535 17.4204 66.9404C17.4204 66.9404 17.8638 64.4229 18.6592 63.8099C18.6592 63.8099 25.1658 65.0099 33.5632 61.4229C33.5632 61.4229 40.2524 64.162 43.6296 64.2794H43.6165Z" fill="white"/>
<path d="M34.2153 84.889C34.2153 84.889 36.9014 81.2367 40.1743 81.3411C42.6909 81.4193 42.2345 84.3803 39.744 86.5846C37.8141 88.2934 39.4441 91.5935 39.4441 91.5935C39.4441 91.5935 40.5785 93.9805 38.0619 94.2022C35.7409 94.3979 32.1029 90.0021 31.7378 87.576L34.2022 84.889H34.2153Z" fill="#91E1FF"/>
<path d="M19.2981 67.0057L34.5672 69.3145C26.3524 78.4712 32.7938 82.88 30.6032 84.5365C27.891 86.5844 16.0643 81.6408 19.2981 66.9927V67.0057Z" fill="white"/>
<path d="M44.9209 64.6842C44.7644 64.6842 44.5949 64.6842 44.4254 64.6842C40.4614 64.5146 35.3239 62.3494 33.8374 61.6972C33.694 61.6319 33.5245 61.6319 33.368 61.6972C31.047 62.6754 23.106 65.7407 18.4379 64.019C16.834 63.432 15.8822 62.6363 15.6214 61.6711C15.3345 60.6276 15.9604 59.8189 15.9995 59.7928C16.169 59.5841 16.482 59.5449 16.6906 59.7145C16.8992 59.8841 16.9384 60.1971 16.7688 60.4058C16.7688 60.4189 16.4168 60.8754 16.5733 61.4232C16.7558 62.0493 17.5251 62.6363 18.7899 63.0928C23.2364 64.7364 31.4121 61.4624 33.0029 60.7841C33.4071 60.6145 33.8504 60.6145 34.2547 60.7841C35.702 61.4232 40.6961 63.5233 44.4906 63.6929C46.0683 63.7581 47.2028 63.4842 47.7374 62.8711C48.1807 62.3754 48.0894 61.8276 48.0894 61.8015C48.0503 61.5406 48.2329 61.2798 48.4937 61.2406C48.7675 61.1885 49.0152 61.3711 49.0544 61.6319C49.0544 61.6711 49.2239 62.6494 48.4806 63.4972C47.8026 64.2798 46.603 64.6711 44.9339 64.6711L44.9209 64.6842Z" fill="black"/>
<path d="M37.5663 58.2928C37.2925 58.2928 37.0708 58.0711 37.0708 57.7971C37.0708 56.6754 37.5011 54.771 39.131 54.771C39.6004 54.771 40.0307 54.9536 40.3437 55.2797C41.1391 56.1015 41.1 57.6406 41.1 57.8102C41.1 58.0841 40.8522 58.3059 40.5914 58.2798C40.3176 58.2798 40.109 58.045 40.122 57.7711C40.122 57.4189 40.0699 56.4015 39.6396 55.958C39.4961 55.8145 39.3397 55.7493 39.131 55.7493C38.0748 55.7493 38.0488 57.7711 38.0488 57.7841C38.0488 58.058 37.8271 58.2798 37.5533 58.2798L37.5663 58.2928Z" fill="black"/>
<path d="M25.9486 58.2928C25.6748 58.2928 25.4531 58.0711 25.4531 57.7971C25.4531 56.6754 25.8834 54.771 27.5133 54.771C27.9828 54.771 28.4131 54.9536 28.726 55.2797C29.5214 56.1015 29.4823 57.6406 29.4823 57.8102C29.4823 58.0841 29.2476 58.3059 28.9738 58.2798C28.6999 58.2798 28.4913 58.045 28.5043 57.7711C28.5043 57.4189 28.4522 56.4015 28.0219 55.958C27.8784 55.8145 27.722 55.7493 27.5133 55.7493C26.4572 55.7493 26.4311 57.7711 26.4311 57.7841C26.4311 58.058 26.2094 58.2798 25.9356 58.2798L25.9486 58.2928Z" fill="black"/>
<path d="M32.9507 71.3887C28.3739 71.3887 20.3808 70.6191 15.0737 65.8451C14.9173 65.7016 14.9042 65.4538 15.0477 65.2842C15.1911 65.1277 15.4388 65.1147 15.6084 65.2581C22.9626 71.8974 36.2758 70.4496 36.4062 70.4365C36.6278 70.4104 36.8104 70.5669 36.8365 70.7757C36.8626 70.9974 36.7061 71.18 36.4974 71.2061C36.3279 71.2322 34.9718 71.3757 32.9507 71.3757V71.3887Z" fill="black"/>
<path d="M15.269 67.9187C15.269 67.9187 19.559 66.3534 20.5891 67.8404C21.3845 68.9883 20.0675 71.7927 16.8077 74.271" fill="#92E3FF"/>
<path d="M16.8077 74.6623C16.6903 74.6623 16.5729 74.6101 16.4947 74.5058C16.3643 74.3362 16.4034 74.0884 16.5729 73.9579C19.8589 71.4666 20.8499 68.897 20.2761 68.0621C19.6502 67.1621 16.9641 67.723 15.4124 68.2839C15.2038 68.3622 14.9821 68.2578 14.9039 68.0491C14.8257 67.8404 14.93 67.6187 15.1386 67.5404C15.608 67.3708 19.7415 65.923 20.9151 67.6056C21.9452 69.0796 20.2501 72.1448 17.0424 74.571C16.9772 74.6232 16.8859 74.6492 16.8077 74.6492V74.6623Z" fill="black"/>
<path d="M34.4371 71.1277C34.4371 71.1277 30.7731 68.4146 29.3518 69.5494C28.2565 70.4233 28.7389 73.4886 31.1642 76.7887" fill="#92E3FF"/>
<path d="M31.1641 77.1799C31.0468 77.1799 30.9294 77.1278 30.8512 77.0234C28.465 73.7885 27.7087 70.3711 29.1169 69.2493C30.7208 67.958 34.2805 70.5276 34.6717 70.8146C34.8412 70.945 34.8803 71.1928 34.7499 71.3624C34.6195 71.532 34.3718 71.5711 34.2023 71.4407C32.8723 70.4624 30.46 69.158 29.5994 69.8493C28.817 70.4754 29.0387 73.2277 31.4771 76.5408C31.6074 76.7104 31.5683 76.9582 31.3988 77.0886C31.3336 77.1408 31.2423 77.1669 31.1641 77.1669V77.1799Z" fill="black"/>
<path d="M37.9968 94.6065C35.5975 94.6065 32.3246 90.7978 31.5292 88.3064C29.1691 88.202 22.2973 87.5238 15.5429 83.2715C6.46752 77.5583 1.27785 67.932 0.104301 54.6405C-0.52159 47.6099 1.78638 40.7228 6.4284 35.74C10.0664 31.84 16.8338 27.2225 28.5823 27.4442C37.9968 27.6138 45.2075 30.6138 50.0191 36.3661C54.1134 41.2706 56.1997 47.9099 56.0693 55.5926C55.9129 63.9928 49.0411 69.5234 36.6928 71.193C31.6987 79.4627 33.4591 83.0106 34.3588 84.0933C35.2976 83.0237 37.5404 80.8584 40.1874 80.9497C41.2696 80.9889 42.039 81.4584 42.3258 82.2541C42.7692 83.5324 41.8825 85.3063 40.0048 86.8846C38.3879 88.2542 39.7962 91.3978 39.8092 91.4369C39.8484 91.5282 40.3178 92.8978 39.6919 93.8239C39.3659 94.3065 38.8313 94.5674 38.088 94.6065C38.0489 94.6065 38.0228 94.6065 37.9837 94.6065H37.9968ZM27.813 28.2138C19.0896 28.2138 11.9049 30.9921 6.9891 36.2618C2.50355 41.088 0.273813 47.7533 0.886664 54.5622C2.04717 67.5929 7.11949 77.0235 15.9602 82.5932C22.845 86.9368 29.8602 87.4586 31.8422 87.5238C32.0117 87.5238 32.1682 87.6542 32.2073 87.8238C32.8071 90.2108 36.1191 93.8891 38.062 93.8109C38.5444 93.7848 38.8704 93.6543 39.0529 93.3804C39.392 92.8848 39.1964 92.0239 39.0921 91.7369C39.0399 91.6195 37.4361 88.0455 39.5093 86.2977C41.3218 84.7585 41.8695 83.2976 41.5956 82.528C41.387 81.915 40.709 81.7584 40.1743 81.7454C37.5665 81.6541 35.3106 84.1715 34.6848 84.9411C34.6196 85.0194 34.5152 85.0716 34.4109 85.0846C34.3066 85.0846 34.2023 85.0585 34.1241 84.9802C33.3939 84.3281 30.0558 80.5715 36.1191 70.6321C36.1843 70.5278 36.2886 70.4625 36.406 70.4495C43.369 69.5364 55.0914 66.3798 55.287 55.5926C55.3783 50.3751 54.4394 42.888 49.4193 36.8879C44.7642 31.3182 37.749 28.4094 28.5693 28.2399C28.3215 28.2399 28.0738 28.2399 27.826 28.2399L27.813 28.2138Z" fill="black"/>
<path d="M27.5652 27.8482C27.3566 27.8482 27.187 27.6917 27.174 27.483C27.1088 26.4004 27.1479 24.4699 28.1259 23.6481C28.5562 23.2829 29.0908 23.1786 29.7297 23.3351C30.2513 23.4264 31.0206 23.9481 30.8902 25.0177C30.8642 25.2395 30.6686 25.383 30.4469 25.3569C30.2252 25.3308 30.0818 25.1351 30.1079 24.9134C30.1991 24.2221 29.6385 24.1177 29.5733 24.1047C29.156 24.0134 28.8691 24.0525 28.6344 24.2481C28.1259 24.6786 27.8781 25.8656 27.9694 27.4308C27.9694 27.6526 27.8129 27.8352 27.6043 27.8482C27.6043 27.8482 27.5913 27.8482 27.5782 27.8482H27.5652Z" fill="black"/>
<path d="M27.448 27.8094H27.435C27.2133 27.8094 27.0438 27.6137 27.0569 27.405C27.109 25.8528 26.8352 24.6789 26.3136 24.2745C26.0789 24.0919 25.779 24.0398 25.4009 24.1441C25.2313 24.1832 24.7619 24.3267 24.8532 24.9659C24.8793 25.1746 24.7358 25.3833 24.5272 25.4093C24.3055 25.4354 24.11 25.292 24.0839 25.0833C23.9274 24.0137 24.6837 23.4789 25.2313 23.3745C25.8312 23.218 26.3788 23.3093 26.8091 23.6615C27.7871 24.4572 27.8783 26.3615 27.8392 27.4311C27.8392 27.6398 27.6567 27.8094 27.448 27.8094Z" fill="black"/>
<path d="M56.4868 31.5658C55.2742 29.0223 53.0314 28.5788 50.4105 29.8571C48.7545 30.6658 48.2981 31.0571 47.7896 32.518L51.9491 35.8964C51.9491 35.8964 58.3384 35.4659 56.4868 31.5789V31.5658Z" fill="#3B8AFF"/>
<path d="M51.9619 36.2875C51.8706 36.2875 51.7794 36.2614 51.7142 36.1962L47.5546 32.8179C47.4242 32.7135 47.3721 32.544 47.4372 32.3874C47.9979 30.7961 48.5326 30.3396 50.2538 29.5048C51.8054 28.7482 53.2007 28.5787 54.3872 28.9961C55.4434 29.3613 56.2649 30.17 56.8517 31.4091C57.3341 32.4266 57.3602 33.3396 56.9038 34.1092C55.7825 36.0136 52.1445 36.2875 51.988 36.2875C51.988 36.2875 51.975 36.2875 51.9619 36.2875ZM48.2587 32.3874L52.0793 35.4788C52.7443 35.4136 55.4174 35.0614 56.2128 33.6918C56.5257 33.157 56.4996 32.5048 56.1345 31.7352C55.639 30.7048 54.961 30.0265 54.1134 29.7265C53.1485 29.3874 51.9228 29.5569 50.5797 30.1961C49.0672 30.9265 48.6629 31.2787 48.2587 32.3744V32.3874Z" fill="black"/>
<path d="M47.1633 24.0137C49.9146 24.6789 50.8012 26.7789 50.0971 29.5964C49.6538 31.3834 49.3278 31.8791 47.9978 32.6747L43.8382 29.2964C43.8382 29.2964 42.9776 22.9832 47.1633 24.0006V24.0137Z" fill="#3B8AFF"/>
<path d="M47.9981 33.0792C47.9068 33.0792 47.8286 33.0531 47.7503 32.9879L43.5908 29.6096C43.5125 29.5444 43.4604 29.453 43.4473 29.3617C43.4212 29.2052 42.9518 25.6182 44.5948 24.1312C45.2598 23.5312 46.1595 23.3616 47.2548 23.6225C48.5848 23.9486 49.5498 24.5877 50.1235 25.5399C50.7755 26.6226 50.8928 28.0182 50.4755 29.6878C50.0061 31.5922 49.615 32.1531 48.1937 33.014C48.1285 33.0531 48.0633 33.0662 47.985 33.0662L47.9981 33.0792ZM44.2036 29.1009L48.0241 32.1922C49.0543 31.54 49.315 31.0835 49.7062 29.4922C50.0713 28.0443 49.9801 26.8182 49.4454 25.9443C48.976 25.1747 48.1806 24.6529 47.0592 24.379C46.2117 24.1703 45.5727 24.2877 45.1164 24.7051C43.9428 25.7617 44.1384 28.4226 44.2036 29.0878V29.1009Z" fill="black"/>
<path d="M53.683 27.5225C53.683 27.5225 53.5526 27.5225 53.5005 27.4965C52.7833 27.2878 52.3008 26.8573 52.0531 26.1921C51.9488 25.9182 52.0531 25.6051 52.2748 25.4225L52.7311 25.0834L52.1444 24.7312C51.8836 24.5746 51.7532 24.2616 51.8445 23.9746C52.0531 23.2572 52.4834 22.7746 53.1484 22.5268C53.2266 22.5007 53.3049 22.4876 53.3831 22.4876C53.5917 22.4876 53.7873 22.592 53.9177 22.7485L54.2568 23.2051L54.6088 22.6181C54.7262 22.4094 54.9478 22.292 55.1826 22.292C55.2478 22.292 55.3129 22.292 55.3651 22.3181C56.0823 22.5268 56.5647 22.9572 56.8125 23.6225C56.9168 23.8964 56.8125 24.2094 56.5908 24.392L56.1344 24.7312L56.7212 25.0834C56.982 25.2399 57.1124 25.5529 57.0211 25.8399C56.8125 26.5573 56.3822 27.0399 55.7172 27.2878C55.6389 27.3138 55.5607 27.3269 55.4825 27.3269C55.2738 27.3269 55.0782 27.2225 54.9478 27.066L54.5958 26.6095L54.2437 27.1964C54.1264 27.4051 53.9047 27.5225 53.67 27.5225H53.683Z" fill="#FFE800"/>
<path d="M55.1697 22.683C55.1697 22.683 55.2218 22.683 55.2479 22.683C55.8216 22.8526 56.2389 23.1917 56.4345 23.7396C56.4736 23.857 56.4345 23.9874 56.3432 24.0526L55.4174 24.757L56.4997 25.3961C56.604 25.4613 56.6561 25.5918 56.6301 25.7092C56.4605 26.2831 56.1215 26.7005 55.5739 26.8962C55.5478 26.8962 55.5087 26.9092 55.4826 26.9092C55.3913 26.9092 55.3131 26.8701 55.2609 26.8048L54.5568 25.8787L53.9179 26.9614C53.8657 27.0527 53.7744 27.0918 53.6832 27.0918C53.6571 27.0918 53.631 27.0918 53.6049 27.0918C53.0312 26.9222 52.6139 26.5831 52.4183 26.0353C52.3792 25.9179 52.4183 25.7874 52.5096 25.7222L53.4354 25.0178L52.3531 24.3787C52.2488 24.3135 52.1967 24.183 52.2227 24.0657C52.3923 23.4917 52.7313 23.0743 53.2789 22.8787C53.305 22.8787 53.3441 22.8656 53.3702 22.8656C53.4615 22.8656 53.5397 22.9048 53.5919 22.97L54.296 23.8961L54.9349 22.8135C54.9871 22.7221 55.0784 22.683 55.1697 22.683ZM55.1697 21.9004C54.7915 21.9004 54.4525 22.096 54.2569 22.4221L54.2047 22.5004C54.0091 22.2395 53.6962 22.083 53.3572 22.083C53.2268 22.083 53.1094 22.1091 52.979 22.1482C52.2097 22.4352 51.6881 23.0222 51.4404 23.857C51.31 24.3265 51.5056 24.8222 51.9228 25.07L52.0011 25.1222C51.636 25.4092 51.4925 25.9048 51.6621 26.3353C51.9489 27.1049 52.5357 27.6396 53.3702 27.8744C53.4615 27.9005 53.5658 27.9136 53.6701 27.9136C54.0483 27.9136 54.3873 27.7179 54.5829 27.3918L54.635 27.3136C54.8306 27.5744 55.1436 27.731 55.4826 27.731C55.613 27.731 55.7303 27.7049 55.8607 27.6657C56.6301 27.3788 57.1647 26.7918 57.3994 25.957C57.5298 25.4874 57.3342 24.9918 56.9169 24.7439L56.8387 24.6918C57.2038 24.4048 57.3472 23.9091 57.1777 23.4787C56.8908 22.7091 56.3041 22.1874 55.4696 21.9395C55.3783 21.9134 55.274 21.9004 55.1697 21.9004Z" fill="black"/>
<path d="M52.4572 34.0964C54.687 32.3485 56.8906 29.4789 52.8484 26.544C46.9155 21.183 45.2334 30.4441 45.2334 30.4441L50.5665 34.7746C50.5665 34.7746 51.1142 35.1529 52.4572 34.1094" fill="#3B8AFF"/>
<path d="M50.8666 35.2181C50.5667 35.2181 50.3972 35.1268 50.345 35.0876L44.9728 30.7441C44.8554 30.6528 44.8033 30.5093 44.8293 30.3658C44.8685 30.1701 45.7291 25.5657 48.4543 24.6396C49.8234 24.17 51.3881 24.7179 53.0833 26.244C54.635 27.3657 55.4434 28.6179 55.4695 29.9484C55.4956 31.4354 54.5567 32.9354 52.679 34.4094C51.8315 35.0746 51.2317 35.2311 50.8535 35.2311L50.8666 35.2181ZM50.7753 34.4224C50.8666 34.4485 51.2969 34.5007 52.2096 33.7833C53.3571 32.8832 54.7262 31.4876 54.7002 29.9614C54.6741 28.8919 53.983 27.8484 52.6138 26.857C51.1143 25.5005 49.8104 25.0179 48.7281 25.3831C46.7331 26.0614 45.8594 29.3875 45.6639 30.2875L50.7753 34.4355V34.4224Z" fill="black"/>
<path d="M50.6839 37.6054C47.6457 35.8575 44.9204 33.6271 42.4951 30.9661L43.8382 29.3096C47.085 30.9009 49.7841 33.1444 52.0269 35.9488L50.6839 37.6054Z" fill="#FFE800"/>
<path d="M50.6842 37.9964C50.619 37.9964 50.5538 37.9834 50.4886 37.9443C47.4765 36.2094 44.686 33.9529 42.2086 31.2267C42.0782 31.0832 42.0651 30.8615 42.1955 30.718L43.5386 29.0615C43.6559 28.918 43.8515 28.8788 44.021 28.9571C47.2287 30.5354 50.0322 32.805 52.3402 35.7007C52.4575 35.8442 52.4575 36.0529 52.3402 36.1964L50.9971 37.853C50.9189 37.9443 50.8015 37.9964 50.6972 37.9964H50.6842ZM43.017 30.9528C45.3119 33.4181 47.8546 35.492 50.5929 37.0964L51.5187 35.9486C49.3802 33.3398 46.8375 31.2789 43.9428 29.805L43.017 30.9528Z" fill="black"/>
<path d="M236.873 22.1353C238.086 21.8353 239.312 21.4179 240.368 20.7527C241.737 19.9048 242.78 18.6526 243.237 17.3352C243.471 16.6439 243.55 15.9265 243.289 15.3265C242.767 14.1525 241.033 13.6047 239.651 14.4917C237.434 15.9004 238.151 18.4439 234.696 20.4527C233.966 20.8701 233.796 19.9961 233.196 20.5701C232.544 21.1701 232.323 22.2918 233.183 22.5788C234.096 22.8918 235.895 22.3962 236.886 22.1483L236.873 22.1353Z" fill="#FFBF00"/>
<path d="M242.154 14.2568C242.233 14.6481 242.22 15.0655 242.154 15.4829C241.92 16.8525 241.085 18.2613 239.885 19.3178C238.947 20.1396 237.812 20.7526 236.665 21.2483C235.713 21.6526 234.031 22.4222 233.079 22.2657C232.909 22.2396 232.779 22.1744 232.662 22.0831C232.74 22.3048 232.896 22.4744 233.17 22.5788C234.083 22.8918 235.882 22.3961 236.873 22.1483C238.086 21.8483 239.312 21.4309 240.368 20.7657C241.737 19.9178 242.78 18.6656 243.237 17.3482C243.471 16.6569 243.55 15.9395 243.289 15.3395C243.08 14.8568 242.663 14.4916 242.154 14.2829V14.2568Z" fill="white"/>
<path d="M241.581 14.0874C242.35 14.2178 243.002 14.6743 243.289 15.3265C243.549 15.9265 243.471 16.644 243.237 17.3353C242.78 18.6527 241.737 19.9049 240.368 20.7527C239.299 21.418 238.086 21.8354 236.873 22.1354C235.961 22.3702 234.396 22.8006 233.431 22.631C233.34 22.618 233.248 22.5919 233.17 22.5658C232.31 22.2658 232.544 21.1571 233.183 20.5571C233.379 20.3745 233.522 20.3484 233.666 20.3614C233.835 20.3875 233.992 20.5179 234.2 20.544C234.331 20.5701 234.5 20.544 234.696 20.4397C238.164 18.444 237.434 15.8874 239.651 14.4787C240.277 14.0874 240.968 13.983 241.581 14.0874ZM241.711 13.3178C240.85 13.1743 239.977 13.3569 239.233 13.8265C238.073 14.557 237.59 15.5613 237.121 16.5266C236.586 17.6353 236.039 18.7701 234.305 19.7745C234.278 19.7745 234.265 19.7614 234.239 19.7484C234.135 19.6962 233.992 19.631 233.796 19.6049C233.392 19.5397 233.014 19.6701 232.662 19.9962C232.036 20.5832 231.723 21.4441 231.879 22.1615C231.997 22.7093 232.375 23.1397 232.922 23.3224C233.04 23.3615 233.17 23.4006 233.314 23.4137C234.37 23.5963 235.804 23.2311 236.86 22.9571L237.082 22.905C238.621 22.5136 239.807 22.0441 240.811 21.418C242.324 20.4658 243.484 19.0701 244.006 17.5961C244.345 16.6309 244.345 15.7439 244.032 15.0135C243.641 14.1396 242.793 13.5004 241.737 13.3308L241.711 13.3178Z" fill="black"/>
<path d="M236.365 23.5833C238.008 25.1616 239.012 21.6137 237.043 20.3746C236.247 19.8789 234.083 17.531 234.852 16.644L228.998 19.4876L236.378 23.5833H236.365Z" fill="#FF0000"/>
<path d="M236.13 23.8961L228.802 19.8264C228.672 19.7612 228.593 19.6177 228.606 19.4743C228.606 19.3308 228.698 19.2003 228.828 19.1351L234.683 16.2916C234.852 16.2133 235.048 16.2524 235.165 16.409C235.283 16.5524 235.27 16.7611 235.152 16.9046C235.126 16.9307 235.061 17.009 235.087 17.2438C235.23 18.1699 236.678 19.696 237.251 20.0482C238.321 20.7134 238.595 21.9134 238.503 22.7482C238.425 23.5178 238.047 24.1048 237.538 24.3004C237.408 24.3526 237.212 24.3917 236.978 24.3526C236.743 24.3135 236.456 24.183 236.143 23.8961H236.13ZM229.832 19.5134L236.547 23.2439C236.547 23.2439 236.6 23.283 236.626 23.3091C236.769 23.4396 237.03 23.6613 237.251 23.583C237.473 23.5048 237.669 23.1265 237.708 22.683C237.773 22.07 237.577 21.196 236.821 20.7265C236.182 20.3221 234.5 18.6525 234.305 17.3742C234.305 17.3742 234.305 17.3742 234.305 17.3612L229.832 19.5264V19.5134Z" fill="black"/>
<path d="M216.649 1.27841C218.423 0.32622 219.87 1.22624 220.418 2.54366C221.07 4.05674 221.852 4.69588 220.496 5.66112C219.153 6.62636 217.275 7.39594 215.984 6.35244C214.159 4.89154 214.537 2.41322 216.649 1.27841Z" fill="#FFBF00"/>
<path d="M215.75 6.6656C214.824 5.9221 214.354 4.8786 214.446 3.79597C214.55 2.63507 215.306 1.56549 216.467 0.939385C217.327 0.469809 218.214 0.378503 218.997 0.652422C219.779 0.926341 220.431 1.56549 220.783 2.40029C220.913 2.70029 221.044 2.96117 221.161 3.19596C221.657 4.17424 222.074 5.02208 220.731 5.98732C220.014 6.50907 218.436 7.46127 216.949 7.21343C216.532 7.14822 216.128 6.97865 215.737 6.6656H215.75ZM216.832 1.61766C215.893 2.12637 215.306 2.93508 215.215 3.86119C215.137 4.69599 215.502 5.46557 216.232 6.05254C217.536 7.09604 219.492 5.90906 220.274 5.34818C221.083 4.77425 220.952 4.51338 220.457 3.53509C220.327 3.28726 220.196 3.0003 220.053 2.68725C219.779 2.06115 219.296 1.57853 218.736 1.38287C218.631 1.34374 218.527 1.31765 218.423 1.30461C217.927 1.22635 217.38 1.3307 216.832 1.6307V1.61766Z" fill="black"/>
<path d="M217.119 2.85643C218.188 2.12597 219.009 3.02599 219.296 3.7434C219.622 4.5782 220.313 5.7391 219.609 6.27389C218.905 6.80868 217.432 5.88258 216.754 5.33474C216.036 4.76081 216.036 3.58688 217.119 2.84338V2.85643Z" fill="white"/>
<path d="M235.478 15.1179C235.504 14.8962 235.53 14.6614 235.53 14.4266C235.57 12.6657 234.787 11.5439 234.435 10.6309C233.783 8.97431 233.118 7.52645 231.723 6.35252C230.119 5.21771 228.033 4.34378 225.438 3.91333C222.843 3.46984 220.587 3.60028 218.697 4.14812C216.988 4.78726 215.893 5.94816 214.733 7.29167C214.094 8.02212 212.998 8.83083 212.451 10.5135C212.373 10.7483 212.32 10.97 212.281 11.1918C212.073 12.6918 212.425 13.957 213.207 15.0266C214.759 17.0223 217.888 18.3789 221.487 19.1484C221.539 19.1484 221.591 19.1745 221.644 19.1876C221.709 19.2006 221.774 19.2137 221.839 19.2267C222.165 19.2919 222.504 19.3571 222.83 19.4093C223.169 19.4615 223.495 19.5137 223.834 19.5658C223.899 19.5658 223.965 19.5789 224.03 19.5919C224.082 19.5919 224.134 19.605 224.186 19.618C227.837 20.0746 231.241 19.8267 233.366 18.4571C234.448 17.7136 235.204 16.631 235.504 15.144L235.478 15.1179Z" fill="#FFBF00"/>
<path d="M221.67 12.1829C215.398 11.1133 213.037 12.3264 212.672 14.1525C212.816 14.4526 212.985 14.7395 213.181 15.0134C214.68 16.9439 217.693 18.2874 221.161 19.07C222.126 19.2135 223.143 19.4092 224.16 19.5918C226.572 19.8918 228.88 19.8918 230.771 19.4483C231.762 15.5221 229.024 13.4221 221.643 12.1699L221.67 12.1829Z" fill="white"/>
<path d="M222.882 7.68286C223.769 7.86547 224.382 6.63936 225.138 5.12628C225.386 4.64367 225.568 4.18713 225.685 3.76973C225.438 3.70451 225.203 3.6393 224.929 3.58712C224.668 3.53495 224.408 3.49581 224.147 3.46973C223.873 3.848 223.612 4.29148 223.364 4.7741C222.608 6.28718 221.982 7.51329 222.869 7.68286H222.882Z" fill="#ED9600"/>
<path d="M220.796 6.73049C221.683 6.91311 222.296 5.68699 223.052 4.17392C223.195 3.9 223.3 3.63912 223.404 3.37825C222.778 3.31303 222.152 3.29999 221.552 3.32607C221.461 3.4826 221.37 3.65217 221.279 3.82174C220.522 5.33481 219.896 6.56093 220.783 6.73049H220.796Z" fill="#ED9600"/>
<path d="M225.464 7.65672C226.351 7.83933 226.964 6.61322 227.72 5.10014C227.811 4.93057 227.89 4.761 227.955 4.59143C227.472 4.35664 226.964 4.14794 226.39 3.96533C226.234 4.21316 226.09 4.461 225.96 4.74796C225.203 6.26103 224.578 7.48715 225.464 7.65672Z" fill="#ED9600"/>
<path d="M218.84 11.974C218.683 12.4175 218.188 12.7175 217.745 12.6393C217.301 12.561 217.08 12.1436 217.236 11.7001C217.393 11.2566 217.888 10.9566 218.331 11.0349C218.775 11.1131 218.996 11.5305 218.84 11.974Z" fill="black"/>
<path d="M224.538 13.3309C224.877 13.1353 225.438 13.044 225.751 13.3309C225.855 13.4744 226.064 13.5266 226.194 13.3831C226.507 12.9135 225.725 12.3266 225.177 12.3787C224.721 12.3787 224.225 12.6005 224.069 13.0831C224.004 13.3831 224.33 13.5266 224.538 13.3309Z" fill="black"/>
<path d="M220.066 12.9785C220.066 12.9785 219.648 14.3742 220.626 14.7003C220.626 14.7003 221.826 15.196 222.139 13.3307" fill="#FF8898"/>
<path d="M221.774 13.5917H221.8C222.27 13.6308 222.57 13.5004 222.739 13.37C222.882 13.2656 222.909 13.0699 222.817 12.9395C222.713 12.796 222.517 12.7699 222.387 12.8612C222.296 12.9265 222.139 12.9917 221.878 12.9656C221.839 12.9656 221.67 12.9134 221.605 12.8221C221.579 12.796 221.552 12.7439 221.579 12.6395C221.605 12.4699 221.474 12.3265 221.318 12.2873C221.148 12.2612 220.992 12.3786 220.966 12.5482C220.927 12.796 220.979 13.0178 221.122 13.2004C221.331 13.4743 221.683 13.5656 221.787 13.5787L221.774 13.5917Z" fill="black"/>
<path d="M220.235 13.3308C220.561 13.3829 221.187 13.3308 221.513 12.7568C221.592 12.6003 221.539 12.4177 221.396 12.3264C221.239 12.2481 221.057 12.3003 220.966 12.4438C220.77 12.7829 220.379 12.7177 220.34 12.7047C220.183 12.6655 220.066 12.5873 220.027 12.509C219.962 12.3525 219.779 12.2742 219.61 12.3525C219.453 12.4177 219.375 12.6134 219.453 12.7699C219.531 12.9525 219.727 13.2003 220.196 13.3177C220.209 13.3177 220.222 13.3177 220.235 13.3177V13.3308Z" fill="black"/>
<path d="M220.744 15.0134C220.939 15.0525 221.239 15.0525 221.552 14.883C221.983 14.6482 222.269 14.1395 222.4 13.3829C222.426 13.2394 222.322 13.096 222.178 13.0699C222.035 13.0438 221.891 13.1481 221.865 13.2916C221.774 13.8655 221.565 14.2569 221.292 14.4134C221.018 14.5699 220.718 14.4656 220.718 14.4525C219.988 14.2177 220.314 13.0699 220.314 13.0568C220.353 12.9134 220.274 12.7699 220.131 12.7307C219.988 12.6916 219.844 12.7699 219.805 12.9134C219.636 13.4873 219.557 14.6482 220.535 14.9612C220.535 14.9612 220.613 14.9873 220.744 15.0134Z" fill="black"/>
<path d="M221.735 19.5915L221.383 19.5133C218.54 18.9133 214.759 17.6741 212.868 15.2349C211.994 14.0479 211.668 12.6653 211.877 11.1C211.929 10.8261 211.994 10.6044 212.059 10.3826C212.516 8.98695 213.324 8.16519 213.963 7.51301C214.133 7.34344 214.289 7.18691 214.42 7.03039C215.606 5.64775 216.741 4.46077 218.579 3.76945C220.626 3.18248 222.947 3.09117 225.464 3.52162H225.529C228.046 3.9651 230.21 4.7999 231.971 6.0521C233.444 7.29126 234.122 8.7913 234.787 10.487C234.865 10.6826 234.957 10.8783 235.061 11.1C235.452 11.9348 235.948 12.9653 235.908 14.4392C235.908 14.674 235.882 14.9088 235.843 15.1827C235.843 15.1827 235.843 15.1958 235.843 15.2088C235.53 16.7349 234.761 17.935 233.535 18.7698C230.954 20.4394 226.976 20.3481 224.095 19.9828L223.73 19.9307C223.391 19.8785 223.065 19.8263 222.713 19.7741C222.374 19.722 222.035 19.6567 221.709 19.5915H221.735ZM235.139 14.4132C235.165 13.1349 234.735 12.2218 234.357 11.4261C234.252 11.1913 234.148 10.9826 234.07 10.7739C233.444 9.18261 232.805 7.77388 231.501 6.67821C229.858 5.51731 227.811 4.7086 225.399 4.30424H225.334C222.934 3.88684 220.731 3.9651 218.827 4.51294C217.197 5.126 216.141 6.24776 215.019 7.53909C214.876 7.70866 214.706 7.87823 214.524 8.06084C213.911 8.68694 213.207 9.40435 212.803 10.6305C212.737 10.8131 212.685 11.0218 212.646 11.2305C212.464 12.5609 212.751 13.761 213.494 14.7653C214.85 16.5132 217.719 17.9219 221.539 18.7437L221.891 18.8219C222.543 18.9524 223.208 19.0698 223.86 19.1611L224.212 19.2133C228.098 19.7089 231.266 19.3176 233.118 18.1176C234.161 17.4002 234.813 16.3697 235.087 15.0523C235.113 14.8175 235.139 14.6219 235.139 14.4132Z" fill="black"/>
<path d="M219.401 17.335C219.088 17.5568 218.944 17.9611 218.944 18.3524C218.944 19.4611 219.818 20.3872 220.731 21.0394C223.026 22.696 225.829 23.4917 228.593 24.183C231.162 24.8221 233.757 25.4091 236.378 25.8265C236.926 25.9178 237.578 26.0874 237.995 25.7221C239.442 24.4699 237.395 23.3221 236.469 22.8003C235.557 22.2786 234.592 21.809 233.796 21.1047C231.788 19.3307 229.989 19.2003 226.103 19.2394C225.047 19.2394 223.834 18.822 222.882 18.3524C222.048 17.9481 220.379 16.6306 219.401 17.3089V17.335Z" fill="white"/>
<path d="M238.112 23.9876C237.669 23.4789 236.926 23.0746 236.469 22.8137C235.556 22.2919 234.592 21.8224 233.796 21.118C231.788 19.3441 229.989 19.2136 226.103 19.2527C225.047 19.2527 223.834 18.8353 222.882 18.3658C222.452 18.1571 221.8 17.7136 221.148 17.4136C222.556 18.7832 227.772 23.1007 238.112 23.9746V23.9876Z" fill="#FFBF00"/>
<path d="M228.489 24.5613C225.751 23.87 222.869 23.0613 220.496 21.3525C219.192 20.4134 218.54 19.409 218.54 18.3394C218.54 17.7655 218.775 17.2829 219.166 17.009C220.144 16.3307 221.487 17.1133 222.452 17.6872C222.674 17.8177 222.869 17.9351 223.039 18.0133C223.691 18.3394 224.968 18.8742 226.077 18.8612C230.093 18.822 231.945 18.9786 234.031 20.8177C234.657 21.3656 235.361 21.7569 236.13 22.1743C236.3 22.2656 236.469 22.3569 236.665 22.4743C237.447 22.9178 238.751 23.6613 238.855 24.6917C238.908 25.1613 238.686 25.6178 238.216 26.0222C237.708 26.4657 237.017 26.3352 236.456 26.2439L236.287 26.2178C236.117 26.1918 235.948 26.1657 235.778 26.1265C233.561 25.7483 231.227 25.2526 228.476 24.5613H228.489ZM236.626 25.4744C237.043 25.5396 237.512 25.6309 237.734 25.4352C238.138 25.0961 238.112 24.8483 238.099 24.77C238.034 24.1439 236.86 23.4787 236.274 23.1395C236.104 23.0482 235.935 22.9569 235.778 22.8656C235.022 22.4482 234.226 22.0047 233.548 21.4047C231.658 19.7351 230.002 19.5916 226.116 19.6438C224.903 19.6438 223.599 19.1481 222.726 18.7177C222.543 18.6264 222.335 18.4959 222.087 18.3655C221.344 17.922 220.209 17.2568 219.635 17.6481C219.453 17.7655 219.348 18.0264 219.348 18.3394C219.348 19.3307 220.235 20.1786 220.978 20.7134C223.234 22.3439 226.038 23.1265 228.698 23.8048C231.645 24.5482 234.109 25.07 236.443 25.4483L236.626 25.4744Z" fill="black"/>
<path d="M227.941 4.90453C228.567 4.77409 228.776 3.78276 228.893 3.66537C229.897 2.68709 231.645 1.99577 233.522 3.46971C235.661 5.15236 234.8 8.56982 232.401 9.00027" fill="#FFBF00"/>
<path d="M232.349 4.53902C231.279 3.639 230.106 4.19988 229.597 5.08685C229.519 5.23033 229.532 5.3999 229.702 5.47817C230.601 5.92165 231.332 6.49558 231.866 7.19994C231.957 7.31734 232.127 7.35647 232.244 7.27821C232.831 6.87385 233.522 5.50425 232.362 4.52597L232.349 4.53902Z" fill="white"/>
<path d="M232.401 9.09138C232.401 9.09138 232.519 9.09138 232.571 9.09138C233.875 8.72615 234.853 7.72178 235.1 6.48262C235.348 5.25651 234.853 4.01735 233.77 3.16951C232.74 2.34775 231.567 2.00861 230.484 2.21731C229.363 2.42601 228.398 3.16951 227.668 4.39562C227.564 4.57823 227.616 4.82607 227.798 4.93042C227.981 5.03477 228.216 4.98259 228.333 4.79998C228.946 3.78257 229.741 3.15646 230.628 2.99994C231.501 2.84341 232.414 3.11733 233.288 3.79561C234.148 4.47388 234.527 5.39999 234.344 6.33914C234.148 7.29134 233.405 8.06092 232.375 8.34788C232.167 8.40006 232.049 8.6218 232.101 8.8305C232.14 8.98703 232.271 9.09138 232.414 9.10442L232.401 9.09138Z" fill="black"/>
<path d="M215.971 16.6438C216.415 17.2046 215.737 17.8699 214.811 18.6003C213.885 19.3308 213.064 19.8264 212.62 19.2656C212.177 18.7047 212.555 17.6742 213.481 16.9438C214.407 16.2133 215.515 16.0959 215.971 16.6568V16.6438Z" fill="white"/>
<path d="M212.32 19.5002C212.099 19.2263 212.008 18.8871 212.06 18.4958C212.138 17.8567 212.581 17.1523 213.246 16.6306C214.355 15.7697 215.685 15.6653 216.284 16.3958C216.454 16.6175 216.532 16.8654 216.506 17.1393C216.441 17.7263 215.88 18.261 215.059 18.9002C214.524 19.3176 213.651 19.9959 212.933 19.8785C212.712 19.8393 212.503 19.7219 212.32 19.5002ZM213.729 17.2436C213.233 17.6349 212.881 18.1437 212.842 18.5741C212.816 18.7567 212.842 18.9002 212.933 19.0045C213.116 19.2393 213.651 19.0045 214.576 18.2741C214.85 18.0654 215.685 17.4132 215.724 17.0349C215.724 16.9958 215.724 16.9436 215.672 16.8784C215.398 16.5393 214.537 16.6045 213.729 17.2306V17.2436Z" fill="black"/>
<path d="M459.952 105.669C460.287 104.71 460.001 103.738 459.315 103.498C458.628 103.259 457.8 103.842 457.465 104.801C457.131 105.76 457.416 106.731 458.103 106.971C458.79 107.211 459.617 106.628 459.952 105.669Z" fill="#C8F88B"/>
<path d="M457.995 107.298C457.552 107.141 457.226 106.776 457.07 106.254C456.926 105.772 456.952 105.224 457.135 104.689C457.526 103.554 458.556 102.889 459.417 103.189C459.86 103.346 460.186 103.711 460.342 104.233C460.486 104.715 460.46 105.263 460.277 105.798C459.951 106.75 459.169 107.376 458.426 107.376C458.282 107.376 458.139 107.35 457.995 107.298ZM457.774 104.924C457.63 105.315 457.617 105.72 457.722 106.072C457.813 106.372 457.982 106.58 458.217 106.659C458.713 106.828 459.365 106.333 459.638 105.576C459.782 105.185 459.795 104.78 459.691 104.428C459.599 104.128 459.43 103.92 459.195 103.841C459.13 103.815 459.052 103.802 458.986 103.802C458.53 103.802 458.008 104.259 457.774 104.924Z" fill="black"/>
<path d="M462.455 107.559C462.455 111.759 465.611 115.15 469.496 115.15C473.382 115.15 477.111 113.128 477.111 107.559C477.111 101.989 473.395 99.9673 469.496 99.9673C465.598 99.9673 462.455 103.372 462.455 107.559Z" fill="#00B81D"/>
<path d="M462.103 107.559C462.103 103.189 465.415 99.6284 469.483 99.6284C474.464 99.6284 477.437 102.589 477.437 107.559C477.437 112.529 474.464 115.49 469.483 115.49C465.415 115.49 462.103 111.929 462.103 107.559ZM462.794 107.559C462.794 111.563 465.806 114.811 469.496 114.811C471.687 114.811 476.772 114.107 476.772 107.559C476.772 101.011 471.687 100.307 469.496 100.307C465.793 100.307 462.794 103.568 462.794 107.559Z" fill="black"/>
<path d="M474.986 107.272C474.634 102.315 471.1 100.489 467.397 100.489C463.511 100.489 460.355 103.894 460.355 108.081" fill="#00B81D"/>
<path d="M460.356 108.433C460.538 108.433 460.695 108.276 460.695 108.094C460.695 104.089 463.707 100.841 467.397 100.841C469.444 100.841 474.23 101.467 474.647 107.298C474.66 107.481 474.829 107.624 475.012 107.611C475.194 107.598 475.338 107.441 475.325 107.246C475.012 102.811 472.052 100.15 467.397 100.15C463.329 100.15 460.017 103.711 460.017 108.081C460.017 108.263 460.173 108.42 460.356 108.42V108.433Z" fill="black"/>
<path d="M474.086 109.294C473.969 110.572 473.617 111.733 474.608 112.372C474.986 112.607 475.586 112.581 475.912 112.307C476.381 111.915 476.968 111.12 477.202 109.541C477.255 109.215 476.903 108.915 476.433 108.863L475.129 108.733C474.608 108.681 474.125 108.941 474.086 109.307V109.294Z" fill="#00B81D"/>
<path d="M474.412 112.659C473.395 112.007 473.538 110.898 473.669 109.841C473.695 109.659 473.721 109.463 473.734 109.268C473.76 109.046 473.877 108.837 474.06 108.681C474.334 108.459 474.738 108.341 475.142 108.394L476.446 108.524C476.824 108.563 477.15 108.733 477.346 108.981C477.489 109.163 477.541 109.372 477.515 109.594C477.267 111.289 476.615 112.15 476.107 112.581C475.859 112.776 475.52 112.881 475.181 112.881C474.907 112.881 474.62 112.815 474.399 112.659H474.412ZM474.503 109.202C474.503 109.202 474.425 109.281 474.425 109.32C474.412 109.515 474.386 109.724 474.36 109.907C474.216 111.015 474.177 111.668 474.79 112.072C475.038 112.229 475.481 112.215 475.69 112.033C476.107 111.681 476.642 110.963 476.863 109.476C476.863 109.476 476.863 109.437 476.824 109.385C476.759 109.307 476.615 109.215 476.394 109.189L475.09 109.059C475.09 109.059 475.025 109.059 474.986 109.059C474.803 109.059 474.62 109.111 474.503 109.202Z" fill="black"/>
<path d="M477.528 108.72C477.528 108.537 477.294 108.38 477.02 108.38H474.425C474.099 108.38 473.93 108.563 473.943 108.772C474.008 110.076 473.604 110.585 476.564 110.754C476.772 110.754 476.968 110.689 477.059 110.559C477.268 110.259 477.581 109.633 477.528 108.72Z" fill="#FFFF00"/>
<path d="M476.537 111.107C473.995 110.95 473.617 110.546 473.604 109.229C473.604 109.098 473.604 108.955 473.604 108.798C473.604 108.616 473.656 108.433 473.786 108.303C473.943 108.146 474.164 108.055 474.425 108.055H477.02C477.476 108.055 477.841 108.342 477.867 108.72C477.92 109.75 477.554 110.455 477.333 110.781C477.189 110.99 476.916 111.12 476.603 111.12C476.577 111.12 476.563 111.12 476.537 111.12V111.107ZM477.02 108.72H474.425C474.321 108.72 474.282 108.746 474.282 108.746C474.282 108.916 474.282 109.059 474.282 109.203C474.282 110.05 474.282 110.272 476.576 110.416C476.694 110.416 476.759 110.376 476.772 110.363C476.942 110.116 477.228 109.568 477.189 108.759C477.163 108.746 477.111 108.72 477.02 108.72Z" fill="black"/>
<path d="M476.042 110.05C476.316 110.05 476.537 109.828 476.537 109.555C476.537 109.281 476.316 109.059 476.042 109.059C475.768 109.059 475.546 109.281 475.546 109.555C475.546 109.828 475.768 110.05 476.042 110.05Z" fill="#00B81D"/>
<path d="M466.64 71.8709C466.901 71.8709 467.11 71.6753 467.149 71.4144C467.266 70.3839 467.579 70.1361 467.71 70.0709C467.866 69.9926 468.049 70.0578 468.114 70.0839C468.309 70.2535 468.596 70.2535 468.779 70.0839C468.948 69.9274 469.001 69.6796 468.896 69.4839C468.753 69.1709 468.14 68.9622 467.644 69.0404C467.071 69.1317 466.34 69.6013 466.145 71.297C466.106 71.5709 466.314 71.8318 466.588 71.8709C466.614 71.8709 466.627 71.8709 466.653 71.8709H466.64Z" fill="black"/>
<path d="M466.732 71.8709C466.732 71.8709 466.771 71.8709 466.797 71.8709C467.071 71.8318 467.28 71.5839 467.241 71.297C467.097 70.0839 466.693 69.2882 466.054 68.936C465.376 68.5578 464.737 68.8317 464.737 68.8317C464.476 68.9491 464.372 69.2491 464.489 69.51C464.607 69.7578 464.894 69.8752 465.141 69.7708C465.167 69.7708 465.376 69.7056 465.585 69.8361C465.911 70.0448 466.132 70.6056 466.237 71.4144C466.263 71.6752 466.484 71.8709 466.745 71.8709H466.732Z" fill="black"/>
<path d="M449.168 90.9283C449.168 90.6022 449.168 90.2761 449.181 89.9369C449.455 83.689 450.068 71.467 466.758 71.2191C478.233 71.0496 485.209 80.0889 484.609 88.163C483.722 100.215 474.764 104.337 466.328 104.337C464.072 104.337 461.764 104.076 459.599 103.489L459.638 103.542C459.638 103.542 448.907 102.002 447.773 95.8197C447.773 95.8197 446.977 93.1196 449.168 90.9413V90.9283Z" fill="#C8F88B"/>
<path d="M468.375 108.016C468.375 108.016 470.031 113.585 466.015 117.485C466.015 117.485 464.059 119.233 462.755 117.264C461.373 115.19 461.672 110.559 461.672 110.559L468.375 108.029V108.016Z" fill="#C8F88B"/>
<path d="M464.046 118.529C463.42 118.451 462.898 118.085 462.468 117.459C461.034 115.32 461.321 110.729 461.334 110.546C461.334 110.416 461.425 110.298 461.555 110.246L468.257 107.716C468.349 107.676 468.44 107.689 468.531 107.729C468.623 107.768 468.675 107.846 468.701 107.937C468.714 107.989 470.37 113.755 466.236 117.759C466.197 117.798 465.324 118.555 464.294 118.555C464.215 118.555 464.124 118.555 464.033 118.542L464.046 118.529ZM465.78 117.251C469.027 114.094 468.414 109.75 468.14 108.485L461.999 110.807C461.959 111.733 461.894 115.385 463.029 117.081C463.342 117.537 463.707 117.798 464.124 117.864C464.959 117.968 465.78 117.251 465.78 117.251Z" fill="black"/>
<path d="M468.883 107.611C468.883 107.611 471.387 112.854 468.01 117.328C468.01 117.328 466.354 119.35 464.75 117.615C463.068 115.776 463.068 111.028 463.068 111.028L468.883 107.611Z" fill="#C8F88B"/>
<path d="M458.673 106.216C461.086 100.868 460.212 96.4588 465.61 96.3936C471.582 96.5762 469.952 100.907 471.895 106.098C473.773 111.133 470.304 114.107 465.61 114.316C458.895 114.29 456.613 110.794 458.673 106.216Z" fill="#C8F88B"/>
<path d="M458.674 106.215C458.817 105.889 458.947 105.576 459.078 105.263C459.143 105.263 459.208 105.25 459.286 105.237C461.438 105.133 463.276 107.22 463.394 109.881C463.485 111.772 463.355 113.168 462.012 113.872C458.139 112.789 457.044 109.842 458.674 106.215Z" fill="white"/>
<path d="M464.502 117.851C463.863 117.146 463.381 116.011 463.068 114.446C460.669 114.042 458.974 113.037 458.152 111.537C457.344 110.05 457.409 108.172 458.348 106.085L459.169 103.802C457.135 103.45 448.477 101.598 447.434 95.898C447.395 95.7806 446.638 93.0675 448.816 90.7848C448.816 90.5109 448.816 90.2109 448.829 89.9109C449.103 83.8194 449.663 71.1279 466.745 70.867C472.182 70.7887 477.059 72.7583 480.528 76.4367C483.644 79.7367 485.248 84.0151 484.948 88.1761C484.127 99.3546 476.564 102.902 471.922 104.024C471.922 104.142 471.948 104.272 471.961 104.403C472.013 104.924 472.052 105.472 472.209 105.981C473.095 108.89 473.447 111.12 470.031 113.22C469.822 114.811 469.236 116.259 468.271 117.538C468.232 117.577 467.371 118.62 466.223 118.659C466.197 118.659 466.184 118.659 466.158 118.659C465.558 118.659 464.998 118.385 464.489 117.838L464.502 117.851ZM467.749 117.133C468.662 115.92 469.209 114.524 469.379 112.985C469.379 112.881 469.457 112.79 469.549 112.724C472.717 110.833 472.43 108.994 471.57 106.176C471.387 105.589 471.335 105.016 471.296 104.455C471.27 104.233 471.257 104.011 471.231 103.802C471.205 103.633 471.322 103.463 471.491 103.424C475.925 102.433 483.475 99.1067 484.283 88.1239C484.57 84.1455 483.031 80.0628 480.058 76.8932C476.733 73.3583 472.026 71.48 466.784 71.5453C450.341 71.7931 449.82 83.5977 449.533 89.937C449.52 90.2631 449.507 90.5892 449.52 90.9152C449.52 91.0066 449.481 91.0979 449.416 91.1631C447.408 93.1718 448.073 95.611 448.112 95.7414C449.194 101.624 459.586 103.176 459.691 103.189C459.795 103.202 459.886 103.268 459.938 103.346C459.991 103.437 460.004 103.542 459.965 103.633L459 106.307C459 106.307 459 106.32 459 106.333C458.152 108.224 458.074 109.907 458.778 111.185C459.521 112.555 461.138 113.442 463.433 113.781C463.576 113.807 463.694 113.911 463.72 114.055C463.994 115.581 464.45 116.729 465.024 117.355C465.402 117.759 465.806 117.955 466.223 117.955C467.071 117.929 467.762 117.094 467.762 117.094L467.749 117.133Z" fill="black"/>
<path d="M472.365 106.463C472.365 106.463 467.149 103.789 465.871 105.941C465.715 106.215 464.202 111.341 472.769 111.707L472.208 113.35L470.891 113.989C470.891 113.989 460.395 113.311 464.359 104.728C464.359 104.728 465.689 101.454 473.095 103.528" fill="#00B81D"/>
<path d="M469.913 114.146C470.083 114.146 470.226 114.015 470.252 113.846C470.278 113.663 470.148 113.494 469.952 113.468C469.248 113.376 465.702 112.828 464.332 110.363C463.524 108.915 463.641 107.063 464.658 104.859C464.658 104.846 464.658 104.833 464.671 104.82C464.671 104.794 465.754 101.898 472.691 103.841C472.873 103.893 473.056 103.789 473.108 103.607C473.16 103.424 473.056 103.241 472.873 103.189C465.493 101.115 464.15 104.246 464.019 104.585C462.911 106.985 462.807 109.046 463.72 110.689C465.245 113.442 469.092 114.055 469.848 114.146C469.861 114.146 469.874 114.146 469.887 114.146H469.913Z" fill="black"/>
<path d="M471.583 111.916C471.752 111.916 471.896 111.785 471.922 111.616C471.948 111.433 471.804 111.264 471.622 111.237C468.988 110.95 467.254 110.116 466.484 108.759C465.793 107.546 466.119 106.255 466.223 106.059C467.136 104.533 470.892 106.033 472.261 106.737C472.43 106.829 472.639 106.763 472.717 106.594C472.795 106.424 472.743 106.216 472.574 106.137C472.352 106.02 467.058 103.333 465.624 105.746C465.493 105.968 465.037 107.494 465.832 108.994C466.68 110.611 468.61 111.603 471.544 111.929C471.544 111.929 471.57 111.929 471.583 111.929V111.916Z" fill="black"/>
<path d="M462.611 103.541C462.611 103.541 461.164 103.802 459.599 103.515L462.611 103.541Z" fill="#C8F88B"/>
<path d="M461.138 103.998C461.998 103.998 462.624 103.88 462.663 103.88C462.846 103.841 462.976 103.672 462.937 103.489C462.898 103.306 462.729 103.189 462.546 103.215C462.533 103.215 461.138 103.463 459.664 103.189C459.482 103.15 459.299 103.28 459.273 103.463C459.234 103.646 459.364 103.828 459.547 103.854C460.121 103.959 460.668 103.998 461.151 103.998H461.138Z" fill="black"/>
<path d="M467.514 106.424C466.784 106.346 466.301 106.268 465.923 105.603C465.741 105.276 465.636 104.924 465.337 104.689C465.128 104.52 464.802 104.324 464.541 104.324C464.033 104.324 463.589 104.611 463.276 105.002C462.989 105.355 462.911 105.824 462.859 106.268C462.755 107.181 462.989 107.95 463.694 108.576C464.867 109.62 466.484 110.155 468.049 110.024" fill="#C8F88B"/>
<path d="M467.58 110.402C467.749 110.402 467.906 110.402 468.075 110.376C468.258 110.363 468.401 110.194 468.388 110.011C468.375 109.828 468.205 109.685 468.023 109.698C466.562 109.815 465.024 109.307 463.929 108.328C463.342 107.807 463.107 107.154 463.211 106.307C463.263 105.902 463.329 105.498 463.563 105.211C463.759 104.963 464.098 104.663 464.567 104.663C464.698 104.663 464.933 104.781 465.141 104.95C465.298 105.067 465.389 105.263 465.493 105.472C465.545 105.563 465.585 105.668 465.637 105.759C466.106 106.594 466.771 106.672 467.488 106.75C467.684 106.776 467.84 106.633 467.866 106.45C467.892 106.268 467.749 106.098 467.566 106.072C466.849 105.994 466.523 105.941 466.236 105.42C466.184 105.341 466.145 105.25 466.106 105.172C465.976 104.911 465.845 104.624 465.571 104.415C465.363 104.246 464.946 103.985 464.554 103.985C463.981 103.985 463.446 104.285 463.029 104.794C462.69 105.211 462.585 105.733 462.533 106.241C462.416 107.298 462.729 108.172 463.472 108.85C464.58 109.842 466.093 110.402 467.593 110.402H467.58Z" fill="black"/>
<g opacity="0.48">
<path d="M461.177 88.6326C460.473 93.1849 463.315 97.3067 467.514 97.8284C471.713 98.3502 475.677 95.0762 476.381 90.5239C477.085 85.9717 474.242 81.8498 470.044 81.3281C465.845 80.8063 461.881 84.0803 461.177 88.6326Z" fill="white"/>
</g>
<g opacity="0.48">
<path d="M444.356 86.4671C443.652 91.0193 446.495 95.1411 450.693 95.6629C454.892 96.1847 458.856 92.9107 459.56 88.3584C460.264 83.8061 457.422 79.6843 453.223 79.1625C449.024 78.6408 445.06 81.9148 444.356 86.4671Z" fill="white"/>
</g>
<path d="M467.449 98.3369C465.402 98.076 463.576 97.0064 462.298 95.3238C460.89 93.4585 460.29 90.9932 460.669 88.5541C461.412 83.7409 465.637 80.2713 470.109 80.8191C472.156 81.08 473.982 82.1496 475.26 83.8322C476.668 85.6975 477.268 88.1628 476.89 90.6019C476.198 95.0759 472.495 98.3891 468.401 98.3891C468.088 98.3891 467.775 98.376 467.462 98.3369H467.449ZM461.686 88.7106C461.36 90.8759 461.881 93.0672 463.12 94.7107C464.228 96.1716 465.806 97.0977 467.579 97.3195C471.504 97.8021 475.22 94.7238 475.872 90.4454C476.198 88.2801 475.677 86.0888 474.438 84.4453C473.33 82.9844 471.752 82.0583 469.979 81.8365C469.705 81.7974 469.431 81.7844 469.157 81.7844C465.545 81.7844 462.285 84.7322 461.673 88.7106H461.686Z" fill="#00B81D"/>
<path d="M450.628 96.1719C448.581 95.911 446.756 94.8414 445.478 93.1587C444.069 91.2935 443.47 88.8282 443.848 86.389C444.591 81.5759 448.816 78.1062 453.288 78.6541C455.335 78.9149 457.161 79.9845 458.439 81.6672C459.847 83.5324 460.447 85.9977 460.069 88.4369C459.378 92.9109 455.674 96.224 451.58 96.224C451.267 96.224 450.954 96.211 450.641 96.1719H450.628ZM444.865 86.5455C444.539 88.7108 445.06 90.9022 446.299 92.5457C447.407 94.0066 448.985 94.9327 450.759 95.1544C454.67 95.6501 458.4 92.5587 459.052 88.2804C459.378 86.1151 458.856 83.9238 457.617 82.2802C456.509 80.8193 454.931 79.8932 453.158 79.6715C452.884 79.6324 452.61 79.6193 452.336 79.6193C448.724 79.6193 445.465 82.5672 444.852 86.5455H444.865Z" fill="#00B81D"/>
<path d="M460.734 91.4238L461.36 90.6151C461.36 90.6151 460.121 89.6499 458.7 90.289L459.117 91.2282C459.978 90.8499 460.721 91.4238 460.734 91.4238Z" fill="#00B81D"/>
<g opacity="0.8">
<path d="M447.994 82.632C446.182 84.4712 445.595 86.9625 446.664 88.1887C447.733 89.4148 449.102 87.7973 450.902 85.9582C452.714 84.119 454.279 82.7364 453.21 81.5102C452.141 80.2841 449.807 80.7798 447.994 82.632Z" fill="white"/>
</g>
<path d="M456.991 97.0849C458.1 97.0849 459.156 96.4197 459.508 95.4936C459.586 95.2719 459.482 95.024 459.26 94.9458C459.039 94.8675 458.791 94.9718 458.713 95.1936C458.491 95.7936 457.709 96.2632 456.965 96.2371C456.313 96.2371 456.144 95.624 456.144 95.624C456.079 95.4023 455.844 95.2588 455.622 95.324C455.401 95.3892 455.257 95.624 455.322 95.8458C455.44 96.2632 455.922 97.0719 456.952 97.0849C456.965 97.0849 456.978 97.0849 456.991 97.0849Z" fill="black"/>
<path d="M461.112 97.5806C462.064 97.5806 462.572 96.7849 462.599 96.7458C462.729 96.5501 462.664 96.2893 462.468 96.1588C462.273 96.0284 462.012 96.0936 461.881 96.2893C461.842 96.3545 461.503 96.8371 460.877 96.6936C460.16 96.5241 459.56 95.911 459.534 95.2849C459.534 95.0501 459.326 94.8675 459.091 94.8805C458.856 94.8805 458.674 95.0892 458.687 95.324C458.739 96.3284 459.586 97.2545 460.682 97.5154C460.838 97.5545 460.969 97.5676 461.112 97.5676V97.5806Z" fill="black"/>
<path d="M466.326 93.9318C466.54 93.0646 466.102 92.2103 465.346 92.0238C464.591 91.8373 463.806 92.3892 463.592 93.2564C463.378 94.1236 463.816 94.9779 464.571 95.1644C465.326 95.3509 466.112 94.799 466.326 93.9318Z" fill="black"/>
<path d="M455.748 92.6032C455.962 91.7359 455.523 90.8817 454.768 90.6952C454.013 90.5087 453.228 91.0605 453.014 91.9278C452.8 92.795 453.238 93.6492 453.993 93.8357C454.748 94.0223 455.534 93.4704 455.748 92.6032Z" fill="black"/>
<path d="M314.249 118.125L320.912 120.772L331.657 121.542L322.972 112.75L314.249 118.125Z" fill="#E2D7C5"/>
<path d="M323.481 112.176L314.027 117.459L314.836 118.75C316.531 118.62 320.312 116.35 322.281 115.215C322.36 115.176 322.699 115.398 322.764 115.359C322.855 115.307 322.672 114.994 322.751 114.955L323.481 112.176Z" fill="#FCECCD"/>
<path d="M322.047 112.215C321.186 112.841 314.223 116.468 313.649 116.572C313.428 116.611 313.232 116.885 313.206 117.198C313.18 117.511 313.336 117.72 313.558 117.694C313.558 117.694 321.721 113.715 322.307 113.181" fill="#E16799"/>
<path d="M343.001 130.19C343.001 130.19 342.923 115.829 338.463 113.442C334.004 111.055 326.037 120.368 326.037 120.368L343.001 130.19Z" fill="#C8C8FF"/>
<path d="M307.938 130.19C307.938 130.19 308.016 115.829 312.476 113.442C316.935 111.055 324.902 120.368 324.902 120.368L307.938 130.19Z" fill="#C8C8FF"/>
<path d="M344.488 137.103C344.488 147.16 335.973 150.382 325.476 150.382C314.98 150.382 306.465 147.16 306.465 137.103C306.465 127.046 314.98 119.298 325.476 119.298C335.973 119.298 344.488 127.046 344.488 137.103Z" fill="white"/>
<path d="M344.357 135.003C344.357 135.003 344.357 134.99 344.357 134.977C343.51 128.103 338.646 122.598 332.048 120.368C331.8 120.29 331.553 120.198 331.292 120.133H331.266C331.044 120.068 330.809 120.003 330.575 119.951C330.523 119.951 330.47 119.924 330.418 119.911C330.21 119.859 330.001 119.807 329.792 119.768C329.714 119.755 329.636 119.729 329.558 119.716C329.362 119.677 329.179 119.637 328.984 119.611C328.88 119.598 328.775 119.572 328.671 119.559C328.501 119.533 328.319 119.507 328.149 119.481C328.019 119.468 327.889 119.455 327.758 119.442C327.602 119.429 327.445 119.403 327.289 119.39C327.119 119.377 326.95 119.364 326.78 119.351C326.663 119.351 326.532 119.337 326.415 119.324C326.141 119.324 325.867 119.311 325.581 119.298C325.555 119.298 325.515 119.298 325.489 119.298C325.489 119.298 325.476 119.298 325.463 119.298C325.163 119.298 324.85 119.298 324.55 119.324C324.472 119.324 324.394 119.324 324.303 119.337C324.081 119.337 323.859 119.364 323.651 119.377C323.546 119.377 323.442 119.403 323.338 119.403C323.142 119.429 322.96 119.442 322.764 119.468C322.647 119.481 322.529 119.507 322.412 119.52C322.242 119.546 322.06 119.572 321.89 119.598C321.773 119.624 321.643 119.637 321.525 119.664C321.356 119.69 321.199 119.729 321.03 119.768C320.899 119.794 320.782 119.82 320.652 119.859C320.495 119.898 320.339 119.937 320.182 119.977C320.052 120.016 319.935 120.042 319.804 120.081C319.648 120.12 319.491 120.172 319.348 120.224C319.23 120.264 319.1 120.303 318.983 120.342C312.306 122.572 307.391 128.155 306.582 135.12C306.556 135.355 306.53 135.603 306.517 135.851C306.517 135.968 306.504 136.086 306.491 136.203C306.478 136.503 306.465 136.816 306.465 137.116C306.465 139.203 306.83 140.99 307.508 142.516C311.889 143.142 319.596 142.542 324.029 138.016C324.42 137.625 324.942 137.207 325.476 137.26C326.011 137.207 326.546 137.625 326.924 138.016C331.461 142.66 339.272 143.116 343.484 142.399C344.123 140.899 344.475 139.151 344.475 137.116C344.475 136.399 344.422 135.694 344.344 135.016L344.357 135.003Z" fill="#C8C8FF"/>
<path d="M334.2 139.633C334.452 139.633 334.656 139.429 334.656 139.177C334.656 138.925 334.452 138.72 334.2 138.72C333.947 138.72 333.743 138.925 333.743 139.177C333.743 139.429 333.947 139.633 334.2 139.633Z" fill="black"/>
<path d="M332.087 136.268C331.37 136.412 330.183 136.659 329.544 136.79C329.297 136.842 329.114 137.077 329.14 137.325C329.258 138.59 329.831 139.542 330.901 139.542C330.901 139.542 332.687 139.672 332.674 136.764C332.674 136.451 332.374 136.216 332.074 136.281L332.087 136.268Z" fill="black"/>
<path d="M318.422 136.268C319.139 136.412 320.326 136.659 320.964 136.79C321.212 136.842 321.395 137.077 321.369 137.325C321.251 138.59 320.678 139.542 319.608 139.542C319.608 139.542 317.822 139.672 317.835 136.764C317.835 136.451 318.135 136.216 318.435 136.281L318.422 136.268Z" fill="black"/>
<path d="M323.976 140.847C323.872 140.847 323.768 140.807 323.69 140.729C323.533 140.573 323.533 140.325 323.69 140.168L325.176 138.681C325.333 138.525 325.58 138.525 325.737 138.681L327.236 140.168C327.393 140.325 327.393 140.573 327.236 140.729C327.08 140.886 326.832 140.886 326.676 140.729L325.45 139.529L324.25 140.729C324.172 140.807 324.068 140.847 323.963 140.847H323.976Z" fill="black"/>
<path d="M325.476 150.734C312.815 150.734 306.125 146.025 306.125 137.103C306.125 134.638 306.621 132.264 307.599 130.047C307.625 128.26 307.964 115.477 312.319 113.142C315.983 111.172 321.708 116.481 324.12 118.998C325.111 118.933 325.841 118.933 326.845 118.998C329.257 116.481 334.969 111.159 338.646 113.142C342.988 115.477 343.34 128.26 343.366 130.047C344.344 132.264 344.839 134.651 344.839 137.103C344.839 146.025 338.15 150.734 325.489 150.734H325.476ZM314.119 113.403C313.597 113.403 313.102 113.507 312.645 113.755C309.346 115.529 308.355 124.881 308.29 130.125C308.29 130.177 308.29 130.216 308.264 130.255C307.299 132.407 306.817 134.716 306.817 137.103C306.817 145.686 313.102 150.043 325.476 150.043C337.85 150.043 344.135 145.686 344.135 137.103C344.135 134.716 343.653 132.407 342.688 130.255C342.675 130.216 342.662 130.164 342.662 130.125C342.597 124.881 341.606 115.529 338.307 113.755C334.903 111.929 328.97 117.772 327.223 119.598C327.158 119.677 327.054 119.716 326.949 119.703C325.854 119.625 325.098 119.625 324.002 119.703C323.898 119.703 323.794 119.677 323.729 119.598C322.216 118.007 317.548 113.403 314.119 113.403Z" fill="black"/>
<path d="M321.03 120.12C320.873 120.12 320.73 120.016 320.691 119.846C320.652 119.663 320.769 119.481 320.951 119.429C323.846 118.789 326.976 118.776 329.87 119.402C330.053 119.442 330.17 119.624 330.131 119.807C330.092 119.989 329.909 120.107 329.727 120.068C326.923 119.468 323.898 119.481 321.095 120.094C321.069 120.094 321.043 120.094 321.017 120.094L321.03 120.12Z" fill="black"/>
<path d="M338.463 124.02C338.933 124.438 339.676 124.046 339.585 123.42C339.259 120.877 338.568 117.929 337.081 117.133C335.543 116.311 333.339 117.746 331.696 119.155C331.292 119.494 331.422 120.146 331.931 120.316C334.382 121.125 336.599 122.39 338.463 124.007V124.02Z" fill="white"/>
<path d="M319.022 120.329C319.517 120.159 319.648 119.507 319.256 119.168C317.613 117.746 315.397 116.324 313.871 117.146C312.385 117.942 311.694 120.89 311.368 123.433C311.289 124.059 312.02 124.451 312.489 124.033C314.354 122.416 316.57 121.151 319.022 120.342V120.329Z" fill="white"/>
<path d="M322.386 113.65C322.412 115.946 325.294 122.39 328.097 124.75L341.423 123.107L334.369 114.381L323.494 112.176" fill="#FCECCD"/>
<path d="M328.071 124.738C332.256 125.82 336.429 126.055 340.55 125.181L341.645 122.572L329.701 121.438L328.071 124.725V124.738Z" fill="#E2D7C5"/>
<path d="M335.399 125.898C333.052 125.898 330.653 125.585 328.123 124.933C328.032 124.907 327.941 124.868 327.862 124.803C327.315 124.359 324.459 121.868 322.607 115.724C322.581 115.62 322.503 115.542 322.399 115.503C322.294 115.463 322.19 115.463 322.099 115.529C321.942 115.62 321.682 115.763 321.408 115.92C321.173 116.05 320.938 116.181 320.782 116.272C320.704 116.311 320.599 116.285 320.547 116.207C320.495 116.129 320.534 116.024 320.612 115.972C320.769 115.881 321.004 115.75 321.238 115.62C321.512 115.476 321.773 115.32 321.929 115.229C322.112 115.124 322.334 115.111 322.529 115.189C322.725 115.268 322.868 115.424 322.933 115.62C324.746 121.672 327.523 124.111 328.071 124.542C328.11 124.568 328.149 124.594 328.201 124.607C332.465 125.69 336.39 125.846 340.224 125.077C340.341 125.051 340.432 124.972 340.471 124.868L341.293 122.742C341.332 122.651 341.423 122.611 341.515 122.651C341.606 122.69 341.645 122.781 341.606 122.872L340.784 124.998C340.693 125.207 340.51 125.364 340.289 125.416C338.672 125.742 337.042 125.898 335.386 125.898H335.399Z" fill="black"/>
<path d="M321.239 117.055C321.16 117.055 321.095 117.028 321.03 116.976C320.678 116.663 320.313 116.376 319.974 116.102C319.83 115.998 319.804 115.789 319.922 115.659C320.026 115.515 320.235 115.489 320.365 115.607C320.717 115.881 321.082 116.181 321.447 116.494C321.578 116.611 321.591 116.807 321.486 116.95C321.421 117.028 321.33 117.055 321.239 117.055Z" fill="black"/>
<path d="M324.407 113.924L335.921 115.503C336.038 114.563 335.921 114.107 335.451 113.755C335.203 113.572 334.916 113.468 334.617 113.416L323.481 111.694C324.615 111.916 324.524 112.49 324.407 113.924Z" fill="#FF4932"/>
<path d="M329.479 121.802C333.469 122.533 337.524 122.35 341.801 122.207L335.921 115.502L324.368 113.898C325.711 117.237 327.367 119.976 329.479 121.802Z" fill="#FF4932"/>
<path d="M337.381 122.598C334.682 122.598 332.087 122.455 329.453 121.972C329.427 121.972 329.401 121.959 329.375 121.933C327.367 120.198 325.671 117.59 324.211 113.963C324.185 113.911 324.198 113.859 324.211 113.807C324.172 113.585 324.159 113.376 324.133 113.194C324.042 112.424 324.002 112.085 323.455 111.811C323.377 111.772 323.337 111.694 323.364 111.615C323.39 111.537 323.468 111.485 323.546 111.498L334.616 113.259C334.969 113.324 335.282 113.442 335.529 113.624C336.038 114.002 336.194 114.485 336.077 115.463L341.801 122.246C341.801 122.246 341.853 122.364 341.827 122.429C341.801 122.494 341.749 122.52 341.684 122.533C340.197 122.585 338.776 122.624 337.368 122.624L337.381 122.598ZM329.557 121.646C333.404 122.35 337.185 122.311 341.332 122.181L335.79 115.607C335.79 115.607 335.751 115.529 335.751 115.476C335.868 114.589 335.751 114.185 335.347 113.885C335.138 113.729 334.89 113.637 334.577 113.585L324.146 111.929C324.381 112.242 324.42 112.646 324.472 113.155C324.498 113.363 324.524 113.611 324.563 113.872C324.563 113.898 324.563 113.924 324.563 113.95C325.984 117.446 327.614 119.963 329.544 121.646H329.557Z" fill="black"/>
<path d="M323.924 113.976L324.015 114.25C325.489 117.903 327.197 120.537 329.218 122.298L329.27 122.351H329.336C333.078 123.055 337.133 123.342 341.41 123.224C341.436 123.224 341.462 123.224 341.501 123.211C341.684 123.146 341.853 122.924 341.892 122.651C341.945 122.338 341.801 122.09 341.593 122.103C337.381 122.22 333.378 121.933 329.701 121.255C327.797 119.585 326.18 117.094 324.785 113.637C324.785 113.155 324.733 111.837 323.885 111.55C323.077 111.276 322.307 111.955 322.06 112.216L322.32 113.181C322.32 113.181 322.881 112.555 323.455 112.829C324.029 113.103 323.937 113.989 323.937 113.989L323.924 113.976Z" fill="#C00000"/>
<path d="M339.611 123.42C336.181 123.42 332.896 123.146 329.818 122.611C329.401 122.533 329.01 122.363 328.684 122.089C327.693 121.268 325.75 119.181 323.859 114.302L323.768 114.015C323.768 114.015 323.768 113.976 323.768 113.95C323.768 113.95 323.833 113.181 323.377 112.959C322.92 112.737 322.451 113.272 322.438 113.272C322.347 113.35 322.112 113.572 319.1 115.098C319.048 115.124 318.996 115.124 318.943 115.098L317.978 114.55C317.978 114.55 317.887 114.459 317.887 114.407C317.887 114.354 317.926 114.289 317.978 114.263C320 113.207 321.59 112.32 321.956 112.059C322.177 111.837 323.025 111.067 323.937 111.381C324.863 111.694 324.955 113.011 324.955 113.598C326.285 116.859 327.797 119.246 329.571 120.889C329.701 121.02 329.883 121.098 330.066 121.137C333.652 121.763 337.525 122.024 341.593 121.92C341.723 121.92 341.841 121.972 341.932 122.063C342.062 122.207 342.101 122.429 342.062 122.663C342.01 122.989 341.801 123.276 341.554 123.355C341.515 123.368 341.462 123.381 341.423 123.381C340.81 123.394 340.211 123.407 339.611 123.407V123.42ZM324.094 113.963L324.172 114.211C326.024 118.998 327.928 121.046 328.892 121.842C329.179 122.076 329.518 122.233 329.87 122.285C333.456 122.911 337.342 123.172 341.41 123.055C341.554 123.016 341.697 122.846 341.723 122.624C341.749 122.468 341.723 122.35 341.671 122.298C341.645 122.259 341.619 122.259 341.593 122.259C337.498 122.363 333.6 122.102 330.001 121.476C329.74 121.437 329.518 121.32 329.323 121.15C327.51 119.468 325.972 117.028 324.616 113.702C324.616 113.676 324.616 113.663 324.616 113.637C324.616 113.246 324.576 111.954 323.82 111.707C323.09 111.459 322.373 112.124 322.164 112.32C321.708 112.659 319.921 113.624 318.409 114.42L319.022 114.772C321.408 113.559 322.073 113.154 322.19 113.05C322.203 113.037 322.829 112.346 323.507 112.672C324.107 112.959 324.094 113.781 324.081 113.963H324.094Z" fill="black"/>
<path d="M335.191 115.79C335.191 115.79 335.151 115.79 335.138 115.79L325.698 114.25C325.62 114.237 325.567 114.12 325.607 114.003C325.633 113.885 325.724 113.794 325.815 113.807L335.256 115.346C335.334 115.359 335.386 115.477 335.347 115.594C335.321 115.685 335.256 115.763 335.191 115.79Z" fill="#C00000"/>
<path d="M331.096 124.685C329.975 124.659 328.449 124.177 328.384 124.15C328.358 124.15 328.345 124.137 328.319 124.111C327.432 123.342 326.624 122.429 325.894 121.424C325.841 121.346 325.854 121.242 325.933 121.19C326.011 121.137 326.115 121.15 326.167 121.229C326.872 122.207 327.654 123.094 328.515 123.837C328.749 123.903 330.118 124.32 331.096 124.346C331.188 124.346 331.266 124.424 331.266 124.516C331.266 124.607 331.188 124.685 331.096 124.685Z" fill="black"/>
<path d="M332.387 124.046C330.314 123.916 328.853 123.342 328.801 123.316C328.788 123.316 328.775 123.303 328.762 123.29C326.271 121.203 325.059 118.737 325.046 118.711C325.007 118.633 325.046 118.529 325.124 118.489C325.202 118.45 325.306 118.489 325.346 118.568C325.346 118.594 326.532 120.981 328.944 123.016C329.14 123.094 330.522 123.603 332.4 123.72C332.491 123.72 332.556 123.811 332.556 123.903C332.556 123.994 332.478 124.059 332.387 124.059V124.046Z" fill="black"/>
<path d="M337.851 146.364C336.195 145.947 334.617 146.586 334.304 147.786C333.991 148.986 335.243 149.716 336.886 150.134C338.529 150.551 339.963 150.525 340.276 149.312C340.589 148.099 339.494 146.782 337.851 146.351V146.364Z" fill="white"/>
<path d="M333.939 147.851C333.939 147.851 333.965 147.747 333.965 147.695C334.108 147.134 334.473 146.664 335.034 146.338C335.829 145.868 336.885 145.751 337.942 146.025C339.767 146.494 340.98 148.008 340.628 149.403C340.51 149.86 340.263 150.199 339.885 150.421C339.22 150.812 338.215 150.825 336.82 150.473C334.225 149.808 333.808 148.712 333.952 147.851H333.939ZM339.963 149.129C340.132 148.138 339.167 147.055 337.759 146.703C336.899 146.481 336.012 146.573 335.386 146.951C334.995 147.186 334.734 147.512 334.643 147.89C334.421 148.725 335.216 149.377 336.977 149.821C338.163 150.121 339.037 150.134 339.519 149.847C339.741 149.716 339.885 149.521 339.95 149.247C339.95 149.208 339.963 149.182 339.976 149.142L339.963 149.129Z" fill="black"/>
<path d="M311.38 144.629C313.088 144.642 314.458 145.673 314.445 146.925C314.432 148.177 313.049 148.555 311.341 148.529C309.633 148.503 308.264 148.112 308.277 146.86C308.29 145.607 309.685 144.616 311.38 144.629Z" fill="white"/>
<path d="M314.784 147.068C314.706 147.942 314.015 148.894 311.342 148.868C309.894 148.855 308.929 148.581 308.395 148.033C308.082 147.72 307.925 147.316 307.938 146.846C307.951 145.399 309.503 144.251 311.394 144.277C312.476 144.277 313.467 144.668 314.119 145.333C314.575 145.79 314.81 146.338 314.797 146.925C314.797 146.977 314.797 147.029 314.797 147.081L314.784 147.068ZM308.629 146.755C308.629 146.755 308.629 146.82 308.629 146.859C308.629 147.146 308.708 147.368 308.89 147.551C309.281 147.955 310.129 148.164 311.355 148.177C313.167 148.19 314.106 147.773 314.106 146.912C314.106 146.52 313.949 146.142 313.623 145.816C313.115 145.294 312.28 144.981 311.394 144.968C309.933 144.955 308.734 145.751 308.642 146.755H308.629Z" fill="black"/>
</g>
<defs>
<clipPath id="clip0_968_947">
<rect width="485" height="200" fill="white"/>
</clipPath>
</defs>
</svg>
