<svg width="68" height="35" viewBox="0 0 68 35" fill="none" xmlns="http://www.w3.org/2000/svg">
<g clip-path="url(#clip0_893_3844)">
<path d="M36.9685 33.9955L67.0439 30.3585L67.676 18.2402L33.2485 22.758L36.9685 33.9955Z" fill="#4456A2"/>
<path d="M39.9114 25.0332L41.3051 24.7793L41.8698 29.3489C41.8698 29.3852 41.8906 29.4162 41.9216 29.437C41.9424 29.4525 41.9735 29.4629 41.9994 29.4629C42.0045 29.4629 42.0149 29.4629 42.0201 29.4629L44.1028 29.1365L44.2479 30.3126L40.6575 30.8721L39.9062 25.0332H39.9114Z" fill="white"/>
<path d="M44.5174 26.7635L45.6986 26.5977L46.0406 30.0378L44.8852 30.2244L44.5174 26.7635ZM44.9422 26.2195C44.621 26.2195 44.2739 25.9967 44.2221 25.5719C44.1651 25.1056 44.507 24.7585 44.8593 24.7015C44.8956 24.7015 44.9319 24.6963 44.963 24.6963C45.2842 24.6963 45.6313 24.9191 45.6831 25.3439C45.7401 25.8102 45.3982 26.1573 45.0458 26.2143C45.0096 26.2195 44.9733 26.2195 44.937 26.2247L44.9422 26.2195Z" fill="white"/>
<path d="M46.1286 24.1674L47.3927 23.9912L47.5689 25.7683C47.5274 25.7424 47.5482 25.7735 47.5844 25.7942C47.6 25.8045 47.6207 25.8097 47.6414 25.8097C47.6621 25.8097 47.6777 25.8097 47.6932 25.7994C47.7761 25.7631 47.8694 25.7424 47.9937 25.7268C48.1025 25.7113 48.2113 25.7113 48.3149 25.7113C49.1439 25.7372 50.035 26.2967 50.149 27.5039C50.2526 28.6644 49.6568 29.4623 48.6932 29.5866C48.6258 29.597 48.5584 29.597 48.4911 29.597C48.3512 29.597 48.2165 29.5659 48.087 29.5089C48.0714 29.5037 48.0559 29.4986 48.0404 29.4986C48.0144 29.4986 47.9834 29.5089 47.9626 29.5245C47.9264 29.5504 47.9108 29.5918 47.9108 29.6385L47.9419 29.9752L46.8695 30.1825L46.113 24.1725L46.1286 24.1674ZM48.0714 26.9651C47.9834 26.9651 47.8901 26.9651 47.7968 26.9754C47.7191 26.9858 47.6621 27.0532 47.6673 27.1309L47.8072 28.6333C47.8072 28.7007 47.8642 28.7525 47.9316 28.7629C48.0041 28.7732 48.087 28.7836 48.1647 28.7888C48.2217 28.7888 48.2735 28.7888 48.3305 28.7888C48.8382 28.7318 49.1024 28.3743 49.061 27.8044C49.0196 27.2293 48.6517 26.9962 48.0766 26.9703L48.0714 26.9651Z" fill="white"/>
<path d="M50.3354 25.0956L51.439 24.9609L51.5322 25.5671C51.5374 25.6137 51.5737 25.65 51.6203 25.6655C51.6307 25.6655 51.641 25.6655 51.6514 25.6655C51.6877 25.6655 51.7239 25.65 51.7499 25.6241C52.0763 25.2614 52.3923 25.0749 52.7394 25.0283C52.786 25.0231 52.8223 25.0179 52.8638 25.0179C52.8948 25.0179 52.9052 25.0231 52.9052 25.0231L53.0244 26.0852C52.5788 26.1422 52.0141 26.3235 51.755 26.8364C51.7447 26.8572 51.7395 26.8779 51.7447 26.9038L52.1125 29.3026L50.9831 29.4632L50.3406 25.0853L50.3354 25.0956Z" fill="white"/>
<path d="M56.8066 24.2092L57.9102 24.0693L58.0034 24.6755C58.0086 24.7221 58.0449 24.7584 58.0915 24.7739C58.1019 24.7739 58.1122 24.7739 58.1226 24.7739C58.1589 24.7739 58.1951 24.7584 58.221 24.7325C58.5474 24.3698 58.8583 24.1781 59.2054 24.1315C59.2521 24.1263 59.2883 24.1211 59.3298 24.1211C59.3609 24.1211 59.3712 24.1211 59.3712 24.1211L59.4956 25.1832C59.05 25.2454 58.4853 25.4267 58.2314 25.9448C58.221 25.9656 58.2159 25.9863 58.221 26.0122L58.6044 28.411L57.475 28.5768L56.8066 24.1989V24.2092Z" fill="white"/>
<path d="M55.8792 28.727C55.8636 28.6441 55.8532 28.5664 55.8481 28.4835L55.8325 28.3488C55.8273 28.3073 55.8014 28.2711 55.76 28.2503C55.7445 28.24 55.7237 28.24 55.703 28.24C55.6823 28.24 55.6616 28.2503 55.6408 28.2607C55.387 28.4369 55.0968 28.5664 54.786 28.6337C54.672 28.6596 54.5632 28.6752 54.4596 28.6804C53.9985 28.7114 53.4182 28.5767 53.2628 27.7633C53.0296 26.5199 54.615 26.1002 54.9362 26.0277C55.0554 26.0018 55.1849 25.9863 55.3352 25.9759H55.3766C55.4129 25.9759 55.444 25.9552 55.4647 25.9293C55.4854 25.9034 55.4958 25.8671 55.4906 25.8308C55.4854 25.7946 55.4802 25.7583 55.475 25.722C55.4699 25.6806 55.4647 25.6391 55.4543 25.6029C55.3921 25.2609 55.1176 25.0278 54.8119 25.0485C54.7808 25.0485 54.7549 25.0537 54.7238 25.0589C54.3663 25.1366 54.2834 25.4112 54.242 25.5562C54.2368 25.5821 54.2264 25.6132 54.2161 25.6288L53.2317 26.0122C53.3094 25.1521 53.7861 24.5408 54.5217 24.3802C54.6616 24.3491 54.7963 24.3284 54.9207 24.318C55.6978 24.2662 56.1745 24.6599 56.3299 25.4889C56.4542 26.1624 56.5423 26.8515 56.62 27.5198C56.6511 27.7633 56.677 28.0068 56.7133 28.2503C56.7133 28.2866 56.7236 28.3281 56.734 28.3747C56.7444 28.4265 56.7547 28.4783 56.7547 28.5249L55.8843 28.727H55.8792ZM55.4854 26.6546C55.4077 26.665 55.3196 26.6753 55.2419 26.6909C54.6927 26.8152 54.4026 27.1157 54.4751 27.4991C54.5269 27.7841 54.7445 27.9395 55.0657 27.9136C55.1331 27.9136 55.1953 27.898 55.2523 27.8877C55.3766 27.8618 55.5061 27.8203 55.6616 27.753C55.7134 27.7322 55.7444 27.6753 55.7341 27.6234L55.6201 26.7634C55.6097 26.6961 55.5528 26.6546 55.4906 26.6546H55.4854Z" fill="white"/>
<path d="M61.8373 29.442C61.7233 29.442 61.6301 29.4317 61.5731 29.4161L61.4436 28.297C61.4695 28.3074 61.5109 28.3074 61.5524 28.3074H61.5886C61.656 28.3074 61.7233 28.3074 61.7907 28.2919C62.4279 28.1934 62.744 27.8411 62.6766 27.3023C62.6611 27.1883 62.6455 27.0795 62.6352 26.9707C62.6196 26.8567 62.6041 26.7428 62.5885 26.6288C62.5834 26.577 62.5419 26.5355 62.4953 26.5252C62.4849 26.5252 62.4746 26.5252 62.4642 26.5252C62.4228 26.5252 62.3813 26.5459 62.3606 26.5821C62.1119 26.9604 61.8995 27.1106 61.5472 27.1676C61.4695 27.178 61.3969 27.1883 61.3296 27.1883C60.3918 27.1883 60.0602 26.121 59.9514 25.2247C59.8841 24.6859 59.8737 24.7636 59.8375 24.2196C59.8219 24.002 59.8064 23.7689 59.7856 23.515L60.8788 23.4166L60.9514 24.1005C61.0032 24.5927 61.0343 24.7585 61.0912 25.2506C61.169 25.8827 61.3762 25.9967 61.6922 25.9967C61.713 25.9967 61.7389 25.9967 61.7596 25.9967C62.1119 25.9397 62.3502 25.6962 62.4176 25.318C62.4176 25.3076 62.4176 25.2921 62.4176 25.2817L62.0756 23.0177L63.2258 22.8467C63.3709 24.0176 63.49 24.6652 63.604 25.8413L63.6299 26.1159C63.6817 26.6547 63.7439 27.2609 63.7232 27.7479C63.6817 28.753 63.0859 29.2866 62.1741 29.4265C62.1015 29.4368 61.972 29.4524 61.8373 29.4524V29.442Z" fill="white"/>
<path d="M5.99169 27.3542L60.6767 20.3289L64.1997 1.00391H0.32373L5.99169 27.3542Z" fill="#EC1C24"/>
<path d="M18.8561 8.20034C18.053 8.18998 17.6437 8.7288 17.6385 9.32461C17.6541 10.081 18.3224 10.3038 18.5866 10.3245C18.8509 10.3504 19.6746 10.2779 19.8404 9.43341C20.0062 8.58373 19.2602 8.23661 18.8561 8.20552V8.20034ZM19.2913 11.4333C19.0115 11.2519 18.6385 11.2208 18.3949 11.1898C17.3277 11.2001 17.5608 11.7027 17.6023 11.7959C17.6437 11.8892 17.6178 12.7958 17.6178 12.7958C17.6178 12.7958 17.566 15.148 17.566 15.3708C17.566 15.5987 17.4883 16.5469 17.5867 16.8163C17.68 17.0857 17.7681 17.1323 18.2033 17.1945C18.6385 17.2618 19.1306 17.2618 19.198 17.0235C19.2653 16.7852 19.1617 16.6505 19.141 16.4484C19.0581 15.8889 19.1773 14.0134 19.198 13.5367C19.2239 13.0549 19.3431 12.1586 19.3638 12.0239C19.3845 11.8892 19.6177 11.6405 19.2913 11.4281V11.4333Z" fill="white"/>
<path d="M25.0266 15.6762C24.9903 14.9198 24.98 12.9458 24.98 12.9458C24.98 12.9458 25.0111 12.1221 25.0162 12.0184C25.0266 11.92 25.3064 11.5677 24.9437 11.3501C24.581 11.1273 24.0889 11.2724 23.9697 11.2879C23.8557 11.3035 23.7417 11.1532 23.7417 11.1532C23.7417 11.1532 23.6847 11.06 23.3117 10.8372C22.4879 10.4175 21.9698 10.5574 21.5657 10.7232C20.4674 11.2776 20.0166 13.0598 20.0166 13.0598C20.0166 13.0598 19.6073 14.7643 19.8716 15.5674C20.1358 16.3704 20.7886 16.7901 21.4828 17.0181C22.1771 17.2512 22.8247 16.9818 22.9801 16.8937C23.1356 16.8056 23.55 16.5362 23.55 16.5362C23.55 16.5362 23.6018 17.1476 23.5759 17.4325C23.55 17.7175 23.7832 19.1837 23.0578 19.5567C22.3325 19.9246 21.6538 19.0904 21.5968 19.0283C21.5398 18.9661 21.4466 18.8521 21.5087 18.6708C21.5709 18.4895 21.5502 18.3496 21.4673 18.2615C21.3844 18.1734 21.1616 18.018 20.4622 18.2615C19.7679 18.5102 19.8094 18.764 19.8301 18.9506C19.8508 19.1371 20.0374 19.5826 20.2394 19.7795C21.1461 20.8105 21.8248 20.9556 22.8092 20.9297C23.2392 20.9141 24.2857 20.365 24.7209 19.6655C24.9074 19.365 25.0007 18.992 25.0318 18.6242C25.1406 17.4015 25.0629 16.4223 25.0318 15.6658L25.0266 15.6762ZM23.4464 14.5416C23.4361 15.1063 22.7159 15.9145 21.9647 15.8627C21.4673 15.8316 21.3222 15.0752 21.3948 14.2152C21.4673 13.3551 21.887 11.9511 22.6589 12.0703C22.6589 12.0703 23.1407 12.1065 23.3428 12.7386C23.3894 12.8629 23.4879 14.4431 23.4412 14.5468L23.4464 14.5416Z" fill="white"/>
<path d="M25.8606 6.71266C25.8606 6.71266 25.8658 6.40698 25.8088 6.33963C25.7518 6.27228 25.5342 6.05986 25.8088 5.8319C26.0886 5.60394 26.8295 5.56249 27.1662 5.67647C27.503 5.79563 27.617 6.00287 27.5703 6.27746C27.5289 6.54687 27.5185 6.91472 27.4823 7.21003C27.446 7.50535 27.3631 8.88348 27.3631 8.88348L27.2595 11.6708L27.2802 12.1786C27.2802 12.1786 28.2749 11.1476 29.4148 11.2874C30.052 11.4066 30.6685 11.8522 30.6685 11.8522C30.6685 11.8522 31.2747 12.1578 31.4042 13.4531C31.5027 14.4271 31.4561 15.4374 31.4561 15.4374C31.4561 15.4374 31.4716 16.4166 31.425 16.6653C31.3835 16.914 31.1193 16.9554 31.1193 16.9554C31.1193 16.9554 30.7463 17.0797 30.1401 17.0124C29.5339 16.945 29.6738 16.4632 29.7567 16.1627C29.8033 15.9348 29.8033 14.339 29.7826 14.0178C29.7671 13.6966 29.6427 12.5827 29.0314 12.5879C28.4252 12.5879 28.0211 13.2355 27.8397 13.593C27.6584 13.9505 27.5444 14.1318 27.4874 14.4012C27.4149 14.7535 27.4149 15.1991 27.3994 15.4063C27.3838 15.6135 27.3683 16.5098 27.4667 17.0642C27.5652 17.2818 27.617 17.1626 27.6325 17.3647C27.6481 17.5668 27.446 17.6756 26.6429 17.6756C25.8451 17.6756 25.9021 17.0487 25.8917 16.9036C25.8762 16.7585 25.8658 15.7275 25.8658 15.7275L25.814 12.7796L25.7777 10.2202L25.8451 7.96645V6.7023L25.8606 6.71266Z" fill="white"/>
<path d="M32.9792 5.71375C33.4662 5.75001 33.9274 5.97797 33.9481 6.31474C33.9481 6.5686 33.8652 6.58933 33.8445 6.70331C33.8237 6.80693 33.7823 7.52708 33.7564 7.81721C33.7305 8.10217 33.6994 10.4543 33.6994 10.4543V13.2624L33.7564 15.34L33.8445 17.5419C33.8445 17.5419 33.8911 17.8009 34.0413 17.9978C34.1916 18.1947 34.1968 18.3345 34.0621 18.4278C33.9325 18.5159 33.6269 18.6454 33.0673 18.5884C32.2798 18.5055 32.2073 18.1273 32.2176 17.9615C32.2228 17.7957 32.2487 17.0134 32.2487 17.0134L32.2228 14.6923C32.2228 14.6923 32.1762 11.8946 32.1606 11.5061C32.1451 11.1227 32.171 8.75497 32.171 8.75497C32.171 8.75497 32.1555 6.79656 32.1503 6.63596C32.1503 6.47535 31.9949 6.38727 32.0311 6.09196C32.0622 5.79664 32.4974 5.67748 32.9844 5.71893L32.9792 5.71375Z" fill="white"/>
<path d="M35.1608 9.80139C35.596 9.84802 36.1504 9.78585 36.3162 8.99316C36.5079 8.05541 35.7825 7.82227 35.3162 7.82227C34.3992 7.82227 34.2697 8.55278 34.3111 9.05533C34.3474 9.5527 34.7256 9.75476 35.1608 9.80139ZM36.3213 16.2102C36.254 16.0807 36.2074 15.9253 36.1815 15.6041C36.1556 15.2777 36.1089 13.9565 36.1245 13.5887C36.1348 13.226 36.197 12.309 36.2177 12.024C36.2385 11.7339 36.4509 11.3298 36.2436 11.0966C36.0416 10.8687 35.3784 10.7288 35.0157 10.7443C34.6531 10.7547 34.3889 10.8117 34.3681 11.0448C34.3474 11.278 34.4407 11.4956 34.4407 11.4956C34.4407 11.4956 34.5028 11.8997 34.4925 12.2416C34.4821 12.5784 34.508 14.3865 34.508 14.3865C34.508 14.3865 34.508 16.0341 34.5236 16.2154C34.5391 16.3967 34.3578 16.6972 35.3991 16.7542C36.4405 16.8112 36.3887 16.3501 36.3213 16.2154V16.2102Z" fill="white"/>
<path d="M49.688 11.3137C49.688 11.3137 49.8072 11.3034 49.8279 11.1531C49.8538 10.9304 50.1491 8.33988 50.1491 8.33988C50.1491 8.33988 50.118 7.66118 50.5584 7.55756C50.9988 7.45394 51.3097 7.45394 51.6516 7.59901C51.9935 7.74407 52.1075 8.12228 51.9417 8.36579C51.7759 8.60929 51.6879 9.26209 51.6464 9.43824C51.605 9.6144 51.4185 11.0443 51.4185 11.0443V11.1221L52.263 11.0858C52.263 11.0858 52.9002 10.9355 53.1644 11.1687C53.4287 11.4018 53.5893 11.5469 53.5996 11.7956C53.61 12.0391 53.5996 12.2308 53.3199 12.2411C53.0453 12.2515 51.9262 12.3137 51.9262 12.3137C51.9262 12.3137 51.3874 12.3448 51.3459 12.3966C51.3045 12.4536 51.2268 13.7643 51.2319 14.6399C51.2319 15.5155 51.7293 15.8315 51.9987 15.7642C52.2681 15.6968 52.5427 15.1787 52.6774 15.1062C52.8121 15.0285 52.8743 14.9404 53.3095 15.3186C53.724 15.6761 53.6722 15.8937 53.4079 16.2771C53.2991 16.4325 52.693 17.0853 51.4962 16.8263C49.8849 16.4792 49.688 15.5621 49.6466 15.0751C49.6051 14.5829 49.631 13.811 49.6673 13.5675C49.7036 13.3291 49.7398 12.723 49.7087 12.5779C49.6984 12.5157 49.2528 12.6763 48.828 12.5365C48.4083 12.3966 48.3358 12.0494 48.3254 11.9044C48.3099 11.7593 48.2684 11.521 48.398 11.4744C48.5275 11.4225 49.688 11.3086 49.688 11.3086V11.3137Z" fill="white"/>
<path d="M44.3515 12.0758C44.3515 12.0758 45.284 11.0344 46.5586 11.309C47.9522 11.6095 48.2942 12.7234 48.3149 13.5679C48.3304 14.4176 48.2683 15.6818 48.2683 15.9253C48.2683 16.1688 48.1906 16.6713 48.1906 16.6713C48.1906 16.6713 48.175 16.9666 47.3564 16.8941C46.6777 16.8319 46.5326 16.8734 46.486 16.547C46.4394 16.2206 46.5586 16.1584 46.6052 15.3813C46.6466 14.5989 46.6725 14.1896 46.6725 14.1896C46.6725 14.1896 46.7554 12.6561 46.2166 12.5525C45.5845 12.4333 45.025 13.1068 44.8644 13.3141C44.7038 13.5213 44.4758 13.9254 44.4188 14.7595C44.3567 15.5937 44.3566 16.1584 44.3566 16.1584C44.3566 16.1584 44.3048 16.6661 44.3515 16.7283C44.3929 16.7905 44.6157 17.0547 44.3256 17.236C44.0303 17.4174 43.5173 17.4174 43.1029 17.2671C42.6884 17.1169 42.7298 16.8993 42.7143 16.5314C42.6987 16.1636 42.8179 13.8736 42.8179 13.8736L42.8956 9.50088L42.963 6.71353C42.963 6.71353 42.9941 6.39749 42.8956 6.15917C42.8024 5.92602 42.849 5.46492 43.7816 5.55818C44.797 5.65662 44.8126 5.86385 44.7608 6.12808C44.709 6.39231 44.6623 6.26279 44.6364 6.5581C44.6053 6.84823 44.4292 9.61486 44.4292 9.61486L44.3515 12.0706V12.0758Z" fill="white"/>
<path d="M42.067 17.6037C42.0411 16.9716 42.0359 15.4587 42.0359 15.4587L42.0048 13.9459C42.0048 13.9459 42.0462 12.5211 42.067 12.3035C42.0825 12.0911 42.1499 11.9461 42.2535 11.7699C42.3571 11.5989 41.9789 11.3969 41.6421 11.3347C41.3054 11.2725 41.0774 11.3347 40.9634 11.3917C40.8753 11.4331 40.694 11.2311 40.694 11.2311C40.694 11.2311 40.3365 10.9461 39.663 10.8373C38.2745 10.6197 37.6269 11.4694 37.1243 13.06C36.57 14.9458 36.8394 15.6453 37.0622 16.0546C37.2849 16.4587 38.1191 17.1115 38.9325 17.2255C39.7459 17.3446 40.4971 16.7695 40.492 16.7799C40.5645 17.1736 40.5127 18.5362 40.5127 18.5362C40.5127 18.5362 40.4816 19.4636 39.7873 19.5672C39.0931 19.6709 38.8962 18.9093 38.7978 18.6968C38.6993 18.4844 38.7512 18.3394 38.7719 18.1062C38.7926 17.8783 38.6061 17.8005 38.3056 17.7954C38.0103 17.7954 37.4145 17.899 37.1865 18.1943C36.9585 18.4896 37.0622 18.5984 37.1192 18.7227C37.1761 18.8471 37.2694 19.0232 37.3678 19.2305C37.6994 20.1941 38.7563 20.821 39.5024 20.7848C40.2536 20.7537 41.0204 20.4739 41.523 19.904C42.0255 19.3289 42.0981 18.2306 42.067 17.5985V17.6037ZM40.3832 14.8526C40.3262 15.0702 39.891 15.868 39.1967 15.9613C38.5025 16.0442 38.3211 14.9976 38.5077 13.9615C38.6942 12.9304 39.2226 12.1274 39.5957 12.1533C39.9687 12.1844 40.4246 12.4331 40.4505 13.205C40.4712 13.977 40.4505 14.5676 40.3832 14.8526Z" fill="white"/>
<path d="M4.05958 8.59461C4.05958 8.59461 3.66583 8.96764 3.65029 9.26295C3.63475 9.55827 3.90934 9.78105 4.15284 10.1437C4.18393 10.2059 4.86263 11.0711 5.52061 11.7239C6.17859 12.3715 7.59299 13.1849 8.11627 13.3663C8.14736 13.3922 8.11627 13.501 8.11627 13.501C8.11627 13.501 8.03337 14.4853 7.91421 15.4801C7.79505 16.4697 7.7536 16.9567 7.7536 16.9567C7.7536 16.9567 7.60854 18.2053 8.31315 18.4229C8.59292 18.5109 8.91414 18.6301 9.43223 18.485C9.95033 18.34 9.78454 18.0654 9.78454 18.0654C9.78454 18.0654 9.67056 17.8737 9.55657 17.6146C9.43741 17.3556 9.61357 15.5889 9.61357 15.5889L9.69128 14.6874L9.77936 13.931C9.77936 13.931 9.74309 13.8895 9.91924 13.9206C10.0954 13.9517 11.4424 14.0398 11.4424 14.0398C11.4424 14.0398 12.4683 14.0916 13.4475 13.9206C13.7583 13.8481 14.2039 13.7082 14.2039 13.7082C14.2039 13.7082 14.2453 13.7082 14.2402 13.8999C14.2298 14.0916 14.3231 14.8687 14.3282 15.1382C14.3334 15.4127 14.4008 16.3557 14.4111 16.5266C14.4267 16.6976 14.494 17.4696 14.494 17.4696C14.494 17.4696 14.5614 18.4695 14.7686 18.7078C14.9759 18.941 15.5509 18.8788 15.5509 18.8788C15.5509 18.8788 15.7737 18.8892 16.183 18.6923C16.5923 18.4954 16.4472 18.1483 16.4472 18.1483C16.4472 18.1483 16.4213 18.0861 16.3333 17.9773C16.2452 17.8633 16.183 17.4903 16.1467 17.1898C16.1105 16.8945 16.0587 16.3609 16.0587 16.3609L15.9395 14.7185L15.8618 13.7134C15.8618 13.7134 15.8359 13.0347 15.8825 12.9673C15.924 12.9 16.2815 12.6513 16.2815 12.6513C16.2815 12.6513 16.9912 12.0451 17.1259 11.6462C17.2607 11.2473 17.1985 11.0297 17.1985 11.0297C17.1985 11.0297 17.1415 10.5996 16.8203 10.3302C16.7063 10.2318 16.5042 10.3147 16.4421 10.4287C16.3799 10.5426 16.3384 10.6359 16.297 10.6929C16.2555 10.7499 16.0017 11.0348 15.9706 11.0607C15.9447 11.0866 15.8877 11.1747 15.8514 11.1333C15.8152 11.097 15.7737 10.2836 15.7789 10.1437C15.7789 10.0142 15.7323 8.55316 15.7323 8.55316C15.7323 8.55316 15.7426 7.53769 15.7323 7.22166C15.7219 6.90562 15.8048 5.54821 15.8255 5.37724C15.8514 5.29434 15.9291 5.29952 15.9706 5.02493C16.0172 4.75034 15.5199 4.4913 14.9033 4.4343C14.5666 4.40322 14.3438 4.4084 14.1883 4.49648C14.0122 4.59492 14.007 4.75552 14.0018 4.85914C13.9811 5.05084 14.1003 5.16482 14.1158 5.37206C14.1365 5.5793 14.0899 5.98341 14.0899 5.98341V6.70874L14.1003 8.00398L14.1158 9.84322L14.1521 11.0918C14.1521 11.0918 14.1935 12.0607 14.2039 12.0969C14.2143 12.1384 14.2039 12.1643 14.178 12.1798C14.1573 12.2006 13.5459 12.5736 11.831 12.5943C10.9969 12.5839 10.2715 12.4751 9.98141 12.356C9.98141 12.299 10.0747 11.5581 10.0747 11.5581C10.0747 11.5581 10.4425 8.87956 10.5617 8.29411C10.6808 7.71385 10.8311 6.7761 10.9399 6.29945C11.0487 5.8228 11.1989 5.66219 11.2456 5.58966C11.2974 5.51712 11.515 5.10265 10.971 4.91613C10.199 4.87987 9.69128 5.15964 9.69128 5.15964C9.69128 5.15964 9.24054 5.39796 9.2768 5.75545C9.31307 6.10775 9.2768 6.36162 9.26126 6.44451C9.24572 6.52741 9.10065 6.97297 8.99703 7.64131C8.88823 8.30966 8.82088 8.8433 8.82088 8.8433L8.624 10.0349L8.44267 11.097L8.33387 11.8068C8.33387 11.8068 7.7536 11.6928 6.70705 10.6722C5.66568 9.65152 5.30301 8.99872 5.19939 8.7345C5.18385 8.68269 5.21494 8.40291 4.77974 8.30966C4.32899 8.25785 4.06995 8.57907 4.06995 8.57907L4.05958 8.59461Z" fill="white"/>
<path d="M57.4024 10.0917C57.4024 10.0917 58.4179 10.1331 59.0759 10.874C59.5421 11.532 59.5836 12.2521 59.5836 12.2521C59.5836 12.2521 59.5577 12.4853 59.1225 12.5215C58.6873 12.5578 58.3402 12.6666 58.0293 12.2987C57.7133 11.9361 57.7651 11.4439 57.3143 11.5216C56.8636 11.5993 56.0657 12.0708 56.0035 12.5474C55.9466 13.0085 56.8221 13.252 57.4335 13.4489C58.335 13.739 59.7701 13.9152 59.5577 15.1275C59.3504 16.3399 57.6977 16.8217 56.3818 16.6663C56.0761 16.6352 55.7911 16.5989 55.5373 16.5316C54.6099 16.2881 54.0451 15.9047 54.04 15.4125C53.9415 14.9721 54.7808 14.7286 55.0502 14.739C55.3197 14.7493 55.2989 14.7234 55.558 15.0446C55.817 15.3659 56.0761 15.4125 56.703 15.4695C57.3299 15.5265 57.6252 15.2778 57.6252 15.2778C57.6252 15.2778 57.9257 15.0498 57.4749 14.8478C57.019 14.6509 54.7498 14.1794 54.3819 13.4023C54.0089 12.6251 54.2835 11.7133 54.8586 11.2159C55.4336 10.7134 56.0709 10.0088 57.4128 10.0917H57.4024Z" fill="white"/>
<path d="M58.4802 7.67216H58.2211V8.36123H57.9932V7.67216H57.7341V7.48047H58.4802V7.67216ZM59.5993 8.36123H59.3817V7.76542L59.1641 8.36123H59.0346L58.817 7.76542V8.36123H58.5994V7.48047H58.9102L59.1071 7.97784L59.304 7.48047H59.6148V8.36123H59.5993Z" fill="white"/>
</g>
<defs>
<clipPath id="clip0_893_3844">
<rect width="68" height="34" fill="white" transform="translate(0 0.5)"/>
</clipPath>
</defs>
</svg>
