<svg width="64" height="64" viewBox="0 0 64 64" fill="none" xmlns="http://www.w3.org/2000/svg">
<g opacity="0.6">
<path d="M45.8878 43.4928C47.602 42.9351 49.3163 42.2173 50.7792 41.1568C52.658 39.7945 54.0432 37.8928 54.5735 35.9499C54.8478 34.9396 54.8889 33.8928 54.45 33.0516C53.5952 31.4105 51.0489 30.7979 49.138 32.1968C46.0843 34.4322 47.3643 38.0436 42.5826 41.2619C41.5769 41.9385 41.2478 40.6996 40.434 41.5728C39.5609 42.5054 39.3323 44.1328 40.5986 44.4756C41.9472 44.8413 44.466 43.9545 45.8832 43.4973L45.8878 43.4928Z" fill="#CEDEFF"/>
<path d="M53.1515 32.416C53.2933 32.9692 53.3161 33.5772 53.2521 34.1897C53.0464 36.192 51.9904 38.2903 50.3584 39.936C49.0875 41.216 47.515 42.1989 45.9104 43.0217C44.5893 43.6983 42.2853 44.1829 40.8955 44.0366C40.6487 44.0092 40.411 44.7269 40.251 44.6034C40.379 44.9097 40.6304 45.152 41.0327 45.2617C42.3813 45.6274 45.115 45.2937 46.5275 44.8366C48.2418 44.2789 49.7413 43.008 51.2087 41.9474C53.0875 40.5852 54.4727 38.6834 55.003 36.7406C55.2773 35.7303 55.3184 34.6834 54.8795 33.8423C54.5321 33.1749 53.9058 32.6812 53.1561 32.4206L53.1515 32.416Z" fill="white"/>
<path d="M51.2734 31.7624C52.5671 31.7624 53.8517 32.4939 54.3865 33.5179C54.8254 34.359 54.99 35.9956 54.7157 37.0059C54.19 38.9487 52.6494 40.8504 50.7705 42.2127C49.3077 43.2733 47.5934 43.991 45.8791 44.5487C44.9054 44.8641 43.3877 45.1019 42.0985 45.1019C41.5088 45.1019 40.9648 45.0516 40.5442 44.9373C39.278 44.5944 39.5065 42.967 40.3797 42.0344C40.6402 41.7556 40.8414 41.6733 41.0288 41.6733C41.3077 41.6733 41.5591 41.8561 41.9431 41.8561C42.1077 41.8561 42.2997 41.8241 42.5282 41.7281C48.3522 39.2596 46.5145 35.2504 49.0837 32.663C49.7145 32.0321 50.5008 31.7624 51.2825 31.7624M51.2734 30.8481C50.1717 30.8481 49.1888 31.2504 48.4254 32.0184C47.3054 33.1476 46.9122 34.4641 46.5374 35.735C45.9614 37.6733 45.4174 39.5019 42.1625 40.8824C42.0711 40.919 41.998 40.9419 41.934 40.9419C41.87 40.9419 41.7968 40.919 41.678 40.8824C41.5134 40.8321 41.2894 40.759 41.0197 40.759C40.5442 40.759 40.1145 40.9739 39.7031 41.4127C38.9122 42.2584 38.5602 43.4607 38.83 44.3979C39.0311 45.1019 39.566 45.623 40.302 45.8196C40.782 45.9476 41.3854 46.0161 42.0985 46.0161C43.4288 46.0161 45.0608 45.7739 46.1625 45.4173C48.3157 44.7179 49.9522 43.9361 51.31 42.9533C53.4768 41.3807 55.0402 39.3007 55.598 37.2481C55.9317 36.023 55.7534 34.1624 55.2002 33.0973C54.51 31.7716 52.9008 30.8481 51.278 30.8481H51.2734Z" fill="#6699FF"/>
<path d="M42.4276 33.0879C43.6802 38.537 42.6424 48.8136 36.2242 50.0799C35.639 50.1942 34.3042 48.9142 33.783 48.5759C33.3487 48.2925 33.1019 47.6616 33.1202 47.1633C33.1247 47.0033 33.143 46.8433 33.175 46.6833C33.1979 46.5645 33.2893 46.3907 33.2847 46.2765C33.271 45.8787 32.0504 45.7325 31.735 45.6959C30.615 45.5587 29.175 45.7507 28.2607 46.4913C27.4424 47.1542 26.4733 47.6205 25.4082 47.657C24.3202 47.6936 23.1499 47.1359 22.8939 45.9976C22.5556 44.4845 24.0504 43.2867 24.567 41.9839C24.8916 41.1656 24.7819 40.1416 24.4344 39.337C24.2059 38.8113 23.8219 38.473 23.2322 38.4685C22.3133 38.4547 21.0653 38.6879 20.151 38.3359C19.3739 38.0387 18.9579 37.6227 18.6973 36.8273C18.455 36.0913 18.7476 35.3919 19.223 34.7565C19.9773 33.7507 21.623 33.0833 23.511 33.4765" fill="white"/>
<path d="M36.142 50.5464C35.5843 50.5464 34.9169 50.0482 34.0574 49.3624C33.8471 49.1979 33.6506 49.0379 33.5317 48.9601C32.9283 48.567 32.6357 47.7533 32.6586 47.1499C32.6677 46.967 32.686 46.7842 32.718 46.6013C32.7317 46.5373 32.7546 46.4642 32.782 46.391C32.6494 46.3316 32.3431 46.2356 31.6894 46.1579C30.766 46.0436 29.4037 46.1579 28.5489 46.8527C27.5706 47.6481 26.4917 48.087 25.422 48.1236C24.2151 48.1601 22.7706 47.5522 22.446 46.1076C22.1809 44.9144 22.8437 43.9224 23.4334 43.0447C23.7169 42.6196 23.9866 42.2219 24.142 41.8242C24.3934 41.1887 24.3431 40.2836 24.014 39.5247C23.7854 39.0036 23.4746 38.9304 23.2231 38.9304C22.9717 38.9259 22.6929 38.9442 22.4003 38.9579C21.6186 39.0036 20.7271 39.0539 19.982 38.7659C19.0586 38.4093 18.5603 37.8927 18.2586 36.9739C17.998 36.183 18.19 35.3693 18.8529 34.487C19.6391 33.4356 21.4174 32.5807 23.6026 33.0333C23.8494 33.0836 24.0094 33.3259 23.9546 33.5727C23.8997 33.8196 23.662 33.9796 23.4151 33.9247C21.6231 33.5499 20.2014 34.2127 19.5843 35.031C19.1089 35.6619 18.9671 36.1876 19.1271 36.6859C19.342 37.335 19.6529 37.655 20.3111 37.911C20.8734 38.1259 21.6231 38.0847 22.3454 38.0436C22.6563 38.0253 22.9534 38.0116 23.2323 38.0116C23.7443 38.0162 24.4391 38.2219 24.846 39.159C25.2757 40.1464 25.326 41.2939 24.9877 42.1579C24.7957 42.647 24.4849 43.1042 24.1877 43.5476C23.6574 44.343 23.1546 45.0927 23.3329 45.9019C23.5431 46.839 24.5443 47.2276 25.3854 47.2047C26.2631 47.1727 27.1317 46.8162 27.9683 46.1396C29.0426 45.2664 30.6471 45.1064 31.7854 45.2436C32.7911 45.367 33.71 45.5727 33.7329 46.263C33.7374 46.4184 33.6871 46.5647 33.646 46.679C33.6323 46.711 33.6231 46.743 33.614 46.7704C33.5911 46.903 33.5729 47.0447 33.5683 47.1819C33.5546 47.5659 33.7603 48.0184 34.0254 48.1922C34.1809 48.2927 34.3866 48.4573 34.6243 48.6447C34.9946 48.9373 35.854 49.6276 36.1329 49.6276C36.1329 49.6276 36.1329 49.6276 36.1374 49.6276C37.7786 49.303 39.15 48.311 40.206 46.6836C42.542 43.0813 42.862 37.0424 41.9751 33.1887C41.9203 32.9419 42.0711 32.6996 42.318 32.6402C42.5649 32.5853 42.8117 32.7362 42.8666 32.983C43.7946 37.0196 43.4471 43.3693 40.974 47.1819C39.7763 49.0242 38.2083 50.1533 36.3066 50.5282C36.2517 50.5373 36.1969 50.5464 36.1374 50.5464H36.142Z" fill="#6699FF"/>
<path d="M28.489 35.6718C28.5809 34.3546 27.4385 33.2019 25.9374 33.0972C24.4363 32.9925 23.145 33.9754 23.0531 35.2927C22.9612 36.6099 24.1036 37.7626 25.6047 37.8673C27.1058 37.972 28.3971 36.9891 28.489 35.6718Z" fill="#99BBFF"/>
<path d="M25.8239 38.3268C25.7416 38.3268 25.6593 38.3268 25.577 38.3177C23.8262 38.1942 22.4913 36.8228 22.601 35.2548C22.7107 33.6868 24.2239 32.5119 25.9702 32.6354C27.721 32.7588 29.0559 34.1302 28.9462 35.6982C28.841 37.1885 27.465 38.3268 25.8239 38.3268ZM25.7187 33.5451C24.553 33.5451 23.5793 34.3131 23.5107 35.3234C23.4376 36.3885 24.393 37.3211 25.6365 37.4079C26.8845 37.4994 27.9587 36.6994 28.0319 35.6388C28.105 34.5737 27.1496 33.6411 25.9062 33.5542C25.8422 33.5542 25.7827 33.5497 25.7187 33.5497V33.5451Z" fill="#6699FF"/>
<path d="M35.1746 36.1362C35.2664 34.819 34.124 33.6663 32.623 33.5615C31.1219 33.4568 29.8305 34.4398 29.7386 35.757C29.6467 37.0743 30.7891 38.227 32.2902 38.3317C33.7913 38.4364 35.0827 37.4534 35.1746 36.1362Z" fill="#99BBFF"/>
<path d="M32.5072 38.7934C32.4249 38.7934 32.338 38.7934 32.2557 38.7842C30.5049 38.6608 29.17 37.2894 29.2797 35.7259C29.3346 34.9579 29.7232 34.2585 30.3723 33.7648C31.0032 33.2848 31.8169 33.0516 32.6489 33.1065C34.3997 33.2299 35.7346 34.6014 35.6249 36.1694C35.57 36.9374 35.1815 37.6368 34.5323 38.1305C33.9655 38.5648 33.2523 38.7934 32.5072 38.7934ZM30.1895 35.7854C30.1163 36.8459 31.0717 37.7831 32.3152 37.8699C32.9323 37.9156 33.522 37.7465 33.9746 37.3991C34.4135 37.0654 34.674 36.6036 34.7106 36.1008C34.7837 35.0356 33.8283 34.1031 32.5849 34.0162C31.9723 33.9751 31.378 34.1397 30.9255 34.4871C30.4866 34.8208 30.226 35.2825 30.1895 35.7854Z" fill="#6699FF"/>
<path d="M32.3066 36.6306C32.3066 36.6306 32.2837 36.6306 32.2746 36.6306L25.6734 36.1689C25.422 36.1506 25.23 35.9312 25.2483 35.6798C25.2666 35.4283 25.486 35.2409 25.7374 35.2546L32.3386 35.7163C32.59 35.7346 32.782 35.954 32.7637 36.2055C32.7454 36.4478 32.5443 36.6306 32.3066 36.6306Z" fill="#6699FF"/>
<path d="M29.1104 37.5314C30.1153 37.5314 30.9299 36.7169 30.9299 35.712C30.9299 34.7072 30.1153 33.8926 29.1104 33.8926C28.1056 33.8926 27.291 34.7072 27.291 35.712C27.291 36.7169 28.1056 37.5314 29.1104 37.5314Z" fill="#99BBFF"/>
<path d="M29.1154 37.9841C29.0606 37.9841 29.0057 37.9841 28.9554 37.9795C27.7029 37.8926 26.7566 36.8046 26.8434 35.5521C26.9303 34.2995 28.0228 33.3578 29.2708 33.4401C29.8788 33.4812 30.432 33.7601 30.8297 34.2172C31.2274 34.6743 31.424 35.2641 31.3829 35.8675C31.3417 36.4755 31.0628 37.0286 30.6057 37.4264C30.1897 37.7875 29.664 37.9841 29.1154 37.9841ZM29.1109 34.3498C28.4023 34.3498 27.8034 34.8984 27.7531 35.6161C27.7257 35.9772 27.8446 36.3292 28.0823 36.6035C28.32 36.8778 28.6537 37.0424 29.0149 37.0652C29.376 37.0972 29.728 36.9738 30.0023 36.7361C30.2766 36.4984 30.4411 36.1646 30.4686 35.8035C30.496 35.4423 30.3771 35.0904 30.1394 34.8161C29.9017 34.5418 29.568 34.3772 29.2069 34.3544C29.1749 34.3544 29.1429 34.3544 29.1109 34.3544V34.3498Z" fill="#6699FF"/>
<path d="M36.5443 34.2994C35.7672 34.6514 35.2461 35.1863 34.5466 35.7669C34.1763 36.0731 33.7558 36.3154 33.3398 36.5623C32.5581 37.0331 31.7718 37.568 31.1958 38.2903C30.5009 39.1634 30.4461 39.9497 30.9443 40.9463C31.0586 41.1703 31.1775 41.3989 31.3512 41.5817C31.6346 41.8834 31.9181 41.9017 32.3021 41.8926C32.8095 41.8789 33.3032 41.728 33.7878 41.5771C34.7066 41.2937 35.6255 41.0057 36.5443 40.7223C36.9009 40.6126 37.3352 40.4297 37.6369 40.6491C39.6163 42.0983 36.0689 45.984 35.6118 46.6834C34.5649 48.288 32.9558 47.584 33.6003 48.4206C34.2449 49.2571 35.2689 52.1006 39.7078 48.096C41.9249 46.0937 43.6483 38.1303 42.2769 32.5806C41.1706 32.9051 40.0689 33.2297 38.9626 33.5543C38.3043 33.7463 37.6415 33.9246 36.9923 34.1349C36.8323 34.1851 36.6861 34.24 36.5489 34.304L36.5443 34.2994Z" fill="#CEDEFF"/>
<path d="M36.142 50.5464C35.5843 50.5464 34.9169 50.0482 34.0574 49.3624C33.8471 49.1979 33.6506 49.0379 33.5317 48.9601C32.9283 48.567 32.6357 47.7533 32.6586 47.1499C32.6677 46.967 32.686 46.7842 32.718 46.6013C32.7317 46.5373 32.7546 46.4642 32.782 46.391C32.6494 46.3316 32.3431 46.2356 31.6894 46.1579C30.766 46.0436 29.4037 46.1579 28.5489 46.8527C27.5706 47.6481 26.4917 48.087 25.422 48.1236C24.2151 48.1601 22.7706 47.5522 22.446 46.1076C22.1809 44.9144 22.8437 43.9224 23.4334 43.0447C23.7169 42.6196 23.9866 42.2219 24.142 41.8242C24.3934 41.1887 24.3431 40.2836 24.014 39.5247C23.7854 39.0036 23.4746 38.9304 23.2231 38.9304C22.9717 38.9259 22.6929 38.9442 22.4003 38.9579C21.6186 39.0036 20.7271 39.0539 19.982 38.7659C19.0586 38.4093 18.5603 37.8927 18.2586 36.9739C17.998 36.183 18.19 35.3693 18.8529 34.487C19.6391 33.4356 21.4174 32.5807 23.6026 33.0333C23.8494 33.0836 24.0094 33.3259 23.9546 33.5727C23.8997 33.8196 23.662 33.9796 23.4151 33.9247C21.6231 33.5499 20.2014 34.2127 19.5843 35.031C19.1089 35.6619 18.9671 36.1876 19.1271 36.6859C19.342 37.335 19.6529 37.655 20.3111 37.911C20.8734 38.1259 21.6231 38.0847 22.3454 38.0436C22.6563 38.0253 22.9534 38.0116 23.2323 38.0116C23.7443 38.0162 24.4391 38.2219 24.846 39.159C25.2757 40.1464 25.326 41.2939 24.9877 42.1579C24.7957 42.647 24.4849 43.1042 24.1877 43.5476C23.6574 44.343 23.1546 45.0927 23.3329 45.9019C23.5431 46.839 24.5443 47.2276 25.3854 47.2047C26.2631 47.1727 27.1317 46.8162 27.9683 46.1396C29.0426 45.2664 30.6471 45.1064 31.7854 45.2436C32.7911 45.367 33.71 45.5727 33.7329 46.263C33.7374 46.4184 33.6871 46.5647 33.646 46.679C33.6323 46.711 33.6231 46.743 33.614 46.7704C33.5911 46.903 33.5729 47.0447 33.5683 47.1819C33.5546 47.5659 33.7603 48.0184 34.0254 48.1922C34.1809 48.2927 34.3866 48.4573 34.6243 48.6447C34.9946 48.9373 35.854 49.6276 36.1329 49.6276C36.1329 49.6276 36.1329 49.6276 36.1374 49.6276C37.7786 49.303 39.15 48.311 40.206 46.6836C42.542 43.0813 42.862 37.0424 41.9751 33.1887C41.9203 32.9419 42.0711 32.6996 42.318 32.6402C42.5649 32.5853 42.8117 32.7362 42.8666 32.983C43.7946 37.0196 43.4471 43.3693 40.974 47.1819C39.7763 49.0242 38.2083 50.1533 36.3066 50.5282C36.2517 50.5373 36.1969 50.5464 36.1374 50.5464H36.142Z" fill="#6699FF"/>
<path d="M41.4445 45.3393C41.4445 45.3393 42.1759 43.2501 45.6045 41.9107C45.6045 41.9107 49.1153 40.5164 46.5462 37.289C46.5462 37.289 44.7633 36.297 43.1587 32.5713L40.0136 32.9416C40.0136 32.9416 39.7165 43.3096 41.4445 45.3393Z" fill="#99BBFF"/>
<path d="M41.4444 45.7963C41.3118 45.7963 41.1838 45.7415 41.097 45.6363C39.305 43.5335 39.529 34.0112 39.5564 32.9323C39.561 32.7038 39.7347 32.5163 39.9587 32.4935L43.1038 32.1232C43.3004 32.0958 43.497 32.21 43.5793 32.3975C45.1015 35.9403 46.7518 36.8866 46.7701 36.8958C46.8204 36.9232 46.8707 36.9643 46.9073 37.01C47.7987 38.13 48.1187 39.1906 47.8581 40.1643C47.4604 41.6546 45.8421 42.3129 45.7735 42.3403C42.6101 43.5746 41.8833 45.4809 41.8741 45.4992C41.8193 45.65 41.6867 45.7643 41.5267 45.7918C41.4993 45.7963 41.4718 45.8009 41.4444 45.8009V45.7963ZM40.4616 33.3529C40.4067 36.1278 40.5027 42.13 41.4353 44.4158C41.9747 43.6249 43.1313 42.386 45.4398 41.49C45.449 41.49 46.7016 40.9689 46.9758 39.9266C47.1495 39.2638 46.9027 38.4958 46.2398 37.6409C45.8558 37.394 44.3061 36.242 42.8798 33.074L40.4661 33.3575L40.4616 33.3529Z" fill="#6699FF"/>
<path d="M33.3071 46.6058C33.2614 46.6058 33.2157 46.6012 33.1699 46.5829C32.9277 46.5052 32.7951 46.2492 32.8728 46.0069C33.2797 44.736 33.7322 43.9818 35.3551 42.8709C35.5654 42.7292 35.8488 42.784 35.9905 42.9898C36.1322 43.2 36.0819 43.4835 35.8717 43.6252C34.3905 44.64 34.0842 45.216 33.7459 46.2858C33.6819 46.4778 33.5037 46.6058 33.3117 46.6058H33.3071Z" fill="#6699FF"/>
<path d="M24.6493 40.407C24.4025 40.407 24.2013 40.2104 24.1922 39.9635C24.1694 39.0904 23.2505 37.2801 22.8985 36.6584C22.7751 36.439 22.8528 36.1601 23.0722 36.0367C23.2916 35.9132 23.5705 35.991 23.6939 36.2104C23.8356 36.4618 25.0699 38.6835 25.1019 39.9407C25.1111 40.1921 24.9099 40.4024 24.6585 40.4115H24.6448L24.6493 40.407Z" fill="#6699FF"/>
<path d="M19.013 10.4276C21.2941 8.6447 23.5616 9.57727 24.6678 11.3098C25.9478 13.3167 27.2141 14.0344 25.5364 15.735C23.8587 17.431 21.3901 18.9761 19.301 17.8196C16.3616 16.1876 16.3021 12.5533 19.013 10.4276Z" fill="#CEDEFF"/>
<path d="M20.8732 18.6881C20.279 18.6881 19.6755 18.5509 19.0812 18.2218C17.623 17.4126 16.7178 16.0641 16.5944 14.5326C16.4664 12.8869 17.2664 11.2184 18.7338 10.0709C19.8264 9.21607 21.0195 8.86864 22.1761 9.06521C23.319 9.26178 24.3704 9.98864 25.0561 11.0675C25.3075 11.4606 25.5635 11.8081 25.7875 12.1189C26.6927 13.3578 27.4744 14.4275 25.8607 16.0595C24.9738 16.9601 22.9898 18.6881 20.8732 18.6881ZM19.2961 10.7886C18.0527 11.7624 17.399 13.1018 17.5041 14.4595C17.6001 15.6984 18.3178 16.7498 19.5201 17.4218C21.6778 18.6195 24.215 16.4206 25.207 15.4149C26.2721 14.3361 25.9658 13.9109 25.047 12.6538C24.8138 12.3338 24.5487 11.9726 24.2835 11.5566C23.735 10.6972 22.9075 10.1121 22.0207 9.96121C21.1247 9.81035 20.183 10.0938 19.2961 10.7841V10.7886Z" fill="#6699FF"/>
<path d="M20.0639 12.5532C21.3987 11.2595 22.7884 12.3383 23.3599 13.2983C24.0227 14.4046 25.289 15.8949 24.4204 16.8321C23.5564 17.7692 21.2342 16.7955 20.1416 16.1875C18.9942 15.5521 18.7107 13.8652 20.0639 12.5486V12.5532Z" fill="white"/>
<path d="M48.3706 25.5861C48.3614 25.2616 48.3386 24.9279 48.2883 24.585C47.9226 22.0661 46.5786 20.649 45.87 19.4467C44.5717 17.2524 43.3146 15.3416 41.0928 14.0159C38.5923 12.777 35.4837 12.0501 31.7717 12.0547C28.0597 12.0501 24.9511 12.777 22.4506 14.0159C20.2289 15.3461 18.9763 17.2524 17.6734 19.4467C16.9603 20.649 15.6209 22.0661 15.2551 24.585C15.2049 24.9279 15.182 25.2616 15.1729 25.5861C15.2414 27.7759 16.0231 29.4947 17.358 30.825C19.9774 33.2844 24.6631 34.4684 29.8426 34.6924C29.9203 34.6924 29.9934 34.7016 30.0711 34.7016C30.1626 34.7016 30.254 34.7061 30.35 34.7107C30.8209 34.7244 31.2963 34.7336 31.7763 34.7336C32.2563 34.7336 32.7317 34.7244 33.2026 34.7107C33.294 34.7107 33.39 34.7061 33.4814 34.7016C33.5591 34.7016 33.6323 34.697 33.71 34.6924C38.8894 34.4684 43.5751 33.2844 46.1946 30.825C47.5248 29.4993 48.3111 27.7759 48.3797 25.5861H48.3706Z" fill="#CEDEFF"/>
<path d="M29.1837 25.737C20.0683 24.937 16.818 26.9576 16.5117 29.6273C16.7037 29.9656 16.9323 30.2901 17.1791 30.5964C17.2523 30.6696 17.3163 30.7519 17.3894 30.8204C20.0637 33.2799 24.8409 34.4639 30.1254 34.6879C30.2031 34.6879 30.2809 34.697 30.3586 34.697C30.4546 34.697 30.546 34.7016 30.642 34.7061C31.122 34.7199 31.6066 34.729 32.1003 34.729C32.5894 34.729 33.0786 34.7199 33.5586 34.7061C33.6546 34.7061 33.746 34.7016 33.842 34.697C33.9197 34.697 33.9974 34.6924 34.0751 34.6879C37.4717 34.5461 40.6534 34.0021 43.2089 32.9827C42.834 28.6856 38.4683 26.5507 29.1837 25.737Z" fill="white"/>
<path d="M26.2127 17.1842C27.5064 17.2208 28.087 15.3282 28.8001 12.9968C28.9281 12.5716 29.0287 12.1693 29.111 11.7808C28.2059 11.8448 27.3236 11.9728 26.4687 12.1465C26.3773 12.3979 26.2904 12.6539 26.2081 12.919C25.495 15.255 24.9144 17.1476 26.2081 17.1842H26.2127Z" fill="#99BBFF"/>
<path d="M29.3947 18.0481C30.6884 18.0847 31.269 16.1921 31.9821 13.8607C32.2107 13.111 32.357 12.4161 32.4392 11.8035C32.0735 11.7715 31.7124 11.735 31.3284 11.7212C30.9444 11.7075 30.565 11.7258 30.1901 11.735C29.8975 12.343 29.6232 13.0332 29.3947 13.783C28.6815 16.119 28.101 18.0115 29.3947 18.0481Z" fill="#99BBFF"/>
<path d="M33.047 17.3851C34.3407 17.4217 34.9213 15.5291 35.6344 13.1977C35.7167 12.9325 35.7853 12.6765 35.8493 12.4251C35.1179 12.2057 34.327 12.0319 33.4767 11.9131C33.3213 12.2971 33.175 12.6994 33.047 13.1245C32.3339 15.4605 31.7533 17.3531 33.047 17.3897V17.3851Z" fill="#99BBFF"/>
<path d="M34.8572 26.4321C34.8069 27.095 34.2401 27.6116 33.5909 27.5887C32.9418 27.5659 32.4572 27.0081 32.5075 26.3453C32.5578 25.6824 33.1246 25.1659 33.7738 25.1887C34.4229 25.2116 34.9075 25.7693 34.8572 26.4321Z" fill="#6699FF"/>
<path d="M24.9373 25.6045C24.887 26.2674 24.3201 26.7839 23.671 26.7611C23.0219 26.7382 22.5373 26.1805 22.5876 25.5177C22.6379 24.8548 23.2047 24.3382 23.8539 24.3611C24.503 24.3839 24.9876 24.9417 24.9373 25.6045Z" fill="#6699FF"/>
<path d="M28.3752 28.7496C28.3752 28.7496 28.3524 28.7496 28.3432 28.7496C28.0918 28.7313 27.8998 28.5119 27.9181 28.2605C27.9272 28.1051 27.8861 28.0365 27.8541 27.9953C27.7535 27.8765 27.5341 27.8399 27.4655 27.8353C26.7661 27.7485 26.5832 28.0091 26.4872 28.1462C26.341 28.3519 26.0575 28.4022 25.8518 28.2559C25.6461 28.1096 25.5958 27.8262 25.7421 27.6205C26.1444 27.0491 26.7341 26.8251 27.5478 26.9256C27.5798 26.9256 28.1604 26.9622 28.5352 27.3873C28.7547 27.6342 28.8598 27.9588 28.8324 28.3245C28.8141 28.5668 28.613 28.7496 28.3752 28.7496Z" fill="#6699FF"/>
<path d="M28.4071 28.6446C28.3431 28.6446 28.2791 28.6309 28.2197 28.6035C27.9911 28.4983 27.886 28.2286 27.9911 28.0001C28.4025 27.0858 29.3351 26.9578 29.774 27.0218C30.4551 27.1406 30.7614 27.4789 30.8985 27.7395C31.0174 27.9635 30.9305 28.2378 30.7065 28.3566C30.4825 28.4755 30.2082 28.3886 30.0894 28.1646C30.03 28.0503 29.87 27.9681 29.6322 27.9223C29.5911 27.9223 29.0517 27.8675 28.8277 28.3703C28.75 28.5395 28.5854 28.6401 28.4117 28.6401L28.4071 28.6446Z" fill="#6699FF"/>
<path d="M32.1052 35.1864C31.6069 35.1864 31.1178 35.1773 30.6332 35.1635L30.1121 35.1453C25.9567 34.9715 20.3201 34.135 17.0835 31.159C15.5749 29.6824 14.7795 27.8173 14.7109 25.6001C14.7247 25.1795 14.7521 24.8458 14.7978 24.5167C15.1041 22.4458 16.0367 21.1018 16.7909 20.0184C16.9921 19.7304 17.1795 19.4607 17.3304 19.2093C18.6789 16.9738 19.9909 15.0127 22.3635 13.6184C25.1429 12.2698 28.3932 11.5933 32.0595 11.5933H32.1509C35.8172 11.5933 39.0675 12.2698 41.8149 13.6001C43.6709 14.5007 45.0561 16.3613 46.0572 17.8881C47.5201 20.119 48.3338 22.0207 48.6904 24.0458C48.7818 24.5533 48.8275 25.0835 48.8275 25.6184C48.8367 28.7453 47.2458 31.5064 44.6767 32.823C41.9201 34.2355 38.5601 34.9715 34.0984 35.1453L33.5772 35.1635C33.0926 35.1773 32.6035 35.1864 32.1098 35.1864H32.1052ZM32.0595 12.5075C28.5304 12.5075 25.4127 13.1521 22.7932 14.423C20.6355 15.6893 19.3967 17.5544 18.1121 19.6801C17.9429 19.959 17.7509 20.2378 17.5407 20.5395C16.8458 21.5407 15.9772 22.7933 15.7029 24.6493C15.6572 24.9418 15.6344 25.2435 15.6252 25.6001C15.6847 27.543 16.3887 29.2024 17.7144 30.4961C20.0732 32.663 24.4892 33.9978 30.1487 34.2355L30.6607 34.2538C31.1361 34.2675 31.6207 34.2767 32.1052 34.2767C32.5898 34.2767 33.0698 34.2675 33.5498 34.2538L34.0618 34.2355C38.3864 34.0664 41.6275 33.3624 44.2607 32.0138C46.5235 30.8527 47.9269 28.407 47.9178 25.623C47.9178 25.143 47.8767 24.663 47.7944 24.2058C47.4561 22.3041 46.6881 20.5121 45.2938 18.391C44.3612 16.9647 43.0721 15.2275 41.4218 14.423C38.8024 13.1521 35.6847 12.5075 32.1555 12.5075C32.1281 12.5075 32.0961 12.5075 32.0687 12.5075H32.0595Z" fill="#6699FF"/>
<path d="M35.9043 12.8547C36.7637 12.521 36.8094 11.0581 36.9603 10.8524C38.1489 9.21126 40.4712 7.81697 43.4792 9.46269C46.9169 11.3461 46.51 16.4113 43.2277 17.6181" fill="#CEDEFF"/>
<path d="M42.0711 11.2686C40.3385 10.24 38.8025 11.3235 38.2951 12.7223C38.2128 12.9509 38.286 13.1886 38.5283 13.2617C39.918 13.6732 41.0883 14.3086 42.0071 15.2C42.1625 15.3509 42.4094 15.36 42.5648 15.2137C43.3054 14.496 43.9545 12.3886 42.0711 11.2732V11.2686Z" fill="white"/>
<path d="M43.2414 17.6411C43.0723 17.6411 42.9077 17.5451 42.83 17.3805C42.7203 17.152 42.8208 16.8777 43.0448 16.7725C44.4666 16.1005 45.3717 14.784 45.4174 13.3394C45.4586 11.9085 44.6723 10.6423 43.2551 9.86968C41.8334 9.09254 40.4346 8.91882 39.214 9.36225C37.9614 9.81939 36.9603 10.9211 36.3294 12.5531C36.238 12.7863 35.9728 12.9051 35.7397 12.8137C35.5066 12.7223 35.3877 12.4571 35.4791 12.224C36.2106 10.3405 37.3946 9.05597 38.9031 8.50739C40.3614 7.97711 42.062 8.17825 43.6986 9.07425C45.3991 10.0068 46.3866 11.6114 46.3317 13.376C46.2814 15.1634 45.1706 16.7863 43.438 17.6091C43.374 17.6411 43.31 17.6548 43.2414 17.6548V17.6411Z" fill="#6699FF"/>
<path d="M37.2937 46.2082H19.6892V46.5099H9.3166C8.17831 50.8482 9.24803 55.4973 9.31203 55.7579C10.7566 59.927 15.744 62.103 23.296 62.103C30.848 62.103 36.0549 60.2562 37.2937 55.479C37.2937 55.479 38.464 50.6699 37.2937 46.2036V46.2082Z" fill="#CEDEFF"/>
<path d="M23.2956 62.5644C15.483 62.5644 10.363 60.201 8.87731 55.9084C8.87274 55.8947 8.86817 55.881 8.8636 55.8627C8.81788 55.6616 7.70246 50.857 8.87274 46.3907C8.93674 46.1484 9.18817 46.0021 9.43046 46.0661C9.67274 46.1301 9.81903 46.3816 9.75503 46.6238C8.66703 50.7656 9.65446 55.2364 9.74588 55.6296C11.1036 59.5107 15.9127 61.6456 23.291 61.6456C31.3185 61.6456 35.7527 59.5884 36.8453 55.3598C36.8545 55.3187 37.9745 50.6101 36.8453 46.313C36.7813 46.0707 36.9276 45.8193 37.1699 45.7553C37.4122 45.6913 37.6636 45.8376 37.7276 46.0798C38.9162 50.6056 37.7779 55.3781 37.7276 55.5793C36.5116 60.2741 31.7893 62.5553 23.2865 62.5553L23.2956 62.5644Z" fill="#6699FF"/>
<path d="M23.2956 53.5084C31.0263 53.5084 37.2933 50.2398 37.2933 46.2078C37.2933 42.1758 31.0263 38.9072 23.2956 38.9072C15.5648 38.9072 9.29785 42.1758 9.29785 46.2078C9.29785 50.2398 15.5648 53.5084 23.2956 53.5084Z" fill="white"/>
<path d="M23.2957 53.9656C15.1905 53.9656 8.84082 50.5599 8.84082 46.2079C8.84082 41.8559 15.1905 38.4502 23.2957 38.4502C31.4008 38.4502 37.7505 41.8559 37.7505 46.2079C37.7505 50.5599 31.4008 53.9656 23.2957 53.9656ZM23.2957 39.3645C15.8305 39.3645 9.75511 42.4319 9.75511 46.2079C9.75511 49.9839 15.8305 53.0513 23.2957 53.0513C30.7608 53.0513 36.8362 49.9793 36.8362 46.2079C36.8362 42.4365 30.7608 39.3645 23.2957 39.3645Z" fill="#6699FF"/>
<path d="M36.0187 34.665C35.429 35.1999 33.2302 36.5119 32.5628 36.9462C31.8953 37.3805 31.2507 37.9108 30.9262 38.6376C30.7067 39.1313 30.6473 39.6982 30.7662 40.2239C30.8942 40.809 31.2507 41.353 31.7765 41.641C32.325 41.9428 32.9879 41.9382 33.6142 41.8788C34.3913 41.801 36.005 41.3805 36.7319 40.7222" fill="#CEDEFF"/>
<path d="M33.0237 42.3681C32.5391 42.3681 32.018 42.2949 31.5517 42.0389C30.9437 41.7052 30.482 41.0652 30.3174 40.3246C30.1802 39.6984 30.2442 39.0355 30.5048 38.4504C30.9071 37.5452 31.73 36.9372 32.3105 36.5624C32.4797 36.4527 32.7448 36.2881 33.0557 36.0915C33.9471 35.5384 35.2957 34.6972 35.7071 34.3224C35.8945 34.1532 36.1825 34.1669 36.3517 34.3544C36.5208 34.5418 36.5071 34.8298 36.3197 34.9989C35.8488 35.4286 34.514 36.2606 33.5357 36.8641C33.2294 37.0561 32.9688 37.2161 32.8042 37.3258C32.0225 37.8332 31.57 38.2949 31.3368 38.8206C31.154 39.2275 31.1082 39.6892 31.2042 40.1235C31.314 40.6126 31.6065 41.0286 31.986 41.2389C32.4431 41.4904 33.0374 41.4721 33.5585 41.4218C34.3402 41.3441 35.8077 40.9327 36.4157 40.3795C36.6031 40.2104 36.8911 40.2241 37.0602 40.4115C37.2294 40.5989 37.2157 40.8869 37.0282 41.0561C36.146 41.8561 34.3677 42.2584 33.6454 42.3315C33.4488 42.3498 33.234 42.3635 33.0145 42.3635L33.0237 42.3681Z" fill="#6699FF"/>
<path d="M27.6845 51.4195L33.161 46.8161C33.8285 46.2538 33.6136 45.175 32.7816 44.9098L20.041 40.9144C19.7165 40.8138 19.3645 40.8641 19.0856 41.0561L11.1953 46.4275L27.6845 51.4195Z" fill="#6699FF"/>
<path d="M27.6845 51.8767C27.6388 51.8767 27.5976 51.8721 27.5519 51.8584L11.0628 46.8664C10.8936 46.8161 10.7702 46.6744 10.7428 46.4961C10.7153 46.3224 10.793 46.1487 10.9393 46.0481L18.8296 40.6767C19.2273 40.407 19.721 40.3338 20.1782 40.4756L32.9188 44.471C33.4719 44.6447 33.8696 45.0881 33.9839 45.655C34.0982 46.2264 33.9016 46.7887 33.4582 47.159L27.9816 51.7624C27.8993 51.831 27.7942 51.8676 27.689 51.8676L27.6845 51.8767ZM12.2422 46.2676L27.5793 50.9121L32.8639 46.4687C33.0468 46.3133 33.129 46.0801 33.0833 45.8424C33.0376 45.6047 32.8685 45.4218 32.6399 45.3487L19.8993 41.3533C19.7073 41.2938 19.5016 41.3213 19.337 41.4356L12.2376 46.2676H12.2422Z" fill="#6699FF"/>
<path d="M12.0279 47.0264L27.0267 51.4195C27.8222 51.6526 28.4667 51.1315 28.4667 50.2629V39.8949C28.4667 39.0218 27.8222 38.1258 27.0267 37.8926L12.0279 33.4995C11.2325 33.2664 10.5879 33.7875 10.5879 34.6561V45.0241C10.5879 45.8972 11.2325 46.7932 12.0279 47.0264Z" fill="#6699FF"/>
<path d="M27.4011 51.9359C27.2365 51.9359 27.0673 51.9131 26.8982 51.8628L11.8993 47.4697C10.9073 47.1817 10.1348 46.1074 10.1348 45.0285V34.6605C10.1348 34.0845 10.3633 33.5817 10.7656 33.2799C11.1496 32.9919 11.6479 32.9142 12.1553 33.0651L27.1542 37.4582C28.1462 37.7462 28.9188 38.8205 28.9188 39.8994V50.2674C28.9188 50.8434 28.6902 51.3462 28.2879 51.6479C28.0319 51.8399 27.7256 51.9405 27.4011 51.9405V51.9359ZM11.6571 33.9017C11.5245 33.9017 11.4102 33.9382 11.3142 34.0114C11.1451 34.1394 11.0491 34.3725 11.0491 34.6605V45.0285C11.0491 45.7005 11.5565 46.4137 12.1599 46.5919L27.1588 50.9851C27.3919 51.0537 27.5931 51.0308 27.7439 50.9165C27.913 50.7885 28.0091 50.5554 28.0091 50.2674V39.8994C28.0091 39.2274 27.5016 38.5142 26.8982 38.3359L11.8993 33.9428C11.8125 33.9154 11.7302 33.9062 11.6571 33.9062V33.9017Z" fill="#6699FF"/>
<path d="M20.9922 43.4972C20.9419 43.159 20.7682 42.9304 20.6722 42.7475C20.6219 42.6561 20.5762 42.5647 20.5259 42.4824C20.5305 42.4824 20.5397 42.4732 20.5442 42.4687C20.9145 42.231 20.7134 41.6184 20.3385 41.3441C19.9637 41.0698 19.6757 41.1887 19.5111 41.4904C19.5019 41.5087 19.4928 41.527 19.4837 41.5452C19.2825 41.4492 19.0585 41.367 18.8208 41.303C18.5785 41.239 18.3591 41.2024 18.1579 41.1887C18.1488 41.1658 18.1397 41.143 18.1305 41.1201C17.9614 40.7315 17.6688 40.4572 17.2985 40.5304C16.9282 40.6081 16.7362 41.111 17.1065 41.5498C17.1111 41.559 17.1202 41.5635 17.1248 41.5727C17.0745 41.6321 17.0288 41.6961 16.9831 41.7601C16.8917 41.8927 16.7179 42.0252 16.6722 42.3407C16.6677 42.3818 16.6631 42.4275 16.6631 42.4687C16.6722 42.7521 16.7774 43.0035 16.9511 43.223C17.2939 43.6344 17.9065 43.9498 18.5831 44.1601C18.5922 44.1601 18.6014 44.1647 18.6151 44.1692C18.6288 44.1692 18.6379 44.1784 18.6517 44.1784C18.7111 44.1967 18.7751 44.215 18.8391 44.2332C18.9031 44.2515 18.9625 44.2652 19.0265 44.279C19.0402 44.279 19.0494 44.2835 19.0631 44.2881C19.0722 44.2881 19.0814 44.2881 19.0951 44.2927C19.7717 44.4435 20.3842 44.4572 20.7225 44.2287C20.8962 44.1052 20.9968 43.9087 21.0014 43.6298C21.0014 43.5887 20.9968 43.543 20.9877 43.4972H20.9922Z" fill="white"/>
<path d="M23.9821 3.56115C23.9821 4.45258 23.4747 5.28915 22.3456 5.28915C21.2164 5.28915 20.709 4.45715 20.709 3.56115C20.709 2.66515 21.2164 1.89258 22.3456 1.89258C23.4747 1.89258 23.9821 2.69715 23.9821 3.56115Z" fill="#6699FF"/>
<path d="M31.0856 3.56115C31.0856 4.45258 30.5782 5.28915 29.4491 5.28915C28.3199 5.28915 27.8125 4.45715 27.8125 3.56115C27.8125 2.66515 28.3199 1.89258 29.4491 1.89258C30.5782 1.89258 31.0856 2.69715 31.0856 3.56115Z" fill="#6699FF"/>
<path d="M38.1901 3.56115C38.1901 4.45258 37.6827 5.28915 36.5536 5.28915C35.4244 5.28915 34.917 4.45715 34.917 3.56115C34.917 2.66515 35.4244 1.89258 36.5536 1.89258C37.6827 1.89258 38.1901 2.69715 38.1901 3.56115Z" fill="#6699FF"/>
</g>
</svg>
