<svg width="64" height="64" viewBox="0 0 64 64" fill="none" xmlns="http://www.w3.org/2000/svg">
<path d="M57.5328 32.0033C57.5328 34.6208 54.628 36.7466 53.8619 39.1087C53.0959 41.4708 54.1428 44.9757 52.6554 47.0186C51.1679 49.0615 47.5609 49.1061 45.5052 50.6C43.4496 52.0939 42.3388 55.5029 39.8873 56.2946C37.4358 57.0862 34.6141 54.9858 31.9966 54.9858C29.3792 54.9858 26.468 57.0607 24.1059 56.2946C21.7438 55.5285 20.5245 52.0811 18.488 50.6C16.4515 49.1189 12.8317 49.0742 11.3379 47.0186C9.84399 44.9629 10.9293 41.5602 10.1313 39.1087C9.33327 36.6573 6.46045 34.6208 6.46045 32.0033C6.46045 29.3858 9.36519 27.26 10.1313 24.8979C10.8974 22.5358 9.85037 19.0309 11.3379 16.988C12.8253 14.9451 16.4323 14.9005 18.488 13.4066C20.5436 11.9127 21.6545 8.50365 24.1059 7.71203C26.5574 6.92041 29.3792 9.02076 31.9966 9.02076C34.6141 9.02076 37.5252 6.94594 39.8873 7.71203C42.2494 8.47811 43.4687 11.9255 45.5052 13.4066C47.5417 14.8877 51.1615 14.9324 52.6554 16.988C54.1492 19.0437 53.0639 22.4464 53.8619 24.8979C54.66 27.3493 57.5328 29.3858 57.5328 32.0033Z" fill="#339670"/>
<path d="M31.9968 51.149C42.5743 51.149 51.149 42.5743 51.149 31.9968C51.149 21.4194 42.5743 12.8447 31.9968 12.8447C21.4194 12.8447 12.8447 21.4194 12.8447 31.9968C12.8447 42.5743 21.4194 51.149 31.9968 51.149Z" fill="url(#paint0_linear_1433_481)"/>
<path d="M30.5731 40.4687C29.89 40.4687 29.2133 40.2069 28.6898 39.6898L22.0568 33.0568C21.0162 32.0162 21.0162 30.3372 22.0568 29.2966C23.0974 28.256 24.7828 28.256 25.817 29.2966L30.5731 34.0527L40.3024 24.3234C41.343 23.2828 43.0284 23.2828 44.0626 24.3234C45.1032 25.364 45.1032 27.0494 44.0626 28.0836L32.45 39.6962C31.9329 40.2133 31.2498 40.475 30.5667 40.475L30.5731 40.4687Z" fill="white"/>
<defs>
<linearGradient id="paint0_linear_1433_481" x1="31.9968" y1="51.149" x2="32.0032" y2="12.8511" gradientUnits="userSpaceOnUse">
<stop stop-color="#2DC495"/>
<stop offset="1" stop-color="#3EDDB0"/>
</linearGradient>
</defs>
</svg>
