<svg width="860" height="260" viewBox="0 0 860 260" fill="none" xmlns="http://www.w3.org/2000/svg">
<g clip-path="url(#clip0_1023_192)">
<path d="M30.3399 36.8601L19.3799 39.8001C17.7099 40.2501 17.1499 42.3301 18.3799 43.5501L26.3999 51.5701C27.6199 52.7901 29.6999 52.2301 30.1499 50.5701L33.0899 39.6101C33.5399 37.9401 32.0099 36.4201 30.3399 36.8601Z" fill="#FFD9F8"/>
<path d="M498.99 219.05L499.75 225.13C499.87 226.05 500.94 226.51 501.68 225.94L506.56 222.24C507.3 221.68 507.16 220.52 506.3 220.16L500.65 217.78C499.79 217.42 498.86 218.12 498.98 219.05H498.99Z" fill="#FFD9F8"/>
<path d="M389.43 160.87L383.46 162.24C382.55 162.45 382.21 163.56 382.85 164.25L387.03 168.74C387.67 169.42 388.8 169.16 389.07 168.27L390.87 162.41C391.14 161.52 390.35 160.67 389.44 160.87H389.43Z" fill="#D5C0FF"/>
<path d="M648.89 21.8597L649.32 27.9697C649.39 28.8997 650.43 29.4097 651.21 28.8897L656.29 25.4597C657.06 24.9397 656.98 23.7797 656.14 23.3697L650.63 20.6897C649.79 20.2797 648.83 20.9297 648.89 21.8597Z" fill="#D5C0FF"/>
<path d="M83.0698 186.39C84.7267 186.39 86.0698 185.047 86.0698 183.39C86.0698 181.733 84.7267 180.39 83.0698 180.39C81.413 180.39 80.0698 181.733 80.0698 183.39C80.0698 185.047 81.413 186.39 83.0698 186.39Z" fill="#DDDDDD"/>
<path d="M37.92 241.17C39.5327 241.17 40.84 239.863 40.84 238.25C40.84 236.637 39.5327 235.33 37.92 235.33C36.3073 235.33 35 236.637 35 238.25C35 239.863 36.3073 241.17 37.92 241.17Z" fill="#FFD9F8"/>
<path d="M834.85 170.12C835.402 170.12 835.85 169.672 835.85 169.12C835.85 168.568 835.402 168.12 834.85 168.12C834.298 168.12 833.85 168.568 833.85 169.12C833.85 169.672 834.298 170.12 834.85 170.12Z" fill="#DDDDDD"/>
<path d="M404.35 63C406.007 63 407.35 61.6569 407.35 60C407.35 58.3431 406.007 57 404.35 57C402.693 57 401.35 58.3431 401.35 60C401.35 61.6569 402.693 63 404.35 63Z" fill="#DFEDD6"/>
<path d="M243.12 191.39C246.616 191.39 249.45 188.556 249.45 185.06C249.45 181.565 246.616 178.73 243.12 178.73C239.624 178.73 236.79 181.565 236.79 185.06C236.79 188.556 239.624 191.39 243.12 191.39Z" fill="#DFEDD6"/>
<path d="M502.33 94.7197C503.159 94.7197 503.83 94.0482 503.83 93.2197C503.83 92.3913 503.159 91.7197 502.33 91.7197C501.502 91.7197 500.83 92.3913 500.83 93.2197C500.83 94.0482 501.502 94.7197 502.33 94.7197Z" fill="#DFEDD6"/>
<path d="M679.68 64.5C680.509 64.5 681.18 63.8284 681.18 63C681.18 62.1716 680.509 61.5 679.68 61.5C678.852 61.5 678.18 62.1716 678.18 63C678.18 63.8284 678.852 64.5 679.68 64.5Z" fill="#DFEDD6"/>
<path d="M713.46 237.5C714.288 237.5 714.96 236.828 714.96 236C714.96 235.172 714.288 234.5 713.46 234.5C712.632 234.5 711.96 235.172 711.96 236C711.96 236.828 712.632 237.5 713.46 237.5Z" fill="#DFEDD6"/>
<path d="M633.61 251.391C634.438 251.391 635.11 250.719 635.11 249.891C635.11 249.062 634.438 248.391 633.61 248.391C632.781 248.391 632.11 249.062 632.11 249.891C632.11 250.719 632.781 251.391 633.61 251.391Z" fill="#DFEDD6"/>
<path d="M322.51 33.5C323.338 33.5 324.01 32.8284 324.01 32C324.01 31.1716 323.338 30.5 322.51 30.5C321.681 30.5 321.01 31.1716 321.01 32C321.01 32.8284 321.681 33.5 322.51 33.5Z" fill="#DFEDD6"/>
<path d="M265.4 111.81C267.057 111.81 268.4 110.466 268.4 108.81C268.4 107.153 267.057 105.81 265.4 105.81C263.743 105.81 262.4 107.153 262.4 108.81C262.4 110.466 263.743 111.81 265.4 111.81Z" fill="#CAE7FF"/>
<path d="M44.9299 150.06C48.3982 150.06 51.2099 147.248 51.2099 143.78C51.2099 140.312 48.3982 137.5 44.9299 137.5C41.4616 137.5 38.6499 140.312 38.6499 143.78C38.6499 147.248 41.4616 150.06 44.9299 150.06Z" fill="#FFE1B0"/>
<path d="M349.29 236C350.947 236 352.29 234.657 352.29 233C352.29 231.343 350.947 230 349.29 230C347.633 230 346.29 231.343 346.29 233C346.29 234.657 347.633 236 349.29 236Z" fill="#CAE7FF"/>
<path d="M467.56 157.12C469.217 157.12 470.56 155.777 470.56 154.12C470.56 152.463 469.217 151.12 467.56 151.12C465.903 151.12 464.56 152.463 464.56 154.12C464.56 155.777 465.903 157.12 467.56 157.12Z" fill="#CAE7FF"/>
<path d="M103.4 54C105.057 54 106.4 52.6569 106.4 51C106.4 49.3431 105.057 48 103.4 48C101.743 48 100.4 49.3431 100.4 51C100.4 52.6569 101.743 54 103.4 54Z" fill="#CAE7FF"/>
<path d="M592.1 215.72C593.757 215.72 595.1 214.377 595.1 212.72C595.1 211.063 593.757 209.72 592.1 209.72C590.443 209.72 589.1 211.063 589.1 212.72C589.1 214.377 590.443 215.72 592.1 215.72Z" fill="#CAE7FF"/>
<path d="M231.07 44.6699C234.384 44.6699 237.07 41.9836 237.07 38.6699C237.07 35.3562 234.384 32.6699 231.07 32.6699C227.756 32.6699 225.07 35.3562 225.07 38.6699C225.07 41.9836 227.756 44.6699 231.07 44.6699Z" fill="#CAE7FF"/>
<path d="M166.98 86.56C171.967 86.56 176.01 82.5171 176.01 77.53C176.01 72.5429 171.967 68.5 166.98 68.5C161.993 68.5 157.95 72.5429 157.95 77.53C157.95 82.5171 161.993 86.56 166.98 86.56Z" fill="#EFEFEF"/>
<path d="M744.87 117.84C749.857 117.84 753.9 113.797 753.9 108.81C753.9 103.823 749.857 99.7803 744.87 99.7803C739.883 99.7803 735.84 103.823 735.84 108.81C735.84 113.797 739.883 117.84 744.87 117.84Z" fill="#EFEFEF"/>
<path d="M759.9 169.12C763.214 169.12 765.9 166.434 765.9 163.12C765.9 159.806 763.214 157.12 759.9 157.12C756.586 157.12 753.9 159.806 753.9 163.12C753.9 166.434 756.586 169.12 759.9 169.12Z" fill="#CAE7FF"/>
<path d="M811.72 212.72C813.377 212.72 814.72 211.377 814.72 209.72C814.72 208.063 813.377 206.72 811.72 206.72C810.063 206.72 808.72 208.063 808.72 209.72C808.72 211.377 810.063 212.72 811.72 212.72Z" fill="#B7B7B7"/>
<path d="M225.07 230C226.174 230 227.07 229.105 227.07 228C227.07 226.895 226.174 226 225.07 226C223.965 226 223.07 226.895 223.07 228C223.07 229.105 223.965 230 225.07 230Z" fill="#E5E5E5"/>
<path d="M512.74 37C513.845 37 514.74 36.1046 514.74 35C514.74 33.8954 513.845 33 512.74 33C511.636 33 510.74 33.8954 510.74 35C510.74 36.1046 511.636 37 512.74 37Z" fill="#D5C0FF"/>
<path d="M63.3999 133.63C64.5045 133.63 65.3999 132.734 65.3999 131.63C65.3999 130.525 64.5045 129.63 63.3999 129.63C62.2953 129.63 61.3999 130.525 61.3999 131.63C61.3999 132.734 62.2953 133.63 63.3999 133.63Z" fill="#DFEDD6"/>
<path d="M671.49 195.39C672.595 195.39 673.49 194.494 673.49 193.39C673.49 192.285 672.595 191.39 671.49 191.39C670.386 191.39 669.49 192.285 669.49 193.39C669.49 194.494 670.386 195.39 671.49 195.39Z" fill="#FFE1B0"/>
<path d="M822.29 101.5C823.395 101.5 824.29 100.605 824.29 99.5C824.29 98.3954 823.395 97.5 822.29 97.5C821.185 97.5 820.29 98.3954 820.29 99.5C820.29 100.605 821.185 101.5 822.29 101.5Z" fill="#D5C0FF"/>
<path d="M625.98 143.37C629.222 143.37 631.85 140.742 631.85 137.5C631.85 134.258 629.222 131.63 625.98 131.63C622.738 131.63 620.11 134.258 620.11 137.5C620.11 140.742 622.738 143.37 625.98 143.37Z" fill="#D5C0FF"/>
<path d="M765.9 40.6699C767.004 40.6699 767.9 39.7745 767.9 38.6699C767.9 37.5654 767.004 36.6699 765.9 36.6699C764.795 36.6699 763.9 37.5654 763.9 38.6699C763.9 39.7745 764.795 40.6699 765.9 40.6699Z" fill="#D8D8D8"/>
<path d="M130.8 214.47L135.81 217.24L140.92 214.65L139.83 220.27L143.88 224.32L138.19 225.02L135.59 230.12L133.17 224.93L127.51 224.04L131.7 220.13L130.8 214.47Z" fill="#FFE1B0"/>
<path d="M586.1 55.0898L587.45 59.7898L592.1 61.2998L588.05 64.0398V68.9298L584.19 65.9198L579.54 67.4298L581.21 62.8398L578.34 58.8798L583.23 59.0498L586.1 55.0898Z" fill="#FFE1B0"/>
<path d="M435.72 229.32L439.99 231.69L444.35 229.47L443.42 234.27L446.88 237.72L442.03 238.32L439.81 242.68L437.74 238.25L432.91 237.49L436.48 234.15L435.72 229.32Z" fill="#CAE7FF"/>
</g>
<defs>
<clipPath id="clip0_1023_192">
<rect width="860" height="260" fill="white"/>
</clipPath>
</defs>
</svg>
