<svg width="435" height="439" viewBox="0 0 435 439" fill="none" xmlns="http://www.w3.org/2000/svg">
<g clip-path="url(#clip0_847_18)">
<rect width="435" height="439" fill="white"/>
<g clip-path="url(#clip1_847_18)">
<path d="M438 0H-2V440H438V0Z" fill="url(#paint0_linear_847_18)"/>
<path d="M397.169 183.46C395.719 183.46 394.059 184.3 392.849 185.38C392.839 185.37 392.829 185.36 392.819 185.35C393.909 184.15 394.739 182.49 394.739 181.03C394.739 178.38 392.589 176.68 389.939 176.68C387.289 176.68 385.139 178.38 385.139 181.03C385.139 182.48 385.979 184.14 387.059 185.35C387.049 185.36 387.039 185.37 387.029 185.38C385.829 184.29 384.169 183.46 382.709 183.46C380.059 183.46 378.359 185.61 378.359 188.26C378.359 190.91 380.059 193.06 382.709 193.06C384.159 193.06 385.819 192.22 387.029 191.14C387.039 191.15 387.049 191.16 387.059 191.17C385.969 192.37 385.139 194.03 385.139 195.49C385.139 198.14 387.289 199.84 389.939 199.84C392.589 199.84 394.739 198.14 394.739 195.49C394.739 194.04 393.899 192.38 392.819 191.17C392.829 191.16 392.839 191.15 392.849 191.14C394.049 192.23 395.709 193.06 397.169 193.06C399.819 193.06 401.519 190.91 401.519 188.26C401.519 185.61 399.819 183.46 397.169 183.46Z" fill="#6EA484"/>
<path d="M103.061 125.84C102.461 125.84 101.771 126.19 101.271 126.64C101.271 126.64 101.271 126.64 101.261 126.63C101.711 126.13 102.061 125.44 102.061 124.84C102.061 123.74 101.171 123.04 100.071 123.04C98.9713 123.04 98.0813 123.74 98.0813 124.84C98.0813 125.44 98.4312 126.13 98.8812 126.63C98.8812 126.63 98.8813 126.63 98.8713 126.64C98.3713 126.19 97.6813 125.84 97.0813 125.84C95.9813 125.84 95.2812 126.73 95.2812 127.83C95.2812 128.93 95.9813 129.82 97.0813 129.82C97.6813 129.82 98.3713 129.47 98.8713 129.02C98.8713 129.02 98.8712 129.02 98.8812 129.03C98.4312 129.53 98.0813 130.22 98.0813 130.82C98.0813 131.92 98.9713 132.62 100.071 132.62C101.171 132.62 102.061 131.92 102.061 130.82C102.061 130.22 101.711 129.53 101.261 129.03C101.261 129.03 101.261 129.03 101.271 129.02C101.771 129.47 102.461 129.82 103.061 129.82C104.161 129.82 104.861 128.93 104.861 127.83C104.861 126.73 104.161 125.84 103.061 125.84Z" fill="#6EA484"/>
<path opacity="0.4" d="M353.379 225.26L351.169 231.76C350.549 233.57 350.549 235.54 351.169 237.35L353.379 243.85L346.879 241.64C345.069 241.02 343.099 241.02 341.289 241.64L334.789 243.85L336.999 237.35C337.619 235.54 337.619 233.57 336.999 231.76L334.789 225.26L341.289 227.47C343.099 228.09 345.069 228.09 346.879 227.47L353.379 225.26Z" fill="#6EA484"/>
<path d="M153.819 147.78L155.399 151.9C156.349 153.84 157.919 155.41 159.859 156.36L163.979 157.94C165.679 158.59 165.679 160.99 163.979 161.64L159.859 163.22C157.919 164.17 156.349 165.74 155.399 167.68L153.819 171.8C153.169 173.5 150.769 173.5 150.119 171.8L148.539 167.68C147.589 165.74 146.019 164.17 144.079 163.22L139.959 161.64C138.259 160.99 138.259 158.59 139.959 157.94L144.079 156.36C146.019 155.41 147.589 153.84 148.539 151.9L150.119 147.78C150.769 146.08 153.169 146.08 153.819 147.78Z" fill="#6EA484"/>
<path opacity="0.4" d="M15.4894 176.69C17.4942 176.69 19.1194 175.065 19.1194 173.06C19.1194 171.055 17.4942 169.43 15.4894 169.43C13.4846 169.43 11.8594 171.055 11.8594 173.06C11.8594 175.065 13.4846 176.69 15.4894 176.69Z" fill="#6EA484"/>
<path d="M293.821 191.33C295.826 191.33 297.451 189.705 297.451 187.7C297.451 185.695 295.826 184.07 293.821 184.07C291.817 184.07 290.191 185.695 290.191 187.7C290.191 189.705 291.817 191.33 293.821 191.33Z" fill="#6EA484"/>
<path d="M419.989 274.61C421.994 274.61 423.619 272.985 423.619 270.98C423.619 268.975 421.994 267.35 419.989 267.35C417.985 267.35 416.359 268.975 416.359 270.98C416.359 272.985 417.985 274.61 419.989 274.61Z" fill="#6EA484"/>
<path d="M95.7994 190.23C97.147 190.23 98.2394 189.138 98.2394 187.79C98.2394 186.442 97.147 185.35 95.7994 185.35C94.4518 185.35 93.3594 186.442 93.3594 187.79C93.3594 189.138 94.4518 190.23 95.7994 190.23Z" fill="#6EA484"/>
<path d="M143.42 251.06C144.768 251.06 145.86 249.968 145.86 248.62C145.86 247.272 144.768 246.18 143.42 246.18C142.073 246.18 140.98 247.272 140.98 248.62C140.98 249.968 142.073 251.06 143.42 251.06Z" fill="#6EA484"/>
<path d="M17.3083 270.29C19.8322 270.29 21.8783 268.244 21.8783 265.72C21.8783 263.196 19.8322 261.15 17.3083 261.15C14.7843 261.15 12.7383 263.196 12.7383 265.72C12.7383 268.244 14.7843 270.29 17.3083 270.29Z" fill="#6EA484"/>
<path d="M216.898 360.97C219.422 360.97 221.468 358.924 221.468 356.4C221.468 353.876 219.422 351.83 216.898 351.83C214.374 351.83 212.328 353.876 212.328 356.4C212.328 358.924 214.374 360.97 216.898 360.97Z" fill="#6EA484"/>
<path d="M169.979 85.93C170.962 85.93 171.759 85.1331 171.759 84.15C171.759 83.1669 170.962 82.37 169.979 82.37C168.996 82.37 168.199 83.1669 168.199 84.15C168.199 85.1331 168.996 85.93 169.979 85.93Z" fill="#6EA484"/>
<path opacity="0.4" d="M66.5586 252.73C70.3586 252.98 70.4886 256.84 70.4886 256.84C70.4886 256.84 70.6186 252.97 74.4186 252.73C70.6186 252.48 70.4886 248.62 70.4886 248.62C70.4886 248.62 70.3586 252.49 66.5586 252.73Z" fill="#6EA484"/>
<path opacity="0.4" d="M230.012 416.88C233.812 417.13 233.942 420.99 233.942 420.99C233.942 420.99 234.072 417.12 237.872 416.88C234.072 416.63 233.942 412.77 233.942 412.77C233.942 412.77 233.812 416.64 230.012 416.88Z" fill="#6EA484"/>
<path opacity="0.4" d="M427.359 217.82C431.159 218.07 431.289 221.93 431.289 221.93C431.289 221.93 431.419 218.06 435.219 217.82C431.419 217.57 431.289 213.71 431.289 213.71C431.289 213.71 431.159 217.58 427.359 217.82Z" fill="#6EA484"/>
<path d="M392.512 416.88C401.212 417.44 401.522 426.3 401.522 426.3C401.522 426.3 401.832 417.44 410.532 416.88C401.832 416.32 401.522 407.46 401.522 407.46C401.522 407.46 401.212 416.32 392.512 416.88Z" fill="#6EA484"/>
<path d="M308.262 397.11C313.562 397.45 313.752 402.85 313.752 402.85C313.752 402.85 313.942 397.46 319.242 397.11C313.942 396.77 313.752 391.37 313.752 391.37C313.752 391.37 313.562 396.76 308.262 397.11Z" fill="#6EA484"/>
<path d="M390.672 41.18C395.912 41.52 396.102 46.86 396.102 46.86C396.102 46.86 396.282 41.52 401.532 41.18C396.292 40.84 396.102 35.5 396.102 35.5C396.102 35.5 395.922 40.84 390.672 41.18Z" fill="#6EA484"/>
<path d="M11.8789 35.51C17.1189 35.85 17.3089 41.19 17.3089 41.19C17.3089 41.19 17.4889 35.85 22.7389 35.51C17.4989 35.17 17.3089 29.83 17.3089 29.83C17.3089 29.83 17.1289 35.17 11.8789 35.51Z" fill="#6EA484"/>
<path d="M56.4202 209.07C58.1002 207.39 58.2202 204.74 56.7902 202.92C58.2202 201.1 58.1002 198.45 56.4202 196.77C54.7402 195.09 52.0902 194.97 50.2702 196.4C48.4502 194.97 45.8002 195.09 44.1202 196.77C42.4402 198.45 42.3202 201.1 43.7502 202.92C42.3202 204.74 42.4402 207.39 44.1202 209.07C45.8002 210.75 48.4502 210.87 50.2702 209.44C52.0902 210.87 54.7402 210.75 56.4202 209.07Z" fill="#6EA484"/>
<path d="M322.791 99.84C323.761 98.87 323.831 97.33 323.001 96.28C323.831 95.22 323.761 93.69 322.791 92.72C321.821 91.75 320.281 91.68 319.231 92.51C318.171 91.68 316.641 91.75 315.671 92.72C314.701 93.69 314.631 95.23 315.461 96.28C314.631 97.34 314.701 98.87 315.671 99.84C316.641 100.81 318.181 100.88 319.231 100.05C320.291 100.88 321.821 100.81 322.791 99.84Z" fill="#6EA484"/>
<path d="M32.3502 415.62C32.3502 413.94 31.0002 412.57 29.3302 412.53C30.4902 411.32 30.4802 409.4 29.2902 408.21C28.1002 407.02 26.1802 407.01 24.9702 408.17C24.9402 406.49 23.5702 405.15 21.8802 405.15C20.1902 405.15 18.8302 406.5 18.7902 408.17C17.5802 407.01 15.6602 407.02 14.4702 408.21C13.2802 409.4 13.2702 411.32 14.4302 412.53C12.7502 412.56 11.4102 413.93 11.4102 415.62C11.4102 417.31 12.7602 418.67 14.4302 418.71C13.2702 419.92 13.2802 421.84 14.4702 423.03C15.6602 424.22 17.5802 424.23 18.7902 423.07C18.8202 424.75 20.1902 426.09 21.8802 426.09C23.5702 426.09 24.9302 424.74 24.9702 423.07C26.1802 424.23 28.1002 424.22 29.2902 423.03C30.4802 421.84 30.4902 419.92 29.3302 418.71C31.0102 418.68 32.3502 417.31 32.3502 415.62Z" fill="#6EA484"/>
<path d="M213.77 35.51C213.77 27.58 220.2 21.15 228.13 21.15C236.06 21.15 242.49 27.58 242.49 35.51H213.77Z" fill="#6EA484"/>
<path d="M352.13 318.31C357.74 323.92 357.74 333.01 352.13 338.62C346.52 344.23 337.43 344.23 331.82 338.62L352.13 318.31Z" fill="#6EA484"/>
<path d="M328.971 152.87L334.081 147.76C338.161 151.84 344.811 151.84 348.891 147.76C352.971 143.68 352.971 137.03 348.891 132.95L354.001 127.84C357.341 131.18 359.191 135.63 359.191 140.36C359.191 145.09 357.351 149.53 354.001 152.88C350.661 156.22 346.211 158.07 341.481 158.07C336.751 158.07 332.311 156.23 328.961 152.88L328.971 152.87Z" fill="#6EA484"/>
<path d="M39.8492 116.1C41.4508 116.1 42.7492 114.802 42.7492 113.2C42.7492 111.598 41.4508 110.3 39.8492 110.3C38.2476 110.3 36.9492 111.598 36.9492 113.2C36.9492 114.802 38.2476 116.1 39.8492 116.1Z" fill="#6EA484"/>
<path d="M115.752 52.66C117.353 52.66 118.652 51.3616 118.652 49.76C118.652 48.1584 117.353 46.86 115.752 46.86C114.15 46.86 112.852 48.1584 112.852 49.76C112.852 51.3616 114.15 52.66 115.752 52.66Z" fill="#6EA484"/>
<path d="M249.9 126.04C251.502 126.04 252.8 124.742 252.8 123.14C252.8 121.538 251.502 120.24 249.9 120.24C248.298 120.24 247 121.538 247 123.14C247 124.742 248.298 126.04 249.9 126.04Z" fill="#6EA484"/>
<path d="M120.101 407.45C121.371 407.45 122.401 406.42 122.401 405.15C122.401 403.88 121.371 402.85 120.101 402.85C118.831 402.85 117.801 403.88 117.801 405.15C117.801 406.42 118.831 407.45 120.101 407.45Z" fill="#6EA484"/>
<path d="M416.36 117.55C417.161 117.55 417.81 116.901 417.81 116.1C417.81 115.299 417.161 114.65 416.36 114.65C415.559 114.65 414.91 115.299 414.91 116.1C414.91 116.901 415.559 117.55 416.36 117.55Z" fill="#6EA484"/>
<path opacity="0.4" d="M323.93 46.86C324.731 46.86 325.38 46.2108 325.38 45.41C325.38 44.6092 324.731 43.96 323.93 43.96C323.13 43.96 322.48 44.6092 322.48 45.41C322.48 46.2108 323.13 46.86 323.93 46.86Z" fill="#6EA484"/>
<path opacity="0.4" d="M262.77 314.49C263.571 314.49 264.22 313.841 264.22 313.04C264.22 312.239 263.571 311.59 262.77 311.59C261.969 311.59 261.32 312.239 261.32 313.04C261.32 313.841 261.969 314.49 262.77 314.49Z" fill="#6EA484"/>
<path opacity="0.4" d="M304.341 262.49C305.141 262.49 305.791 261.841 305.791 261.04C305.791 260.239 305.141 259.59 304.341 259.59C303.54 259.59 302.891 260.239 302.891 261.04C302.891 261.841 303.54 262.49 304.341 262.49Z" fill="#6EA484"/>
<path opacity="0.4" d="M59.2313 359.3C60.0321 359.3 60.6813 358.651 60.6813 357.85C60.6813 357.049 60.0321 356.4 59.2313 356.4C58.4304 356.4 57.7812 357.049 57.7812 357.85C57.7812 358.651 58.4304 359.3 59.2313 359.3Z" fill="#6EA484"/>
<path opacity="0.2" d="M201.009 302.15C201.809 302.15 202.459 301.501 202.459 300.7C202.459 299.899 201.809 299.25 201.009 299.25C200.208 299.25 199.559 299.899 199.559 300.7C199.559 301.501 200.208 302.15 201.009 302.15Z" fill="#6EA484"/>
<path opacity="0.2" d="M401.52 327.26C407.518 327.26 412.38 322.398 412.38 316.4C412.38 310.402 407.518 305.54 401.52 305.54C395.522 305.54 390.66 310.402 390.66 316.4C390.66 322.398 395.522 327.26 401.52 327.26Z" fill="#6EA484"/>
<path opacity="0.4" d="M21.8719 320.44C22.6727 320.44 23.3219 319.791 23.3219 318.99C23.3219 318.189 22.6727 317.54 21.8719 317.54C21.0711 317.54 20.4219 318.189 20.4219 318.99C20.4219 319.791 21.0711 320.44 21.8719 320.44Z" fill="#6EA484"/>
<path d="M134.329 291.68C131.699 290.6 128.659 291.26 125.929 293.18C125.279 292.54 124.519 292.03 123.659 291.68C121.029 290.6 117.989 291.26 115.259 293.18C114.609 292.54 113.849 292.03 112.989 291.68C110.359 290.6 107.319 291.26 104.589 293.18C103.939 292.54 103.179 292.03 102.319 291.68C97.2588 289.61 90.7088 293.93 87.6888 301.33C84.6688 308.73 86.3088 316.4 91.3688 318.47C93.9988 319.55 97.0388 318.89 99.7688 316.97C100.419 317.61 101.179 318.12 102.039 318.47C104.669 319.55 107.709 318.89 110.439 316.97C111.089 317.61 111.849 318.12 112.709 318.47C115.339 319.55 118.379 318.89 121.109 316.97C121.759 317.61 122.519 318.12 123.379 318.47C128.439 320.54 134.989 316.22 138.009 308.82C141.029 301.42 139.389 293.75 134.329 291.68Z" fill="#6EA484"/>
</g>
</g>
<defs>
<linearGradient id="paint0_linear_847_18" x1="218" y1="440" x2="218" y2="0" gradientUnits="userSpaceOnUse">
<stop stop-color="#9BF0DD"/>
<stop offset="1" stop-color="#C3F0D5"/>
</linearGradient>
<clipPath id="clip0_847_18">
<rect width="435" height="439" fill="white"/>
</clipPath>
<clipPath id="clip1_847_18">
<rect width="440" height="440" fill="white" transform="translate(-2)"/>
</clipPath>
</defs>
</svg>
