<?xml version="1.0" encoding="UTF-8"?>
<svg xmlns="http://www.w3.org/2000/svg" version="1.1" xmlns:xlink="http://www.w3.org/1999/xlink" viewBox="0 0 462.7 54">
  <defs>
    <style>
      .cls-1 {
        fill: url(#_무제_그라디언트_2);
      }
    </style>
    <linearGradient id="_무제_그라디언트_2" data-name="무제 그라디언트 2" x1="231.3" y1="55.9" x2="231.3" y2="2" gradientTransform="translate(0 56) scale(1 -1)" gradientUnits="userSpaceOnUse">
      <stop offset="0" stop-color="#9823c9"/>
      <stop offset="1" stop-color="#7a15af"/>
    </linearGradient>
  </defs>
  <!-- Generator: Adobe Illustrator 28.6.0, SVG Export Plug-In . SVG Version: 1.2.0 Build 709)  -->
  <g>
    <g id="_레이어_1" data-name="레이어_1">
      <g id="_레이어_1-2" data-name="_레이어_1">
        <path class="cls-1" d="M9.3,27.4c-2.9,1.4-6,2.1-9.3,2.1v-10c2.7,0,5-.9,6.9-2.7,1.9-1.7,3.2-3.7,3.9-5.8H.6V1.5h31.4v7.1h4.4V1.1h10.9v28.9h-10.9v-11.7h-5.7v-7.3h-8.8c-.2.9-.4,1.7-.5,2.3l12.5,7.2-5.2,8.5-11.7-7.2c-2.2,2.3-4.8,4.2-7.7,5.6ZM47.9,42c0,4.1-2.1,7-6.2,8.9-4.1,1.8-9.7,2.7-16.7,2.7s-12.5-.9-16.6-2.7c-4.1-1.8-6.2-4.8-6.2-8.9s2.1-7,6.2-8.9c4.1-1.8,9.6-2.7,16.6-2.7s12.6.9,16.7,2.7c4.1,1.8,6.2,4.8,6.2,8.9ZM36.1,42c0-.9-1-1.5-3.1-2-2.1-.4-4.7-.7-8-.7s-5.9.2-7.9.7c-2,.4-3,1.1-3,2s1,1.6,3,2,4.6.6,7.9.6,6-.2,8-.6c2-.4,3.1-1.1,3.1-2ZM83,40.4h19.4v10.8h-49.9v-10.8h19.5v-6.1c-3.5-.5-6.7-1.5-9.3-3.1-2.7-1.5-4.7-3.5-6.2-5.8-1.5-2.3-2.2-4.9-2.2-7.7s1-6.2,2.9-8.7c2-2.5,4.7-4.5,8.2-6,3.5-1.4,7.6-2.2,12.1-2.2s8.6.7,12.1,2.2c3.5,1.4,6.3,3.4,8.2,6,2,2.5,2.9,5.4,2.9,8.7s-.7,5.4-2.2,7.7c-1.5,2.3-3.5,4.2-6.2,5.8-2.7,1.5-5.8,2.6-9.3,3.1v6.1ZM77.5,24.3c3.4,0,6.2-.6,8.4-1.9,2.2-1.2,3.2-2.8,3.2-4.7s-1.1-3.5-3.2-4.7c-2.2-1.2-4.9-1.8-8.4-1.8s-6.2.6-8.4,1.8c-2.2,1.2-3.2,2.8-3.2,4.7s1.1,3.5,3.2,4.7c2.2,1.2,4.9,1.9,8.4,1.9ZM152.5,1.1h-10.9v26.7h10.9v-8.3h5.5v-11h-5.5V1.1ZM135,26.7c2-.3,3.5-.7,4.7-1.2v-9.1c-1.2.4-2.7.8-4.5,1.1-1.8.3-3.7.4-5.6.4h-11.9v-7h19.4V1.5h-30.4v25.7h22.4c1.9,0,3.9-.2,5.8-.5h.1ZM141.8,29.5h10.7v23.5h-44.1v-23.5h10.8v2.7h22.6v-2.7ZM141.8,41.1h-22.6v2.9h22.6v-2.9ZM210,26.3h10.7V1.1h-10.7v2.8h-4.8v9.3h4.8v2.1h-6.8v9.2h6.8v1.8ZM187,43.9h33.7v-16h-44.7v7.9h34v1.2h-33.9v16h45v-7.9h-34.1v-1.2ZM202.9,8.6V1.5h-29.4v9.2h18.3v.3c0,1.2-.8,2.2-2.4,3.2-1.6.9-3.8,1.7-6.5,2.3-2.8.6-5.9.9-9.4.9v9.2c8.9,0,16.1-1.4,21.4-4.2,5.3-2.8,8-7.4,8-13.8h0ZM272.7,1.1h-10.9v51.7h10.9v-22.8h5.3v-11.2h-5.3V1.1ZM245.6,34.6h11V2.4h-29.3v10.7h18.3v21.5ZM247.6,39.8h-5.2v-17.7h-11v17.7h-5.5v10.8h21.5c2.2,0,4.5-.2,6.6-.5,2.2-.3,4-.8,5.4-1.4v-10.8c-1.4.6-3.2,1.1-5.3,1.4-2.2.3-4.3.5-6.4.5h-.1ZM340.7,1.1h-11v27.7h11V1.1ZM324.8,26.2h-30.9V1.5h30.9v24.7ZM314.1,10.8h-9.2v6.1h9.2s0-6.1,0-6.1ZM324.4,40h16.1v-9.2h-16.7v-3h-11.1v3h-16.6v9.2h16.3c-3,2.4-8.6,3.6-16.8,3.6v9.4c9.7,0,17.1-1.6,22.2-4.8l21.7,5.4,2.8-9.2-18.3-3.6s.4-.8.4-.8ZM362.9,31h44.6v22h-44.6v-22ZM373.9,43.6h22.7v-3.2h-22.7v3.2ZM396.6,8.5h-4.4V1.5h-31.4v9.5h10.2c-.7,2.2-2,4.1-3.9,5.8-1.9,1.7-4.2,2.6-6.9,2.7v10c3.3,0,6.4-.7,9.3-2.1s5.5-3.3,7.7-5.6l11.7,7.2,5.2-8.5-12.5-7.2c.2-.6.4-1.4.5-2.3h8.8v7.3h5.7v11.2h10.9V1.1h-10.9v7.5h0ZM437.3,18.4l20.3,10.8,5.1-9.6-20.1-9.9c1.1-2.6,1.8-5.3,2.2-7.9L433.6,0c-.4,3.6-1.6,6.8-3.6,9.5-1.9,2.8-4.3,4.9-7.2,6.4-2.9,1.5-5.9,2.3-9,2.3v10.9c4.6,0,8.9-1,13-2.9s7.6-4.6,10.5-8v.2ZM412.6,43.3h19.4v10.7h11.2v-10.7h19.3v-10.7h-49.9v10.7Z"/>
      </g>
    </g>
  </g>
</svg>