<svg width="32" height="33" viewBox="0 0 32 33" fill="none" xmlns="http://www.w3.org/2000/svg">
<path d="M19.727 16.5L23.5934 12.6336C24.6212 11.6059 24.6212 9.93433 23.5934 8.90657C22.5656 7.8788 20.8941 7.8788 19.8663 8.90657L16 12.7729L12.1336 8.90657C11.1059 7.8788 9.43433 7.8788 8.40657 8.90657C7.3788 9.93433 7.3788 11.6059 8.40657 12.6336L12.2729 16.5L8.40657 20.3663C7.3788 21.3941 7.3788 23.0656 8.40657 24.0934C8.92233 24.6092 9.59621 24.8652 10.2701 24.8652C10.944 24.8652 11.6179 24.6092 12.1336 24.0934L16 20.227L19.8663 24.0934C20.3821 24.6092 21.056 24.8652 21.7299 24.8652C22.4037 24.8652 23.0776 24.6092 23.5934 24.0934C24.6212 23.0656 24.6212 21.3941 23.5934 20.3663L19.727 16.5Z" fill="#FF7D5A"/>
</svg>
