<svg width="48" height="48" viewBox="0 0 48 48" fill="none" xmlns="http://www.w3.org/2000/svg">
<g clip-path="url(#clip0_596_2307)">
<path d="M24.0001 35.0704C30.1141 35.0704 35.0704 30.1141 35.0704 24.0001C35.0704 17.8861 30.1141 12.9297 24.0001 12.9297C17.8861 12.9297 12.9297 17.8861 12.9297 24.0001C12.9297 30.1141 17.8861 35.0704 24.0001 35.0704Z" fill="white"/>
<path d="M32.6289 18.9808C32.4889 18.7371 32.1726 18.649 31.9237 18.7942L25.8778 22.3149C25.6186 22.4653 25.3074 22.4394 25.0534 22.2786C24.6645 22.0401 24.1874 21.9312 23.6845 22.009C22.8186 22.1438 22.1186 22.8594 22.0045 23.7253C21.8437 24.9438 22.7719 25.9808 23.9489 26.0171C24.4571 26.0327 24.9341 25.7994 25.2919 25.4416C25.883 24.8505 26.0386 24.3631 26.0178 23.9275C26.0023 23.632 26.1423 23.352 26.3963 23.2068L32.4371 19.686C32.6808 19.546 32.7689 19.2297 32.6237 18.9808H32.6289Z" fill="#0F9CFE"/>
<path d="M23.3569 10.4148H24.6429C24.7051 10.4148 24.7518 10.4615 24.7518 10.5237V15.46C24.7518 15.8748 24.4147 16.2118 23.9999 16.2118C23.5851 16.2118 23.248 15.8748 23.248 15.46V10.5237C23.248 10.4615 23.2947 10.4148 23.3569 10.4148Z" fill="#9DB4C2"/>
<path d="M13.1774 15.7596L14.004 14.7745C14.044 14.7269 14.1097 14.7211 14.1574 14.7611L17.9388 17.9341C18.2566 18.2007 18.2981 18.6756 18.0315 18.9933C17.7649 19.3111 17.29 19.3526 16.9723 19.086L13.1908 15.913C13.1432 15.873 13.1374 15.8073 13.1774 15.7596Z" fill="#9DB4C2"/>
<path d="M10.737 26.9936L10.5137 25.7272C10.5028 25.6659 10.5407 25.6119 10.602 25.6011L15.4633 24.7439C15.8718 24.6719 16.2622 24.9452 16.3343 25.3538C16.4063 25.7623 16.1329 26.1527 15.7244 26.2247L10.8631 27.0819C10.8018 27.0927 10.7478 27.0549 10.737 26.9936Z" fill="#9DB4C2"/>
<path d="M36.9862 28.0366L36.5464 29.245C36.5251 29.3035 36.4653 29.3314 36.4068 29.3101L31.7682 27.6218C31.3784 27.4799 31.177 27.0479 31.3189 26.6581C31.4607 26.2683 31.8927 26.0669 32.2825 26.2088L36.9211 27.8971C36.9796 27.9184 37.0075 27.9782 36.9862 28.0366Z" fill="#9DB4C2"/>
<path d="M36.6525 18.006C38.4569 16.1601 38.4465 13.2045 36.6162 11.3793C34.7858 9.54895 31.8302 9.53858 29.9895 11.343C28.1747 10.4823 26.1421 9.99487 23.9954 9.99487C21.8488 9.99487 19.8213 10.4771 18.0013 11.343C16.1554 9.53858 13.1999 9.54895 11.3747 11.3793C9.54431 13.2097 9.53394 16.1652 11.3384 18.006C10.4776 19.8208 9.99023 21.8534 9.99023 24.0001C9.99023 31.7312 16.2591 38.0001 23.9902 38.0001C31.7213 38.0001 37.9902 31.7312 37.9902 24.0001C37.9902 21.8534 37.508 19.826 36.6421 18.006H36.6525ZM24.0006 35.0704C17.8873 35.0704 12.9302 30.1134 12.9302 24.0001C12.9302 17.8867 17.8873 12.9297 24.0006 12.9297C30.1139 12.9297 35.071 17.8867 35.071 24.0001C35.071 30.1134 30.1139 35.0704 24.0006 35.0704Z" fill="#404548"/>
</g>
<defs>
<clipPath id="clip0_596_2307">
<rect width="28" height="28" fill="white" transform="translate(10 10)"/>
</clipPath>
</defs>
</svg>
