<svg width="34" height="34" viewBox="0 0 34 34" fill="none" xmlns="http://www.w3.org/2000/svg">
<path d="M17.001 21.0722C19.601 21.0722 21.709 18.9642 21.709 16.3642V8.76415C21.709 6.16415 19.601 4.05615 17.001 4.05615C14.401 4.05615 12.293 6.16415 12.293 8.76415V16.3642C12.293 18.9642 14.401 21.0722 17.001 21.0722Z" fill="#413434"/>
<path d="M23.8595 11.7158C23.1955 11.7158 22.6595 12.2518 22.6595 12.9158V16.6398C22.6595 19.7598 20.1195 22.2998 16.9995 22.2998C13.8795 22.2998 11.3395 19.7598 11.3395 16.6398V12.9158C11.3395 12.2518 10.8035 11.7158 10.1395 11.7158C9.47545 11.7158 8.93945 12.2518 8.93945 12.9158V16.6398C8.93945 20.6758 11.9235 24.0158 15.7995 24.5998V27.1198H14.0715C13.2915 27.1198 12.6595 27.7518 12.6595 28.5318C12.6595 29.3118 13.2915 29.9438 14.0715 29.9438H19.9235C20.7035 29.9438 21.3355 29.3118 21.3355 28.5318C21.3355 27.7518 20.7035 27.1198 19.9235 27.1198H18.1955V24.5998C22.0715 24.0158 25.0555 20.6758 25.0555 16.6398V12.9158C25.0555 12.2518 24.5195 11.7158 23.8555 11.7158H23.8595Z" fill="#413434"/>
</svg>
