<svg width="371" height="54" viewBox="0 0 371 54" fill="none" xmlns="http://www.w3.org/2000/svg">
<path d="M13.7536 42.3618H38.8076V53.6666H0V0.333387H13.7536V42.3618ZM56.2862 0.333387V53.6666H42.5326V0.333387H56.2862ZM93.0994 20.8821C101.869 20.8821 106.256 24.8308 106.256 32.7195V42.1626C106.256 50.0556 101.869 54 93.0994 54H75.292C66.5224 54 62.1355 50.0556 62.1355 42.1626V36.0447H75.5602V40.3658C75.5602 42.141 76.4471 43.0242 78.2166 43.0242H90.1791C91.9485 43.0242 92.8354 42.1366 92.8354 40.3658V34.183C92.8354 32.4121 91.9485 31.5245 90.1791 31.5245H75.292C66.5224 31.5245 62.1355 27.5802 62.1355 19.6871V11.8417C62.1355 3.94869 66.5224 0.0043297 75.292 0.0043297H93.0994C101.869 0.0043297 106.256 3.94869 106.256 11.8417V16.297H92.8311V13.6386C92.8311 11.8677 91.9442 10.9801 90.1747 10.9801H78.2123C76.4385 10.9801 75.5559 11.8677 75.5559 13.6386V18.228C75.5559 20.0032 76.4428 20.8865 78.2123 20.8865H93.0994V20.8821ZM157.623 0.333387V11.6382H140.677V53.6666H126.923V11.6382H110.777V0.333387H157.627H157.623ZM175.898 42.6952H202.28V53.6666H162.144V0.333387H202.28V11.3048H175.898V20.8129H201.614V31.4553H175.898V42.6952ZM222.216 0.333387L238.033 33.1871V0.333387H251.458V53.6666H236.441L220.758 21.0813V53.6666H207.333V0.333387H222.22H222.216ZM271.056 0.333387V53.6666H257.303V0.333387H271.056ZM291.788 0.333387L307.606 33.1871V0.333387H321.03V53.6666H306.013L290.33 21.0813V53.6666H276.906V0.333387H291.793H291.788ZM371 54H357.908V52.2032C356.048 53.3549 353.699 53.9524 350.865 54H340.032C331.258 54 326.875 50.0556 326.875 42.1626V11.8374C326.875 3.94436 331.262 0 340.032 0H357.839C366.613 0 370.996 3.94436 370.996 11.8374V17.2235H357.571V13.3008C357.571 11.53 356.684 10.6424 354.914 10.6424H342.952C341.178 10.6424 340.296 11.53 340.296 13.3008V40.6992C340.296 42.4743 341.183 43.3576 342.952 43.3576H355.248C356.71 43.3576 357.597 42.9593 357.904 42.1626V33.9145H349.199V23.2721H370.996V53.9957L371 54Z" fill="url(#paint0_linear_780_27)"/>
<defs>
<linearGradient id="paint0_linear_780_27" x1="185.498" y1="54" x2="185.498" y2="0" gradientUnits="userSpaceOnUse">
<stop stop-color="#006EDB"/>
<stop offset="1" stop-color="#0F9CFE"/>
</linearGradient>
</defs>
</svg>
