<svg width="500" height="500" viewBox="0 0 500 500" fill="none" xmlns="http://www.w3.org/2000/svg">
<path d="M432.193 329.918C462.44 329.918 486.961 305.397 486.961 275.15C486.961 244.903 462.44 220.383 432.193 220.383C401.946 220.383 377.426 244.903 377.426 275.15C377.426 305.397 401.946 329.918 432.193 329.918Z" fill="#FFD8A9"/>
<path d="M395.464 243.554C416.281 243.554 433.156 226.679 433.156 205.863C433.156 185.047 416.281 168.172 395.464 168.172C374.648 168.172 357.773 185.047 357.773 205.863C357.773 226.679 374.648 243.554 395.464 243.554Z" fill="#FFD8A9"/>
<path d="M143.372 134.236C153.519 134.236 161.744 126.011 161.744 115.864C161.744 105.718 153.519 97.4922 143.372 97.4922C133.225 97.4922 125 105.718 125 115.864C125 126.011 133.225 134.236 143.372 134.236Z" fill="#FFD8A9"/>
<path d="M60.5642 304.486C76.8575 304.486 90.0658 291.277 90.0658 274.984C90.0658 258.691 76.8575 245.482 60.5642 245.482C44.2708 245.482 31.0625 258.691 31.0625 274.984C31.0625 291.277 44.2708 304.486 60.5642 304.486Z" fill="#FFD8A9"/>
<path d="M106.347 287.891C126.796 287.891 143.373 271.314 143.373 250.864C143.373 230.415 126.796 213.838 106.347 213.838C85.8977 213.838 69.3203 230.415 69.3203 250.864C69.3203 271.314 85.8977 287.891 106.347 287.891Z" fill="#FFD8A9"/>
<path d="M67.4767 205.864C71.2932 205.864 74.387 202.77 74.387 198.953C74.387 195.137 71.2932 192.043 67.4767 192.043C63.6603 192.043 60.5664 195.137 60.5664 198.953C60.5664 202.77 63.6603 205.864 67.4767 205.864Z" fill="#FFD8A9"/>
<path d="M383.905 142.724C386.364 142.724 388.357 140.731 388.357 138.272C388.357 135.813 386.364 133.82 383.905 133.82C381.446 133.82 379.453 135.813 379.453 138.272C379.453 140.731 381.446 142.724 383.905 142.724Z" fill="#FFD8A9"/>
<path d="M108.922 408.555C112.738 408.555 115.832 405.461 115.832 401.645C115.832 397.828 112.738 394.734 108.922 394.734C105.106 394.734 102.012 397.828 102.012 401.645C102.012 405.461 105.106 408.555 108.922 408.555Z" fill="#FFD8A9"/>
<path d="M356.793 385.316C359.334 385.316 361.394 383.256 361.394 380.715C361.394 378.173 359.334 376.113 356.793 376.113C354.251 376.113 352.191 378.173 352.191 380.715C352.191 383.256 354.251 385.316 356.793 385.316Z" fill="#FFD8A9"/>
<path d="M250 401.644C166.379 401.644 98.3555 333.621 98.3555 250C98.3555 166.379 166.379 98.3555 250 98.3555C333.621 98.3555 401.644 166.395 401.644 250C401.644 333.605 333.621 401.644 250 401.644Z" fill="white"/>
<path d="M250 388.355C173.704 388.355 111.645 326.279 111.645 250C111.645 173.721 173.721 111.645 250 111.645C326.279 111.645 388.355 173.721 388.355 250C388.355 326.279 326.279 388.355 250 388.355Z" fill="#FFD8A9"/>
<path d="M249.998 121.611C179.084 121.611 121.609 179.103 121.609 250C121.609 320.897 179.101 378.389 249.998 378.389C320.895 378.389 378.387 320.897 378.387 250C378.387 179.103 320.895 121.611 249.998 121.611Z" fill="#FFD8A9"/>
<path d="M460.397 262.26V261.844C460.58 256.994 458.952 252.559 455.829 249.353C452.706 246.147 448.337 244.369 443.487 244.369H423.204C413.404 244.369 406.277 251.545 406.277 261.412V261.861L407.125 274.452C404.799 272.708 402.257 271.23 399.5 270.1C395.364 268.406 390.812 267.542 386.012 267.542C383.537 267.542 380.912 267.824 378.221 268.373C375.663 268.904 373.105 269.735 370.613 270.848C368.404 269.834 365.895 269.286 363.221 269.286H347.939C347.307 269.286 346.676 269.319 346.061 269.369C346.311 267.874 346.46 266.346 346.46 264.784C346.46 257.658 343.836 251.28 338.869 246.296C338.786 246.213 338.686 246.13 338.586 246.047C341.078 244.303 343.404 242.343 345.497 240.133C350.048 235.349 353.57 229.569 355.995 222.941C358.271 216.695 359.533 209.768 359.733 202.293L360.862 152.143C360.862 142.26 353.753 135.1 343.935 135.1H328.653C323.669 135.1 319.201 136.944 316.078 140.283C314.317 142.16 313.071 144.436 312.374 146.927C311.743 144.585 310.613 142.459 309.018 140.632C307.208 138.572 303.138 135.1 296.095 135.1H281.693C279.55 135.1 277.523 135.466 275.646 136.113C273.204 134.569 270.297 133.588 267.042 133.373C265.779 133.289 264.517 133.24 263.271 133.24C258.005 133.24 252.889 134.004 248.088 135.515C247.291 135.765 246.51 136.047 245.746 136.329C243.836 135.515 241.477 134.967 238.603 134.967H238.487V128.588C238.487 123.755 236.693 119.286 233.387 115.981C230.115 112.708 225.646 110.914 220.779 110.914L152.789 111.047C147.955 111.047 143.47 112.858 140.214 116.113C136.925 119.386 135.115 123.871 135.115 128.705V138.971C135.115 143.821 136.925 148.306 140.181 151.545C143.453 154.834 147.939 156.628 152.706 156.628L162.623 156.678L163.537 214.353C163.603 224.153 170.746 231.263 180.58 231.263H192.855C200.563 231.263 206.593 226.894 208.885 220.299C211.178 226.894 217.224 231.263 224.915 231.263H237.191C247.008 231.263 254.151 224.187 254.234 214.402L254.949 180.814C255.081 180.748 255.214 180.682 255.364 180.615C256.46 180.133 257.756 179.818 259.201 179.668C259.799 179.602 260.38 179.585 260.945 179.585C261.875 179.585 262.789 179.668 263.653 179.834H263.802C264.168 184.569 264.849 189.386 265.912 194.27C267.374 200.981 270.214 206.778 274.367 211.562C274.101 211.911 273.852 212.26 273.603 212.625L269.6 218.622C266.726 222.924 265.895 227.874 267.307 232.642C268.271 235.798 270.131 238.672 272.606 240.864C277.241 245.067 282.606 248.422 288.537 250.831C291.211 251.927 293.985 252.775 296.809 253.422C295.164 256.878 294.284 260.682 294.284 264.751C294.284 266.313 294.417 267.841 294.666 269.336C294.085 269.286 293.503 269.253 292.922 269.253H277.64C274.832 269.253 272.191 269.834 269.865 270.931C268.337 270.299 266.743 269.751 265.081 269.286C261.975 268.422 258.736 267.99 255.463 267.99H254.816C248.636 267.99 242.706 269.153 237.174 271.462C232.274 273.522 227.872 276.346 224.035 279.868C221.676 273.456 215.746 269.236 208.238 269.236H192.955C190.181 269.236 187.573 269.801 185.264 270.881C180.679 268.954 175.48 267.99 169.782 267.99C163.503 267.99 157.556 269.037 152.108 271.113C147.257 272.941 142.939 275.565 139.168 278.804C136.56 273.007 130.895 269.236 123.819 269.236H108.537C105.729 269.236 103.088 269.818 100.762 270.914C99.2342 270.283 97.6395 269.735 95.9784 269.27C92.8721 268.406 89.6329 267.974 86.3605 267.974H85.7126C79.5332 267.974 73.603 269.137 68.0714 271.446C62.3073 273.854 57.2243 277.326 52.9718 281.761C48.7525 286.147 45.4136 291.479 43.0382 297.608C40.696 303.638 39.5 310.349 39.5 317.575C39.5 324.801 40.696 331.529 43.0382 337.525C45.4136 343.605 48.7525 348.904 52.9551 353.273C57.2409 357.741 62.3571 361.196 68.1711 363.572C73.8522 365.881 79.9651 367.06 86.3439 367.06C92.0249 367.06 97.3571 365.964 102.224 363.788C104.483 364.851 107.075 365.432 109.882 365.432H122.158C125.447 365.432 128.437 364.618 130.962 363.19C131.028 364.369 131.244 365.565 131.593 366.728C132.54 369.901 134.417 372.791 136.909 375.017C141.543 379.22 146.909 382.559 152.839 384.984C158.786 387.409 165.115 388.738 171.759 388.971C172.374 388.971 172.972 388.987 173.553 388.987C180.58 388.987 187.125 387.808 193.022 385.449C199.5 382.858 205.131 379.103 209.749 374.253C214.301 369.469 217.839 363.688 220.248 357.044C220.762 355.648 221.211 354.22 221.61 352.758C221.759 352.907 221.875 353.09 222.025 353.24C226.311 357.708 231.427 361.163 237.241 363.539C242.922 365.848 249.035 367.027 255.414 367.027C261.111 367.027 266.427 365.931 271.294 363.755C273.553 364.818 276.145 365.399 278.952 365.399H291.228C295.796 365.399 299.782 363.854 302.756 361.213C305.729 363.838 309.699 365.399 314.284 365.399H326.56C331.095 365.399 335.065 363.871 338.022 361.28C340.978 363.871 344.932 365.399 349.483 365.399H361.759C368.354 365.399 373.753 362.193 376.593 357.127C377.158 358.123 377.839 359.07 378.62 359.934C381.743 363.373 386.244 365.266 391.311 365.266H405.713C409.699 365.266 413.304 364.07 416.178 361.861C420.762 366.047 426.46 368.273 432.772 368.273C439.483 368.273 445.53 365.781 450.247 361.064C454.965 356.346 457.457 350.299 457.457 343.588C457.457 338.821 456.194 334.402 453.786 330.532C455.48 327.957 456.493 324.818 456.576 321.313L460.314 262.127L460.397 262.26Z" fill="#663D0C"/>
<path d="M180.614 218.023C178.106 218.023 176.86 216.777 176.86 214.269L175.73 143.504L152.807 143.372C151.478 143.372 150.415 142.973 149.617 142.176C148.82 141.378 148.421 140.315 148.421 138.986V128.72C148.421 127.392 148.82 126.328 149.617 125.531C150.415 124.734 151.478 124.335 152.807 124.335L220.813 124.219C222.142 124.219 223.205 124.617 224.003 125.415C224.8 126.212 225.199 127.275 225.199 128.604V138.87C225.199 140.199 224.8 141.262 224.003 142.059C223.205 142.857 222.142 143.255 220.813 143.255L197.89 143.504L196.644 214.269C196.644 216.777 195.398 218.023 192.89 218.023H180.614ZM224.949 218.023C222.441 218.023 221.195 216.777 221.195 214.269L219.7 152.026C219.534 149.518 220.747 148.272 223.338 148.272H238.621C239.866 148.272 240.747 148.521 241.245 149.019C241.743 149.518 241.993 150.398 241.993 151.644V155.398C244.335 151.976 247.69 149.568 252.076 148.205C256.461 146.827 261.162 146.312 266.162 146.644C268.67 146.81 269.916 148.073 269.916 150.398V163.305C269.916 164.551 269.567 165.498 268.853 166.129C268.139 166.76 267.242 166.993 266.162 166.827C263.488 166.328 260.73 166.229 257.89 166.511C255.049 166.81 252.441 167.475 250.066 168.521C247.69 169.568 245.73 170.98 244.185 172.774C242.641 174.568 241.827 176.727 241.744 179.219L240.996 214.285C240.996 216.794 239.75 218.039 237.242 218.039H224.966L224.949 218.023ZM284.684 220.033C286.013 218.023 287.773 217.691 289.949 219.036C292.541 220.614 295.232 221.91 298.023 222.923C300.813 223.92 303.886 224.385 307.225 224.302C310.564 224.219 313.471 223.588 315.93 222.425C318.388 221.262 320.431 219.684 322.059 217.724C323.687 215.764 324.883 213.438 325.631 210.764C326.378 208.089 326.71 205.215 326.627 202.126C325.381 205.049 323.072 207.425 319.734 209.269C316.395 211.112 312.391 212.059 307.707 212.142C300.099 212.225 293.753 210.431 288.67 206.76C283.571 203.089 280.315 197.99 278.903 191.478C277.408 184.551 276.694 177.89 276.777 171.494C276.86 165.099 277.242 158.654 277.906 152.142C278.072 150.896 278.421 149.95 278.969 149.318C279.518 148.687 280.415 148.372 281.66 148.372H296.062C298.737 148.372 299.9 149.617 299.567 152.126C298.903 157.392 298.421 162.624 298.122 167.84C297.823 173.056 298.023 177.674 298.687 181.677C299.351 185.431 300.979 188.205 303.571 189.999C306.162 191.793 309.169 192.657 312.591 192.558C314.418 192.558 316.162 192.225 317.79 191.561C319.418 190.896 320.83 189.95 322.043 188.737C323.255 187.524 324.219 186.129 324.916 184.534C325.631 182.956 325.946 181.195 325.863 179.269L324.983 152.093C324.817 149.584 326.029 148.338 328.621 148.338H343.903C346.328 148.338 347.541 149.584 347.541 152.093L346.411 201.943C346.245 207.956 345.265 213.421 343.471 218.355C341.677 223.289 339.119 227.475 335.83 230.946C332.524 234.418 328.521 237.076 323.803 238.97C319.086 240.847 313.77 241.71 307.84 241.544C302.84 241.378 298.072 240.382 293.554 238.538C289.052 236.694 285.033 234.186 281.528 231.029C280.78 230.365 280.282 229.617 280.016 228.77C279.767 227.94 279.983 227.009 280.647 226.013L284.65 219.999L284.684 220.033ZM109.966 352.209C107.707 352.209 106.577 351.212 106.577 349.202V343.438C104.833 346.445 102.159 348.92 98.5541 350.897C94.9661 352.857 90.9129 353.837 86.4113 353.837C81.9096 353.837 77.3581 353.006 73.2551 351.328C69.1687 349.651 65.6139 347.259 62.6073 344.136C59.6006 340.996 57.2252 337.209 55.4644 332.74C53.7036 328.272 52.8398 323.239 52.8398 317.641C52.8398 312.043 53.7202 306.993 55.4644 302.491C57.2086 297.973 59.6006 294.169 62.6073 291.029C65.6139 287.89 69.1687 285.481 73.2551 283.77C77.3415 282.059 81.7269 281.245 86.4113 281.328C88.5043 281.328 90.5143 281.594 92.491 282.142C94.4511 282.691 96.2452 283.388 97.8731 284.269C99.501 285.149 100.946 286.212 102.192 287.458C103.438 288.704 104.368 290.049 104.949 291.461V286.328C104.783 283.82 105.996 282.574 108.587 282.574H123.87C126.295 282.574 127.508 283.82 127.508 286.328L126.013 348.455C126.013 350.963 124.767 352.209 122.258 352.209H109.983H109.966ZM78.1555 332.176C81.079 335.348 85.0491 336.943 90.0491 336.943C95.0491 336.943 99.1355 335.332 102.009 332.126C104.883 328.92 106.328 324.667 106.328 319.418C106.328 314.169 104.933 309.916 102.126 306.71C99.3182 303.504 95.2983 301.893 90.0325 301.893C84.7668 301.893 81.0624 303.504 78.1388 306.71C75.2153 309.933 73.7535 314.169 73.7535 319.418C73.7535 324.667 75.2153 328.936 78.1388 332.192L78.1555 332.176ZM149.052 354.219C150.381 352.209 152.142 351.877 154.318 353.222C156.91 354.8 159.601 356.079 162.391 357.043C165.182 358.006 168.255 358.488 171.594 358.488C174.684 358.488 177.425 357.99 179.8 356.993C182.175 355.996 184.202 354.568 185.88 352.74C187.541 350.897 188.82 348.754 189.7 346.295C190.581 343.837 191.013 341.096 191.013 338.089V335.963C189.335 338.887 186.694 341.345 183.056 343.355C179.418 345.365 175.016 346.362 169.85 346.362C165.165 346.362 160.846 345.631 156.893 344.169C152.923 342.707 149.501 340.581 146.627 337.774C143.737 334.983 141.511 331.578 139.933 327.558C138.338 323.554 137.557 319.003 137.557 313.903C137.557 308.803 138.355 304.269 139.933 300.249C141.511 296.245 143.753 292.84 146.627 290.033C149.501 287.242 152.923 285.083 156.893 283.588C160.863 282.093 165.182 281.328 169.85 281.328C174.85 281.328 179.069 282.325 182.491 284.335C185.913 286.345 188.255 288.637 189.501 291.229L189.368 286.345C189.202 283.837 190.415 282.591 193.006 282.591H208.288C210.714 282.591 211.926 283.837 211.926 286.345L210.797 336.195C210.631 342.209 209.65 347.674 207.856 352.607C206.062 357.541 203.521 361.727 200.215 365.199C196.91 368.671 192.906 371.328 188.189 373.222C183.471 375.099 178.139 375.963 172.225 375.797C167.209 375.631 162.458 374.634 157.94 372.79C153.421 370.946 149.418 368.438 145.913 365.282C145.165 364.617 144.667 363.87 144.418 363.023C144.169 362.192 144.368 361.262 145.049 360.265L149.052 354.252V354.219ZM159.7 321.411C160.614 323.156 161.81 324.667 163.272 325.913C164.734 327.159 166.444 328.156 168.405 328.853C170.365 329.568 172.474 329.916 174.734 329.916C176.993 329.916 179.102 329.568 181.062 328.853C183.023 328.139 184.75 327.159 186.262 325.913C187.757 324.667 188.936 323.139 189.767 321.345C190.597 319.551 191.013 317.574 191.013 315.398C191.013 310.98 189.484 307.441 186.444 304.817C183.388 302.192 179.484 300.863 174.734 300.863C172.474 300.863 170.365 301.212 168.405 301.926C166.444 302.641 164.734 303.621 163.272 304.867C161.81 306.112 160.647 307.641 159.767 309.435C158.886 311.229 158.454 313.205 158.454 315.382C158.454 317.558 158.87 319.551 159.7 321.395V321.411ZM279.052 352.209C276.793 352.209 275.664 351.212 275.664 349.202V343.438C273.92 346.445 271.245 348.92 267.641 350.897C264.052 352.857 259.999 353.837 255.498 353.837C250.996 353.837 246.445 353.006 242.342 351.328C238.255 349.651 234.7 347.259 231.694 344.136C228.687 340.996 226.312 337.209 224.551 332.74C222.79 328.272 221.926 323.239 221.926 317.641C221.926 312.043 222.807 306.993 224.551 302.491C226.295 297.973 228.687 294.169 231.694 291.029C234.7 287.89 238.255 285.481 242.342 283.77C246.428 282.059 250.813 281.245 255.498 281.328C257.591 281.328 259.601 281.594 261.577 282.142C263.538 282.691 265.332 283.388 266.959 284.269C268.587 285.149 270.033 286.212 271.278 287.458C272.524 288.704 273.454 290.049 274.036 291.461V286.328C273.87 283.82 275.082 282.574 277.674 282.574H292.956C295.381 282.574 296.594 283.82 296.594 286.328L295.099 348.455C295.099 350.963 293.853 352.209 291.345 352.209H279.069H279.052ZM247.242 332.176C250.165 335.348 254.136 336.943 259.136 336.943C264.136 336.943 268.222 335.332 271.096 332.126C273.969 328.903 275.415 324.667 275.415 319.418C275.415 314.169 274.019 309.916 271.212 306.71C268.405 303.504 264.385 301.893 259.119 301.893C253.853 301.893 250.149 303.504 247.225 306.71C244.302 309.933 242.84 314.169 242.84 319.418C242.84 324.667 244.302 328.936 247.225 332.192L247.242 332.176ZM320.381 277.574C316.793 277.574 313.753 276.345 311.295 273.887C308.837 271.428 307.607 268.388 307.607 264.8C307.607 261.212 308.837 258.189 311.295 255.714C313.753 253.239 316.777 252.026 320.381 252.026C323.986 252.026 326.993 253.255 329.468 255.714C331.926 258.172 333.155 261.212 333.155 264.8C333.155 268.388 331.926 271.411 329.468 273.887C327.009 276.345 323.969 277.574 320.381 277.574ZM314.368 352.209C311.86 352.209 310.614 350.963 310.614 348.455L309.119 286.461C309.119 283.953 310.332 282.707 312.757 282.707H328.039C330.547 282.707 331.76 283.953 331.677 286.461L330.431 348.455C330.431 350.963 329.185 352.209 326.677 352.209H314.401H314.368ZM349.567 352.209C347.059 352.209 345.813 350.963 345.813 348.455L344.318 286.328C344.152 283.82 345.365 282.574 347.956 282.574H363.239C365.165 282.574 366.328 283.405 366.744 285.083V291.345C367.657 289.518 368.886 287.923 370.431 286.578C371.976 285.249 373.654 284.136 375.448 283.255C377.242 282.375 379.052 281.76 380.896 281.378C382.724 280.996 384.451 280.813 386.029 280.813C389.119 280.813 391.943 281.328 394.484 282.375C397.026 283.421 399.252 284.867 401.129 286.694C403.006 288.538 404.567 290.73 405.83 293.272C407.076 295.813 408.006 298.554 408.587 301.478C409.252 304.9 409.75 308.554 410.082 312.441C410.415 316.328 410.581 320.265 410.581 324.285C410.581 328.305 410.498 332.342 410.332 336.428C410.165 340.514 409.916 344.485 409.584 348.322C409.418 349.568 409.069 350.514 408.521 351.146C407.973 351.777 407.076 352.093 405.83 352.093H391.428C388.837 352.093 387.674 350.847 387.923 348.338C388.587 341.162 389.069 334.352 389.368 327.923C389.65 321.495 389.468 315.514 388.803 310.016C388.388 306.843 387.192 304.451 385.232 302.823C383.272 301.196 380.664 300.382 377.408 300.382C373.903 300.382 371.212 301.378 369.335 303.388C367.458 305.398 366.478 307.691 366.395 310.282L365.647 348.488C365.647 350.996 364.401 352.242 361.893 352.242H349.617L349.567 352.209ZM427.342 324.667C424.833 324.667 423.587 323.421 423.587 320.913L419.584 261.428C419.584 258.92 420.797 257.674 423.222 257.674H443.504C446.013 257.674 447.225 258.92 447.142 261.428L443.388 320.913C443.388 323.421 442.142 324.667 439.634 324.667H427.358H427.342ZM432.856 355.099C429.684 355.099 426.993 353.986 424.783 351.777C422.574 349.568 421.461 346.877 421.461 343.704C421.461 340.531 422.574 337.84 424.783 335.631C426.993 333.421 429.684 332.308 432.856 332.308C436.029 332.308 438.72 333.421 440.93 335.631C443.139 337.84 444.252 340.531 444.252 343.704C444.252 346.877 443.139 349.568 440.93 351.777C438.72 353.986 436.029 355.099 432.856 355.099Z" fill="url(#paint0_linear_1063_122)"/>
<defs>
<linearGradient id="paint0_linear_1063_122" x1="249.999" y1="375.78" x2="249.999" y2="124.219" gradientUnits="userSpaceOnUse">
<stop stop-color="#FF800D"/>
<stop offset="1" stop-color="#FFAD40"/>
</linearGradient>
</defs>
</svg>
