<?xml version="1.0" encoding="UTF-8"?><svg id="_레이어_2" xmlns="http://www.w3.org/2000/svg" xmlns:xlink="http://www.w3.org/1999/xlink" viewBox="0 0 500 500"><defs><style>.cls-1{fill:url(#_무제_그라디언트_5);}.cls-2{fill:#fff;}.cls-3{fill:none;}</style><linearGradient id="_무제_그라디언트_5" x1="250" y1="192.69" x2="250" y2="307.31" gradientUnits="userSpaceOnUse"><stop offset="0" stop-color="#4ad872"/><stop offset="1" stop-color="#2bb24b"/></linearGradient></defs><g id="_레이어_1-2"><rect class="cls-3" width="500" height="500"/><path class="cls-2" d="M426.96,317.31c-2.75,0-5.51-.52-8.21-1.55-5.51-2.09-9.79-5.94-12.37-11.14-.78-1.58-1.37-3.2-1.76-4.83-2.42,2.47-5.69,3.87-9.36,3.87-1.53,0-3.11-.25-4.7-.74-4.09-1.27-8.25-2.5-12.37-3.66-2.9-.82-5.28-2.33-7-4.29-.08.01-.15.03-.23.04-2.52.48-5.13.72-7.76.72-3.42,0-6.99-.41-10.58-1.23-6.02-1.36-11.49-3.65-16.28-6.8-4.92-3.24-9.05-7.32-12.29-12.12-2.52-3.74-4.46-7.9-5.79-12.43-2.9,4.05-6.39,7.59-10.4,10.52-4.81,3.51-10.29,6.11-16.26,7.73-4.66,1.26-9.56,1.9-14.57,1.9-1.24,0-2.51-.04-3.77-.12-6.36-.39-12.4-1.73-17.98-4-5.72-2.33-10.81-5.54-15.15-9.55l-.1-.09c-3.74-3.55-6.87-7.69-9.33-12.34-2.2,4.73-5.15,9.02-8.78,12.75-4.15,4.27-9.11,7.75-14.73,10.35-5.46,2.53-11.44,4.15-17.78,4.84-2.2.24-4.39.36-6.53.36-4.03,0-8.03-.43-11.88-1.28-6.03-1.33-11.6-3.64-16.56-6.85l-.12-.08c-5.08-3.39-9.45-7.74-13.01-12.94l-.16-.24c-1.24,3.94-2.91,7.72-5.01,11.31-3.66,6.26-8.68,11.87-14.92,16.68-6.17,4.76-13.42,8.36-22.16,10.99-7.07,2.14-14.12,3.22-20.94,3.22-.88,0-1.75-.02-2.63-.05-7.82-.31-15.27-1.92-22.16-4.78-7.04-2.92-13.46-7.12-19.08-12.51-5.86-5.61-10.49-12.47-13.78-20.41-3.41-8.23-4.93-16.54-4.53-24.7.41-8.3,2.59-16.24,6.5-23.58,3.89-7.31,9.35-13.83,16.23-19.38,6.89-5.56,14.98-9.78,24.05-12.54,8.58-2.62,16.89-3.94,24.69-3.94,3.18,0,6.33.22,9.34.66,10.46,1.53,19.24,5.07,26.09,10.53,2.72,2.13,4.52,4.97,5.23,8.23.94,4.31-.44,8.68-3.8,12-1.13,1.17-2.27,2.35-3.39,3.53,1.62-.34,3.24-.52,4.76-.52,2.75,0,5.3.57,7.56,1.68.7.35,1.46.8,2.24,1.38,1.8-5.09,4.47-9.75,7.96-13.87,4.2-4.95,9.46-9.04,15.65-12.15,6.1-3.07,12.86-5.02,20.08-5.8,2.27-.25,4.54-.37,6.76-.37,4.83,0,9.57.59,14.09,1.74,6.71,1.72,12.72,4.59,17.86,8.53,4.87,3.72,8.86,8.36,11.86,13.79,2.74-5.56,6.5-10.38,11.2-14.33,4.96-4.17,10.82-7.32,17.43-9.35,5.34-1.64,11.01-2.47,16.86-2.47,1.28,0,2.59.04,3.9.12,7.25.44,14.08,2.08,20.31,4.86,6.32,2.82,11.76,6.66,16.18,11.4,4.05,4.36,7.14,9.41,9.2,15.04,3.14-4.64,7.03-8.49,11.56-11.47,5.15-3.38,11.03-5.61,17.47-6.63,2.5-.4,5.08-.6,7.66-.6,3.95,0,8.03.47,12.12,1.39,5,1.13,9.47,2.81,13.36,5.01,1.14-4.48,2.28-8.97,3.42-13.45,1.35-6.39,6.55-10.66,13.07-10.66,1.54,0,3.17.24,4.85.7,6.55,1.82,13.19,3.78,19.73,5.83,5.29,1.66,7.85,4.82,9.06,7.17.39.76.71,1.56.94,2.38,1.82-.91,3.86-1.4,6.05-1.4,1.83,0,3.74.35,5.68,1.04,8.3,2.96,16.65,6.13,24.81,9.44,5.34,2.17,7.65,5.63,8.64,8.15,1.33,3.37,1.16,7.17-.48,10.7l-.08.16-.08.16c-9.25,18.17-18.46,36.63-27.38,54.87-1.52,3.5-4.08,6.05-7.24,7.36,1.56,4.78,1.38,9.73-.56,14.5-2.25,5.52-6.4,9.64-12,11.9-2.75,1.11-5.59,1.67-8.44,1.67ZM85.21,227.99c-2.46,0-5.42.52-8.82,1.55-2.77.84-5.18,2.08-7.16,3.69-1.94,1.57-3.42,3.36-4.52,5.46-1.06,2.03-1.65,4.21-1.8,6.66-.15,2.47.26,5,1.25,7.75.97,2.7,2.3,4.96,3.96,6.7,1.68,1.77,3.5,3.07,5.59,3.97,1.38.6,2.8,1.04,4.29,1.32-1.69-1.57-2.99-3.62-3.73-6.04l-3.85-12.67c-1.07-3.5-.76-7.08.86-10.1,1.18-2.2,3.61-5.12,8.48-6.57,2-.58,4-1.15,6.01-1.71-.19,0-.37-.01-.57-.01ZM360.78,255.75c.59.79,1.29,1.45,2.14,2.03.91.62,1.99,1.08,3.32,1.39.91.21,1.79.33,2.6.33.38,0,.76-.02,1.12-.07,1.01-.13,1.86-.4,2.61-.85.87-.52,1.65-1.21,2.37-2.12.65-.82,1.17-1.92,1.53-3.26.92-3.34.24-5.07-.44-6.2-.4-.65-1.61-2.64-6.04-3.69-.97-.23-1.9-.35-2.76-.35-.42,0-.84.03-1.23.08-1.08.15-2.02.47-2.86.98-.79.48-1.46,1.12-2.05,1.97-.61.88-1.03,1.94-1.29,3.24-.28,1.37-.31,2.59-.1,3.61.22,1.09.57,2.03,1.07,2.9ZM186.39,231.46c-.56,0-1.15.03-1.75.1-5.18.55-6.85,2.54-7.39,3.19-.91,1.08-1.78,2.64-1.31,5.92.48,3.33,1.82,4.69,3.06,5.57,1.55,1.11,3.32,1.62,5.57,1.62.57,0,1.17-.03,1.79-.1,1.59-.17,2.93-.52,4.08-1.08l.12-.06c1.07-.5,1.88-1.08,2.5-1.78.7-.79,1.22-1.68,1.61-2.76.35-.96.47-2.09.38-3.45-.09-1.27-.37-2.32-.85-3.22-.51-.95-1.13-1.7-1.89-2.29-.76-.59-1.71-1.03-2.91-1.32-.93-.23-1.94-.35-3.01-.35ZM276.28,229.51c-2.86,0-4.99.63-6.52,1.93-1.08.92-2.2,2.31-2.28,5.63-.09,3.37,1,4.93,2.08,6.01,1.13,1.14,2.94,2.48,6.97,2.73.34.02.68.03,1.01.03,1.18,0,2.22-.14,3.18-.42l.13-.04c1.13-.31,2.04-.75,2.77-1.34.81-.65,1.48-1.45,2.04-2.44.5-.88.82-2.01.96-3.35.12-1.25.03-2.34-.3-3.31-.34-1.02-.83-1.86-1.48-2.58-.64-.7-1.53-1.3-2.64-1.79-1.34-.58-2.9-.94-4.65-1.05-.43-.03-.86-.04-1.27-.04Z"/><path class="cls-1" d="M88.22,258.18c-2.29.68-3.75,0-4.38-2.07-1.28-4.22-2.56-8.43-3.85-12.65-.63-2.06.24-3.46,2.62-4.17,13.29-3.85,26.67-7.21,40.14-10.06,2.51-.55,4.52-.44,6.03.31,1.51.75,2.63,2.42,3.35,5,1.69,6.36,2.06,12.63,1.23,18.81-.83,6.18-2.79,11.85-5.83,17.06-3.05,5.21-7.17,9.78-12.39,13.81-5.22,4.03-11.5,7.09-18.94,9.34-6.93,2.09-13.64,3.02-20.28,2.75-6.64-.27-12.86-1.59-18.73-4.02-5.87-2.43-11.2-5.91-16-10.49-4.79-4.58-8.65-10.23-11.46-17.02-2.81-6.78-4.12-13.57-3.78-20.38.33-6.8,2.1-13.28,5.34-19.38,3.24-6.09,7.81-11.56,13.68-16.29,5.87-4.73,12.8-8.36,20.69-10.76,10.86-3.31,20.83-4.24,29.66-2.95,8.84,1.29,15.95,4.18,21.33,8.49.89.69,1.44,1.52,1.65,2.49.21.97-.16,1.91-1.11,2.83-3.93,4.05-7.78,8.14-11.54,12.27-.81.91-1.85,1.55-3.11,1.91-1.26.36-2.41.14-3.45-.66-2.72-2.06-6.16-3.44-10.32-4.09-4.15-.65-9.28-.1-15.28,1.71-4.04,1.22-7.57,3.06-10.56,5.49-2.99,2.43-5.36,5.3-7.08,8.58-1.72,3.29-2.7,6.86-2.93,10.7-.23,3.84.39,7.76,1.83,11.74,1.46,4.07,3.52,7.46,6.12,10.2,2.6,2.74,5.56,4.82,8.84,6.25,3.29,1.43,6.77,2.25,10.47,2.46,3.7.21,7.4-.24,11.14-1.36,3.38-1.01,6.33-2.31,8.88-3.92,2.54-1.61,4.68-3.42,6.42-5.44,1.74-2.02,3.06-4.15,3.95-6.38.89-2.23,1.4-4.52,1.51-6.86-7.99,2.07-15.95,4.32-23.86,6.76ZM159.9,268.99c-4-2.67-7.45-6.09-10.31-10.27-2.86-4.18-4.86-9.1-5.92-14.8-1.06-5.69-.95-11.03.39-16.02,1.35-4.98,3.67-9.45,6.98-13.36,3.32-3.91,7.49-7.16,12.51-9.68,5.02-2.52,10.6-4.14,16.66-4.79,6.07-.66,11.85-.27,17.29,1.12,5.44,1.39,10.2,3.67,14.27,6.78,4.07,3.11,7.28,6.98,9.65,11.56,2.37,4.58,3.61,9.78,3.8,15.56.19,5.79-.73,11.05-2.67,15.79-1.85,4.66-4.45,8.68-7.79,12.11-3.33,3.43-7.24,6.16-11.76,8.25-4.51,2.09-9.38,3.4-14.66,3.97-5.28.57-10.31.33-15.18-.74-4.87-1.07-9.28-2.89-13.27-5.48ZM166.04,242.09c.77,5.39,3.19,9.47,7.16,12.3,3.97,2.83,8.67,3.92,14.23,3.32,2.73-.29,5.19-.96,7.39-2.04,2.29-1.08,4.21-2.47,5.74-4.2,1.53-1.73,2.7-3.72,3.52-5.99.82-2.27,1.14-4.78.95-7.54-.19-2.67-.86-5.09-2.02-7.26-1.17-2.17-2.68-3.98-4.55-5.44-1.87-1.45-4.08-2.5-6.64-3.14-2.56-.63-5.3-.8-8.22-.49-6.14.65-10.83,2.93-14,6.7-3.17,3.78-4.32,8.39-3.55,13.77ZM246.93,262.3c-3.49-3.31-6.3-7.25-8.41-11.86-2.11-4.6-3.25-9.79-3.33-15.58-.08-5.79.91-11.04,3.07-15.72,2.16-4.68,5.18-8.7,9.1-11.99,3.91-3.3,8.57-5.79,13.93-7.44,5.36-1.65,11.12-2.3,17.2-1.93,6.08.37,11.72,1.72,16.85,4.01,5.13,2.29,9.45,5.33,12.93,9.08,3.49,3.75,6.01,8.1,7.59,13.01,1.58,4.91,1.93,10.25,1.14,15.98-.79,5.74-2.58,10.77-5.29,15.12-2.61,4.28-5.86,7.81-9.72,10.63-3.87,2.82-8.19,4.86-12.99,6.16-4.81,1.3-9.82,1.78-15.11,1.45-5.29-.32-10.21-1.41-14.82-3.28-4.61-1.88-8.64-4.41-12.13-7.63ZM257.48,236.81c-.14,5.45,1.55,9.87,4.97,13.32,3.43,3.46,7.88,5.32,13.45,5.67,2.74.17,5.27-.08,7.63-.76,2.44-.68,4.56-1.73,6.36-3.18,1.8-1.45,3.29-3.21,4.48-5.31,1.19-2.1,1.92-4.52,2.2-7.28.26-2.66.01-5.16-.77-7.5-.79-2.33-1.98-4.38-3.57-6.13-1.59-1.75-3.61-3.15-6.02-4.21-2.42-1.05-5.09-1.68-8.02-1.86-6.15-.39-11.15,1.07-14.9,4.26-3.75,3.19-5.65,7.54-5.8,12.98ZM380.91,289.63c-2.32-.65-3.21-1.97-2.67-3.97.53-1.92,1.05-3.83,1.58-5.75-2.62,2.69-6.2,4.42-10.71,5.28-4.51.85-9.25.7-14.28-.44-4.85-1.1-9.17-2.89-12.99-5.4-3.82-2.52-6.98-5.62-9.49-9.35-2.52-3.73-4.28-8.01-5.28-12.85-1-4.84-1.09-10.12-.2-15.85.89-5.72,2.59-10.73,5.16-15,2.57-4.27,5.83-7.72,9.79-10.32,3.96-2.59,8.49-4.31,13.56-5.12,5.07-.8,10.42-.59,16,.67,5.87,1.33,10.67,3.5,14.32,6.44,3.66,2.94,5.76,6.04,6.36,9.24,2.69-10.55,5.38-21.11,8.05-31.66.46-2.56,2.3-3.41,5.5-2.53,6.49,1.8,12.96,3.71,19.41,5.73,2.97.93,4.05,2.65,3.25,5.12-10,28.97-19.91,57.97-29.72,86.99-.79,2.47-2.46,3.29-5.03,2.5-4.2-1.3-8.4-2.54-12.62-3.73ZM352.44,261.27c1.31,1.87,2.93,3.45,4.85,4.77,1.92,1.32,4.14,2.26,6.64,2.86,2.51.59,4.93.75,7.29.45,2.36-.3,4.5-1.01,6.44-2.16,1.94-1.14,3.65-2.65,5.13-4.53,1.48-1.88,2.6-4.15,3.33-6.82,1.44-5.25.95-9.94-1.55-14.04-2.5-4.1-6.62-6.87-12.27-8.21-2.68-.64-5.25-.78-7.69-.44-2.44.34-4.66,1.13-6.66,2.34-2,1.21-3.7,2.83-5.08,4.84-1.39,2.01-2.34,4.33-2.87,6.96-.54,2.71-.57,5.24-.09,7.59.47,2.35,1.32,4.48,2.52,6.42ZM427.58,274.77c-2.68-.98-3.58-2.67-2.71-5.12,5.46-19.85,10.75-39.75,15.87-59.69.85-2.45,2.74-3.17,5.68-2.13,8.18,2.91,16.32,6.01,24.4,9.28,3,1.22,3.94,3.02,2.85,5.37-9.34,18.35-18.53,36.77-27.56,55.25-.97,2.4-2.79,3.06-5.44,2.01-4.34-1.72-8.7-3.38-13.07-4.98ZM422.3,306.42c-3.18-1.21-5.49-3.27-6.96-6.23-1.47-2.96-1.69-5.99-.6-9.09,1.09-3.1,3.16-5.33,6.26-6.65,3.09-1.32,6.33-1.36,9.67-.09,3.33,1.26,5.74,3.44,7.19,6.48,1.45,3.04,1.53,6.09.29,9.13-1.24,3.04-3.41,5.16-6.48,6.4-3.07,1.24-6.18,1.25-9.36.05Z"/></g></svg>