<?xml version="1.0" encoding="UTF-8"?><svg id="_레이어_2" xmlns="http://www.w3.org/2000/svg" xmlns:xlink="http://www.w3.org/1999/xlink" viewBox="0 0 500 500"><defs><style>.cls-1{fill:#663d0c;}.cls-2{fill:url(#_무제_그라디언트_110-3);}.cls-3{fill:url(#_무제_그라디언트_110-6);}.cls-4{fill:url(#_무제_그라디언트_110-5);}.cls-5{fill:#fff;}.cls-6{fill:url(#_무제_그라디언트_110-8);}.cls-7{fill:none;}.cls-8{fill:#ffd8a9;}.cls-9{fill:url(#_무제_그라디언트_110-4);}.cls-10{fill:url(#_무제_그라디언트_110-7);}.cls-11{fill:url(#_무제_그라디언트_110);}.cls-12{fill:url(#_무제_그라디언트_110-2);}.cls-13{fill:url(#_무제_그라디언트_110-9);}</style><linearGradient id="_무제_그라디언트_110" x1="100.64" y1="155.13" x2="100.64" y2="245.01" gradientUnits="userSpaceOnUse"><stop offset="0" stop-color="#ff800d"/><stop offset="1" stop-color="#ffad40"/></linearGradient><linearGradient id="_무제_그라디언트_110-2" x1="156.62" y1="149.01" x2="156.62" xlink:href="#_무제_그라디언트_110"/><linearGradient id="_무제_그라디언트_110-3" x1="225.43" y1="176.61" x2="225.43" xlink:href="#_무제_그라디언트_110"/><linearGradient id="_무제_그라디언트_110-4" x1="314.24" y1="176.61" x2="314.24" y2="246.57" xlink:href="#_무제_그라디언트_110"/><linearGradient id="_무제_그라디언트_110-5" x1="365.03" y1="147.09" x2="365.03" y2="173.97" xlink:href="#_무제_그라디언트_110"/><linearGradient id="_무제_그라디언트_110-6" x1="413.15" y1="176.6" x2="413.15" y2="246.58" xlink:href="#_무제_그라디언트_110"/><linearGradient id="_무제_그라디언트_110-7" x1="197.42" y1="278.41" x2="197.42" y2="346.69" xlink:href="#_무제_그라디언트_110"/><linearGradient id="_무제_그라디언트_110-8" x1="274.88" y1="277.09" x2="274.88" y2="367.69" xlink:href="#_무제_그라디언트_110"/><linearGradient id="_무제_그라디언트_110-9" x1="331.1" y1="254.41" x2="331.1" y2="347.77" xlink:href="#_무제_그라디언트_110"/></defs><g id="_레이어_1-2"><rect class="cls-7" width="500" height="500"/><circle class="cls-8" cx="432.8" cy="275.24" r="54.95"/><circle class="cls-8" cx="395.95" cy="205.72" r="37.82"/><circle class="cls-8" cx="143.01" cy="115.41" r="18.44"/><circle class="cls-8" cx="59.93" cy="275.07" r="29.6"/><circle class="cls-8" cx="105.86" cy="250.87" r="37.15"/><circle class="cls-8" cx="66.87" cy="198.78" r="6.94"/><circle class="cls-8" cx="384.35" cy="137.9" r="4.47"/><circle class="cls-8" cx="108.45" cy="402.16" r="6.94"/><circle class="cls-8" cx="357.15" cy="381.15" r="4.61"/><path class="cls-5" d="M250,402.16c-83.9,0-152.16-68.26-152.16-152.16S166.1,97.84,250,97.84s152.16,68.26,152.16,152.16-68.26,152.16-152.16,152.16Z"/><path class="cls-8" d="M250,388.82c-76.55,0-138.82-62.28-138.82-138.82s62.28-138.82,138.82-138.82,138.82,62.28,138.82,138.82-62.28,138.82-138.82,138.82Z"/><path class="cls-8" d="M250,121.18c-71.15,0-128.82,57.68-128.82,128.82s57.68,128.82,128.82,128.82,128.82-57.68,128.82-128.82-57.68-128.82-128.82-128.82Z"/><path class="cls-1" d="M452.25,215.89c-1.45-3.53-3.61-6.68-6.42-9.37-1.38-1.31-2.91-2.51-4.6-3.59,1.03-1.17,1.86-2.54,2.43-4.07l3.91-10.2c2.7-6.88-.26-13.82-7.21-16.89-3.98-1.75-8.54-3.09-13.54-3.99-4.4-.79-8.51-1.19-12.2-1.19-.36,0-.72,0-1.08.01-4.65,0-9.23.61-13.62,1.78-4.53,1.21-8.69,2.97-12.35,5.24-1.52.94-2.94,1.98-4.25,3.11-.54-.29-1.09-.57-1.65-.83.8-1.77,1.3-3.83,1.51-6.23l1.24-17.2v-.36c0-2.8-.4-5.19-1.23-7.3-.71-1.82-3.7-7.74-12.37-7.74-3.95,0-8,.13-12.02.38h-.22s-.21.04-.21.04c-4.21.45-7.5,2.08-9.79,4.85-3.44,4.18-2.99,9.32-2.85,10.92l1.34,17.24.04.31c.14,1.01.33,1.93.55,2.79-1.75.56-3.45,1.22-5.11,1.97-3.16-2.47-6.76-4.48-10.74-5.99-5.24-1.98-11.09-2.99-17.4-2.99s-11.85,1.09-17.19,3.25c-5.41,2.19-10.18,5.34-14.17,9.39-2.18,2.21-4.1,4.68-5.77,7.37-.3-.76-.61-1.51-.95-2.25-1.64-3.58-3.87-6.72-6.62-9.35-2.77-2.64-6.05-4.73-9.76-6.21-3.69-1.46-7.86-2.2-12.39-2.2-5.26,0-10.14,1.33-14.5,3.94-.55.33-1.1.68-1.62,1.05-4.56-3.27-10.04-4.99-16.15-4.99-2.54,0-5.09.4-7.57,1.18-1.46.46-2.88,1.03-4.24,1.7-1.75-.78-3.72-1.21-5.83-1.21h-14.64c-2.24,0-4.09.44-5.62,1.07.96-2.52,1.46-5.24,1.46-8.11,0-6.08-2.24-11.54-6.47-15.77-4.23-4.23-9.69-6.47-15.77-6.47s-11.54,2.24-15.77,6.47c-.38.38-.72.77-1.06,1.17-1.98-.99-4.22-1.52-6.58-1.52l-65.14.12c-3.91,0-7.51,1.45-10.13,4.07-2.63,2.62-4.07,6.22-4.07,10.13v9.84c0,3.92,1.45,7.52,4.06,10.12,2.62,2.63,6.22,4.08,10.09,4.08l12.17.07.92,57.95c.05,7.83,5.75,13.5,13.6,13.5h7.52c-.23,2.21-.34,4.45-.34,6.72,0,32.89,24.22,60.11,55.8,64.82.13.77.27,1.54.41,2.3.75,3.76,2.04,7.35,3.83,10.66,1.86,3.44,4.23,6.46,7.04,8.98,2.83,2.54,6.1,4.56,9.71,6,3.69,1.46,7.73,2.2,12.03,2.2,5.77,0,10.82-1.07,15.06-3.19,1.91.98,4.12,1.51,6.54,1.51h11.76c2.6,0,4.96-.64,6.97-1.76l.19,10.94c.05,7.83,5.76,13.49,13.6,13.49h11.76c7.85,0,13.56-5.68,13.6-13.52l.11-8.57c2.74.64,5.66.97,8.73.97,5.8,0,11.28-1.07,16.3-3.18,5.11-2.16,9.59-5.3,13.32-9.35.59-.64,1.16-1.32,1.7-2,.9,3.61,2.73,6.89,5.46,9.62,4,4,9.12,6.11,14.81,6.11s10.81-2.11,14.81-6.11c3.51-3.51,5.56-7.89,6.01-12.76,1.39.09,2.79.15,4.2.15,36.2,0,65.54-29.34,65.54-65.54,0-5.96-.81-11.73-2.3-17.22,2.47-.24,4.9-.62,7.26-1.17,4.67-1.1,8.96-2.74,12.74-4.88,4.15-2.36,7.58-5.32,10.2-8.82,2.95-3.94,4.64-8.48,5.03-13.52v-.18c.26-4.21-.37-8.19-1.86-11.83Z"/><path class="cls-11" d="M94.7,245.01c-2.4,0-3.6-1.2-3.6-3.6l-1.08-67.8-21.96-.12c-1.28,0-2.3-.38-3.06-1.14-.76-.76-1.14-1.78-1.14-3.06v-9.84c0-1.28.38-2.3,1.14-3.06.76-.76,1.78-1.14,3.06-1.14l65.16-.12c1.28,0,2.3.38,3.06,1.14.76.76,1.14,1.78,1.14,3.06v9.84c0,1.28-.38,2.3-1.14,3.06-.76.76-1.78,1.14-3.06,1.14l-21.96.24-1.2,67.8c0,2.4-1.2,3.6-3.6,3.6h-11.76Z"/><path class="cls-12" d="M156.62,173.49c-3.44,0-6.34-1.18-8.7-3.54-2.36-2.36-3.54-5.26-3.54-8.7s1.18-6.34,3.54-8.7c2.36-2.36,5.26-3.54,8.7-3.54s6.34,1.18,8.7,3.54c2.36,2.36,3.54,5.26,3.54,8.7s-1.18,6.34-3.54,8.7c-2.36,2.36-5.26,3.54-8.7,3.54ZM150.86,245.01c-2.4,0-3.6-1.2-3.6-3.6l-1.44-59.4c0-2.4,1.16-3.6,3.48-3.6h14.64c2.4,0,3.56,1.2,3.48,3.6l-1.2,59.4c0,2.4-1.2,3.6-3.6,3.6h-11.76Z"/><path class="cls-2" d="M184.58,245.01c-2.4,0-3.6-1.2-3.6-3.6l-1.44-59.52c-.16-2.4,1-3.6,3.48-3.6h14.64c1.84,0,2.96.8,3.36,2.4v4.8c.4-1.2,1.08-2.34,2.04-3.42.96-1.08,2.1-2.02,3.42-2.82,1.32-.8,2.74-1.44,4.26-1.92,1.52-.48,3.04-.72,4.56-.72,7.12,0,12.44,3.24,15.96,9.72,1.84-3.12,4.16-5.52,6.96-7.2,2.8-1.68,5.92-2.52,9.36-2.52s6.18.5,8.7,1.5c2.52,1,4.7,2.38,6.54,4.14,1.84,1.76,3.32,3.86,4.44,6.3,1.12,2.44,1.96,5.06,2.52,7.86.56,3.2.96,6.7,1.2,10.5.24,3.8.36,7.68.36,11.64s-.12,7.9-.36,11.82c-.24,3.92-.52,7.56-.84,10.92-.16,1.2-.5,2.1-1.02,2.7-.52.6-1.38.9-2.58.9h-12.6c-2.48,0-3.6-1.2-3.36-3.6.64-6.88,1.08-13.54,1.32-19.98.24-6.44.04-12.02-.6-16.74-.4-2.96-1.3-5.24-2.7-6.84-1.4-1.6-3.14-2.4-5.22-2.4s-3.94.84-5.34,2.52c-1.4,1.68-2.02,3.8-1.86,6.36.4,5.52.52,11.38.36,17.58-.16,6.2-.52,12.7-1.08,19.5-.16,1.2-.5,2.1-1.02,2.7-.52.6-1.38.9-2.58.9h-12.6c-2.48,0-3.6-1.2-3.36-3.6.64-6.88,1.04-13.4,1.2-19.56.16-6.16.04-11.88-.36-17.16-.24-3.04-1.04-5.38-2.4-7.02-1.36-1.64-3.28-2.38-5.76-2.22-2.56.16-4.5,1.02-5.82,2.58-1.32,1.56-2.02,3.46-2.1,5.7l-.72,37.8c0,2.4-1.2,3.6-3.6,3.6h-11.76Z"/><path class="cls-9" d="M301.1,220.17c.64,3.44,2.48,6.14,5.52,8.1,3.04,1.96,6.72,2.9,11.04,2.82,3.28-.08,6.2-.46,8.76-1.14,2.56-.68,4.96-1.7,7.2-3.06,2.48-1.36,4.28-1.2,5.4.48l4.2,5.88c.48.72.7,1.5.66,2.34-.04.84-.54,1.7-1.5,2.58-3.52,2.88-7.38,5-11.58,6.36-4.2,1.36-9.06,2.04-14.58,2.04-5.2,0-9.98-.8-14.34-2.4-4.36-1.6-8.14-3.9-11.34-6.9-3.2-3-5.68-6.64-7.44-10.92-1.76-4.28-2.64-9.1-2.64-14.46s.86-10.2,2.58-14.52c1.72-4.32,4.1-8.02,7.14-11.1,3.04-3.08,6.64-5.46,10.8-7.14,4.16-1.68,8.64-2.52,13.44-2.52,5.12,0,9.74.78,13.86,2.34,4.12,1.56,7.62,3.76,10.5,6.6,2.88,2.84,5.1,6.18,6.66,10.02,1.56,3.84,2.42,8.04,2.58,12.6.08,2.96-.7,5.52-2.34,7.68-1.64,2.16-4.18,3.28-7.62,3.36l-36.96.96ZM330.38,204.09c-.48-3.28-2.16-5.96-5.04-8.04-2.88-2.08-6.32-3.04-10.32-2.88-4.32.16-7.72,1.4-10.2,3.72-2.48,2.32-3.92,5.12-4.32,8.4l29.88-1.2Z"/><path class="cls-4" d="M361.1,173.97c-1.6-.08-2.62-.44-3.06-1.08-.44-.64-.78-1.8-1.02-3.48l-1.32-16.92c-.16-1.84.04-3.1.6-3.78.56-.68,1.6-1.1,3.12-1.26,3.84-.24,7.64-.36,11.4-.36,1.68,0,2.7.46,3.06,1.38.36.92.54,2.14.54,3.66l-1.2,16.68c-.16,1.84-.54,3.1-1.14,3.78-.6.68-1.82,1.06-3.66,1.14l-7.32.24Z"/><path class="cls-3" d="M386.78,226.29c1.04-1.76,2.8-1.96,5.28-.6,1.28.72,2.74,1.44,4.38,2.16,1.64.72,3.38,1.38,5.22,1.98,1.84.6,3.74,1.08,5.7,1.44,1.96.36,3.94.5,5.94.42,3.6-.16,6.34-.7,8.22-1.62,1.88-.92,2.94-2.14,3.18-3.66.24-1.44-.12-2.7-1.08-3.78s-2.72-1.82-5.28-2.22c-3.12-.56-6.5-1.24-10.14-2.04-3.64-.8-6.78-1.64-9.42-2.52-2.24-.8-4.34-1.74-6.3-2.82-1.96-1.08-3.64-2.34-5.04-3.78-1.4-1.44-2.5-3.12-3.3-5.04-.8-1.92-1.12-4.12-.96-6.6.16-3.36,1.1-6.34,2.82-8.94,1.72-2.6,4-4.78,6.84-6.54,2.84-1.76,6.06-3.12,9.66-4.08,3.6-.96,7.32-1.44,11.16-1.44,3.36-.08,7.16.26,11.4,1.02,4.24.76,8,1.86,11.28,3.3,2,.88,2.64,2.24,1.92,4.08l-3.96,10.32c-.32.88-.88,1.44-1.68,1.68-.8.24-1.64.16-2.52-.24-2.32-.96-4.92-1.72-7.8-2.28-2.88-.56-5.76-.76-8.64-.6-2.96.16-5.38.7-7.26,1.62-1.88.92-2.9,2.06-3.06,3.42-.16,1.12.14,1.98.9,2.58.76.6,1.74,1.1,2.94,1.5,2.4.72,4.84,1.36,7.32,1.92,2.48.56,5.4,1.16,8.76,1.8,3.28.64,6.26,1.54,8.94,2.7,2.68,1.16,4.92,2.6,6.72,4.32,1.8,1.72,3.16,3.7,4.08,5.94.92,2.24,1.3,4.72,1.14,7.44-.24,3.12-1.26,5.88-3.06,8.28s-4.18,4.44-7.14,6.12c-2.96,1.68-6.32,2.96-10.08,3.84-3.76.88-7.68,1.28-11.76,1.2-2.4,0-4.9-.24-7.5-.72-2.6-.48-5.14-1.12-7.62-1.92-2.48-.8-4.86-1.78-7.14-2.94-2.28-1.16-4.26-2.42-5.94-3.78-1.04-.88-1.62-1.72-1.74-2.52-.12-.8.06-1.56.54-2.28l4.08-6.12Z"/><path class="cls-10" d="M212.3,345.01c-2.4,0-3.6-1.2-3.6-3.6l-.12-3.72c-1.36,2.56-3.52,4.7-6.48,6.42-2.96,1.72-6.76,2.58-11.4,2.58-3.04,0-5.82-.5-8.34-1.5-2.52-1-4.76-2.38-6.72-4.14-1.96-1.76-3.6-3.86-4.92-6.3-1.32-2.44-2.26-5.06-2.82-7.86-.64-3.28-1.12-6.78-1.44-10.5-.32-3.72-.48-7.5-.48-11.34s.08-7.72.24-11.64c.16-3.92.4-7.72.72-11.4.16-1.2.5-2.1,1.02-2.7.52-.6,1.38-.9,2.58-.9h13.8c2.48,0,3.6,1.2,3.36,3.6-.64,6.88-1.1,13.4-1.38,19.56-.28,6.16-.1,11.88.54,17.16.4,3.04,1.54,5.34,3.42,6.9,1.88,1.56,4.38,2.34,7.5,2.34s5.54-1.02,7.5-3.06c1.96-2.04,2.9-4.46,2.82-7.26l-.84-35.64c0-2.4,1.16-3.6,3.48-3.6h14.64c2.4,0,3.56,1.2,3.48,3.6l-1.2,59.4c0,2.4-1.2,3.6-3.6,3.6h-11.76Z"/><path class="cls-6" d="M244.82,367.69c-2.4,0-3.6-1.2-3.6-3.6l-1.44-82.2c0-2.4,1.16-3.6,3.48-3.6h14.64c1.12,0,1.98.26,2.58.78.6.52.9,1.46.9,2.82v3.72c1.52-2.56,3.82-4.62,6.9-6.18,3.08-1.56,6.66-2.34,10.74-2.34,4.48,0,8.62.82,12.42,2.46,3.8,1.64,7.08,3.96,9.84,6.96,2.76,3,4.9,6.64,6.42,10.92,1.52,4.28,2.28,9.1,2.28,14.46s-.76,10.18-2.28,14.46c-1.52,4.28-3.66,7.92-6.42,10.92-2.76,3-6.04,5.3-9.84,6.9-3.8,1.6-7.94,2.4-12.42,2.4s-8.08-.82-11.28-2.46c-3.2-1.64-5.6-3.98-7.2-7.02l-.36,27c0,2.4-1.2,3.6-3.6,3.6h-11.76ZM263.18,325.81c1.36,1.44,3,2.56,4.92,3.36,1.92.8,4,1.2,6.24,1.2s4.28-.4,6.12-1.2c1.92-.8,3.58-1.94,4.98-3.42,1.4-1.48,2.5-3.24,3.3-5.28.8-2.04,1.2-4.34,1.2-6.9s-.4-4.76-1.2-6.84c-.8-2.08-1.9-3.86-3.3-5.34-1.4-1.48-3.04-2.62-4.92-3.42-1.88-.8-3.94-1.2-6.18-1.2-4.72,0-8.5,1.54-11.34,4.62-2.84,3.08-4.26,7.14-4.26,12.18,0,2.56.4,4.86,1.2,6.9.8,2.04,1.88,3.82,3.24,5.34Z"/><path class="cls-13" d="M325.34,318.61c-2.4,0-3.6-1.2-3.6-3.6l-3.84-57c0-2.4,1.16-3.6,3.48-3.6h19.44c2.4,0,3.56,1.2,3.48,3.6l-3.6,57c0,2.4-1.2,3.6-3.6,3.6h-11.76ZM330.62,347.77c-3.04,0-5.62-1.06-7.74-3.18-2.12-2.12-3.18-4.7-3.18-7.74s1.06-5.62,3.18-7.74c2.12-2.12,4.7-3.18,7.74-3.18s5.62,1.06,7.74,3.18c2.12,2.12,3.18,4.7,3.18,7.74s-1.06,5.62-3.18,7.74c-2.12,2.12-4.7,3.18-7.74,3.18Z"/></g></svg>