<?xml version="1.0" encoding="UTF-8"?><svg id="_레이어_2" xmlns="http://www.w3.org/2000/svg" xmlns:xlink="http://www.w3.org/1999/xlink" viewBox="0 0 500 500"><defs><style>.cls-1{fill:#663d0c;}.cls-2{fill:none;}.cls-3{fill:url(#_무제_그라디언트_110);}</style><linearGradient id="_무제_그라디언트_110" x1="250" y1="370.14" x2="250" y2="129.86" gradientUnits="userSpaceOnUse"><stop offset="0" stop-color="#ff800d"/><stop offset="1" stop-color="#ffad40"/></linearGradient></defs><g id="_레이어_1-2"><rect class="cls-2" width="500" height="500"/><path class="cls-1" d="M412.59,262.52c0-.13.01-.27.02-.4.21-6.47-2.45-10.63-4.72-12.98-2.27-2.35-6.34-5.15-12.81-5.15h-23.49c-1.48,0-2.9.16-4.25.46-1.1-.66-2.31-1.17-3.58-1.57,1.33-2.5,2.08-5.43,2.1-8.63l.66-41.13,2.78-.05c.23,0,.45-.01.68-.03,4.41-.31,8.34-1.96,11.38-4.8,3.47-3.25,5.38-7.81,5.38-12.85v-13.19c0-4.86-1.8-9.34-5.08-12.63-3.27-3.26-7.74-5.06-12.48-5.06l-1.93-.02.06-3.09c0-.38,0-.75-.03-1.13-.29-4.39-1.74-8.12-4.33-11.12-1.84-2.12-6-5.67-13.18-5.67h-17.4c-6.67,0-10.79,2.91-13.07,5.35-3.1,3.32-4.68,7.83-4.46,12.74l.02,2.37-1.77-.02c-4.86,0-9.34,1.8-12.62,5.06-.47.47-.91.96-1.31,1.48-2.53-1.53-5.21-2.87-8.01-3.99-6.63-2.65-13.79-4-21.27-4s-14.64,1.35-21.26,4c-5.33,2.13-10.18,5.02-14.48,8.61l.64-20c.21-6.47-2.45-10.63-4.72-12.98-2.27-2.35-6.34-5.15-12.81-5.15h-17.69c-10.16,0-17.54,7.44-17.54,17.68v16.37l-15.74-24.21c-1.71-2.56-3.91-4.78-6.54-6.6-3.47-2.41-7.5-3.68-11.65-3.68h-14.79c-10.16,0-17.54,7.44-17.54,17.68,0,.08,1.74,99.91,1.74,99.91.02,3.36.86,6.41,2.33,9-3.22.13-6.53.34-9.94.62-5.78.4-10.78,2.32-14.87,5.69-2.96,2.44-7.89,8.04-7.61,17.98l1.59,96.63c.07,10.18,7.36,17.55,17.3,17.55,0,0,21.37.15,22,.15,9.4,0,17.87-.75,25.19-2.23,8.42-1.71,15.35-4.18,21.16-7.56,3.8-2.21,7.09-4.78,9.85-7.69.7.83,1.43,1.64,2.18,2.43,4.76,4.96,10.45,8.81,16.9,11.45,6.32,2.58,13.14,3.89,20.27,3.89,6.65,0,12.84-1.35,18.46-4.02,2.53,1.37,5.52,2.13,8.8,2.13h14.21c7.14,0,12.91-3.61,15.76-9.27,3.57,2.96,7.55,5.37,11.91,7.2,6.22,2.62,13.01,3.95,20.18,3.95s13.82-1.37,19.82-4.06c2.55,1.4,5.56,2.18,8.89,2.18h14.21c3.7,0,7.03-.97,9.78-2.69,4.75,3.95,10.54,6.03,16.89,6.03,7.21,0,13.71-2.68,18.78-7.75,5.07-5.07,7.75-11.56,7.75-18.78,0-5.6-1.61-10.77-4.71-15.18,2.25-2.87,3.59-6.54,3.69-10.69l4.33-68.56Z"/><path class="cls-3" d="M135.16,238.32c-2.9,0-4.35-1.45-4.35-4.35l-1.74-99.76c0-2.9,1.4-4.35,4.21-4.35h14.79c1.45,0,2.8.43,4.06,1.31,1.25.87,2.27,1.88,3.05,3.05l40.16,61.77v-61.33c0-2.9,1.4-4.35,4.21-4.35h17.69c2.9,0,4.3,1.45,4.2,4.35l-3.19,99.76c-.19,2.9-1.64,4.35-4.35,4.35h-13.92c-1.35,0-2.66-.36-3.91-1.09-1.26-.72-2.32-1.81-3.19-3.26l-38.13-60.32-1.02,59.88c0,2.9-1.45,4.35-4.35,4.35h-14.21ZM240.29,229.19c-3.77-3.67-6.74-8.09-8.92-13.27-2.18-5.17-3.26-11-3.26-17.47s1.09-12.33,3.26-17.55c2.17-5.22,5.15-9.69,8.92-13.41,3.77-3.72,8.19-6.6,13.27-8.63,5.07-2.03,10.51-3.05,16.31-3.05s11.24,1.01,16.31,3.05c5.07,2.03,9.5,4.91,13.27,8.63,3.77,3.72,6.74,8.19,8.92,13.41,2.18,5.22,3.26,11.07,3.26,17.55s-1.11,12.32-3.33,17.54c-2.13,5.13-5.07,9.5-8.85,13.12-3.77,3.62-8.19,6.4-13.27,8.34-5.07,1.93-10.51,2.9-16.31,2.9s-11.24-.97-16.31-2.9-9.5-4.69-13.27-8.26ZM250.87,200.48c0,6.09,1.86,11,5.58,14.72,3.72,3.72,8.53,5.58,14.43,5.58,2.9,0,5.56-.48,7.98-1.45,2.51-.97,4.64-2.34,6.38-4.13,1.74-1.79,3.12-3.91,4.13-6.38,1.01-2.46,1.52-5.24,1.52-8.34s-.51-5.75-1.52-8.26c-1.02-2.51-2.39-4.66-4.13-6.45-1.74-1.79-3.84-3.16-6.31-4.13-2.46-.97-5.15-1.45-8.05-1.45-6.09,0-10.95,1.86-14.57,5.58-3.63,3.72-5.44,8.63-5.44,14.72ZM333.96,238.47c-2.9,0-4.35-1.45-4.35-4.35l-.87-53.65-15.66.29c-1.35,0-2.42-.39-3.19-1.16-.77-.77-1.16-1.83-1.16-3.19v-14.79c0-1.35.39-2.42,1.16-3.19.77-.77,1.84-1.16,3.19-1.16l15.22.14-.14-16.24c-.2-2.9,1.21-4.35,4.21-4.35h17.4c1.45,0,2.49.36,3.12,1.09.63.73.99,1.81,1.09,3.26l-.29,16.53,15.37.14c1.35,0,2.42.39,3.19,1.16.77.77,1.16,1.84,1.16,3.19v13.19c0,1.35-.39,2.39-1.16,3.12-.77.72-1.84,1.14-3.19,1.23l-15.66.29-.87,54.09c0,2.9-1.45,4.35-4.35,4.35h-14.21ZM106.38,368.25c-2.71,0-4.06-1.45-4.06-4.35l-1.6-96.72c-.1-3.38.82-5.87,2.76-7.47,1.93-1.6,4.4-2.49,7.4-2.68,23.97-2.03,41.95-.02,53.94,6.02,11.99,6.04,17.98,15.64,17.98,28.78,0,3.19-.49,6.21-1.45,9.06-.97,2.85-2.37,5.44-4.2,7.76-1.84,2.32-4.01,4.3-6.53,5.94-2.51,1.65-5.27,2.81-8.26,3.48,2.9.58,5.53,1.55,7.9,2.9,2.37,1.36,4.37,2.95,6.02,4.79,1.64,1.84,2.9,3.82,3.77,5.95.87,2.13,1.3,4.25,1.3,6.38,0,4.74-1.11,8.99-3.33,12.76-2.22,3.77-5.58,6.96-10.08,9.57-4.5,2.61-10.2,4.62-17.11,6.02-6.91,1.4-15.01,2.05-24.29,1.96l-20.15-.14ZM125.38,351.29h10.59c6.47,0,11.62-1.28,15.44-3.84,3.82-2.56,5.73-5.92,5.73-10.08,0-2.13-.56-3.99-1.67-5.58-1.11-1.6-2.64-2.92-4.57-3.99-1.94-1.06-4.23-1.86-6.89-2.39-2.66-.53-5.58-.8-8.77-.8h-9.57l-.29,26.68ZM126.25,307.06h8.99c3.38,0,6.5-.31,9.35-.94,2.85-.63,5.32-1.52,7.4-2.68,2.08-1.16,3.7-2.58,4.86-4.28,1.16-1.69,1.74-3.6,1.74-5.73,0-4.93-2.83-8.55-8.48-10.87-5.66-2.32-13.56-2.8-23.71-1.45l-.14,25.96ZM251.09,366.8c-2.61,0-3.91-1.16-3.91-3.48v-6.67c-2.03,3.48-5.13,6.35-9.28,8.63-4.16,2.27-8.84,3.41-14.06,3.41s-10.49-.97-15.23-2.9-8.84-4.71-12.32-8.34c-3.48-3.62-6.24-8.02-8.26-13.19-2.03-5.17-3.05-11-3.05-17.47s1.02-12.33,3.05-17.55c2.03-5.22,4.79-9.64,8.26-13.27,3.48-3.62,7.59-6.43,12.32-8.41,4.74-1.98,9.81-2.92,15.23-2.83,2.42,0,4.76.32,7.03.94,2.27.63,4.35,1.45,6.24,2.47,1.88,1.01,3.55,2.25,5,3.7,1.45,1.45,2.51,3,3.19,4.64v-5.94c-.2-2.9,1.21-4.35,4.2-4.35h17.69c2.8,0,4.21,1.45,4.21,4.35l-1.74,71.92c0,2.9-1.45,4.35-4.35,4.35h-14.21ZM214.26,343.6c3.38,3.68,7.98,5.51,13.77,5.51s10.51-1.86,13.85-5.58c3.33-3.72,5-8.63,5-14.72s-1.62-11-4.86-14.72c-3.24-3.72-7.9-5.58-13.99-5.58s-10.39,1.86-13.77,5.58c-3.39,3.72-5.07,8.63-5.07,14.72s1.69,11.02,5.07,14.79ZM341.86,366.8c-2.61,0-3.91-1.16-3.91-3.48v-6.67c-1.94,3.67-5.15,6.6-9.64,8.77-4.49,2.17-9.55,3.26-15.15,3.26s-10.42-.97-15.01-2.9c-4.59-1.93-8.55-4.71-11.89-8.34s-5.92-8.02-7.76-13.19c-1.84-5.17-2.76-11-2.76-17.47s.92-12.3,2.76-17.47c1.83-5.17,4.42-9.57,7.76-13.19,3.33-3.63,7.3-6.43,11.89-8.41,4.59-1.98,9.59-2.97,15.01-2.97,5.7,0,10.58,1.09,14.65,3.26,4.06,2.17,6.76,4.91,8.12,8.19l-.44-36.54c-.19-2.9,1.21-4.35,4.21-4.35h18.27c2.8,0,4.21,1.45,4.21,4.35l-1.74,102.8c0,2.9-1.45,4.35-4.35,4.35h-14.21ZM305.32,343.6c1.74,1.74,3.75,3.09,6.02,4.06,2.27.97,4.76,1.45,7.47,1.45s5.22-.48,7.54-1.45c2.32-.97,4.3-2.34,5.94-4.13,1.64-1.79,2.95-3.91,3.92-6.38.97-2.46,1.45-5.24,1.45-8.34,0-6.09-1.72-11-5.15-14.72-3.43-3.72-8-5.58-13.7-5.58-2.71,0-5.2.48-7.47,1.45-2.27.97-4.25,2.35-5.94,4.13-1.69,1.79-3.02,3.94-3.99,6.45-.97,2.51-1.45,5.27-1.45,8.26s.48,5.87,1.45,8.34c.97,2.47,2.27,4.62,3.91,6.45ZM376.37,334.9c-2.9,0-4.35-1.45-4.35-4.35l-4.64-68.88c0-2.9,1.4-4.35,4.2-4.35h23.49c2.9,0,4.3,1.45,4.2,4.35l-4.35,68.88c0,2.9-1.45,4.35-4.35,4.35h-14.21ZM382.75,370.14c-3.68,0-6.79-1.28-9.35-3.84-2.56-2.56-3.84-5.68-3.84-9.35s1.28-6.79,3.84-9.35c2.56-2.56,5.68-3.84,9.35-3.84s6.79,1.28,9.35,3.84c2.56,2.56,3.84,5.68,3.84,9.35s-1.28,6.79-3.84,9.35c-2.56,2.56-5.68,3.84-9.35,3.84Z"/></g></svg>