<?xml version="1.0" encoding="UTF-8"?>
<svg xmlns="http://www.w3.org/2000/svg" version="1.1" xmlns:xlink="http://www.w3.org/1999/xlink" viewBox="0 0 500 500">
  <defs>
    <style>
      .cls-1 {
        fill: url(#_무제_그라디언트);
      }

      .cls-2 {
        fill: #fff;
      }

      .cls-3 {
        fill: none;
      }
    </style>
    <linearGradient id="_무제_그라디언트" data-name="무제 그라디언트" x1="250" y1="373.1" x2="250" y2="126.9" gradientUnits="userSpaceOnUse">
      <stop offset="0" stop-color="#2b377f"/>
      <stop offset="1" stop-color="#056bd3"/>
    </linearGradient>
  </defs>
  <!-- Generator: Adobe Illustrator 28.6.0, SVG Export Plug-In . SVG Version: 1.2.0 Build 709)  -->
  <g>
    <g id="_레이어_2">
      <circle class="cls-2" cx="163.4" cy="221.2" r="59"/>
      <circle class="cls-2" cx="324" cy="126.9" r="31.2"/>
      <circle class="cls-2" cx="82.1" cy="387.1" r="31.2"/>
      <circle class="cls-2" cx="64.2" cy="88.9" r="17.9"/>
      <circle class="cls-2" cx="426.4" cy="121.6" r="9.2"/>
      <circle class="cls-2" cx="435.2" cy="333.3" r="17.9"/>
      <rect class="cls-3" width="500" height="500"/>
      <g>
        <path class="cls-2" d="M317.1,387.1c-8.6,0-16.9-1.5-24.6-4.4-7.8-3-14.7-7.3-20.6-12.9h-.1c-5.3-5.3-9.6-11.4-12.8-18.3-2.3,3.9-4.9,7.6-7.9,10.9-6.5,7.4-14.8,13.4-24.4,17.7-9.6,4.3-20.6,6.4-32.6,6.4s-21.7-2-31.4-5.9c-9.7-4-18.2-9.6-25.3-16.8-7.1-7.2-12.7-15.8-16.7-25.6-4-9.8-6-20.7-6-32.3s2-22.5,5.8-32.4c3.9-9.9,9.4-18.7,16.4-26.1,3.7-4,7.8-7.5,12.3-10.5-4.2-1.4-8.2-3.3-11.8-5.7-.4.8-.9,1.5-1.3,2.3-3.7,6.2-8.6,8.4-12.2,9.1-1.2.2-2.5.4-3.8.4-2.6,0-5.2-.5-7.7-1.6-8.2-3.3-15.6-8.1-21.9-14.2-.3-.3-.6-.6-.9-.8,0,.1,0,.2,0,.3,1.1,10.2-5.6,18.4-15.8,19.5-4.2.5-8.4,1-12.6,1.5-.9.1-1.7.2-2.5.2-9.1,0-16.2-6.4-17.4-15.5-4-27.7-8-55.6-11.9-82.9-1.6-10.1,3.1-16.2,6-19,3.6-3.4,8.1-5.7,13.5-6.8h.2c10.8-2.2,20.8-3.3,29.8-3.3s1.6,0,2.4,0c10.1.2,19.1,1.8,26.7,4.7,8.4,3.2,15.1,8.1,20,14.5,2.2,2.9,4,6,5.4,9.3,3.2-2.6,6.8-4.8,10.8-6.6,6.2-2.8,12.9-4.4,20.1-4.8,1.2,0,2.5,0,3.7,0,6,0,11.7.8,17,2.4,6.6,2,12.4,5.2,17.2,9.4,1.2,1,2.3,2.1,3.4,3.3.7-.8,1.3-1.5,2-2.2,4.5-4.6,9.9-8.3,16.1-10.8,6-2.4,12.4-3.7,19.1-3.7h.6c3.4,0,6.8.4,10,1.3,1.9.5,3.8,1.1,5.6,1.8,2.2-1,4.9-1.8,8.3-1.8h.2c5.5,0,11.2.1,16.7.2,6.5.1,10.5,3,12.8,5.4.8.8,1.5,1.7,2,2.6,3-2,6.3-3.7,9.8-4.9,5.3-1.9,11-2.9,17-2.9s1.7,0,2.6,0c2.5.1,4.9.4,7.2.8l.4-8.2c0-4.7,1.8-9,4.9-12.1,3.2-3.3,7.8-5.1,12.8-5.1s.9,0,1.4,0c5.8.4,11.7.8,17.5,1.2,6.5.5,10.4,3.5,12.6,6,3,3.5,4.5,8.1,4.1,13.1,0,0-.6,6.4-.9,9.4,4.9.4,9.7.8,14.6,1.3,7.5.7,11.5,4.8,13.2,7.1,1.9,2.6,2.9,5.6,3.1,8.8,2.1-7.4,8.6-12.4,16.8-12.4s1.6,0,2.5.1c5.5.6,11.1,1.3,16.6,2,6.4.8,10.2,4.1,12.2,6.7,2.8,3.6,4.1,8.4,3.4,13.3v.3c-2.6,16.8-5.1,33.5-7.6,50.3-1.2,7.6-3.4,14.5-6.5,20.6-3.3,6.4-7.7,11.9-12.9,16.2-5.3,4.4-11.5,7.5-18.4,9.4-4.4,1.2-9.1,1.8-13.9,1.8s-5.3-.2-8.1-.5c-6.7-.9-13.1-2.9-18.9-5.9-5.8-3-11-6.9-15.4-11.5-2.5-2.6-4.2-5.7-4.9-9.1,0-.4-.1-.7-.2-1.1-.1,0-.3,0-.5,0-.5,0-1,0-1.5,0-4.2-.3-8.4-.6-12.6-.8-2.9-.2-5.6-1-7.9-2.2-4.8,1.7-9.9,2.5-15.2,2.5s-1.6,0-2.5,0c-6.6-.3-12.9-1.8-18.5-4.4-3.5-1.6-6.7-3.6-9.6-5.9-3.2,4.5-8.4,7.3-14.6,7.3h-.4c-4.2,0-8.4-.1-12.6-.2-2.9,0-5.5-.6-7.9-1.7-5,2.2-10.5,3.3-16.4,3.3h-.3c-1,0-2.1,0-3.1,0,6.7,4.7,12.3,10.2,16.6,16.6,2.4,3.5,3.7,7.5,3.7,11.7s-2.7,11-7.4,14.5l-4.4,3.4c5,.5,9.3,2.2,12.8,5,2.8-5,6.3-9.5,10.3-13.4,5.9-5.8,12.8-10.3,20.6-13.4,7.7-3.1,16.1-4.7,24.8-4.7s17.1,1.6,24.8,4.7c7.8,3.1,14.7,7.6,20.6,13.4,5.8,5.8,10.5,12.7,13.8,20.7,3.3,8,5,16.9,5,26.5s-1.7,18.6-5.1,26.5c-3.3,7.9-7.9,14.8-13.8,20.4-5.9,5.6-12.8,10-20.7,13-7.7,2.9-16,4.4-24.6,4.4ZM209.8,225.1c-.1-.1-.2-.2-.3-.3,0,0-.1.1-.2.2.2,0,.4,0,.5,0Z"/>
        <path class="cls-1" d="M197.2,323.9c-2.9,0-4.4-1.5-4.4-4.4v-17.8c0-2.9,1.5-4.4,4.4-4.4l48.7.3c3,0,5.3.7,6.9,2.1,1.6,1.4,2.5,3.9,2.7,7.5.5,8.8-.6,17.2-3.1,25.1-2.6,7.9-6.5,14.8-11.7,20.8s-11.8,10.6-19.6,14.1c-7.8,3.5-16.8,5.2-26.9,5.2s-18.1-1.6-26.1-4.9c-8-3.3-14.9-7.8-20.7-13.7-5.8-5.9-10.4-12.9-13.7-21-3.3-8.1-5-17.1-5-27s1.6-19,4.9-27.3c3.3-8.3,7.8-15.5,13.5-21.6,5.8-6.1,12.5-10.9,20.2-14.3,7.7-3.4,16.1-5.1,25-5.1s23,2.3,32.1,6.9c9.1,4.6,16,10.5,20.9,17.7.8,1.2,1.2,2.4,1.2,3.7s-.6,2.5-1.9,3.4l-16,12.6c-1.2.9-2.5,1.4-4,1.5-1.5,0-2.7-.6-3.7-2-2.4-3.6-5.8-6.6-10.2-8.9-4.4-2.3-10.1-3.5-17.2-3.5s-9.2.9-13.3,2.8c-4.1,1.9-7.6,4.5-10.7,7.9-3.1,3.4-5.5,7.5-7.2,12.3-1.7,4.8-2.6,10-2.6,15.7s.9,11,2.8,15.7c1.9,4.7,4.4,8.6,7.7,11.9,3.3,3.3,7,5.8,11.3,7.6,4.3,1.8,8.9,2.7,13.8,2.7s8.4-.6,12-1.7c3.6-1.2,6.8-2.8,9.5-4.8,2.7-2,5-4.4,6.7-7,1.7-2.6,3-5.4,3.8-8.5l-30.2.3ZM281.6,359.6c-4.5-4.4-8.1-9.7-10.7-16-2.6-6.2-3.9-13.2-3.9-21s1.3-14.8,3.9-21.1c2.6-6.3,6.2-11.7,10.7-16.1,4.5-4.5,9.9-7.9,16-10.4,6.1-2.4,12.6-3.7,19.6-3.7s13.5,1.2,19.6,3.7c6.1,2.4,11.4,5.9,16,10.4,4.5,4.5,8.1,9.9,10.7,16.1,2.6,6.3,3.9,13.3,3.9,21.1s-1.3,14.8-4,21.1c-2.6,6.2-6.1,11.4-10.6,15.8-4.5,4.4-9.9,7.7-16,10-6.1,2.3-12.6,3.5-19.6,3.5s-13.5-1.2-19.6-3.5c-6.1-2.3-11.4-5.6-16-9.9ZM294.3,325.1c0,7.3,2.2,13.2,6.7,17.7,4.5,4.5,10.3,6.7,17.4,6.7s6.7-.6,9.6-1.7c3-1.2,5.6-2.8,7.7-5,2.1-2.1,3.8-4.7,5-7.7s1.8-6.3,1.8-10-.6-6.9-1.8-9.9c-1.2-3-2.9-5.6-5-7.8-2.1-2.1-4.6-3.8-7.6-5-3-1.2-6.2-1.7-9.7-1.7-7.3,0-13.2,2.2-17.5,6.7-4.4,4.5-6.5,10.4-6.5,17.7ZM59.6,233.8c-2.6.3-4-.8-4.4-3.3-4-27.7-7.9-55.4-11.9-83.1-.5-2.9.1-5.2,1.8-6.8,1.7-1.6,3.9-2.7,6.7-3.3,10.9-2.2,20.6-3.1,29.2-2.9,8.6.2,15.9,1.5,21.9,3.8,6,2.3,10.7,5.7,14,10,3.3,4.3,5.2,9.5,5.7,15.5.5,6.4-.7,12-3.6,17-2.9,4.9-7.2,9-12.8,12.3,3,4.1,6.2,7.4,9.7,10.1,3.5,2.6,7.5,4.8,11.8,6.5,1.7.7,2.7,1.7,3.1,2.8.3,1.2.1,2.3-.5,3.2-2.2,3.6-4.3,7.3-6.5,10.9-.8,1.4-1.8,2.3-2.9,2.5-1.1.2-2.2,0-3.4-.4-6.6-2.6-12.4-6.3-17.4-11.3-5-4.9-9.2-10.8-12.4-17.8-4.4,1-9.2,1.5-14.6,1.7.8,9,1.7,18,2.5,27,.3,2.5-.9,4-3.5,4.3-4.2.5-8.5,1-12.7,1.5ZM70.8,183.6c4.7,0,8.9-.5,12.6-1.2,3.8-.7,6.9-1.7,9.5-3.1,2.6-1.4,4.5-3,5.8-5.1,1.3-2,1.8-4.4,1.6-7.2-.3-2.8-1.2-5.1-2.8-6.9-1.6-1.8-3.8-3.1-6.7-3.9-2.8-.8-6.2-1.2-10-1.2-3.8,0-8.1.6-12.7,1.6.9,8.9,1.8,17.9,2.7,26.8ZM152.8,198.7c.9,3.6,3.1,6.4,6.6,8.2,3.4,1.9,7.5,2.7,12.2,2.3,3.6-.3,6.8-.8,9.5-1.7,2.8-.8,5.4-2,7.7-3.6,2.7-1.6,4.6-1.5,5.9.3,1.6,2,3.2,4.1,4.8,6.1.5.8.8,1.6.8,2.5,0,.9-.5,1.8-1.5,2.8-3.7,3.2-7.8,5.6-12.3,7.2-4.5,1.6-9.7,2.6-15.7,2.9-5.6.3-10.8-.3-15.7-1.7-4.8-1.4-9.1-3.6-12.8-6.5-3.7-2.9-6.7-6.6-9-11-2.3-4.4-3.6-9.4-4.1-15.1-.4-5.7.1-10.9,1.7-15.6,1.6-4.7,4-8.9,7.2-12.4,3.2-3.5,7.1-6.3,11.7-8.4,4.6-2.1,9.6-3.3,15.1-3.6,5.8-.3,11.1.3,15.8,1.7,4.7,1.5,8.8,3.7,12.1,6.6,3.4,2.9,6,6.4,7.8,10.4,1.9,4,3,8.5,3.3,13.3.2,3.1-.6,5.9-2.3,8.3-1.7,2.4-4.5,3.6-8.3,3.9-13.6.8-27.1,1.8-40.7,3ZM184.3,179.9c-.7-3.5-2.7-6.2-6-8.3-3.3-2.1-7.2-2.9-11.7-2.5-4.8.4-8.6,2-11.2,4.6-2.6,2.6-4,5.7-4.3,9.2,11-1.1,22.1-2.1,33.2-3ZM268,222.2c-2.3,0-3.5-1.1-3.5-3.1,0-2,0-3.9,0-5.9-1.9,3.1-4.7,5.6-8.4,7.6-3.7,2-7.9,3-12.6,3-4.9,0-9.4-.8-13.7-2.4-4.3-1.6-8-4-11.2-7.2-3.2-3.1-5.8-6.9-7.7-11.5-2-4.5-3-9.6-3.2-15.3-.2-5.7.6-10.9,2.4-15.5,1.8-4.6,4.2-8.6,7.4-11.9,3.2-3.3,7-5.8,11.4-7.6,4.4-1.8,9.2-2.7,14.2-2.6,2.3,0,4.5.3,6.6.8,2.1.6,4.1,1.3,5.8,2.2,1.8.9,3.3,2,4.7,3.3,1.3,1.3,2.3,2.7,3,4.1,0-1.7,0-3.5,0-5.2-.2-2.6,1.2-3.8,4-3.8,5.5,0,11.1.1,16.6.2,2.6,0,3.9,1.4,3.9,3.9-1,21.1-2,42.2-3,63.3,0,2.6-1.4,3.8-4,3.8-4.2,0-8.5-.1-12.7-.2ZM234.7,201.7c3.1,3.2,7.3,4.8,12.5,4.8,5.3,0,9.5-1.6,12.6-4.9,3-3.3,4.6-7.6,4.7-12.9,0-5.4-1.4-9.7-4.4-13-3-3.3-7.3-5-12.9-4.9-5.4,0-9.6,1.7-12.7,5-3.1,3.3-4.6,7.7-4.5,13,0,5.4,1.7,9.7,4.8,13ZM350.1,225.2c-2.3-.1-3.4-1.2-3.3-3.3.1-2,.2-3.9.4-5.9-1.9,3.1-5,5.5-9.1,7.2-4.1,1.7-8.7,2.4-13.7,2.2-4.8-.2-9.3-1.3-13.3-3.1-4.1-1.9-7.5-4.4-10.4-7.7-2.9-3.3-5.1-7.2-6.7-11.8-1.5-4.6-2.3-9.8-2.1-15.5.1-5.7,1.1-10.8,2.9-15.3,1.8-4.5,4.3-8.3,7.5-11.4,3.2-3.1,7-5.4,11.4-7,4.4-1.6,9.1-2.3,14.2-2,5.3.2,9.9,1.4,13.6,3.6,3.7,2.1,6.1,4.7,7.2,7.6.5-10.7,1-21.5,1.5-32.2,0-2.6,1.4-3.8,4.2-3.6,5.8.4,11.6.7,17.4,1.2,2.7.2,3.9,1.6,3.7,4.1-2.8,30.1-5.6,60.2-8.3,90.2-.2,2.6-1.6,3.7-4.2,3.5-4.2-.3-8.5-.6-12.7-.9ZM318.2,203c1.5,1.6,3.3,2.9,5.3,3.8,2,.9,4.2,1.5,6.7,1.6,2.4.1,4.7-.2,6.9-.9,2.1-.7,4-1.8,5.6-3.3,1.6-1.5,2.9-3.3,3.9-5.4,1-2.1,1.6-4.5,1.8-7.3.3-5.4-1-9.8-4-13.2-3-3.5-7.1-5.3-12.4-5.6-2.5-.1-4.8.2-7,.9-2.1.8-4,1.9-5.7,3.4-1.6,1.5-2.9,3.4-3.9,5.5-1,2.2-1.5,4.6-1.6,7.2-.1,2.7.2,5.2,1,7.4.8,2.2,1.9,4.1,3.3,5.8ZM383.2,229.7c1.6-1.9,3.4-2.1,5.5-.6,2.5,1.8,5.2,3.4,8,4.7,2.8,1.3,5.9,2.1,9.4,2.3,3.4.3,6.5,0,9.2-1,2.7-.9,4.9-2.3,6.8-4.1,1.9-1.8,3.4-4,4.5-6.6,1.1-2.6,1.8-5.5,2-8.6-1.6,2.8-4.3,5-8,6.5-3.7,1.5-7.9,2-12.8,1.6-7.9-.7-14.3-3.1-19.3-7.3-5-4.2-8-9.6-8.9-16.4-1-7.2-1.2-14-.6-20.5.6-6.5,1.5-13,2.8-19.6.3-1.3.7-2.2,1.4-2.8.6-.6,1.6-.8,3-.7,5.2.4,10.4.9,15.6,1.4,2.9.3,4,1.7,3.4,4.2-1.2,5.3-2.2,10.6-3,15.8-.8,5.3-1,10-.7,14.1.4,3.9,1.8,6.9,4.4,9,2.5,2.1,5.6,3.3,9.2,3.6,1.9.2,3.8,0,5.6-.4,1.8-.5,3.4-1.3,4.8-2.4,1.4-1.1,2.6-2.4,3.5-3.9.9-1.5,1.5-3.3,1.6-5.2.7-9.2,1.4-18.4,2.1-27.7.1-2.6,1.6-3.7,4.3-3.4,5.5.6,11,1.3,16.5,2,2.6.3,3.8,1.8,3.4,4.3-2.5,16.8-5,33.5-7.6,50.3-.9,6.1-2.7,11.5-5.1,16.2-2.5,4.8-5.6,8.7-9.4,11.8-3.8,3.1-8.2,5.3-13.2,6.7-5,1.4-10.5,1.7-16.5.9-5.1-.7-9.8-2.2-14.3-4.4-4.4-2.3-8.3-5.2-11.7-8.7-.7-.7-1.2-1.5-1.4-2.4-.2-.9.1-1.8.9-2.8,1.5-1.9,3.1-3.8,4.6-5.8Z"/>
      </g>
    </g>
  </g>
</svg>