<?xml version="1.0" encoding="UTF-8"?><svg id="_레이어_2" xmlns="http://www.w3.org/2000/svg" xmlns:xlink="http://www.w3.org/1999/xlink" viewBox="0 0 500 500"><defs><style>.cls-1{fill:#fff;}.cls-2{fill:none;}.cls-3{fill:url(#_무제_그라디언트_106);}</style><linearGradient id="_무제_그라디언트_106" x1="250.01" y1="319.8" x2="250.01" y2="180.2" gradientUnits="userSpaceOnUse"><stop offset="0" stop-color="#2b377f"/><stop offset="1" stop-color="#056bd3"/></linearGradient></defs><g id="_레이어_1-2"><path class="cls-1" d="M471.41,210.55c-1.84-2.62-5.36-5.94-11.68-6.92-7.45-1.16-15-2.27-22.46-3.3-.93-.13-1.86-.19-2.76-.19-8.55,0-15.33,6-16.5,14.59l-.07.48-.03.48c-.38,6.33-.78,12.67-1.18,19.01-4.22-4.9-9.42-8.93-15.47-11.96-5.96-2.99-12.54-4.86-19.53-5.55-1.96-.19-3.92-.29-5.84-.29-4.93,0-9.78.64-14.4,1.91-6.55,1.8-12.47,4.75-17.59,8.78-.31.25-.59.53-.9.79-.52-3.07-1.81-5.89-3.82-8.15-2.07-2.33-5.82-5.18-11.96-5.53-5.57-.32-11.14-.61-16.73-.86-.33-.01-.66-.02-.98-.02-3,0-5.46.63-7.46,1.53-4.92-2.28-10.59-3.51-16.9-3.68-.54-.01-1.08-.02-1.62-.02-5.97,0-11.68.89-16.98,2.66-5.99,2-11.29,5.03-15.75,9-2.03,1.81-3.82,3.83-5.44,6-2.03-3.52-4.53-6.65-7.5-9.27-3.31-2.91-7.19-5.18-11.54-6.72-3.96-1.41-8.25-2.12-12.74-2.12-.4,0-.81,0-1.22.02-2.54.07-5.24.42-8.04,1.04-2.98.67-5.92,1.71-8.75,3.11-2.17-.96-4.59-1.49-7.16-1.49-.31,0-.62,0-.94.02-4.85.22-9.7.49-14.55.76l6.6-6.6c9.36-9.36,9.36-24.58,0-33.93-4.53-4.53-10.56-7.03-16.97-7.03s-12.44,2.5-16.96,7.02l-4.84,4.84c-4.11-3.07-9.08-4.72-14.3-4.72-6.41,0-12.44,2.5-16.96,7.02-4.53,4.53-7.03,10.56-7.03,16.97,0,1.06.09,2.1.23,3.13-6.63-2.13-14.36-3.23-23.04-3.23-10.34,0-22.24,1.53-35.15,4.51-5.38,1.15-9.86,3.52-13.28,7.04-4.64,4.75-6.45,11.29-5.11,18.24,4.88,27.56,9.72,55.12,14.5,82.47,1.35,8.55,7.86,14.29,16.21,14.29.94,0,1.91-.08,2.78-.21,5.85-.86,11.7-1.68,17.52-2.45,9.17-1.19,16.89-2.84,23.59-5.04,7.34-2.41,13.26-5.28,18.1-8.76,2.34-1.69,4.42-3.52,6.25-5.48,2.38,6.42,8.26,10.59,15.55,10.59.55,0,1.13-.03,1.73-.08,4.15-.36,8.3-.69,12.45-1.01,4.65-.35,8.56-2.27,11.32-5.22,2.86,2.34,6.57,3.7,10.78,3.7.38,0,.77-.01,1.17-.03,4.16-.24,8.32-.46,12.46-.66,6.91-.32,12.33-4.1,14.77-9.73.64,1.24,1.44,2.38,2.39,3.41,3.07,3.31,7.47,5.13,12.39,5.13h.49c4.88-.12,9.76-.21,14.63-.26,3.09-.03,5.95-.78,8.39-2.15.06,1.24.26,2.47.63,3.69.94,3.13,2.78,6,5.27,8.23,4.61,4.18,9.92,7.56,15.78,10.05,5.88,2.49,12.16,3.96,18.71,4.36,1.26.07,2.5.11,3.72.11h0c6.25,0,12.15-.95,17.54-2.84,6.58-2.3,12.36-5.76,17.18-10.29,4.82-4.51,8.69-10.06,11.53-16.5.81-1.84,1.5-3.77,2.13-5.74.71.9,1.41,1.81,2.19,2.67,4.22,4.55,9.32,8.26,15.18,11.05,5.7,2.7,11.93,4.4,18.52,5.05,1.97.19,3.94.29,5.87.29h0c4.53,0,9-.55,13.29-1.62,6.29-1.58,12.05-4.26,17.12-7.97.37-.27.71-.59,1.07-.87.8,3.25,2.28,6.33,4.44,9.12,4.03,5.2,9.63,8.46,16.21,9.42,1.28.19,2.57.28,3.83.28,5.16,0,10.14-1.61,14.4-4.65,5.47-3.92,8.91-9.49,9.95-16.12.74-4.76.12-9.35-1.77-13.56,2.14-2.29,3.66-5.24,4.29-8.69,4.3-19.2,8.74-38.73,13.19-58.07l.09-.43c.91-4.67,0-9.24-2.55-12.87Z"/><path class="cls-3" d="M430.55,280.62c-2.61-.37-3.74-1.79-3.4-4.29,1.34-19.94,2.62-39.88,3.83-59.83.34-2.49,1.83-3.57,4.49-3.2,7.42,1.03,14.84,2.12,22.24,3.27,2.75.43,3.87,1.88,3.39,4.36-4.49,19.47-8.91,38.95-13.28,58.45-.39,2.49-1.88,3.53-4.49,3.13-4.26-.65-8.52-1.27-12.79-1.88ZM431.86,311.71c-3.23-.47-5.81-1.96-7.76-4.48-1.95-2.52-2.72-5.35-2.29-8.51.43-3.16,1.94-5.69,4.53-7.57,2.59-1.88,5.54-2.59,8.83-2.11,3.29.48,5.91,2,7.86,4.55,1.94,2.55,2.66,5.4,2.17,8.55-.49,3.15-2.04,5.65-4.63,7.5-2.59,1.85-5.49,2.54-8.72,2.07ZM121.16,277.07c-.18-1.84-.76-3.63-1.74-5.39-.98-1.76-2.29-3.35-3.95-4.78-1.66-1.43-3.63-2.62-5.92-3.55-2.29-.93-4.79-1.5-7.49-1.7,2.67-.89,5.07-2.17,7.22-3.84,2.15-1.67,3.96-3.59,5.44-5.77,1.48-2.17,2.55-4.54,3.19-7.1.64-2.55.84-5.2.56-7.96-1.12-11.35-7.56-19.11-19.5-23.06-11.92-3.93-29.31-3.62-51.75,1.54-2.81.6-5.03,1.72-6.64,3.38-1.61,1.65-2.14,3.92-1.59,6.81,4.88,27.57,9.72,55.14,14.54,82.72.39,2.49,1.78,3.54,4.15,3.17,5.91-.87,11.83-1.7,17.75-2.48,8.18-1.06,15.23-2.54,21.19-4.49,5.95-1.96,10.8-4.26,14.54-6.95,3.74-2.69,6.44-5.76,8.1-9.22,1.65-3.46,2.28-7.23,1.87-11.33ZM64.83,234.01c9.31-2.49,16.77-3.01,22.29-1.66,5.53,1.35,8.53,4.18,9.02,8.43.21,1.83-.13,3.54-1.03,5.13-.9,1.59-2.25,2.99-4.04,4.22-1.8,1.23-3.97,2.28-6.52,3.15-2.55.88-5.38,1.51-8.49,1.93-2.75.37-5.5.74-8.25,1.13-1-7.44-1.99-14.89-2.99-22.33ZM95.17,288.13c-3.15,2.62-7.6,4.3-13.36,5.07-3.15.42-6.29.85-9.43,1.29-.99-7.66-1.98-15.32-2.96-22.98,2.89-.41,5.79-.8,8.68-1.19,2.89-.39,5.58-.5,8.05-.35,2.47.15,4.64.58,6.5,1.28,1.86.7,3.38,1.68,4.55,2.94,1.17,1.26,1.86,2.8,2.08,4.64.42,3.59-.96,6.68-4.1,9.3ZM141.23,300.23c-2.57.22-3.96-.92-4.19-3.43-2.37-20.64-4.76-41.28-7.18-61.92-.23-2.51.97-3.88,3.59-4.11,5.51-.48,11.02-.93,16.53-1.35,2.71-.2,4.11.96,4.2,3.47,1.04,20.75,2.11,41.5,3.2,62.25.18,2.51-1.01,3.86-3.58,4.06-4.19.32-8.39.66-12.58,1.02ZM177.32,297.63c-2.57.15-3.93-1.03-4.08-3.54-1.77-20.74-3.57-41.49-5.4-62.23-.34-2.51.89-3.84,3.7-4.01,5.52-.32,11.04-.62,16.56-.87,2.08-.1,3.38.69,3.91,2.34.09,2.1.18,4.19.27,6.29.91-1.89,2.17-3.54,3.79-4.95,1.61-1.41,3.38-2.59,5.29-3.55,1.91-.95,3.86-1.64,5.84-2.09,1.98-.44,3.83-.68,5.56-.73,3.35-.09,6.43.36,9.21,1.35,2.78.99,5.21,2.4,7.27,4.21,2.06,1.82,3.78,4,5.16,6.54,1.38,2.55,2.39,5.28,3.04,8.21.75,3.44,1.31,7.1,1.7,11,.38,3.9.59,7.86.62,11.89.03,4.03-.03,8.1-.17,12.21-.14,4.12-.37,8.11-.68,11.97-.16,1.26-.52,2.21-1.07,2.84-.55.64-1.47.96-2.76.97-4.93.06-9.87.14-14.8.26-2.66.06-3.89-1.16-3.7-3.68.5-7.24.82-14.08.97-20.55.14-6.47-.2-12.46-1.05-17.98-.53-3.18-1.85-5.56-4-7.13-2.14-1.58-4.96-2.31-8.44-2.19-3.75.13-6.59,1.26-8.51,3.35-1.92,2.09-2.87,4.45-2.84,7.05.29,12.8.6,25.6.91,38.39.11,2.52-1.12,3.83-3.69,3.95-4.2.2-8.4.42-12.6.66ZM326.48,227.77c-5.52-.32-11.04-.6-16.56-.85-2.81-.13-4.17,1.08-4.1,3.6-.02,1.64-.05,3.27-.07,4.91-1.24-2.65-3.67-5.07-7.3-7.22-3.63-2.15-8.18-3.31-13.62-3.46-5.07-.13-9.79.53-14.11,1.97-4.32,1.45-8.05,3.57-11.18,6.35-3.13,2.79-5.54,6.2-7.25,10.23-1.71,4.02-2.55,8.6-2.55,13.72,0,5.12.84,9.69,2.49,13.72,1.65,4.03,3.97,7.46,6.94,10.29,2.97,2.84,6.5,5.01,10.57,6.55,4.08,1.53,8.52,2.36,13.35,2.48,5.34.14,9.92-.72,13.75-2.59,3.83-1.87,6.68-4.23,8.55-7.09-.03.71-.06,1.42-.09,2.14-.13,3.02-.7,5.75-1.72,8.18-1.01,2.43-2.41,4.54-4.2,6.32-1.79,1.78-3.91,3.12-6.38,4.05-2.47.92-5.28,1.33-8.44,1.25-3.41-.1-6.54-.65-9.38-1.67-2.84-1.02-5.58-2.35-8.22-3.98-2.21-1.37-4.02-1.06-5.41.94-1.39,2-2.77,4.01-4.15,6.01-.69,1-.91,1.92-.66,2.77.25.84.76,1.6,1.51,2.28,3.54,3.21,7.58,5.78,12.1,7.7,4.53,1.92,9.3,3.04,14.34,3.34,5.97.34,11.36-.33,16.2-2.01,4.84-1.69,9.02-4.18,12.55-7.49,3.53-3.31,6.36-7.37,8.49-12.21,2.12-4.84,3.47-10.26,4.01-16.28,1.39-16.65,2.79-33.29,4.21-49.94.15-2.52-1.08-3.85-3.71-4.01ZM304.73,265.69c-.95,1.77-2.25,3.24-3.87,4.44-1.63,1.19-3.48,2.11-5.55,2.75-2.08.64-4.29.92-6.65.85-2.36-.07-4.55-.49-6.59-1.25-2.04-.76-3.81-1.79-5.31-3.08-1.51-1.29-2.73-2.82-3.66-4.61-.85-1.86-1.25-3.88-1.21-6.07.04-2.18.53-4.16,1.5-5.95.97-1.79,2.24-3.29,3.82-4.52,1.58-1.22,3.43-2.17,5.55-2.83,2.12-.66,4.38-.96,6.79-.88,5.09.16,9.22,1.63,12.36,4.4,3.14,2.77,4.6,6.39,4.41,10.83-.1,2.18-.62,4.16-1.58,5.92ZM413.68,255.88c-1.43-4.75-3.69-8.94-6.8-12.57-3.11-3.63-6.93-6.58-11.47-8.86-4.54-2.28-9.53-3.69-14.95-4.22-5.42-.53-10.59-.13-15.49,1.22-4.89,1.34-9.22,3.5-12.97,6.45-3.75,2.95-6.79,6.62-9.11,11-2.33,4.38-3.67,9.38-4.05,14.98-.39,5.62.25,10.73,1.89,15.34,1.64,4.62,4.02,8.65,7.13,12.08,3.12,3.36,6.85,6.06,11.2,8.12,4.35,2.06,9.07,3.34,14.2,3.85,5.12.5,10.01.18,14.68-1,4.67-1.18,8.86-3.12,12.59-5.84,3.72-2.72,6.82-6.16,9.28-10.34,2.56-4.25,4.21-9.15,4.93-14.73.72-5.57.37-10.74-1.05-15.49ZM395.72,270.84c-.3,2.67-1.04,5.01-2.19,7.04-1.16,2.03-2.6,3.72-4.33,5.1-1.74,1.37-3.77,2.35-6.11,2.95-2.25.61-4.67.78-7.27.52-5.28-.52-9.43-2.53-12.49-6.04-3.06-3.52-4.39-7.9-3.94-13.17.45-5.27,2.46-9.38,6.07-12.3,3.61-2.92,8.24-4.12,13.84-3.57,2.67.26,5.09.94,7.27,2.01,2.18,1.08,3.98,2.47,5.4,4.19,1.42,1.72,2.47,3.72,3.16,5.99.68,2.27.87,4.7.58,7.29ZM140.95,223.63c-2.79,0-5.58-1.07-7.71-3.2l-14.48-14.48c-4.26-4.26-4.26-11.16,0-15.42,4.26-4.26,11.17-4.26,15.42,0l6.77,6.77,13.91-13.91c4.26-4.26,11.16-4.26,15.42,0,4.26,4.26,4.26,11.16,0,15.42l-21.62,21.62c-2.13,2.13-4.92,3.19-7.71,3.19Z"/><rect class="cls-2" width="500" height="500"/></g></svg>