<svg width="320" height="160" viewBox="0 0 320 160" fill="none" xmlns="http://www.w3.org/2000/svg">
<mask id="mask0_613_3175" style="mask-type:luminance" maskUnits="userSpaceOnUse" x="0" y="0" width="320" height="160">
<path d="M320 0H0V160H320V0Z" fill="white"/>
</mask>
<g mask="url(#mask0_613_3175)">
<path d="M138.825 163.333C135.945 153.92 135.465 147.706 131.439 143.946L94.0255 142.906C89.9722 147.146 89.5188 153.92 86.6388 163.333C81.8122 179.12 94.3188 188.986 112.745 189.653C131.172 188.986 143.679 179.12 138.852 163.333H138.825Z" fill="#FFCBF1"/>
<path d="M113.546 189.652C113.359 197.199 110.239 199.919 105.892 199.919C101.546 199.919 97.1455 195.839 97.1455 195.839C85.2522 185.199 85.7589 172.159 86.4789 168.186C86.6122 166.639 86.9322 165.012 87.4389 163.332C87.6789 162.506 88.3455 160.479 88.9589 158.079" fill="#FFCBF1"/>
<path d="M105.893 201.04C101.173 201.04 96.5592 196.827 96.3725 196.667C82.7725 184.534 85.0659 169.654 85.3592 168C85.4925 166.427 85.8125 164.72 86.3459 163.014L86.5059 162.48C86.8259 161.467 87.3592 159.76 87.8659 157.814C88.0259 157.227 88.6392 156.854 89.2259 157.014C89.8125 157.174 90.1859 157.787 90.0259 158.374C89.5192 160.374 88.9592 162.107 88.6392 163.147L88.4792 163.68C87.9992 165.227 87.7059 166.8 87.5725 168.32C87.2792 169.947 85.1725 183.707 97.8659 195.04C97.9192 195.094 102.053 198.854 105.893 198.854C107.439 198.854 112.186 198.854 112.426 189.68C112.426 189.067 112.933 188.587 113.546 188.587C113.546 188.587 113.546 188.587 113.573 188.587C114.186 188.587 114.666 189.12 114.666 189.734C114.426 199.12 109.759 201.094 105.919 201.094L105.893 201.04Z" fill="black"/>
<path d="M113.547 189.652C113.734 197.199 116.854 199.919 121.2 199.919C125.52 199.919 129.947 195.839 129.947 195.839C141.84 185.199 141.334 172.159 140.614 168.186C140.48 166.639 140.16 165.012 139.654 163.332C139.414 162.506 138.747 160.479 138.134 158.079" fill="#FFCBF1"/>
<path d="M121.172 201.04C117.306 201.04 112.666 199.067 112.426 189.68C112.426 189.067 112.906 188.56 113.519 188.534C113.519 188.534 113.519 188.534 113.546 188.534C114.159 188.534 114.639 189.014 114.666 189.627C114.906 198.8 119.652 198.8 121.199 198.8C125.039 198.8 129.172 195.04 129.199 195.014C141.919 183.654 139.812 169.92 139.519 168.4C139.386 166.774 139.066 165.227 138.586 163.68L138.426 163.147C138.106 162.107 137.572 160.374 137.039 158.374C136.879 157.787 137.252 157.174 137.839 157.014C138.426 156.854 139.039 157.227 139.199 157.814C139.706 159.76 140.239 161.467 140.559 162.48L140.719 163.014C141.252 164.72 141.572 166.427 141.732 168.107C142.026 169.654 144.319 184.534 130.692 196.694C130.506 196.854 125.892 201.067 121.199 201.067L121.172 201.04Z" fill="black"/>
<path d="M128.159 172.986C128.159 181.706 126.639 188.8 112.986 188.8C99.3325 188.8 97.8125 181.733 97.8125 172.986C97.8125 164.24 104.612 157.173 112.986 157.173C121.359 157.173 128.159 164.24 128.159 172.986Z" fill="white"/>
<path d="M80.4788 58.1334L114.132 67.0935C114.132 67.0935 101.012 43.2001 93.8921 20.5868C90.9588 11.2268 89.3321 -1.99988 75.9455 1.81346C69.6521 3.60012 63.8121 8.93345 62.0788 15.7068C59.8921 24.2668 61.4921 38.4001 80.4788 58.1334Z" fill="#FFCBF1"/>
<path d="M87.9705 25.1731C85.8372 18.2398 84.9305 10.1598 77.6239 11.3331C74.1839 11.8931 70.2905 15.5731 69.6772 20.1598C69.1705 23.9731 71.1172 34.9331 83.0105 49.1998C83.9172 50.2931 85.4372 50.6931 86.7439 50.1598C88.7439 49.3598 90.7972 48.6131 92.9039 47.9998C94.7705 47.4398 95.7839 45.4131 95.0372 43.5998C92.4505 37.3331 89.3572 29.7065 87.9705 25.1731Z" fill="white"/>
<path d="M120.106 58.6938L152.133 72.3737C152.133 72.3737 142.559 46.8538 138.746 23.4404C137.173 13.7604 137.466 0.427086 123.653 2.29375C117.173 3.17375 110.639 7.60042 107.946 14.0804C104.559 22.2404 104.133 36.4538 120.106 58.6938Z" fill="#FFCBF1"/>
<path d="M132.986 27.254C131.866 20.1073 132.133 11.974 124.719 12.0806C121.253 12.134 116.853 15.2273 115.573 19.6806C114.639 22.9073 114.799 31.8406 121.386 44.5873C121.679 45.1473 122.239 45.5473 122.879 45.6273C126.959 46.1606 130.906 47.014 134.693 48.1873C136.159 48.6406 137.546 47.334 137.173 45.8406C135.546 39.3873 133.679 31.7873 132.959 27.254H132.986Z" fill="white"/>
<path d="M113.545 45.0132C76.932 45.0132 47.252 72.0265 47.252 107.093C47.252 142.16 76.932 153.413 113.545 153.413C150.159 153.413 179.839 142.187 179.839 107.093C179.839 71.9999 150.159 45.0132 113.545 45.0132Z" fill="#FFCBF1"/>
<path d="M113.546 154.533C69.4395 154.533 46.1328 138.133 46.1328 107.12C46.1328 85.7867 57.1728 66.24 75.7328 54.5867C59.9461 36.48 58.9861 23.3067 61.0128 15.4133C62.7461 8.61333 68.6395 2.72 75.6528 0.72C79.5995 -0.4 82.7995 -0.213333 85.4928 1.28C90.3728 4.02667 92.2662 10.6933 93.9195 16.56C94.2662 17.8133 94.6128 19.0667 94.9861 20.24C97.2528 27.52 100.399 35.6533 104.319 44.48C106.159 44.24 108.079 44.1067 110.026 44C103.146 29.3867 104.506 19.44 106.933 13.6267C109.626 7.14667 116.293 2.13333 123.519 1.17333C127.573 0.64 130.746 1.25333 133.173 3.14667C137.626 6.56 138.533 13.4133 139.306 19.4667C139.466 20.7733 139.653 22.0267 139.839 23.2533C141.199 31.68 143.466 41.3067 146.559 51.84C167.759 62.8533 180.906 84 180.906 107.093C180.906 138.133 157.599 154.507 113.493 154.507L113.546 154.533ZM80.3195 2.24C79.0928 2.24 77.7328 2.45333 76.2661 2.88C69.9728 4.66667 64.7195 9.94667 63.1728 16C61.2528 23.52 62.2928 36.24 78.2928 54.1333C78.5061 54.3733 78.6128 54.72 78.5595 55.04C78.5061 55.36 78.3195 55.6533 78.0261 55.84C59.4395 66.9867 48.3728 86.16 48.3728 107.147C48.3728 137.147 70.2928 152.347 113.546 152.347C156.799 152.347 178.719 137.147 178.719 107.147C178.719 84.4 166.159 64.4 145.146 53.6533C144.879 53.52 144.666 53.28 144.586 52.9867C141.386 42.16 139.066 32.2933 137.653 23.6533C137.439 22.4267 137.279 21.12 137.119 19.7867C136.346 13.8933 135.546 7.78667 131.839 4.93333C129.893 3.44 127.279 2.96 123.839 3.41333C117.359 4.29333 111.413 8.74667 109.013 14.5067C105.679 22.5333 106.986 32.9333 112.799 44.5867C112.959 44.9333 112.959 45.3333 112.746 45.6533C112.533 45.9733 112.186 46.1867 111.813 46.1867C109.039 46.2667 106.346 46.4533 103.813 46.8C103.333 46.88 102.853 46.6133 102.639 46.16C98.5328 36.96 95.2262 28.48 92.8795 20.9067C92.5062 19.7067 92.1595 18.4533 91.7861 17.1733C90.1861 11.44 88.5061 5.52 84.4261 3.22667C83.2261 2.56 81.8928 2.24 80.3461 2.24H80.3195Z" fill="black"/>
<path d="M113.627 116.507C113.013 118.934 110.56 121.2 107.28 122.294L107.227 122.56V126.107C107.227 127.147 108.16 127.974 109.28 127.974H117.947C119.093 127.974 120 127.147 120 126.107V122.32C116.72 121.2 114.213 118.96 113.627 116.507Z" fill="white"/>
<path d="M106.425 123.12C102.852 123.12 101.412 120.16 101.332 120.027C101.065 119.467 101.305 118.8 101.865 118.533C102.425 118.267 103.092 118.507 103.358 119.04C103.412 119.147 104.478 121.12 106.905 120.853C109.625 120.587 112.105 118.773 112.558 116.747C112.692 116.133 113.305 115.787 113.892 115.92C114.478 116.053 114.878 116.667 114.718 117.253C114.025 120.267 110.825 122.72 107.092 123.093C106.852 123.093 106.638 123.12 106.425 123.12Z" fill="black"/>
<path d="M120.824 123.121C120.611 123.121 120.371 123.121 120.158 123.094C116.424 122.721 113.224 120.267 112.531 117.254C112.398 116.667 112.771 116.054 113.358 115.921C113.944 115.787 114.558 116.161 114.691 116.747C115.144 118.774 117.651 120.587 120.344 120.854C122.878 121.121 123.864 119.067 123.864 119.041C124.131 118.481 124.798 118.241 125.358 118.507C125.918 118.774 126.158 119.441 125.891 120.001C125.838 120.134 124.371 123.094 120.798 123.094L120.824 123.121Z" fill="black"/>
<path d="M117.945 129.094H109.279C107.519 129.094 106.105 127.76 106.105 126.107V122.56C106.105 121.947 106.612 121.44 107.225 121.44C107.839 121.44 108.345 121.947 108.345 122.56V126.107C108.345 126.507 108.772 126.854 109.279 126.854H117.945C118.452 126.854 118.879 126.507 118.879 126.107V122.987C118.879 122.374 119.385 121.867 119.999 121.867C120.612 121.867 121.119 122.374 121.119 122.987V126.107C121.119 127.76 119.705 129.094 117.945 129.094Z" fill="black"/>
<path d="M132.56 120.427C135.329 120.427 137.574 117.442 137.574 113.76C137.574 110.079 135.329 107.094 132.56 107.094C129.791 107.094 127.547 110.079 127.547 113.76C127.547 117.442 129.791 120.427 132.56 120.427Z" fill="black"/>
<path d="M94.4528 120.427C97.2216 120.427 99.4661 117.442 99.4661 113.76C99.4661 110.079 97.2216 107.094 94.4528 107.094C91.684 107.094 89.4395 110.079 89.4395 113.76C89.4395 117.442 91.684 120.427 94.4528 120.427Z" fill="black"/>
<path d="M122.773 49.0137L129.6 51.227L128.88 44.8804L122.773 49.0137Z" fill="#FFCBF1"/>
<path d="M113.038 52.1862C115.678 53.1996 117.225 56.2129 116.932 59.0129C116.638 61.8129 114.665 64.2662 112.158 65.5996C109.652 66.9329 106.718 67.1729 103.918 66.7196C103.918 66.7196 91.7852 65.4929 91.7852 51.8129C91.7852 45.7329 95.8385 40.4529 101.812 37.3329C107.785 34.2129 114.985 34.2662 120.798 36.9329C124.905 38.7996 128.505 42.3462 129.385 46.7996" fill="#FFCBF1"/>
<path d="M106.426 68.0265C105.439 68.0265 104.533 67.9465 103.759 67.8132C103.679 67.8132 90.666 66.3198 90.666 51.8132C90.666 45.5998 94.6393 39.8132 101.279 36.3465C107.199 33.2532 115.039 33.0932 121.253 35.9198C126.133 38.1598 129.599 42.1332 130.453 46.5865C130.559 47.1998 130.186 47.7865 129.573 47.8932C128.959 47.9998 128.373 47.6265 128.266 47.0132C127.519 43.2798 124.559 39.8932 120.319 37.9465C114.719 35.3865 107.653 35.5465 102.319 38.3198C96.426 41.4132 92.906 46.4532 92.906 51.8132C92.906 64.3465 103.599 65.5732 104.053 65.6265C106.079 65.9465 108.986 66.0265 111.653 64.6132C113.973 63.3865 115.573 61.1998 115.839 58.9065C116.106 56.5065 114.719 54.0265 112.666 53.2532C112.079 53.0398 111.813 52.3998 112.026 51.8132C112.239 51.2265 112.906 50.9598 113.466 51.1732C116.453 52.3198 118.426 55.7598 118.053 59.1732C117.706 62.2132 115.653 65.0398 112.693 66.6132C110.586 67.7332 108.373 68.0532 106.453 68.0532L106.426 68.0265Z" fill="black"/>
<path d="M88.6398 152.32C88.6398 152.32 73.6798 181.494 118.773 176.8C118.773 176.8 131.813 174.8 132.48 168.56C133.306 160.667 126.48 157.76 122.853 159.04C119.226 160.32 104.533 162.347 101.84 161.787" fill="#FFCBF1"/>
<path d="M109.706 178.4C98.586 178.4 91.1727 175.76 87.5993 170.506C82.2393 162.693 87.4927 152.266 87.706 151.84C87.9727 151.306 88.6127 151.093 89.146 151.386C89.6793 151.653 89.8927 152.293 89.5993 152.826C89.546 152.933 84.7193 162.56 89.3593 169.306C93.386 175.2 103.253 177.36 118.666 175.76C122.026 175.226 130.933 172.906 131.413 168.453C131.813 164.56 130.213 162.426 128.826 161.306C126.879 159.786 124.559 159.6 123.226 160.053C119.466 161.386 104.613 163.44 101.626 162.826C101.039 162.72 100.666 162.133 100.799 161.573C100.906 160.986 101.493 160.613 102.053 160.746C104.373 161.226 118.906 159.306 122.506 158.053C124.826 157.226 127.893 157.866 130.159 159.626C132.746 161.68 133.946 164.88 133.573 168.666C132.853 175.653 119.546 177.76 118.986 177.866C115.653 178.213 112.586 178.373 109.733 178.373L109.706 178.4Z" fill="black"/>
<path d="M114.638 149.68C112.584 157.893 119.278 159.6 119.278 159.6C120.531 166.96 124.931 174.213 131.464 171.653C135.784 169.973 140.291 167.44 138.238 151.333L134.078 152.24" fill="#FFCBF1"/>
<path d="M128.852 173.254C127.599 173.254 126.372 172.934 125.226 172.267C121.972 170.427 119.412 166.001 118.346 160.401C116.506 159.654 111.732 156.908 113.599 149.414C113.732 148.854 114.319 148.508 114.906 148.641C115.466 148.774 115.839 149.361 115.679 149.948C113.946 156.854 118.986 158.428 119.546 158.561C119.946 158.668 120.266 159.014 120.319 159.414C121.199 164.614 123.466 168.828 126.266 170.401C127.732 171.228 129.359 171.334 131.066 170.641C134.612 169.254 138.986 167.548 137.306 152.614L134.292 153.254C133.732 153.388 133.146 153.014 133.012 152.428C132.879 151.841 133.252 151.281 133.839 151.148L137.999 150.241C138.292 150.188 138.586 150.241 138.852 150.401C139.092 150.561 139.252 150.828 139.306 151.148C141.412 167.468 136.799 170.694 131.866 172.614C130.852 173.014 129.866 173.201 128.879 173.201L128.852 173.254Z" fill="black"/>
<path d="M114.64 149.68C110.693 149.147 107.52 147.867 108.053 144.373C108.666 140.213 113.546 139.813 118.453 140.133C119.679 140.213 120.853 140.427 121.893 140.747C122.373 140.907 122.853 140.533 122.88 140.027C122.933 137.227 123.973 134.827 127.813 134.32C132.613 133.68 134.133 137.813 132.693 141.147C131.653 144.213 132.826 150.613 134.96 154.773" fill="#FFCBF1"/>
<path d="M134.904 155.867C134.504 155.867 134.131 155.653 133.944 155.28C131.838 151.173 130.398 144.373 131.624 140.827C132.318 139.227 132.238 137.573 131.438 136.533C130.718 135.6 129.518 135.2 127.918 135.413C125.171 135.787 123.971 137.173 123.918 140.08C123.918 140.667 123.624 141.2 123.144 141.547C122.691 141.893 122.104 141.973 121.544 141.813C120.558 141.493 119.491 141.307 118.371 141.227C112.344 140.827 109.491 141.84 109.091 144.56C108.958 145.387 109.091 146.053 109.491 146.587C110.238 147.6 112.024 148.293 114.744 148.64C115.331 148.72 115.731 149.253 115.651 149.84C115.571 150.427 115.011 150.853 114.451 150.747C111.038 150.293 108.904 149.387 107.758 147.867C107.011 146.853 106.718 145.653 106.931 144.24C107.811 138.373 115.544 138.907 118.478 139.093C119.624 139.173 120.718 139.36 121.758 139.653C121.944 135.92 123.891 133.787 127.598 133.307C129.971 132.987 131.944 133.68 133.118 135.253C134.398 136.933 134.584 139.387 133.598 141.627C132.718 144.213 133.758 150.293 135.838 154.347C136.104 154.88 135.891 155.52 135.384 155.787C135.224 155.867 135.064 155.893 134.904 155.893V155.867Z" fill="black"/>
<path d="M119.277 159.601C119.277 159.601 121.144 160.294 124.904 159.974L119.277 159.601Z" fill="#FFCBF1"/>
<path d="M122.985 161.12C120.345 161.12 118.959 160.613 118.879 160.586C118.319 160.373 118.052 159.76 118.239 159.226C118.452 158.666 119.065 158.4 119.599 158.586C119.652 158.586 121.385 159.173 124.772 158.906C125.359 158.853 125.865 159.28 125.919 159.893C125.972 160.506 125.545 160.986 124.932 161.04C124.212 161.093 123.545 161.12 122.932 161.12H122.985Z" fill="black"/>
<path d="M129.546 101.813C129.173 101.813 128.799 101.627 128.586 101.28C128.266 100.747 128.426 100.08 128.959 99.7599C130.079 99.0933 130.799 97.9466 130.799 97.9199C131.119 97.3866 131.813 97.2266 132.346 97.5733C132.879 97.8933 133.039 98.5866 132.719 99.0933C132.666 99.1466 131.706 100.693 130.133 101.653C129.946 101.76 129.759 101.813 129.546 101.813Z" fill="black"/>
<path d="M194.746 149.707C194.746 149.707 183.839 157.68 188.666 170.907C188.666 170.907 191.759 179.04 199.839 175.68C210.106 171.387 204.479 150.8 204.479 150.8L194.746 149.734V149.707Z" fill="#C8C8FF"/>
<path d="M196.106 177.6C194.986 177.6 193.92 177.387 192.88 176.934C189.2 175.36 187.68 171.44 187.626 171.28C182.56 157.44 193.973 148.88 194.08 148.8C194.293 148.64 194.586 148.56 194.853 148.587L204.586 149.654C205.04 149.707 205.413 150.027 205.546 150.48C205.786 151.36 211.306 172.08 200.24 176.694C198.8 177.307 197.386 177.6 196.08 177.6H196.106ZM195.093 150.854C193.333 152.294 185.68 159.387 189.733 170.507C189.733 170.507 190.986 173.707 193.786 174.907C195.413 175.6 197.306 175.52 199.413 174.64C207.653 171.2 204.453 155.387 203.6 151.787L195.066 150.854H195.093Z" fill="black"/>
<path d="M196.533 161.787C201.653 145.067 199.173 130.427 222.64 129.84C246.107 130.427 243.627 145.067 248.747 161.787C253.573 177.573 241.067 187.44 222.64 188.107C204.213 187.44 191.707 177.573 196.533 161.787Z" fill="#C8C8FF"/>
<path d="M221.838 188.106C222.025 195.653 225.145 198.373 229.491 198.373C233.811 198.373 238.238 194.293 238.238 194.293C250.131 183.653 249.625 170.613 248.905 166.64C248.771 165.093 248.451 163.466 247.945 161.786C247.491 160.32 245.758 155.04 245.278 150.8" fill="#C8C8FF"/>
<path d="M229.493 199.494C225.626 199.494 220.986 197.521 220.746 188.134C220.746 187.521 221.226 187.014 221.839 186.987C221.839 186.987 221.839 186.987 221.866 186.987C222.479 186.987 222.959 187.467 222.986 188.081C223.226 197.254 227.973 197.254 229.519 197.254C233.359 197.254 237.493 193.494 237.519 193.467C250.239 182.107 248.133 168.374 247.839 166.854C247.706 165.227 247.386 163.681 246.906 162.134L246.746 161.627C246.106 159.601 244.639 154.907 244.213 150.961C244.133 150.347 244.586 149.787 245.199 149.734C245.813 149.681 246.373 150.107 246.426 150.721C246.853 154.454 248.266 159.041 248.879 160.987L249.039 161.494C249.546 163.201 249.893 164.907 250.053 166.587C250.346 168.134 252.639 183.014 239.013 195.174C238.826 195.334 234.213 199.547 229.519 199.547L229.493 199.494Z" fill="black"/>
<path d="M207.199 171.439C207.199 180.159 208.719 187.253 222.373 187.253C236.026 187.253 237.546 180.186 237.546 171.439C237.546 162.719 230.746 155.626 222.373 155.626C213.999 155.626 207.199 162.693 207.199 171.439Z" fill="white"/>
<path d="M290.079 102.107C290.079 102.107 296.879 54.5069 283.279 44.4002C269.706 34.2936 238.746 61.2269 238.746 61.2269L290.079 102.107Z" fill="#C8C8FF"/>
<path d="M173.945 84.8794C173.945 84.8794 181.279 37.3594 197.199 31.6527C213.119 25.946 234.932 60.6927 234.932 60.6927L173.945 84.906V84.8794Z" fill="#C8C8FF"/>
<path d="M278.665 80.1597C279.812 81.5197 282.025 80.7464 282.052 78.9864C282.319 70.2131 281.572 59.4397 276.879 55.9464C272.052 52.3731 263.679 56.3464 257.465 60.3731C256.212 61.1731 256.345 63.0397 257.679 63.7064C265.919 67.7597 273.065 73.4131 278.665 80.1597Z" fill="white"/>
<path d="M216.106 57.5471C217.572 57.3071 218.239 55.5471 217.279 54.4271C212.479 48.7737 205.652 42.5071 199.999 44.5604C194.479 46.5337 190.666 56.6404 188.346 65.0937C187.892 66.8004 189.786 68.1871 191.252 67.2004C198.586 62.3737 207.039 59.0404 216.106 57.5471Z" fill="white"/>
<path d="M291.572 125.706C286.639 159.013 256.852 165.493 222.105 160.346C187.332 155.199 160.745 140.346 165.679 107.039C170.612 73.7327 202.612 52.2661 237.385 57.4127C272.159 62.5594 296.532 92.3994 291.599 125.706H291.572Z" fill="white"/>
<path d="M292.185 118.667C292.185 118.667 292.185 118.614 292.212 118.587C292.798 95.4407 279.385 74.7741 258.638 64.1607C257.865 63.7607 257.065 63.3607 256.265 62.9874C256.238 62.9874 256.212 62.9607 256.158 62.9341C255.438 62.6141 254.692 62.2941 253.972 61.9741C253.812 61.8941 253.652 61.8407 253.492 61.7607C252.825 61.4941 252.158 61.2274 251.492 60.9874C251.225 60.8807 250.985 60.8007 250.718 60.6941C250.105 60.4807 249.492 60.2674 248.878 60.0541C248.532 59.9474 248.212 59.8407 247.865 59.7341C247.305 59.5474 246.745 59.3874 246.158 59.2274C245.732 59.1207 245.305 58.9874 244.878 58.8807C244.372 58.7474 243.865 58.6141 243.358 58.4807C242.798 58.3474 242.238 58.2407 241.678 58.1074C241.278 58.0274 240.878 57.9207 240.452 57.8407C239.545 57.6541 238.638 57.4941 237.705 57.3607C237.598 57.3607 237.518 57.3341 237.412 57.3074C237.385 57.3074 237.358 57.3074 237.305 57.3074C236.292 57.1474 235.278 57.0407 234.265 56.9341C233.998 56.9074 233.732 56.8807 233.438 56.8541C232.718 56.7741 231.972 56.7207 231.252 56.6941C230.905 56.6941 230.532 56.6674 230.185 56.6407C229.545 56.6141 228.905 56.5874 228.265 56.5874C227.865 56.5874 227.465 56.5874 227.092 56.5874C226.505 56.5874 225.918 56.5874 225.332 56.5874C224.905 56.5874 224.505 56.6141 224.078 56.6407C223.518 56.6407 222.958 56.6941 222.398 56.7474C221.972 56.7741 221.545 56.8007 221.118 56.8541C220.585 56.9074 220.052 56.9607 219.492 57.0141C219.065 57.0674 218.638 57.1207 218.212 57.1741C217.678 57.2541 217.145 57.3341 216.612 57.4141C216.185 57.4674 215.785 57.5474 215.358 57.6274C192.158 61.7074 173.118 77.7874 167.038 100.454C166.825 101.227 166.638 102.027 166.452 102.827C166.372 103.201 166.292 103.601 166.212 103.974C165.998 104.961 165.812 105.974 165.652 106.987C164.638 113.894 164.985 119.974 166.452 125.387C180.638 129.601 206.478 131.441 223.385 118.614C224.852 117.494 226.825 116.401 228.558 116.827C230.345 116.907 231.918 118.534 232.985 120.027C245.732 137.601 271.358 142.987 285.678 142.694C288.532 138.027 290.558 132.427 291.572 125.681C291.918 123.307 292.105 120.961 292.185 118.641V118.667Z" fill="#C8C8FF"/>
<path d="M256.478 129.067C257.333 129.067 258.025 128.374 258.025 127.52C258.025 126.666 257.333 125.974 256.478 125.974C255.624 125.974 254.932 126.666 254.932 127.52C254.932 128.374 255.624 129.067 256.478 129.067Z" fill="black"/>
<path d="M250.932 116.827C248.505 116.96 244.425 117.173 242.265 117.28C241.412 117.333 240.719 118 240.665 118.853C240.452 123.093 241.865 126.533 245.412 127.04C245.412 127.04 251.252 128.347 252.665 118.693C252.825 117.653 251.972 116.747 250.905 116.8L250.932 116.827Z" fill="black"/>
<path d="M205.68 110.133C207.973 110.96 211.786 112.347 213.84 113.093C214.64 113.387 215.12 114.24 214.906 115.067C213.893 119.173 211.52 122.053 208 121.52C208 121.52 202.026 121.093 203.466 111.44C203.626 110.4 204.72 109.787 205.706 110.133H205.68Z" fill="black"/>
<path d="M231.919 129.546C231.493 129.546 231.093 129.36 230.799 128.986L227.386 124.453L222.853 127.813C222.239 128.266 221.359 128.133 220.906 127.52C220.453 126.906 220.586 126.026 221.199 125.573L226.853 121.386C227.466 120.933 228.346 121.066 228.799 121.68L233.039 127.333C233.493 127.946 233.386 128.826 232.773 129.28C232.533 129.466 232.239 129.573 231.946 129.573L231.919 129.546Z" fill="black"/>
<path d="M241.84 163.014C235.706 163.014 229.066 162.48 221.946 161.44C180.053 155.227 160.213 136.347 164.586 106.854C165.786 98.6936 168.613 91.0936 172.96 84.2136C173.92 78.3203 181.333 36.1869 196.853 30.5869C209.946 25.8669 226.293 46.2936 233.013 55.7869C234.666 55.9203 236.16 56.0803 237.573 56.2936C238.96 56.5069 240.426 56.7736 242.08 57.1203C251.28 49.9736 272.826 35.2003 284 43.4936C297.253 53.3603 292.08 95.8403 291.306 101.734C293.466 109.574 293.946 117.68 292.72 125.84C290.346 141.787 282.213 152.774 268.48 158.454C261.173 161.494 252.266 163.014 241.866 163.014H241.84ZM200.933 32.1069C199.786 32.1069 198.666 32.2936 197.6 32.6669C185.786 36.9069 177.893 67.4136 175.12 84.7736C175.12 84.9336 175.04 85.0669 174.96 85.2003C170.72 91.8669 167.973 99.2536 166.8 107.174C162.586 135.627 181.253 153.147 222.293 159.227C241.12 162.027 256.373 161.067 267.626 156.4C280.56 151.04 288.266 140.64 290.506 125.52C291.68 117.6 291.2 109.734 289.066 102.134C289.013 102 289.013 101.84 289.04 101.68C291.413 84.2669 292.72 52.8003 282.64 45.3069C272.24 37.5736 249.68 54.0003 243.013 59.2003C242.746 59.4136 242.4 59.4669 242.08 59.4136C240.293 59.0136 238.693 58.7203 237.226 58.5069C235.733 58.2936 234.133 58.1069 232.32 57.9736C231.973 57.9736 231.68 57.7869 231.493 57.4936C227.066 51.1736 212.693 32.1069 200.933 32.1069Z" fill="black"/>
<path d="M249.519 61.5469C249.519 61.5469 249.279 61.5469 249.173 61.4936C245.306 60.1869 241.279 59.2002 237.226 58.6136C233.172 58.0002 229.039 57.7869 224.959 57.8936C224.959 57.8936 224.959 57.8936 224.932 57.8936C224.346 57.8936 223.839 57.4136 223.812 56.8269C223.812 56.2136 224.266 55.7069 224.879 55.6802C229.093 55.5469 233.359 55.7869 237.546 56.4002C241.733 57.0136 245.892 58.0269 249.892 59.3869C250.479 59.5736 250.799 60.2136 250.586 60.8002C250.426 61.2536 249.999 61.5469 249.519 61.5469Z" fill="black"/>
<path d="M246.957 161.787C251.41 161.653 254.77 160.4 254.69 159.973C254.69 159.973 252.13 159.067 251.277 154.853C250.024 148.8 257.757 147.2 257.757 147.2C256.45 145.52 254.797 144.613 255.41 142.667C256.024 140.72 258.53 141.04 258.53 141.04C267.57 142.933 267.997 154.373 267.997 154.373C269.117 167.92 256.504 173.467 247.49 175.573" fill="#C8C8FF"/>
<path d="M267.971 154.373C267.971 154.373 267.571 142.933 258.505 141.04C258.505 141.04 255.998 140.72 255.385 142.667C254.771 144.613 256.398 145.52 257.731 147.2C257.731 147.2 250.025 148.773 251.251 154.853C252.105 159.067 254.665 159.973 254.665 159.973C254.665 159.973 262.131 161.44 268.025 156.507C268.131 155.387 268.051 155.627 267.945 154.373H267.971Z" fill="white"/>
<path d="M247.466 176.667C246.959 176.667 246.506 176.32 246.372 175.813C246.239 175.227 246.612 174.613 247.199 174.48C255.012 172.667 267.946 167.68 266.852 154.48C266.852 154 266.346 143.84 258.266 142.133C258.266 142.133 258.186 142.133 258.079 142.133C257.652 142.133 256.693 142.213 256.426 143.013C256.186 143.787 256.479 144.213 257.546 145.333C257.893 145.707 258.239 146.08 258.586 146.507C258.826 146.8 258.879 147.227 258.746 147.573C258.612 147.92 258.293 148.213 257.919 148.293C257.653 148.347 251.306 149.733 252.319 154.613C253.039 158.08 254.959 158.88 255.039 158.907C255.412 159.067 255.706 159.387 255.759 159.787C255.813 160.107 255.653 160.533 255.466 160.773C254.613 161.787 250.719 162.773 246.959 162.88C246.959 162.88 246.959 162.88 246.932 162.88C246.346 162.88 245.839 162.4 245.812 161.787C245.812 161.173 246.266 160.667 246.879 160.64C249.306 160.56 251.306 160.16 252.532 159.787C251.626 158.907 250.639 157.44 250.133 155.04C249.519 152.08 250.639 149.573 253.386 147.787C254.186 147.253 255.012 146.88 255.706 146.613C254.692 145.52 253.653 144.267 254.293 142.293C255.013 140.053 257.439 139.76 258.639 139.893C268.532 141.947 269.066 154.16 269.066 154.293C270.293 169.12 256.212 174.64 247.706 176.613C247.626 176.613 247.546 176.64 247.466 176.64V176.667Z" fill="black"/>
<path d="M271.44 109.36C266.907 109.36 263.227 105.68 263.227 101.147C263.227 93.3336 271.44 87.147 271.44 87.147C271.44 87.147 279.653 93.3336 279.653 101.147C279.653 105.68 275.973 109.36 271.44 109.36Z" fill="#A9EFFF"/>
<path d="M271.44 110.346C266.346 110.346 262.213 106.213 262.213 101.12C262.213 92.9063 270.48 86.5863 270.826 86.3196C271.173 86.053 271.68 86.053 272.026 86.3196C272.373 86.5863 280.64 92.9063 280.64 101.12C280.64 106.213 276.506 110.346 271.413 110.346H271.44ZM271.44 88.4263C269.6 89.9996 264.213 95.1196 264.213 101.146C264.213 105.12 267.44 108.373 271.44 108.373C275.44 108.373 278.666 105.146 278.666 101.146C278.666 95.1196 273.28 89.9996 271.44 88.4263Z" fill="black"/>
<path d="M277.758 129.626C275.038 129.626 272.824 127.413 272.824 124.693C272.824 120.026 277.758 116.293 277.758 116.293C277.758 116.293 282.691 120 282.691 124.693C282.691 127.413 280.478 129.626 277.758 129.626Z" fill="#A9EFFF"/>
<path d="M277.758 130.64C274.478 130.64 271.838 127.974 271.838 124.72C271.838 119.6 276.958 115.707 277.171 115.52C277.518 115.254 278.025 115.254 278.371 115.52C278.585 115.68 283.705 119.6 283.705 124.72C283.705 128 281.038 130.64 277.785 130.64H277.758ZM277.758 117.627C276.531 118.747 273.838 121.52 273.838 124.72C273.838 126.88 275.598 128.64 277.758 128.64C279.918 128.64 281.678 126.88 281.678 124.72C281.678 121.52 278.985 118.747 277.758 117.627Z" fill="black"/>
<path d="M29.5527 57.0939C29.286 57.0939 29.046 56.9872 28.8327 56.8006L27.846 55.8139C26.2727 54.2406 26.2727 51.6806 27.846 50.1072C29.4193 48.5339 31.9793 48.5339 33.5527 50.1072L34.5393 51.0939C34.9393 51.4939 34.9393 52.1072 34.5393 52.5072C34.1393 52.9072 33.526 52.9072 33.126 52.5072L32.1393 51.5206C31.366 50.7472 30.0327 50.7472 29.286 51.5206C28.9127 51.8939 28.6993 52.4006 28.6993 52.9606C28.6993 53.5206 28.9127 54.0006 29.286 54.4006L30.2727 55.3872C30.6727 55.7872 30.6727 56.4006 30.2727 56.8006C30.086 56.9872 29.8193 57.0939 29.5527 57.0939Z" fill="white"/>
<path d="M37.4199 49.2267C37.1532 49.2267 36.9132 49.1201 36.6999 48.9334L35.7132 47.9467C34.1399 46.3734 34.1399 43.8134 35.7132 42.2401C37.2865 40.6667 39.8465 40.6667 41.4199 42.2401L42.4065 43.2267C42.8065 43.6267 42.8065 44.2401 42.4065 44.6401C42.0065 45.0401 41.3932 45.0401 40.9932 44.6401L40.0065 43.6534C39.2332 42.8801 37.8999 42.8801 37.1532 43.6534C36.7799 44.0267 36.5665 44.5334 36.5665 45.0934C36.5665 45.6534 36.7799 46.1334 37.1532 46.5334L38.1399 47.5201C38.5399 47.9201 38.5399 48.5334 38.1399 48.9334C37.9532 49.1201 37.6865 49.2267 37.4199 49.2267Z" fill="white"/>
<path d="M36.5585 64.1066C36.2919 64.1066 36.0519 63.9999 35.8385 63.8133L34.8519 62.8266C33.2785 61.2533 33.2785 58.6933 34.8519 57.1199C36.4252 55.5466 38.9852 55.5466 40.5585 57.1199L41.5452 58.1066C41.9452 58.5066 41.9452 59.1199 41.5452 59.5199C41.1452 59.9199 40.5319 59.9199 40.1319 59.5199L39.1452 58.5333C38.3719 57.7599 37.0385 57.7599 36.2919 58.5333C35.9185 58.9066 35.7052 59.4133 35.7052 59.9733C35.7052 60.5333 35.9185 61.0133 36.2919 61.4133L37.2785 62.3999C37.6785 62.7999 37.6785 63.4133 37.2785 63.8133C37.0919 63.9999 36.8252 64.1066 36.5585 64.1066Z" fill="white"/>
<path d="M44.4257 56.2394C44.1591 56.2394 43.9191 56.1328 43.7057 55.9461L42.7191 54.9594C41.1457 53.3861 41.1457 50.8261 42.7191 49.2528C44.2924 47.6794 46.8524 47.6794 48.4257 49.2528L49.4124 50.2394C49.8124 50.6394 49.8124 51.2528 49.4124 51.6528C49.0124 52.0528 48.3991 52.0528 47.9991 51.6528L47.0124 50.6661C46.2391 49.8928 44.9057 49.8928 44.1591 50.6661C43.7857 51.0394 43.5724 51.5461 43.5724 52.1061C43.5724 52.6661 43.7857 53.1461 44.1591 53.5461L45.1457 54.5328C45.5457 54.9328 45.5457 55.5461 45.1457 55.9461C44.9591 56.1328 44.6924 56.2394 44.4257 56.2394Z" fill="white"/>
<path d="M43.5703 71.1205C43.3036 71.1205 43.0636 71.0138 42.8503 70.8271L41.8636 69.8405C40.2903 68.2671 40.2903 65.7071 41.8636 64.1605C43.4369 62.5871 45.9969 62.5871 47.5703 64.1605L48.5569 65.1471C48.9569 65.5471 48.9569 66.1605 48.5569 66.5605C48.1569 66.9605 47.5436 66.9605 47.1436 66.5605L46.1569 65.5738C45.3836 64.8005 44.0503 64.8005 43.3036 65.5738C42.9303 65.9471 42.7169 66.4538 42.7169 67.0138C42.7169 67.5738 42.9303 68.0538 43.3036 68.4538L44.2903 69.4405C44.6903 69.8405 44.6903 70.4538 44.2903 70.8538C44.1036 71.0405 43.8369 71.1471 43.5969 71.1471L43.5703 71.1205Z" fill="white"/>
<path d="M51.4375 63.2799C51.1708 63.2799 50.9308 63.1733 50.7175 62.9866L49.7308 61.9999C48.1574 60.4266 48.1574 57.8666 49.7308 56.2933C51.3041 54.7199 53.8641 54.7199 55.4375 56.2933L56.4241 57.2799C56.8241 57.6799 56.8241 58.2933 56.4241 58.6933C56.0241 59.0933 55.4108 59.0933 55.0108 58.6933L54.0241 57.7066C53.2508 56.9333 51.9175 56.9333 51.1708 57.7066C50.7975 58.0799 50.5841 58.5866 50.5841 59.1466C50.5841 59.7066 50.7975 60.1866 51.1708 60.5866L52.1574 61.5733C52.5574 61.9733 52.5574 62.5866 52.1574 62.9866C51.9708 63.1733 51.7041 63.2799 51.4375 63.2799Z" fill="white"/>
</g>
</svg>
