<svg width="350" height="350" viewBox="0 0 350 350" fill="none" xmlns="http://www.w3.org/2000/svg">
<mask id="mask0_622_4275" style="mask-type:luminance" maskUnits="userSpaceOnUse" x="0" y="0" width="350" height="350">
<path d="M350 0H0V350H350V0Z" fill="white"/>
</mask>
<g mask="url(#mask0_622_4275)">
<path d="M114.31 325.04H141.94V284.8H114.31V325.04Z" fill="#C8C8FF"/>
<path d="M118.66 326.18C109.11 322.78 99.7799 318.77 90.7399 314.18C83.3499 310.43 76.0499 306.21 70.2499 300.29C66.2599 296.22 62.9599 291.13 62.4699 285.45C61.9899 279.77 63.3999 271.99 69.6699 268.03C73.1099 265.85 78.0499 264.05 86.5299 267.46C102.14 273.74 104.51 288.44 116.22 291.68" fill="#C8C8FF"/>
<path d="M171.95 374.47C168.54 390.56 160.93 396.92 151.67 395.21C142.41 393.5 134.39 381.21 134.39 381.21C113.12 353.75 119.37 326.01 122.5 317.82C123.4 314.56 124.69 311.22 126.47 307.81C128 304.86 129.4 301.93 130.72 299.03" fill="#C8C8FF"/>
<path d="M223.39 357.97C221.09 357.83 218.79 357.51 216.51 357.02C210.35 355.69 206.44 349.61 207.77 343.45C209.1 337.29 215.17 333.39 221.34 334.71C228.33 336.22 236.14 334.37 241.7 329.88C247.27 325.39 250.73 318.15 250.74 311C250.74 309.21 250.54 307.2 250.33 305.07C250.05 302.2 249.73 298.96 249.83 295.52C250.17 284.52 255.18 274.97 263.22 269.98C269.69 265.97 278.79 264.83 285.86 267.15C291.37 268.96 295.51 272.72 297.52 277.73C299.86 283.58 297.02 290.22 291.17 292.56C288.37 293.68 285.19 293.64 282.42 292.45C280.82 291.76 279.72 290.26 278.16 289.49C275.61 288.23 272.71 289.99 272.63 292.74C272.53 296.08 272.69 299.48 273.02 302.82C273.26 305.29 273.54 308.08 273.54 311.01C273.54 325.1 266.98 338.8 256.01 347.64C246.85 355.03 235.04 358.69 223.37 357.96L223.39 357.97Z" fill="#C8C8FF" stroke="black" stroke-width="4.85" stroke-miterlimit="10"/>
<path d="M122.44 318.78C132.32 282.04 125.86 250.36 176.86 247.38C227.94 246.92 223.63 278.96 235.97 314.94C247.63 348.93 221.16 371.32 181.14 374.11C141.02 374.03 113.11 353.48 122.44 318.78Z" fill="#C8C8FF"/>
<path d="M205.83 368.46C216.56 387.18 236.59 393.13 243.17 386.39C249.74 379.65 250.11 366.53 250.11 366.53C251.63 331.83 230.5 312.79 223.22 307.91C220.6 305.76 217.62 303.79 214.2 302.02C211.25 300.5 208.41 298.91 205.66 297.3" fill="#C8C8FF"/>
<path d="M149.85 344.94C153.38 363.61 159.51 378.13 188.7 372.62C217.88 367.11 218.31 351.35 214.78 332.68C211.25 314.01 193.86 301.61 175.93 305C158 308.38 146.32 326.27 149.85 344.94Z" fill="white"/>
<path d="M248.159 284.556L233.218 285.062L233.832 303.192L248.773 302.685L248.159 284.556Z" fill="#C8C8FF"/>
<path d="M206.1 369.71C219.32 392.01 235.92 393.81 242.5 387.07C249.07 380.33 249.44 367.21 249.44 367.21C250.54 342.13 239.81 325.23 231.03 315.95" stroke="black" stroke-width="4.85" stroke-linecap="round" stroke-linejoin="round"/>
<path d="M171.95 374.47C168.54 390.56 160.93 396.92 151.67 395.21C142.41 393.5 133.63 382.29 133.63 382.29C133.63 382.29 112.35 359.51 125.33 311.99" stroke="black" stroke-width="4.85" stroke-linecap="round" stroke-linejoin="round"/>
<path d="M40.8104 144.94C40.8104 144.94 39.0304 35.9798 72.4504 17.0898C105.87 -1.79015 167.87 67.5598 167.87 67.5598L40.8204 144.94H40.8104Z" fill="#C8C8FF"/>
<path d="M306.88 139.1C306.88 139.1 303.88 30.1599 269.67 12.7599C235.46 -4.64008 176.56 67.3699 176.56 67.3699L306.88 139.1Z" fill="#C8C8FF"/>
<path d="M72.3297 99.1599C69.5297 101.8 64.9697 99.5499 65.3297 95.7199C67.2097 75.8299 71.8997 51.4499 83.5497 44.8699C95.4897 38.1199 113.34 49.6799 126.22 60.5499C128.69 62.6399 127.92 66.6099 124.86 67.6599C104.86 74.5099 86.9897 85.3299 72.3197 99.1599H72.3297Z" fill="white"/>
<path d="M219.51 65.59C216.41 64.68 215.46 60.74 217.84 58.54C230.23 47.11 247.56 34.78 259.78 41C271.71 47.07 277.47 71.22 280.22 91.01C280.75 94.82 276.29 97.26 273.38 94.75C258.12 81.58 239.79 71.56 219.51 65.59Z" fill="white"/>
<path d="M30.7501 197.58C32.4201 273.9 97.5401 296.92 177.2 295.18C256.86 293.43 320.9 267.58 319.23 191.25C317.56 114.93 251.69 57.58 172.03 59.33C92.3701 61.08 29.0801 121.26 30.7501 197.58Z" fill="white"/>
<path d="M31.3999 181.59C31.3799 181.53 31.3599 181.46 31.3399 181.4C36.5899 129.15 72.6299 86.52 122.28 68.53C122.28 68.53 122.28 68.53 122.29 68.53C124.17 67.85 126.07 67.21 127.98 66.6C128.05 66.58 128.13 66.55 128.2 66.53C129.92 65.99 131.66 65.48 133.4 65C133.79 64.89 134.17 64.78 134.56 64.68C136.12 64.26 137.69 63.87 139.28 63.5C139.88 63.36 140.49 63.22 141.09 63.08C142.53 62.76 143.98 62.46 145.43 62.18C146.22 62.03 147.01 61.89 147.81 61.75C149.13 61.52 150.46 61.29 151.79 61.09C152.78 60.94 153.78 60.81 154.78 60.68C155.96 60.53 157.13 60.37 158.32 60.24C159.6 60.1 160.9 60 162.19 59.89C163.12 59.81 164.05 59.72 164.99 59.66C167.08 59.52 169.19 59.43 171.31 59.37C171.54 59.37 171.76 59.35 171.99 59.34C172.06 59.34 172.14 59.34 172.21 59.34C174.53 59.29 176.84 59.3 179.14 59.35C179.76 59.36 180.37 59.4 180.99 59.42C182.66 59.48 184.32 59.54 185.97 59.65C186.78 59.7 187.58 59.78 188.38 59.84C189.83 59.96 191.27 60.08 192.7 60.24C193.59 60.34 194.48 60.45 195.37 60.56C196.7 60.73 198.02 60.91 199.34 61.11C200.28 61.25 201.21 61.41 202.14 61.57C203.39 61.78 204.64 62.01 205.88 62.26C206.84 62.45 207.79 62.64 208.74 62.85C209.94 63.11 211.14 63.39 212.33 63.68C213.28 63.91 214.24 64.14 215.19 64.39C216.37 64.7 217.55 65.04 218.72 65.37C219.64 65.64 220.57 65.89 221.49 66.18C272.5 81.95 310.81 123.53 318 176.2C318.25 178.02 318.45 179.85 318.63 181.69C318.71 182.57 318.8 183.45 318.87 184.33C319.05 186.62 319.19 188.93 319.25 191.26C319.6 207.07 317.09 220.68 312.24 232.39C279.13 237.84 220.49 234.63 186.11 200.99C183.12 198.07 179.02 195.02 174.98 195.51C170.93 195.19 166.96 198.42 164.1 201.47C130.46 237.41 71.2799 242.26 39.1699 237.5C34.0599 226.2 31.0999 213 30.7599 197.58C30.6399 192.16 30.8799 186.84 31.3999 181.6V181.59Z" fill="#C8C8FF"/>
<mask id="mask1_622_4275" style="mask-type:luminance" maskUnits="userSpaceOnUse" x="30" y="59" width="290" height="237">
<path d="M30.7501 197.58C32.4201 273.9 97.5401 296.92 177.2 295.18C256.86 293.43 320.9 267.58 319.23 191.25C317.56 114.93 251.69 57.58 172.03 59.33C92.3701 61.08 29.0801 121.26 30.7501 197.58Z" fill="white"/>
</mask>
<g mask="url(#mask1_622_4275)">
<path opacity="0.2" d="M268.77 236.699C293.01 236.165 312.34 221.222 311.947 203.321C311.553 185.42 291.584 171.341 267.344 171.874C243.105 172.407 223.774 187.351 224.168 205.252C224.562 223.152 244.531 237.232 268.77 236.699Z" fill="url(#paint0_radial_622_4275)"/>
<path opacity="0.2" d="M83.1853 240.789C107.425 240.256 126.756 225.312 126.362 207.411C125.968 189.51 105.999 175.431 81.7595 175.964C57.5201 176.497 38.1893 191.441 38.583 209.342C38.9767 227.243 58.9459 241.322 83.1853 240.789Z" fill="url(#paint1_radial_622_4275)"/>
</g>
<path d="M109.18 215.16C111.113 215.16 112.68 213.593 112.68 211.66C112.68 209.727 111.113 208.16 109.18 208.16C107.247 208.16 105.68 209.727 105.68 211.66C105.68 213.593 107.247 215.16 109.18 215.16Z" fill="black"/>
<path d="M205.55 198.26C208.71 195.51 212.7 193.83 216.74 192.92C220.67 192.06 224.78 191.89 228.73 192.65C230.72 193.02 232.03 194.93 231.66 196.92C230.89 200.77 226.28 199.87 223.43 200.55C220.24 201.01 217.12 201.75 214.06 202.73C212.65 203.15 211.14 203.77 209.75 204.2L206.68 203.38C204.4 202.85 203.73 199.69 205.54 198.26H205.55Z" fill="black"/>
<path d="M142.13 204.2C141.63 204.08 140.61 203.65 140.08 203.48C134.68 201.48 129.05 200.5 123.32 199.88C119.23 199.27 119.14 193.42 123.16 192.65C130.11 191.39 137.58 192.65 143.66 196.28C144.57 196.83 145.53 197.55 146.34 198.25C147.59 199.3 147.75 201.16 146.7 202.41C145.92 203.51 143.49 203.73 142.13 204.19V204.2Z" fill="black"/>
<path d="M186.88 219.56L175.38 208.55L164.22 220.03" stroke="black" stroke-width="6.06" stroke-linecap="round" stroke-linejoin="round"/>
<path d="M182.6 215.49L175.35 208.55L168.32 215.79L175.41 222.72L182.6 215.49Z" fill="#FF6969" stroke="black" stroke-width="6.06" stroke-linecap="round" stroke-linejoin="round"/>
<path d="M40.8 144.33C40.72 136.01 40.41 35.2 72.44 17.09C98.94 2.10999 143.39 42.61 160.66 60.02C164.41 59.67 168.19 59.41 172.02 59.33C175.85 59.25 179.64 59.34 183.4 59.53C199.89 41.38 242.52 -1.03001 269.66 12.77C302.46 29.45 306.57 130.19 306.85 138.5C314.42 154.51 318.8 172.29 319.22 191.26C320.89 267.58 256.85 293.44 177.19 295.19C97.53 296.94 32.41 273.92 30.74 197.59C30.32 178.63 33.93 160.66 40.78 144.34L40.8 144.33Z" stroke="black" stroke-width="4.85" stroke-linecap="round" stroke-linejoin="round"/>
<path d="M143.88 62.73C152.97 60.88 162.38 59.79 172.03 59.58C181.69 59.37 191.13 60.04 200.29 61.49" stroke="black" stroke-width="4.85" stroke-linecap="round" stroke-linejoin="round"/>
<path d="M239.75 296.59C237.41 281.24 225.55 275.78 215.51 279.73C211.85 281.17 209.21 284.6 208.18 288.39C207.15 292.18 207.47 296.22 208.13 300.09C209.65 308.92 213.02 317.58 218.89 324.35C224.76 331.12 238.17 336.1 248.41 328.54C248.41 328.54 268.11 318.04 249.74 285.84" fill="#C8C8FF"/>
<path d="M238.74 295.87C238.74 295.87 222.57 309.94 208.36 303.83C208.36 303.83 201.32 288.08 214.34 280.28C227.36 272.48 237.85 288.44 238.74 295.87Z" fill="white"/>
<path d="M239.75 296.59C237.41 281.24 225.55 275.78 215.51 279.73C211.85 281.17 209.21 284.6 208.18 288.39C207.15 292.18 207.47 296.22 208.13 300.09C209.65 308.92 213.02 317.58 218.89 324.35C224.76 331.12 238.17 336.1 248.41 328.54C248.41 328.54 268.11 318.04 249.74 285.84" stroke="black" stroke-width="4.85" stroke-linecap="round" stroke-linejoin="round"/>
<path d="M103.95 320.38C99.4897 318.45 95.0897 316.38 90.7497 314.18C83.3597 310.43 76.0597 306.21 70.2597 300.29C66.2697 296.22 62.9697 291.13 62.4797 285.45C61.9997 279.77 63.4097 271.99 69.6797 268.03C73.1197 265.85 78.0597 264.05 86.5397 267.46C102.15 273.74 104.65 289.78 116.36 293.01" fill="#C8C8FF"/>
<path d="M99.6901 277.08C99.6901 277.08 88.0401 301.12 70.0601 300.22C70.0601 300.22 55.6901 287.02 66.7201 273.23C77.7501 259.44 95.6901 269.34 99.6901 277.09V277.08Z" fill="white"/>
<path d="M76.7003 292.94C79.7403 295.99 81.8803 292.5 85.3603 289.03C88.8403 285.56 92.3303 283.43 89.2903 280.38C86.2503 277.33 80.9703 277.68 77.5003 281.14C74.0203 284.61 73.6703 289.89 76.7103 292.93L76.7003 292.94Z" fill="#AFAFFF"/>
<path d="M81.2096 277.75C82.9493 277.75 84.3596 276.34 84.3596 274.6C84.3596 272.86 82.9493 271.45 81.2096 271.45C79.4699 271.45 78.0596 272.86 78.0596 274.6C78.0596 276.34 79.4699 277.75 81.2096 277.75Z" fill="#AFAFFF"/>
<path d="M70.9303 288C72.67 288 74.0803 286.59 74.0803 284.85C74.0803 283.11 72.67 281.7 70.9303 281.7C69.1906 281.7 67.7803 283.11 67.7803 284.85C67.7803 286.59 69.1906 288 70.9303 288Z" fill="#AFAFFF"/>
<path d="M74.1002 280.9C75.8399 280.9 77.2502 279.49 77.2502 277.75C77.2502 276.01 75.8399 274.6 74.1002 274.6C72.3605 274.6 70.9502 276.01 70.9502 277.75C70.9502 279.49 72.3605 280.9 74.1002 280.9Z" fill="#AFAFFF"/>
<path d="M121.85 325.37C113.85 324.74 95.0799 316.38 90.7399 314.18C83.3499 310.43 76.0499 306.21 70.2499 300.29C66.2599 296.22 62.9599 291.13 62.4699 285.45C61.9899 279.77 63.3999 271.99 69.6699 268.03C73.1099 265.85 78.0499 264.05 86.5299 267.46C102.14 273.74 104.64 289.78 116.35 293.01" stroke="black" stroke-width="4.85" stroke-linecap="round" stroke-linejoin="round"/>
<path d="M187.9 75.3098C189.53 78.8898 193.43 79.7798 197.85 78.0698C204.02 75.6798 205.93 68.5098 204.3 64.9298C202.67 61.3498 198.98 66.8298 191.16 67.2398C187.51 67.4298 186.28 71.7298 187.91 75.3098H187.9Z" fill="#FFBA00" stroke="black" stroke-width="2.44" stroke-linecap="round" stroke-linejoin="round"/>
<path d="M156.85 75.2599C155.21 78.8299 151.31 79.7199 146.89 77.9899C140.73 75.5799 138.84 68.3999 140.48 64.8299C142.12 61.2599 145.79 66.7399 153.62 67.1799C157.27 67.3799 158.49 71.6899 156.85 75.2599Z" fill="#FFBA00" stroke="black" stroke-width="2.44" stroke-linecap="round" stroke-linejoin="round"/>
<path d="M166.36 96.53C166.36 99.74 162.23 99.14 157.14 99.13C152.05 99.13 147.92 99.72 147.93 96.51C147.93 93.3 152.06 90.7 157.15 90.71C162.24 90.71 166.36 93.33 166.36 96.54V96.53Z" fill="#FF8B00" stroke="black" stroke-width="2.44" stroke-linecap="round" stroke-linejoin="round"/>
<path d="M178.32 96.55C178.32 99.76 182.44 99.17 187.53 99.17C192.62 99.17 196.74 99.78 196.75 96.57C196.75 93.36 192.63 90.75 187.54 90.74C182.45 90.74 178.32 93.33 178.32 96.54V96.55Z" fill="#FF8B00" stroke="black" stroke-width="2.44" stroke-linecap="round" stroke-linejoin="round"/>
<path d="M194.48 81.41C194.48 79.35 194.07 77.37 193.33 75.51L193.39 75.4499C191.84 71.3799 188.8 68.3899 185.25 66.3499C182.45 64.6699 179.16 63.54 175.59 63.13C175.57 63.13 175.54 63.13 175.52 63.13C175.16 63.09 174.79 63.0499 174.43 63.0299C173.84 62.9799 173.25 62.95 172.69 62.95H172.67C172.67 62.95 172.66 62.95 172.65 62.95C172.09 62.95 171.5 62.98 170.91 63.02C170.54 63.04 170.17 63.0799 169.81 63.1199C169.79 63.1199 169.77 63.1199 169.75 63.1199C166.18 63.5199 162.89 64.6399 160.08 66.3099C156.53 68.3399 153.48 71.32 151.91 75.3899L151.97 75.4499C151.22 77.2999 150.8 79.2799 150.8 81.3499C150.79 91.5199 160.55 95.3599 172.6 95.5999H172.62C172.62 95.5999 172.63 95.5999 172.64 95.5999C184.7 95.3899 194.47 91.5799 194.49 81.4199L194.48 81.41Z" fill="#FFE800"/>
<path d="M172.46 19.5999C154.68 19.5699 140.25 32.6699 140.23 49.6999C140.21 62.1099 147.85 68.3799 158.88 70.8899C162.99 71.8199 167.56 72.2299 172.39 72.2399C177.26 72.2399 181.89 71.8399 186.03 70.8999C197 68.4099 204.6 62.1599 204.62 49.7999C204.64 32.7699 190.25 19.6299 172.47 19.6099L172.46 19.5999Z" fill="#FFE800"/>
<path d="M204.6 49.7999C204.62 32.7699 190.23 19.6299 172.45 19.6099C154.67 19.5799 140.24 32.6799 140.22 49.7099C140.2 60.7699 146.28 66.9499 155.4 69.9299C153.92 71.4699 152.71 73.2899 151.89 75.3999L151.95 75.4599C151.2 77.3099 150.78 79.2899 150.78 81.3599C150.77 91.5299 160.53 95.3699 172.58 95.6099H172.6C172.6 95.6099 172.61 95.6099 172.62 95.6099C184.68 95.3999 194.45 91.5899 194.47 81.4299C194.47 79.3699 194.06 77.3899 193.32 75.5299L193.38 75.4699C192.55 73.2999 191.29 71.4399 189.76 69.8699C198.67 66.8599 204.58 60.7199 204.59 49.8199L204.6 49.7999Z" fill="#FFE800" stroke="black" stroke-width="2.44" stroke-linecap="round" stroke-linejoin="round"/>
<path d="M179.19 52.33C179.19 54.41 176.06 54.31 172.31 54.31C168.57 54.31 165.62 54.39 165.63 52.31C165.63 50.47 169.77 48.97 172.41 48.98C175.05 48.99 179.19 50.49 179.18 52.33H179.19Z" fill="#FF8B00" stroke="black" stroke-width="1.63" stroke-linecap="round" stroke-linejoin="round"/>
<path d="M186.33 49.8299C186.33 51.5899 185.51 53.0099 183.77 53.0099C182.03 53.0099 181.22 51.5799 181.22 49.8199C181.22 48.0599 181.92 46.6399 183.78 46.6399C185.64 46.6399 186.33 48.0699 186.33 49.8299Z" fill="black"/>
<path d="M163.6 49.7999C163.6 51.5599 162.78 52.9799 161.04 52.9799C159.3 52.9799 158.49 51.5499 158.49 49.7899C158.49 48.0299 159.19 46.6099 161.05 46.6099C162.91 46.6099 163.6 48.0399 163.6 49.7999Z" fill="black"/>
<path d="M172.36 11.98C157 11.96 144.3 22.36 142.33 36.47C142.1 38.12 143.81 39.35 145.29 38.58L151.49 35.35C152.09 35.04 152.8 35.04 153.39 35.36L161.48 39.73C162.08 40.05 162.8 40.06 163.4 39.73L171.48 35.39C172.08 35.07 172.8 35.07 173.4 35.39L181.47 39.75C182.07 40.07 182.79 40.08 183.39 39.75L191.48 35.41C192.08 35.09 192.8 35.09 193.4 35.41L199.31 38.59C200.78 39.38 202.52 38.15 202.29 36.49C200.35 22.39 187.68 11.98 172.34 11.96L172.36 11.98Z" fill="white" stroke="black" stroke-width="2.44" stroke-linecap="round" stroke-linejoin="round"/>
</g>
<defs>
<radialGradient id="paint0_radial_622_4275" cx="0" cy="0" r="1" gradientUnits="userSpaceOnUse" gradientTransform="translate(266.92 204.685) rotate(178.74) scale(43.8864 32.4688)">
<stop stop-color="#FF90FF"/>
<stop offset="0.14" stop-color="#FF91FF" stop-opacity="0.99"/>
<stop offset="0.26" stop-color="#FF96FF" stop-opacity="0.94"/>
<stop offset="0.38" stop-color="#FF9FFF" stop-opacity="0.86"/>
<stop offset="0.51" stop-color="#FFAAFF" stop-opacity="0.76"/>
<stop offset="0.63" stop-color="#FFBAFF" stop-opacity="0.62"/>
<stop offset="0.75" stop-color="#FFCCFF" stop-opacity="0.45"/>
<stop offset="0.87" stop-color="#FFE3FF" stop-opacity="0.25"/>
<stop offset="0.99" stop-color="#FFFCFF" stop-opacity="0.03"/>
<stop offset="1" stop-color="white" stop-opacity="0"/>
</radialGradient>
<radialGradient id="paint1_radial_622_4275" cx="0" cy="0" r="1" gradientUnits="userSpaceOnUse" gradientTransform="translate(81.3706 208.765) rotate(178.74) scale(43.8864 32.4688)">
<stop stop-color="#FF90FF"/>
<stop offset="0.14" stop-color="#FF91FF" stop-opacity="0.99"/>
<stop offset="0.26" stop-color="#FF96FF" stop-opacity="0.94"/>
<stop offset="0.38" stop-color="#FF9FFF" stop-opacity="0.86"/>
<stop offset="0.51" stop-color="#FFAAFF" stop-opacity="0.76"/>
<stop offset="0.63" stop-color="#FFBAFF" stop-opacity="0.62"/>
<stop offset="0.75" stop-color="#FFCCFF" stop-opacity="0.45"/>
<stop offset="0.87" stop-color="#FFE3FF" stop-opacity="0.25"/>
<stop offset="0.99" stop-color="#FFFCFF" stop-opacity="0.03"/>
<stop offset="1" stop-color="white" stop-opacity="0"/>
</radialGradient>
</defs>
</svg>
