<?xml version="1.0" encoding="UTF-8"?><svg id="_레이어_2" xmlns="http://www.w3.org/2000/svg" xmlns:xlink="http://www.w3.org/1999/xlink" viewBox="0 0 240 120"><defs><style>.cls-1{fill:#ed9600;}.cls-2{fill:#ff8898;}.cls-3{fill:#fff;}.cls-4{fill:none;}.cls-5{fill:red;}.cls-6{opacity:.8;}.cls-7{fill:#00b81d;}.cls-8{fill:#ffbf00;}.cls-9{opacity:.48;}.cls-10{fill:#c8f88b;}.cls-11{clip-path:url(#clippath);}</style><clipPath id="clippath"><rect class="cls-4" width="240" height="120"/></clipPath></defs><g id="_레이어_1-2"><g class="cls-11"><path class="cls-5" d="M182.04,112.55c2.87,3.76,3.78,13.88,5.48,22.1,0,0-4.27-3.68-10.09-3.08,0,0-6.73,1.03-8.64-1.47"/><path d="M187.52,135.49c-.2,0-.39-.07-.55-.2-.04-.04-4.09-3.44-9.45-2.88-.7.11-7.24,1.02-9.4-1.8-.28-.37-.21-.9.16-1.19.37-.28.9-.21,1.19.16,1.17,1.53,5.43,1.52,7.84,1.15,3.9-.41,7.12.96,8.99,2.05-.3-1.6-.58-3.25-.86-4.85-1.03-6.04-2.09-12.28-4.07-14.87-.28-.37-.21-.9.16-1.19.37-.28.9-.21,1.19.16,2.23,2.92,3.28,9.08,4.39,15.61.39,2.28.79,4.64,1.24,6.83.07.35-.09.72-.4.9-.13.08-.28.12-.43.12Z"/><path class="cls-8" d="M202.4,89.32c-5.33,1.22-8.52.3-11.16-3.51s-1.15-9.44,3.35-12.55c4.49-3.11,9.53-3.55,12.92,1.28,3.4,4.82,1.91,13.18-5.11,14.78Z"/><path class="cls-8" d="M159.58,65.07c1.69,5.2,4.12,7.46,8.75,7.77,4.63.3,8.68-3.87,9.04-9.32.36-5.45-1.86-10-7.74-10.43-5.88-.43-12.28,5.14-10.05,11.98Z"/><path class="cls-8" d="M146.6,74.86c.31-.52.65-1.03,1.05-1.54,2.9-3.73,6.38-4.78,8.64-6.06,4.12-2.35,7.91-4.27,12.74-4.36,5.2.31,10.94,2,16.98,5.43,6.05,3.41,10.45,7.46,13.39,11.76,2.4,4.19,2.7,8.43,2.81,13.17.06,2.6.95,6.12-.75,10.53-.23.6-.5,1.16-.78,1.69-2.11,3.47-4.96,5.53-8.34,6.44-6.52,1.55-15.23-.85-23.87-5.27-.13-.07-.25-.13-.38-.2-.15-.08-.31-.16-.46-.24-.78-.41-1.56-.84-2.35-1.28-.78-.45-1.55-.9-2.31-1.35-.15-.09-.3-.18-.44-.27-.12-.08-.24-.15-.36-.23-8.23-5.14-14.78-11.37-16.8-17.76-.96-3.37-.66-6.87,1.23-10.47Z"/><path class="cls-3" d="M174.44,88.83c17.55,9.94,20.27,16.72,16.35,23.4-6.31.87-14.33-1.48-22.3-5.56-.13-.07-.25-.13-.38-.2-.15-.08-.31-.16-.46-.24-.78-.41-1.56-.84-2.35-1.28-.78-.45-1.55-.9-2.31-1.35-.15-.09-.3-.18-.44-.27-.12-.08-.24-.15-.36-.23-7.62-4.75-13.78-10.44-16.26-16.32,3.47-7.08,10.97-7.89,28.51,2.04Z"/><path class="cls-2" d="M170.16,89.55c-.98,1.85-4.92,5.61-.63,7.89,4.29,2.28,5.2-3.09,6.19-4.94"/><path d="M171.25,98.17c-.62,0-1.27-.18-1.95-.54-1.09-.58-1.76-1.34-2.01-2.26-.46-1.73.71-3.59,1.56-4.95.22-.35.42-.67.57-.95.15-.28.5-.39.78-.24.28.15.39.5.24.78-.16.3-.38.65-.61,1.02-.78,1.25-1.75,2.8-1.42,4.04.16.61.63,1.11,1.44,1.54.76.41,1.42.51,2,.31,1.25-.42,2.06-2.2,2.66-3.5.17-.37.33-.71.48-.99.15-.28.5-.39.78-.24.28.15.39.5.24.78-.14.26-.29.58-.45.93-.68,1.49-1.62,3.53-3.34,4.12-.31.11-.63.16-.96.16Z"/><path d="M171.94,91.12c-.75,0-1.45-.28-1.87-.55-.43-.22-1.15-.85-1.3-1.91-.05-.37.21-.71.58-.76.37-.06.71.21.76.58.09.64.57.89.59.9.21.13,1.44.89,2.3-.11.25-.28.67-.31.96-.07.28.25.31.67.07.96-.63.72-1.38.97-2.08.97Z"/><path d="M175.89,93.32c-.49,0-.91-.14-1.16-.28-.9-.39-2.38-1.59-1.87-3.51.1-.36.46-.57.83-.48.36.1.57.47.48.83-.34,1.27.97,1.87,1.12,1.93.1.05.57.3,1.15.02.34-.16.74-.02.91.31.16.34.02.74-.31.91-.4.2-.8.27-1.15.27Z"/><ellipse cx="165.31" cy="84.05" rx="2.49" ry="2.37" transform="translate(13.5 190.56) rotate(-62.01)"/><ellipse cx="182.8" cy="93.35" rx="2.49" ry="2.37" transform="translate(14.57 210.94) rotate(-62.01)"/><path class="cls-1" d="M187.52,80.02c-2.28-1.29-.7-4.08,1.24-7.53.35-.63.73-1.19,1.12-1.73,1.47,1.01,2.82,2.06,4.05,3.15-.18.39-.38.77-.6,1.16-1.95,3.44-3.53,6.23-5.81,4.94Z"/><path class="cls-1" d="M180.86,77.73c-2.28-1.29-.7-4.08,1.24-7.53.63-1.1,1.32-2.06,2.01-2.86.67.34,1.34.67,2.03,1.05s1.31.79,1.95,1.19c-.32,1-.79,2.09-1.41,3.19-1.95,3.44-3.53,6.23-5.81,4.94Z"/><path class="cls-1" d="M175.47,73.19c-2.28-1.29-.7-4.08,1.24-7.53.22-.39.45-.76.69-1.12,1.57.5,3.16,1.11,4.79,1.86-.26.61-.55,1.22-.91,1.85-1.95,3.44-3.53,6.23-5.81,4.94Z"/><path class="cls-3" d="M203.34,77.21c-1.73-2.18-4.03-2.07-6.12-.72-.33.22-.42.66-.19.99,1.48,2.12,2.57,4.46,3.27,7.03.11.42.57.63.96.46,3.29-1.48,3.84-5.52,2.08-7.76Z"/><path class="cls-3" d="M169.47,58.03c2.76.36,3.85,2.39,3.76,4.88-.01.4-.35.7-.75.67-2.58-.18-5.15.09-7.71.81-.41.12-.84-.16-.89-.59-.42-3.59,2.76-6.13,5.58-5.77Z"/><path d="M187.98,113.25c-6.87,0-14.37-3.01-19.91-5.84l-.85-.44c-.79-.42-1.58-.85-2.37-1.29-.79-.45-1.57-.91-2.33-1.37l-.82-.5c-6.48-4.04-14.71-10.49-17.16-18.22-1.06-3.75-.62-7.48,1.29-11.12.39-.65.75-1.18,1.13-1.67h0c2.38-3.06,5.1-4.39,7.29-5.46.58-.28,1.12-.54,1.6-.82,1.06-.6,1.97-1.1,2.8-1.52-.87-3.01-.29-6.03,1.66-8.52,2.22-2.83,5.89-4.49,9.36-4.24,5.78.42,8.96,4.66,8.53,11.33,0,.1-.01.21-.02.31,2.73.91,5.49,2.16,8.23,3.72,2.74,1.55,5.24,3.28,7.42,5.15.08-.06.17-.12.25-.18,5.49-3.8,10.77-3.25,14.1,1.48,2,2.84,2.46,6.85,1.17,10.21-1.13,2.96-3.42,5.01-6.45,5.81.06.93.11,1.97.13,3.19.01.55.07,1.15.12,1.79.21,2.42.47,5.44-.93,9.06-.22.57-.48,1.14-.82,1.78-2.16,3.56-5.14,5.85-8.87,6.86-1.47.35-3,.51-4.57.51ZM148.31,73.84c-.33.43-.66.91-.99,1.46-1.68,3.2-2.07,6.51-1.14,9.8,1.78,5.63,7.62,11.77,16.43,17.27l.8.49c.75.45,1.51.9,2.29,1.34.78.44,1.55.86,2.32,1.27l.83.43c9.25,4.73,17.52,6.58,23.29,5.2,3.28-.89,5.91-2.93,7.82-6.06.28-.54.52-1.05.71-1.56,1.26-3.25,1.02-6.05.82-8.3-.06-.68-.11-1.31-.13-1.9-.04-1.52-.09-2.73-.18-3.82-.04-.42.25-.81.67-.9l.36-.07c2.63-.6,4.62-2.33,5.58-4.85,1.09-2.85.71-6.23-.98-8.63-3.93-5.59-9.53-2.61-11.75-1.07-.25.17-.48.35-.71.54-.32.26-.79.25-1.1-.02-2.22-1.97-4.8-3.78-7.67-5.4-2.86-1.63-5.75-2.9-8.58-3.8-.4-.12-.64-.52-.58-.93.04-.29.08-.58.1-.88.18-2.7-.15-9.03-6.96-9.53-2.92-.22-6.02,1.2-7.9,3.6-1.67,2.13-2.12,4.71-1.28,7.28l.12.34c.14.4-.04.85-.42,1.04-.99.49-2.06,1.06-3.37,1.81-.51.29-1.08.57-1.69.87-2.03.99-4.55,2.22-6.7,4.98h0Z"/><path class="cls-8" d="M150.63,125.75c-1.72,2.84-3.23,5.9-3.99,9.15-.97,4.17-.6,8.51,1.01,11.87.84,1.75,2.04,3.28,3.67,3.94,3.17,1.29,7.45-.89,8.42-5.15,1.55-6.81-4.59-10.36-1.82-20.61.58-2.16,2.53-.8,2.61-3,.09-2.36-1.56-4.92-3.73-3.89-2.32,1.1-4.75,5.36-6.17,7.7Z"/><path class="cls-3" d="M155.43,150.65c-.86-.61-1.63-1.44-2.28-2.38-2.13-3.06-3.19-7.29-2.9-11.56.22-3.33,1.23-6.59,2.46-9.67,1.02-2.54,2.74-7.14,4.85-8.59.38-.26.75-.39,1.12-.41-.55-.28-1.19-.32-1.88,0-2.32,1.1-4.75,5.36-6.17,7.7-1.72,2.84-3.23,5.9-3.99,9.15-.97,4.17-.6,8.51,1.01,11.87.84,1.75,2.04,3.28,3.67,3.94,1.29.52,2.76.47,4.12-.06Z"/><path d="M153.25,151.92c-.78,0-1.54-.14-2.25-.43-1.65-.67-3.07-2.18-4.11-4.36-1.69-3.54-2.08-8.07-1.07-12.43.68-2.92,1.98-5.9,4.09-9.39h0l.31-.52c1.53-2.54,3.83-6.38,6.21-7.51,1-.47,2.04-.41,2.93.17,1.27.84,2.08,2.65,2.02,4.52-.06,1.7-1.1,2.08-1.72,2.3-.5.18-.75.27-.92.89-1.48,5.49-.32,8.89.8,12.18.91,2.66,1.76,5.17,1.03,8.4-.53,2.33-2.02,4.29-4.08,5.36-1.04.54-2.15.82-3.23.82ZM151.36,126.19c-2.01,3.33-3.25,6.16-3.89,8.9-.93,3.99-.59,8.11.95,11.32.6,1.25,1.64,2.88,3.22,3.52,1.23.5,2.71.39,4.07-.32,1.62-.84,2.79-2.39,3.21-4.23.63-2.76-.12-4.95-.98-7.48-1.15-3.36-2.45-7.17-.83-13.16.4-1.47,1.39-1.83,1.98-2.04.53-.19.59-.21.61-.77.05-1.23-.49-2.54-1.25-3.04-.39-.26-.81-.28-1.27-.06-1.92.91-4.16,4.63-5.49,6.85l-.32.52Z"/><path class="cls-3" d="M145.32,85.15c4.36.34,10.03,12.91,10.18,13.22l.04.02c2.02,1.64,4.25,3.21,6.62,4.69.12.08.24.15.36.23.15.09.3.18.44.27.75.46,1.52.91,2.31,1.35.78.44,1.57.87,2.35,1.28.15.08.31.16.46.24.13.07.25.13.38.2,1.41.72,2.85,1.4,4.31,2.02,1.23.52,8.19,2.17,8.98,3.27,1.49,2.26-4.43,7.84-8.84,14.07-2.29,3.35-6.26,8.9-10.95,8.27-3.2-1.25-4.6-4.82-5.07-8.91-.27-2.31-2.74-3.71-4.85-2.75-3.75,1.7-7.52,2.34-10.24.24-1.69-1.3-1.36-5.24-.23-9.79,1.89-7.64,2.17-15.52,1.18-23.32-.23-1.77-.02-3.18.84-3.98.54-.5,1.12-.68,1.73-.64Z"/><path d="M162.7,135.18c-.28,0-.56-.02-.85-.06-.07,0-.13-.03-.2-.05-3.12-1.22-5-4.45-5.6-9.6-.09-.83-.57-1.54-1.31-1.96s-1.59-.46-2.35-.11c-4.72,2.14-8.46,2.19-11.11.14-1.79-1.39-1.97-4.87-.54-10.66,1.8-7.25,2.19-14.99,1.16-23.01-.28-2.19.09-3.77,1.11-4.71.69-.64,1.49-.92,2.37-.86h0c4.52.35,9.6,10.89,10.79,13.52,1.94,1.57,4.11,3.1,6.43,4.55l.73.45c.82.5,1.58.94,2.36,1.39.78.44,1.55.86,2.32,1.27l.83.43c1.42.73,2.85,1.4,4.25,2,.33.14,1.28.42,2.29.71,4.38,1.27,6.44,1.99,7.05,2.85,1.4,2.12-1.17,5.31-4.73,9.73-1.38,1.71-2.8,3.47-4.11,5.32-1.95,2.86-5.92,8.68-10.9,8.68ZM162.18,133.46c4.31.5,8.17-5.19,10.04-7.92,1.35-1.9,2.79-3.69,4.18-5.42,2.51-3.11,5.35-6.64,4.65-7.71-.5-.54-4.44-1.69-6.13-2.18-1.2-.35-2.06-.6-2.48-.78-1.44-.62-2.9-1.31-4.36-2.05l-.85-.44c-.79-.42-1.58-.85-2.37-1.29-.79-.45-1.57-.91-2.33-1.37l-.81-.5c-2.42-1.51-4.67-3.1-6.68-4.73-.13-.09-.25-.22-.31-.36-2.16-4.8-6.64-12.51-9.47-12.73-.39-.03-.75.1-1.09.41-.73.68-.72,2.14-.58,3.25,1.05,8.23.65,16.18-1.19,23.63-1.68,6.8-.61,8.5-.07,8.92,2.12,1.64,5.27,1.52,9.38-.34,1.26-.57,2.67-.5,3.89.18,1.21.69,2,1.87,2.16,3.24.51,4.42,2,7.17,4.44,8.18Z"/><ellipse class="cls-5" cx="170.53" cy="107.91" rx="4.42" ry="5.04" transform="translate(-7.4 203.13) rotate(-60.48)"/><path d="M171.07,113.34c-1.07,0-2.15-.29-3.13-.84-2.82-1.6-3.96-4.96-2.53-7.48h0c1.43-2.53,4.89-3.28,7.72-1.68,2.82,1.6,3.96,4.96,2.53,7.48-.7,1.24-1.91,2.1-3.39,2.4-.39.08-.79.12-1.19.12ZM166.88,105.84c-.97,1.71-.12,4.04,1.89,5.18.99.56,2.11.75,3.15.54,1-.21,1.8-.77,2.26-1.58.97-1.71.12-4.04-1.89-5.18-2.01-1.14-4.44-.67-5.41,1.04h0Z"/><ellipse class="cls-5" cx="159.75" cy="101.8" rx="4.42" ry="5.04" transform="translate(-7.56 190.65) rotate(-60.48)"/><path d="M160.28,107.23c-1.07,0-2.15-.29-3.13-.84-2.82-1.6-3.96-4.96-2.53-7.48.7-1.24,1.91-2.1,3.39-2.4,1.44-.3,2.98-.04,4.33.72,1.35.76,2.36,1.95,2.85,3.34.5,1.43.38,2.9-.32,4.14-.7,1.24-1.91,2.1-3.39,2.4-.39.08-.79.12-1.19.12ZM159.21,98.07c-.29,0-.57.03-.85.09-1,.21-1.8.77-2.26,1.58-.97,1.71-.12,4.04,1.89,5.18.99.56,2.11.76,3.15.54,1-.21,1.8-.77,2.26-1.58h0c.46-.81.53-1.79.19-2.75-.35-1-1.09-1.86-2.08-2.43-.73-.41-1.52-.62-2.3-.62Z"/><line class="cls-5" x1="170.64" y1="107.97" x2="159.98" y2="101.94"/><path d="M170.64,108.82c-.14,0-.28-.04-.42-.11l-10.65-6.03c-.41-.23-.55-.75-.32-1.15.23-.41.75-.55,1.15-.32l10.65,6.03c.41.23.55.75.32,1.15-.16.27-.44.43-.74.43Z"/><circle class="cls-5" cx="165.14" cy="104.86" r="3.36"/><path d="M165.13,109.07c-.72,0-1.43-.18-2.07-.55-.98-.55-1.68-1.46-1.98-2.54-.3-1.08-.16-2.22.39-3.2s1.46-1.68,2.54-1.98c1.08-.3,2.22-.16,3.2.39,2.02,1.14,2.73,3.72,1.59,5.74-.55.98-1.46,1.68-2.54,1.98-.37.1-.75.15-1.13.15ZM165.14,102.34c-.22,0-.45.03-.68.09-.65.18-1.19.6-1.52,1.19s-.42,1.26-.24,1.91.6,1.19,1.19,1.52c.58.33,1.26.42,1.91.24.65-.18,1.19-.6,1.52-1.19.68-1.21.26-2.75-.95-3.43-.38-.22-.81-.33-1.24-.33Z"/><path class="cls-3" d="M181.29,112.72s-8.01,4.61-10.56-.24c-1.58-3-2.53-2.64-2.53-2.64,0,0-3.18-.21-3.45,5.39-.25,5.19,6.04,9.28,6.04,9.28"/><path class="cls-8" d="M167.03,110.73l1.16-.89s.95-.36,2.53,2.64c2.55,4.85,8.94-.8,8.94-.8,5.36,1.4-1.89,8.24-5.55,12.44-3.2-2.87-8.68-8.66-7.08-13.39Z"/><path d="M162.7,135.18c-.28,0-.56-.02-.85-.06-.46-.06-.79-.49-.73-.95.06-.46.48-.79.95-.73,4.34.61,8.26-5.15,10.14-7.91,1.35-1.9,2.79-3.69,4.18-5.42,2.51-3.11,5.35-6.64,4.65-7.71-.26-.39-.15-.92.24-1.17.39-.26.92-.15,1.17.24,1.38,2.1-1.19,5.29-4.75,9.7-1.38,1.71-2.8,3.47-4.11,5.32-1.95,2.86-5.92,8.68-10.9,8.68Z"/><path d="M170.79,125.35c-.15,0-.29-.04-.43-.12-.26-.15-6.38-3.81-6.46-10-.03-2.35.53-4.09,1.66-5.17,1.01-.96,2.13-1.07,2.54-1.08.6-.11,1.83.17,3.37,3.09.41.78.94,1.25,1.63,1.43,1.03.28,2.46-.09,3.92-1,.4-.25.92-.13,1.17.27.25.4.13.92-.27,1.17-1.09.68-3.22,1.75-5.26,1.2-1.15-.31-2.06-1.08-2.69-2.28-.94-1.79-1.55-2.13-1.68-2.19-.05,0-.1,0-.15,0-.02,0-.78-.02-1.44.64-.75.74-1.13,2.08-1.11,3.89.07,5.22,5.57,8.53,5.62,8.56.4.24.54.76.3,1.16-.16.27-.44.42-.73.42ZM168.49,110.63s0,0,0,0c0,0,0,0,0,0ZM168.5,110.63s0,0,0,0c0,0,0,0,0,0Z"/><path class="cls-10" d="M73.04,121.48c-4.02-.73-8.92-1.9-12.82-3.14-3.18-1.01-6.36-2.22-9.05-4.19-1.85-1.36-3.5-3.17-4.06-5.4-.56-2.23-.5-5.41,1.73-7.4,1.23-1.09,3.07-2.13,6.67-1.32,6.62,1.48,8.51,7.17,13.38,7.7"/><path d="M72.93,122.45s-.04,0-.07,0c-4.3-.78-9.26-2-12.94-3.17-2.99-.95-6.44-2.21-9.34-4.34-2.35-1.73-3.88-3.78-4.42-5.94-.32-1.26-1.11-5.58,2.03-8.37,1.25-1.11,3.4-2.46,7.53-1.54,3.67.82,5.96,2.84,7.98,4.61,1.73,1.52,3.23,2.84,5.25,3.07.01,0,.01,0,.04,0,.53.06.92.54.86,1.08-.06.54-.54.92-1.08.87-2.61-.29-4.46-1.87-6.37-3.55-1.94-1.7-3.94-3.46-7.12-4.17-3.21-.72-4.74.15-5.81,1.1-1.84,1.63-1.94,4.39-1.43,6.43.55,2.17,2.31,3.83,3.69,4.85,2.67,1.96,5.93,3.15,8.77,4.05,3.61,1.15,8.47,2.34,12.7,3.11.53.1.88.61.79,1.14-.09.51-.57.85-1.07.8Z"/><path d="M75.5,13.96c-.57-.07-1.07-.46-1.24-1.04-.55-1.85-1.38-3.01-2.45-3.43-1.36-.53-2.83.2-3.03.31-.44.3-1.03.35-1.52.08-.71-.38-.98-1.27-.59-1.99.49-.91,2.92-1.68,4.72-1.49,1.87.21,4.39,1.34,5.68,5.68.23.78-.21,1.59-.99,1.82-.2.06-.39.07-.58.05Z"/><path d="M75.3,14c-.67-.08-1.22-.61-1.29-1.31-.46-4.49,1.41-6.51,3.06-7.41,1.59-.87,4.14-1.09,4.95-.44.63.51.73,1.43.23,2.06-.36.44-.92.63-1.45.52-.23-.02-1.87-.13-2.92.87-.83.8-1.15,2.18-.96,4.1.08.81-.5,1.52-1.31,1.61-.11.01-.21.01-.32,0Z"/><path class="cls-7" d="M96.1,117.47c7.16,9.58,20.17,11.97,29.07,5.32,8.89-6.64,10.37-18.05.85-30.79-9.52-12.74-17.89-10.55-26.78-3.91-8.89,6.64-10.3,19.8-3.14,29.38Z"/><path d="M111.27,127.39c-.49-.06-.98-.13-1.47-.22-5.73-1.05-10.88-4.29-14.49-9.12-3.61-4.83-5.26-10.69-4.64-16.48.62-5.82,3.46-10.89,7.98-14.27,5.37-4.01,9.62-5.71,13.79-5.51,5.01.23,9.71,3.39,14.36,9.62,9.28,12.42,8.88,24.74-1.05,32.16-4.14,3.09-9.23,4.42-14.48,3.82ZM113.05,83.8c-.23-.03-.47-.05-.71-.06-3.68-.18-7.54,1.4-12.52,5.12-4.08,3.05-6.64,7.63-7.2,12.91-.57,5.3.95,10.67,4.26,15.1,3.31,4.44,8.03,7.41,13.28,8.37,5.22.96,10.34-.2,14.42-3.25,9.1-6.8,9.34-17.8.66-29.43-4.05-5.42-8.04-8.3-12.18-8.78Z"/><path class="cls-7" d="M119.81,113.02s1-7.98-2.68-15.25l-9.51,1.53,12.18,13.71Z"/><path d="M119.67,114.23c-.29-.03-.57-.17-.77-.4l-12.18-13.72c-.3-.33-.39-.8-.24-1.22.15-.42.52-.72.96-.8l9.51-1.53c.53-.08,1.05.18,1.28.65,3.81,7.51,2.84,15.61,2.8,15.95-.06.48-.39.87-.85,1.01-.16.05-.34.07-.5.05ZM110.01,100.15l8.69,9.78c-.05-2.68-.46-6.83-2.28-10.81l-6.41,1.03Z"/><path class="cls-10" d="M73.81,118.52c1.54-15.25-3.76-27.85,16.32-32.34h0s0,0,0,0,0,0,0,0h0c20.28-3.5,20.65,9.52,27.89,23.03,6.84,12.76-2.23,23.38-17.96,27.09h0s0,0,0,0h0s0,0,0,0c-15.96,2.57-27.71-3.37-26.25-17.78Z"/><path d="M89.24,137.65c-4.9-.56-8.95-2.23-11.82-4.94-3.6-3.39-5.18-8.34-4.58-14.29.32-3.18.34-6.23.36-9.19.07-10.89.13-20.3,16.72-24.01.02,0,.03,0,.05-.01h0c17.04-2.94,20.86,5.74,25.27,15.8,1.1,2.51,2.24,5.11,3.65,7.73,2.8,5.23,3.18,10.45,1.08,15.1-2.81,6.23-9.97,11.11-19.66,13.4-.03,0-.07.02-.1.02h0c-3.98.64-7.68.76-10.98.38ZM90.29,87.15c-15.02,3.4-15.07,11.25-15.14,22.11-.02,3-.04,6.1-.37,9.37h0c-.55,5.4.79,9.66,3.98,12.67,4.36,4.11,11.87,5.54,21.15,4.05.01,0,.02,0,.04,0,9.1-2.2,15.71-6.66,18.25-12.29,1.84-4.07,1.48-8.7-1.02-13.37-1.44-2.69-2.6-5.33-3.72-7.87-4.42-10.07-7.61-17.34-23.15-14.66h-.01Z"/><path class="cls-3" d="M86.29,125.99c2.61,7.2,5.9,12.61,16.29,8.84,10.39-3.77,9.43-10.03,6.82-17.23-2.61-7.2-9.91-11.15-16.29-8.84-6.38,2.32-9.43,10.03-6.82,17.23Z"/><path class="cls-10" d="M109.35,113.98c-2.86-1.34-20.35-.4-17.12,9.53,1,3.09,5.59,2.87,11.59,6.03,0,0,6.4,4.51,12.9-.88,0,0,6.46-4.59,3.09-15.65"/><path d="M108.54,132.21c-2.8-.32-4.83-1.57-5.22-1.82-2.26-1.18-4.29-1.87-6.08-2.47-2.9-.98-5.19-1.75-5.95-4.1-.98-3.03-.32-5.67,1.92-7.65,4.46-3.94,14.14-4.2,16.54-3.07.49.23.7.81.47,1.3-.23.49-.81.7-1.3.47-1.75-.82-10.62-.58-14.42,2.77-1.66,1.46-2.1,3.29-1.36,5.58.44,1.35,1.92,1.91,4.72,2.85,1.78.6,3.99,1.34,6.4,2.62.04.02.07.04.11.07.24.17,5.89,4,11.71-.83.29-.22,5.88-4.42,2.77-14.61-.16-.52.13-1.06.65-1.22.51-.16,1.06.13,1.22.65,3.53,11.6-3.17,16.53-3.45,16.73-3.11,2.58-6.24,3.04-8.75,2.75Z"/><path class="cls-10" d="M29.05,76.85c5.98,30.18,33.43,34.78,64.92,28.54,31.5-6.24,55.11-20.96,49.13-51.14-5.98-30.18-36.11-48.35-67.61-42.11-31.5,6.24-52.42,34.53-46.45,64.71Z"/><rect class="cls-10" x="115.64" y="96.86" width="6.02" height="7.31" transform="translate(-17.27 24.98) rotate(-11.21)"/><path d="M63.25,108.36c-4.24-.49-8.13-1.36-11.65-2.63-12.76-4.58-20.68-14.23-23.55-28.69h0c-6.04-30.51,14.71-59.45,47.25-65.9,32.54-6.45,62.76,12.4,68.8,42.91,2.86,14.46-.78,26.4-10.83,35.5-8.53,7.72-21.69,13.38-39.11,16.84-11.76,2.33-22.11,2.99-30.92,1.97ZM94.93,12.31c-6.18-.71-12.66-.48-19.23.83-31.42,6.22-51.47,34.12-45.64,63.51h0c2.72,13.71,10.2,22.84,22.24,27.16,10.48,3.76,24.44,3.95,41.49.57,17.05-3.38,29.88-8.88,38.13-16.35,9.48-8.58,12.91-19.89,10.2-33.59-4.6-23.24-23.81-39.45-47.18-42.13Z"/><g class="cls-9"><circle class="cls-3" cx="110.79" cy="53.63" r="23.84"/></g><g class="cls-9"><circle class="cls-3" cx="58.98" cy="63.69" r="23.84"/></g><path d="M98.76,68.69c1.51-2.12,3.67-3.38,6.09-4.11,1.33-.36,3.72-1.06,3.96.93.05.69-.38,1.3-1,1.51-2.54.9-4.91,2.2-7.06,3.72-1.31.86-2.88-.8-1.99-2.05h0Z"/><ellipse cx="71.83" cy="74.21" rx="4.23" ry="4.44" transform="translate(-14.61 17.69) rotate(-12.75)"/><path class="cls-7" d="M107.92,78.77c-10.63-1.22-19.75-9.17-21.94-20.22h0c-2.71-13.69,6.22-27.02,19.9-29.74,13.69-2.71,27.03,6.22,29.74,19.9,2.71,13.69-6.22,27.03-19.9,29.74-2.64.52-5.26.61-7.79.32ZM113.33,31.4c-2.24-.26-4.56-.18-6.89.28-5.86,1.16-10.92,4.54-14.24,9.5-3.32,4.96-4.51,10.93-3.35,16.79h0c2.4,12.1,14.19,19.99,26.29,17.59,5.86-1.16,10.92-4.53,14.24-9.5,3.32-4.96,4.51-10.93,3.35-16.79-1.94-9.77-10-16.8-19.4-17.88Z"/><path class="cls-7" d="M56.1,88.83c-10.63-1.22-19.75-9.17-21.94-20.22h0c-2.71-13.69,6.22-27.03,19.9-29.74,13.69-2.71,27.02,6.22,29.74,19.9,1.31,6.63-.03,13.37-3.79,18.99-3.76,5.62-9.48,9.43-16.11,10.75-2.64.52-5.26.61-7.79.32ZM37.04,68.04c2.4,12.1,14.19,19.99,26.29,17.59,5.86-1.16,10.92-4.53,14.24-9.5s4.51-10.93,3.35-16.79c-1.16-5.86-4.53-10.92-9.5-14.24-4.96-3.32-10.93-4.51-16.79-3.35-12.1,2.4-19.99,14.19-17.6,26.29h0Z"/><path class="cls-7" d="M83.82,67.21l-1.91-2.23c3.45-2.95,7.77-1.64,7.95-1.58l-.87,2.8c-.12-.03-2.98-.86-5.18,1.01Z"/><g class="cls-6"><path class="cls-3" d="M42.43,54.56c-3.46,6.67-2.7,13.93,1.7,16.21,4.4,2.28,6.79-3.34,10.25-10.01,3.46-6.67,6.68-11.86,2.28-14.14-4.4-2.28-10.78,1.27-14.24,7.94Z"/></g><path d="M81.35,84.31c-2.25-.26-3.52-1.92-3.59-2.01-.41-.54-.29-1.31.25-1.71.54-.4,1.3-.3,1.7.24.13.16,1.25,1.51,3.22.91,2.54-.77,4.1-2.86,4.14-4.44.02-.67.58-1.21,1.26-1.19.69.04,1.21.58,1.19,1.26-.08,2.88-2.55,5.7-5.88,6.71-.85.26-1.61.31-2.29.23Z"/><path d="M93.28,81.77c-2.71-.31-5.11-1.81-6.06-3.95-.27-.62,0-1.34.62-1.61.62-.27,1.34,0,1.61.62.64,1.44,2.88,2.77,5.52,2.53,2.04-.2,2.57-1.88,2.63-2.07.18-.64.84-1.04,1.5-.86.65.17,1.03.83.87,1.48-.04.14-.95,3.52-4.76,3.89-.65.06-1.3.05-1.93-.02Z"/><path class="cls-10" d="M114.08,100.58c-2.31-5.81-7.46-6.89-11.05-4.42-1.31.9-2.03,2.48-2.09,4.07-.06,1.58.43,3.14,1.04,4.6,1.4,3.33,3.5,6.43,6.42,8.55,2.92,2.13,7.03,2.98,11.97-1.03,0,0,5.36-2.77.31-14.62"/><path d="M112.56,116.1c-1.88-.22-3.47-1.02-4.73-1.93-2.81-2.05-5.15-5.15-6.75-8.96-.56-1.33-1.19-3.11-1.12-5.02.08-2,1.02-3.81,2.52-4.83,1.99-1.37,4.41-1.76,6.64-1.09,2.57.78,4.65,2.9,5.87,5.95.2.5-.05,1.07-.55,1.27-.5.2-1.07-.05-1.27-.55-.99-2.49-2.63-4.2-4.62-4.8-1.66-.5-3.47-.2-4.96.83-.98.67-1.62,1.94-1.67,3.3-.06,1.52.49,3.03.97,4.18,1.46,3.48,3.57,6.3,6.1,8.14,3.34,2.44,6.97,2.1,10.78-1,.05-.04.11-.08.17-.11.03-.02,4.43-2.64-.14-13.37-.21-.5.02-1.07.52-1.28.5-.21,1.07.02,1.28.52,5.01,11.75.17,15.3-.66,15.81-3.17,2.56-6,3.22-8.37,2.95Z"/><path class="cls-10" d="M65.88,119.95c-1.9-.48-3.79-1.02-5.65-1.61-3.18-1.01-6.36-2.22-9.05-4.19-1.85-1.36-3.5-3.17-4.06-5.4-.56-2.23-.5-5.41,1.73-7.4,1.23-1.09,3.07-2.13,6.67-1.32,6.62,1.48,8.51,7.17,13.38,7.7"/><path d="M65.77,120.92s-.08-.01-.13-.02c-1.9-.48-3.82-1.02-5.71-1.63-2.99-.95-6.44-2.21-9.34-4.34-2.35-1.73-3.88-3.78-4.42-5.94-.32-1.26-1.11-5.58,2.03-8.37,1.25-1.11,3.4-2.46,7.53-1.54,3.67.82,5.96,2.84,7.98,4.61,1.73,1.52,3.23,2.84,5.25,3.07.01,0,.01,0,.04,0,.53.06.92.54.86,1.08-.06.54-.54.92-1.08.87-2.61-.29-4.46-1.87-6.37-3.55-1.94-1.7-3.94-3.46-7.12-4.17-3.21-.72-4.74.15-5.81,1.1-1.84,1.63-1.94,4.39-1.43,6.43.55,2.17,2.31,3.83,3.69,4.85,2.67,1.96,5.93,3.15,8.77,4.05,1.85.59,3.73,1.12,5.59,1.59.52.13.84.66.71,1.19-.12.48-.58.79-1.06.73Z"/><path class="cls-7" d="M73.98,123.16s-6.52-2.39-4.97-15.11l5.71.2-.74,14.91Z"/><path d="M73.87,124.13c-.08,0-.15-.03-.22-.05-.3-.11-7.23-2.81-5.6-16.15.06-.5.5-.88,1.01-.86l5.71.2c.25,0,.51.12.68.32.18.19.27.45.26.71l-.74,14.91c-.02.31-.18.59-.44.77-.19.13-.42.18-.65.16ZM69.88,109.05c-.73,7.65,1.65,11.02,3.2,12.37l.61-12.24-3.81-.14Z"/></g></g></svg>