<svg width="361" height="54" viewBox="0 0 361 54" fill="none" xmlns="http://www.w3.org/2000/svg">
<path d="M30.9675 20.8802C39.7409 20.8802 44.1232 24.8268 44.1232 32.7155V42.1603C44.1232 50.0534 39.7365 53.9957 30.9675 53.9957H13.1558C4.38236 53.9957 0 50.0491 0 42.1603V36.0406H13.425V40.3653C13.425 42.1386 14.3111 43.0253 16.0831 43.0253H28.0445C29.8165 43.0253 30.7026 42.1386 30.7026 40.3653V34.1803C30.7026 32.407 29.8165 31.5203 28.0445 31.5203H13.1558C4.3867 31.5203 0 27.5737 0 19.685V11.8397C0 3.94656 4.3867 0 13.1558 0H30.9631C39.7365 0 44.1189 3.94656 44.1189 11.8353V16.2904H30.6939V13.6304C30.6939 11.8571 29.8078 10.9704 28.0358 10.9704H16.0744C14.3024 10.9704 13.4163 11.8571 13.4163 13.6304V18.2202C13.4163 19.9936 14.3024 20.8802 16.0744 20.8802H30.9588H30.9675ZM80.9368 36.9099H63.3943V53.6697H49.9693V0.330328H80.9368C89.7102 0.330328 94.0925 4.27688 94.0925 12.1656V25.0658C94.0925 32.959 89.7058 36.9012 80.9368 36.9012V36.9099ZM63.3943 26.2655H78.0137C79.7858 26.2655 80.6718 25.3788 80.6718 23.6054V13.6304C80.6718 11.8571 79.7858 10.9704 78.0137 10.9704H63.3943V26.2655ZM113.034 42.6949H139.415V53.6697H99.2784V0.330328H139.415V11.3051H113.034V20.815H138.75V31.4551H113.034V42.6949ZM177.227 0.330328L190.917 53.6653H177.362L175.103 44.3553H158.955L156.696 53.6653H143.141L156.827 0.330328H177.227ZM167.059 11.3703L161.808 32.7155H172.241L167.059 11.3703ZM209.189 0.330328V21.6104L227.596 0.330328H243.479L222.479 24.6703L243.479 53.6653H228.395L214.305 34.1803L209.189 40.1001V53.6653H195.434V0.330328H209.189ZM261.022 0.330328V53.6653H247.266V0.330328H261.022ZM281.756 0.330328L297.57 33.1806V0.330328H310.995V53.6653H295.976L280.293 21.0802V53.6653H266.868V0.330328H281.752H281.756ZM360.965 54H347.874V52.2049C346.015 53.3567 343.665 53.9565 340.829 54H329.997C321.224 54 316.841 50.0534 316.841 42.1647V11.8353C316.841 3.94656 321.228 0 329.997 0H347.804C356.578 0 360.96 3.94656 360.96 11.8353V17.2205H347.535V13.2957C347.535 11.5224 346.649 10.6357 344.877 10.6357H332.916C331.144 10.6357 330.258 11.5224 330.258 13.2957V40.6956C330.258 42.4689 331.144 43.3556 332.916 43.3556H345.207C346.671 43.3556 347.557 42.9557 347.865 42.1603V33.9152H339.161V23.2751H360.956V54H360.965Z" fill="url(#paint0_linear_780_216)"/>
<defs>
<linearGradient id="paint0_linear_780_216" x1="180.484" y1="54" x2="180.484" y2="0" gradientUnits="userSpaceOnUse">
<stop stop-color="#FF5D24"/>
<stop offset="1" stop-color="#FF793E"/>
</linearGradient>
</defs>
</svg>
