<svg width="188" height="101" viewBox="0 0 188 101" fill="none" xmlns="http://www.w3.org/2000/svg">
<g clip-path="url(#clip0_780_221)">
<path d="M185.44 42.213C184.218 40.6966 181.786 38.881 177.175 38.881H167.15C166.692 38.881 166.26 39.0007 165.874 39.2069C165.489 39.0007 165.064 38.881 164.619 38.881H147.431C147.226 38.881 147.026 38.9142 146.834 38.9608C146.634 38.9142 146.422 38.881 146.216 38.881H128.563C128.317 38.881 128.078 38.9209 127.852 38.9874C127.627 38.9209 127.387 38.881 127.142 38.881H109.954C108.699 38.881 107.616 39.7589 107.356 40.9893L104.971 52.2223H100.46L102.261 43.7626C102.354 43.317 102.321 42.8581 102.188 42.4325L102.261 42.0999C102.427 41.3152 102.234 40.4971 101.729 39.8719C101.224 39.2468 100.467 38.8876 99.663 38.8876H93.2518C91.9962 38.8876 90.9132 39.7655 90.6541 40.9959L90.6209 41.1622C89.3719 39.9983 87.2592 38.8876 83.7646 38.8876H73.0947C72.7028 38.8876 72.3307 38.9808 71.9919 39.1404C71.6464 38.9808 71.2677 38.8876 70.8757 38.8876H61.5147C60.5115 38.8876 59.588 39.453 59.1363 40.3575L58.0799 42.4657L57.9935 41.3484C57.8872 39.9584 56.7312 38.8876 55.3427 38.8876H45.9817C44.726 38.8876 43.6431 39.7655 43.384 40.9959L43.2777 41.4947C41.444 39.5394 38.6138 38.5352 34.8269 38.5352C30.2095 38.5352 26.5355 40.0382 24.0042 42.8581C23.7518 42.4192 23.486 42.0467 23.2203 41.7341C21.9845 40.2776 19.533 38.5352 14.8624 38.5352C6.98962 38.5352 1.98689 42.4857 0.399034 49.9611C0.066847 51.5173 -0.0460964 52.9339 0.0336283 54.2242C-0.132465 56.9044 0.44554 59.0991 1.79422 60.7618C3.60796 63.0031 6.67736 64.1404 10.9161 64.1404C15.4537 64.1404 19.0214 62.3646 21.3534 59.8972C21.5394 60.2165 21.7453 60.5224 21.9779 60.8084C23.765 63.0231 26.7614 64.147 30.8738 64.147C34.3684 64.147 37.2784 63.3356 39.5771 61.7594C39.6635 62.1518 39.8429 62.5243 40.102 62.8501C40.6069 63.4753 41.3643 63.8344 42.1682 63.8344H48.3801C49.1109 63.8344 49.7819 63.5352 50.2669 63.0497C50.7519 63.5352 51.4163 63.8344 52.1537 63.8344H57.0767C57.7876 63.8344 58.4586 63.5485 58.9502 63.063C59.4485 63.5551 60.1195 63.8344 60.8238 63.8344H67.0556C67.4476 63.8344 67.8196 63.7413 68.1585 63.5817C68.5039 63.7413 68.8826 63.8344 69.2746 63.8344H75.6592C76.9149 63.8344 77.9978 62.9565 78.2569 61.7262L78.9612 58.3942H80.5822C83.1467 58.3942 85.3989 57.8821 87.2658 56.9377L86.8406 58.9528C86.7476 59.3984 86.7808 59.8573 86.9137 60.283L86.8406 60.6221C86.6745 61.4069 86.8672 62.225 87.3721 62.8501C87.877 63.4753 88.6344 63.8344 89.4383 63.8344H105.031C105.217 63.8344 105.403 63.8078 105.583 63.7679C105.769 63.8078 105.955 63.8344 106.147 63.8344H123.647C124.903 63.8344 125.986 62.9565 126.245 61.7262L127.221 57.1106C127.314 56.665 127.281 56.2127 127.148 55.7871L127.221 55.4479C127.347 54.8427 127.254 54.2175 126.969 53.6722C127.241 52.4019 127.62 50.6128 127.62 50.6128C127.626 50.5663 127.62 50.5197 127.633 50.4798H129.633L127.832 58.9395C127.739 59.3851 127.773 59.844 127.906 60.2697L127.832 60.6022C127.666 61.387 127.859 62.205 128.364 62.8302C128.869 63.4553 129.626 63.8145 130.43 63.8145H136.708C137.964 63.8145 139.047 62.9366 139.306 61.7062L141.698 50.4732H142.834L141.034 58.9528C140.941 59.3984 140.974 59.8573 141.107 60.283L141.034 60.6221C140.867 61.4069 141.06 62.225 141.565 62.8501C142.07 63.4753 142.827 63.8344 143.631 63.8344H161.131C161.523 63.8344 161.895 63.7413 162.234 63.5817C162.579 63.7413 162.958 63.8344 163.35 63.8344H172.153C180.099 63.8344 185.513 59.7842 187.015 52.7211C187.307 51.371 187.4 50.0808 187.307 48.877C187.467 46.2566 186.842 43.9422 185.447 42.213H185.44Z" fill="#D81212"/>
<path d="M93.6624 100.5C121.248 100.5 143.61 78.1142 143.61 50.5C143.61 22.8858 121.248 0.5 93.6624 0.5C66.0771 0.5 43.7148 22.8858 43.7148 50.5C43.7148 78.1142 66.0771 100.5 93.6624 100.5Z" fill="#D81212"/>
<path d="M93.6632 94.628C118.009 94.628 137.744 74.8714 137.744 50.5005C137.744 26.1296 118.009 6.37305 93.6632 6.37305C69.3179 6.37305 49.582 26.1296 49.582 50.5005C49.582 74.8714 69.3179 94.628 93.6632 94.628Z" stroke="#FFFBFA" stroke-miterlimit="10"/>
<path d="M15.9442 48.6907C16.1236 47.693 16.0771 45.7843 13.7053 45.7843C11.0412 45.7843 9.91173 47.6265 9.3138 50.4464L9.29387 50.5595C8.69593 53.3594 9.04805 55.2216 11.7122 55.2216C13.7983 55.2216 14.8812 53.8915 15.2799 52.1823H21.6911C20.9603 56.0197 16.8544 59.8173 10.9149 59.8173C3.9523 59.8173 1.71336 56.5318 2.9956 50.5196C4.28449 44.4608 8.11792 41.1953 14.8613 41.1953C20.276 41.1953 23.0929 43.8822 22.289 48.6973H15.9442V48.6907Z" fill="#FFFBFA"/>
<path d="M42.5125 50.5137C41.2702 56.3264 37.8553 59.8114 30.8661 59.8114C23.8769 59.8114 21.9302 56.3264 23.1726 50.5137C24.415 44.6744 28.0491 41.1895 34.8191 41.1895C41.5891 41.1895 43.7549 44.6744 42.5125 50.5137ZM36.2408 50.5603L36.2608 50.4472C36.8587 47.6273 36.5265 45.7851 33.8425 45.7851C31.1584 45.7851 30.0954 47.6273 29.4975 50.4472L29.4775 50.5603C28.8796 53.3602 29.1453 55.2224 31.8493 55.2224C34.5533 55.2224 35.6429 53.3602 36.2408 50.5603Z" fill="#FFFBFA"/>
<path d="M45.9756 41.5479H55.3366L56.1339 52.0892H56.2203L61.502 41.5479H70.8631L67.0495 59.5047H60.8177L63.256 47.9658H63.2095L57.064 59.5047H52.141L50.8787 47.9658H50.8123L48.374 59.5047H42.1621L45.9756 41.5479Z" fill="#FFFBFA"/>
<path d="M73.0811 41.5479H83.7509C89.3848 41.5479 90.6471 44.9198 90.0492 47.6731C89.139 52.0028 85.3255 54.0645 80.5819 54.0645H76.8082L75.6522 59.5047H69.2676L73.0811 41.5479ZM77.7383 49.6218H80.2032C81.8242 49.6218 83.618 49.7083 83.9967 47.866C84.3489 46.2432 82.8872 46.1368 81.3127 46.1368H78.4957L77.745 49.6218H77.7383Z" fill="#FFFBFA"/>
<path d="M93.2451 41.5479H99.6563L96.8195 54.8892H106.001L105.024 59.5047H89.4316L93.2451 41.5479Z" fill="#FFFBFA"/>
<path d="M109.946 41.5479H127.134L126.157 46.1435H115.354L114.869 48.3848H125.008L124.097 52.6678H113.959L113.494 54.8892H124.609L123.632 59.5047H106.133L109.946 41.5479Z" fill="#FFFBFA"/>
<path d="M133.26 46.1367H127.58L128.557 41.541H146.209L145.232 46.1367H139.532L136.695 59.478H130.417L133.254 46.1367H133.26Z" fill="#FFFBFA"/>
<path d="M147.439 41.5479H164.626L163.649 46.1435H152.847L152.362 48.3848H162.5L161.59 52.6678H151.451L150.986 54.8892H162.101L161.125 59.5047H143.625L147.439 41.5479Z" fill="#FFFBFA"/>
<path d="M167.157 41.5479H177.183C183.926 41.5479 185.388 45.9639 184.411 50.493C183.235 56.0198 179.196 59.5047 172.147 59.5047H163.344L167.157 41.5479ZM170.552 54.9756H172.751C176.611 54.9756 177.827 52.0892 178.186 50.4265C178.432 49.2959 178.737 46.077 174.193 46.077H172.439L170.552 54.9756Z" fill="#FFFBFA"/>
<path d="M93.6641 8.89355L96.1222 13.3961L101.158 14.3405L97.637 18.0715L98.2947 23.1593L93.6641 20.9579L89.0334 23.1593L89.6977 18.0715L86.1699 14.3405L91.2125 13.3961L93.6641 8.89355Z" fill="#FFFBFA"/>
<path d="M69.042 21.2764L71.9055 22.4003L74.5829 20.8906L74.4035 23.9632L76.6691 26.0449L73.6927 26.823L72.4104 29.623L70.7495 27.0292L67.6934 26.6767L69.6466 24.2958L69.042 21.2764Z" fill="#FFFBFA"/>
<path d="M118.291 21.2764L117.68 24.2958L119.633 26.6767L116.577 27.0292L114.923 29.623L113.64 26.823L110.664 26.0516L112.93 23.9632L112.744 20.8906L115.428 22.4003L118.291 21.2764Z" fill="#FFFBFA"/>
<path d="M124.469 82.0576H62.8555C70.8014 89.8323 81.6705 94.6341 93.6625 94.6341C105.654 94.6341 116.524 89.8323 124.469 82.0576Z" fill="#FFFBFA"/>
</g>
<defs>
<clipPath id="clip0_780_221">
<rect width="187.333" height="100" fill="white" transform="translate(0 0.5)"/>
</clipPath>
</defs>
</svg>
