<svg width="50" height="50" viewBox="0 0 50 50" fill="none" xmlns="http://www.w3.org/2000/svg">
<path d="M19.9629 32.0928C19.9629 29.9834 20.1475 28.2783 20.5166 26.9775C20.9033 25.6592 21.4395 24.6133 22.125 23.8398C22.8105 23.0488 23.7422 22.2842 24.9199 21.5459C26.2031 20.7021 27.1963 19.8496 27.8994 18.9883C28.6025 18.127 28.9453 17.1338 28.9277 16.0088C28.9277 15.1475 28.7256 14.3916 28.3213 13.7412C27.917 13.0732 27.3633 12.5635 26.6602 12.2119C25.9746 11.8428 25.2012 11.6494 24.3398 11.6318C23.4961 11.6494 22.7139 11.8428 21.9932 12.2119C21.2725 12.5811 20.6836 13.126 20.2266 13.8467C19.7695 14.5498 19.5234 15.3936 19.4883 16.3779H12C12.0352 13.9873 12.6064 11.9746 13.7139 10.3398C14.8213 8.6875 16.2979 7.45703 18.1436 6.64844C20.0068 5.82227 22.0898 5.40918 24.3926 5.40918C26.8535 5.40918 29.0244 5.82227 30.9053 6.64844C32.8037 7.47461 34.2803 8.66992 35.335 10.2344C36.4072 11.7812 36.9434 13.6182 36.9434 15.7451C36.9434 17.8193 36.4512 19.5947 35.4668 21.0713C34.5 22.5303 33.0938 23.8135 31.248 24.9209C30.2109 25.5361 29.3848 26.1602 28.7695 26.793C28.1543 27.4258 27.6885 28.1641 27.3721 29.0078C27.0732 29.8516 26.9238 30.8799 26.9238 32.0928V32.6729H19.9629V32.0928ZM19.1719 40.1611C19.1543 39.3701 19.3389 38.6406 19.7256 37.9727C20.1299 37.2871 20.6748 36.751 21.3604 36.3643C22.0459 35.9775 22.793 35.7842 23.6016 35.7842C24.375 35.7842 25.0957 35.9775 25.7637 36.3643C26.4316 36.751 26.9678 37.2871 27.3721 37.9727C27.7764 38.6406 27.9785 39.3701 27.9785 40.1611C27.9785 40.9697 27.7764 41.7168 27.3721 42.4023C26.9678 43.0703 26.4316 43.6064 25.7637 44.0107C25.0957 44.3975 24.375 44.5908 23.6016 44.5908C22.793 44.5908 22.0459 44.3975 21.3604 44.0107C20.6748 43.6064 20.1299 43.0703 19.7256 42.4023C19.3389 41.7168 19.1543 40.9697 19.1719 40.1611Z" fill="#FF7057"/>
</svg>
