<svg width="28" height="28" viewBox="0 0 28 28" fill="none" xmlns="http://www.w3.org/2000/svg">
<g clip-path="url(#clip0_1064_159)">
<path d="M14 2.1875C20.5144 2.1875 25.8125 7.48562 25.8125 14C25.8125 20.5144 20.5144 25.8125 14 25.8125C7.48562 25.8125 2.1875 20.5144 2.1875 14C2.1875 7.48562 7.48562 2.1875 14 2.1875ZM14 0C6.26937 0 0 6.26937 0 14C0 21.7306 6.26937 28 14 28C21.7306 28 28 21.7306 28 14C28 6.26937 21.7306 0 14 0Z" fill="white"/>
<path d="M11.7494 20.5763L5.59375 14.4206L8.37625 11.6381L11.7494 15.0069L19.62 7.14062L22.4025 9.92313L11.7494 20.5763Z" fill="white"/>
</g>
<defs>
<clipPath id="clip0_1064_159">
<rect width="28" height="28" fill="white"/>
</clipPath>
</defs>
</svg>
