<svg width="496" height="54" viewBox="0 0 496 54" fill="none" xmlns="http://www.w3.org/2000/svg">
<path d="M15.2545 53.3396L0 0.332388H13.2751L25.095 41.3124L36.8494 0.332388H50.1245L34.87 53.3396H15.2545ZM97.8019 11.7648V41.9028C97.8019 49.7446 93.4453 53.6676 84.7279 53.6676H67.0307C58.3132 53.6676 53.9567 49.7446 53.9567 41.9028V11.7648C53.9567 3.92306 58.3132 0 67.0307 0H84.7279C93.4453 0 97.8019 3.92306 97.8019 11.7648ZM84.4613 40.4508V13.2212C84.4613 11.4587 83.5786 10.5752 81.8177 10.5752H69.9322C68.1712 10.5752 67.2885 11.4587 67.2885 13.2212V40.4508C67.2885 42.2133 68.1668 43.0968 69.9322 43.0968H81.8177C83.5786 43.0968 84.4613 42.2177 84.4613 40.4508ZM103.614 41.9028V11.7648C103.614 3.92306 107.97 0 116.688 0H134.385C143.102 0 147.459 3.92306 147.459 11.7648V19.0992H134.118V13.2168C134.118 11.4543 133.236 10.5708 131.475 10.5708H119.589C117.828 10.5708 116.945 11.4543 116.945 13.2168V40.4464C116.945 42.209 117.824 43.0924 119.589 43.0924H131.475C133.236 43.0924 134.118 42.2133 134.118 40.4464V34.564H147.459V41.8984C147.459 49.7402 143.102 53.6632 134.385 53.6632H116.688C107.97 53.6632 103.614 49.7402 103.614 41.8984V41.9028ZM185.829 0.332388L199.432 53.3396H185.96L183.714 44.0852H167.669L165.423 53.3396H151.951L165.554 0.332388H185.829ZM175.726 11.3012L170.509 32.5172H180.878L175.726 11.3012ZM203.924 53.3396V0.332388H234.035C242.753 0.332388 247.109 4.25545 247.109 12.0972V16.6588C247.109 20.7568 245.479 23.9538 242.224 26.2412C242.311 26.3287 242.42 26.4161 242.556 26.5036C246.034 29.4995 247.773 32.9152 247.773 36.7464V41.5704C247.773 49.4122 243.417 53.3352 234.699 53.3352H203.924V53.3396ZM217.264 10.5752V21.0848H231.134C232.895 21.0848 233.777 20.2057 233.777 18.4388V13.2168C233.777 11.4543 232.895 10.5708 231.134 10.5708H217.264V10.5752ZM217.264 30.9996V43.0968H231.793C233.554 43.0968 234.437 42.2177 234.437 40.4508V33.6412C234.437 31.8787 233.554 30.9952 231.793 30.9952H217.264V30.9996ZM253.585 41.9028V0.332388H266.926V39.7904C266.926 41.5529 267.804 42.4364 269.569 42.4364H281.455C283.216 42.4364 284.098 41.5573 284.098 39.7904V0.332388H297.439V41.9072C297.439 49.7489 293.082 53.672 284.365 53.672H266.668C257.95 53.672 253.594 49.7489 253.594 41.9072L253.585 41.9028ZM316.915 42.104H341.809V53.3396H303.242V0.332388H316.91V42.104H316.915ZM378.064 0.332388L391.666 53.3396H378.195L375.949 44.0852H359.903L357.657 53.3396H344.186L357.788 0.332388H378.064ZM367.961 11.3012L362.744 32.5172H373.113L367.961 11.3012ZM432.741 33.908L440.996 54H426.995L418.938 34.6996H409.495V53.3396H396.154V0.332388H426.93C435.647 0.332388 440.004 4.25545 440.004 12.0972V22.9348C440.004 28.7516 437.583 32.4079 432.741 33.908ZM409.499 24.1244H424.028C425.789 24.1244 426.672 23.2453 426.672 21.4784V13.5448C426.672 11.7823 425.789 10.8988 424.028 10.8988H409.499V24.12V24.1244ZM476.46 34.1704V53.3396H462.792V34.1704L443.836 0.332388H458.164L469.656 21.0848L481.079 0.332388H495.407L476.455 34.1748L476.46 34.1704Z" fill="url(#paint0_linear_1068_207)"/>
<defs>
<linearGradient id="paint0_linear_1068_207" x1="247.708" y1="54" x2="247.708" y2="0" gradientUnits="userSpaceOnUse">
<stop stop-color="#7A15AF"/>
<stop offset="1" stop-color="#9823C9"/>
</linearGradient>
</defs>
</svg>
