<svg width="777" height="140" viewBox="0 0 777 140" fill="none" xmlns="http://www.w3.org/2000/svg">
<g clip-path="url(#clip0_296_478)">
<path d="M0 108.323H25.5873V113.673H16.0058V139.569H9.57469V113.673H0V108.323ZM28.4912 108.323H40.7438C43.0724 108.323 45.0791 108.741 46.7639 109.576C48.4487 110.412 49.7295 111.597 50.6061 113.125C51.4828 114.66 51.9211 116.454 51.9211 118.51C51.9211 120.565 51.4485 122.462 50.4965 123.99C49.5445 125.518 48.1816 126.662 46.4009 127.422L53.0443 139.569H45.8804L39.9014 128.477H34.9634V139.569H28.4912V108.323ZM39.5384 123.209C43.3669 123.209 45.264 121.64 45.2366 118.503C45.2503 116.92 44.7846 115.715 43.8326 114.886C42.8806 114.057 41.4492 113.639 39.5384 113.625H34.9634V123.209H39.5384ZM53.5374 139.569L64.3654 108.323H72.6936L83.4806 139.569H76.5358L74.1867 132.362H62.8792L60.5301 139.569H53.5374ZM72.543 127.313L68.6391 115.358H68.4268L64.523 127.313H72.5498H72.543ZM92.3841 139.569H85.9119V108.323H92.3841V139.569ZM122.608 139.569H116.999L103.281 119.715H103.02V139.569H96.5482V108.323H102.246L115.882 128.176H116.184V108.323H122.615V139.569H122.608ZM133.237 139.569H126.765V108.323H133.237V139.569ZM163.455 139.569H157.845L144.127 119.715H143.867V139.569H137.395V108.323H143.093L156.729 128.176H157.03V108.323H163.461V139.569H163.455ZM185.974 114.906C184.823 114.07 183.405 113.646 181.72 113.632C180.111 113.646 178.693 114.057 177.467 114.865C176.241 115.673 175.296 116.845 174.618 118.379C173.94 119.921 173.605 121.764 173.605 123.901C173.605 126.039 173.933 127.936 174.598 129.491C175.255 131.046 176.2 132.225 177.426 133.033C178.652 133.841 180.097 134.246 181.762 134.266C183.227 134.266 184.501 133.999 185.569 133.465C186.638 132.93 187.467 132.184 188.049 131.211C188.631 130.238 188.939 129.101 188.966 127.792H182.193V122.915H195.226V126.799C195.226 129.491 194.658 131.827 193.514 133.821C192.37 135.814 190.775 137.342 188.727 138.404C186.679 139.466 184.344 140 181.727 140C178.823 140 176.255 139.349 174.036 138.048C171.817 136.746 170.091 134.89 168.858 132.478C167.625 130.067 167.016 127.237 167.016 123.983C167.016 120.729 167.646 117.825 168.913 115.393C170.18 112.961 171.92 111.104 174.132 109.816C176.344 108.528 178.837 107.884 181.597 107.884C183.912 107.884 186.035 108.33 187.96 109.22C189.884 110.111 191.459 111.351 192.672 112.94C193.884 114.529 194.637 116.338 194.925 118.366H188.364C187.919 116.886 187.117 115.728 185.967 114.893L185.974 114.906ZM207.951 108.323H220.204C222.519 108.323 224.519 108.768 226.204 109.659C227.888 110.549 229.169 111.789 230.053 113.379C230.936 114.968 231.381 116.79 231.381 118.852C231.381 120.914 230.929 122.778 230.032 124.367C229.135 125.956 227.834 127.189 226.128 128.066C224.423 128.943 222.389 129.382 220.033 129.382H214.424V139.569H207.951V108.323ZM218.999 124.161C220.868 124.161 222.286 123.682 223.259 122.73C224.231 121.771 224.711 120.483 224.69 118.859C224.704 117.263 224.224 115.995 223.259 115.064C222.286 114.132 220.868 113.653 218.999 113.639H214.424V124.168H218.999V124.161ZM234.374 108.323H246.627C248.956 108.323 250.962 108.741 252.647 109.576C254.332 110.412 255.613 111.597 256.489 113.125C257.366 114.66 257.804 116.454 257.804 118.51C257.804 120.565 257.332 122.462 256.38 123.99C255.428 125.518 254.065 126.662 252.284 127.422L258.927 139.569H251.764L245.785 128.477H240.846V139.569H234.374V108.323ZM245.422 123.209C249.243 123.209 251.147 121.64 251.12 118.503C251.133 116.92 250.668 115.715 249.716 114.886C248.764 114.057 247.332 113.639 245.422 113.625H240.846V123.209H245.422ZM287.891 132.553C286.624 134.972 284.891 136.815 282.679 138.089C280.467 139.363 277.981 140 275.207 140C272.433 140 269.913 139.363 267.701 138.089C265.489 136.815 263.742 134.965 262.482 132.54C261.222 130.115 260.585 127.251 260.585 123.942C260.585 120.633 261.215 117.749 262.482 115.331C263.749 112.913 265.489 111.07 267.701 109.796C269.913 108.521 272.42 107.884 275.207 107.884C277.995 107.884 280.474 108.521 282.679 109.796C284.885 111.07 286.624 112.913 287.891 115.331C289.158 117.749 289.788 120.62 289.788 123.942C289.788 127.265 289.158 130.135 287.891 132.553ZM268.167 129.546C268.824 131.094 269.749 132.259 270.961 133.054C272.166 133.841 273.584 134.246 275.214 134.259C276.823 134.246 278.227 133.841 279.433 133.04C280.631 132.238 281.563 131.074 282.214 129.532C282.871 127.991 283.193 126.128 283.193 123.942C283.193 121.757 282.864 119.887 282.214 118.345C281.556 116.797 280.631 115.632 279.433 114.838C278.234 114.05 276.823 113.646 275.214 113.632C273.591 113.646 272.173 114.05 270.961 114.838C269.755 115.626 268.824 116.797 268.167 118.345C267.509 119.893 267.187 121.757 267.187 123.942C267.187 126.128 267.516 127.998 268.167 129.539V129.546ZM311.705 114.906C310.554 114.07 309.136 113.646 307.452 113.632C305.842 113.646 304.424 114.057 303.198 114.865C301.972 115.673 301.027 116.845 300.349 118.379C299.671 119.921 299.336 121.764 299.336 123.901C299.336 126.039 299.664 127.936 300.329 129.491C300.993 131.046 301.931 132.225 303.157 133.033C304.376 133.841 305.821 134.246 307.493 134.266C308.958 134.266 310.232 133.999 311.301 133.465C312.369 132.93 313.198 132.184 313.78 131.211C314.362 130.238 314.67 129.101 314.698 127.792H307.924V122.915H320.957V126.799C320.957 129.491 320.389 131.827 319.245 133.821C318.101 135.814 316.506 137.342 314.458 138.404C312.41 139.466 310.075 140 307.458 140C304.554 140 301.993 139.349 299.767 138.048C297.548 136.746 295.822 134.89 294.589 132.478C293.363 130.067 292.747 127.237 292.747 123.983C292.747 120.729 293.377 117.825 294.644 115.393C295.911 112.961 297.651 111.104 299.863 109.816C302.075 108.528 304.568 107.884 307.328 107.884C309.643 107.884 311.766 108.33 313.691 109.22C315.615 110.111 317.191 111.351 318.403 112.94C319.615 114.529 320.368 116.338 320.656 118.366H314.095C313.65 116.886 312.848 115.728 311.698 114.893L311.705 114.906ZM324.601 108.323H336.854C339.182 108.323 341.189 108.741 342.874 109.576C344.559 110.412 345.839 111.597 346.716 113.125C347.593 114.653 348.031 116.454 348.031 118.51C348.031 120.565 347.558 122.462 346.606 123.99C345.654 125.518 344.291 126.662 342.504 127.422L349.147 139.569H341.983L336.011 128.477H331.073V139.569H324.601V108.323ZM335.648 123.209C339.477 123.209 341.374 121.64 341.34 118.503C341.353 116.92 340.888 115.715 339.936 114.886C338.984 114.057 337.559 113.639 335.641 113.625H331.066V123.209H335.641H335.648ZM349.647 139.569L360.475 108.323H368.803L379.59 139.569H372.646L370.296 132.362H358.989L356.64 139.569H349.647ZM368.653 127.313L364.749 115.358H364.53L360.626 127.313H368.653ZM390.049 108.323L398.719 129.512H399.062L407.732 108.323H415.759V139.569H409.458V119.113H409.198L401.041 139.438H396.726L388.569 119.023H388.309V139.569H382.008V108.323H390.035H390.049Z" fill="url(#paint0_linear_296_478)"/>
<path d="M23.8945 83.5506L0 0.52065H20.7939L39.3086 64.7113L57.7205 0.52065H78.5144L54.6199 83.5506H23.8945ZM153.196 18.4283V65.6361C153.196 77.9194 146.372 84.0644 132.717 84.0644H104.996C91.3412 84.0644 84.5172 77.9194 84.5172 65.6361V18.4283C84.5172 6.14504 91.3412 0 104.996 0H132.717C146.372 0 153.196 6.14504 153.196 18.4283ZM132.299 63.3617V20.7095C132.299 17.9487 130.917 16.5649 128.158 16.5649H109.541C106.783 16.5649 105.4 17.9487 105.4 20.7095V63.3617C105.4 66.1225 106.776 67.5064 109.541 67.5064H128.158C130.917 67.5064 132.299 66.1294 132.299 63.3617ZM162.299 65.6361V18.4283C162.299 6.14504 169.123 0 182.778 0H210.499C224.154 0 230.978 6.14504 230.978 18.4283V29.9168H210.081V20.7027C210.081 17.9419 208.699 16.558 205.94 16.558H187.323C184.565 16.558 183.182 17.9419 183.182 20.7027V63.3549C183.182 66.1157 184.558 67.4995 187.323 67.4995H205.94C208.699 67.4995 210.081 66.1225 210.081 63.3549V54.1407H230.978V65.6293C230.978 77.9125 224.154 84.0575 210.499 84.0575H182.778C169.123 84.0575 162.299 77.9125 162.299 65.6293V65.6361ZM291.08 0.52065L312.388 83.5506H291.286L287.768 69.0546H262.634L259.116 83.5506H238.014L259.321 0.52065H291.08ZM275.256 17.7021L267.083 50.9346H283.326L275.256 17.7021ZM319.424 83.5506V0.52065H366.59C380.245 0.52065 387.069 6.66569 387.069 18.9489V26.0941C387.069 32.5132 384.516 37.521 379.417 41.1039C379.554 41.2409 379.725 41.378 379.937 41.515C385.385 46.2077 388.11 51.558 388.11 57.5592V65.1155C388.11 77.3987 381.285 83.5437 367.63 83.5437H319.424V83.5506ZM340.32 16.5649V33.027H362.045C364.804 33.027 366.186 31.65 366.186 28.8824V20.7027C366.186 17.9419 364.804 16.558 362.045 16.558H340.32V16.5649ZM340.32 48.5574V67.5064H363.079C365.837 67.5064 367.22 66.1294 367.22 63.3617V52.6952C367.22 49.9344 365.837 48.5506 363.079 48.5506H340.32V48.5574ZM397.213 65.6361V0.52065H418.109V62.3273C418.109 65.0881 419.485 66.4719 422.25 66.4719H440.868C443.626 66.4719 445.009 65.0949 445.009 62.3273V0.52065H465.905V65.643C465.905 77.9262 459.081 84.0713 445.426 84.0713H417.706C404.051 84.0713 397.227 77.9262 397.227 65.643L397.213 65.6361ZM496.412 65.9513H535.405V83.5506H474.995V0.52065H496.405V65.9513H496.412ZM592.195 0.52065L613.502 83.5506H592.4L588.882 69.0546H563.749L560.231 83.5506H539.129L560.436 0.52065H592.195ZM576.37 17.7021L568.198 50.9346H584.44L576.37 17.7021ZM677.842 53.1131L690.771 84.585H668.841L656.219 54.3531H641.428V83.5506H620.532V0.52065H668.738C682.393 0.52065 689.217 6.66569 689.217 18.9489V35.9248C689.217 45.0362 685.425 50.7634 677.842 53.1131ZM641.435 37.7882H664.193C666.952 37.7882 668.334 36.4112 668.334 33.6436V21.2165C668.334 18.4557 666.952 17.0718 664.193 17.0718H641.435V37.7814V37.7882ZM746.322 53.5242V83.5506H724.912V53.5242L695.22 0.52065H717.663L735.665 33.027L753.557 0.52065H776L746.315 53.531L746.322 53.5242Z" fill="url(#paint1_linear_296_478)"/>
</g>
<defs>
<linearGradient id="paint0_linear_296_478" x1="207.883" y1="140" x2="207.883" y2="107.891" gradientUnits="userSpaceOnUse">
<stop stop-color="#333333"/>
<stop offset="1" stop-color="#595959"/>
</linearGradient>
<linearGradient id="paint1_linear_296_478" x1="388.007" y1="84.585" x2="388.007" y2="0" gradientUnits="userSpaceOnUse">
<stop stop-color="#7A15AF"/>
<stop offset="1" stop-color="#9823C9"/>
</linearGradient>
<clipPath id="clip0_296_478">
<rect width="776.488" height="140" fill="white"/>
</clipPath>
</defs>
</svg>
