<svg width="100" height="100" viewBox="0 0 100 100" fill="none" xmlns="http://www.w3.org/2000/svg">
<path d="M85.6333 4.3418H14.3667C12.2312 4.3418 10.5 6.07296 10.5 8.20846V58.3918C10.5 60.5273 12.2312 62.2585 14.3667 62.2585H85.6333C87.7688 62.2585 89.5 60.5273 89.5 58.3918V8.20846C89.5 6.07296 87.7688 4.3418 85.6333 4.3418Z" fill="#FFCBF1"/>
<path d="M85.6333 62.8751H14.3667C11.8917 62.8751 9.875 60.8585 9.875 58.3835V8.20846C9.875 5.73346 11.8917 3.7168 14.3667 3.7168H85.6333C88.1083 3.7168 90.125 5.73346 90.125 8.20846V58.3918C90.125 60.8668 88.1083 62.8835 85.6333 62.8835V62.8751ZM14.3667 4.9668C12.575 4.9668 11.125 6.4168 11.125 8.20846V58.3918C11.125 60.1835 12.5833 61.6335 14.3667 61.6335H85.6333C87.425 61.6335 88.875 60.1751 88.875 58.3918V8.20846C88.875 6.4168 87.4167 4.9668 85.6333 4.9668H14.3667Z" fill="black"/>
<path d="M85.6333 4.3418H14.3667C12.2312 4.3418 10.5 6.07296 10.5 8.20846V58.3918C10.5 60.5273 12.2312 62.2585 14.3667 62.2585H85.6333C87.7688 62.2585 89.5 60.5273 89.5 58.3918V8.20846C89.5 6.07296 87.7688 4.3418 85.6333 4.3418Z" fill="white"/>
<path d="M85.6333 62.8751H14.3667C11.8917 62.8751 9.875 60.8585 9.875 58.3835V8.20846C9.875 5.73346 11.8917 3.7168 14.3667 3.7168H85.6333C88.1083 3.7168 90.125 5.73346 90.125 8.20846V58.3918C90.125 60.8668 88.1083 62.8835 85.6333 62.8835V62.8751ZM14.3667 4.9668C12.575 4.9668 11.125 6.4168 11.125 8.20846V58.3918C11.125 60.1835 12.5833 61.6335 14.3667 61.6335H85.6333C87.425 61.6335 88.875 60.1751 88.875 58.3918V8.20846C88.875 6.4168 87.4167 4.9668 85.6333 4.9668H14.3667Z" fill="black"/>
<path d="M13.0417 4.3418H86.9667C88.3667 4.3418 89.5083 5.48346 89.5083 6.88346V12.7918H10.5V6.88346C10.5 5.48346 11.6417 4.3418 13.0417 4.3418Z" fill="#E3E9F2"/>
<path d="M89.5 13.408H10.5C10.1583 13.408 9.875 13.1247 9.875 12.783V6.87467C9.875 5.13301 11.2917 3.70801 13.0333 3.70801H86.9583C88.7 3.70801 90.1167 5.12467 90.1167 6.87467V12.783C90.1167 13.1247 89.8333 13.408 89.4917 13.408H89.5ZM11.125 12.158H88.875V6.87467C88.875 5.81634 88.0167 4.95801 86.9583 4.95801H13.0417C11.9833 4.95801 11.125 5.81634 11.125 6.87467V12.158Z" fill="black"/>
<path d="M85.8833 10.9502C85.725 10.9502 85.5666 10.8919 85.4416 10.7669L81.9083 7.23353C81.6666 6.99186 81.6666 6.59186 81.9083 6.3502C82.15 6.10853 82.55 6.10853 82.7916 6.3502L86.325 9.88353C86.5666 10.1252 86.5666 10.5252 86.325 10.7669C86.2 10.8919 86.0416 10.9502 85.8833 10.9502Z" fill="black"/>
<path d="M82.3583 10.9502C82.1999 10.9502 82.0416 10.8919 81.9166 10.7669C81.6749 10.5252 81.6749 10.1252 81.9166 9.88353L85.4499 6.3502C85.6916 6.10853 86.0916 6.10853 86.3333 6.3502C86.5749 6.59186 86.5749 6.99186 86.3333 7.23353L82.7999 10.7669C82.6749 10.8919 82.5166 10.9502 82.3583 10.9502Z" fill="black"/>
<path d="M79.425 26.3502C79.3083 25.8335 79.0917 25.3669 78.8 24.9669C78.5083 24.5835 78.15 24.2585 77.7167 24.0002C77.3 23.7502 76.8417 23.5835 76.3667 23.5085C76.1167 23.4669 75.875 23.4502 75.625 23.4502C75.4167 23.4502 75.2083 23.4669 75.0167 23.4919C74.525 23.5585 74.0667 23.7002 73.65 23.9252C73.2083 24.1585 72.825 24.4835 72.5 24.8919C72.1417 25.3335 71.9083 25.8752 71.8167 26.4335L70.85 30.9085L69.9833 27.0085C69.825 26.4419 69.575 25.9502 69.2417 25.5502C68.925 25.1752 68.575 24.8669 68.1917 24.6419C67.8167 24.4252 67.425 24.2669 67.0083 24.1752C66.6417 24.1002 66.2917 24.0585 65.9583 24.0585C65.625 24.0585 65.275 24.1002 64.9083 24.1752C64.4917 24.2669 64.1 24.4252 63.725 24.6419C63.3417 24.8669 62.9833 25.1752 62.675 25.5502C62.3333 25.9585 62.0833 26.4502 61.9083 27.0835L61.2 30.2669L60.3917 26.4419C60.2667 25.8502 60.0333 25.3419 59.7167 24.9252C59.3917 24.5085 58.9917 24.1669 58.5333 23.9335C58.1083 23.7169 57.65 23.5752 57.1833 23.5085C56.975 23.4835 56.7667 23.4669 56.5583 23.4669C56.3083 23.4669 56.0667 23.4835 55.8083 23.5252C55.3417 23.6002 54.8917 23.7669 54.4667 24.0085C54.275 24.1169 54.1 24.2502 53.9333 24.3835C53.7333 24.2085 53.5167 24.0502 53.2833 23.9252C52.825 23.6752 52.2833 23.5502 51.675 23.5502H43.6583C42.7833 23.5502 42.05 23.6335 41.4333 23.8169C40.6833 24.0252 40.0583 24.3919 39.5833 24.9002C39.3833 25.1169 39.2167 25.3669 39.0583 25.6252C38.825 25.0835 38.5 24.6919 38.2083 24.4335C37.4917 23.7919 36.6083 23.4585 35.6667 23.4585C34.725 23.4585 33.8417 23.7919 33.1167 24.4335C32.5833 24.9085 31.95 25.7919 31.95 27.2669V31.1502L28.8583 25.6502C28.3833 24.8502 27.675 24.2502 26.7667 23.8835C26.1167 23.6169 25.45 23.4835 24.8 23.4835C24.6167 23.4835 24.4417 23.4919 24.2583 23.5169C23.8583 23.5669 23.4417 23.6669 23.0333 23.8252C22.5833 24.0002 22.175 24.2502 21.8083 24.5585C21.425 24.8919 21.1083 25.3002 20.875 25.7669C20.625 26.2669 20.5 26.8252 20.5 27.4335V46.0669H27.9333V42.1752H29.875L31.025 44.2169C31.5083 45.0335 32.2333 45.6252 33.1667 45.9835C33.85 46.2419 34.5333 46.3752 35.2 46.3752C35.3417 46.3752 35.4833 46.3752 35.5917 46.3585C36.025 46.3335 36.4583 46.2335 36.9 46.0585C37.3333 45.8835 37.725 45.6419 38.0833 45.3419C38.45 45.0252 38.7583 44.6419 38.9917 44.2002C39.025 44.1419 39.0333 44.0669 39.0667 44.0002C39.2167 44.2585 39.3833 44.5085 39.5833 44.7252C40.0583 45.2335 40.6833 45.5919 41.4333 45.8085C42.0583 45.9835 42.7833 46.0669 43.6583 46.0669H51.9167C52.525 46.0669 53.0667 45.9419 53.525 45.6919C53.9583 45.4585 54.325 45.1502 54.6167 44.7752C54.9 44.4085 55.1 44.0002 55.225 43.5585C55.3333 43.1669 55.3917 42.7752 55.3917 42.4002C55.3917 42.3252 55.3833 42.2502 55.375 42.1752H56.0667L56.9917 46.0669H64.3583L65.2583 42.1752H66.6833L67.5917 46.0669H75.325L79.4167 28.0335C79.55 27.4502 79.55 26.8919 79.425 26.3585V26.3502Z" fill="black"/>
<path d="M33.45 36.9247V27.258C33.45 26.5163 33.675 25.9497 34.1167 25.5497C34.5583 25.158 35.075 24.958 35.6583 24.958C36.2417 24.958 36.75 25.158 37.2 25.5497C37.6417 25.9497 37.8667 26.5163 37.8667 27.258V42.5163C37.8667 42.8913 37.7917 43.208 37.65 43.483C37.5083 43.758 37.3167 43.9913 37.0917 44.183C36.8667 44.3747 36.6083 44.533 36.325 44.6413C36.0417 44.7497 35.7667 44.8163 35.4917 44.833C34.9083 44.883 34.3167 44.7913 33.7 44.5497C33.0833 44.3163 32.625 43.9413 32.3167 43.4247L26.4083 32.9663V44.5413H22V27.4163C22 27.0413 22.075 26.7163 22.2167 26.4247C22.3583 26.133 22.55 25.8913 22.7833 25.683C23.0167 25.483 23.2833 25.3247 23.5667 25.208C23.8583 25.0913 24.1417 25.0247 24.4167 24.9913C25 24.9247 25.5833 25.0163 26.1833 25.258C26.7833 25.4997 27.2333 25.883 27.5417 26.3997L33.45 36.908V36.9247Z" fill="#FF769D"/>
<path d="M44.8334 32.5919H51.4417C51.8 32.5919 52.1 32.6586 52.3417 32.7836C52.5834 32.9169 52.7834 33.0836 52.95 33.2919C53.1084 33.5003 53.225 33.7336 53.3 33.9836C53.375 34.2336 53.4084 34.4836 53.4084 34.7253C53.4084 34.9669 53.375 35.2086 53.3 35.4503C53.225 35.6919 53.1167 35.9169 52.9584 36.1169C52.8084 36.3169 52.6 36.4836 52.35 36.6003C52.1 36.7169 51.8 36.7836 51.4417 36.7836H44.8334V39.6169C44.8334 39.9086 44.8834 40.1003 44.9834 40.1836C45.0834 40.2753 45.2667 40.3169 45.5417 40.3169H51.9084C52.2667 40.3169 52.5667 40.3753 52.8167 40.5003C53.0667 40.6253 53.2667 40.7836 53.425 40.9836C53.575 41.1836 53.6917 41.4086 53.7667 41.6586C53.8417 41.9086 53.875 42.1586 53.875 42.4003C53.875 42.6419 53.8417 42.8919 53.7667 43.1503C53.6917 43.4086 53.575 43.6419 53.4167 43.8503C53.2584 44.0586 53.05 44.2336 52.8084 44.3586C52.5667 44.4836 52.2667 44.5503 51.9084 44.5503H43.65C42.925 44.5503 42.3167 44.4836 41.8334 44.3419C41.35 44.2003 40.9584 43.9836 40.6667 43.6753C40.375 43.3669 40.1667 42.9753 40.05 42.4919C39.9334 42.0086 39.8667 41.4169 39.8667 40.7253V28.8836C39.8667 28.1919 39.925 27.6003 40.05 27.1169C40.175 26.6336 40.375 26.2336 40.6667 25.9336C40.9584 25.6253 41.3417 25.4003 41.8334 25.2669C42.3167 25.1253 42.925 25.0586 43.65 25.0586H51.6667C52.025 25.0586 52.3167 25.1253 52.5584 25.2503C52.8 25.3753 53 25.5503 53.1667 25.7586C53.325 25.9669 53.4417 26.2003 53.5167 26.4586C53.5917 26.7169 53.625 26.9669 53.625 27.2086C53.625 27.4503 53.5917 27.7003 53.5167 27.9503C53.4417 28.2003 53.3334 28.4253 53.175 28.6253C53.025 28.8253 52.8167 28.9919 52.5667 29.1086C52.3167 29.2253 52.0167 29.2919 51.6584 29.2919H45.5334C45.2584 29.2919 45.075 29.3336 44.975 29.4253C44.875 29.5169 44.825 29.7086 44.825 29.9919V32.5836L44.8334 32.5919Z" fill="#FF769D"/>
<path d="M70.8667 37.9921L73.2917 26.7588C73.3584 26.3838 73.4834 26.0838 73.6751 25.8421C73.8667 25.6005 74.0917 25.4088 74.3501 25.2755C74.6084 25.1338 74.8917 25.0505 75.2001 25.0088C75.5084 24.9671 75.8167 24.9755 76.1167 25.0171C76.4084 25.0671 76.6834 25.1671 76.9417 25.3171C77.2001 25.4671 77.4167 25.6588 77.5834 25.8838C77.7501 26.1088 77.8751 26.3838 77.9501 26.6921C78.0251 27.0088 78.0167 27.3421 77.9417 27.7005L74.1167 44.5588H68.7917L65.9584 32.4505L63.1501 44.5588H58.1834L54.1834 27.7255C54.1001 27.3588 54.1001 27.0171 54.1667 26.7088C54.2417 26.4005 54.3667 26.1338 54.5417 25.9005C54.7167 25.6671 54.9417 25.4755 55.2084 25.3171C55.4751 25.1588 55.7501 25.0588 56.0417 25.0171C56.3501 24.9671 56.6584 24.9671 56.9584 25.0088C57.2667 25.0505 57.5501 25.1338 57.8167 25.2755C58.0834 25.4088 58.3084 25.6005 58.4917 25.8421C58.6751 26.0838 58.8084 26.3921 58.8917 26.7588L61.1417 37.3671L63.3667 27.4088C63.4667 27.0505 63.6167 26.7588 63.8167 26.5171C64.0167 26.2755 64.2334 26.0838 64.4751 25.9505C64.7084 25.8171 64.9584 25.7171 65.2167 25.6588C65.4751 25.6005 65.7167 25.5755 65.9417 25.5755C66.1667 25.5755 66.4084 25.6005 66.6667 25.6588C66.9251 25.7171 67.1751 25.8088 67.4084 25.9505C67.6417 26.0838 67.8584 26.2755 68.0667 26.5171C68.2667 26.7588 68.4167 27.0588 68.5167 27.4088L70.8667 37.9921Z" fill="#FF769D"/>
<path d="M55.1167 75.9004C59.575 77.3087 56.675 79.7004 65.1833 89.2254C65.1833 89.2254 63.9 94.0587 50 90.9754" fill="#FF0000"/>
<path d="M57.975 92.5914C55.875 92.5914 53.225 92.3081 49.8667 91.5581C49.5417 91.4831 49.3334 91.1581 49.4084 90.8331C49.4834 90.5081 49.8084 90.2998 50.1334 90.3748C61.1417 92.8164 63.875 90.1914 64.4584 89.3081C60.2584 84.5498 58.9084 81.5914 58.0167 79.6248C57.1667 77.7664 56.85 77.0748 54.9334 76.4664C54.6167 76.3664 54.4417 76.0248 54.5417 75.7081C54.6417 75.3914 54.9834 75.2081 55.3 75.3164C57.7334 76.0831 58.2584 77.2331 59.125 79.1331C60.0084 81.0748 61.35 84.0164 65.6417 88.8164C65.775 88.9664 65.825 89.1748 65.775 89.3748C65.7334 89.5414 64.8167 92.5914 57.9834 92.5914H57.975Z" fill="black"/>
<path d="M57.4583 87.0168C59.8249 86.8752 62.2499 86.5252 64.4666 85.6585C67.3166 84.5418 69.7249 82.5585 71.0583 80.2418C71.7499 79.0335 72.1583 77.7085 71.8916 76.4835C71.3666 74.0918 68.3416 72.4502 65.4416 73.6085C60.7999 75.4585 61.1999 80.5168 54.0249 83.0502C52.5166 83.5835 52.5249 81.8835 51.1916 82.7252C49.7666 83.6335 48.9249 85.6418 50.4083 86.5085C51.9999 87.4252 55.4999 87.1335 57.4499 87.0168H57.4583Z" fill="#FFBF00"/>
<path d="M70.1832 74.083C70.1749 74.8413 69.9916 75.633 69.7082 76.3913C68.7666 78.8913 66.7082 81.233 64.0749 82.7913C62.0249 84.008 59.6916 84.7413 57.3749 85.2663C55.4666 85.6913 52.0582 86.5497 50.3416 85.8997C50.0332 85.783 49.8082 85.6163 49.6499 85.408C49.7082 85.8413 49.9416 86.2413 50.4166 86.5163C52.0082 87.433 55.5082 87.1413 57.4582 87.0247C59.8249 86.883 62.2499 86.533 64.4666 85.6663C67.3166 84.5497 69.7249 82.5663 71.0582 80.2497C71.7499 79.0413 72.1582 77.7163 71.8916 76.4913C71.6749 75.5163 71.0499 74.6747 70.1832 74.0913V74.083Z" fill="white"/>
<path d="M54.2501 87.7831C52.6835 87.7831 51.1001 87.6331 50.1001 87.0497C49.4085 86.6497 49.0168 85.9997 49.0001 85.2331C48.9751 84.1331 49.7251 82.9081 50.8585 82.1914C51.9001 81.5247 52.5501 81.9997 52.9418 82.2747C53.2501 82.4997 53.3918 82.5997 53.8168 82.4497C57.6501 81.0997 59.1835 79.0414 60.6585 77.0497C61.8585 75.4331 63.0001 73.8997 65.2085 73.0247C66.8085 72.3914 68.5668 72.4747 70.0418 73.2581C71.3251 73.9414 72.2251 75.0664 72.5085 76.3497C72.7835 77.5997 72.4668 79.0581 71.6085 80.5581C70.2085 82.9997 67.6835 85.0747 64.7001 86.2414C62.7001 87.0247 60.4085 87.4747 57.5001 87.6414L57.0668 87.6664C56.2418 87.7164 55.2501 87.7831 54.2501 87.7831ZM51.8501 83.1164C51.7668 83.1164 51.6835 83.1664 51.5335 83.2581C50.7918 83.7247 50.2501 84.5664 50.2585 85.2081C50.2585 85.5414 50.4168 85.7747 50.7251 85.9581C52.0418 86.7164 55.1335 86.5247 56.9751 86.4081L57.4085 86.3831C60.1835 86.2164 62.3501 85.7997 64.2251 85.0664C66.9501 83.9997 69.2335 82.1247 70.5001 79.9247C70.9918 79.0664 71.5251 77.7997 71.2668 76.6164C71.0668 75.6914 70.4001 74.8747 69.4418 74.3664C68.2918 73.7581 66.9168 73.6914 65.6668 74.1914C63.7918 74.9414 62.8085 76.2664 61.6668 77.7997C60.1501 79.8414 58.4251 82.1581 54.2335 83.6414C53.1918 84.0081 52.5751 83.5664 52.2001 83.2997C52.0251 83.1747 51.9418 83.1164 51.8418 83.1164H51.8501Z" fill="black"/>
<path d="M58.0084 77.7079C57.9751 77.4913 57.9501 77.2829 57.8918 77.0829C57.3751 75.2496 54.6668 76.3746 52.9001 76.3329C51.1418 76.2913 49.2001 75.8913 47.4418 75.8746C47.3418 75.8746 47.2334 75.8746 47.1334 75.8746C47.0084 75.8746 46.8834 75.8746 46.7584 75.8663C46.1251 75.8496 45.4918 75.8329 44.8501 75.7996C44.2084 75.7663 43.5668 75.7246 42.9418 75.6746C42.8168 75.6663 42.6918 75.6579 42.5751 75.6413C42.4751 75.6329 42.3751 75.6246 42.2668 75.6163C40.2751 75.4246 38.3501 75.1329 36.5251 74.7329C36.5251 74.7329 36.4918 74.7329 36.4834 74.7246C33.3584 75.3163 30.1084 76.1996 27.5251 78.0496C26.7168 78.6246 25.9084 79.3163 25.6251 80.2663C25.2918 81.3496 25.7334 82.5496 26.4668 83.4079C27.2001 84.2663 28.2001 84.8579 29.1834 85.4246C29.4084 85.5579 29.6584 85.7163 29.6918 85.9746C29.7418 86.2996 29.4251 86.5829 29.4084 86.9079C29.3918 87.2579 29.7251 87.5413 30.0668 87.5996C30.4084 87.6579 30.7584 87.5329 31.0918 87.4163C31.3001 87.3413 31.5084 87.2663 31.7084 87.1746C32.4418 90.4496 34.0751 94.4996 35.5668 94.7913C37.9751 95.2663 40.1918 93.6496 42.0501 91.3579C43.1001 90.0663 45.1251 90.1746 46.0334 91.5663C47.6418 94.0329 49.6751 95.8663 52.1251 95.6496C54.5668 95.4246 56.1418 90.2496 56.8418 88.3663C57.9834 85.2913 58.5334 81.0579 58.0084 77.7246V77.7079Z" fill="white"/>
<path d="M56.8917 75.1584C55.9333 72.8167 47.4167 69.5167 44.7083 71.0751C44.3333 71.2917 44.0583 71.6417 43.9417 72.1501C43.75 72.9667 49.5417 72.5084 50.3833 73.4584C54.125 77.6667 56.5167 82.8001 55.0583 92.7834C55.0583 92.7834 60.675 84.4001 56.8917 75.1584Z" fill="#FFBF00"/>
<path d="M51.7168 96.2829C49.4918 96.2829 47.4002 94.8079 45.5002 91.8995C45.1752 91.4079 44.6502 91.1079 44.0585 91.0745C43.4668 91.0412 42.9085 91.2912 42.5335 91.7495C40.1918 94.6412 37.8002 95.8662 35.4418 95.3995C33.5168 95.0245 31.9585 90.7412 31.2585 88.0079C30.9168 88.1245 30.4585 88.2829 29.9668 88.1995C29.3502 88.0995 28.7335 87.5662 28.7752 86.8495C28.7918 86.5662 28.9085 86.3412 28.9918 86.1746C29.0085 86.1412 29.0335 86.0995 29.0502 86.0579C29.0168 86.0329 28.9585 85.9912 28.8668 85.9412C27.9002 85.3829 26.8085 84.7495 25.9918 83.7912C25.0335 82.6746 24.6585 81.2412 25.0252 80.0495C25.3752 78.9079 26.3002 78.1162 27.1668 77.4995C30.0085 75.4579 33.5835 74.5912 36.3752 74.0662C36.4668 74.0495 36.5585 74.0495 36.6502 74.0662C36.6585 74.0662 36.6668 74.0662 36.6752 74.0662C38.4502 74.4579 40.3585 74.7495 42.3335 74.9412L43.0002 74.9995C43.6252 75.0495 44.2502 75.0912 44.8918 75.1245C45.5252 75.1579 46.1585 75.1829 46.7835 75.1912H47.4585C48.4002 75.2079 49.4002 75.3245 50.3668 75.4412C51.2252 75.5412 52.1168 75.6412 52.9335 75.6662C53.3835 75.6745 53.9168 75.5995 54.4835 75.5245C55.9668 75.3162 58.0085 75.0329 58.5252 76.8829C58.5752 77.0662 58.6085 77.2579 58.6335 77.4495L58.6585 77.5912C59.1752 80.8829 58.7085 85.1829 57.4585 88.5495C57.3918 88.7329 57.3085 88.9579 57.2252 89.1995C56.0585 92.4912 54.6085 96.0245 52.2085 96.2495C52.0502 96.2662 51.9002 96.2745 51.7418 96.2745L51.7168 96.2829ZM43.9585 89.8079C44.0168 89.8079 44.0668 89.8079 44.1252 89.8079C45.1252 89.8579 46.0168 90.3662 46.5585 91.1995C48.3168 93.8912 50.1668 95.1745 52.0668 94.9995C53.8668 94.8329 55.3668 90.5995 56.0168 88.7829C56.1085 88.5329 56.1835 88.3079 56.2585 88.1162C57.4168 84.9829 57.8752 80.8329 57.3918 77.7912L57.3668 77.6412C57.3418 77.4995 57.3252 77.3662 57.2918 77.2329C57.1002 76.5579 56.3502 76.5412 54.6418 76.7829C54.0502 76.8662 53.4335 76.9495 52.8918 76.9412C52.0168 76.9162 51.1002 76.8162 50.2168 76.7079C49.2835 76.5995 48.3252 76.4912 47.4418 76.4829H46.7585C46.1168 76.4579 45.4752 76.4329 44.8252 76.3995C44.1752 76.3662 43.5335 76.3245 42.9002 76.2745L42.2168 76.2162C40.2168 76.0245 38.2835 75.7329 36.4835 75.3329C33.8335 75.8412 30.5002 76.6662 27.9002 78.5329C27.2085 79.0245 26.4668 79.6412 26.2335 80.4245C25.9502 81.3495 26.4168 82.3495 26.9502 82.9745C27.6335 83.7662 28.6252 84.3495 29.5002 84.8579C29.7335 84.9995 30.2335 85.2829 30.3168 85.8579C30.3752 86.2329 30.2252 86.5412 30.1168 86.7495C30.0835 86.8079 30.0418 86.8995 30.0335 86.9329C30.0335 86.9079 30.1002 86.9495 30.1668 86.9579C30.3585 86.9912 30.6335 86.8912 30.8752 86.8079C31.0668 86.7412 31.2585 86.6662 31.4418 86.5912C31.4502 86.5912 31.4668 86.5829 31.4752 86.5745C32.2835 86.2329 33.0085 85.7829 33.1918 85.0912C33.4335 84.1995 32.6585 83.1912 32.0502 82.5162C31.8168 82.2579 31.8418 81.8579 32.1002 81.6245C32.3585 81.3912 32.7585 81.4162 32.9918 81.6745C33.7918 82.5745 34.8002 83.9329 34.4085 85.4162C34.1335 86.4329 33.3418 87.0662 32.4335 87.5162C33.3252 91.1579 34.8502 93.9912 35.6835 94.1495C37.5502 94.5162 39.5252 93.4329 41.5585 90.9412C42.1502 90.2079 43.0168 89.7995 43.9585 89.7995V89.8079Z" fill="black"/>
<path d="M25.3083 46.3588C28.2499 43.8921 31.2916 45.0254 32.8333 47.2754C34.6166 49.8754 36.3249 50.7671 34.1749 53.0921C32.0333 55.4171 28.8333 57.5754 26.0166 56.1254C22.0583 54.0921 21.8083 49.2838 25.3083 46.3504V46.3588Z" fill="#FFBF00"/>
<path d="M27.9665 57.2079C27.2331 57.2079 26.4831 57.0495 25.7415 56.6662C23.7748 55.6579 22.5165 53.9162 22.2831 51.8912C22.0415 49.7162 23.0248 47.4745 24.9165 45.8912C26.3248 44.7079 27.8831 44.1995 29.4248 44.4079C30.9498 44.6162 32.3665 45.5329 33.3248 46.9329C33.6748 47.4412 34.0248 47.8912 34.3415 48.2912C35.5998 49.8912 36.6831 51.2745 34.6165 53.5079C33.4581 54.7662 30.8248 57.2162 27.9581 57.2162L27.9665 57.2079ZM28.7581 45.5745C27.7248 45.5745 26.6748 45.9995 25.6998 46.8245C24.0915 48.1745 23.2915 49.9745 23.4915 51.7662C23.6748 53.3995 24.6748 54.7662 26.2915 55.5995C29.2081 57.0912 32.4665 54.0662 33.7331 52.6912C35.0998 51.2162 34.6665 50.6662 33.3915 49.0495C33.0665 48.6329 32.6998 48.1662 32.3331 47.6329C31.5665 46.5162 30.4498 45.7829 29.2665 45.6245C29.0998 45.5995 28.9331 45.5912 28.7581 45.5912V45.5745Z" fill="black"/>
<path d="M26.7916 49.1249C28.4999 47.3499 30.3916 48.7165 31.1916 49.9582C32.1166 51.3915 33.8582 53.3082 32.7582 54.5915C31.6582 55.8749 28.5416 54.6832 27.0666 53.9332C25.5166 53.1415 25.0666 50.9249 26.7999 49.1249H26.7916Z" fill="white"/>
<path d="M64.8499 65.1088C64.8249 64.6755 64.7749 64.2421 64.6999 63.7838C64.0999 60.4671 62.5916 57.8755 61.5916 56.3171C59.7749 53.4671 57.6999 51.7755 54.6999 50.1171C51.3332 48.5921 47.1832 47.7671 42.2749 47.9421C37.3582 48.1005 33.2749 49.2088 30.0249 50.9505C27.1416 52.8088 25.5666 55.3921 23.9416 58.3588C23.0499 59.9838 21.3416 61.9171 20.9666 65.2671C20.9166 65.7255 20.8999 66.1671 20.8999 66.6005C21.0832 69.4921 22.1999 71.7421 24.0249 73.4338C27.5999 76.5755 33.8582 77.9338 40.7249 77.9921C40.8249 77.9921 40.9249 77.9921 41.0249 77.9921C41.1499 77.9921 41.2666 77.9921 41.3916 77.9921C42.0166 77.9921 42.6499 77.9755 43.2832 77.9588C43.9166 77.9338 44.5499 77.9088 45.1749 77.8671C45.2999 77.8671 45.4166 77.8505 45.5416 77.8421C45.6416 77.8421 45.7416 77.8255 45.8416 77.8171C52.6916 77.2921 58.8332 75.5088 62.1916 72.1421C63.8916 70.3255 64.8582 68.0171 64.8499 65.1088Z" fill="#FFBF00"/>
<path d="M39.4584 66.167C27.3334 66.167 23.1417 68.3337 22.8584 71.8837C23.1334 72.3253 23.4417 72.742 23.7834 73.142C23.8834 73.242 23.9751 73.342 24.0751 73.4337C27.7251 76.567 34.1001 77.9253 41.1084 77.9837C41.2084 77.9837 41.3167 77.9837 41.4167 77.9837C41.5417 77.9837 41.6667 77.9837 41.7917 77.9837C42.4251 77.9837 43.0751 77.967 43.7251 77.9503C44.3751 77.9253 45.0167 77.892 45.6501 77.8587C45.7751 77.8587 45.9001 77.842 46.0251 77.8337C46.1251 77.8337 46.2334 77.817 46.3334 77.8087C50.8251 77.467 55.0084 76.6087 58.3501 75.142C57.5917 69.6253 53.1834 66.1837 39.4584 66.1753V66.167Z" fill="white"/>
<path d="M35.1415 54.9835C36.8581 54.9835 37.5415 52.4419 38.3831 49.3252C38.5331 48.7585 38.6498 48.2169 38.7415 47.7002C37.5415 47.8252 36.3831 48.0335 35.2581 48.3002C35.1498 48.6335 35.0415 48.9835 34.9498 49.3335C34.1081 52.4585 33.4248 54.9835 35.1415 54.9752V54.9835Z" fill="#ED9600"/>
<path d="M39.3915 55.9837C41.1081 55.9837 41.7915 53.4421 42.6331 50.3254C42.8998 49.3254 43.0665 48.4004 43.1498 47.5837C42.6665 47.5587 42.1831 47.5254 41.6748 47.5254C41.1665 47.5254 40.6665 47.5671 40.1665 47.5921C39.8081 48.4087 39.4748 49.3337 39.1998 50.3337C38.3581 53.4587 37.6748 55.9837 39.3915 55.9754V55.9837Z" fill="#ED9600"/>
<path d="M44.2001 54.9415C45.9167 54.9415 46.6001 52.3998 47.4417 49.2831C47.5334 48.9248 47.6167 48.5831 47.6917 48.2498C46.7084 47.9915 45.6584 47.7915 44.5251 47.6748C44.3417 48.1915 44.1584 48.7331 44.0084 49.2998C43.1667 52.4248 42.4834 54.9498 44.2001 54.9415Z" fill="#ED9600"/>
<path d="M45.6999 67.5746C45.6499 67.5746 45.5999 67.5746 45.5499 67.5746C44.9666 67.533 44.4416 67.2663 44.0749 66.8247C43.6916 66.3663 43.5166 65.7913 43.5832 65.183C43.6166 64.833 43.9249 64.583 44.2749 64.6247C44.6249 64.658 44.8749 64.9746 44.8332 65.3163C44.8082 65.5746 44.8749 65.8247 45.0332 66.008C45.1832 66.183 45.3916 66.2913 45.6332 66.308C46.1499 66.3413 46.6249 65.933 46.6832 65.3913C46.7166 65.0413 47.0249 64.7997 47.3749 64.833C47.7249 64.8663 47.9749 65.183 47.9332 65.5246C47.8082 66.683 46.8166 67.5663 45.6916 67.5663L45.6999 67.5746Z" fill="black"/>
<path d="M32.4582 67.5746C32.4082 67.5746 32.3582 67.5746 32.3082 67.5746C31.7249 67.533 31.1999 67.2663 30.8332 66.8247C30.4499 66.3663 30.2749 65.7913 30.3415 65.183C30.3749 64.833 30.6832 64.583 31.0332 64.6247C31.3832 64.658 31.6332 64.9746 31.5915 65.3163C31.5665 65.5746 31.6332 65.8247 31.7915 66.008C31.9415 66.183 32.1499 66.2913 32.3915 66.308C32.8915 66.3413 33.3832 65.933 33.4415 65.3913C33.4749 65.0413 33.7832 64.7997 34.1332 64.833C34.4832 64.8663 34.7332 65.183 34.6915 65.5246C34.5665 66.683 33.5749 67.5663 32.4499 67.5663L32.4582 67.5746Z" fill="black"/>
<path d="M39.7332 69.0835C39.6165 69.0835 39.4999 69.0835 39.3832 69.0669C39.3582 69.0669 38.5665 69.0419 38.0415 68.4919C37.8249 68.2669 37.5749 67.8669 37.5999 67.2419C37.6165 66.8919 37.9249 66.6169 38.2499 66.6335C38.5999 66.6502 38.8665 66.9419 38.8582 67.2835C38.8582 67.4835 38.9082 67.5669 38.9499 67.6085C39.0832 67.7502 39.3665 67.7919 39.4582 67.8002C40.3665 67.8835 40.5999 67.5419 40.7165 67.3585C40.9082 67.0669 41.2999 66.9835 41.5915 67.1752C41.8832 67.3669 41.9665 67.7585 41.7749 68.0502C41.3249 68.7335 40.6415 69.0835 39.7415 69.0835H39.7332Z" fill="black"/>
<path d="M36.6251 69.0504C36.5501 69.0504 36.4835 69.0504 36.4251 69.0421C35.5001 68.9087 35.0835 68.4754 34.8918 68.1254C34.7168 67.8254 34.8251 67.4337 35.1335 67.2671C35.4418 67.1004 35.8251 67.2004 35.9918 67.5087C36.0668 67.6504 36.2835 67.7504 36.5835 67.7921C36.6418 67.7921 37.3335 67.8337 37.6001 67.1754C37.7335 66.8504 38.1001 66.7004 38.4251 66.8337C38.7501 66.9671 38.9001 67.3337 38.7668 67.6587C38.3085 68.7754 37.2585 69.0587 36.6251 69.0587V69.0504Z" fill="black"/>
<path d="M41.4166 78.6082H41.1083C35.5916 78.5582 28.0916 77.7082 23.6666 73.9082C21.5916 72.0165 20.4583 69.5748 20.2666 66.6332C20.2666 66.0748 20.2833 65.6248 20.3333 65.1915C20.6499 62.4332 21.8249 60.5998 22.7749 59.1332C23.0249 58.7498 23.2583 58.3832 23.4499 58.0415C25.1416 55.0165 26.7833 52.3582 29.8666 50.4082C33.4999 48.4915 37.7999 47.4498 42.6833 47.2915C47.5666 47.1248 51.9249 47.8665 55.6333 49.5165C58.1333 50.6248 60.0583 53.0332 61.4499 55.0082C63.4916 57.8998 64.6499 60.3832 65.2166 63.0498C65.3583 63.7248 65.4416 64.4165 65.4749 65.1332C65.6249 69.2832 63.6416 73.0165 60.2916 74.8832C56.6999 76.8748 52.2833 78.0082 46.3833 78.4332L45.6916 78.4832C45.0499 78.5248 44.3999 78.5582 43.7499 78.5748C43.0916 78.5998 42.4416 78.6082 41.7999 78.6082H41.4166ZM44.0499 48.5332C43.6166 48.5332 43.1749 48.5332 42.7333 48.5582C38.0416 48.7082 33.9249 49.6998 30.4999 51.5082C27.7083 53.2748 26.1499 55.7998 24.5499 58.6665C24.3416 59.0332 24.0999 59.4165 23.8333 59.8248C22.9583 61.1832 21.8666 62.8665 21.5916 65.3415C21.5499 65.7248 21.5249 66.1248 21.5333 66.5998C21.6999 69.1665 22.6999 71.3165 24.5083 72.9665C27.7166 75.7248 33.6249 77.2915 41.1249 77.3498H41.4333H41.8083C42.4416 77.3498 43.0749 77.3332 43.7166 77.3165C44.3583 77.2915 44.9916 77.2665 45.6249 77.2248L46.2999 77.1748C52.0083 76.7582 56.2666 75.6832 59.6916 73.7832C62.6249 72.1498 64.3666 68.8582 64.2333 65.1832C64.2083 64.5498 64.1333 63.9165 64.0083 63.3165C63.4749 60.8165 62.3749 58.4832 60.4416 55.7415C59.1416 53.8998 57.3666 51.6582 55.1416 50.6748C51.9416 49.2498 48.2166 48.5332 44.0583 48.5332H44.0499Z" fill="black"/>
<path d="M39.9487 77.4457C39.9655 75.7798 38.4384 74.4136 36.5377 74.3944C34.637 74.3752 33.0826 75.7101 33.0657 77.3761C33.0488 79.042 34.576 80.4082 36.4766 80.4274C38.3773 80.4467 39.9318 79.1117 39.9487 77.4457Z" fill="#FF0000"/>
<path d="M36.5165 81.0337C36.5165 81.0337 36.4832 81.0337 36.4665 81.0337C35.3998 81.0254 34.3998 80.6421 33.6415 79.9671C32.8665 79.2754 32.4415 78.3504 32.4498 77.3671C32.4582 76.3837 32.8998 75.4671 33.6915 74.7921C34.4582 74.1337 35.4665 73.7671 36.5332 73.7837C37.5998 73.7921 38.5998 74.1754 39.3582 74.8504C40.1332 75.5421 40.5582 76.4671 40.5498 77.4504C40.5332 79.4337 38.7248 81.0337 36.5082 81.0337H36.5165ZM36.4998 75.0004C35.7415 75.0004 35.0248 75.2504 34.4915 75.7171C33.9665 76.1671 33.6748 76.7587 33.6748 77.3921C33.6748 78.0254 33.9498 78.6254 34.4582 79.0837C34.9915 79.5587 35.7165 79.8337 36.4832 79.8421C38.0832 79.8671 39.3332 78.7921 39.3415 77.4587C39.3415 76.8254 39.0665 76.2254 38.5582 75.7671C38.0248 75.2921 37.2998 75.0171 36.5332 75.0087H36.4998V75.0004Z" fill="black"/>
<path d="M48.4179 77.5297C48.4348 75.8638 46.9076 74.4976 45.007 74.4784C43.1063 74.4591 41.5518 75.7941 41.5349 77.46C41.5181 79.126 43.0452 80.4922 44.9459 80.5114C46.8466 80.5306 48.401 79.1957 48.4179 77.5297Z" fill="#FF0000"/>
<path d="M44.9833 81.125C44.9833 81.125 44.95 81.125 44.9333 81.125C43.8666 81.1167 42.8666 80.7333 42.1083 80.0583C41.3333 79.3667 40.9083 78.4417 40.9166 77.4583C40.9333 75.475 42.7416 73.875 44.9583 73.875C44.975 73.875 44.9916 73.875 45.0083 73.875C46.075 73.8833 47.075 74.2667 47.8333 74.9417C48.6083 75.6333 49.0333 76.5583 49.025 77.5417C49.0083 79.525 47.2 81.125 44.9833 81.125ZM44.9583 75.0833C43.4083 75.0833 42.1416 76.15 42.1333 77.4667C42.1333 78.1 42.4083 78.7 42.9166 79.1583C43.45 79.6333 44.175 79.9083 44.9416 79.9167C46.5166 79.9417 47.7916 78.8667 47.8 77.5333C47.8 76.9 47.525 76.3 47.0166 75.8417C46.4833 75.3667 45.7583 75.0917 44.9916 75.0833H44.9583Z" fill="black"/>
<path d="M44.7835 78.1003L36.4252 78.0169C36.0919 78.0169 35.8252 77.7419 35.8252 77.4086C35.8252 77.0753 36.1002 76.8086 36.4335 76.8086L44.7919 76.8919C45.1252 76.8919 45.3919 77.1669 45.3919 77.5003C45.3919 77.8336 45.1169 78.1003 44.7835 78.1003Z" fill="black"/>
<path d="M40.7419 79.7582C42.0121 79.7582 43.0419 78.7285 43.0419 77.4582C43.0419 76.1879 42.0121 75.1582 40.7419 75.1582C39.4716 75.1582 38.4419 76.1879 38.4419 77.4582C38.4419 78.7285 39.4716 79.7582 40.7419 79.7582Z" fill="#FF0000"/>
<path d="M40.7418 80.3581H40.7085C39.9335 80.3581 39.2085 80.0415 38.6668 79.4831C38.1252 78.9331 37.8335 78.1998 37.8335 77.4248C37.8335 76.6498 38.1502 75.9248 38.7002 75.3831C39.2502 74.8415 39.9918 74.5581 40.7585 74.5498C41.5335 74.5498 42.2585 74.8665 42.8002 75.4248C43.3418 75.9831 43.6335 76.7081 43.6335 77.4831C43.6335 78.2581 43.3168 78.9831 42.7668 79.5248C42.2168 80.0581 41.5002 80.3581 40.7335 80.3581H40.7418ZM40.7418 75.7665C40.3002 75.7665 39.8752 75.9415 39.5585 76.2498C39.2335 76.5665 39.0585 76.9915 39.0502 77.4415C39.0418 77.8915 39.2168 78.3165 39.5335 78.6415C39.8502 78.9665 40.2752 79.1415 40.7252 79.1498C41.1668 79.1331 41.6002 78.9831 41.9252 78.6665C42.2502 78.3498 42.4252 77.9248 42.4335 77.4748C42.4418 77.0248 42.2668 76.5998 41.9502 76.2748C41.6335 75.9498 41.2085 75.7748 40.7585 75.7665H40.7418Z" fill="black"/>
<path d="M47.4248 48.5754C48.3165 46.8754 48.8915 46.4087 49.0831 46.1254C50.5831 43.9004 53.5915 41.9504 57.6498 43.992C62.2831 46.3337 61.9748 53.0587 57.6831 54.8004" fill="#FFBF00"/>
<path d="M55.8667 46.4418C53.525 45.1584 51.5417 46.6584 50.9333 48.5334C50.8333 48.8418 50.9417 49.1501 51.2667 49.2334C53.125 49.7168 54.7 50.5001 55.9583 51.6418C56.1667 51.8334 56.5 51.8334 56.7 51.6334C57.65 50.6501 58.4083 47.8251 55.875 46.4418H55.8667Z" fill="white"/>
<path d="M57.6832 54.8504C57.4582 54.8504 57.2332 54.7254 57.1249 54.5087C56.9666 54.2004 57.0832 53.817 57.3999 53.6587C59.2416 52.7087 60.3832 50.9337 60.3749 49.0337C60.3666 47.1504 59.2749 45.517 57.3749 44.5587C55.4666 43.6004 53.6166 43.4254 52.0249 44.067C50.3916 44.7254 49.1249 46.2254 48.3582 48.4087C48.2416 48.7337 47.8832 48.9087 47.5582 48.792C47.2332 48.6754 47.0582 48.317 47.1749 47.992C48.0582 45.4587 49.5749 43.7004 51.5582 42.9004C53.4666 42.1254 55.7416 42.317 57.9499 43.4337C60.2499 44.592 61.6332 46.6837 61.6416 49.0337C61.6499 51.417 60.2499 53.617 57.9916 54.792C57.8999 54.842 57.7999 54.8587 57.6999 54.8587L57.6832 54.8504Z" fill="black"/>
<path d="M52.8418 77.0003C55.7668 74.8253 60.6585 71.9919 62.7668 73.2003C63.1418 73.4169 63.4168 73.7669 63.5335 74.2753C63.7251 75.0919 63.4001 76.1419 62.4251 76.9669C58.8835 79.9753 58.1085 81.0836 55.4085 85.1753" fill="white"/>
<path d="M55.4085 85.7832C55.2918 85.7832 55.1751 85.7499 55.0751 85.6832C54.8001 85.4999 54.7168 85.1249 54.9001 84.8416C57.6585 80.6499 58.4501 79.5499 62.0335 76.4999C62.8918 75.7666 63.0668 74.9416 62.9418 74.3999C62.8668 74.0749 62.7168 73.8582 62.4668 73.7166C60.9085 72.8249 56.6335 74.9332 53.2085 77.4832C52.9418 77.6832 52.5585 77.6249 52.3585 77.3582C52.1585 77.0916 52.2168 76.7082 52.4835 76.5082C53.7418 75.5749 60.1585 70.9916 63.0668 72.6666C63.6168 72.9832 63.9668 73.4749 64.1168 74.1249C64.3751 75.2499 63.8751 76.5082 62.8085 77.4166C59.3585 80.3499 58.5918 81.4249 55.9085 85.4999C55.7918 85.6749 55.6001 85.7749 55.4001 85.7749L55.4085 85.7832Z" fill="black"/>
<path d="M76.3484 52.5914C76.699 52.0399 76.5361 51.3086 75.9845 50.958C75.433 50.6074 74.7016 50.7704 74.3511 51.3219L59.5907 74.5447C59.2401 75.0963 59.4031 75.8276 59.9546 76.1781C60.5062 76.5287 61.2375 76.3658 61.5881 75.8142L76.3484 52.5914Z" fill="#896213"/>
<path d="M60.6 76.9664C60.275 76.9664 59.9417 76.8747 59.6417 76.6914C59.2417 76.4331 58.9584 76.0331 58.8584 75.5664C58.75 75.0997 58.8417 74.6164 59.0917 74.2164L73.85 50.9997C74.3834 50.1664 75.4917 49.9164 76.325 50.4497C76.725 50.7081 77.0084 51.1081 77.1084 51.5747C77.2167 52.0414 77.125 52.5247 76.875 52.9247L62.1167 76.1414C61.775 76.6747 61.1917 76.9747 60.6 76.9747V76.9664ZM60.2917 75.6664C60.5584 75.8414 60.925 75.7581 61.0917 75.4914L75.85 52.2747C75.9333 52.1414 75.9584 51.9914 75.925 51.8414C75.8917 51.6914 75.8 51.5581 75.6667 51.4747C75.4 51.2997 75.0333 51.3831 74.8667 51.6497L60.1084 74.8664C60.025 74.9997 60 75.1497 60.0334 75.2997C60.0667 75.4497 60.1584 75.5831 60.2917 75.6664Z" fill="black"/>
</svg>
