<svg width="266" height="76" viewBox="0 0 266 76" fill="none" xmlns="http://www.w3.org/2000/svg">
<g clip-path="url(#clip0_1673_371)">
<path d="M16.3198 18.0495H7.60548V29.2209H0.5V4.77446C0.5 4.19812 0.595761 3.68902 0.79686 3.25677C0.988382 2.81491 1.24694 2.44989 1.57253 2.15212C1.89811 1.85434 2.27158 1.6238 2.71208 1.47972C3.15259 1.32603 3.59309 1.25879 4.05274 1.25879C4.51239 1.25879 4.9529 1.33563 5.38382 1.47972C5.80517 1.63341 6.18822 1.85434 6.52338 2.15212C6.85854 2.44989 7.1171 2.82451 7.3182 3.25677C7.50972 3.69863 7.61506 4.19812 7.61506 4.77446V12.0363H16.3389V4.77446C16.3389 4.19812 16.4347 3.68902 16.6358 3.25677C16.8273 2.81491 17.0858 2.44989 17.4114 2.15212C17.737 1.85434 18.1105 1.6238 18.551 1.47972C18.9915 1.32603 19.432 1.25879 19.8916 1.25879C20.3513 1.25879 20.7918 1.33563 21.2227 1.47972C21.6441 1.63341 22.0271 1.85434 22.3623 2.15212C22.6974 2.44989 22.956 2.82451 23.1571 3.25677C23.3486 3.69863 23.454 4.19812 23.454 4.77446V29.2209H16.3485V18.0495H16.3198Z" fill="#DEFCFF"/>
<path d="M25.877 17.1169C25.877 15.2534 26.1738 13.7069 26.7771 12.487C27.3708 11.267 28.1561 10.2873 29.1233 9.54762C30.0904 8.80799 31.163 8.28928 32.3504 7.9915C33.5378 7.69373 34.7157 7.54004 35.884 7.54004C37.0523 7.54004 38.2014 7.69373 39.3793 7.9915C40.5667 8.28928 41.6392 8.80799 42.6064 9.54762C43.5736 10.2873 44.3589 11.267 44.9717 12.487C45.575 13.7069 45.8815 15.2534 45.8815 17.1169V20.2964C45.8815 22.1599 45.575 23.7064 44.9717 24.9263C44.3589 26.1462 43.5736 27.126 42.6064 27.8656C41.6392 28.6053 40.5667 29.124 39.3793 29.4217C38.1918 29.7195 37.0236 29.8732 35.884 29.8732C34.7444 29.8732 33.5666 29.7195 32.3887 29.4217C31.2013 29.124 30.1288 28.6053 29.1616 27.8656C28.1944 27.126 27.4091 26.1462 26.7963 24.9263C26.1834 23.7064 25.8865 22.1599 25.8865 20.2964V17.1169H25.877ZM38.9388 16.8095C38.9388 16.1851 38.843 15.6664 38.6611 15.2342C38.4791 14.8115 38.2397 14.4561 37.9524 14.1776C37.6652 13.899 37.3396 13.6973 36.9661 13.5724C36.6022 13.4475 36.2287 13.3803 35.8648 13.3803C35.501 13.3803 35.1275 13.4475 34.7636 13.5724C34.3997 13.6973 34.0645 13.899 33.7773 14.1776C33.49 14.4561 33.2506 14.8019 33.0686 15.2342C32.8867 15.6568 32.7909 16.1851 32.7909 16.8095V20.6133C32.7909 21.2377 32.8867 21.7564 33.0686 22.1887C33.2506 22.6113 33.49 22.9667 33.7773 23.2453C34.0645 23.5239 34.3901 23.7256 34.7636 23.8505C35.1371 23.9753 35.501 24.0426 35.8648 24.0426C36.2287 24.0426 36.6022 23.9753 36.9661 23.8505C37.33 23.7256 37.6652 23.5239 37.9524 23.2453C38.2397 22.9667 38.4791 22.6209 38.6611 22.1887C38.843 21.766 38.9388 21.2377 38.9388 20.6133V16.8095Z" fill="#DEFCFF"/>
<path d="M48.3135 3.45804C48.3135 2.25733 48.6678 1.38322 49.3668 0.826087C50.0659 0.268959 50.899 0 51.8662 0C52.8334 0 53.6665 0.278564 54.3656 0.826087C55.0646 1.38322 55.419 2.25733 55.419 3.45804V29.2204H48.3135V3.45804Z" fill="#DEFCFF"/>
<path d="M58.2729 3.17947C58.2729 2.04601 58.6273 1.23913 59.3455 0.739636C60.0541 0.240142 60.8968 0 61.864 0C62.8312 0 63.6643 0.249747 64.3825 0.739636C65.0911 1.23913 65.455 2.04601 65.455 3.17947C65.455 3.75581 65.3593 4.2457 65.1582 4.64914C64.9571 5.05258 64.7081 5.37917 64.3825 5.63852C64.0569 5.88827 63.6835 6.08038 63.243 6.19565C62.8024 6.31092 62.3428 6.36855 61.864 6.36855C61.3852 6.36855 60.9255 6.31092 60.485 6.19565C60.0445 6.08038 59.6711 5.89788 59.3455 5.63852C59.0199 5.38878 58.7613 5.05258 58.5698 4.64914C58.3783 4.2457 58.2729 3.75581 58.2729 3.17947ZM58.3113 11.3059C58.3113 10.1052 58.6656 9.23104 59.3646 8.67391C60.0637 8.11678 60.8968 7.84783 61.864 7.84783C62.8312 7.84783 63.6643 8.12639 64.3634 8.67391C65.0624 9.22144 65.4167 10.1052 65.4167 11.3059V29.2204H58.3113V11.3059Z" fill="#DEFCFF"/>
<path d="M74.7917 14.2163C74.7438 14.6293 74.9928 14.9463 75.529 15.148C76.0653 15.3594 76.9846 15.5707 78.2678 15.8012C78.4976 15.8492 78.7179 15.8973 78.9381 15.9357C79.1584 15.9837 79.369 16.0317 79.5797 16.0702C81.6482 16.5985 83.1612 17.5014 84.1284 18.7886C85.0956 20.0757 85.4499 21.7567 85.2009 23.8508C85.0668 24.869 84.7317 25.7431 84.2146 26.4923C83.6974 27.2416 83.0271 27.8563 82.194 28.3462C81.3609 28.8361 80.4224 29.1915 79.3499 29.4316C78.2774 29.6718 77.1474 29.7967 75.9504 29.7967C75.3566 29.7967 74.7342 29.7678 74.1022 29.7102C73.4701 29.6526 72.8477 29.5565 72.2253 29.4124C71.6028 29.278 71.0091 29.0858 70.4345 28.8457C69.86 28.6056 69.3524 28.2982 68.9215 27.9332C68.3278 27.4241 67.916 26.7997 67.6957 26.0505C67.4755 25.3012 67.6096 24.5616 68.0884 23.8219C68.3374 23.4569 68.6534 23.188 69.0364 23.0247C69.4194 22.8614 69.8312 22.7749 70.2909 22.7461C70.8463 22.7269 71.2772 22.8037 71.6028 22.9862C71.9188 23.1688 72.2348 23.3513 72.5317 23.5434C72.8956 23.7739 73.4318 23.9564 74.1213 24.1005C74.8108 24.235 75.4907 24.3118 76.1515 24.3118C76.8122 24.3118 77.3293 24.1966 77.6836 23.966C78.038 23.7355 78.2391 23.4569 78.2869 23.1399C78.3348 22.7269 77.9805 22.4003 77.2336 22.1506C76.4866 21.9104 75.4428 21.6511 74.1118 21.3725C73.8628 21.3245 73.6138 21.2764 73.3744 21.2188C73.135 21.1612 72.9052 21.0939 72.7041 21.0267C71.3443 20.6136 70.2909 20.0565 69.5344 19.3457C68.7778 18.6445 68.2512 17.8664 67.9447 17.0115C67.6479 16.1566 67.5425 15.2729 67.6383 14.3508C67.7341 13.4286 67.9639 12.5641 68.3278 11.7572C68.6725 11.0464 69.1226 10.422 69.6876 9.89373C70.2526 9.36542 70.8942 8.93316 71.622 8.59697C72.3497 8.26077 73.1254 8.01102 73.949 7.85733C74.7725 7.69403 75.6248 7.61719 76.4962 7.61719C77.8752 7.61719 79.0626 7.74206 80.0489 8.00141C81.0353 8.25116 81.8301 8.55854 82.4238 8.90435C83.1325 9.29818 83.6974 9.8361 84.1092 10.5085C84.521 11.1905 84.6168 11.9205 84.3869 12.7082C84.1763 13.3806 83.8315 13.8417 83.3527 14.0914C82.8739 14.3412 82.3185 14.4756 81.696 14.4756C81.4662 14.4756 81.2077 14.4372 80.9204 14.3508C80.6331 14.2739 80.4128 14.1682 80.25 14.053C80.0394 13.9185 79.7904 13.7936 79.4935 13.688C79.1967 13.5823 78.8807 13.4862 78.5455 13.3902C78.2103 13.2941 77.8752 13.2269 77.5304 13.1789C77.1857 13.1308 76.8792 13.1116 76.6015 13.1116C76.0461 13.1116 75.6152 13.2173 75.2896 13.4382C74.964 13.6591 74.7917 13.9185 74.7725 14.2163H74.7917Z" fill="#DEFCFF"/>
<path d="M89.2992 14.0053H88.1597C87.0776 14.0053 86.3019 13.7172 85.8327 13.1408C85.3634 12.5645 85.124 11.9113 85.124 11.1717C85.124 10.8259 85.1719 10.4801 85.2772 10.1343C85.3826 9.78846 85.5549 9.48108 85.7943 9.20251C86.0338 8.92395 86.3498 8.70302 86.7424 8.53011C87.135 8.35721 87.6042 8.27076 88.1597 8.27076H89.2992V4.67824C89.2992 4.1019 89.395 3.5928 89.5961 3.16055C89.7876 2.71869 90.0461 2.36328 90.3717 2.08472C90.6973 1.80615 91.0516 1.60443 91.4538 1.46035C91.856 1.32587 92.2774 1.24902 92.7083 1.24902C93.1392 1.24902 93.5606 1.31626 93.9628 1.46035C94.365 1.59483 94.7289 1.80615 95.0449 2.08472C95.3705 2.36328 95.629 2.71869 95.8205 3.16055C96.0121 3.60241 96.1174 4.1019 96.1174 4.67824V8.27076H98.1475C98.703 8.27076 99.1626 8.35721 99.5457 8.53011C99.9287 8.70302 100.235 8.92395 100.475 9.20251C100.714 9.48108 100.896 9.78846 101.011 10.1343C101.126 10.4801 101.183 10.8259 101.183 11.1717C101.183 11.9113 100.944 12.5645 100.475 13.1408C100.005 13.7172 99.2296 14.0053 98.1475 14.0053H96.1174V22.5832C96.1174 23.1115 96.2227 23.4573 96.443 23.6206C96.6632 23.7839 96.9218 23.8704 97.2187 23.8992C97.4676 23.9184 97.6975 23.8992 97.9081 23.8511C98.1188 23.7935 98.3869 23.7647 98.7317 23.7647C99.3063 23.7647 99.8138 23.9376 100.245 24.2834C100.685 24.6292 100.953 25.0903 101.068 25.6666C101.231 26.3774 101.174 27.0114 100.915 27.5685C100.647 28.1257 100.273 28.5579 99.7946 28.8845C99.402 29.1343 98.9136 29.3552 98.3103 29.5377C97.7166 29.7202 97.1133 29.8163 96.5196 29.8163C95.3705 29.8163 94.3458 29.6914 93.4552 29.432C92.5551 29.1823 91.7986 28.7788 91.1761 28.2217C90.5537 27.6646 90.0845 26.9442 89.7589 26.0412C89.4333 25.1383 89.2801 24.0337 89.2801 22.7177V14.0053H89.2992Z" fill="#DEFCFF"/>
<path d="M102.371 3.17947C102.371 2.04601 102.725 1.23913 103.443 0.739636C104.152 0.240142 104.994 0 105.962 0C106.929 0 107.762 0.249747 108.48 0.739636C109.189 1.23913 109.553 2.04601 109.553 3.17947C109.553 3.75581 109.457 4.2457 109.256 4.64914C109.055 5.05258 108.806 5.37917 108.48 5.63852C108.155 5.88827 107.781 6.08038 107.341 6.19565C106.9 6.31092 106.44 6.36855 105.962 6.36855C105.483 6.36855 105.023 6.31092 104.583 6.19565C104.142 6.08038 103.769 5.89788 103.443 5.63852C103.118 5.38878 102.859 5.05258 102.667 4.64914C102.476 4.2457 102.371 3.75581 102.371 3.17947ZM102.399 11.3059C102.399 10.1052 102.754 9.23104 103.453 8.67391C104.152 8.11678 104.985 7.84783 105.952 7.84783C106.919 7.84783 107.752 8.12639 108.451 8.67391C109.151 9.22144 109.505 10.1052 109.505 11.3059V29.2204H102.399V11.3059Z" fill="#DEFCFF"/>
<path d="M119.091 20.2678C119.091 21.0075 119.196 21.6126 119.397 22.0833C119.608 22.554 119.866 22.9286 120.192 23.188C120.518 23.4569 120.872 23.6394 121.274 23.7451C121.676 23.8508 122.069 23.8988 122.462 23.8988C123.036 23.8988 123.525 23.8604 123.927 23.7739C124.329 23.6971 124.76 23.553 125.22 23.3417C125.469 23.2264 125.737 23.0919 126.014 22.9478C126.292 22.7941 126.589 22.6981 126.915 22.65C127.422 22.554 127.91 22.602 128.38 22.7845C128.849 22.967 129.232 23.3032 129.538 23.7835C129.768 24.1773 129.902 24.5808 129.931 25.013C129.969 25.4357 129.912 25.8583 129.759 26.2618C129.605 26.6652 129.385 27.0398 129.088 27.3856C128.791 27.7314 128.437 28.0292 128.016 28.2886C127.374 28.6824 126.579 29.0282 125.641 29.3452C124.702 29.6526 123.639 29.8159 122.471 29.8159C121.226 29.8159 119.981 29.6622 118.727 29.3644C117.472 29.0666 116.352 28.5479 115.347 27.8083C114.351 27.0687 113.537 26.0889 112.914 24.869C112.292 23.649 111.985 22.1025 111.985 20.239V17.194C111.985 15.369 112.292 13.8513 112.914 12.6313C113.537 11.4114 114.332 10.4316 115.308 9.69201C116.285 8.95237 117.386 8.42406 118.602 8.09747C119.819 7.77088 121.025 7.61719 122.222 7.61719C123.419 7.61719 124.53 7.75167 125.43 8.03023C126.33 8.30879 127.049 8.61618 127.604 8.96198C128.016 9.21173 128.37 9.5095 128.677 9.8457C128.973 10.1819 129.203 10.5469 129.347 10.9311C129.5 11.325 129.567 11.7188 129.558 12.1222C129.548 12.5257 129.423 12.9195 129.194 13.3133C128.868 13.8897 128.466 14.2547 127.968 14.418C127.47 14.5813 126.953 14.6293 126.397 14.5525C126.072 14.5044 125.785 14.4276 125.516 14.3123C125.248 14.1971 124.99 14.0818 124.741 13.9665C124.396 13.8032 124.061 13.688 123.745 13.6207C123.419 13.5535 122.998 13.5151 122.471 13.5151C122.079 13.5151 121.686 13.5631 121.303 13.6688C120.91 13.7744 120.546 13.9569 120.221 14.2259C119.886 14.4948 119.618 14.8599 119.407 15.3305C119.196 15.8012 119.1 16.4064 119.1 17.146V20.2582L119.091 20.2678Z" fill="#DEFCFF"/>
<path d="M147.838 12.1412H157.252C157.759 12.1412 158.18 12.2372 158.525 12.4197C158.87 12.6022 159.157 12.8424 159.387 13.1497C159.617 13.4475 159.78 13.7741 159.885 14.1391C159.99 14.4945 160.038 14.8499 160.038 15.1958C160.038 15.5416 159.99 15.8874 159.885 16.2332C159.78 16.579 159.617 16.896 159.406 17.1841C159.186 17.4723 158.899 17.7028 158.544 17.8757C158.19 18.0486 157.759 18.1351 157.252 18.1351H147.838V22.1791C147.838 22.5921 147.905 22.8611 148.049 22.9956C148.183 23.1204 148.451 23.1877 148.844 23.1877H157.912C158.42 23.1877 158.851 23.2741 159.205 23.447C159.559 23.6199 159.847 23.8505 160.067 24.1386C160.287 24.4268 160.45 24.7534 160.546 25.1088C160.651 25.4642 160.699 25.8196 160.699 26.1654C160.699 26.5112 160.651 26.8666 160.546 27.2413C160.44 27.6063 160.278 27.9425 160.048 28.2402C159.818 28.538 159.531 28.7782 159.186 28.9703C158.841 29.1528 158.42 29.2488 157.912 29.2488H146.153C145.119 29.2488 144.257 29.1528 143.567 28.9511C142.878 28.7589 142.322 28.442 141.911 28.0001C141.499 27.5582 141.202 27.0011 141.03 26.3095C140.857 25.6179 140.771 24.7726 140.771 23.7832V6.84843C140.771 5.85905 140.857 5.01375 141.03 4.32214C141.202 3.63054 141.499 3.0638 141.911 2.63155C142.322 2.18969 142.878 1.8727 143.567 1.68059C144.257 1.48847 145.119 1.38281 146.153 1.38281H157.568C158.075 1.38281 158.496 1.47887 158.841 1.66138C159.186 1.84388 159.473 2.08403 159.703 2.39141C159.933 2.68918 160.096 3.02538 160.201 3.3904C160.306 3.75541 160.354 4.12043 160.354 4.46623C160.354 4.81203 160.306 5.16744 160.201 5.52285C160.096 5.87826 159.933 6.20485 159.722 6.49302C159.502 6.78119 159.215 7.01173 158.86 7.18463C158.506 7.35753 158.075 7.44399 157.568 7.44399H148.844C148.451 7.44399 148.192 7.51122 148.049 7.6361C147.915 7.76097 147.838 8.02993 147.838 8.45258V12.1508V12.1412Z" fill="#DEFCFF"/>
<path d="M162.595 29.2202V11.0655C162.595 10.4891 162.691 9.98963 162.892 9.55737C163.084 9.13472 163.342 8.76971 163.668 8.48154C163.993 8.19337 164.357 7.97244 164.769 7.82835C165.181 7.67466 165.621 7.60742 166.081 7.60742C166.751 7.60742 167.374 7.77072 167.958 8.0877C168.542 8.4143 168.982 8.88497 169.289 9.50934C169.959 8.88497 170.735 8.4143 171.616 8.0877C172.497 7.76111 173.407 7.60742 174.326 7.60742C175.427 7.60742 176.461 7.76111 177.409 8.05889C178.367 8.35666 179.191 8.87537 179.89 9.59579C180.589 10.3258 181.144 11.296 181.566 12.5159C181.977 13.7358 182.188 15.2631 182.188 17.0786V29.2202H175.082V16.6656C175.082 16.0892 174.996 15.5993 174.824 15.1959C174.652 14.7925 174.431 14.4659 174.173 14.2065C173.905 13.9568 173.617 13.7743 173.292 13.6686C172.966 13.5629 172.66 13.5149 172.363 13.5149C172.066 13.5149 171.75 13.5629 171.434 13.6686C171.108 13.7743 170.812 13.9472 170.534 14.2065C170.256 14.4563 170.036 14.7925 169.863 15.1959C169.691 15.5993 169.605 16.0892 169.605 16.6656V29.2202H162.605H162.595Z" fill="#DEFCFF"/>
<path d="M204.308 26.6268C204.308 27.5681 204.174 28.5479 203.916 29.5661C203.648 30.5843 203.131 31.5065 202.365 32.3518C201.598 33.1971 200.497 33.9079 199.07 34.4938C197.643 35.0798 195.776 35.4256 193.449 35.512C193.124 35.5312 192.741 35.5312 192.29 35.4928C191.84 35.4544 191.381 35.3968 190.892 35.3199C190.414 35.2431 189.954 35.1374 189.513 35.0125C189.073 34.8877 188.719 34.7436 188.441 34.5803C187.914 34.2825 187.541 33.8022 187.32 33.149C187.1 32.4959 187.11 31.8619 187.34 31.2663C187.55 30.7092 187.905 30.2769 188.412 29.9504C188.92 29.6238 189.465 29.5085 190.069 29.6045C190.576 29.6718 191.103 29.739 191.658 29.8159C192.214 29.8831 192.808 29.9215 193.449 29.9215C194.187 29.9215 194.819 29.8351 195.345 29.6622C195.872 29.4893 196.312 29.2491 196.657 28.9514C197.002 28.6536 197.251 28.3174 197.414 27.9524C197.576 27.5874 197.653 27.2031 197.653 26.8093V26.1849C197.059 26.7805 196.341 27.2512 195.518 27.5874C194.694 27.9236 193.746 28.0869 192.693 28.0869C191.543 28.0869 190.471 27.9332 189.465 27.6354C188.47 27.3376 187.589 26.8189 186.832 26.0985C186.076 25.3781 185.472 24.4079 185.041 23.1976C184.601 21.9873 184.39 20.4792 184.39 18.6829V17.1652C184.39 15.3401 184.61 13.8224 185.041 12.6025C185.482 11.3826 186.076 10.4028 186.832 9.66319C187.589 8.92356 188.47 8.40485 189.485 8.08787C190.5 7.78048 191.572 7.61719 192.721 7.61719C193.593 7.61719 194.464 7.78048 195.345 8.09747C196.226 8.41446 196.992 8.90435 197.653 9.54793C197.931 8.90435 198.362 8.41446 198.946 8.09747C199.53 7.77088 200.172 7.61719 200.861 7.61719C201.78 7.61719 202.585 7.90536 203.274 8.4817C203.964 9.05804 204.308 9.92255 204.308 11.0752V26.6364V26.6268ZM191.486 19.2977C191.486 19.8932 191.582 20.3927 191.783 20.7865C191.974 21.1804 192.223 21.4974 192.511 21.7567C192.798 22.0065 193.114 22.189 193.459 22.2946C193.803 22.4003 194.129 22.4483 194.426 22.4483C194.723 22.4483 195.039 22.4003 195.374 22.2946C195.709 22.189 196.016 22.0257 196.303 21.7951C196.59 21.5646 196.839 21.2572 197.04 20.8826C197.251 20.4984 197.366 20.0373 197.385 19.4802V16.5024C197.366 15.9453 197.251 15.4842 197.04 15.1C196.83 14.7158 196.59 14.418 196.303 14.1875C196.016 13.9569 195.709 13.7936 195.374 13.688C195.039 13.5823 194.723 13.5343 194.426 13.5343C194.129 13.5343 193.803 13.5823 193.459 13.688C193.114 13.7936 192.798 13.9665 192.511 14.2259C192.223 14.4756 191.984 14.8118 191.783 15.2153C191.591 15.6187 191.486 16.1086 191.486 16.6849V19.3169V19.2977Z" fill="#DEFCFF"/>
<path d="M207.028 3.45804C207.028 2.25733 207.383 1.38322 208.082 0.826087C208.781 0.268959 209.614 0 210.581 0C211.548 0 212.381 0.278564 213.08 0.826087C213.779 1.38322 214.134 2.25733 214.134 3.45804V29.2204H207.028V3.45804Z" fill="#DEFCFF"/>
<path d="M216.997 3.17947C216.997 2.04601 217.351 1.23913 218.07 0.739636C218.778 0.240142 219.621 0 220.588 0C221.555 0 222.388 0.249747 223.107 0.739636C223.815 1.23913 224.179 2.04601 224.179 3.17947C224.179 3.75581 224.083 4.2457 223.882 4.64914C223.681 5.05258 223.432 5.37917 223.107 5.63852C222.781 5.88827 222.408 6.08038 221.967 6.19565C221.527 6.31092 221.067 6.36855 220.588 6.36855C220.109 6.36855 219.65 6.31092 219.209 6.19565C218.769 6.08038 218.395 5.89788 218.07 5.63852C217.744 5.38878 217.485 5.05258 217.294 4.64914C217.102 4.2457 216.997 3.75581 216.997 3.17947ZM217.026 11.3059C217.026 10.1052 217.38 9.23104 218.079 8.67391C218.778 8.11678 219.611 7.84783 220.579 7.84783C221.546 7.84783 222.379 8.12639 223.078 8.67391C223.777 9.22144 224.131 10.1052 224.131 11.3059V29.2204H217.026V11.3059Z" fill="#DEFCFF"/>
<path d="M233.506 14.2163C233.458 14.6293 233.707 14.9463 234.243 15.148C234.78 15.3594 235.699 15.5707 236.982 15.8012C237.212 15.8492 237.432 15.8973 237.652 15.9357C237.873 15.9837 238.083 16.0317 238.294 16.0702C240.363 16.5985 241.876 17.5014 242.843 18.7886C243.81 20.0757 244.164 21.7567 243.915 23.8508C243.781 24.869 243.446 25.7431 242.929 26.4923C242.412 27.2416 241.741 27.8563 240.908 28.3462C240.075 28.8361 239.137 29.1915 238.064 29.4316C236.992 29.6718 235.862 29.7967 234.665 29.7967C234.071 29.7967 233.449 29.7678 232.817 29.7102C232.185 29.6526 231.562 29.5565 230.94 29.4124C230.317 29.278 229.723 29.0858 229.149 28.8457C228.574 28.6056 228.067 28.2982 227.636 27.9332C227.042 27.4241 226.63 26.7997 226.41 26.0505C226.19 25.3012 226.324 24.5616 226.803 23.8219C227.052 23.4569 227.368 23.188 227.751 23.0247C228.134 22.8614 228.546 22.7749 229.005 22.7461C229.561 22.7269 229.992 22.8037 230.317 22.9862C230.633 23.1688 230.949 23.3513 231.246 23.5434C231.61 23.7739 232.146 23.9564 232.836 24.1005C233.525 24.235 234.205 24.3118 234.866 24.3118C235.527 24.3118 236.044 24.1966 236.398 23.966C236.752 23.7355 236.953 23.4569 237.001 23.1399C237.049 22.7269 236.695 22.4003 235.948 22.1506C235.201 21.9104 234.157 21.6511 232.826 21.3725C232.577 21.3245 232.328 21.2764 232.089 21.2188C231.849 21.1612 231.62 21.0939 231.418 21.0267C230.059 20.6136 229.005 20.0565 228.249 19.3457C227.492 18.6445 226.966 17.8664 226.659 17.0115C226.362 16.1566 226.257 15.2729 226.353 14.3508C226.448 13.4286 226.678 12.5641 227.042 11.7572C227.387 11.0464 227.837 10.422 228.402 9.89373C228.967 9.36542 229.609 8.93316 230.336 8.59697C231.064 8.26077 231.84 8.01102 232.663 7.85733C233.487 7.69403 234.339 7.61719 235.211 7.61719C236.59 7.61719 237.777 7.74206 238.763 8.00141C239.75 8.25116 240.544 8.55854 241.138 8.90435C241.847 9.29818 242.412 9.8361 242.824 10.5085C243.235 11.1905 243.331 11.9205 243.101 12.7082C242.891 13.3806 242.546 13.8417 242.067 14.0914C241.588 14.3412 241.033 14.4756 240.41 14.4756C240.181 14.4756 239.922 14.4372 239.635 14.3508C239.347 14.2739 239.127 14.1682 238.964 14.053C238.754 13.9185 238.505 13.7936 238.208 13.688C237.911 13.5823 237.595 13.4862 237.26 13.3902C236.925 13.2941 236.59 13.2269 236.245 13.1789C235.9 13.1308 235.594 13.1116 235.316 13.1116C234.76 13.1116 234.33 13.2173 234.004 13.4382C233.678 13.6591 233.506 13.9185 233.487 14.2163H233.506Z" fill="#DEFCFF"/>
<path d="M258.395 29.2204V16.7042C258.395 16.1279 258.299 15.638 258.117 15.2346C257.935 14.8311 257.705 14.5045 257.427 14.2452C257.15 13.9955 256.843 13.8129 256.518 13.7073C256.183 13.6016 255.866 13.5536 255.57 13.5536C255.273 13.5536 254.957 13.6016 254.622 13.7073C254.286 13.8129 253.98 13.9762 253.712 14.2068C253.434 14.4373 253.204 14.7447 253.022 15.1193C252.84 15.5035 252.735 15.9646 252.716 16.5217V29.2108H245.716V3.45804C245.716 2.8817 245.812 2.3822 246.013 1.94995C246.204 1.5273 246.463 1.16229 246.788 0.874115C247.114 0.585945 247.487 0.365015 247.909 0.22093C248.33 0.0672396 248.78 0 249.24 0C249.699 0 250.14 0.0768453 250.552 0.22093C250.964 0.374621 251.337 0.585945 251.653 0.874115C251.979 1.16229 252.237 1.51769 252.429 1.94995C252.62 2.3726 252.726 2.8817 252.726 3.45804V9.26946C253.319 8.74115 254.009 8.32811 254.775 8.03994C255.541 7.75177 256.393 7.60768 257.312 7.60768C258.442 7.60768 259.505 7.76137 260.501 8.07836C261.497 8.38574 262.369 8.91405 263.106 9.65369C263.843 10.3933 264.428 11.3731 264.868 12.593C265.309 13.8129 265.519 15.3402 265.519 17.1557V29.2204H258.414H258.395Z" fill="#DEFCFF"/>
<path d="M12.1252 53.1961C12.7764 51.6112 13.6765 50.3913 14.8352 49.5364C15.994 48.6815 17.3059 48.2492 18.7902 48.2492C20.2745 48.2492 21.5864 48.6815 22.7451 49.5364C23.9038 50.3913 24.804 51.6208 25.4552 53.1961C26.1063 54.7715 26.4319 56.6157 26.4319 58.7098C26.4319 60.8038 26.1063 62.6385 25.4552 64.2234C24.804 65.8084 23.9038 67.0187 22.7451 67.8736C21.5864 68.7285 20.2745 69.1511 18.7902 69.1511C17.3059 69.1511 15.994 68.7285 14.8352 67.8736C13.6765 67.0187 12.7764 65.8084 12.1252 64.2234C11.474 62.6385 11.1484 60.8038 11.1484 58.7098C11.1484 56.6157 11.474 54.7811 12.1252 53.1961ZM14.3469 62.9555C14.7778 64.1754 15.3715 65.1168 16.1472 65.7796C16.9228 66.4423 17.8038 66.7785 18.7902 66.7785C19.7765 66.7785 20.6767 66.4423 21.4428 65.7796C22.2089 65.1168 22.8122 64.1754 23.2335 62.9555C23.6549 61.7356 23.8751 60.3139 23.8751 58.7098C23.8751 57.1056 23.6644 55.684 23.2335 54.4641C22.8026 53.2442 22.2089 52.2932 21.4428 51.6208C20.6767 50.9484 19.7861 50.6122 18.7902 50.6122C17.7943 50.6122 16.9228 50.9484 16.1472 51.6208C15.3715 52.2932 14.7682 53.2442 14.3469 54.4737C13.9255 55.7032 13.7053 57.1152 13.7053 58.7098C13.7053 60.3043 13.9159 61.7356 14.3469 62.9555ZM34.7153 76H32.0531V45.915H34.7153V76Z" fill="white"/>
<path d="M40.145 47.3269H53.5133V54.7521H42.8742V58.335C45.6704 58.335 48.0453 58.2774 49.9988 58.1525C51.9524 58.0276 53.9538 57.7779 56.0127 57.3936L56.2521 59.5165C54.0783 59.8911 51.9524 60.1409 49.8839 60.2657C47.8155 60.3906 45.3449 60.4578 42.4816 60.4578H40.2216V52.7925H50.8894V49.3825H40.1546V47.3269H40.145ZM43.4488 64.1464H52.6706V61.2455H55.2944V64.1464H64.4492V66.202H43.4392V64.1464H43.4488ZM47.7197 68.5458C49.1753 67.8158 51.2246 67.4604 53.8676 67.4604C56.5106 67.4604 58.6557 67.8254 60.14 68.5362C61.6243 69.247 62.3712 70.2941 62.3712 71.6388C62.3712 72.9836 61.6338 74.0595 60.1687 74.7799C58.7035 75.5003 56.6255 75.8557 53.9538 75.8557C51.282 75.8557 49.2136 75.4907 47.7389 74.7799C46.2642 74.0691 45.5364 73.0125 45.5364 71.6388C45.5364 70.2652 46.2642 69.2662 47.7293 68.5362L47.7197 68.5458ZM49.6254 73.3583C50.6309 73.7617 52.0769 73.9634 53.9538 73.973C55.8211 73.9634 57.2575 73.7521 58.2822 73.3583C59.3068 72.9644 59.8144 72.3881 59.8144 71.6484C59.8144 70.9088 59.2973 70.3805 58.263 69.9675C57.2288 69.5544 55.7924 69.3527 53.9538 69.3527C52.1152 69.3527 50.6788 69.5544 49.6541 69.9675C48.6295 70.3805 48.1219 70.9376 48.1315 71.6484C48.1219 72.3881 48.6199 72.9644 49.6254 73.3583ZM63.7789 62.427H61.1167V54.0509H55.4285V51.8512H61.1167V45.9053H63.7789V62.4174V62.427Z" fill="white"/>
<path d="M75.2706 60.727C76.9751 58.0854 77.9519 55.1653 78.2104 51.957H69.2185V49.7573H80.8343C80.8343 52.8119 80.3363 55.636 79.3404 58.2295H84.7126V46.7123H87.2407V74.4054H84.7126V60.3908H78.3636C76.4771 64.0409 73.5181 67.0571 69.4962 69.4393L67.9448 67.5182C71.1337 65.6259 73.5756 63.3589 75.2801 60.7174L75.2706 60.727ZM93.5226 75.9327H90.9945V45.915H93.5226V75.9327Z" fill="white"/>
<path d="M119.302 49.8342H108.595V57.7396H109.687C112.368 57.7396 114.638 57.6628 116.496 57.5187C118.353 57.3746 120.221 57.1056 122.088 56.7214L122.423 58.8443C120.518 59.2477 118.612 59.5263 116.726 59.6703C114.839 59.8144 112.483 59.8913 109.678 59.8913H105.991V47.6633H119.292V49.8245L119.302 49.8342ZM108.931 62.5616H128.016V69.958H111.583V73.368H129.127V75.5293H108.998V67.864H125.392V64.7229H108.931V62.5616ZM125.402 45.915H128.025V52.2932H132.536V54.4929H128.025V61.0824H125.402V45.915Z" fill="white"/>
<path d="M134.738 48.7199H148.336V59.459H137.429V66.4808H138.004C140.733 66.4808 143.117 66.4039 145.157 66.2502C147.197 66.0965 149.284 65.8276 151.401 65.4337L151.669 67.6334C149.409 68.0465 147.206 68.3347 145.032 68.4883C142.859 68.642 140.254 68.7285 137.19 68.7477H134.796V57.2689H145.703V50.9196H134.729V48.7199H134.738ZM156.715 57.8645H161.733V60.093H156.715V76H154.091V45.915H156.715V57.8741V57.8645Z" fill="white"/>
<path d="M166.608 59.2091C167.757 58.2389 168.657 57.1055 169.298 55.8183C169.94 54.5312 170.266 53.1768 170.266 51.7551V50.1702H163.495V47.9705H179.554V50.1702H172.956V51.7263C172.947 53.0327 173.244 54.2814 173.847 55.4821C174.45 56.6828 175.312 57.7491 176.423 58.6712C177.534 59.5933 178.817 60.3138 180.263 60.8037L178.884 62.8593C177.208 62.2733 175.743 61.3992 174.489 60.2369C173.234 59.0746 172.277 57.7202 171.625 56.1737C170.984 57.8835 170.007 59.382 168.686 60.6596C167.364 61.9371 165.813 62.8977 164.032 63.5413L162.614 61.4472C164.118 60.9285 165.449 60.1793 166.598 59.2091H166.608ZM167.393 71.6965C168.312 70.8896 169.021 69.9867 169.509 68.9973C169.997 68.0079 170.256 67.0185 170.266 66.0387V64.4154H172.794V66.0387C172.784 67.4316 173.148 68.7764 173.876 70.0731C174.604 71.3699 175.667 72.4169 177.045 73.2142C177.965 72.6378 178.75 71.9462 179.411 71.1201C180.072 70.2941 180.56 69.4487 180.895 68.565C181.23 67.6813 181.393 66.836 181.412 66.0387V64.4154H184.007V66.0387C183.998 67.0858 184.237 68.104 184.726 69.0933C185.214 70.0827 185.923 70.9664 186.842 71.7541C187.761 72.5418 188.862 73.1373 190.136 73.5696L188.757 75.558C187.302 75.02 186.047 74.2516 185.013 73.2622C183.979 72.2728 183.193 71.1297 182.686 69.833C182.178 71.1393 181.46 72.3208 180.522 73.3679C179.583 74.4149 178.444 75.2314 177.113 75.7885C175.734 75.2506 174.565 74.4725 173.617 73.4543C172.669 72.4361 171.961 71.2642 171.491 69.929C170.926 71.1778 170.141 72.292 169.116 73.2814C168.092 74.2708 166.885 75.02 165.497 75.5483L164.185 73.56C165.41 73.1181 166.483 72.4937 167.402 71.6869L167.393 71.6965ZM187.302 63.5028H184.639V58.7096H179.047V56.5483H184.639V53.8107H179.047V51.611H184.639V45.9053H187.302V63.5028Z" fill="white"/>
<path d="M203.102 49.3635C204.175 50.1127 205.046 51.1789 205.707 52.5526C206.368 53.9262 206.76 55.5399 206.894 57.3938H213.607V45.915H216.231V76H213.607V59.5839H206.923C206.837 61.5242 206.463 63.2148 205.803 64.6557C205.142 66.0965 204.27 67.2108 203.179 67.9792C202.087 68.7477 200.852 69.1319 199.463 69.1319C197.989 69.1319 196.686 68.7093 195.547 67.8544C194.407 66.9995 193.526 65.7892 192.894 64.2138C192.262 62.6385 191.956 60.7942 191.956 58.6906C191.956 56.5869 192.272 54.7619 192.894 53.1769C193.516 51.592 194.407 50.3721 195.547 49.5172C196.686 48.6623 197.989 48.23 199.463 48.23C200.813 48.23 202.02 48.6046 203.102 49.3539V49.3635ZM195.116 62.9555C195.537 64.1754 196.121 65.1168 196.878 65.7796C197.634 66.4423 198.496 66.7785 199.473 66.7785C200.45 66.7785 201.302 66.4423 202.058 65.7796C202.815 65.1168 203.409 64.1658 203.83 62.9459C204.251 61.726 204.462 60.3043 204.462 58.7098C204.462 57.1152 204.251 55.7032 203.83 54.4737C203.409 53.2442 202.824 52.2932 202.058 51.6208C201.292 50.9484 200.44 50.6122 199.473 50.6122C198.506 50.6122 197.634 50.9484 196.878 51.6208C196.121 52.2932 195.537 53.2442 195.116 54.4641C194.694 55.684 194.484 57.1056 194.484 58.7098C194.484 60.3139 194.694 61.7356 195.116 62.9555Z" fill="white"/>
<path d="M247.756 72.0811H220.349V69.8526H227.148V61.7646C225.845 61.0922 224.84 60.2181 224.122 59.1519C223.403 58.0857 223.049 56.8754 223.049 55.5402C223.049 54.0225 223.518 52.6777 224.447 51.5058C225.376 50.3339 226.669 49.431 228.326 48.7874C229.982 48.1438 231.869 47.8172 233.995 47.8076C236.111 47.8172 238.007 48.1438 239.664 48.7874C241.32 49.431 242.613 50.3339 243.542 51.5058C244.471 52.6777 244.94 54.0225 244.94 55.5402C244.94 56.8561 244.595 58.0376 243.896 59.0943C243.197 60.1509 242.22 61.0154 240.966 61.6878V69.8622H247.765V72.0907L247.756 72.0811ZM226.669 58.4699C227.377 59.3152 228.364 59.978 229.637 60.4487C230.911 60.9193 232.357 61.1499 233.985 61.1499C235.613 61.1499 237.04 60.9193 238.313 60.4487C239.587 59.978 240.573 59.3248 241.292 58.4699C242.01 57.615 242.364 56.6448 242.364 55.5402C242.364 54.4355 242 53.4654 241.292 52.6201C240.583 51.7748 239.577 51.1216 238.313 50.6701C237.049 50.2186 235.603 49.9881 233.985 50.0073C232.357 49.9977 230.911 50.2186 229.637 50.6701C228.364 51.1216 227.377 51.7748 226.669 52.6201C225.96 53.4654 225.606 54.4355 225.606 55.5402C225.606 56.6448 225.96 57.6246 226.669 58.4699ZM238.304 69.8526V62.706C236.973 63.0518 235.536 63.2247 233.995 63.2247C232.453 63.2247 231.036 63.0518 229.752 62.7156V69.843H238.304V69.8526Z" fill="white"/>
<path d="M250.609 70.1312C250.81 69.795 251.069 69.5357 251.404 69.334C251.739 69.1322 252.093 69.0362 252.486 69.0362C252.879 69.0362 253.223 69.1322 253.559 69.3244C253.894 69.5165 254.152 69.7758 254.353 70.1024C254.555 70.429 254.65 70.7844 254.65 71.1686C254.65 71.7738 254.44 72.2925 254.028 72.7344C253.616 73.1762 253.099 73.3876 252.496 73.3972C252.103 73.3972 251.739 73.2915 251.414 73.0898C251.088 72.888 250.82 72.6191 250.619 72.2925C250.418 71.9659 250.331 71.6009 250.341 71.2071C250.331 70.8228 250.418 70.4674 250.619 70.1312H250.609ZM253.903 66.3082H251.078L250.839 48.749H254.143L253.903 66.3082Z" fill="white"/>
</g>
<defs>
<clipPath id="clip0_1673_371">
<rect width="265" height="76" fill="white" transform="translate(0.5)"/>
</clipPath>
</defs>
</svg>
