<svg width="49" height="48" viewBox="0 0 49 48" fill="none" xmlns="http://www.w3.org/2000/svg">
<path d="M8.83498 11.8362L7.55875 21.3684C7.41193 22.4583 8.34369 23.3957 9.43922 23.2489L18.9715 21.9727C20.3437 21.792 20.914 20.1148 19.9315 19.1322L18.5987 17.7995C22.1225 14.2757 27.8938 14.3774 31.2877 18.0988C34.2976 21.4023 34.2976 26.5976 31.2877 29.9011C28.6053 32.8433 24.4378 33.5209 21.0722 31.9397C19.3498 31.1322 17.3112 31.4936 15.9672 32.8376C14.2675 34.5374 14.6232 37.4287 16.7296 38.592C23.3649 42.2682 31.971 41.0767 37.3244 35.0117C42.8303 28.7774 42.8303 19.2169 37.3244 12.9826C30.898 5.7035 19.7733 5.44374 13.0138 12.2089L11.6811 10.8762C10.7042 9.89927 9.02698 10.464 8.84063 11.8362H8.83498Z" fill="url(#paint0_linear_533_251)"/>
<defs>
<linearGradient id="paint0_linear_533_251" x1="10.6703" y1="9.50962" x2="36.771" y2="35.6103" gradientUnits="userSpaceOnUse">
<stop stop-color="#57686D"/>
<stop offset="1" stop-color="#28353A"/>
</linearGradient>
</defs>
</svg>
