<svg width="64" height="64" viewBox="0 0 64 64" fill="none" xmlns="http://www.w3.org/2000/svg">
<path d="M39.4541 32L47.1868 24.2673C49.2423 22.2117 49.2423 18.8687 47.1868 16.8132C45.1312 14.7576 41.7882 14.7576 39.7327 16.8132L32 24.5459L24.2672 16.8132C22.2117 14.7576 18.8687 14.7576 16.8131 16.8132C14.7576 18.8687 14.7576 22.2117 16.8131 24.2673L24.5458 32L16.8131 39.7327C14.7576 41.7882 14.7576 45.1313 16.8131 47.1868C17.8447 48.2183 19.1924 48.7303 20.5402 48.7303C21.888 48.7303 23.2357 48.2183 24.2672 47.1868L32 39.4541L39.7327 47.1868C40.7642 48.2183 42.112 48.7303 43.4597 48.7303C44.8075 48.7303 46.1552 48.2183 47.1868 47.1868C49.2423 45.1313 49.2423 41.7882 47.1868 39.7327L39.4541 32Z" fill="#343841"/>
</svg>
