<svg width="120" height="120" viewBox="0 0 120 120" fill="none" xmlns="http://www.w3.org/2000/svg">
<g clip-path="url(#clip0_1325_208)">
<path d="M82.2438 87.8267H89.0438V74.4543C91.1838 73.8223 92.9238 72.2542 93.7918 70.2301C94.1758 69.3301 94.3918 68.3421 94.3918 67.302C94.3918 66.862 94.3518 66.43 94.2758 66.006C93.6598 62.5099 90.6038 59.8418 86.9318 59.8418C86.7758 59.8418 86.6198 59.8498 86.4678 59.8578C84.8758 59.9578 83.4158 60.5578 82.2438 61.5018C80.8718 62.6139 79.9038 64.1979 79.5838 66.006C79.5118 66.426 79.4678 66.858 79.4678 67.302C79.4678 68.3421 79.6838 69.3301 80.0678 70.2301C80.5518 71.3542 81.3038 72.3382 82.2438 73.0982C82.9958 73.7063 83.8678 74.1703 84.8198 74.4543V83.6026H66.0078V104.107H70.2318V87.8267H82.2438ZM83.6918 67.302C83.6918 66.842 83.7918 66.406 83.9638 66.006C84.4038 65.002 85.3438 64.2619 86.4638 64.1019C86.6158 64.0819 86.7718 64.0659 86.9278 64.0659C88.2518 64.0659 89.3918 64.866 89.8918 66.01C90.0678 66.406 90.1638 66.846 90.1638 67.306C90.1638 68.2861 89.7278 69.1621 89.0398 69.7541C88.8158 69.9461 88.5678 70.1061 88.2998 70.2341C87.8838 70.4301 87.4198 70.5422 86.9318 70.5422C86.7718 70.5422 86.6198 70.5261 86.4678 70.5061C86.1478 70.4581 85.8438 70.3661 85.5598 70.2341C85.2918 70.1061 85.0438 69.9461 84.8198 69.7541C84.1318 69.1621 83.6918 68.2821 83.6918 67.306V67.302Z" fill="url(#paint0_linear_1325_208)"/>
<path d="M74.3209 31.2131C73.2609 30.6331 72.0449 30.3051 70.7569 30.3051C70.5809 30.3051 70.4049 30.3131 70.2329 30.3251C68.6369 30.4371 67.1729 31.0531 66.0089 32.0131C65.4769 32.4531 65.0049 32.9691 64.6129 33.5372C63.7849 34.7372 63.2969 36.1933 63.2969 37.7613C63.2969 37.7613 63.2969 37.7613 63.2969 37.7653C63.2969 40.0774 64.3529 42.1455 66.0089 43.5135C67.1729 44.4775 68.6329 45.0896 70.2329 45.2016C70.4049 45.2136 70.5809 45.2216 70.7569 45.2216C74.8689 45.2216 78.2169 41.8734 78.2169 37.7613C78.2169 37.7613 78.2169 37.7613 78.2169 37.7573C78.2169 36.4693 77.8849 35.2572 77.3089 34.1972L77.9689 33.5372L82.2449 29.261L86.4689 25.0369V15.8926H82.2449V23.2888L74.3209 31.2131ZM70.7529 41.0014C70.5729 41.0014 70.4009 40.9814 70.2289 40.9534C68.6929 40.7014 67.5169 39.3694 67.5169 37.7613C67.5169 37.7613 67.5169 37.7613 67.5169 37.7573C67.5169 36.1533 68.6969 34.8212 70.2289 34.5692C70.4009 34.5412 70.5729 34.5212 70.7529 34.5212C70.8329 34.5212 70.9129 34.5292 70.9929 34.5332C72.5889 34.6532 73.8609 35.9252 73.9769 37.5213C73.9809 37.5973 73.9889 37.6773 73.9889 37.7573C73.9889 37.7573 73.9889 37.7573 73.9889 37.7613C73.9889 39.5454 72.5369 40.9974 70.7529 40.9974V41.0014Z" fill="url(#paint1_linear_1325_208)"/>
<path d="M48.9032 87.0189V77.1105C49.1992 77.0225 49.4912 76.9185 49.7712 76.7945C51.8272 75.8945 53.3992 74.0984 53.9952 71.8984C54.1392 71.3623 54.2232 70.8063 54.2472 70.2303C54.2472 70.1383 54.2552 70.0503 54.2552 69.9583C54.2552 69.2863 54.1632 68.6382 53.9992 68.0182C53.8072 67.2982 53.5072 66.6222 53.1192 66.0062C52.3232 64.7381 51.1592 63.7261 49.7752 63.1221C48.8632 62.7221 47.8552 62.498 46.7952 62.498C44.1312 62.498 41.7912 63.9021 40.4712 66.0062C39.7512 67.1542 39.3352 68.5062 39.3352 69.9583C39.3352 70.0503 39.3352 70.1383 39.3432 70.2303C39.4592 73.4904 41.6792 76.2225 44.6832 77.1105V84.6708L41.7952 86.4628L37.7592 88.9709L33.5352 91.595V104.111H37.7592V93.9431L48.9032 87.0189ZM43.5712 70.2303C43.5632 70.1423 43.5592 70.0503 43.5592 69.9583C43.5592 68.1702 45.0112 66.7222 46.7952 66.7222C48.1312 66.7222 49.2792 67.5342 49.7752 68.6942C49.9392 69.0823 50.0312 69.5103 50.0312 69.9583C50.0312 70.0503 50.0232 70.1423 50.0192 70.2303C49.9912 70.5783 49.9072 70.9143 49.7752 71.2223C49.5792 71.6824 49.2792 72.0864 48.9072 72.4064C48.3392 72.8944 47.6032 73.1944 46.7952 73.1944C45.9872 73.1944 45.2512 72.8944 44.6832 72.4064C44.0592 71.8664 43.6432 71.0983 43.5712 70.2303Z" fill="url(#paint2_linear_1325_208)"/>
<path d="M22.3053 95.5078C21.0973 95.5078 20.1133 96.4878 20.1133 97.6999C20.1133 98.9119 21.0933 99.892 22.3053 99.892C23.5173 99.892 24.4973 98.9119 24.4973 97.6999C24.4973 96.4878 23.5173 95.5078 22.3053 95.5078Z" fill="#444444"/>
<path d="M73.9756 37.5255C73.8596 35.9294 72.5876 34.6574 70.9916 34.5374C70.9116 34.5334 70.8316 34.5254 70.7516 34.5254C70.5716 34.5254 70.3996 34.5454 70.2276 34.5734C68.6916 34.8254 67.5156 36.1574 67.5156 37.7615C67.5156 37.7615 67.5156 37.7615 67.5156 37.7655C67.5156 39.3696 68.6916 40.7056 70.2276 40.9576C70.3996 40.9856 70.5716 41.0056 70.7516 41.0056C72.5396 41.0056 73.9876 39.5536 73.9876 37.7695C73.9876 37.7695 73.9876 37.7695 73.9876 37.7655C73.9876 37.6855 73.9796 37.6095 73.9756 37.5295V37.5255Z" fill="white"/>
<path d="M97.9986 15.8926H86.4626V25.0369L82.2386 29.261L77.9626 33.5372L77.3026 34.1972C77.8826 35.2572 78.2106 36.4693 78.2106 37.7573C78.2106 37.7573 78.2106 37.7573 78.2106 37.7613C78.2106 41.8734 74.8626 45.2216 70.7506 45.2216C70.5746 45.2216 70.3986 45.2136 70.2266 45.2016C68.6306 45.0896 67.1666 44.4735 66.0026 43.5135C64.3466 42.1455 63.2906 40.0734 63.2906 37.7653C63.2906 37.7653 63.2906 37.7653 63.2906 37.7613C63.2906 36.1933 63.7786 34.7412 64.6066 33.5372C64.9986 32.9651 65.4706 32.4531 66.0026 32.0131C67.1666 31.0491 68.6266 30.4331 70.2266 30.3251C70.3986 30.3131 70.5746 30.3051 70.7506 30.3051C72.0426 30.3051 73.2546 30.6371 74.3146 31.2131L82.2386 23.2888V15.8926H21.9986C18.6306 15.8926 15.8906 18.6327 15.8906 21.9968V98.0033C15.8906 101.371 18.6306 104.108 21.9986 104.108H33.5346V91.5911L37.7586 88.967L41.7946 86.4629L44.6826 84.6669V77.1066C41.6786 76.2186 39.4586 73.4865 39.3426 70.2264C39.3426 70.1344 39.3346 70.0464 39.3346 69.9544C39.3346 68.5023 39.7506 67.1503 40.4706 66.0023C41.7906 63.8982 44.1306 62.4941 46.7946 62.4941C47.8546 62.4941 48.8586 62.7181 49.7746 63.1182C51.1586 63.7222 52.3226 64.7342 53.1186 66.0023C53.5066 66.6183 53.8026 67.2943 53.9986 68.0143C54.1666 68.6343 54.2546 69.2824 54.2546 69.9544C54.2546 70.0464 54.2546 70.1344 54.2466 70.2264C54.2266 70.8024 54.1386 71.3584 53.9946 71.8944C53.4026 74.0945 51.8266 75.8906 49.7706 76.7906C49.4906 76.9146 49.1986 77.0186 48.9026 77.1066V87.015L37.7586 93.9392V104.108H66.0066V83.6028H84.8186V74.4545C83.8666 74.1745 82.9946 73.7065 82.2426 73.0985C81.3026 72.3385 80.5506 71.3544 80.0666 70.2304C79.6826 69.3304 79.4666 68.3423 79.4666 67.3023C79.4666 66.8623 79.5066 66.4303 79.5826 66.0063C79.8986 64.1982 80.8706 62.6141 82.2426 61.5021C83.4106 60.5541 84.8706 59.9541 86.4666 59.858C86.6186 59.85 86.7746 59.842 86.9306 59.842C90.6026 59.842 93.6586 62.5101 94.2746 66.0063C94.3506 66.4263 94.3906 66.8583 94.3906 67.3023C94.3906 68.3423 94.1746 69.3304 93.7906 70.2304C92.9226 72.2585 91.1826 73.8225 89.0426 74.4545V87.827H70.2306V104.108H98.0026C101.371 104.108 104.111 101.367 104.111 98.0033V21.9968C104.111 18.6287 101.371 15.8926 98.0026 15.8926H97.9986ZM22.3026 99.8874C21.0946 99.8874 20.1106 98.9074 20.1106 97.6953C20.1106 96.4833 21.0906 95.5032 22.3026 95.5032C23.5146 95.5032 24.4946 96.4833 24.4946 97.6953C24.4946 98.9074 23.5146 99.8874 22.3026 99.8874Z" fill="url(#paint3_linear_1325_208)"/>
<path d="M46.7907 73.1949C47.5987 73.1949 48.3347 72.8949 48.9027 72.4068C49.2747 72.0868 49.5747 71.6828 49.7707 71.2228C49.9027 70.9148 49.9867 70.5788 50.0147 70.2308C50.0227 70.1428 50.0267 70.0508 50.0267 69.9588C50.0267 69.5107 49.9347 69.0827 49.7707 68.6947C49.2787 67.5347 48.1307 66.7227 46.7907 66.7227C45.0067 66.7227 43.5547 68.1747 43.5547 69.9588C43.5547 70.0508 43.5627 70.1428 43.5667 70.2308C43.6387 71.0988 44.0547 71.8668 44.6787 72.4068C45.2467 72.8989 45.9827 73.1949 46.7907 73.1949Z" fill="white"/>
<path d="M85.5555 70.2307C85.8395 70.3627 86.1435 70.4547 86.4635 70.5027C86.6155 70.5227 86.7715 70.5387 86.9275 70.5387C87.4195 70.5387 87.8795 70.4267 88.2955 70.2307C88.5635 70.1027 88.8155 69.9427 89.0355 69.7507C89.7235 69.1587 90.1595 68.2826 90.1595 67.3026C90.1595 66.8426 90.0595 66.4066 89.8875 66.0066C89.3875 64.8665 88.2475 64.0625 86.9235 64.0625C86.7635 64.0625 86.6115 64.0785 86.4595 64.0985C85.3355 64.2625 84.3995 64.9985 83.9595 66.0026C83.7835 66.3986 83.6875 66.8386 83.6875 67.2986C83.6875 68.2786 84.1275 69.1547 84.8155 69.7467C85.0395 69.9387 85.2875 70.0987 85.5555 70.2267V70.2307Z" fill="white"/>
<path d="M55.9766 15.8965V2.20803C55.9766 0.991987 56.9646 0.00395658 58.1806 0.00395658H61.8126C63.0286 0.00395658 64.0166 0.991987 64.0166 2.20803V15.8965H55.9766Z" fill="white"/>
<path d="M33.5859 15.8926V2.20412C33.5859 0.988081 34.5739 5.03286e-05 35.7899 5.03286e-05H39.4219C40.6379 5.03286e-05 41.6259 0.988081 41.6259 2.20412V15.8926H33.5859Z" fill="white"/>
<path d="M78.3711 15.8926V2.20412C78.3711 0.988081 79.3591 4.42248e-05 80.5751 4.42248e-05H84.2071C85.4231 4.42248e-05 86.4111 0.988081 86.4111 2.20412V15.8926H78.3711Z" fill="white"/>
<path d="M64.0194 104.107V117.796C64.0194 119.012 63.0314 120 61.8154 120H58.1834C56.9674 120 55.9794 119.012 55.9794 117.796V104.107H64.0234H64.0194Z" fill="white"/>
<path d="M86.4101 104.111V117.8C86.4101 119.016 85.4221 120.004 84.2061 120.004H80.5741C79.3581 120.004 78.3701 119.016 78.3701 117.8V104.111H86.4141H86.4101Z" fill="white"/>
<path d="M41.6288 104.107V117.796C41.6288 119.012 40.6408 120 39.4248 120H35.7928C34.5768 120 33.5888 119.012 33.5888 117.796V104.107H41.6328H41.6288Z" fill="white"/>
<path d="M15.8906 63.8612H2.20262C0.986624 63.8612 -0.00137505 62.8732 -0.00137505 61.6572V58.025C-0.00137505 56.809 0.986624 55.821 2.20262 55.821H15.8906L15.8906 63.8652V63.8612Z" fill="white"/>
<path d="M15.8906 86.2597H2.20262C0.986624 86.2597 -0.00137505 85.2716 -0.00137505 84.0556V80.4235C-0.00137505 79.2074 0.986624 78.2194 2.20262 78.2194H15.8906L15.8906 86.2637V86.2597Z" fill="white"/>
<path d="M15.8906 41.4726H2.20262C0.986624 41.4726 -0.00137505 40.4845 -0.00137505 39.2685V35.6364C-0.00137505 34.4203 0.986624 33.4323 2.20262 33.4323H15.8906L15.8906 41.4766V41.4726Z" fill="white"/>
<path d="M104.109 55.8224H117.797C119.013 55.8224 120.001 56.8104 120.001 58.0264V61.6586C120.001 62.8746 119.013 63.8626 117.797 63.8626H104.109V55.8184V55.8224Z" fill="white"/>
<path d="M104.109 33.4259H117.797C119.013 33.4259 120.001 34.4139 120.001 35.6299V39.2621C120.001 40.4781 119.013 41.4661 117.797 41.4661H104.109V33.4219V33.4259Z" fill="white"/>
<path d="M104.109 78.2149H117.797C119.013 78.2149 120.001 79.203 120.001 80.419V84.0511C120.001 85.2672 119.013 86.2552 117.797 86.2552H104.109V78.2109V78.2149Z" fill="white"/>
</g>
<defs>
<linearGradient id="paint0_linear_1325_208" x1="80.1958" y1="59.8418" x2="80.1958" y2="104.107" gradientUnits="userSpaceOnUse">
<stop stop-color="#8E59BD"/>
<stop offset="1" stop-color="#3390FF"/>
</linearGradient>
<linearGradient id="paint1_linear_1325_208" x1="74.8809" y1="45.2216" x2="74.8809" y2="15.8926" gradientUnits="userSpaceOnUse">
<stop stop-color="#59BD65"/>
<stop offset="1" stop-color="#3390FF"/>
</linearGradient>
<linearGradient id="paint2_linear_1325_208" x1="43.8952" y1="104.107" x2="43.8952" y2="62.498" gradientUnits="userSpaceOnUse">
<stop stop-color="#FF7E50"/>
<stop offset="1" stop-color="#FF33AD"/>
</linearGradient>
<linearGradient id="paint3_linear_1325_208" x1="17.6826" y1="17.6806" x2="102.317" y2="102.317" gradientUnits="userSpaceOnUse">
<stop stop-color="#EEF6FB"/>
<stop offset="1" stop-color="#9CBCEB"/>
</linearGradient>
<clipPath id="clip0_1325_208">
<rect width="120" height="120" fill="white"/>
</clipPath>
</defs>
</svg>
