<svg width="38" height="38" viewBox="0 0 38 38" fill="none" xmlns="http://www.w3.org/2000/svg">
<path d="M12.7948 30.1767H10.7786C9.36142 30.1767 8.20801 29.0277 8.20801 27.6061V10.3943C8.20801 8.97714 9.35695 7.82373 10.7786 7.82373H12.7948C14.212 7.82373 15.3654 8.97267 15.3654 10.3943V27.6106C15.3654 29.0277 14.2165 30.1811 12.7948 30.1811V30.1767ZM29.7875 27.6061V10.3943C29.7875 8.97714 28.6386 7.82373 27.2169 7.82373H25.2007C23.7835 7.82373 22.6301 8.97267 22.6301 10.3943V27.6106C22.6301 29.0277 23.7791 30.1811 25.2007 30.1811H27.2169C28.6341 30.1811 29.7875 29.0322 29.7875 27.6106V27.6061Z" fill="url(#paint0_linear_630_3109)"/>
<defs>
<linearGradient id="paint0_linear_630_3109" x1="19" y1="30.1767" x2="19" y2="7.82373" gradientUnits="userSpaceOnUse">
<stop stop-color="#0F9CFE"/>
<stop offset="1" stop-color="#83D3FF"/>
</linearGradient>
</defs>
</svg>
