<svg width="585" height="140" viewBox="0 0 585 140" fill="none" xmlns="http://www.w3.org/2000/svg">
<g clip-path="url(#clip0_296_496)">
<path d="M21.6869 66.7785H61.1926V84.5993H0V0.525546H21.6869V66.7785ZM88.7532 0.525546V84.5993H67.0663V0.525546H88.7532ZM146.801 32.9183C160.629 32.9183 167.546 39.1429 167.546 51.5786V66.4645C167.546 78.907 160.629 85.1248 146.801 85.1248H118.722C104.894 85.1248 97.9764 78.907 97.9764 66.4645V56.8204H119.145V63.632C119.145 66.4304 120.543 67.8227 123.333 67.8227H142.196C144.986 67.8227 146.385 66.4236 146.385 63.632V53.8855C146.385 51.094 144.986 49.6948 142.196 49.6948H118.722C104.894 49.6948 97.9764 43.477 97.9764 31.0345V18.6671C97.9764 6.22465 104.894 0.00682527 118.722 0.00682527H146.801C160.629 0.00682527 167.546 6.22465 167.546 18.6671V25.6903H146.378V21.4996C146.378 18.7081 144.979 17.3089 142.189 17.3089H123.327C120.53 17.3089 119.138 18.7081 119.138 21.4996V28.7344C119.138 31.5328 120.536 32.9251 123.327 32.9251H146.801V32.9183ZM248.543 0.525546V18.3463H221.822V84.5993H200.135V18.3463H174.675V0.525546H248.55H248.543ZM277.359 67.304H318.959V84.5993H255.672V0.525546H318.959V17.8208H277.359V32.8091H317.908V49.5856H277.359V67.304ZM350.394 0.525546L375.335 52.3157V0.525546H396.504V84.5993H372.825L348.095 33.2323V84.5993H326.927V0.525546H350.401H350.394ZM427.407 0.525546V84.5993H405.72V0.525546H427.407ZM460.097 0.525546L485.038 52.3157V0.525546H506.207V84.5993H482.528L457.798 33.2323V84.5993H436.63V0.525546H460.104H460.097ZM585 85.1248H564.357V82.2923C561.423 84.1078 557.719 85.0497 553.251 85.1248H536.169C522.334 85.1248 515.423 78.907 515.423 66.4645V18.6603C515.423 6.21782 522.341 0 536.169 0H564.248C578.083 0 584.993 6.21782 584.993 18.6603V27.1509H563.825V20.9672C563.825 18.1757 562.426 16.7765 559.636 16.7765H540.773C537.977 16.7765 536.585 18.1757 536.585 20.9672V64.1576C536.585 66.9559 537.983 68.3483 540.773 68.3483H560.161C562.467 68.3483 563.866 67.7204 564.35 66.4645V53.4624H550.624V36.6858H584.993V85.118L585 85.1248Z" fill="url(#paint0_linear_296_496)"/>
<path d="M0 108.44H25.4867V113.77H15.9428V139.57H9.53704V113.77H0V108.44ZM28.3792 108.44H40.5836C42.903 108.44 44.9019 108.856 46.5801 109.689C48.2583 110.522 49.534 111.702 50.4072 113.224C51.2804 114.753 51.717 116.542 51.717 118.589C51.717 120.637 51.2463 122.527 50.298 124.049C49.3498 125.571 47.9922 126.711 46.2185 127.469L52.8358 139.57H45.7L39.7445 128.52H34.8259V139.57H28.3792V108.44ZM39.3829 123.278C43.1964 123.278 45.0861 121.715 45.0588 118.589C45.0724 117.012 44.6085 115.811 43.6603 114.985C42.712 114.16 41.2863 113.743 39.3829 113.73H34.8259V123.278H39.3829ZM53.3269 139.57L64.1124 108.44H72.4079L83.1524 139.57H76.2349L73.895 132.39H62.632L60.2921 139.57H53.3269ZM72.2578 127.36L68.3693 115.449H68.1578L64.2693 127.36H72.2646H72.2578ZM92.0209 139.57H85.5742V108.44H92.0209V139.57ZM122.126 139.57H116.539L102.875 119.79H102.615V139.57H96.1686V108.44H101.844L115.427 128.22H115.727V108.44H122.133V139.57H122.126ZM132.714 139.57H126.267V108.44H132.714V139.57ZM162.812 139.57H157.225L143.56 119.79H143.301V139.57H136.855V108.44H142.53L156.113 128.22H156.413V108.44H162.819V139.57H162.812ZM185.242 114.999C184.096 114.166 182.684 113.743 181.006 113.73C179.403 113.743 177.991 114.153 176.77 114.958C175.548 115.763 174.607 116.931 173.932 118.459C173.256 119.995 172.922 121.831 172.922 123.961C172.922 126.09 173.249 127.981 173.911 129.53C174.566 131.079 175.508 132.253 176.729 133.059C177.95 133.864 179.389 134.267 181.047 134.287C182.507 134.287 183.776 134.021 184.84 133.489C185.904 132.956 186.73 132.212 187.309 131.243C187.889 130.274 188.196 129.141 188.224 127.837H181.477V122.978H194.459V126.848C194.459 129.53 193.893 131.857 192.753 133.844C191.614 135.83 190.025 137.352 187.985 138.41C185.945 139.468 183.619 140 181.013 140C178.12 140 175.562 139.352 173.352 138.055C171.141 136.758 169.422 134.908 168.194 132.506C166.966 130.103 166.359 127.285 166.359 124.043C166.359 120.8 166.987 117.907 168.249 115.484C169.511 113.061 171.244 111.211 173.447 109.928C175.651 108.645 178.134 108.003 180.883 108.003C183.189 108.003 185.304 108.447 187.221 109.334C189.138 110.221 190.707 111.457 191.914 113.04C193.122 114.624 193.872 116.425 194.159 118.446H187.623C187.18 116.972 186.382 115.818 185.236 114.985L185.242 114.999ZM207.134 108.44H219.338C221.644 108.44 223.636 108.884 225.314 109.771C226.993 110.658 228.268 111.894 229.148 113.477C230.028 115.06 230.472 116.876 230.472 118.93C230.472 120.985 230.021 122.841 229.128 124.425C228.234 126.008 226.938 127.237 225.239 128.11C223.541 128.984 221.515 129.421 219.168 129.421H213.581V139.57H207.134V108.44ZM218.138 124.22C220 124.22 221.412 123.742 222.381 122.793C223.35 121.838 223.827 120.555 223.807 118.937C223.82 117.347 223.343 116.084 222.381 115.156C221.412 114.228 220 113.75 218.138 113.736H213.581V124.227H218.138V124.22ZM233.453 108.44H245.657C247.977 108.44 249.976 108.856 251.654 109.689C253.332 110.522 254.608 111.702 255.481 113.224C256.354 114.753 256.791 116.542 256.791 118.589C256.791 120.637 256.32 122.527 255.372 124.049C254.423 125.571 253.066 126.711 251.292 127.469L257.909 139.57H250.774L244.818 128.52H239.9V139.57H233.453V108.44ZM244.457 123.278C248.263 123.278 250.16 121.715 250.132 118.589C250.146 117.012 249.682 115.811 248.734 114.985C247.786 114.16 246.36 113.743 244.457 113.73H239.9V123.278H244.457ZM286.759 132.588C285.497 134.997 283.771 136.833 281.568 138.103C279.364 139.372 276.888 140.007 274.125 140.007C271.362 140.007 268.852 139.372 266.648 138.103C264.445 136.833 262.705 134.99 261.45 132.574C260.195 130.158 259.56 127.305 259.56 124.008C259.56 120.712 260.188 117.838 261.45 115.429C262.712 113.02 264.445 111.184 266.648 109.914C268.852 108.645 271.349 108.01 274.125 108.01C276.902 108.01 279.371 108.645 281.568 109.914C283.765 111.184 285.497 113.02 286.759 115.429C288.021 117.838 288.649 120.698 288.649 124.008C288.649 127.319 288.021 130.178 286.759 132.588ZM267.112 129.585C267.767 131.127 268.688 132.287 269.896 133.079C271.096 133.864 272.508 134.267 274.132 134.28C275.735 134.267 277.134 133.864 278.334 133.066C279.528 132.267 280.456 131.107 281.104 129.571C281.759 128.035 282.08 126.179 282.08 124.002C282.08 121.824 281.752 119.961 281.104 118.425C280.449 116.883 279.528 115.722 278.334 114.931C277.14 114.146 275.735 113.743 274.132 113.73C272.515 113.743 271.103 114.146 269.896 114.931C268.695 115.716 267.767 116.883 267.112 118.425C266.457 119.968 266.137 121.824 266.137 124.002C266.137 126.179 266.464 128.042 267.112 129.578V129.585ZM310.479 114.999C309.333 114.166 307.921 113.743 306.243 113.73C304.64 113.743 303.227 114.153 302.006 114.958C300.785 115.763 299.844 116.931 299.168 118.459C298.493 119.995 298.159 121.831 298.159 123.961C298.159 126.09 298.486 127.981 299.148 129.53C299.81 131.079 300.744 132.253 301.965 133.059C303.18 133.864 304.619 134.267 306.284 134.287C307.744 134.287 309.012 134.021 310.077 133.489C311.141 132.956 311.966 132.212 312.546 131.243C313.126 130.274 313.433 129.141 313.46 127.837H306.714V122.978H319.696V126.848C319.696 129.53 319.129 131.857 317.99 133.844C316.851 135.83 315.261 137.352 313.222 138.41C311.182 139.468 308.856 140 306.25 140C303.357 140 300.806 139.352 298.589 138.055C296.378 136.758 294.659 134.908 293.431 132.506C292.21 130.103 291.596 127.285 291.596 124.043C291.596 120.8 292.224 117.907 293.486 115.484C294.748 113.061 296.481 111.211 298.684 109.928C300.888 108.645 303.371 108.003 306.12 108.003C308.426 108.003 310.541 108.447 312.458 109.334C314.374 110.221 315.944 111.457 317.151 113.04C318.358 114.624 319.109 116.425 319.395 118.446H312.86C312.417 116.972 311.618 115.818 310.472 114.985L310.479 114.999ZM323.325 108.44H335.529C337.849 108.44 339.848 108.856 341.526 109.689C343.204 110.522 344.48 111.702 345.353 113.224C346.226 114.746 346.663 116.542 346.663 118.589C346.663 120.637 346.192 122.527 345.244 124.049C344.295 125.571 342.938 126.711 341.157 127.469L347.775 139.57H340.639L334.69 128.52H329.772V139.57H323.325V108.44ZM334.329 123.278C338.142 123.278 340.032 121.715 339.998 118.589C340.011 117.012 339.547 115.811 338.599 114.985C337.651 114.16 336.232 113.743 334.322 113.73H329.765V123.278H334.322H334.329ZM348.273 139.57L359.058 108.44H367.354L378.098 139.57H371.181L368.841 132.39H357.578L355.238 139.57H348.273ZM367.203 127.36L363.315 115.449H363.097L359.208 127.36H367.203ZM388.515 108.44L397.152 129.55H397.493L406.129 108.44H414.125V139.57H407.848V119.19H407.589L399.464 139.44H395.167L387.042 119.101H386.782V139.57H380.506V108.44H388.501H388.515Z" fill="url(#paint1_linear_296_496)"/>
</g>
<defs>
<linearGradient id="paint0_linear_296_496" x1="292.497" y1="85.1248" x2="292.497" y2="0" gradientUnits="userSpaceOnUse">
<stop stop-color="#006EDB"/>
<stop offset="1" stop-color="#0F9CFE"/>
</linearGradient>
<linearGradient id="paint1_linear_296_496" x1="207.066" y1="140" x2="207.066" y2="108.01" gradientUnits="userSpaceOnUse">
<stop stop-color="#333333"/>
<stop offset="1" stop-color="#595959"/>
</linearGradient>
<clipPath id="clip0_296_496">
<rect width="585" height="140" fill="white"/>
</clipPath>
</defs>
</svg>
