<?xml version="1.0" encoding="UTF-8"?><svg id="_레이어_2" xmlns="http://www.w3.org/2000/svg" xmlns:xlink="http://www.w3.org/1999/xlink" viewBox="0 0 500 500"><defs><style>.cls-1{fill:#fff;}.cls-2{fill:none;}.cls-3{fill:url(#_무제_그라디언트_106);}</style><linearGradient id="_무제_그라디언트_106" x1="250" y1="305.42" x2="250" y2="194.58" gradientUnits="userSpaceOnUse"><stop offset="0" stop-color="#2b377f"/><stop offset="1" stop-color="#056bd3"/></linearGradient></defs><g id="_레이어_1-2"><rect class="cls-2" width="500" height="500"/><path class="cls-1" d="M426.72,318.76c-2.51,0-5.05-.38-7.56-1.13-6.49-1.94-11.69-6.03-15.03-11.83-.94-1.63-1.69-3.31-2.24-5.03-3.05,3.33-7.33,5.26-12.2,5.26-1.46,0-2.97-.18-4.47-.54-4.14-.97-8.33-1.92-12.44-2.79-6.39-1.36-11.01-5.51-12.87-10.94-3.06,3.62-7.57,5.76-12.74,5.76-1.06,0-2.15-.09-3.24-.27-4.11-.68-8.34-1.33-12.57-1.93-2.89-.41-5.45-1.4-7.6-2.84-3.84,1.19-7.88,1.79-12.04,1.79-1.54,0-3.13-.08-4.72-.25-6.47-.67-12.58-2.41-18.15-5.18-5.45-2.72-10.24-6.32-14.24-10.73-.3.28-.62.57-.96.85-.19.16-.39.31-.58.46-5.23,3.87-10.96,6.78-17.05,8.63-5.86,1.78-12.32,2.69-19.76,2.78h-.94c-6.77,0-13.2-.94-19.11-2.82-6.47-2.06-12.28-5.16-17.28-9.2-5.19-4.19-9.42-9.4-12.58-15.49-3.17-6.09-5.06-13-5.63-20.52-.09-1.17-.14-2.34-.16-3.48-.44.18-.86.37-1.26.58-.28.15-.61.34-.92.56,1.09,11.42,2.21,22.98,3.35,34.53,1.08,9.77-5.23,17.74-15.06,18.99-4.24.54-8.47,1.12-12.59,1.73-.99.15-1.97.22-2.93.22-6.59,0-12.07-3.42-14.89-8.92-3.21,3.65-6.95,6.96-11.17,9.91-6.75,4.72-14.52,8.09-23.77,10.3-5.86,1.4-11.68,2.11-17.32,2.11-2.5,0-5.01-.14-7.47-.42-8.14-.91-15.82-3.2-22.81-6.8-7.1-3.65-13.46-8.64-18.89-14.81-5.62-6.39-9.89-14-12.68-22.62-2.89-8.88-3.86-17.7-2.9-26.23.97-8.66,3.72-16.8,8.17-24.2,4.41-7.35,10.37-13.76,17.69-19.06,7.33-5.3,15.78-9.12,25.11-11.37,7.1-1.71,14.01-2.58,20.53-2.58,4.85,0,9.57.48,14.02,1.42,10.68,2.27,19.57,6.57,26.44,12.77,1.14,1.01,2.14,2.14,2.97,3.38,1.06-.35,2.21-.62,3.47-.81,5.99-.9,12.11-1.74,18.2-2.5.96-.12,1.91-.18,2.81-.18,2.07,0,4.01.31,5.79.93,1.26-.65,2.59-1.25,3.97-1.78,6.46-2.51,13.52-3.86,20.99-4.01h.45c5.75,0,10.65,2.25,13.85,6,2.44-1.48,5.05-2.78,7.8-3.88,6.56-2.63,13.69-4.03,21.19-4.14.4,0,.81,0,1.21,0,7.34,0,14.19,1.08,20.38,3.2,6.77,2.33,12.63,5.76,17.43,10.21,1.48,1.38,2.86,2.84,4.12,4.37,1.02-1.01,2.09-1.98,3.2-2.89,5.11-4.19,11.11-7.27,17.8-9.15,4.53-1.27,9.27-1.91,14.1-1.91,2.18,0,4.41.13,6.63.39,3.49.37,6.9,1.15,10.14,2.34,2.38.88,4.63,1.9,6.71,3.07,1.93-.73,4.05-1.13,6.3-1.13.98,0,2.01.07,3.04.22,6.03.85,12.14,1.79,18.16,2.8,1.54.26,2.91.65,4.14,1.13.86-.12,1.73-.19,2.6-.19,1.18,0,2.39.11,3.61.33.78.15,1.55.3,2.33.45l.15-.76c1.31-8.4,8.05-14.22,16.57-14.22,1.43,0,2.92.16,4.43.48,5.99,1.27,12.1,2.64,18.16,4.08,5.8,1.38,9.05,4.49,10.81,7.07,3.06-4.55,8.08-7.28,13.86-7.28,1.78,0,3.63.27,5.5.79,8.14,2.28,16.35,4.74,24.41,7.3,6.46,2.06,9.57,6.05,11.03,9.04,2,4.08,2.18,8.82.51,13.35-.06.15-.11.3-.17.44-7.7,18.79-15.4,37.95-22.91,56.94-1.18,3.35-3.2,6.12-5.78,8.11,1.31,4.59,1.22,9.4-.3,14.17-2.09,6.55-6.46,11.65-12.63,14.77-3.67,1.85-7.53,2.78-11.5,2.78Z"/><path class="cls-3" d="M92.23,258.4c-2.28.54-3.67-.24-4.17-2.35-1.03-4.29-2.07-8.59-3.1-12.88-.51-2.1.41-3.44,2.76-3.99,13.11-2.99,26.29-5.59,39.51-7.8,2.46-.43,4.42-.23,5.87.59,1.45.81,2.47,2.54,3.09,5.16,1.42,6.44,1.56,12.73.52,18.87-1.04,6.15-3.2,11.73-6.42,16.8-3.22,5.07-7.5,9.44-12.86,13.19-5.36,3.75-11.74,6.47-19.23,8.26-6.97,1.67-13.68,2.14-20.21,1.41-6.53-.73-12.58-2.51-18.19-5.4-5.61-2.88-10.6-6.79-14.97-11.76-4.37-4.97-7.74-10.93-10.02-17.93-2.28-7-3.09-13.87-2.33-20.61.76-6.74,2.86-13.03,6.34-18.83,3.48-5.79,8.18-10.86,14.08-15.12,5.89-4.26,12.73-7.36,20.42-9.21,10.59-2.55,20.21-2.87,28.66-1.07,8.46,1.8,15.21,5.05,20.26,9.62.83.73,1.34,1.59,1.51,2.57.17.98-.23,1.91-1.18,2.78-3.95,3.86-7.84,7.75-11.66,11.67-.83.87-1.86,1.45-3.09,1.74-1.24.29-2.34,0-3.32-.85-2.55-2.22-5.82-3.79-9.82-4.7-3.99-.9-8.97-.68-14.87.73-3.97.95-7.47,2.54-10.49,4.74-3.02,2.21-5.46,4.9-7.31,8.04-1.86,3.15-2.99,6.64-3.44,10.45-.45,3.82-.07,7.76,1.08,11.84,1.18,4.17,2.98,7.71,5.36,10.64,2.38,2.93,5.14,5.22,8.28,6.89,3.13,1.67,6.51,2.72,10.13,3.18,3.62.46,7.28.25,11.02-.64,3.38-.8,6.35-1.92,8.93-3.38,2.58-1.46,4.77-3.15,6.57-5.08,1.8-1.93,3.2-3.98,4.17-6.16.98-2.19,1.57-4.44,1.78-6.78-7.92,1.65-15.81,3.44-23.68,5.37ZM152.11,282.51c-2.62.39-4.13-.69-4.53-3.26-3.81-21.19-7.67-42.38-11.59-63.55-.6-2.53.61-4.05,3.63-4.5,5.94-.89,11.9-1.71,17.86-2.45,1.46-.18,2.52-.05,3.17.4.65.45,1.05,1.32,1.2,2.61.15,1.29.31,2.58.46,3.87,2.29-3.85,5.94-6.77,10.93-8.72,4.99-1.95,10.49-2.99,16.41-3.1,2.96-.06,4.53,1.14,4.7,3.56.32,4.45.63,8.9.95,13.35.09,1.29-.25,2.3-1.01,3-.76.71-1.77,1.02-3.02.94-3.09-.28-6.25-.12-9.47.47-3.22.6-6.12,1.59-8.71,2.95-2.59,1.36-4.66,3.07-6.19,5.12-1.53,2.05-2.18,4.38-1.96,6.97,1.15,12.08,2.32,24.15,3.51,36.22.31,2.58-.86,4.02-3.48,4.36-4.29.54-8.58,1.13-12.86,1.77ZM218.36,249.36c.88,3.7,3.09,6.53,6.6,8.55,3.51,2.02,7.67,2.94,12.54,2.8,3.7-.12,6.99-.54,9.89-1.26,2.9-.72,5.62-1.79,8.19-3.22,2.84-1.42,4.9-1.19,6.12.66,1.53,2.16,3.05,4.33,4.55,6.51.51.8.73,1.65.65,2.56-.08.91-.67,1.82-1.77,2.73-4.03,2.99-8.35,5.17-12.99,6.59-4.65,1.41-9.98,2.13-16.05,2.21-5.71.07-10.98-.65-15.85-2.2-4.87-1.55-9.18-3.82-12.93-6.86-3.76-3.03-6.8-6.78-9.13-11.26-2.33-4.48-3.73-9.61-4.17-15.39-.44-5.79.17-11.09,1.88-15.9,1.72-4.81,4.3-9,7.8-12.55,3.49-3.54,7.75-6.35,12.78-8.37,5.03-2.02,10.53-3.09,16.44-3.18,6.3-.1,12,.74,17.04,2.47,5.04,1.73,9.28,4.2,12.69,7.37,3.42,3.17,5.96,6.88,7.67,11.1,1.7,4.23,2.52,8.82,2.5,13.76-.05,3.21-1.08,5.93-3.06,8.2-1.99,2.26-4.95,3.37-8.9,3.35-14.18-.02-28.35.43-42.47,1.33ZM252.19,231.49c-.52-3.56-2.48-6.49-5.92-8.75-3.43-2.26-7.57-3.29-12.37-3.05-5.18.25-9.23,1.71-12.1,4.32-2.88,2.61-4.46,5.71-4.78,9.27,11.7-.9,23.43-1.5,35.17-1.79ZM333.25,282.1c-2.36-.34-3.4-1.53-3.12-3.59.27-1.97.54-3.95.81-5.92-2.29,2.83-5.45,5.01-9.48,6.56-4.03,1.55-8.38,2.08-13.1,1.59-4.9-.51-9.42-1.78-13.59-3.86-4.18-2.08-7.76-4.82-10.76-8.26-3-3.44-5.35-7.52-7.03-12.24-1.67-4.72-2.41-9.98-2.14-15.78.27-5.8,1.49-10.99,3.73-15.56,2.24-4.57,5.2-8.38,8.89-11.4,3.69-3.02,8.02-5.24,12.95-6.62,4.93-1.38,10.17-1.76,15.66-1.11,2.45.25,4.8.79,7.03,1.61,2.24.82,4.25,1.8,6.04,2.94,1.79,1.14,3.33,2.44,4.61,3.92,1.29,1.48,2.16,2.99,2.64,4.54.24-1.76.47-3.52.71-5.28.15-2.6,1.74-3.7,4.76-3.28,5.95.84,11.89,1.75,17.82,2.75,2.82.47,4,2,3.56,4.56-4.25,21.06-8.45,42.14-12.6,63.22-.44,2.56-1.96,3.61-4.58,3.18-4.27-.7-8.56-1.36-12.84-1.98ZM301.69,257.52c2.88,3.56,6.99,5.6,12.39,6.19,5.48.6,9.96-.52,13.51-3.42,3.55-2.9,5.73-7.03,6.47-12.44.74-5.41-.21-9.98-2.94-13.7-2.72-3.71-7.11-5.95-13.1-6.6-5.7-.62-10.4.61-13.99,3.64-3.6,3.03-5.59,7.28-6.03,12.72-.44,5.44.81,9.97,3.69,13.61ZM375.57,289.65c-2.6-.55-3.63-2.09-3.11-4.64,2.99-15.75,5.96-31.5,8.91-47.25-5.09-.96-10.19-1.86-15.29-2.7-1.32-.24-2.29-.77-2.93-1.58-.64-.81-.85-1.82-.64-3.01.76-4.35,1.53-8.7,2.29-13.05.21-1.19.76-2.07,1.66-2.61.9-.54,2.02-.7,3.39-.45,5.09.97,10.17,2,15.24,3.09.93-4.76,1.85-9.52,2.78-14.29.32-2.59,2.02-3.57,5.1-2.92,5.95,1.26,11.9,2.59,17.83,4.01,1.48.35,2.47.93,2.95,1.71.49.79.62,1.82.42,3.11-1.27,4.77-2.54,9.54-3.81,14.32,5.09,1.29,10.16,2.63,15.22,4.03,1.34.36,2.3.98,2.88,1.86.58.88.71,1.9.39,3.07-1.04,3.8-2.09,7.6-3.13,11.4-.32,1.17-.94,1.96-1.86,2.39-.92.42-2.04.5-3.36.23-5.05-1.26-10.1-2.47-15.17-3.61-4.1,15.63-8.19,31.26-12.26,46.9-.61,2.52-2.21,3.47-4.8,2.86-4.23-1-8.47-1.95-12.71-2.86ZM426.1,272.87c-2.68-.77-3.67-2.4-2.97-4.9,4.13-20.21,8.12-40.45,11.98-60.72.69-2.51,2.46-3.37,5.34-2.56,8.02,2.25,16.01,4.64,23.96,7.17,2.95.94,3.96,2.64,3.07,5.08-7.82,19.09-15.52,38.22-23.09,57.4-.79,2.48-2.52,3.29-5.18,2.46-4.36-1.36-8.73-2.66-13.11-3.93ZM422.97,304.85c-3.23-.96-5.65-2.85-7.29-5.71-1.64-2.85-2.04-5.86-1.17-9.03.88-3.17,2.78-5.55,5.74-7.09,2.95-1.55,6.13-1.83,9.48-.83,3.35,1,5.86,2.97,7.49,5.89,1.63,2.92,1.92,5.95.92,9.08-1,3.14-2.99,5.43-5.93,6.91-2.94,1.48-6.01,1.74-9.23.78Z"/></g></svg>