<?xml version="1.0" encoding="UTF-8"?><svg id="_레이어_2" xmlns="http://www.w3.org/2000/svg" xmlns:xlink="http://www.w3.org/1999/xlink" viewBox="0 0 500 500"><defs><style>.cls-1{fill:#663d0c;}.cls-2{fill:none;}.cls-3{fill:url(#_무제_그라디언트_110);}</style><linearGradient id="_무제_그라디언트_110" x1="29.17" y1="250" x2="470.83" y2="250" gradientUnits="userSpaceOnUse"><stop offset="0" stop-color="#ff800d"/><stop offset="1" stop-color="#ffad40"/></linearGradient></defs><g id="_레이어_1-2"><rect class="cls-2" width="500" height="500"/><path class="cls-1" d="M482.8,269.14l.02-.36c.15-4.43-1.33-8.49-4.17-11.43-2.84-2.93-6.84-4.55-11.28-4.55h-19.33c-8.96,0-15.46,6.55-15.46,15.58v.4l.4,6c-.08,0-.15,0-.22,0-4.96,0-9.76.72-14.27,2.14-.83.26-1.65.55-2.44.87-1.8-.8-4.04-1.36-6.79-1.36h-14.56c-4.57,0-8.66,1.68-11.51,4.73-1.25,1.34-2.22,2.89-2.89,4.59-2.79-2.46-5.94-4.54-9.42-6.21,5.48-6.99,8.76-15.79,8.76-25.35,0-22.39-17.9-40.59-40.17-41.11l.99-43.84v-.27c0-9.03-6.5-15.58-15.46-15.58h-14.56c-4.57,0-8.66,1.68-11.51,4.73-1.62,1.73-2.75,3.83-3.38,6.14h-1.26c-.56-2.16-1.59-4.15-3.06-5.83-1.65-1.88-5.38-5.04-11.82-5.04h-13.72c-2.08,0-4.06.35-5.85,1.03-2.28-1.52-5.05-2.46-8.15-2.67-1.19-.08-2.38-.12-3.55-.12-4.96,0-9.75.72-14.27,2.14-.83.26-1.65.55-2.44.87-1.8-.8-4.04-1.36-6.79-1.36h-.77v-6.73c0-4.43-1.65-8.52-4.66-11.54-3-2.99-7.09-4.64-11.54-4.64l-64.77.12c-4.43,0-8.53,1.65-11.53,4.65-3,3-4.65,7.09-4.65,11.53v9.79c0,4.44,1.65,8.54,4.64,11.52,3,3,7.09,4.66,11.47,4.66l10.09.05.51,31.84c-7.24,10.86-12.39,23.23-14.89,36.53-5.4-2.6-11.45-4.06-17.84-4.06-22.2,0-40.28,17.59-41.1,39.59-3.34-1.11-6.92-1.69-10.69-1.69-2.24,0-4.41.17-6.48.52l.1-8.68c0-6.72-3.36-10.47-5.4-12.13-2.79-2.26-6.22-3.45-9.94-3.45h-14.56c-4.57,0-8.66,1.68-11.51,4.73-2.75,2.94-4.15,6.94-3.95,11.28l1.43,84.31c.06,8.96,6.59,15.45,15.58,15.45h11.69c6.51,0,11.73-3.4,14.14-8.69.61,1.35,1.42,2.59,2.42,3.7,2.84,3.14,6.96,4.87,11.61,4.87h13.72c4.68,0,8.81-1.79,11.64-5.04,1.31-1.51,2.31-3.27,2.98-5.26,3.81,3.72,8.28,6.64,13.3,8.69,5.33,2.17,11.07,3.28,17.06,3.28,5.44,0,10.52-1.07,15.15-3.19,2.13,1.05,4.59,1.63,7.28,1.63h11.7c3.98,0,7.48-1.27,10.14-3.47,2.67,2.2,6.17,3.47,10.14,3.47h11.69c7.29,0,12.97-4.28,14.88-10.68,7.19,1.65,14.67,2.53,22.36,2.53.29,0,.58,0,.87-.01,3.1,2.63,6.57,4.78,10.4,6.39,5.24,2.21,10.97,3.33,17.01,3.33s11.31-1.08,16.26-3.23c2.15,1.08,4.64,1.68,7.36,1.68h11.69c8.18,0,14.33-5.38,15.41-13.12.69.75,1.41,1.47,2.15,2.17,4.35,4.08,9.51,7.23,15.35,9.37,5.64,2.07,11.83,3.12,18.39,3.12s12.84-.88,18.2-2.61c4.75-1.54,9.21-3.83,13.29-6.81,2.56,4.81,7.57,7.87,13.74,7.87h11.69c8.97,0,15.5-6.47,15.58-15.42l.69-32.37c.19-.13.45-.27.78-.41,1.12-.49,2.42-.81,3.87-.96.59-.06,1.17-.09,1.73-.09.92,0,1.84.08,2.71.25l.37.06c.74.12,1.49.18,2.23.19l.5,7.43c.08,2.95.87,5.62,2.21,7.87-2.79,3.85-4.25,8.4-4.25,13.34,0,6.22,2.31,11.82,6.68,16.18,4.37,4.37,9.96,6.68,16.18,6.68s11.81-2.31,16.18-6.68c4.37-4.37,6.67-9.96,6.67-16.18,0-4.56-1.24-8.79-3.64-12.45,1.71-2.43,2.71-5.43,2.8-8.79l3.56-56.4Z"/><path class="cls-3" d="M169.4,231.73c-2.39,0-3.58-1.19-3.58-3.58l-1.07-67.42-21.84-.12c-1.27,0-2.29-.38-3.04-1.13-.76-.76-1.13-1.77-1.13-3.04v-9.79c0-1.27.38-2.29,1.13-3.04s1.77-1.13,3.04-1.13l64.8-.12c1.27,0,2.29.38,3.04,1.13.76.76,1.13,1.77,1.13,3.04v9.78c0,1.27-.38,2.29-1.13,3.04s-1.77,1.13-3.04,1.13l-21.84.24-1.19,67.42c0,2.39-1.19,3.58-3.58,3.58h-11.69ZM211.64,231.73c-2.39,0-3.58-1.19-3.58-3.58l-1.43-59.31c-.16-2.39.99-3.58,3.46-3.58h14.56c1.19,0,2.03.24,2.51.72.48.48.72,1.31.72,2.51v3.58c2.23-3.26,5.43-5.55,9.61-6.86,4.18-1.31,8.65-1.81,13.42-1.49,2.39.16,3.58,1.35,3.58,3.58v12.29c0,1.19-.34,2.09-1.01,2.68-.68.6-1.53.82-2.57.66-2.55-.48-5.17-.58-7.88-.3-2.71.28-5.19.92-7.46,1.91-2.27,1-4.14,2.35-5.61,4.06-1.47,1.71-2.25,3.76-2.33,6.15l-.72,33.41c0,2.39-1.19,3.58-3.58,3.58h-11.69ZM268.56,233.64c1.27-1.91,2.94-2.23,5.01-.95,2.46,1.51,5.03,2.74,7.7,3.7,2.66.95,5.59,1.39,8.77,1.31,3.18-.08,5.95-.68,8.29-1.79,2.35-1.11,4.3-2.61,5.85-4.47,1.55-1.87,2.69-4.08,3.4-6.62.72-2.55,1.03-5.29.96-8.23-1.19,2.79-3.38,5.05-6.56,6.8-3.18,1.75-7,2.66-11.46,2.74-7.24.08-13.29-1.63-18.14-5.13-4.85-3.5-7.96-8.35-9.31-14.56-1.43-6.6-2.11-12.95-2.03-19.03.08-6.09.44-12.23,1.07-18.44.16-1.19.5-2.09,1.01-2.69.52-.6,1.37-.9,2.57-.9h13.72c2.55,0,3.66,1.19,3.34,3.58-.64,5.01-1.09,10-1.37,14.98-.28,4.97-.1,9.37.54,13.19.64,3.58,2.19,6.23,4.65,7.94,2.46,1.71,5.33,2.53,8.59,2.45,1.75,0,3.4-.32,4.95-.95,1.55-.64,2.9-1.53,4.06-2.69,1.15-1.15,2.07-2.49,2.74-4,.67-1.51.97-3.18.9-5.01l-.84-25.89c-.16-2.39.99-3.58,3.46-3.58h14.56c2.31,0,3.46,1.19,3.46,3.58l-1.07,47.49c-.16,5.73-1.09,10.94-2.8,15.63-1.71,4.69-4.14,8.69-7.28,11.99-3.14,3.3-6.96,5.85-11.46,7.64-4.5,1.79-9.57,2.6-15.22,2.45-4.77-.16-9.31-1.11-13.6-2.86-4.3-1.75-8.11-4.14-11.46-7.16-.72-.64-1.19-1.35-1.43-2.15-.24-.8-.04-1.67.6-2.63l3.82-5.73ZM34.2,354.9c-2.39,0-3.58-1.19-3.58-3.58l-1.43-84.6c-.16-2.39.99-3.58,3.46-3.58h14.56c.95,0,1.75.26,2.39.78.64.52.95,1.45.95,2.8l-.36,30.19c4.14-6.68,10.38-10.02,18.73-10.02,2.94,0,5.63.5,8.06,1.49,2.43,1,4.53,2.37,6.32,4.12,1.79,1.75,3.28,3.84,4.48,6.27,1.19,2.43,2.07,5.03,2.62,7.82.64,3.26,1.11,6.74,1.43,10.44.32,3.7.48,7.46.48,11.28s-.08,7.68-.24,11.57c-.16,3.9-.4,7.68-.72,11.34-.16,1.19-.5,2.09-1.01,2.69-.52.6-1.37.9-2.56.9h-13.72c-2.47,0-3.58-1.19-3.34-3.58.64-6.84,1.09-13.32,1.37-19.45.28-6.12.1-11.81-.54-17.06-.4-3.02-1.55-5.31-3.46-6.86-1.91-1.55-4.41-2.33-7.52-2.33-3.34,0-5.95.95-7.82,2.86-1.87,1.91-2.85,4.1-2.92,6.56l-.36,36.4c0,2.39-1.19,3.58-3.58,3.58h-11.69ZM155.2,354.9c-2.15,0-3.22-.95-3.22-2.86v-5.49c-1.67,2.86-4.22,5.23-7.64,7.1-3.42,1.87-7.28,2.8-11.58,2.8s-8.63-.8-12.53-2.39c-3.9-1.59-7.28-3.88-10.14-6.86-2.86-2.98-5.13-6.6-6.8-10.86-1.67-4.25-2.51-9.05-2.51-14.38s.83-10.14,2.51-14.44,3.94-7.94,6.8-10.92c2.86-2.98,6.24-5.29,10.14-6.92,3.9-1.63,8.07-2.41,12.53-2.33,1.99,0,3.92.26,5.79.78,1.87.52,3.58,1.19,5.13,2.03,1.55.84,2.92,1.85,4.12,3.04,1.19,1.19,2.07,2.47,2.63,3.82v-4.89c-.16-2.39.99-3.58,3.46-3.58h14.56c2.31,0,3.46,1.19,3.46,3.58l-1.43,59.19c0,2.39-1.19,3.58-3.58,3.58h-11.69ZM124.89,335.81c2.78,3.02,6.56,4.53,11.34,4.53s8.65-1.53,11.4-4.59c2.74-3.06,4.12-7.1,4.12-12.11s-1.33-9.05-4-12.11c-2.67-3.06-6.5-4.59-11.51-4.59s-8.55,1.53-11.34,4.59c-2.79,3.06-4.18,7.1-4.18,12.11s1.39,9.07,4.18,12.17ZM187.18,354.9c-2.39,0-3.58-1.19-3.58-3.58l-1.43-59.31c-.16-2.39.99-3.58,3.46-3.58h14.56c1.19,0,2.03.24,2.51.72.48.48.72,1.31.72,2.51v3.58c2.23-3.26,5.43-5.55,9.61-6.86,4.18-1.31,8.65-1.81,13.42-1.49,2.39.16,3.58,1.35,3.58,3.58v12.29c0,1.19-.34,2.09-1.01,2.68-.68.6-1.53.82-2.57.66-2.55-.48-5.17-.58-7.88-.3-2.71.28-5.19.92-7.46,1.91-2.27,1-4.14,2.35-5.61,4.06-1.47,1.71-2.25,3.76-2.33,6.15l-.72,33.41c0,2.39-1.19,3.58-3.58,3.58h-11.69ZM288.01,354.9c-2.15,0-3.22-.95-3.22-2.86v-5.49c-1.59,3.02-4.24,5.43-7.94,7.22-3.7,1.79-7.86,2.69-12.47,2.69s-8.57-.8-12.35-2.39c-3.78-1.59-7.04-3.88-9.78-6.86-2.74-2.98-4.87-6.6-6.38-10.86-1.51-4.25-2.27-9.05-2.27-14.38s.76-10.12,2.27-14.38c1.51-4.25,3.64-7.88,6.38-10.86,2.74-2.98,6.01-5.29,9.78-6.92,3.78-1.63,7.9-2.45,12.35-2.45,4.69,0,8.71.9,12.05,2.69,3.34,1.79,5.57,4.04,6.68,6.74l-.36-30.07c-.16-2.39.99-3.58,3.46-3.58h15.04c2.31,0,3.46,1.19,3.46,3.58l-1.43,84.6c0,2.39-1.19,3.58-3.58,3.58h-11.69ZM257.94,335.81c1.43,1.43,3.08,2.55,4.95,3.34,1.87.8,3.92,1.19,6.15,1.19s4.3-.4,6.21-1.19c1.91-.79,3.54-1.93,4.89-3.4,1.35-1.47,2.43-3.22,3.22-5.25.79-2.03,1.19-4.31,1.19-6.86,0-5.01-1.41-9.05-4.24-12.11-2.82-3.06-6.58-4.59-11.28-4.59-2.23,0-4.28.4-6.15,1.19-1.87.8-3.5,1.93-4.89,3.4-1.39,1.47-2.49,3.24-3.28,5.31-.8,2.07-1.19,4.34-1.19,6.8s.4,4.83,1.19,6.86c.79,2.03,1.87,3.8,3.22,5.31ZM335.98,330.2c.64,3.42,2.46,6.11,5.49,8.05,3.02,1.95,6.68,2.88,10.98,2.8,3.26-.08,6.16-.46,8.71-1.13,2.55-.68,4.93-1.69,7.16-3.04,2.46-1.35,4.25-1.19,5.37.48l4.18,5.85c.48.72.7,1.49.66,2.33-.04.84-.54,1.69-1.49,2.57-3.5,2.86-7.34,4.97-11.51,6.32-4.18,1.35-9.01,2.03-14.5,2.03-5.17,0-9.92-.8-14.26-2.39-4.34-1.59-8.1-3.88-11.28-6.86-3.18-2.98-5.65-6.6-7.4-10.86-1.75-4.25-2.62-9.05-2.62-14.38s.85-10.14,2.56-14.44c1.71-4.3,4.08-7.97,7.1-11.04,3.02-3.06,6.6-5.43,10.74-7.1,4.14-1.67,8.59-2.51,13.36-2.51,5.09,0,9.68.78,13.78,2.33,4.1,1.55,7.58,3.74,10.44,6.56,2.86,2.82,5.07,6.15,6.62,9.96,1.55,3.82,2.41,7.99,2.57,12.53.08,2.94-.7,5.49-2.33,7.64-1.63,2.15-4.16,3.26-7.58,3.34l-36.75.95ZM365.1,314.21c-.48-3.26-2.15-5.93-5.01-7.99-2.86-2.07-6.29-3.02-10.26-2.86-4.3.16-7.68,1.39-10.14,3.7-2.47,2.31-3.9,5.09-4.3,8.35l29.71-1.19ZM396.24,354.9c-2.39,0-3.58-1.19-3.58-3.58l-1.43-59.31c-.16-2.39.99-3.58,3.46-3.58h14.56c1.19,0,2.03.24,2.51.72.48.48.72,1.31.72,2.51v3.58c2.23-3.26,5.43-5.55,9.61-6.86,4.18-1.31,8.65-1.81,13.42-1.49,2.39.16,3.58,1.35,3.58,3.58v12.29c0,1.19-.34,2.09-1.01,2.68-.68.6-1.53.82-2.57.66-2.55-.48-5.17-.58-7.88-.3-2.71.28-5.19.92-7.46,1.91-2.27,1-4.14,2.35-5.61,4.06-1.47,1.71-2.25,3.76-2.33,6.15l-.72,33.41c0,2.39-1.19,3.58-3.58,3.58h-11.69ZM451.97,328.65c-2.39,0-3.58-1.19-3.58-3.58l-3.82-56.68c0-2.39,1.15-3.58,3.46-3.58h19.33c2.39,0,3.54,1.19,3.46,3.58l-3.58,56.68c0,2.39-1.19,3.58-3.58,3.58h-11.69ZM457.22,357.65c-3.02,0-5.59-1.06-7.7-3.16-2.11-2.11-3.16-4.67-3.16-7.7s1.05-5.59,3.16-7.7c2.11-2.11,4.67-3.16,7.7-3.16s5.59,1.06,7.7,3.16c2.11,2.11,3.16,4.67,3.16,7.7s-1.05,5.59-3.16,7.7c-2.11,2.11-4.67,3.16-7.7,3.16Z"/></g></svg>