<svg width="320" height="160" viewBox="0 0 320 160" fill="none" xmlns="http://www.w3.org/2000/svg">
<g clip-path="url(#clip0_1778_209)">
<path d="M43.4085 135.6C43.2985 134.54 43.2985 133.54 43.2985 132.65C43.2985 131.43 43.2285 130.28 43.0885 129.24C43.0585 129.01 42.8985 128.92 42.8285 128.89C42.7385 128.85 42.5585 128.8 42.3585 128.93C42.1985 129.03 42.0385 129.19 41.8685 129.37C41.6185 129.63 41.3285 129.92 40.9385 130.14C39.8185 130.76 38.4685 130.92 37.2485 130.56C35.9985 130.2 34.9685 129.38 34.3385 128.25C33.7085 127.12 33.5585 125.81 33.9185 124.56C34.5085 122.49 35.9885 120.85 38.0785 119.91C40.6785 118.76 44.1785 118.83 46.7885 120.11C50.0285 121.69 52.2785 125.08 52.8285 129.18C52.9985 130.42 52.9985 131.59 52.9985 132.64C52.9985 133.36 52.9985 134.05 53.0585 134.63C53.2885 136.87 54.5985 139.02 56.4885 140.24C58.3685 141.47 60.8685 141.8 63.0085 141.1C65.5485 140.28 68.2985 141.67 69.1285 144.21C69.5285 145.44 69.4285 146.76 68.8385 147.91C68.5385 148.51 68.1185 149.03 67.6185 149.44C67.1485 149.83 66.6085 150.13 66.0185 150.32C65.2185 150.58 64.3785 150.79 63.5285 150.93C59.2685 151.63 54.7785 150.7 51.1985 148.37C46.8485 145.54 43.9385 140.77 43.4085 135.61V135.6Z" fill="#C8C8FF"/>
<path d="M60.721 152.29C57.141 152.29 53.561 151.26 50.571 149.32C45.941 146.3 42.831 141.22 42.271 135.72C42.161 134.6 42.151 133.57 42.151 132.65C42.151 131.98 42.121 131.33 42.081 130.72C41.911 130.86 41.711 131 41.491 131.12C40.111 131.89 38.451 132.08 36.931 131.64C35.391 131.2 34.111 130.18 33.341 128.78C32.561 127.38 32.381 125.76 32.821 124.22C33.511 121.83 35.211 119.92 37.621 118.85C40.511 117.57 44.401 117.65 47.291 119.06C50.871 120.81 53.371 124.53 53.961 129.01C54.141 130.32 54.141 131.53 54.141 132.59C54.141 133.32 54.141 133.97 54.201 134.49C54.391 136.39 55.511 138.22 57.111 139.26C58.711 140.3 60.841 140.59 62.651 139.99C65.791 138.97 69.181 140.7 70.211 143.84C70.711 145.37 70.581 146.99 69.851 148.42C69.481 149.15 68.971 149.79 68.341 150.32C67.761 150.8 67.091 151.17 66.361 151.41C65.511 151.69 64.611 151.91 63.711 152.06C62.721 152.22 61.721 152.31 60.721 152.31V152.29ZM44.551 135.48C45.041 140.3 47.761 144.75 51.821 147.4C55.171 149.58 59.371 150.45 63.341 149.79C64.131 149.66 64.911 149.47 65.661 149.23C66.111 149.08 66.531 148.86 66.881 148.56C67.271 148.24 67.581 147.84 67.811 147.39C68.261 146.51 68.341 145.5 68.031 144.56C67.401 142.62 65.301 141.55 63.351 142.18C60.891 142.98 58.021 142.6 55.851 141.19C53.681 139.78 52.171 137.31 51.911 134.73C51.851 134.1 51.841 133.4 51.841 132.65C51.841 131.56 51.841 130.48 51.671 129.32C51.171 125.6 49.151 122.54 46.261 121.12C43.941 119.99 40.831 119.92 38.521 120.94C36.741 121.73 35.491 123.12 34.991 124.86C34.721 125.81 34.831 126.81 35.311 127.68C35.791 128.55 36.581 129.18 37.531 129.45C38.471 129.72 39.501 129.6 40.351 129.13C40.601 128.99 40.811 128.78 41.021 128.57C41.241 128.34 41.451 128.13 41.721 127.96C42.191 127.66 42.781 127.62 43.281 127.86C43.781 128.1 44.111 128.56 44.181 129.1C44.321 130.18 44.401 131.38 44.401 132.66C44.401 133.52 44.401 134.49 44.511 135.5L44.551 135.48Z" fill="black"/>
<path d="M136.949 121.1C136.949 121.1 150.649 140.48 135.809 150.17C135.809 150.17 131.839 154.38 124.279 148.35C117.339 142.8 124.769 120.97 124.769 120.97L136.949 121.1Z" fill="#C8C8FF"/>
<path d="M131.842 152.77C129.732 152.77 126.962 151.96 123.572 149.25C116.222 143.37 122.902 122.92 123.692 120.61C123.852 120.14 124.322 119.8 124.782 119.84L136.962 119.97C137.332 119.97 137.672 120.15 137.882 120.45C138.192 120.89 145.402 131.24 143.552 140.93C142.752 145.11 140.392 148.52 136.522 151.08C136.092 151.48 134.492 152.78 131.832 152.78L131.842 152.77ZM125.592 122.12C123.542 128.52 120.032 143.49 124.992 147.46C131.642 152.78 134.942 149.43 134.972 149.39C135.032 149.32 135.102 149.27 135.182 149.22C138.562 147.01 140.622 144.08 141.302 140.5C142.762 132.85 137.672 124.33 136.322 122.24L125.582 122.12H125.592Z" fill="black"/>
<path d="M68.5303 121.1C68.5303 121.1 54.8303 140.48 69.6703 150.17C69.6703 150.17 73.6403 154.38 81.2003 148.35C88.1403 142.8 80.7103 120.97 80.7103 120.97L68.5303 121.1Z" fill="#C8C8FF"/>
<path d="M73.6403 152.77C70.9803 152.77 69.3903 151.48 68.9503 151.07C65.0803 148.52 62.7203 145.1 61.9203 140.92C60.0703 131.22 67.2803 120.87 67.5903 120.44C67.8003 120.14 68.1403 119.96 68.5103 119.96L80.6903 119.83C81.1703 119.77 81.6303 120.14 81.7803 120.6C82.5703 122.91 89.2503 143.36 81.9003 149.24C78.5103 151.95 75.7403 152.76 73.6303 152.76L73.6403 152.77ZM69.1503 122.24C67.8003 124.33 62.7103 132.87 64.1703 140.51C64.8503 144.09 66.9103 147.02 70.2903 149.23C70.3703 149.28 70.4303 149.34 70.5003 149.4C70.6303 149.53 73.9203 152.71 80.4803 147.47C85.4403 143.51 81.9403 128.53 79.8803 122.13L69.1403 122.25L69.1503 122.24Z" fill="black"/>
<path d="M129.551 139.8C124.281 122.56 126.831 107.45 102.631 106.85C78.4312 107.45 80.9812 122.56 75.7112 139.8C70.7312 156.09 83.6312 157.21 102.631 157.89C121.631 157.21 134.521 156.09 129.551 139.8Z" fill="#C8C8FF"/>
<path d="M117.57 158.13C118.37 155.68 118.55 152.82 118.55 149.75C118.55 140.74 111.54 133.44 102.89 133.44C94.2405 133.44 87.2305 140.74 87.2305 149.75C87.2305 152.81 87.4105 155.68 88.2105 158.13H117.56H117.57Z" fill="white"/>
<path d="M161.531 146.13H45.3909C43.0824 146.13 41.2109 148.001 41.2109 150.31V154.68C41.2109 156.988 43.0824 158.86 45.3909 158.86H161.531C163.839 158.86 165.711 156.988 165.711 154.68V150.31C165.711 148.001 163.839 146.13 161.531 146.13Z" fill="#E5992A"/>
<path d="M161.52 160H45.3903C42.4503 160 40.0703 157.61 40.0703 154.68V150.32C40.0703 147.38 42.4603 145 45.3903 145H161.52C164.46 145 166.84 147.39 166.84 150.32V154.68C166.84 157.62 164.45 160 161.52 160ZM45.3903 147.27C43.7103 147.27 42.3503 148.63 42.3503 150.31V154.67C42.3503 156.35 43.7103 157.71 45.3903 157.71H161.52C163.2 157.71 164.56 156.35 164.56 154.67V150.31C164.56 148.63 163.2 147.27 161.52 147.27H45.3903Z" fill="black"/>
<path d="M163.07 60.3202C163.07 60.3202 162.79 10.7402 147.4 2.48022C132.01 -5.77978 104.5 26.3902 104.5 26.3902L163.06 60.3202H163.07Z" fill="#C8C8FF"/>
<path d="M41.9883 60.3202C41.9883 60.3202 42.2683 10.7402 57.6583 2.48022C73.0483 -5.77978 100.558 26.3902 100.558 26.3902L41.9983 60.3202H41.9883Z" fill="#C8C8FF"/>
<path d="M148.111 39.6597C149.471 40.8797 151.621 39.7597 151.401 37.9397C150.331 28.9597 147.951 18.0797 142.631 15.2297C137.171 12.2997 129.231 17.6397 123.491 22.6897C122.331 23.7097 122.741 25.5897 124.211 26.0597C133.241 28.9597 141.371 33.6297 148.111 39.6597Z" fill="white"/>
<path d="M80.8502 26.0597C82.3202 25.5897 82.7302 23.7097 81.5702 22.6897C75.8302 17.6397 67.8902 12.2997 62.4302 15.2297C57.1102 18.0797 54.7302 28.9597 53.6602 37.9397C53.4402 39.7597 55.5802 40.8797 56.9502 39.6597C63.6902 33.6197 71.8202 28.9497 80.8502 26.0597Z" fill="white"/>
<path d="M168.171 84.1604C168.171 118.89 138.781 130.01 102.531 130.01C66.2806 130.01 36.8906 118.89 36.8906 84.1604C36.8906 49.4304 66.2806 22.6904 102.531 22.6904C138.781 22.6904 168.171 49.4304 168.171 84.1604Z" fill="white"/>
<path d="M167.722 76.9002C167.722 76.9002 167.742 76.8402 167.742 76.8102C164.832 53.0902 148.012 34.0702 125.252 26.3802C124.392 26.0902 123.522 25.8202 122.642 25.5602C122.612 25.5502 122.572 25.5402 122.542 25.5302C121.752 25.3002 120.962 25.0902 120.162 24.8802C119.982 24.8402 119.812 24.7902 119.632 24.7502C118.922 24.5702 118.202 24.4102 117.472 24.2602C117.192 24.2002 116.922 24.1402 116.642 24.0902C115.982 23.9602 115.322 23.8402 114.662 23.7202C114.302 23.6602 113.942 23.6002 113.572 23.5502C112.972 23.4602 112.362 23.3702 111.752 23.2902C111.302 23.2302 110.842 23.1802 110.392 23.1302C109.852 23.0702 109.322 23.0102 108.782 22.9702C108.202 22.9202 107.612 22.8802 107.022 22.8502C106.592 22.8202 106.172 22.7902 105.742 22.7702C104.792 22.7302 103.832 22.7102 102.862 22.7002C102.762 22.7002 102.652 22.7002 102.552 22.7002C102.522 22.7002 102.482 22.7002 102.452 22.7002C101.392 22.7002 100.342 22.7302 99.3019 22.7702C99.0219 22.7802 98.7419 22.8102 98.4619 22.8202C97.7019 22.8602 96.9519 22.9102 96.2019 22.9802C95.8319 23.0102 95.4719 23.0502 95.1019 23.0902C94.4419 23.1602 93.7919 23.2302 93.1419 23.3102C92.7319 23.3602 92.3319 23.4202 91.9319 23.4802C91.3319 23.5702 90.7319 23.6602 90.1319 23.7702C89.7119 23.8402 89.2819 23.9202 88.8619 24.0102C88.2919 24.1202 87.7319 24.2402 87.1719 24.3602C86.7419 24.4602 86.3119 24.5502 85.8819 24.6602C85.3419 24.7902 84.7919 24.9302 84.2619 25.0702C83.8319 25.1802 83.4019 25.3002 82.9719 25.4202C82.4319 25.5702 81.9019 25.7402 81.3819 25.9002C80.9619 26.0302 80.5419 26.1602 80.1319 26.2902C57.0819 33.9702 40.0819 53.2702 37.3319 77.3002C37.2319 78.1302 37.1619 78.9602 37.1019 79.8002C37.0719 80.2002 37.0419 80.6002 37.0219 81.0102C36.9619 82.0602 36.9219 83.1002 36.9219 84.1702C36.9219 91.3602 38.2019 97.5302 40.5219 102.81C55.6419 104.96 82.2719 102.92 97.5819 87.2702C98.9119 85.9102 100.752 84.4802 102.592 84.6702C104.432 84.4902 106.272 85.9102 107.602 87.2702C123.262 103.28 150.232 104.9 164.782 102.41C166.992 97.2202 168.212 91.1802 168.212 84.1702C168.212 81.7002 168.052 79.2802 167.762 76.9102L167.722 76.9002Z" fill="#C8C8FF"/>
<path d="M132.641 92.9398C133.519 92.9398 134.231 92.2279 134.231 91.3498C134.231 90.4716 133.519 89.7598 132.641 89.7598C131.763 89.7598 131.051 90.4716 131.051 91.3498C131.051 92.2279 131.763 92.9398 132.641 92.9398Z" fill="black"/>
<path d="M125.36 81.2797C122.9 81.7797 118.79 82.6197 116.6 83.0597C115.73 83.2397 115.13 84.0397 115.21 84.9197C115.63 89.2797 117.59 92.5597 121.29 92.5597C121.29 92.5597 127.45 93.0197 127.43 82.9497C127.43 81.8697 126.42 81.0697 125.36 81.2797Z" fill="black"/>
<path d="M78.1794 81.2797C80.6394 81.7797 84.7494 82.6197 86.9394 83.0597C87.8094 83.2397 88.4094 84.0397 88.3294 84.9197C87.9094 89.2797 85.9494 92.5597 82.2494 92.5597C82.2494 92.5597 76.0894 93.0197 76.1094 82.9497C76.1094 81.8697 77.1194 81.0697 78.1794 81.2797Z" fill="black"/>
<path d="M97.3697 97.1599C96.9997 97.1599 96.6297 97.0199 96.3497 96.7399C95.7897 96.1799 95.7897 95.2699 96.3497 94.7099L101.47 89.5899C102.03 89.0299 102.93 89.0299 103.49 89.5899L108.68 94.6999C109.25 95.2599 109.25 96.1699 108.7 96.7299C108.14 97.2999 107.23 97.2999 106.67 96.7499L102.49 92.6399L98.3797 96.7499C98.0997 97.0299 97.7297 97.1699 97.3597 97.1699L97.3697 97.1599Z" fill="black"/>
<path d="M102.53 131.16C58.84 131.16 35.75 114.91 35.75 84.1602C35.75 75.6602 37.47 67.4602 40.85 59.7902C40.94 53.6502 42.11 9.52021 57.11 1.47021C69.77 -5.31979 89.51 13.0302 97.81 21.7102C101.26 21.4802 103.8 21.4802 107.25 21.7102C115.55 13.0302 135.3 -5.31979 147.95 1.47021C162.96 9.52021 164.12 53.6502 164.21 59.7902C167.6 67.4602 169.31 75.6602 169.31 84.1602C169.31 114.91 146.22 131.16 102.53 131.16ZM63.29 2.28021C61.47 2.28021 59.76 2.65021 58.19 3.49021C46.78 9.61021 43.35 41.9302 43.13 60.0602C43.13 60.2202 43.09 60.3702 43.03 60.5102C39.71 67.9402 38.03 75.9002 38.03 84.1602C38.03 113.83 59.73 128.87 102.53 128.87C145.33 128.87 167.03 113.83 167.03 84.1602C167.03 75.9002 165.35 67.9402 162.03 60.5102C161.97 60.3702 161.93 60.2102 161.93 60.0602C161.71 41.9302 158.29 9.62021 146.87 3.49021C135.09 -2.83979 114.55 17.3402 108.54 23.6802C108.3 23.9302 107.97 24.0702 107.63 24.0302C103.85 23.7602 101.22 23.7602 97.44 24.0302C97.09 24.0602 96.77 23.9302 96.53 23.6802C91.31 18.1902 75.18 2.28021 63.3 2.28021H63.29Z" fill="black"/>
<path d="M115.371 25.1005C115.301 25.1005 115.231 25.1005 115.161 25.0805C106.851 23.5805 98.2008 23.5805 89.8908 25.0805C89.2708 25.2005 88.6708 24.7805 88.5608 24.1605C88.4508 23.5405 88.8608 22.9405 89.4808 22.8305C98.0608 21.2805 106.981 21.2805 115.561 22.8305C116.181 22.9405 116.591 23.5405 116.481 24.1605C116.381 24.7105 115.901 25.1005 115.361 25.1005H115.371Z" fill="black"/>
<path d="M104.321 120.02L135.101 112.05C135.101 112.05 126.541 97.0104 104.751 112.25L102.521 112.32L100.291 112.25C78.5014 97.0104 69.9414 112.05 69.9414 112.05L100.721 120.02L100.641 120.97L102.511 120.49L104.381 120.97L104.301 120.02H104.321Z" fill="#FFF2D1"/>
<path d="M106.588 114.27C106.458 114.27 106.318 114.21 106.228 114.1C106.058 113.9 106.078 113.6 106.278 113.43C106.388 113.33 117.618 103.85 130.678 107.45C130.928 107.52 131.078 107.78 131.008 108.04C130.938 108.29 130.678 108.45 130.418 108.37C117.838 104.92 106.998 114.06 106.888 114.15C106.798 114.23 106.688 114.27 106.578 114.27H106.588Z" fill="black"/>
<path d="M98.3496 114.27C98.2396 114.27 98.1296 114.23 98.0396 114.16C97.9296 114.07 87.0796 104.93 74.5096 108.38C74.2596 108.46 73.9996 108.3 73.9196 108.05C73.8496 107.8 73.9996 107.53 74.2496 107.46C87.3096 103.87 98.5396 113.34 98.6496 113.44C98.8496 113.61 98.8696 113.91 98.6996 114.11C98.6096 114.22 98.4696 114.28 98.3396 114.28L98.3496 114.27Z" fill="black"/>
<path d="M104.402 121.83C104.332 121.83 104.252 121.83 104.182 121.8L102.532 121.37L100.882 121.8C100.612 121.88 100.322 121.8 100.112 121.63C99.9019 121.45 99.7819 121.18 99.8119 120.9L99.8319 120.68L69.7519 112.89C69.4919 112.82 69.2819 112.64 69.1719 112.39C69.0719 112.14 69.0819 111.86 69.2219 111.63C69.3419 111.42 72.2219 106.47 78.8419 104.98C85.1119 103.57 92.4219 105.73 100.602 111.4L102.572 111.46L104.492 111.4C112.672 105.73 119.992 103.57 126.252 104.98C132.872 106.47 135.752 111.42 135.872 111.63C136.002 111.86 136.022 112.14 135.922 112.39C135.822 112.64 135.602 112.82 135.342 112.89L105.262 120.68L105.282 120.9C105.302 121.18 105.192 121.45 104.982 121.63C104.822 121.76 104.632 121.83 104.422 121.83H104.402ZM71.3819 111.53L100.952 119.19C101.272 119.27 101.512 119.53 101.582 119.84L102.312 119.65C102.452 119.61 102.602 119.61 102.742 119.65L103.472 119.84C103.542 119.53 103.772 119.27 104.102 119.19L133.672 111.53C132.552 110.13 130.002 107.58 125.812 106.65C120.002 105.36 113.072 107.48 105.242 112.96C105.102 113.06 104.942 113.11 104.772 113.11L102.542 113.18L100.262 113.11C100.092 113.11 99.9319 113.05 99.7919 112.96C91.9619 107.48 85.0319 105.36 79.2219 106.65C75.0319 107.58 72.4919 110.13 71.3619 111.53H71.3819Z" fill="black"/>
<path d="M109.53 115.25C109.53 115.25 120.96 106.23 134.61 110.96C136.32 111.55 137.15 112.8 137.15 114.38V143.76C137.15 145.83 135.4 147.45 133.34 147.31C126.95 146.87 118.69 146.82 109.62 152.71C109.36 152.88 109.05 152.48 108.82 152.68C108.82 152.68 109.09 115.25 109.53 115.25Z" fill="#FF4932"/>
<path d="M95.5302 115.25C95.5302 115.25 84.1001 106.23 70.4501 110.96C68.7401 111.55 67.9102 112.8 67.9102 114.38V143.76C67.9102 145.83 69.6602 147.45 71.7202 147.31C78.1102 146.87 86.3702 146.82 95.4402 152.71C95.7002 152.88 96.0102 152.48 96.2402 152.68C96.2402 152.68 95.9702 115.25 95.5302 115.25Z" fill="#FF4932"/>
<path d="M96.3895 153L96.1495 152.8C96.1495 152.8 96.0295 152.78 95.8895 152.83C95.7395 152.89 95.5495 152.96 95.3595 152.83C86.7895 147.26 78.9395 146.95 71.7295 147.45C70.6895 147.52 69.6995 147.17 68.9395 146.46C68.1795 145.75 67.7695 144.79 67.7695 143.75V114.37C67.7695 112.67 68.7095 111.41 70.4095 110.82C83.9795 106.12 95.5095 115.05 95.6295 115.13C95.8195 115.4 95.9895 117.48 96.2095 133.96C96.3295 143.21 96.3995 152.58 96.3995 152.68V152.99L96.3895 153ZM76.1195 147C82.1495 147 88.5995 148.09 95.5195 152.59C95.5795 152.63 95.6595 152.59 95.7895 152.55C95.8795 152.52 95.9895 152.49 96.0995 152.48C96.0295 142.3 95.7595 116.53 95.4295 115.35C94.9095 114.95 83.6795 106.53 70.4995 111.09C68.9195 111.64 68.0495 112.8 68.0495 114.37V143.75C68.0495 144.71 68.4295 145.6 69.1295 146.25C69.8295 146.9 70.7395 147.23 71.7095 147.16C73.1495 147.06 74.6295 146.99 76.1195 146.99V147Z" fill="black"/>
<path d="M113.19 121.26C113.19 121.05 113.22 120.91 113.29 120.82C113.35 120.73 113.51 120.65 113.75 120.58C114.18 120.45 114.6 120.35 115.03 120.27C115.46 120.19 115.86 120.16 116.25 120.16C116.64 120.16 117 120.21 117.34 120.31C117.67 120.41 117.96 120.57 118.21 120.8C118.46 121.03 118.65 121.33 118.79 121.7C118.93 122.07 119 122.53 119 123.08C119 124.42 118.56 125.53 117.69 126.42C116.82 127.31 115.5 127.95 113.73 128.36C113.43 128.43 113.27 128.3 113.27 127.96L113.18 121.27L113.19 121.26ZM115.03 126.3C115.75 126.03 116.3 125.67 116.66 125.21C117.02 124.75 117.2 124.17 117.2 123.48C117.2 123.16 117.15 122.88 117.05 122.64C116.95 122.4 116.81 122.21 116.61 122.07C116.42 121.94 116.18 121.86 115.9 121.82C115.62 121.79 115.3 121.82 114.94 121.92L115.03 126.29V126.3Z" fill="white"/>
<path d="M124.769 118.27C124.849 118.16 124.909 118.08 124.959 118.05C125.009 118.02 125.099 118.02 125.219 118.05L126.309 118.32C126.439 118.35 126.509 118.41 126.529 118.51C126.549 118.61 126.519 118.71 126.419 118.85L123.999 122.37C123.919 122.5 123.849 122.62 123.799 122.72C123.749 122.83 123.719 122.97 123.709 123.14L123.599 125.59C123.599 125.8 123.549 125.96 123.469 126.05C123.389 126.14 123.259 126.21 123.079 126.24L122.179 126.41C121.989 126.44 121.869 126.43 121.799 126.36C121.739 126.29 121.709 126.15 121.719 125.94L121.799 123.49C121.799 123.32 121.799 123.19 121.749 123.1C121.709 123.01 121.649 122.91 121.579 122.82L119.439 120.14C119.359 120.04 119.329 119.93 119.359 119.83C119.389 119.73 119.469 119.64 119.599 119.56L120.739 118.88C120.859 118.8 120.949 118.77 120.999 118.78C121.049 118.8 121.109 118.85 121.169 118.93L122.839 121.11L124.759 118.27H124.769Z" fill="white"/>
<path d="M127.671 118.26C127.681 118.1 127.721 117.99 127.781 117.92C127.841 117.86 127.961 117.8 128.121 117.75C128.281 117.71 128.441 117.67 128.581 117.63C128.721 117.59 128.861 117.56 128.991 117.53C129.121 117.5 129.241 117.48 129.361 117.46C129.481 117.44 129.611 117.42 129.751 117.4C130.141 117.35 130.531 117.34 130.901 117.36C131.271 117.38 131.601 117.45 131.891 117.57C132.171 117.7 132.401 117.88 132.561 118.12C132.721 118.36 132.791 118.69 132.771 119.09C132.761 119.36 132.691 119.63 132.571 119.91C132.451 120.18 132.251 120.42 131.971 120.63C132.301 120.76 132.531 120.99 132.681 121.33C132.831 121.67 132.881 122.04 132.851 122.45C132.811 122.81 132.711 123.14 132.541 123.42C132.371 123.7 132.161 123.94 131.901 124.14C131.641 124.35 131.341 124.52 131.001 124.66C130.661 124.8 130.301 124.92 129.911 125.01C129.531 125.1 129.131 125.18 128.721 125.24C128.311 125.3 127.911 125.34 127.511 125.37C127.431 125.37 127.361 125.38 127.291 125.38C127.221 125.38 127.171 125.36 127.131 125.33C127.081 125.3 127.051 125.25 127.021 125.19C127.001 125.13 126.991 125.03 127.011 124.9L127.671 118.25V118.26ZM129.171 120.67C129.361 120.65 129.551 120.63 129.741 120.59C129.931 120.56 130.111 120.5 130.271 120.41C130.431 120.33 130.571 120.22 130.681 120.08C130.791 119.94 130.861 119.75 130.891 119.51C130.911 119.32 130.891 119.17 130.801 119.07C130.711 118.97 130.601 118.89 130.441 118.85C130.291 118.82 130.111 118.81 129.921 118.82C129.721 118.84 129.531 118.86 129.341 118.9L129.161 120.67H129.171ZM128.891 123.73C129.181 123.7 129.451 123.66 129.711 123.61C129.961 123.56 130.191 123.49 130.391 123.4C130.581 123.31 130.731 123.21 130.841 123.08C130.951 122.95 131.021 122.81 131.031 122.64C131.041 122.42 130.981 122.27 130.831 122.17C130.681 122.07 130.511 122.02 130.291 122C130.081 121.98 129.861 121.99 129.631 122.02C129.401 122.05 129.211 122.08 129.041 122.11L128.881 123.73H128.891Z" fill="white"/>
<path d="M95.4688 152.74C100.259 155.88 104.979 156.07 109.599 152.74V115.17C105.259 118.26 100.549 118.33 95.4688 115.17V152.74Z" fill="#FF4932"/>
<path d="M102.71 156.31C100.14 156.31 97.5095 155.44 94.8495 153.69C94.8295 153.68 94.8095 153.66 94.7895 153.65C86.4495 148.26 78.8195 147.97 71.7995 148.45C70.5095 148.55 69.2095 148.08 68.2595 147.2C67.3095 146.31 66.7695 145.06 66.7695 143.76V114.38C66.7695 112.25 67.9795 110.61 70.0795 109.88C83.0395 105.38 93.9195 112.65 95.9395 114.13C95.9895 114.15 96.0295 114.17 96.0695 114.2C100.72 117.08 104.93 117.09 108.94 114.24C108.99 114.21 109.03 114.18 109.08 114.15C110.96 112.77 121.95 105.36 134.98 109.87C137.09 110.6 138.29 112.24 138.29 114.37V143.75C138.29 145.05 137.75 146.3 136.8 147.19C135.85 148.08 134.55 148.54 133.26 148.45C126.25 147.97 118.63 148.26 110.35 153.6C110.32 153.62 110.3 153.65 110.27 153.67C107.82 155.43 105.29 156.32 102.7 156.32L102.71 156.31ZM96.2495 151.88C100.68 154.72 104.79 154.73 108.81 151.91C108.89 151.82 108.99 151.75 109.1 151.7C109.1 151.7 109.1 151.7 109.11 151.7C117.92 145.99 126.01 145.67 133.43 146.18C134.11 146.24 134.76 146 135.25 145.53C135.74 145.07 136.02 144.44 136.02 143.76V114.38C136.02 113.24 135.42 112.45 134.24 112.04C121.85 107.75 111.44 115.24 110.3 116.1C110.24 116.15 110.17 116.19 110.1 116.22C105.44 119.45 100.39 119.47 95.0995 116.28C94.9895 116.24 94.8795 116.19 94.7795 116.11C94.3195 115.76 83.4795 107.65 70.8195 112.03C69.6395 112.44 69.0395 113.23 69.0395 114.37V143.75C69.0395 144.43 69.3095 145.06 69.8095 145.52C70.3095 145.98 70.9595 146.22 71.6295 146.17C79.0295 145.66 87.0895 145.97 95.9295 151.67C96.0495 151.72 96.1495 151.79 96.2495 151.88Z" fill="black"/>
<path d="M109.61 120.42C105.27 122.86 100.56 122.91 95.4805 120.42V130.98C100.57 133.47 105.27 133.42 109.61 130.98" fill="#C00000"/>
<path d="M99.7394 128.43L98.6094 127.29L99.7394 126.16V124.55H101.349L102.519 123.38L103.689 124.55H105.339V126.2L106.469 127.34L105.339 128.47V130.08H103.729L102.559 131.25L101.389 130.08H99.7394V128.43Z" fill="#FFFF6B"/>
<path d="M109.61 133.58C105.27 136.02 100.56 136.07 95.4805 133.58V135.91C100.57 138.4 105.27 138.35 109.61 135.91" fill="#C00000"/>
<path d="M91.2509 109.59C91.0309 109.57 90.8209 109.62 90.6109 109.69C89.7209 109.97 88.3809 110.82 88.3409 111.88C88.3209 112.48 88.3409 113.09 88.3409 113.69C88.3409 115.12 88.3409 116.55 88.3409 117.98C88.3409 118.37 88.3409 118.77 88.3409 119.16C88.3409 119.65 88.9309 119.9 89.2809 119.56L90.4309 118.43L91.9009 119.77C92.1709 120.02 92.6009 119.82 92.6009 119.46C92.6009 118.46 92.6009 117.45 92.5909 116.45C92.5909 115.64 92.5909 114.82 92.5909 114.01C92.5909 113.19 92.6209 112.39 93.2209 111.77C93.4609 111.52 93.7509 111.37 94.0709 111.25C94.4409 111.12 94.3409 111 94.0409 110.86C93.8809 110.79 93.7109 110.71 93.5509 110.64C93.2009 110.48 92.8609 110.33 92.5109 110.17C92.1009 109.98 91.6809 109.79 91.2709 109.61L91.2509 109.59Z" fill="#00BFFF"/>
<path d="M92.1694 120.35C91.9494 120.35 91.7394 120.27 91.5694 120.11L90.4394 119.08L89.6094 119.9C89.3094 120.19 88.8694 120.28 88.4894 120.12C88.1094 119.96 87.8594 119.58 87.8594 119.17V113.7V113.12C87.8594 112.71 87.8594 112.29 87.8594 111.88C87.9094 110.54 89.4394 109.58 90.4594 109.25C90.6894 109.18 90.9694 109.11 91.2794 109.13L91.4294 109.17L94.1994 110.43C94.3594 110.5 94.7594 110.69 94.7494 111.1C94.7394 111.37 94.5494 111.57 94.1894 111.7C93.8894 111.81 93.6794 111.93 93.5194 112.1C93.0494 112.59 93.0194 113.23 93.0294 114.01L93.0494 119.46C93.0494 119.82 92.8494 120.14 92.5194 120.28C92.3994 120.33 92.2794 120.36 92.1494 120.36L92.1694 120.35ZM91.1394 110.06C91.0194 110.06 90.8794 110.1 90.7594 110.14C89.9994 110.38 88.8494 111.11 88.8194 111.9C88.7994 112.3 88.8094 112.7 88.8194 113.1V113.69V119.16L89.2894 119.56L88.9594 119.22L90.4294 117.77L92.2294 119.41L92.1294 117.94L92.1094 114C92.1094 113.07 92.1594 112.17 92.8694 111.42C93.0094 111.28 93.1594 111.16 93.3294 111.05L91.1494 110.06H91.1394Z" fill="black"/>
<path d="M132.011 139.66C131.841 144.61 134.671 148.73 138.331 148.85C141.991 148.97 143.231 144.99 143.401 140.04C143.571 135.09 142.601 131.03 138.941 130.91C135.281 130.79 132.181 134.7 132.011 139.66Z" fill="white"/>
<path d="M138.489 150C138.419 150 138.359 150 138.289 150C136.149 149.93 134.199 148.76 132.789 146.72C131.459 144.78 130.769 142.26 130.859 139.63C130.949 136.99 131.799 134.52 133.259 132.68C134.799 130.74 136.819 129.76 138.969 129.78C140.479 129.83 142.509 130.47 143.649 133.24C144.339 134.92 144.629 137.16 144.529 140.09C144.429 143.02 143.989 145.24 143.189 146.87C141.919 149.44 139.969 150.01 138.479 150.01L138.489 150ZM138.769 132.05C137.419 132.05 136.099 132.77 135.059 134.09C133.899 135.55 133.219 137.54 133.149 139.7C133.079 141.85 133.619 143.89 134.679 145.42C135.659 146.85 136.969 147.66 138.369 147.71C139.629 147.76 140.499 147.16 141.149 145.85C141.799 144.54 142.169 142.57 142.259 140.01C142.349 137.45 142.109 135.46 141.549 134.11C140.989 132.75 140.149 132.1 138.899 132.06C138.859 132.06 138.809 132.06 138.769 132.06V132.05Z" fill="black"/>
<path d="M73.5998 139.66C73.7698 144.61 70.9398 148.73 67.2798 148.85C63.6198 148.97 62.3798 144.99 62.2098 140.04C62.0398 135.09 63.0098 131.03 66.6698 130.91C70.3298 130.79 73.4298 134.7 73.5998 139.66Z" fill="white"/>
<path d="M67.12 150C65.63 150 63.68 149.43 62.41 146.86C61.61 145.23 61.17 143.01 61.07 140.08C60.97 137.15 61.26 134.91 61.95 133.23C63.09 130.46 65.13 129.82 66.63 129.77C68.76 129.72 70.8 130.73 72.34 132.67C73.8 134.51 74.65 136.98 74.74 139.62C74.83 142.26 74.14 144.78 72.81 146.71C71.4 148.75 69.45 149.92 67.31 149.99C67.24 149.99 67.18 149.99 67.11 149.99L67.12 150ZM66.84 132.05C66.84 132.05 66.75 132.05 66.71 132.05C65.46 132.09 64.62 132.74 64.06 134.1C63.5 135.45 63.26 137.44 63.35 140C63.44 142.56 63.81 144.53 64.46 145.84C65.11 147.16 66.01 147.73 67.24 147.7C68.64 147.65 69.95 146.84 70.93 145.41C71.99 143.87 72.53 141.84 72.46 139.69C72.39 137.54 71.71 135.54 70.55 134.08C69.51 132.76 68.19 132.04 66.84 132.04V132.05Z" fill="black"/>
<path d="M221.138 125.93C221.138 125.93 200.208 121.98 195.578 155.16C195.578 155.16 212.218 157.1 220.468 158.33" fill="#FF0000"/>
<path d="M220.481 159.48C220.421 159.48 220.371 159.48 220.311 159.47C212.171 158.26 195.621 156.32 195.451 156.3C195.141 156.26 194.871 156.11 194.681 155.86C194.491 155.62 194.411 155.31 194.451 155C196.221 142.27 200.561 133.36 207.331 128.49C214.231 123.53 221.071 124.75 221.361 124.8C221.981 124.92 222.391 125.51 222.271 126.13C222.151 126.75 221.561 127.17 220.941 127.04C220.881 127.04 214.721 125.97 208.621 130.37C202.601 134.72 198.661 142.71 196.891 154.15C200.831 154.62 213.741 156.16 220.651 157.19C221.271 157.28 221.711 157.86 221.611 158.49C221.531 159.06 221.041 159.46 220.481 159.46V159.48Z" fill="black"/>
<path d="M211.97 152.61C207.66 151.3 203.35 149.58 199.64 146.98C194.88 143.65 191.31 138.92 189.88 134.06C189.14 131.53 188.97 128.89 190.01 126.75C192.04 122.57 198.36 120.89 203.2 124.32C210.94 129.8 207.96 138.96 220.07 146.82C222.62 148.47 223.36 145.33 225.44 147.49C227.67 149.8 228.33 153.89 225.2 154.82C221.86 155.81 215.53 153.71 211.97 152.62V152.61Z" fill="#FFBF00"/>
<path d="M194.24 123.08C193.92 124.48 193.9 126.02 194.09 127.55C194.72 132.58 197.48 137.82 201.64 141.87C204.88 145.03 208.86 147.42 212.91 149.41C216.24 151.05 222.15 154.14 225.61 153.7C226.22 153.62 226.72 153.41 227.11 153.1C226.81 153.88 226.2 154.5 225.2 154.8C221.86 155.79 215.53 153.69 211.97 152.6C207.66 151.29 203.35 149.56 199.64 146.97C194.88 143.64 191.31 138.91 189.88 134.05C189.14 131.52 188.97 128.88 190.01 126.74C190.84 125.04 192.37 123.77 194.23 123.07L194.24 123.08Z" fill="white"/>
<path d="M223.109 156.21C219.759 156.21 215.479 154.89 212.429 153.95L211.629 153.71C206.339 152.1 202.319 150.26 198.979 147.92C193.999 144.44 190.279 139.5 188.779 134.39C187.859 131.24 187.929 128.43 188.979 126.26C190.059 124.03 192.209 122.36 194.869 121.67C197.919 120.89 201.199 121.51 203.849 123.39C207.519 125.99 208.929 129.31 210.429 132.82C212.279 137.16 214.189 141.65 220.679 145.86C221.419 146.34 221.759 146.2 222.429 145.93C223.259 145.6 224.649 145.03 226.249 146.69C228.009 148.51 228.829 151.08 228.309 153.08C227.939 154.47 226.949 155.48 225.509 155.9C224.799 156.11 223.979 156.2 223.099 156.2L223.109 156.21ZM212.299 151.52L213.099 151.77C216.459 152.8 222.099 154.54 224.869 153.72C225.539 153.52 225.949 153.12 226.109 152.5C226.429 151.3 225.779 149.48 224.619 148.28C224.089 147.73 224.009 147.76 223.299 148.05C222.509 148.37 221.189 148.91 219.449 147.78C212.379 143.19 210.239 138.16 208.339 133.72C206.909 130.37 205.679 127.48 202.539 125.26C200.439 123.77 197.849 123.27 195.449 123.89C193.439 124.41 191.829 125.63 191.039 127.26C190.029 129.35 190.439 131.94 190.969 133.75C192.329 138.38 195.719 142.86 200.279 146.06C203.419 148.25 207.229 149.99 212.289 151.54L212.299 151.52Z" fill="black"/>
<path d="M265.271 134.07C265.271 134.07 270.571 146.67 275.111 158C275.111 158 265.871 155.1 257.531 154.86" fill="#FF0000"/>
<path d="M275.109 159.14C274.999 159.14 274.879 159.12 274.769 159.09C274.679 159.06 265.579 156.24 257.489 156C256.859 155.98 256.359 155.45 256.379 154.82C256.399 154.19 256.909 153.73 257.559 153.71C263.549 153.88 269.889 155.37 273.179 156.25C268.909 145.66 264.269 134.63 264.219 134.51C263.979 133.93 264.249 133.26 264.829 133.01C265.409 132.76 266.079 133.04 266.329 133.62C266.379 133.75 271.689 146.36 276.179 157.56C276.339 157.97 276.259 158.44 275.959 158.76C275.739 159 275.429 159.13 275.119 159.13L275.109 159.14Z" fill="black"/>
<path d="M215.252 157.47C214.852 156.34 214.362 155.13 214.192 153.94C214.052 153.03 214.092 152.33 213.632 151.45C212.722 149.69 211.072 148.37 209.422 147.34C208.362 146.68 207.232 146.05 206.522 145.02C205.592 143.66 205.602 141.85 205.992 140.25C206.632 137.61 208.202 135.26 210.102 133.33C210.212 133.22 210.332 133.1 210.442 132.99C212.272 131.21 215.112 128.29 220.772 127.62C222.022 127.47 221.942 127.49 223.272 127.68C226.112 128.07 228.972 128.32 231.842 128.43C232.032 128.43 232.222 128.45 232.422 128.45C232.652 128.45 232.892 128.46 233.132 128.47C234.332 128.5 235.542 128.52 236.762 128.53C237.982 128.53 239.192 128.51 240.392 128.47C240.632 128.47 240.862 128.46 241.102 128.45C241.302 128.45 241.492 128.43 241.682 128.43C246.932 128.21 254.072 126.42 259.332 126.64V154.03" fill="white"/>
<path d="M215.248 158.61C214.778 158.61 214.338 158.32 214.168 157.85L213.958 157.25C213.598 156.24 213.218 155.2 213.058 154.1C213.028 153.87 212.998 153.65 212.978 153.44C212.908 152.84 212.868 152.45 212.618 151.97C211.948 150.69 210.708 149.48 208.818 148.3L208.468 148.08C207.478 147.47 206.348 146.77 205.588 145.66C204.598 144.21 204.348 142.19 204.888 139.98C205.528 137.36 207.008 134.85 209.298 132.53L209.808 132.02C211.658 130.21 214.758 127.18 220.648 126.48C221.888 126.33 222.008 126.33 223.168 126.5L223.438 126.54C226.228 126.92 229.068 127.17 231.888 127.28L233.158 127.32C235.528 127.39 237.978 127.39 240.358 127.32L241.628 127.28C243.808 127.19 246.308 126.82 248.958 126.43C252.538 125.91 256.248 125.35 259.378 125.49C259.988 125.52 260.468 126.02 260.468 126.63V154.02C260.468 154.65 259.958 155.16 259.328 155.16C258.698 155.16 258.188 154.65 258.188 154.02V127.76C255.498 127.78 252.348 128.24 249.288 128.69C246.578 129.09 244.018 129.46 241.728 129.56L240.428 129.61C238.008 129.68 235.508 129.68 233.098 129.61L231.808 129.57C228.908 129.46 225.998 129.2 223.128 128.81L222.848 128.77C222.235 128.683 221.595 128.68 220.928 128.76C215.818 129.37 213.168 131.96 211.418 133.67L210.938 134.14C208.948 136.17 207.658 138.32 207.118 140.53C206.898 141.44 206.648 143.16 207.488 144.38C207.978 145.1 208.808 145.61 209.688 146.15L210.048 146.38C212.328 147.81 213.788 149.26 214.658 150.93C215.108 151.79 215.188 152.51 215.258 153.2C215.278 153.38 215.298 153.57 215.328 153.77C215.458 154.64 215.798 155.57 216.118 156.48L216.338 157.09C216.548 157.69 216.228 158.34 215.638 158.55C215.518 158.59 215.388 158.61 215.258 158.61H215.248Z" fill="black"/>
<path d="M240.529 158.31C238.669 155.76 234.809 155.76 232.949 158.31Z" fill="white"/>
<path d="M240.529 159.45C240.179 159.45 239.829 159.29 239.609 158.98C238.939 158.06 237.9 157.54 236.74 157.54C235.58 157.54 234.539 158.07 233.869 158.98C233.499 159.49 232.78 159.6 232.27 159.23C231.76 158.86 231.65 158.14 232.02 157.63C233.12 156.12 234.839 155.25 236.729 155.25C238.619 155.25 240.34 156.12 241.44 157.63C241.81 158.14 241.7 158.85 241.19 159.23C240.99 159.38 240.75 159.45 240.52 159.45H240.529Z" fill="black"/>
<path d="M266.832 83.8105C261.882 89.3505 257.622 90.8405 251.692 88.6805C245.762 86.5205 243.012 79.1205 245.552 72.1405C248.092 65.1605 253.332 60.7305 260.882 63.4105C268.432 66.0905 273.342 76.5305 266.832 83.8205V83.8105Z" fill="#FFBF00"/>
<path d="M200.302 90.5504C206.262 94.9804 210.732 95.5904 216.112 92.2904C221.492 88.9904 222.702 81.1804 218.812 74.8504C214.922 68.5204 208.902 65.2304 202.042 69.3704C195.182 73.5104 192.462 84.7204 200.302 90.5504Z" fill="#FFBF00"/>
<path d="M193.599 111.6C193.539 110.78 193.519 109.94 193.549 109.07C193.839 102.66 196.869 98.7704 198.369 95.5704C201.099 89.7304 203.799 84.6304 209.079 80.7204C215.089 76.9804 222.779 74.3504 232.169 73.4204C241.559 72.4504 249.619 73.4904 256.259 75.9504C262.219 78.7204 265.879 83.1804 269.719 88.3504C271.829 91.1904 275.579 94.3904 277.149 100.61C277.359 101.46 277.509 102.29 277.609 103.1C277.999 108.61 276.449 113.12 273.419 116.79C267.419 123.63 255.859 127.8 242.809 129.69C242.619 129.72 242.429 129.75 242.229 129.77C241.999 129.8 241.759 129.83 241.529 129.86C240.339 130.01 239.139 130.16 237.919 130.28C236.699 130.4 235.499 130.5 234.299 130.59C234.069 130.61 233.829 130.63 233.599 130.64C233.399 130.65 233.209 130.66 233.019 130.67C219.859 131.44 207.699 129.67 200.449 124.17C196.739 121.18 194.319 117.07 193.599 111.6Z" fill="#FFBF00"/>
<path d="M235.951 107.82C260.761 105.31 269.901 109.54 272.021 118.22C265.731 124.21 254.921 127.93 242.811 129.68C242.621 129.71 242.431 129.74 242.231 129.76C242.001 129.79 241.761 129.82 241.531 129.85C240.341 130 239.141 130.15 237.921 130.27C236.701 130.39 235.501 130.49 234.301 130.58C234.071 130.6 233.831 130.62 233.601 130.63C233.401 130.64 233.211 130.65 233.021 130.66C221.031 131.36 209.891 129.94 202.511 125.53C202.331 116.32 210.821 110.35 235.941 107.8L235.951 107.82Z" fill="white"/>
<path d="M243.501 87.4598C239.951 87.8198 239.431 82.6998 238.791 76.3898C238.671 75.2398 238.631 74.1498 238.621 73.0898C241.051 73.0898 243.381 73.2698 245.611 73.5798C245.721 74.2598 245.811 74.9498 245.891 75.6698C246.531 81.9798 247.051 87.0998 243.501 87.4598Z" fill="#ED9600"/>
<path d="M234.348 90.4697C230.798 90.8297 230.278 85.7097 229.638 79.3997C229.428 77.3797 229.418 75.4797 229.538 73.7997C230.558 73.6397 231.548 73.4697 232.608 73.3597C233.668 73.2497 234.678 73.2297 235.708 73.1797C236.158 74.7997 236.528 76.6597 236.738 78.6797C237.378 84.9897 237.898 90.1097 234.348 90.4697Z" fill="#ED9600"/>
<path d="M224.77 89.3596C221.22 89.7196 220.7 84.5996 220.06 78.2896C219.99 77.5696 219.94 76.8696 219.91 76.1896C222.03 75.4296 224.28 74.7996 226.66 74.3096C226.86 75.3496 227.04 76.4296 227.16 77.5696C227.8 83.8796 228.32 88.9996 224.77 89.3596Z" fill="#ED9600"/>
<path d="M232.52 113.32C231.77 113.32 230.62 113.05 229.72 112.05C229.3 111.58 229.34 110.86 229.81 110.44C230.28 110.02 231 110.06 231.42 110.53C231.92 111.09 232.55 111.04 232.56 111.04C232.62 111.04 232.68 111.03 232.73 111.03C232.93 111.03 234.73 110.95 234.93 109.36C235.01 108.73 235.58 108.29 236.21 108.37C236.84 108.45 237.28 109.02 237.2 109.65C236.84 112.49 234.22 113.29 232.82 113.32C232.73 113.32 232.63 113.34 232.52 113.34V113.32Z" fill="black"/>
<path d="M239.139 112.66C237.699 112.66 235.739 112.08 234.989 109.87C234.789 109.27 235.109 108.62 235.699 108.42C236.299 108.22 236.949 108.54 237.149 109.13C237.669 110.65 239.439 110.36 239.639 110.33C239.689 110.33 239.749 110.31 239.799 110.31C239.839 110.31 240.439 110.23 240.819 109.58C241.139 109.03 241.839 108.85 242.379 109.17C242.929 109.49 243.109 110.19 242.789 110.73C242.009 112.06 240.719 112.52 239.999 112.58C239.749 112.63 239.449 112.66 239.129 112.66H239.139Z" fill="black"/>
<path d="M222.797 112.873C224.572 112.693 225.857 111.033 225.668 109.165C225.479 107.297 223.887 105.928 222.112 106.107C220.337 106.287 219.052 107.947 219.241 109.815C219.43 111.684 221.022 113.052 222.797 112.873Z" fill="black"/>
<path d="M249.727 110.144C251.501 109.965 252.787 108.304 252.598 106.436C252.409 104.568 250.817 103.199 249.042 103.379C247.267 103.558 245.981 105.219 246.171 107.087C246.36 108.955 247.952 110.324 249.727 110.144Z" fill="black"/>
<path d="M258.368 69.6401C254.738 68.5701 252.268 70.5101 251.018 73.6501C250.818 74.1501 251.068 74.7101 251.578 74.9001C254.888 76.0801 257.938 77.8301 260.728 80.1201C261.178 80.4901 261.858 80.3801 262.148 79.8701C264.638 75.6401 262.068 70.7301 258.358 69.6401H258.368Z" fill="white"/>
<path d="M205.739 74.9701C209.079 73.2001 211.889 74.6001 213.739 77.4201C214.039 77.8701 213.899 78.4701 213.439 78.7501C210.439 80.5701 207.799 82.8901 205.519 85.7001C205.149 86.1501 204.469 86.1801 204.079 85.7401C200.789 82.1001 202.329 76.7701 205.739 74.9601V74.9701Z" fill="white"/>
<path d="M227.25 131.99C217.85 131.99 206.98 130.56 199.76 125.09C195.64 121.77 193.2 117.29 192.46 111.75C192.38 110.7 192.37 109.85 192.41 109.02C192.65 103.75 194.62 100.14 196.21 97.2396C196.63 96.4696 197.02 95.7596 197.34 95.0796C198.04 93.5796 198.66 92.3196 199.25 91.1796C195.91 88.5296 194.2 84.7296 194.4 80.4296C194.64 75.5496 197.4 70.8196 201.44 68.3796C208.17 64.3096 215.03 66.5096 219.78 74.2396C219.85 74.3596 219.93 74.4896 220 74.6096C223.75 73.4796 227.8 72.6896 232.06 72.2696C236.31 71.8296 240.44 71.7896 244.34 72.1496C244.38 72.0096 244.43 71.8796 244.48 71.7496C247.58 63.2196 253.86 59.6996 261.27 62.3296C265.72 63.9096 269.37 67.9896 270.58 72.7196C271.65 76.8896 270.72 80.9596 267.99 84.2196C268.8 85.2196 269.66 86.3296 270.65 87.6496C271.1 88.2496 271.63 88.8696 272.19 89.5396C274.33 92.0596 276.98 95.1996 278.27 100.32C278.47 101.13 278.63 101.98 278.76 102.94C279.16 108.58 277.66 113.46 274.31 117.51C267.01 125.82 253.25 129.33 242.99 130.81L241.7 130.99C240.5 131.15 239.29 131.29 238.06 131.42C236.83 131.54 235.61 131.65 234.41 131.73L233.11 131.82C231.27 131.93 229.3 131.99 227.27 131.99H227.25ZM208.04 68.6696C206.4 68.6696 204.59 69.1496 202.62 70.3396C199.21 72.3996 196.88 76.3996 196.68 80.5396C196.5 84.2096 198.03 87.4396 200.98 89.6296L201.38 89.9196C201.85 90.2496 202 90.8896 201.72 91.3896C201 92.7196 200.26 94.1996 199.4 96.0496C199.06 96.7696 198.65 97.5296 198.21 98.3396C196.74 101.03 194.9 104.38 194.69 109.12C194.66 109.87 194.67 110.63 194.73 111.52C195.38 116.39 197.54 120.37 201.16 123.29C207.55 128.13 218.85 130.37 232.95 129.54L234.22 129.46C235.4 129.37 236.6 129.27 237.81 129.15C239.01 129.03 240.21 128.89 241.38 128.73L242.65 128.56C256.61 126.54 267.24 122.1 272.55 116.04C275.49 112.48 276.81 108.15 276.46 103.18C276.35 102.37 276.21 101.62 276.03 100.89C274.87 96.2896 272.41 93.3696 270.42 91.0296C269.82 90.3296 269.27 89.6696 268.79 89.0296C267.57 87.3896 266.55 86.0896 265.58 84.9296C265.21 84.4896 265.23 83.8496 265.61 83.4296L265.95 83.0596C268.4 80.3196 269.25 76.8496 268.34 73.2896C267.31 69.2696 264.23 65.8196 260.48 64.4896C251.73 61.3896 247.86 69.0796 246.6 72.5396C246.46 72.9196 246.34 73.3096 246.23 73.6996C246.08 74.2396 245.56 74.5996 245 74.5296C240.99 74.0896 236.7 74.0996 232.26 74.5596C227.81 74.9996 223.61 75.8496 219.77 77.0896C219.23 77.2696 218.66 77.0196 218.4 76.5196C218.22 76.1596 218.02 75.8096 217.81 75.4596C216.36 73.0996 212.99 68.6896 208.02 68.6896L208.04 68.6696Z" fill="black"/>
<path d="M246.284 134.448C250.055 134.153 252.902 131.231 252.643 127.922C252.384 124.612 249.116 122.169 245.345 122.465C241.573 122.76 238.726 125.683 238.985 128.992C239.244 132.301 242.512 134.744 246.284 134.448Z" fill="#FF0000"/>
<path d="M245.649 135.62C243.799 135.62 242.039 135.05 240.619 133.99C238.969 132.76 237.979 131.02 237.829 129.09C237.679 127.16 238.379 125.28 239.819 123.81C241.209 122.38 243.139 121.5 245.239 121.34C247.329 121.18 249.379 121.74 250.979 122.94C252.629 124.17 253.619 125.91 253.769 127.84C253.919 129.77 253.209 131.65 251.779 133.12C250.389 134.55 248.459 135.43 246.359 135.59C246.119 135.61 245.889 135.62 245.649 135.62ZM245.959 123.6C245.779 123.6 245.609 123.6 245.429 123.62C243.879 123.74 242.479 124.38 241.469 125.41C240.499 126.4 240.019 127.65 240.119 128.91C240.219 130.18 240.889 131.33 241.999 132.16C243.159 133.02 244.649 133.44 246.189 133.31C247.739 133.19 249.139 132.55 250.149 131.52C251.119 130.53 251.599 129.28 251.499 128.02C251.399 126.75 250.729 125.6 249.619 124.77C248.599 124.01 247.309 123.6 245.959 123.6Z" fill="black"/>
<path d="M229.498 135.756C233.27 135.46 236.117 132.538 235.858 129.229C235.599 125.92 232.331 123.477 228.56 123.773C224.788 124.068 221.941 126.99 222.2 130.299C222.459 133.608 225.727 136.051 229.498 135.756Z" fill="#FF0000"/>
<path d="M228.879 136.94C224.789 136.94 221.349 134.13 221.059 130.41C220.749 126.48 224.079 123 228.469 122.66C230.569 122.5 232.609 123.06 234.209 124.26C235.859 125.49 236.849 127.23 236.999 129.16C237.309 133.09 233.979 136.57 229.589 136.91C229.359 136.93 229.119 136.94 228.889 136.94H228.879ZM229.169 124.91C228.989 124.91 228.819 124.91 228.639 124.93C225.499 125.18 223.119 127.55 223.329 130.23C223.539 132.91 226.259 134.88 229.399 134.63C232.539 134.38 234.919 132.01 234.709 129.33C234.609 128.06 233.939 126.91 232.829 126.08C231.809 125.32 230.519 124.91 229.169 124.91Z" fill="black"/>
<path d="M229.39 130.89C228.8 130.89 228.3 130.44 228.25 129.84C228.2 129.21 228.67 128.66 229.3 128.61L245.89 127.31C246.53 127.29 247.07 127.73 247.12 128.36C247.17 128.99 246.7 129.54 246.07 129.59L229.48 130.89C229.48 130.89 229.42 130.89 229.39 130.89Z" fill="black"/>
<path d="M237.41 133.69C239.934 133.69 241.98 131.644 241.98 129.12C241.98 126.596 239.934 124.55 237.41 124.55C234.886 124.55 232.84 126.596 232.84 129.12C232.84 131.644 234.886 133.69 237.41 133.69Z" fill="#FF0000"/>
<path d="M237.411 134.84C234.461 134.84 231.951 132.56 231.721 129.57C231.471 126.43 233.831 123.68 236.971 123.43C240.121 123.17 242.871 125.54 243.111 128.68C243.231 130.2 242.751 131.68 241.761 132.84C240.771 134 239.381 134.7 237.861 134.82C237.711 134.83 237.561 134.84 237.411 134.84ZM233.991 129.39C234.141 131.27 235.811 132.69 237.671 132.54C238.581 132.47 239.411 132.05 240.011 131.35C240.611 130.65 240.891 129.77 240.821 128.86C240.671 126.98 239.011 125.57 237.141 125.71C235.261 125.86 233.841 127.51 233.991 129.39Z" fill="black"/>
<path d="M183.341 158.86H285.871C288.179 158.86 290.051 156.989 290.051 154.68V150.31C290.051 148.002 288.179 146.13 285.871 146.13H183.341C181.032 146.13 179.161 148.002 179.161 150.31V154.68C179.161 156.989 181.032 158.86 183.341 158.86Z" fill="#E5992A"/>
<path d="M285.862 160H183.332C180.392 160 178.012 157.61 178.012 154.68V150.32C178.012 147.38 180.402 145 183.332 145H285.862C288.802 145 291.182 147.39 291.182 150.32V154.68C291.182 157.62 288.792 160 285.862 160ZM183.342 147.27C181.662 147.27 180.302 148.63 180.302 150.31V154.67C180.302 156.35 181.662 157.71 183.342 157.71H285.872C287.552 157.71 288.912 156.35 288.912 154.67V150.31C288.912 148.63 287.552 147.27 285.872 147.27H183.342Z" fill="black"/>
<path d="M212.57 153.62C229.18 154.61 251.02 155.02 267.58 153.99L264.68 146.32C249.67 145.58 231.41 146.56 215.5 146.25L212.57 153.62Z" fill="white"/>
<path d="M245.488 155.73C233.588 155.73 221.688 155.3 212.508 154.76C212.138 154.74 211.808 154.54 211.608 154.23C211.408 153.92 211.378 153.54 211.508 153.2L214.438 145.83C214.618 145.39 215.068 145.09 215.518 145.11C222.338 145.24 229.718 145.14 236.858 145.04C246.338 144.9 256.148 144.76 264.738 145.19C265.188 145.21 265.588 145.5 265.748 145.93L268.648 153.6C268.778 153.94 268.738 154.32 268.538 154.62C268.338 154.92 268.008 155.12 267.648 155.14C260.738 155.57 253.108 155.74 245.478 155.74L245.488 155.73ZM214.218 152.57C228.708 153.38 249.238 153.87 265.968 152.94L263.888 147.43C255.548 147.05 246.068 147.19 236.898 147.32C230.018 147.42 222.908 147.52 216.278 147.41L214.218 152.58V152.57Z" fill="black"/>
<path d="M252.039 140.82C252.039 140.82 251.749 150.1 253.419 150.79C255.089 151.48 261.429 144.7 261.429 144.7L252.029 140.82H252.039Z" fill="#FFDA97"/>
<path d="M252.619 146.35C252.599 148.62 252.779 150.52 253.409 150.78C254.039 151.04 255.509 149.82 257.089 148.2C256.359 148.05 255.579 147.8 254.769 147.47C253.959 147.14 253.239 146.75 252.609 146.35H252.619Z" fill="#FF0000"/>
<path d="M253.612 151.96C253.382 151.96 253.172 151.92 252.982 151.84C251.382 151.18 250.682 147.46 250.892 140.78C250.902 140.41 251.102 140.06 251.412 139.86C251.732 139.66 252.122 139.62 252.472 139.76L261.872 143.64C262.222 143.78 262.472 144.09 262.552 144.45C262.632 144.81 262.522 145.2 262.272 145.47C258.242 149.78 255.342 151.96 253.612 151.96ZM253.152 142.52C253.152 145.78 253.452 148.77 253.892 149.65C254.822 149.33 257.142 147.42 259.442 145.11L253.152 142.51V142.52Z" fill="black"/>
<path d="M261.501 144.54C260.591 146.75 251.191 142.87 252.101 140.66L263.951 111.95L273.351 115.83L261.501 144.54Z" fill="#FF0000"/>
<path d="M260 146.35C258.37 146.35 256.48 145.65 255.68 145.32C254.33 144.76 250.01 142.75 251.04 140.23L262.89 111.52C263.01 111.24 263.23 111.02 263.51 110.9C263.79 110.78 264.1 110.78 264.38 110.9L273.78 114.78C274.36 115.02 274.64 115.69 274.4 116.27L262.55 144.98C262.12 146.01 261.12 146.35 259.99 146.35H260ZM253.2 141C253.38 141.39 254.46 142.34 256.55 143.21C258.64 144.07 260.08 144.16 260.48 144.01L271.85 116.46L264.56 113.45L253.19 141H253.2Z" fill="black"/>
<path d="M273.431 115.885C274.031 114.43 272.395 112.374 269.776 111.293C267.157 110.212 264.547 110.515 263.947 111.97C263.346 113.425 264.982 115.481 267.601 116.562C270.22 117.643 272.83 117.34 273.431 115.885Z" fill="#FFDA97"/>
<path d="M270.494 114.672C270.721 114.121 270.099 113.341 269.103 112.93C268.108 112.519 267.116 112.633 266.889 113.184C266.661 113.736 267.284 114.516 268.279 114.927C269.275 115.338 270.266 115.224 270.494 114.672Z" fill="#FF0000"/>
<path d="M270.62 118.41C269.55 118.41 268.35 118.17 267.14 117.66C265.7 117.06 264.46 116.18 263.65 115.16C262.7 113.97 262.42 112.67 262.87 111.58C263.74 109.48 266.88 108.92 270.19 110.28C271.63 110.88 272.87 111.76 273.68 112.78C274.63 113.97 274.91 115.27 274.46 116.36C273.91 117.69 272.45 118.4 270.62 118.4V118.41ZM266.71 111.84C265.77 111.84 265.12 112.1 264.97 112.46C264.85 112.75 265.03 113.24 265.43 113.75C265.99 114.46 266.93 115.12 268.01 115.56C270.22 116.47 272.09 116.14 272.35 115.5C272.47 115.21 272.29 114.72 271.89 114.21C271.33 113.5 270.39 112.84 269.31 112.4C268.34 112 267.44 111.84 266.71 111.84Z" fill="black"/>
<path d="M260.081 137.58C261.241 134.51 264.021 132.72 266.291 133.58C268.561 134.44 268.301 137.18 267.141 140.25C265.981 143.32 264.351 145.55 262.091 144.69C259.821 143.83 258.931 140.65 260.091 137.58H260.081Z" fill="white"/>
<path d="M263.05 146.02C262.54 146.02 262.07 145.91 261.67 145.76C260.23 145.21 259.17 143.98 258.69 142.27C258.25 140.69 258.36 138.88 259.01 137.17C260.39 133.52 263.83 131.42 266.69 132.5C268.52 133.19 270.27 135.17 268.2 140.65C267.49 142.52 266.72 143.86 265.83 144.75C264.87 145.71 263.9 146.02 263.05 146.02ZM261.15 137.98C260.67 139.24 260.58 140.54 260.9 141.65C261.18 142.63 261.74 143.33 262.49 143.62C262.93 143.79 263.49 143.86 264.22 143.13C264.87 142.48 265.49 141.38 266.07 139.84C267.2 136.86 267.14 135.11 265.89 134.64C264.25 134.02 262.08 135.55 261.16 137.98H261.15Z" fill="black"/>
<path d="M206.211 144.45C206.751 145.38 207.651 146.05 208.531 146.66C210.971 148.36 213.631 149.92 216.581 150.26C217.671 150.39 218.851 150.31 219.721 149.64C220.861 148.76 221.091 147.05 220.641 145.68C220.191 144.31 218.231 141.28 216.221 140.24" fill="white"/>
<path d="M217.42 151.45C217.11 151.45 216.79 151.43 216.45 151.39C213.16 151.01 210.27 149.26 207.88 147.59C206.9 146.9 205.88 146.14 205.23 145.02C204.91 144.47 205.1 143.78 205.64 143.46C206.18 143.14 206.88 143.32 207.2 143.87C207.62 144.59 208.38 145.16 209.19 145.72C211.35 147.22 213.93 148.8 216.72 149.12C217.76 149.25 218.54 149.12 219.03 148.74C219.77 148.16 219.86 146.95 219.56 146.04C219.18 144.88 217.38 142.12 215.7 141.26C215.14 140.97 214.92 140.28 215.21 139.72C215.5 139.16 216.19 138.94 216.75 139.23C219.13 140.45 221.23 143.8 221.73 145.32C222.38 147.3 221.85 149.44 220.43 150.54C219.65 151.14 218.64 151.45 217.43 151.45H217.42Z" fill="black"/>
</g>
<defs>
<clipPath id="clip0_1778_209">
<rect width="320" height="160" fill="white"/>
</clipPath>
</defs>
</svg>
