<?xml version="1.0" encoding="UTF-8"?>
<svg id="_레이어_1" data-name="레이어_1" xmlns="http://www.w3.org/2000/svg" version="1.1" xmlns:xlink="http://www.w3.org/1999/xlink" viewBox="0 0 320 160">
  <!-- Generator: Adobe Illustrator 29.5.1, SVG Export Plug-In . SVG Version: 2.1.0 Build 141)  -->
  <defs>
    <style>
      .st0, .st1, .st2, .st3, .st4, .st5, .st6 {
        stroke: #000;
      }

      .st0, .st1, .st2, .st3, .st5, .st6 {
        stroke-linecap: round;
        stroke-linejoin: round;
      }

      .st0, .st1, .st4, .st7 {
        fill: #c8f88b;
      }

      .st0, .st2 {
        stroke-width: 1.6px;
      }

      .st8, .st9, .st10 {
        fill: #fff;
      }

      .st1, .st3, .st4, .st11, .st6 {
        stroke-width: 2.4px;
      }

      .st12, .st2, .st11, .st5, .st6 {
        fill: none;
      }

      .st3 {
        fill: #00b81d;
      }

      .st4, .st11 {
        stroke-miterlimit: 10;
      }

      .st9 {
        opacity: .8;
      }

      .st13 {
        fill: url(#_무제_그라디언트_41);
      }

      .st13, .st14 {
        opacity: .5;
      }

      .st11 {
        stroke: #00b81d;
      }

      .st5 {
        stroke-width: 2.4px;
      }

      .st10 {
        opacity: .5;
      }

      .st15 {
        clip-path: url(#clippath);
      }

      .st14 {
        fill: url(#_무제_그라디언트_4);
      }
    </style>
    <clipPath id="clippath">
      <path class="st12" d="M238.4,68.9c10.9,39.3-18.8,61.2-59.9,72.6-41,11.4-77.8,8.1-88.7-31.3-10.9-39.3,13.9-78.8,55-90.2,41-11.4,82.7,9.6,93.6,48.9Z"/>
    </clipPath>
    <radialGradient id="_무제_그라디언트_4" data-name="무제 그라디언트 4" cx="616.3" cy="774.5" fx="616.3" fy="774.5" r="26.2" gradientTransform="translate(1231.8 -514.1) rotate(90) scale(1 1.3)" gradientUnits="userSpaceOnUse">
      <stop offset="0" stop-color="#fff"/>
      <stop offset="0" stop-color="#ffb776"/>
      <stop offset=".1" stop-color="#feb776" stop-opacity="1"/>
      <stop offset=".3" stop-color="#fcba78" stop-opacity=".9"/>
      <stop offset=".4" stop-color="#f9bf7b" stop-opacity=".9"/>
      <stop offset=".5" stop-color="#f5c67e" stop-opacity=".8"/>
      <stop offset=".6" stop-color="#efcf84" stop-opacity=".6"/>
      <stop offset=".7" stop-color="#e8da8a" stop-opacity=".5"/>
      <stop offset=".9" stop-color="#e0e791" stop-opacity=".3"/>
      <stop offset="1" stop-color="#d7f69a" stop-opacity="0"/>
      <stop offset="1" stop-color="#d6f89b" stop-opacity="0"/>
    </radialGradient>
    <radialGradient id="_무제_그라디언트_41" data-name="무제 그라디언트 4" cx="1652.7" cy="-411.1" fx="1652.7" fy="-411.1" r="26.2" gradientTransform="translate(1770.7 673.8) rotate(-180) scale(1 -1.3)" xlink:href="#_무제_그라디언트_4"/>
  </defs>
  <g>
    <g>
      <g>
        <path class="st3" d="M187.7,152.7c0,15.9-11.9,28.7-26.7,28.7s-28.8-7.6-28.8-28.7,14.1-28.7,28.8-28.7,26.7,12.9,26.7,28.7Z"/>
        <path class="st1" d="M205.3,131.8s12.7,9.3,7.1,24.6c0,0-3.6,9.5-13,5.5-12-5-5.4-29-5.4-29l11.3-1.2Z"/>
        <path class="st7" d="M201.7,147c-5.9-19.4-3.1-36.5-30.4-37.2h0s0,0,0,0,0,0,0,0h0c-27.3.7-24.4,17.7-30.4,37.2-5.6,18.4,8.9,29.9,30.4,30.6h0s0,0,0,0h0s0,0,0,0c21.4-.8,36-12.2,30.4-30.6Z"/>
        <path class="st2" d="M140,158.7"/>
        <path class="st1" d="M172.3,177.6c-.2,8.8-3.9,11.9-8.9,11.9s-10.2-4.8-10.2-4.8c-13.8-12.4-13.3-27.6-12.4-32.2.2-1.8.5-3.7,1.1-5.6.5-1.7,2.5-7.8,3.1-12.8"/>
        <path class="st2" d="M169.9,177.9"/>
        <path class="st1" d="M172.3,177.6c.2,8.8,3.9,11.9,8.9,11.9,5,0,10.2-4.8,10.2-4.8,13.8-12.4,13.3-27.6,12.4-32.2-.2-1.8-.5-3.7-1.1-5.6-.5-1.7-2.5-7.8-3.1-12.8"/>
        <path class="st3" d="M204,154.1s5.5-7.7-3.5-22l-7.9,3c4.9,4.2,8.4,11.2,11.4,19Z"/>
        <path class="st8" d="M189.3,158.2c0,10.2-1.8,18.4-17.7,18.4s-17.7-8.2-17.7-18.4,7.9-18.4,17.7-18.4,17.7,8.2,17.7,18.4Z"/>
        <path class="st6" d="M164.8,176.5s5.8,1.7,14.4-.3"/>
      </g>
      <g>
        <g>
          <g>
            <path class="st5" d="M151.6,11.2c0,0-8.5-.5-6.8,9.2"/>
            <path class="st5" d="M134.5,16c0,0,7.1-4.8,10.6,4.4"/>
          </g>
          <g>
            <path class="st4" d="M238.4,68.9c10.9,39.3-18.8,61.2-59.9,72.6-41,11.4-77.8,8.1-88.7-31.3-10.9-39.3,13.9-78.8,55-90.2,41-11.4,82.7,9.6,93.6,48.9Z"/>
            <g class="st15">
              <g>
                <ellipse class="st14" cx="225.6" cy="102.2" rx="34.1" ry="26.2" transform="translate(1.3 207.2) rotate(-49.5)"/>
                <ellipse class="st13" cx="118.1" cy="132.1" rx="26.2" ry="34.1" transform="translate(-44.6 202.4) rotate(-71.6)"/>
              </g>
            </g>
          </g>
          <path class="st2" d="M238.4,68.9c10.9,39.3-18.8,61.2-59.9,72.6-41,11.4-77.8,8.1-88.7-31.3-10.9-39.3,13.9-78.8,55-90.2,41-11.4,82.7,9.6,93.6,48.9Z"/>
        </g>
        <g>
          <circle class="st10" cx="127.7" cy="90.1" r="31.6"/>
          <circle class="st10" cx="195.1" cy="71.1" r="31.6"/>
          <g>
            <circle class="st11" cx="127.7" cy="90.1" r="31.6"/>
            <circle class="st11" cx="195.1" cy="71.1" r="31.6"/>
            <path class="st11" d="M159.7,90.6s3.7-3.6,8.6-2.4"/>
          </g>
          <path class="st9" d="M209.3,50.4c8.1,5.8,11.5,14.9,7.7,20.2-3.9,5.3-10,0-18.1-5.7-8.1-5.8-15-10.1-11.1-15.4,3.9-5.3,13.5-4.9,21.6.9Z"/>
        </g>
        <g>
          <g>
            <path class="st6" d="M183.2,105.1s-.6,3.6-4.6,4.3c-3.9.7-7.8-1-9.3-3.6"/>
            <path class="st6" d="M157.1,112.2s2.4,2.8,6.1,1.3c3.7-1.4,6.2-4.9,6.1-7.9"/>
          </g>
          <path d="M196.4,91.8c-2.3,0-4.8-.5-7.6-1.6-9.1-3.6-8.6-9.2-7.9-11.5,1.1-3.7,4.9-7.1,7.4-6.6.9.2,1.6,1.1,1.4,2.1-.2.9-1,1.5-1.9,1.4-.9.2-3.4,2.4-3.7,5-.3,3.2,3.1,5.2,6,6.4,7.1,2.8,11.7.7,12.6-1.7.8-2-.9-4.2-4.3-5.7-3.3-1.4-6.1-1-7.2,0-.2.1-.4.4-.4.7,0,.4.9,1.3,3.4,2,.9.2,1.5,1.2,1.2,2.1-.2.9-1.2,1.5-2.1,1.2-4.5-1.2-5.7-3.4-5.9-4.6-.3-1.5.2-3,1.5-4.1,2.4-2,6.6-2.3,10.8-.6,6.1,2.5,7.5,6.9,6.2,10.2-1.2,3-4.6,5.2-9.5,5.2Z"/>
          <path d="M148.6,86.2c2.2,2.7,2.2,7.3-2.9,11.6-3.4,2.9-7.5,3.9-10.5,2.7-1.6-.7-2.6-1.9-2.7-3.5,0-1.2.3-3.7,4.3-6.2.8-.5,1.9-.3,2.4.6.5.8.3,1.9-.6,2.4-2.2,1.4-2.7,2.5-2.7,2.9,0,.3.4.5.6.5,1.4.6,4.1.1,6.9-2.2,2.9-2.4,3.8-5,2.4-6.7-1.6-2-6.6-2.6-12.5,2.2-2.5,2-5.1,5-3.8,7.9,1.1,2.4,4.1,3.8,5,3.7.8-.4,1.8,0,2.2.8.5.8.2,1.9-.7,2.4-2.2,1.2-6.9-.9-9-4.1-1.3-2-3.5-7.2,4.1-13.3,2.3-1.9,4.6-3.1,6.8-3.8,4.7-1.5,8.6-.4,10.6,2.1Z"/>
        </g>
      </g>
    </g>
    <path class="st1" d="M143.2,147.1c-4.7.4-10.3-2-10.2-2.5,0,0,4-.8,5-5.7,1.4-7.1-7.5-8.9-7.5-8.9,1.5-1.9,3.5-3,2.7-5.3s-3.6-1.9-3.6-1.9c-10.5,2.2-11,15.5-11,15.5-1.3,15.8,13.4,22.2,23.9,24.6"/>
    <path class="st0" d="M138.8,164.9"/>
    <path class="st3" d="M137.9,164.5s6.4-3.9,5.4-17l7.2-.7s1.4,16.6-9.3,23.8"/>
  </g>
  <path class="st6" d="M200.4,15.7c1-2.2,3.5-3.2,5.7-2.3s3.2,3.5,2.3,5.7"/>
  <path class="st6" d="M217.7,24.9c1.6-1.8,4.3-2,6.2-.5,1.8,1.6,2,4.3.5,6.2"/>
  <path class="st6" d="M199.9,5c1-2.2,3.5-3.2,5.7-2.3s3.2,3.5,2.3,5.7"/>
  <path class="st6" d="M219.5,12.6c1.6-1.8,4.3-2,6.2-.5,1.8,1.6,2,4.3.5,6.2"/>
</svg>