<svg width="350" height="350" viewBox="0 0 350 350" fill="none" xmlns="http://www.w3.org/2000/svg">
<mask id="mask0_622_4516" style="mask-type:luminance" maskUnits="userSpaceOnUse" x="0" y="0" width="350" height="350">
<path d="M350 0H0V350H350V0Z" fill="white"/>
</mask>
<g mask="url(#mask0_622_4516)">
<path d="M136.671 290.47H109.801V328.33H136.671V290.47Z" fill="#C8C8FF"/>
<path d="M200.311 372.54C198.031 372.29 195.771 371.88 193.541 371.29C187.501 369.69 183.901 363.5 185.501 357.46C187.101 351.42 193.281 347.83 199.331 349.42C206.181 351.23 214.001 349.75 219.711 345.56C225.431 341.36 229.181 334.36 229.511 327.27C229.591 325.5 229.491 323.49 229.371 321.38C229.221 318.53 229.051 315.3 229.311 311.9C230.141 301.02 235.531 291.79 243.721 287.21C250.311 283.53 259.371 282.81 266.271 285.42C271.651 287.46 275.581 291.37 277.341 296.42C279.401 302.32 276.281 308.77 270.391 310.82C267.571 311.8 264.421 311.62 261.731 310.32C260.181 309.57 259.151 308.03 257.651 307.2C255.181 305.83 252.231 307.45 252.031 310.17C251.781 313.48 251.791 316.84 251.961 320.17C252.091 322.62 252.241 325.4 252.101 328.3C251.461 342.25 244.351 355.52 233.091 363.78C223.691 370.68 211.821 373.78 200.301 372.53L200.311 372.54Z" fill="#C8C8FF" stroke="black" stroke-width="5.33" stroke-miterlimit="10" stroke-linecap="round"/>
<path d="M167.61 393.55C167.19 411.62 160.57 418.12 151.4 418.12C142.23 418.12 132.83 408.34 132.83 408.34C107.59 382.9 104.52 355.05 106.07 345.57C106.07 345.57 106.54 333.64 111.6 318.68" fill="#C8C8FF"/>
<path d="M167.61 393.55C167.19 411.62 160.57 418.12 151.4 418.12C142.23 418.12 132.83 408.34 132.83 408.34C107.59 382.9 104.52 355.05 106.07 345.57C106.07 345.57 106.54 333.64 111.6 318.68" stroke="black" stroke-width="5.33" stroke-miterlimit="10" stroke-linecap="round"/>
<path d="M113.23 305.68C113.23 336.13 139.79 384.7 166.26 384.7C192.74 384.7 222.14 351.45 222.14 321C222.14 290.55 192.73 274.44 166.26 274.44C139.78 274.44 113.23 275.24 113.23 305.68Z" fill="#C8C8FF"/>
<path d="M159.439 394.12C159.859 412.19 170.669 418.12 184.069 418.12C195.039 418.12 204.199 408.34 204.199 408.34C229.439 382.9 228.359 351.66 226.809 342.18C226.529 338.47 225.879 334.6 224.779 330.56C223.829 327.07 220.149 314.44 219.139 304.29" fill="#C8C8FF"/>
<path d="M159.439 394.12C159.859 412.19 170.669 418.12 184.069 418.12C195.039 418.12 204.199 408.34 204.199 408.34C229.439 382.9 228.359 351.66 226.809 342.18C226.529 338.47 225.879 334.6 224.779 330.56C223.829 327.07 220.149 314.44 219.139 304.29" stroke="black" stroke-width="5.33" stroke-miterlimit="10" stroke-linecap="round"/>
<path d="M125.531 355.19C126.501 376.06 130.531 392.83 159.431 391.49C188.331 390.15 190.801 373.08 189.831 352.21C188.861 331.34 173.681 315.09 155.931 315.91C138.171 316.73 124.561 334.32 125.531 355.19Z" fill="white"/>
<path d="M44.5503 184.56C44.5203 182.02 44.5603 179.42 44.6803 176.77C46.8503 127.67 52.4603 43.4001 183.74 41.4401C273.99 40.1001 330.4 117.22 325.72 180.72C319.81 260.77 277.72 285.61 218.84 297.91C187.63 303.04 157.24 302.31 127.7 295.47C127.7 295.47 43.3303 283.41 34.3503 234.73C34.3503 234.73 27.3403 201.72 44.5503 184.57V184.56Z" fill="white"/>
<path d="M44.5503 184.56C44.5203 182.02 44.5603 179.42 44.6803 176.77C46.8503 127.67 52.4603 43.4001 183.74 41.4401C273.99 40.1001 330.4 117.22 325.72 180.72C323.89 205.49 318.3 220.79 309.01 237.56C308.92 237.61 308.83 237.68 308.75 237.71C252.49 261.64 170.86 255.03 137.14 214.69C134.28 211.27 130.27 207.62 126.03 207.78C121.87 207.08 117.48 210.16 114.28 213.14C92.0303 233.84 62.6803 241.54 36.6103 242.64C35.6403 240.11 34.8603 237.48 34.3503 234.71C34.3503 234.71 27.3403 201.7 44.5503 184.55V184.56Z" fill="#C8C8FF"/>
<path opacity="0.2" d="M34.3503 234.72C34.3503 234.72 27.3403 201.71 44.5503 184.56C44.5203 182.02 44.5603 179.42 44.6803 176.77C44.7803 174.5 43.7403 180.79 43.8603 178.34C61.9903 182.83 77.0003 199.98 75.9603 215.9C75.3103 225.91 69.2003 234.38 60.1703 239.78C52.2103 241.41 44.2703 242.32 36.6103 242.64C35.6403 240.11 34.8603 237.48 34.3503 234.71V234.72Z" fill="url(#paint0_radial_622_4516)"/>
<path opacity="0.2" d="M177.669 223.12C176.409 242.9 197.299 260.94 225.089 263.47C253.739 266.08 278.679 251.29 279.969 230.38C281.269 209.48 258.399 191.33 229.709 189.87C201.889 188.45 178.929 203.35 177.669 223.12Z" fill="url(#paint1_radial_622_4516)"/>
<path d="M55.5905 218.45C55.4605 220.44 56.8505 222.17 58.7105 222.31C60.5705 222.45 62.1905 220.95 62.3205 218.95C62.4505 216.95 61.0505 215.23 59.1905 215.09C57.3305 214.96 55.7305 216.46 55.6005 218.45H55.5905Z" fill="black"/>
<path d="M75.9701 196.81C81.2001 198.27 90.0401 200.74 94.7801 202.06C96.6601 202.59 97.8801 204.53 97.5601 206.55C95.9701 216.58 91.1601 223.87 83.0901 223.26C83.0901 223.26 69.7301 223.3 71.2701 200.34C71.4301 197.87 73.7301 196.18 75.9701 196.8V196.81Z" fill="black"/>
<path d="M184.04 203.26C178 204.11 167.95 205.53 162.66 206.28C160.58 206.57 159.01 208.41 159.08 210.53C159.42 221.06 163.57 229.31 172.43 229.97C172.43 229.97 187.32 232.21 188.85 207.63C189.01 204.99 186.66 202.89 184.04 203.26Z" fill="black"/>
<path d="M136.251 234.79L125.261 221.78L112.711 232.9" stroke="black" stroke-width="6.4" stroke-linecap="round" stroke-linejoin="round"/>
<path d="M44.5503 184.56C44.5203 182.02 44.5603 179.42 44.6803 176.77C46.8503 127.67 52.4603 43.4001 183.74 41.4401C273.99 40.1001 330.4 117.22 325.72 180.72C319.81 260.77 277.72 285.61 218.84 297.91C187.63 303.04 157.24 302.31 127.7 295.47C127.7 295.47 43.3303 283.41 34.3503 234.73C34.3503 234.73 27.3403 201.72 44.5503 184.57V184.56Z" stroke="black" stroke-width="5.33" stroke-linecap="round" stroke-linejoin="round"/>
<path d="M304.801 120.18C306.531 60.5601 293.291 3.47007 258.721 6.75007C236.421 8.86007 200.891 52.9001 200.891 52.9001" fill="#C8C8FF"/>
<path d="M304.801 120.18C306.531 60.5601 293.291 3.47007 258.721 6.75007C236.421 8.86007 200.891 52.9001 200.891 52.9001" stroke="black" stroke-width="5.33" stroke-miterlimit="10" stroke-linecap="round"/>
<path d="M248.221 28.9702C263.961 27.6202 267.601 60.8502 266.981 97.5102C266.931 100.46 263.771 101.97 261.781 99.9702C246.731 84.7802 231.351 73.0202 215.431 66.9702C213.351 66.1802 212.661 63.2902 214.081 61.4602C221.331 52.1502 239.631 29.7102 248.231 28.9702H248.221Z" fill="white"/>
<path d="M60.8197 102.91C57.9997 41.3401 61.7597 -0.00989723 89.8997 5.6301C111.84 10.0301 145.83 53.0301 145.83 53.0301" fill="#C8C8FF"/>
<path d="M60.8197 102.91C57.9997 41.3401 61.7597 -0.00989717 89.8997 5.6301C111.84 10.0301 145.83 53.0301 145.83 53.0301" stroke="black" stroke-width="5.33" stroke-miterlimit="10" stroke-linecap="round"/>
<path d="M77.9196 94.54C76.2596 96.49 73.0596 95.44 72.8296 92.89C71.4896 77.99 69.4196 44.66 76.2796 32.87C83.8696 19.82 107.11 55.51 113.97 66.59C114.94 68.16 114.24 70.24 112.5 70.86C105.72 73.31 90.1096 80.14 77.9196 94.54Z" fill="white"/>
<path d="M175.35 290.82C170.63 309.62 185.99 313.56 185.99 313.56C188.86 330.43 198.92 347.03 213.9 341.2C223.8 337.35 234.15 331.54 229.39 294.62L219.84 296.67" fill="#C8C8FF"/>
<path d="M175.35 290.82C170.63 309.62 185.99 313.56 185.99 313.56C188.86 330.43 198.92 347.03 213.9 341.2C223.8 337.35 234.15 331.54 229.39 294.62L219.84 296.67" stroke="black" stroke-width="5.33" stroke-miterlimit="10" stroke-linecap="round"/>
<path d="M107.929 292.3C107.929 292.3 55.6094 346.25 157.569 366.16C157.569 366.16 187.499 370.49 193.109 357.26C200.219 340.49 187.209 329.59 178.389 329.97C169.699 330.34 135.999 324.91 130.479 321.9" fill="#C8C8FF"/>
<path d="M107.929 292.3C107.929 292.3 55.6094 346.25 157.569 366.16C157.569 366.16 187.499 370.49 193.109 357.26C200.219 340.49 187.209 329.59 178.389 329.97C169.699 330.34 135.999 324.91 130.479 321.9" stroke="black" stroke-width="5.33" stroke-miterlimit="10" stroke-linecap="round"/>
<path d="M175.351 290.82C166.331 289.62 159.041 286.65 160.241 278.67C161.671 269.15 172.811 268.2 184.091 268.95C186.931 269.14 189.581 269.64 191.941 270.38C193.051 270.73 194.151 269.89 194.171 268.72C194.271 262.32 196.661 256.8 205.451 255.62C216.481 254.14 219.961 263.64 216.631 271.26C214.221 278.29 216.951 292.96 221.821 302.49" fill="#C8C8FF"/>
<path d="M175.351 290.82C166.331 289.62 159.041 286.65 160.241 278.67C161.671 269.15 172.811 268.2 184.091 268.95C186.931 269.14 189.581 269.64 191.941 270.38C193.051 270.73 194.151 269.89 194.171 268.72C194.271 262.32 196.661 256.8 205.451 255.62C216.481 254.14 219.961 263.64 216.631 271.26C214.221 278.29 216.951 292.96 221.821 302.49" stroke="black" stroke-width="5.33" stroke-miterlimit="10" stroke-linecap="round"/>
<path d="M155.281 85.26C158.891 84.46 161.621 86.71 162.361 90.05C163.101 93.4 161.571 96.58 157.961 97.38C154.351 98.18 146.891 97.94 145.931 93.57C144.971 89.2 151.671 86.06 155.281 85.26Z" fill="#FF8B00" stroke="black" stroke-width="2.64" stroke-linecap="round" stroke-linejoin="round"/>
<path d="M167.801 87.3602C171.811 85.5402 173.981 87.5202 175.391 90.6502C176.801 93.7702 176.941 96.8602 172.921 98.6802C168.911 100.5 160.301 102.38 158.461 98.2902C156.611 94.2102 163.791 89.1802 167.801 87.3602Z" fill="#FF8B00" stroke="black" stroke-width="2.88" stroke-linecap="round" stroke-linejoin="round"/>
<path d="M186.71 79.3802C186.88 77.1502 186.58 74.9802 185.93 72.9202L186 72.8602C184.64 68.3502 181.59 64.8802 177.92 62.3902C175.03 60.3602 171.56 58.8802 167.75 58.1602C167.72 58.1602 167.7 58.1502 167.67 58.1402C167.28 58.0702 166.89 58.0002 166.5 57.9402C165.86 57.8402 165.24 57.7602 164.63 57.7202C164.63 57.7202 164.61 57.7202 164.6 57.7202H164.58C163.97 57.6702 163.34 57.6602 162.7 57.6602C162.3 57.6602 161.9 57.6602 161.5 57.6802C161.48 57.6802 161.46 57.6802 161.43 57.6802C157.54 57.8302 153.9 58.7802 150.73 60.3702C146.73 62.2902 143.21 65.2602 141.2 69.5302L141.26 69.6002C140.31 71.5402 139.7 73.6402 139.53 75.8702C138.71 86.8502 148.96 91.7602 161.96 92.9702C161.96 92.9702 161.98 92.9702 161.99 92.9702H162.01C175.05 93.6902 185.9 90.3502 186.72 79.3702L186.71 79.3802Z" fill="#FFE800"/>
<path d="M167.78 10.9001C148.58 9.47006 131.97 22.4801 130.6 40.8701C129.6 54.2701 137.36 61.6501 149.07 65.2201C153.43 66.5501 158.34 67.3501 163.55 67.7401C168.81 68.1301 173.84 68.0601 178.38 67.3701C190.42 65.5401 199.12 59.3901 200.11 46.0401C201.48 27.6501 186.97 12.3301 167.77 10.9001H167.78Z" fill="#FFE800"/>
<path d="M185.99 72.8601C185.27 70.4501 184.05 68.35 182.52 66.52C192.38 63.97 199.24 57.8 200.12 46.03C201.49 27.64 186.98 12.3201 167.78 10.8901C148.58 9.46005 131.97 22.4701 130.6 40.8601C129.71 52.8001 135.79 59.9501 145.4 63.89C143.69 65.44 142.23 67.3 141.18 69.52L141.24 69.59C140.29 71.53 139.68 73.6301 139.51 75.8601C138.69 86.8401 148.94 91.7501 161.94 92.9601C161.94 92.9601 161.96 92.9601 161.97 92.9601H161.99C170.67 93.4401 177.93 91.5801 182.81 87.9401C186.74 85.0101 193.15 78.3901 192.02 74.32C192.02 74.32 191.38 71.74 185.98 72.84L185.99 72.8601Z" fill="#FFE800" stroke="black" stroke-width="2.64" stroke-linecap="round" stroke-linejoin="round"/>
<path d="M152.07 50.7501C152.23 48.4301 155.19 46.7101 158.69 46.9501C162.19 47.1901 164.89 49.2901 164.73 51.6101C164.57 53.9301 161.61 55.6101 158.12 55.3801C154.62 55.1401 151.92 53.0701 152.07 50.7601V50.7501Z" fill="#FF7400" stroke="black" stroke-width="1.76" stroke-miterlimit="10"/>
<path d="M154.77 51.62C154.87 50.16 156.58 49.06 158.58 49.2C160.58 49.34 162.13 50.65 162.03 52.12C161.93 53.58 160.23 54.66 158.22 54.52C156.22 54.38 154.67 53.09 154.77 51.63V51.62Z" fill="#B20000"/>
<path d="M150.871 52.0201C151.041 49.7701 154.411 51.8601 158.451 52.1601C162.491 52.4601 165.681 50.8501 165.511 53.1001C165.361 55.0901 160.771 56.3801 157.921 56.1601C155.071 55.9501 150.721 54.0001 150.871 52.0101V52.0201Z" fill="#FF8B00" stroke="black" stroke-width="1.76" stroke-linecap="round" stroke-linejoin="round"/>
<path d="M173.431 44.1302C173.291 46.0302 172.301 47.5002 170.411 47.3602C168.531 47.2202 167.761 45.6102 167.911 43.7102C168.051 41.8102 168.921 40.3302 170.931 40.4802C172.941 40.6302 173.581 42.2302 173.431 44.1302Z" fill="black"/>
<path d="M148.88 42.3101C148.74 44.2101 147.75 45.6801 145.86 45.5401C143.98 45.4001 143.21 43.7901 143.36 41.8901C143.5 39.9901 144.37 38.5101 146.38 38.6601C148.39 38.8101 149.03 40.4101 148.88 42.3101Z" fill="black"/>
<path d="M168.28 2.66011C151.69 1.43011 137.159 11.6601 133.929 26.7501C133.549 28.5101 135.3 29.9801 136.96 29.2701L143.91 26.2701C144.58 25.9801 145.35 26.0401 145.96 26.4301L154.35 31.7801C154.97 32.1801 155.749 32.2401 156.429 31.9301L165.5 27.8801C166.17 27.5801 166.96 27.6401 167.58 28.0301L175.95 33.3701C176.569 33.7701 177.35 33.8301 178.03 33.5201L187.1 29.4701C187.77 29.1701 188.549 29.2301 189.179 29.6201L195.31 33.5201C196.84 34.4901 198.81 33.3001 198.69 31.4901C197.7 16.1101 184.85 3.87011 168.28 2.64011V2.66011Z" fill="white" stroke="black" stroke-width="2.64" stroke-linecap="round" stroke-linejoin="round"/>
<path d="M182.14 72.1401C186.38 71.8401 188.77 68.2201 188.7 63.0901C188.61 55.9301 182.05 51.2801 177.81 51.5801C173.57 51.8801 177.72 57.7001 175.18 65.7901C173.99 69.5701 177.89 72.4401 182.14 72.1401Z" fill="#FFBA00" stroke="black" stroke-width="2.64" stroke-linecap="round" stroke-linejoin="round"/>
<path d="M139.27 70.2901C135.02 70.0501 132.58 66.4701 132.57 61.3401C132.55 54.1801 139.04 49.4301 143.29 49.6701C147.54 49.9101 143.47 55.7801 146.13 63.8401C147.37 67.6001 143.52 70.5301 139.27 70.2901Z" fill="#FFBA00" stroke="black" stroke-width="2.64" stroke-linecap="round" stroke-linejoin="round"/>
</g>
<defs>
<radialGradient id="paint0_radial_622_4516" cx="0" cy="0" r="1" gradientUnits="userSpaceOnUse" gradientTransform="translate(34.9908 210.916) rotate(-177.28) scale(46.494 34.398)">
<stop stop-color="#FF90FF"/>
<stop offset="0.14" stop-color="#FF91FF" stop-opacity="0.99"/>
<stop offset="0.26" stop-color="#FF96FF" stop-opacity="0.94"/>
<stop offset="0.38" stop-color="#FF9FFF" stop-opacity="0.86"/>
<stop offset="0.51" stop-color="#FFAAFF" stop-opacity="0.76"/>
<stop offset="0.63" stop-color="#FFBAFF" stop-opacity="0.62"/>
<stop offset="0.75" stop-color="#FFCCFF" stop-opacity="0.45"/>
<stop offset="0.87" stop-color="#FFE3FF" stop-opacity="0.25"/>
<stop offset="0.99" stop-color="#FFFCFF" stop-opacity="0.03"/>
<stop offset="1" stop-color="white" stop-opacity="0"/>
</radialGradient>
<radialGradient id="paint1_radial_622_4516" cx="0" cy="0" r="1" gradientUnits="userSpaceOnUse" gradientTransform="translate(229.281 227.189) rotate(-177.28) scale(50.6145 37.4465)">
<stop stop-color="#FF90FF"/>
<stop offset="0.14" stop-color="#FF91FF" stop-opacity="0.99"/>
<stop offset="0.26" stop-color="#FF96FF" stop-opacity="0.94"/>
<stop offset="0.38" stop-color="#FF9FFF" stop-opacity="0.86"/>
<stop offset="0.51" stop-color="#FFAAFF" stop-opacity="0.76"/>
<stop offset="0.63" stop-color="#FFBAFF" stop-opacity="0.62"/>
<stop offset="0.75" stop-color="#FFCCFF" stop-opacity="0.45"/>
<stop offset="0.87" stop-color="#FFE3FF" stop-opacity="0.25"/>
<stop offset="0.99" stop-color="#FFFCFF" stop-opacity="0.03"/>
<stop offset="1" stop-color="white" stop-opacity="0"/>
</radialGradient>
</defs>
</svg>
