<?xml version="1.0" encoding="UTF-8"?><svg id="_레이어_2" xmlns="http://www.w3.org/2000/svg" viewBox="0 0 500 500"><defs><style>.cls-1{fill:#fff;}.cls-2{fill:none;}.cls-3{fill:#15822c;}</style></defs><g id="_레이어_1-2"><rect class="cls-2" width="500" height="500"/><path class="cls-1" d="M245.65,399.23c-78.25,0-141.91-63.66-141.91-141.91s63.66-141.91,141.91-141.91,141.91,63.66,141.91,141.91-63.66,141.91-141.91,141.91ZM245.65,186.76c-38.91,0-70.56,31.66-70.56,70.56s31.66,70.56,70.56,70.56,70.56-31.66,70.56-70.56-31.66-70.56-70.56-70.56Z"/><path class="cls-3" d="M245.65,128.5c-71.15,0-128.82,57.68-128.82,128.82s57.68,128.82,128.82,128.82,128.82-57.68,128.82-128.82-57.68-128.82-128.82-128.82ZM245.65,340.97c-46.2,0-83.65-37.45-83.65-83.65s37.45-83.65,83.65-83.65,83.65,37.45,83.65,83.65-37.45,83.65-83.65,83.65Z"/></g></svg>