<svg width="248" height="181" viewBox="0 0 248 181" fill="none" xmlns="http://www.w3.org/2000/svg">
<mask id="mask0_1344_688" style="mask-type:luminance" maskUnits="userSpaceOnUse" x="0" y="0" width="248" height="181">
<path d="M247.5 0.5H0V180.5H247.5V0.5Z" fill="white"/>
</mask>
<g mask="url(#mask0_1344_688)">
<path d="M48.613 121.305L55.1267 99.9078C55.1267 99.9078 43.438 105.004 33.448 87.3303C29.4767 80.3103 19.0705 74.8766 12.0955 84.0566C8.82172 88.3653 7.38172 96.3753 9.63172 101.663C12.478 108.334 19.2842 120.518 48.6017 121.305H48.613Z" fill="#FFCBF1"/>
<path d="M48.6127 122.249H48.5902C20.3077 121.495 12.3202 110.346 8.76522 102.033C6.48147 96.6776 7.64022 88.3526 11.3415 83.4814C14.874 78.8464 18.9127 78.1038 21.714 78.2838C27.2602 78.6551 32.019 82.8626 34.2802 86.8564C43.7415 103.585 54.6427 99.0739 54.744 99.0289C55.0815 98.8826 55.4752 98.9388 55.7565 99.1863C56.0377 99.4338 56.139 99.8163 56.0377 100.176L49.524 121.574C49.4002 121.979 49.029 122.249 48.6127 122.249ZM20.949 80.1626C17.8777 80.1626 15.0877 81.7038 12.849 84.6288C9.92397 88.4763 8.29272 96.0813 10.509 101.29C12.624 106.24 18.1927 119.324 47.904 120.325L53.709 101.256C49.884 101.965 40.5915 101.898 32.6152 87.7901C30.6015 84.2351 26.4165 80.5001 21.579 80.1738C21.3652 80.1626 21.1515 80.1514 20.9377 80.1514L20.949 80.1626Z" fill="black"/>
<path d="M49.3772 119.494L51.0647 110.573C51.0647 110.573 32.9184 105.195 26.4384 95.2167C23.8622 91.2567 18.6084 86.5992 13.7034 91.4254C11.6222 93.4729 11.5434 98.1642 12.9497 101.067C18.7659 113.003 28.7109 115.444 49.3772 119.494Z" fill="white"/>
<path d="M121.705 92.133C138.107 65.2905 131.267 51.273 126.891 44.2755C123.28 38.493 114.505 34.4655 108.092 34.7355C94.4348 35.3092 92.6573 49.113 96.7973 57.7305C104.121 72.9742 99.936 81.4117 96.7973 85.0792C91.9148 84.8317 86.8973 85.1692 81.8348 86.1817C69.876 88.5555 60.5273 93.0667 52.6973 100.807C46.2173 107.219 44.046 114.453 41.7848 126.299C39.5235 138.157 37.0035 140.53 38.3423 149.215C42.5048 176.137 69.156 180.58 99.351 174.595C129.546 168.61 152.215 154.593 146.545 125.984C143.575 110.999 134.237 99.153 121.694 92.133H121.705Z" fill="#FFCBF1"/>
<path d="M77.7061 177.891C66.1411 177.891 56.7361 175.494 49.9636 170.758C43.1011 165.954 38.8823 158.754 37.4311 149.372C36.5086 143.409 37.3748 140.226 38.6798 135.411C39.3548 132.913 40.1198 130.089 40.8736 126.141C43.2586 113.664 45.5311 106.588 52.0561 100.142C59.8298 92.4469 69.2461 87.7219 81.6773 85.2582C86.5261 84.3019 91.4761 83.9194 96.3923 84.1219C99.3286 80.4432 102.816 72.4219 95.9648 58.1569C93.6248 53.2857 92.7698 45.8719 96.1336 40.2807C97.8211 37.4794 101.252 34.0819 108.081 33.8007C115.27 33.5082 124.09 37.9857 127.724 43.7907C133.022 52.2619 138.254 66.4257 123.055 91.8057C135.992 99.3544 144.666 111.392 147.524 125.814C152.541 151.138 135.97 168.339 99.5873 175.551C91.6561 177.126 84.3436 177.902 77.7398 177.902L77.7061 177.891ZM93.7823 85.9557C89.8448 85.9557 85.9073 86.3382 82.0261 87.1144C69.9773 89.4994 60.8761 94.0669 53.3723 101.492C47.2186 107.589 45.0361 114.407 42.7298 126.489C41.9648 130.517 41.1548 133.498 40.5023 135.906C39.2198 140.653 38.4436 143.522 39.2986 149.079C40.6711 157.933 44.6198 164.694 51.0436 169.194C61.2473 176.338 77.8973 177.891 99.1823 173.672C134.845 166.607 150.471 150.621 145.622 126.174C142.81 111.988 134.159 100.198 121.244 92.9644C121.019 92.8407 120.85 92.6269 120.782 92.3794C120.715 92.1319 120.76 91.8619 120.895 91.6369C137.939 63.7369 129.332 49.9669 126.081 44.7807C122.492 39.0432 113.875 35.4544 108.126 35.6794C103.39 35.8819 99.8011 37.8057 97.7311 41.2482C94.7386 46.2319 95.5373 52.9144 97.6523 57.3132C105.201 73.0407 100.814 81.8494 97.5173 85.6969C97.3261 85.9219 97.0223 86.0344 96.7411 86.0344C95.7511 85.9894 94.7611 85.9557 93.7711 85.9557H93.7823Z" fill="black"/>
<path d="M79.3603 186.959C80.8678 172.491 76.4578 160.937 95.7178 156.629C115.169 153.265 115.495 165.617 122.403 178.42C128.939 190.514 120.22 200.605 105.134 204.16C89.8341 206.635 77.9316 200.627 79.3491 186.959H79.3603Z" fill="#FFCBF1"/>
<path d="M81.4617 184.63L70.8867 183.381C71.528 180.883 72.833 178.948 74.8467 177.621L79.8642 176.631L81.4505 184.63H81.4617Z" fill="#FFCBF1"/>
<path d="M75.3998 176.922C73.8136 177.766 72.1261 179.633 71.2148 181.186Z" fill="#FFCBF1"/>
<path d="M71.2154 182.133C71.0579 182.133 70.8892 182.088 70.7429 182.009C70.2929 181.75 70.1354 181.165 70.3942 180.704C71.2829 179.174 73.0942 177.07 74.9504 176.08C75.4117 175.833 75.9854 176.013 76.2329 176.474C76.4804 176.935 76.3004 177.509 75.8392 177.756C74.3767 178.533 72.8129 180.31 72.0367 181.66C71.8567 181.964 71.5417 182.133 71.2154 182.133Z" fill="black"/>
<path d="M90.1475 191.369C91.475 198.074 93.7475 203.272 104.345 201.179C114.942 199.076 115.055 193.406 113.727 186.701C112.4 179.996 106.044 175.608 99.53 176.891C93.0162 178.184 88.82 184.664 90.1475 191.369Z" fill="white"/>
<path d="M145.825 144.816C140.425 161.106 122.02 170.118 99.3738 174.606C79.6525 178.51 61.4612 177.981 50.0312 169.645" fill="#FFCBF1"/>
<path d="M77.7067 177.869C65.8717 177.869 56.2979 175.36 49.4917 170.387C49.0754 170.084 48.9854 169.499 49.2892 169.082C49.5929 168.666 50.1779 168.576 50.5942 168.88C60.7754 176.305 77.5829 177.97 99.2054 173.684C124.833 168.61 140.234 158.789 144.959 144.512C145.117 144.029 145.645 143.759 146.129 143.916C146.613 144.074 146.883 144.602 146.725 145.086C141.775 160.049 125.902 170.275 99.5654 175.495C91.6342 177.07 84.3217 177.846 77.7179 177.846L77.7067 177.869Z" fill="black"/>
<path d="M91.5547 88.0252L97.5284 88.7227L95.9197 83.6602L91.5547 88.0252Z" fill="#FFCBF1"/>
<path d="M83.7706 92.2544C86.1556 92.6369 87.9781 94.8419 88.1694 97.1706C88.3606 99.5106 87.1006 101.851 85.1994 103.336C83.2981 104.821 80.8344 105.518 78.4156 105.631C78.4156 105.631 67.9419 106.666 65.7256 95.5056C64.7356 90.5331 67.3231 85.5494 71.8681 82.0056C76.1881 78.6419 82.5219 77.3031 87.8769 78.4844C91.6681 79.3281 95.2794 81.6119 96.7306 85.0881" fill="#FFCBF1"/>
<path d="M77.7828 106.666C75.3303 106.666 66.7353 105.912 64.7103 95.7087C63.6978 90.6012 66.1278 85.1899 71.224 81.2187C75.7353 77.6974 82.3503 76.2462 88.0765 77.5062C92.599 78.5074 96.1765 81.1962 97.639 84.7062C97.8528 85.2237 97.6165 85.8087 97.099 86.0224C96.5928 86.2362 95.9965 85.9999 95.7828 85.4824C94.5678 82.5799 91.519 80.3299 87.6378 79.4749C82.474 78.3274 76.5228 79.6437 72.4728 82.8049C67.9953 86.2924 65.8465 90.9724 66.7015 95.3149C68.704 105.417 77.9178 104.664 78.3003 104.63C80.7865 104.517 82.9915 103.775 84.5665 102.537C86.3215 101.165 87.3115 99.1399 87.154 97.2499C86.9965 95.3037 85.444 93.5374 83.6103 93.2449C83.059 93.1549 82.6878 92.6374 82.7778 92.0862C82.8678 91.5349 83.3965 91.1524 83.9365 91.2537C86.6928 91.7037 88.9427 94.2012 89.179 97.0924C89.3815 99.6462 88.099 102.346 85.8153 104.135C83.374 106.047 80.4602 106.554 78.4577 106.644C78.4577 106.644 78.2103 106.666 77.8053 106.666H77.7828Z" fill="black"/>
<path d="M83.4886 137.357C84.2311 139.27 86.4923 140.732 89.2823 141.126L89.3498 141.34L89.6986 144.265C89.7998 145.12 89.1248 145.964 88.1911 146.155L81.0473 147.572C80.1136 147.752 79.2698 147.212 79.1686 146.357L78.8648 143.759L78.8086 143.207C81.3961 141.756 83.2298 139.472 83.4886 137.357Z" fill="white"/>
<path d="M88.843 141.767C86.0305 141.767 83.4543 140.271 82.6668 138.077C82.4868 137.594 82.7455 137.065 83.2293 136.885C83.713 136.716 84.2418 136.964 84.4218 137.447C84.9955 139.022 87.2118 140.091 89.428 139.877C91.5655 139.675 92.218 137.762 92.2293 137.74C92.3868 137.256 92.9155 136.986 93.3993 137.144C93.883 137.301 94.153 137.83 93.9955 138.314C93.9505 138.437 92.9493 141.407 89.608 141.722C89.3493 141.745 89.1018 141.756 88.8543 141.756L88.843 141.767Z" fill="black"/>
<path d="M77.3423 144.096C75.4748 144.096 74.1923 142.971 73.7086 142.228C73.4273 141.801 73.5398 141.227 73.9786 140.935C74.4061 140.653 74.9798 140.766 75.2611 141.193C75.3736 141.351 76.3523 142.667 78.2873 142.082C80.7961 141.328 82.4498 139.247 82.6186 137.672C82.6748 137.166 83.1248 136.795 83.6423 136.84C84.1486 136.896 84.5198 137.346 84.4748 137.863C84.2048 140.44 81.8423 142.96 78.8273 143.871C78.2986 144.028 77.8036 144.096 77.3423 144.096Z" fill="black"/>
<path d="M80.6883 148.528C80.137 148.528 79.6083 148.359 79.1808 148.056C78.652 147.673 78.3145 147.111 78.247 146.458L77.9433 143.859C77.887 143.353 78.247 142.881 78.7533 142.824C79.282 142.768 79.732 143.128 79.7883 143.634L80.092 146.233C80.1033 146.357 80.1708 146.469 80.272 146.537C80.4183 146.649 80.632 146.683 80.8683 146.638L88.012 145.221C88.462 145.131 88.822 144.726 88.777 144.354L88.4283 141.429C88.372 140.923 88.732 140.451 89.2383 140.394C89.7558 140.338 90.217 140.698 90.2733 141.204L90.622 144.129C90.7795 145.479 89.7895 146.751 88.372 147.043L81.2283 148.461C81.0483 148.494 80.8683 148.517 80.6883 148.517V148.528Z" fill="black"/>
<path d="M63.4656 138.998C63.8256 142.047 65.9744 144.139 68.2581 143.689C70.5419 143.239 72.1056 140.404 71.7456 137.356C71.3856 134.307 69.2369 132.214 66.9531 132.664C64.6694 133.114 63.1056 135.949 63.4656 138.998Z" fill="black"/>
<path d="M94.907 132.768C95.267 135.816 97.4158 137.909 99.6995 137.459C101.983 137.009 103.547 134.174 103.187 131.125C102.827 128.076 100.678 125.984 98.3945 126.434C96.1108 126.884 94.547 129.719 94.907 132.768Z" fill="black"/>
<path d="M77.7378 196.869C75.8253 196.869 73.8003 196.126 71.6965 194.641C69.6828 193.235 68.3215 190.31 68.4678 187.7C68.614 185.011 69.2665 182.66 70.4028 180.702C70.6615 180.241 71.2465 180.095 71.7078 180.354C72.1578 180.612 72.3153 181.197 72.0565 181.659C71.0778 183.346 70.5153 185.416 70.3803 187.812C70.279 189.781 71.314 192.054 72.799 193.1C74.7453 194.461 76.5565 195.102 78.1653 194.967C80.1565 194.81 82.069 193.359 82.8228 191.435C83.5653 189.534 83.2278 187.194 81.979 185.484C81.5628 184.91 80.2915 184.212 78.8853 184.527C78.379 184.651 77.8615 184.314 77.749 183.807C77.6365 183.29 77.9628 182.784 78.469 182.671C80.6178 182.199 82.6315 183.155 83.509 184.359C85.1403 186.586 85.5678 189.635 84.589 192.121C83.5653 194.742 81.0453 196.644 78.3115 196.857C78.1203 196.869 77.9403 196.88 77.749 196.88L77.7378 196.869Z" fill="black"/>
<path d="M118 169.453C122.084 167.394 121.892 161.792 127.191 158.327C130.071 156.448 132.029 156.752 133.457 157.303C136.067 158.304 137.159 161.083 137.395 163.209C137.631 165.347 136.788 167.462 135.606 169.262C133.896 171.872 131.511 173.964 129.047 175.899C127.056 177.463 124.986 178.948 122.871 180.343C122.871 180.343 124.941 183.122 124.716 185.597" fill="#FFCBF1"/>
<path d="M124.728 186.509C124.728 186.509 124.671 186.509 124.649 186.509C124.143 186.464 123.771 186.025 123.816 185.519C123.996 183.426 122.163 180.917 122.14 180.895C121.994 180.692 121.926 180.434 121.971 180.186C122.016 179.939 122.163 179.725 122.365 179.579C124.458 178.206 126.516 176.721 128.485 175.18C130.679 173.459 133.143 171.355 134.841 168.767C135.719 167.429 136.72 165.392 136.484 163.322C136.27 161.376 135.269 158.991 133.131 158.159C131.883 157.675 130.263 157.416 127.686 159.092C125.133 160.757 123.951 162.951 122.815 165.077C121.69 167.17 120.633 169.15 118.405 170.264C117.955 170.489 117.404 170.309 117.179 169.859C116.954 169.409 117.134 168.857 117.584 168.632C119.294 167.777 120.183 166.124 121.206 164.211C122.399 161.995 123.749 159.486 126.685 157.562C130.004 155.391 132.333 155.886 133.784 156.449C137.44 157.866 138.16 161.905 138.295 163.109C138.531 165.212 137.879 167.451 136.371 169.757C134.538 172.57 131.928 174.797 129.61 176.609C127.844 177.992 125.999 179.331 124.131 180.591C124.784 181.682 125.796 183.719 125.628 185.665C125.583 186.137 125.189 186.497 124.716 186.497L124.728 186.509Z" fill="black"/>
<path d="M123.75 48.5597C121.984 45.1622 117.462 41.9335 114.03 42.4735C105.964 43.7447 106.695 52.036 108.653 57.2897C111.938 66.0872 109.643 78.3497 107.73 85.5835C107.393 86.8435 108.09 88.1597 109.328 88.5647C111.398 89.2622 113.412 90.061 115.358 90.9835C116.607 91.5685 118.08 91.0172 118.665 89.7685C127.159 71.431 130.287 61.1035 123.75 48.5485V48.5597Z" fill="white"/>
<path d="M52.8068 67.6317C52.5593 65.6517 53.8981 64.2904 55.7318 64.0542C57.5656 63.8179 59.2081 64.7967 59.4668 66.7767C59.7143 68.7567 59.2306 72.7617 56.8231 73.0654C54.4156 73.3692 53.0543 69.6117 52.8068 67.6204V67.6317Z" fill="#FF8B00"/>
<path d="M56.543 73.7954C55.6317 73.7954 54.4392 73.3566 53.393 71.5566C52.6392 70.2629 52.223 68.7216 52.0992 67.7091C51.953 66.5616 52.2455 65.5154 52.943 64.7054C53.5842 63.9629 54.5405 63.4679 55.643 63.3329C58.0167 63.0291 59.8842 64.4016 60.1767 66.6741C60.3005 67.6191 60.278 69.2616 59.828 70.7466C59.1305 73.0191 57.8592 73.6379 56.9142 73.7616C56.8017 73.7729 56.678 73.7841 56.543 73.7841V73.7954ZM56.2505 64.7279C56.1042 64.7279 55.9692 64.7279 55.823 64.7504C55.0805 64.8404 54.4392 65.1666 54.023 65.6391C53.5955 66.1341 53.4155 66.7866 53.5055 67.5291C53.6067 68.3616 53.9667 69.7229 54.6192 70.8366C55.058 71.5904 55.7892 72.4566 56.723 72.3554C57.6792 72.2316 58.1855 71.1966 58.4442 70.3416C58.8267 69.0704 58.8492 67.6754 58.748 66.8654C58.5567 65.3579 57.4092 64.7279 56.2392 64.7279H56.2505Z" fill="black"/>
<path d="M45.6967 60.7448C45.7529 61.3635 45.6404 61.926 45.2242 62.421C43.9979 63.8948 42.0517 63.366 40.7129 62.3423C39.5317 61.4423 38.4404 59.9573 38.5417 58.461C38.5979 57.5048 39.4867 57.471 40.2967 57.516C40.9379 57.5498 41.5904 57.6173 42.2317 57.6285C42.8729 57.6398 43.4242 57.381 43.9867 57.786C44.9542 58.4835 45.5729 59.5973 45.6854 60.7448H45.6967Z" fill="#FFBA00"/>
<path d="M43.3145 63.9612C42.2907 63.9612 41.222 63.5112 40.3332 62.8475C39.0845 61.9025 37.7907 60.2487 37.9145 58.415C38.0157 56.7612 39.7145 56.84 40.3445 56.8737C40.6145 56.885 40.8957 56.9075 41.1657 56.9187C41.537 56.9412 41.897 56.975 42.2682 56.975C42.4482 56.975 42.5945 56.9637 42.7407 56.9412C43.202 56.885 43.787 56.8175 44.3832 57.2562C45.4857 58.0437 46.217 59.3262 46.352 60.665C46.4307 61.4975 46.2282 62.2175 45.7332 62.8137C45.0582 63.6237 44.2145 63.95 43.3257 63.95L43.3145 63.9612ZM39.962 58.145C39.2082 58.145 39.197 58.3137 39.1857 58.505C39.0957 59.8212 40.1645 61.1262 41.1095 61.835C42.1782 62.645 43.7757 63.1737 44.7432 62.015C45.0132 61.6887 45.1145 61.3062 45.0695 60.8112C44.9682 59.8212 44.4282 58.8875 43.6295 58.3025C43.4495 58.1675 43.292 58.1787 42.8757 58.2237C42.6732 58.2462 42.4707 58.2687 42.2345 58.2687C41.852 58.2687 41.4582 58.235 41.0757 58.2125C40.817 58.19 40.547 58.1787 40.2882 58.1675C40.1757 58.1675 40.0632 58.1675 39.9732 58.1675L39.962 58.145Z" fill="black"/>
<path d="M67.5782 51.3616C66.937 50.3379 66.1157 49.4829 65.182 48.7854V48.7404C63.1682 47.1991 60.727 46.6591 58.3307 46.7379C56.4182 46.7716 54.4382 47.2329 52.537 48.1329C52.5257 48.1329 52.5145 48.1441 52.5032 48.1554C52.312 48.2454 52.1207 48.3466 51.9295 48.4479C51.6257 48.6054 51.322 48.7741 51.0407 48.9429C51.0407 48.9429 51.0407 48.9429 51.0295 48.9429C50.7482 49.1116 50.467 49.3141 50.1857 49.5166C50.0057 49.6404 49.837 49.7754 49.6682 49.9104C49.6682 49.9104 49.6457 49.9216 49.6457 49.9329C47.992 51.2379 46.7095 52.8129 45.832 54.5116C44.6957 56.6154 44.0995 59.0454 44.5832 61.5429H44.6282C44.8307 62.7016 45.2357 63.8154 45.877 64.8391C49.0157 69.8904 55.057 68.7766 61.1207 65.1654C61.1207 65.1654 61.1207 65.1654 61.132 65.1654C67.0607 61.3291 70.7282 56.4129 67.5895 51.3504L67.5782 51.3616Z" fill="#FFE800"/>
<path d="M37.4967 27.4895C28.6542 32.9795 25.5492 43.9483 30.8029 52.4195C34.6392 58.5845 40.3767 59.3383 46.6204 57.167C48.9492 56.357 51.3454 55.142 53.7529 53.657C56.1717 52.1495 58.3429 50.5183 60.1092 48.7745C64.7892 44.1395 66.6229 38.6833 62.8092 32.5408C57.5442 24.0695 46.3279 22.0108 37.4967 27.5008V27.4895Z" fill="#FFE800"/>
<path d="M65.1829 48.7398C64.1029 47.9186 62.8992 47.3898 61.6504 47.0748C65.1379 42.8223 66.1729 37.9398 62.8092 32.5173C57.5442 24.0461 46.3279 21.9873 37.4967 27.4773C28.6542 32.9673 25.5492 43.9361 30.8029 52.4073C34.2229 57.9086 39.1504 59.0898 44.6067 57.7511C44.3479 58.9773 44.3029 60.2486 44.5617 61.5536H44.6067C44.8092 62.7123 45.2142 63.8261 45.8554 64.8498C48.9942 69.9011 55.0354 68.7873 61.0992 65.1761C61.0992 65.1761 61.0992 65.1761 61.1104 65.1761C65.0592 62.6223 67.6354 59.4948 68.6029 56.3448C69.3904 53.8136 70.0767 48.8748 68.2879 47.4573C68.2879 47.4573 67.1854 46.5348 65.1829 48.7398Z" fill="#FFE800"/>
<path d="M52.009 68.9922C49.1065 68.9922 46.8002 67.7322 45.2477 65.2347C44.6177 64.2334 44.1902 63.1084 43.9427 61.9047C43.8977 61.8372 43.8752 61.7697 43.8527 61.6909C43.6615 60.7122 43.6277 59.6997 43.7402 58.6759C37.879 59.8009 33.3227 57.8209 30.1952 52.7922C24.7615 44.0509 27.799 32.6659 37.114 26.8722C46.429 21.0897 57.9827 23.4072 63.4165 32.1484C66.499 37.1097 66.3077 41.9922 62.854 46.6947C63.6527 46.9759 64.4065 47.3472 65.104 47.8084C67.2977 45.7497 68.6927 46.8634 68.7602 46.9197C71.0777 48.7534 69.9415 54.5022 69.3002 56.5609C68.254 59.9247 65.4977 63.1984 61.5152 65.7747C57.904 67.9234 54.709 68.9922 52.0202 68.9922H52.009ZM45.2252 61.2297C45.2702 61.2972 45.2927 61.3759 45.3152 61.4547C45.5065 62.5572 45.9002 63.5809 46.4627 64.4922C49.6802 69.6672 56.0027 67.3947 60.7277 64.5822C64.429 62.1859 66.9827 59.1934 67.9277 56.1447C68.749 53.5009 69.1877 49.0909 67.849 48.0334C67.849 48.0334 67.1515 47.6622 65.7115 49.2372C65.464 49.5072 65.0477 49.5409 64.7552 49.3272C63.8102 48.6072 62.7077 48.0897 61.4815 47.7859C61.2452 47.7297 61.054 47.5497 60.9752 47.3134C60.8965 47.0772 60.9415 46.8297 61.099 46.6384C64.789 42.1497 65.149 37.6609 62.2015 32.9134C57.1952 24.8472 46.4965 22.7322 37.8677 28.0984C29.239 33.4647 26.3927 43.9834 31.4102 52.0497C34.3915 56.8534 38.6552 58.4959 44.4377 57.0784C44.674 57.0222 44.9327 57.0784 45.1015 57.2584C45.2815 57.4272 45.3602 57.6747 45.304 57.9222C45.0677 59.0584 45.0452 60.1722 45.2252 61.2409V61.2297Z" fill="black"/>
<path d="M45.3828 42.2044C46.0578 43.2619 45.3041 44.9607 43.7066 45.9732C42.1091 46.9857 40.2528 46.9294 39.5778 45.8607C38.9028 44.8032 39.6678 43.1157 41.2653 42.1144C42.8628 41.1132 44.7078 41.1469 45.3828 42.2044Z" fill="#FF7400"/>
<path d="M41.3868 47.1756C41.3868 47.1756 41.3193 47.1756 41.2855 47.1756C40.3405 47.1531 39.598 46.7706 39.1818 46.1181C38.7655 45.4656 38.7543 44.6331 39.1368 43.7781C39.4968 42.9793 40.1605 42.2481 41.0155 41.7193C41.8705 41.1793 42.8043 40.8868 43.693 40.9206C44.638 40.9431 45.3805 41.3143 45.7855 41.9668C46.2018 42.6193 46.213 43.4518 45.8305 44.3181C45.4705 45.1168 44.8068 45.8593 43.963 46.3881C43.1418 46.9056 42.2305 47.1868 41.3868 47.1868V47.1756ZM43.603 41.8543C42.9393 41.8543 42.1968 42.0906 41.5218 42.5068C40.8243 42.9456 40.2843 43.5306 40.003 44.1606C39.7555 44.7231 39.7443 45.2293 39.9805 45.6118C40.2168 45.9831 40.6893 46.2081 41.308 46.2193C42.0055 46.2643 42.7593 46.0056 43.4568 45.5668C44.1543 45.1281 44.683 44.5431 44.9643 43.9131C45.2118 43.3506 45.223 42.8331 44.9868 42.4618C44.7505 42.0906 44.2893 41.8768 43.6705 41.8543C43.648 41.8543 43.6255 41.8543 43.603 41.8543Z" fill="black"/>
<path d="M43.9306 42.6877C44.3581 43.3627 43.9531 44.3865 43.0418 44.9602C42.1193 45.534 41.0281 45.4552 40.6118 44.7802C40.1843 44.1052 40.5893 43.0927 41.5118 42.519C42.4343 41.9452 43.5143 42.0127 43.9418 42.6877H43.9306Z" fill="#B20000"/>
<path d="M45.5073 41.2717C46.1486 42.3067 44.0111 42.4642 42.1548 43.623C40.2986 44.7817 39.4098 46.4917 38.7686 45.4567C38.1948 44.5454 39.7923 42.5204 41.1086 41.6992C42.4248 40.8892 44.9448 40.3492 45.5073 41.2605V41.2717Z" fill="#FF8B00"/>
<path d="M39.2266 46.2541C39.2266 46.2541 39.1366 46.2541 39.0916 46.2541C38.7991 46.2091 38.5516 46.0291 38.3491 45.7141C37.9778 45.1178 38.1466 44.2741 38.8216 43.2841C39.3503 42.5078 40.1153 41.7541 40.8353 41.3041C42.1178 40.5053 45.0653 39.6841 45.8978 41.0228C46.0891 41.3266 46.1341 41.6191 46.0441 41.9003C45.8528 42.4741 45.1891 42.7441 44.2666 43.1266C43.6816 43.3628 43.0178 43.6441 42.3878 44.0266C41.7466 44.4203 41.2403 44.8928 40.7791 45.2978C40.1716 45.8491 39.7216 46.2541 39.2153 46.2541H39.2266ZM44.2328 41.2703C43.4341 41.2703 42.2416 41.5628 41.3528 42.1141C40.7453 42.4853 40.0703 43.1603 39.6203 43.8128C39.1478 44.5103 39.0466 45.0166 39.1703 45.2078C39.2153 45.2866 39.2491 45.3091 39.2491 45.3091C39.3728 45.2978 39.8228 44.8816 40.1491 44.5891C40.6103 44.1728 41.1841 43.6553 41.8928 43.2166C42.5903 42.7891 43.3216 42.4853 43.9178 42.2378C44.4016 42.0353 45.0766 41.7653 45.1441 41.5966L45.5041 41.2591L45.0991 41.5066C44.9866 41.3266 44.6716 41.2478 44.2328 41.2478V41.2703Z" fill="black"/>
<path d="M48.0935 37.5686C48.6335 38.4461 48.6785 39.4023 47.8123 39.9423C46.946 40.4823 46.1023 40.0211 45.5623 39.1436C45.0223 38.2661 44.921 37.3436 45.8435 36.7698C46.766 36.1961 47.5535 36.6911 48.0935 37.5686Z" fill="black"/>
<path d="M36.8005 44.5998C37.3405 45.4773 37.3855 46.4336 36.5193 46.9736C35.653 47.5136 34.8093 47.0523 34.2693 46.1748C33.7293 45.2973 33.628 44.3748 34.5505 43.8011C35.473 43.2273 36.2605 43.7223 36.8005 44.5998Z" fill="black"/>
<path d="M39.2221 17.1286C30.4584 19.1536 24.6084 26.7699 25.3621 35.0836C25.4521 36.0511 26.5884 36.5349 27.3309 35.8936L30.4359 33.2274C30.7396 32.9686 31.1446 32.8786 31.5271 32.9799L36.7134 34.3974C37.0959 34.4986 37.5121 34.3974 37.8159 34.1386L41.8433 30.5949C42.1471 30.3361 42.5521 30.2349 42.9458 30.3361L48.1321 31.7424C48.5146 31.8436 48.9308 31.7424 49.2346 31.4836L53.2621 27.9399C53.5658 27.6811 53.9708 27.5799 54.3533 27.6811L58.1446 28.7049C59.0896 28.9636 59.9108 28.0299 59.5621 27.1186C56.5808 19.3449 47.9746 15.0924 39.2333 17.1174L39.2221 17.1286Z" fill="white"/>
<path d="M26.5533 36.8949C26.3171 36.8949 26.0696 36.8499 25.8333 36.7599C25.1696 36.4899 24.7083 35.8711 24.6408 35.1511C23.8421 26.4324 29.9058 18.5574 39.0521 16.4424C48.1758 14.3274 57.0858 18.7149 60.2133 26.8824C60.4721 27.5574 60.3371 28.3224 59.8421 28.8624C59.3583 29.3911 58.6271 29.6049 57.9408 29.4249L54.1496 28.4011C53.9921 28.3561 53.8346 28.4011 53.7108 28.5024L49.6833 32.0461C49.1996 32.4736 48.5358 32.6199 47.9283 32.4511L42.7421 31.0449C42.5958 30.9999 42.4271 31.0449 42.3033 31.1461L38.2758 34.6899C37.7921 35.1174 37.1396 35.2636 36.5208 35.0949L31.3346 33.6774C31.1771 33.6324 31.0196 33.6774 30.8958 33.7786L27.7908 36.4449C27.4421 36.7486 27.0033 36.9061 26.5533 36.9061V36.8949ZM39.3783 17.8261C30.9408 19.7836 25.3383 27.0174 26.0696 35.0161C26.0921 35.2861 26.2946 35.3986 26.3733 35.4324C26.4521 35.4661 26.6546 35.5224 26.8571 35.3536L29.9621 32.6874C30.4458 32.2711 31.0871 32.1249 31.7058 32.2936L36.8921 33.7111C37.0496 33.7561 37.2071 33.7111 37.3308 33.6099L41.3583 30.0661C41.8421 29.6386 42.4946 29.4924 43.1133 29.6611L48.2996 31.0674C48.4458 31.1124 48.6146 31.0674 48.7383 30.9661L52.7658 27.4224C53.2496 26.9949 53.9021 26.8486 54.5208 27.0174L58.3121 28.0411C58.5596 28.1086 58.7283 27.9624 58.7846 27.9061C58.8408 27.8386 58.9758 27.6586 58.8746 27.3999C55.9946 19.9074 47.7933 15.8911 39.3671 17.8374L39.3783 17.8261Z" fill="black"/>
<path d="M61.8304 50.3486C64.0129 51.0686 65.9479 49.7411 66.9717 47.1648C68.3892 43.5648 66.0604 39.8973 63.8779 39.1773C61.6954 38.4573 62.5842 42.2148 59.6592 45.7473C58.2867 47.3898 59.6592 49.6286 61.8417 50.3486H61.8304Z" fill="#FFBA00"/>
<path d="M62.9801 51.2604C62.5301 51.2604 62.0688 51.1816 61.6076 51.0354C60.0776 50.5291 58.8963 49.4041 58.5138 48.0766C58.2326 47.0866 58.4351 46.0966 59.0988 45.2979C60.3701 43.7679 60.8651 42.2041 61.2701 40.9441C61.6301 39.8191 61.9113 38.9304 62.6651 38.5479C63.0701 38.3341 63.5538 38.3229 64.1051 38.5029C65.3988 38.9304 66.6701 40.1791 67.4126 41.7654C68.2676 43.5991 68.3463 45.6129 67.6376 47.4241C66.6813 49.8654 64.9376 51.2491 62.9913 51.2491L62.9801 51.2604ZM63.3851 39.8079C63.3851 39.8079 63.3288 39.8079 63.3063 39.8191C63.0813 39.9316 62.8451 40.6966 62.6201 41.3829C62.2038 42.6879 61.6413 44.4654 60.1901 46.2091C59.8301 46.6479 59.7176 47.1429 59.8751 47.6829C60.1226 48.5379 60.9776 49.3254 62.0463 49.6741C63.7901 50.2479 65.3876 49.2129 66.2988 46.9066C67.0751 44.9491 66.5126 43.2279 66.1076 42.3729C65.5338 41.1466 64.5663 40.1566 63.6438 39.8529C63.5313 39.8191 63.4413 39.7966 63.3738 39.7966L63.3851 39.8079Z" fill="black"/>
<path d="M61.1671 63.9289C60.2446 62.1514 61.0433 60.4189 62.6858 59.5639C64.3283 58.7089 66.207 59.0689 67.1295 60.8464C68.052 62.6239 68.9633 66.5501 66.8033 67.6639C64.6546 68.7776 62.0783 65.7064 61.1671 63.9289Z" fill="#FF8B00"/>
<path d="M65.8496 68.6206C63.5659 68.6206 61.3721 65.8756 60.5396 64.2669C59.4934 62.2306 60.2359 60.0369 62.3734 58.9456C64.4996 57.8431 66.7271 58.4956 67.7734 60.5319C68.7296 62.3769 69.8884 66.8881 67.1434 68.3169C66.7159 68.5419 66.2884 68.6319 65.8496 68.6319V68.6206ZM61.7996 63.6031C62.6096 65.1556 64.8821 67.8556 66.4796 67.0344C68.0546 66.2244 67.3234 62.7931 66.4909 61.1731C65.7146 59.6656 64.1846 59.5981 63.0146 60.1944C61.8446 60.8019 61.0121 62.0844 61.7996 63.5919V63.6031Z" fill="black"/>
<path d="M154.671 161.826L164.961 163.377L167.219 148.392L156.929 146.842L154.671 161.826Z" fill="#C8C8FF"/>
<path d="M156.231 162.49C152.867 160.69 149.616 158.665 146.511 156.449C143.968 154.638 141.482 152.658 139.66 150.126C138.4 148.383 137.455 146.301 137.601 144.164C137.736 142.026 138.703 139.203 141.257 138.078C142.663 137.459 144.598 137.065 147.568 138.809C153.036 142.026 153.092 147.629 157.266 149.496" fill="#C8C8FF"/>
<path d="M171.216 182.334C169.045 188.139 169.056 193.775 165.704 192.617C162.351 191.458 159.55 185.552 159.55 185.552C153.171 174.133 156.501 162.467 158.133 159.587C158.65 158.417 159.325 157.247 160.169 156.077C160.9 155.064 161.586 154.052 162.25 153.039" fill="#C8C8FF"/>
<path d="M176.099 177.318C176.549 176.576 177.066 175.867 177.629 175.203C179.159 173.392 181.87 173.156 183.681 174.686C185.493 176.216 185.729 178.927 184.199 180.738C182.455 182.797 181.701 185.722 182.208 188.366C182.714 191.01 184.514 193.44 186.899 194.711C187.495 195.026 188.204 195.318 188.946 195.622C189.948 196.038 191.084 196.5 192.209 197.141C195.809 199.2 198.104 202.552 198.34 206.107C198.531 208.965 197.305 212.193 195.28 214.14C193.705 215.658 191.725 216.367 189.7 216.153C187.338 215.906 185.628 213.78 185.886 211.417C186.01 210.292 186.584 209.235 187.473 208.526C187.979 208.11 188.676 208.008 189.205 207.626C190.071 206.996 190.004 205.725 189.104 205.207C188.013 204.588 186.854 204.037 185.684 203.553C184.818 203.193 183.839 202.8 182.871 202.282C178.18 199.796 174.783 195.195 173.781 189.986C172.938 185.632 173.804 181.053 176.11 177.307L176.099 177.318Z" fill="#C8C8FF"/>
<path d="M190.416 217.142C190.146 217.142 189.876 217.131 189.606 217.097C188.211 216.951 186.962 216.265 186.073 215.174C185.196 214.082 184.791 212.71 184.937 211.315C185.083 209.942 185.792 208.649 186.872 207.782C187.243 207.479 187.66 207.31 188.02 207.164C188.267 207.062 188.492 206.972 188.65 206.86C188.852 206.714 188.875 206.522 188.863 206.432C188.863 206.342 188.818 206.162 188.627 206.05C187.648 205.487 186.535 204.947 185.308 204.452C184.408 204.081 183.407 203.676 182.406 203.136C177.467 200.515 173.89 195.666 172.821 190.176C171.943 185.654 172.843 180.782 175.273 176.811C175.757 176.024 176.297 175.281 176.882 174.572C178.75 172.356 182.068 172.075 184.285 173.942C186.49 175.81 186.771 179.129 184.915 181.345C183.362 183.19 182.676 185.811 183.137 188.185C183.598 190.559 185.207 192.73 187.333 193.866C187.885 194.159 188.56 194.44 189.28 194.732C190.326 195.16 191.485 195.644 192.666 196.319C196.547 198.535 199.011 202.169 199.281 206.05C199.495 209.177 198.145 212.71 195.94 214.836C194.365 216.344 192.43 217.154 190.416 217.154V217.142ZM176.905 177.812C174.722 181.379 173.912 185.755 174.7 189.816C175.656 194.744 178.873 199.097 183.306 201.46C184.228 201.955 185.173 202.337 186.006 202.686C187.322 203.226 188.515 203.8 189.572 204.396C190.281 204.801 190.731 205.521 190.765 206.331C190.81 207.152 190.427 207.929 189.752 208.412C189.415 208.66 189.055 208.806 188.728 208.941C188.47 209.054 188.222 209.155 188.053 209.279C187.367 209.83 186.917 210.651 186.816 211.529C186.625 213.362 187.952 215.016 189.786 215.219C191.518 215.399 193.24 214.78 194.601 213.464C196.435 211.697 197.537 208.772 197.368 206.174C197.143 202.934 195.028 199.874 191.71 197.972C190.63 197.365 189.527 196.904 188.548 196.51C187.772 196.195 187.052 195.891 186.422 195.554C183.79 194.159 181.81 191.47 181.247 188.556C180.685 185.631 181.528 182.402 183.441 180.13C184.633 178.724 184.453 176.609 183.047 175.416C181.641 174.224 179.526 174.404 178.333 175.81C177.805 176.44 177.321 177.115 176.882 177.812H176.905Z" fill="black"/>
<path d="M158.055 159.947C163.803 146.818 163.173 134.657 182.332 136.412C201.39 139.112 200.771 152.78 203.336 166.877C204.922 175.584 200.028 182.458 190.623 182.278C186.495 182.199 182.017 184.269 176.797 183.853C161.857 181.569 152.61 172.344 158.043 159.947H158.055Z" fill="#C8C8FF"/>
<path d="M166.525 168.744C165.917 175.877 166.57 181.76 176.683 182.615C186.797 183.47 188.417 177.778 189.025 170.645C189.632 163.513 185.076 157.303 178.866 156.774C172.656 156.245 167.132 161.612 166.525 168.744Z" fill="white"/>
<path d="M206.798 154.279L201.199 153.627L200.41 160.41L206.008 161.062L206.798 154.279Z" fill="#C8C8FF"/>
<path d="M166.21 193.865C165.569 193.865 164.917 193.73 164.275 193.471C160.788 192.043 158.65 187.081 158.347 186.35C157.66 185.214 151.248 173.885 158.628 157.201C158.842 156.718 159.404 156.504 159.888 156.718C160.372 156.931 160.585 157.494 160.372 157.978C153.16 174.29 159.933 185.304 160 185.416C160.034 185.473 160.057 185.518 160.079 185.574C160.102 185.619 162.059 190.524 164.984 191.716C165.839 192.065 166.683 192.043 167.549 191.649C168.719 191.12 168.775 190.546 168.787 188.6C168.787 187.036 168.809 184.888 169.844 182.12C170.024 181.625 170.575 181.378 171.07 181.558C171.565 181.738 171.813 182.289 171.633 182.784C170.722 185.225 170.71 187.104 170.699 188.6C170.699 190.513 170.677 192.324 168.337 193.37C167.628 193.685 166.908 193.843 166.199 193.843L166.21 193.865Z" fill="black"/>
<path d="M179.359 184.303C176.266 184.303 172.081 183.594 167.142 180.973C166.681 180.726 166.501 180.152 166.748 179.691C166.996 179.229 167.569 179.049 168.031 179.297C177.784 184.449 184.332 181.592 184.399 181.558C184.872 181.344 185.434 181.558 185.659 182.031C185.873 182.503 185.671 183.066 185.198 183.291C185.041 183.369 182.926 184.314 179.359 184.314V184.303Z" fill="black"/>
<path d="M192.308 183.494C191.79 183.494 191.363 183.067 191.352 182.549C191.352 182.02 191.768 181.593 192.297 181.593C195.582 181.57 198.147 180.625 199.924 178.792C202.77 175.855 202.703 171.535 202.703 171.49C202.692 170.962 203.108 170.534 203.625 170.512H203.648C204.165 170.512 204.582 170.917 204.604 171.434C204.604 171.648 204.705 176.564 201.297 180.085C199.148 182.313 196.122 183.449 192.308 183.483V183.494Z" fill="black"/>
<path d="M190.609 168.532C190.609 168.532 186.559 164.29 181.507 168.082C177.424 171.142 179.37 179.028 179.37 179.028C179.37 179.028 180.709 187.432 186.019 187.589C191.925 187.758 192.679 182.189 192.341 177.487" fill="#C8C8FF"/>
<path d="M186.268 188.533C186.178 188.533 186.077 188.533 185.987 188.533C179.968 188.364 178.494 179.555 178.427 179.173C178.359 178.903 176.402 170.724 180.935 167.315C185.469 163.918 189.688 166.19 191.297 167.867C191.657 168.249 191.645 168.845 191.263 169.217C190.88 169.577 190.284 169.565 189.924 169.183C189.778 169.037 186.369 165.617 182.083 168.834C178.562 171.478 180.283 178.712 180.294 178.79C180.317 178.948 181.588 186.497 186.043 186.62C187.674 186.677 188.867 186.249 189.744 185.338C191.105 183.92 191.657 181.288 191.398 177.542C191.364 177.013 191.758 176.563 192.275 176.529C192.793 176.495 193.254 176.889 193.288 177.407C193.592 181.715 192.861 184.832 191.117 186.654C189.924 187.903 188.293 188.533 186.268 188.533Z" fill="black"/>
<path d="M137.406 90.6136C137.406 90.6136 142.863 49.9223 156.374 44.7698C169.885 39.6173 189.078 68.9236 189.078 68.9236L137.406 90.6136Z" fill="#C8C8FF"/>
<path d="M236.848 103.384C236.848 103.384 241.843 62.6363 230.076 54.2326C218.308 45.8288 192.332 69.3413 192.332 69.3413L236.848 103.373V103.384Z" fill="#C8C8FF"/>
<path d="M151.718 75.3244C150.526 76.1456 148.951 75.0544 149.299 73.6481C151.122 66.3469 154.238 57.5269 158.941 55.7269C163.767 53.8819 169.763 59.1919 173.959 63.9619C174.758 64.8731 174.252 66.3131 173.048 66.5381C165.218 67.9669 157.951 70.9931 151.707 75.3244H151.718Z" fill="white"/>
<path d="M208.431 71.0948C207.328 70.5773 207.193 69.0586 208.206 68.3723C213.46 64.8061 220.615 61.1948 224.811 64.1986C228.917 67.1236 229.705 76.4498 229.615 83.9761C229.603 85.4273 227.803 86.0798 226.858 84.9886C221.92 79.2286 215.653 74.4586 208.431 71.1061V71.0948Z" fill="white"/>
<path d="M130.706 109.649C127.038 138.168 150 150.408 179.778 154.221C209.546 158.046 234.858 152.005 238.515 123.486C242.182 94.9676 220.863 69.9026 191.096 66.0776C161.328 62.2526 134.373 81.1189 130.706 109.638V109.649Z" fill="white"/>
<path d="M236.028 131.856C223.226 132.002 201.266 127.48 190.173 113.001C189.206 111.741 187.833 110.38 186.281 110.324C184.773 109.975 183.086 110.954 181.837 111.921C167.111 123.396 144.498 121.844 132.641 118.244C131.527 114.374 131.099 110.054 131.471 105.25C131.617 104.609 131.763 103.967 131.932 103.337C131.954 103.27 131.966 103.202 131.988 103.135C132.494 101.234 133.113 99.3773 133.822 97.5885C133.844 97.5435 133.856 97.4985 133.867 97.4535C134.047 97.0035 134.238 96.5648 134.441 96.1148C134.564 95.8448 134.677 95.5748 134.801 95.3048C134.981 94.9223 135.161 94.551 135.341 94.1685C135.509 93.8198 135.689 93.4823 135.858 93.1448C136.027 92.8298 136.184 92.5148 136.353 92.1998C136.691 91.581 137.039 90.9735 137.411 90.3773C147.243 74.256 166.076 64.5248 186.798 65.706C187.473 65.7398 188.148 65.796 188.823 65.8523C189.566 65.9198 190.319 65.9873 191.073 66.0885C191.827 66.1898 192.569 66.3023 193.312 66.426C193.976 66.5385 194.651 66.6623 195.303 66.7973C215.643 70.8923 231.416 85.0673 236.849 103.146C237.806 106.341 238.447 109.649 238.728 113.057C238.728 113.114 238.728 113.17 238.728 113.226C238.796 114.025 238.841 114.824 238.863 115.622C238.863 115.802 238.863 115.982 238.863 116.151C238.874 116.837 238.886 117.524 238.863 118.21C238.863 118.559 238.829 118.907 238.818 119.256C238.796 119.785 238.784 120.314 238.739 120.842C238.672 121.72 238.582 122.609 238.469 123.497C238.379 124.229 238.256 124.937 238.132 125.635C238.087 125.916 238.031 126.197 237.974 126.479C237.907 126.827 237.828 127.165 237.749 127.502C237.603 128.166 237.446 128.819 237.277 129.449C236.861 130.27 236.433 131.08 235.972 131.845L236.028 131.856Z" fill="#C8C8FF"/>
<path d="M192.105 59.3394C192.105 59.3394 192.15 59.3394 192.173 59.3394C192.15 59.3394 192.116 59.3394 192.094 59.3281C192.094 59.3281 192.105 59.3281 192.116 59.3281L192.105 59.3394Z" fill="#C8C8FF"/>
<path d="M160.144 113.869C160.871 113.869 161.461 113.28 161.461 112.553C161.461 111.826 160.871 111.236 160.144 111.236C159.417 111.236 158.828 111.826 158.828 112.553C158.828 113.28 159.417 113.869 160.144 113.869Z" fill="black"/>
<path d="M165.377 108.152C164.983 111.257 166.412 113.845 169.415 114.227C172.419 114.61 174.455 112.472 174.849 109.367C175.243 106.262 173.814 103.675 170.81 103.292C167.807 102.91 165.77 105.047 165.377 108.152Z" fill="black"/>
<path d="M165.377 108.152C164.983 111.257 166.412 113.845 169.415 114.227C172.419 114.61 174.455 112.472 174.849 109.367C175.243 106.262 173.814 103.675 170.81 103.292C167.807 102.91 165.77 105.047 165.377 108.152Z" fill="black"/>
<path d="M196.798 112.979C198.879 111.708 201.197 111.426 203.548 111.685C204.819 111.865 207.137 112.135 206.608 113.946C206.394 114.554 205.81 114.925 205.191 114.88C202.682 114.711 200.162 114.959 197.755 115.476C196.315 115.735 195.572 113.733 196.798 112.979Z" fill="black"/>
<path d="M190.095 120.257C190.095 120.257 188.767 132.013 183.581 131.473C177.967 130.888 179.779 118.704 179.779 118.704L185.606 116.252L190.095 120.257Z" fill="#FF8898"/>
<path d="M183.938 132.497C183.781 132.497 183.635 132.497 183.466 132.475C182.206 132.34 181.16 131.755 180.361 130.708C177.548 127.097 178.73 118.896 178.786 118.547C178.865 117.996 179.382 117.602 179.922 117.703C180.473 117.782 180.856 118.3 180.766 118.84C180.451 120.966 180.046 127.03 181.947 129.471C182.408 130.067 182.971 130.393 183.68 130.461C187.043 130.821 188.776 122.923 189.091 120.133C189.147 119.582 189.642 119.177 190.205 119.245C190.756 119.312 191.15 119.807 191.093 120.358C190.947 121.63 189.552 132.486 183.95 132.486L183.938 132.497Z" fill="black"/>
<path d="M184.276 117.287C183.781 118.063 183.443 119.109 183.252 120.392C183.218 120.639 182.937 120.763 182.735 120.628C181.958 120.099 181.362 119.413 181.238 118.333L184.276 117.275V117.287Z" fill="white"/>
<path d="M191.058 121.125C190.968 121.125 190.89 121.125 190.8 121.091C188.246 120.495 186.39 118.818 185.253 117.097C183.735 118.323 181.541 119.111 178.987 119.313C178.368 119.358 177.806 118.897 177.761 118.267C177.716 117.637 178.177 117.086 178.807 117.041C181.428 116.827 183.6 115.882 184.601 114.521C184.837 114.195 185.231 114.015 185.658 114.06C186.063 114.105 186.412 114.375 186.581 114.746C187.233 116.287 188.865 118.29 191.317 118.863C191.936 119.01 192.318 119.617 192.172 120.236C192.048 120.765 191.576 121.125 191.058 121.125Z" fill="black"/>
<path d="M194.695 156.203C190.026 156.203 185.009 155.865 179.654 155.168C143.766 150.566 126.52 134.783 129.76 109.526C130.66 102.54 132.933 95.9926 136.521 90.0526C137.241 85.0126 142.844 48.9113 156.029 43.8713C167.155 39.6301 181.42 56.7751 187.326 64.7851C188.755 64.8751 190.026 64.9876 191.219 65.1451C192.4 65.2913 193.671 65.5051 195.078 65.7751C202.818 59.5313 220.964 46.5376 230.639 53.4451C242.103 61.6351 238.424 97.9951 237.85 103.058C239.819 109.718 240.37 116.625 239.47 123.611C236.714 145.099 221.335 156.203 194.706 156.203H194.695ZM159.73 45.1201C158.695 45.1201 157.683 45.2888 156.715 45.6601C144.16 50.4526 138.614 88.8826 138.389 90.5251C138.366 90.6488 138.321 90.7726 138.254 90.8851C134.744 96.6451 132.528 103.001 131.65 109.785C128.523 134.141 144.756 148.789 179.901 153.3C215.046 157.811 234.453 147.754 237.58 123.386C238.446 116.603 237.906 109.886 235.971 103.44C235.938 103.316 235.926 103.181 235.938 103.058C237.659 88.1513 238.255 61.2526 229.536 55.0201C220.525 48.5851 201.546 62.9851 195.933 67.5526C195.708 67.7326 195.426 67.8001 195.145 67.7438C193.581 67.4288 192.254 67.2038 190.983 67.0463C189.711 66.8888 188.339 66.7651 186.775 66.6751C186.494 66.6638 186.224 66.5176 186.066 66.2926C182.196 61.0051 169.743 45.1313 159.741 45.1313L159.73 45.1201Z" fill="black"/>
<path d="M201.502 69.4404C201.412 69.4404 201.31 69.4291 201.209 69.3954C197.879 68.3379 194.425 67.5729 190.96 67.1341C187.484 66.6841 183.952 66.5491 180.464 66.7291C179.902 66.7516 179.497 66.3579 179.463 65.8291C179.429 65.3004 179.834 64.8616 180.363 64.8279C183.963 64.6366 187.608 64.7829 191.197 65.2441C194.785 65.7054 198.34 66.4929 201.783 67.5841C202.289 67.7416 202.559 68.2816 202.402 68.7766C202.278 69.1816 201.895 69.4404 201.49 69.4404H201.502Z" fill="black"/>
<path d="M202.999 158.271C202.999 152.421 198.881 149.721 194.921 150.632C193.481 150.959 192.3 152.095 191.704 153.445C191.108 154.795 190.995 156.325 191.029 157.799C191.096 161.174 191.873 164.594 193.673 167.44C195.484 170.286 200.198 172.896 204.439 170.657C204.439 170.657 212.37 167.856 207.33 154.829" fill="#C8C8FF"/>
<path d="M202.66 157.946C202.66 157.946 195.843 162.277 190.893 159.206C190.893 159.206 189.16 152.939 194.448 150.768C199.735 148.597 202.75 155.133 202.66 157.946Z" fill="white"/>
<path d="M201.061 172.447C197.551 172.447 194.311 170.242 192.859 167.947C191.116 165.191 190.148 161.681 190.069 157.822C190.036 156.472 190.103 154.706 190.823 153.064C191.577 151.342 193.028 150.082 194.693 149.7C196.909 149.194 199.159 149.677 200.869 151.05C202.838 152.625 203.929 155.179 203.941 158.272C203.941 158.801 203.513 159.229 202.996 159.229C202.467 159.229 202.051 158.801 202.039 158.284C202.039 155.786 201.196 153.75 199.688 152.546C198.428 151.545 196.774 151.196 195.121 151.567C194.052 151.815 193.073 152.681 192.567 153.84C191.993 155.134 191.948 156.63 191.971 157.789C192.038 161.31 192.904 164.471 194.468 166.935C196.043 169.421 200.228 171.806 203.986 169.815C204.031 169.792 204.064 169.77 204.109 169.759C204.188 169.725 206.157 168.982 207.271 166.485C208.531 163.684 208.249 159.881 206.427 155.167C206.236 154.672 206.483 154.121 206.967 153.941C207.451 153.75 208.002 153.997 208.193 154.481C210.218 159.724 210.477 164.044 208.969 167.329C207.608 170.276 205.268 171.334 204.807 171.525C203.569 172.177 202.287 172.447 201.049 172.447H201.061Z" fill="black"/>
<path d="M151.078 159.507C149.526 158.54 147.996 157.516 146.511 156.459C143.968 154.647 141.482 152.667 139.66 150.136C138.4 148.392 137.455 146.311 137.601 144.174C137.736 142.036 138.703 139.212 141.257 138.087C142.663 137.469 144.598 137.075 147.568 138.819C153.036 142.036 153.058 148.145 157.243 150.012" fill="#C8C8FF"/>
<path d="M151.919 143.14C151.919 143.14 146.227 151.443 139.578 150.093C139.578 150.093 134.965 144.366 139.848 139.855C144.73 135.344 150.862 140.035 151.908 143.14H151.919Z" fill="white"/>
<path d="M142.463 147.751C143.419 149.056 144.421 147.874 145.906 146.783C147.391 145.692 148.819 145.084 147.852 143.779C146.884 142.474 144.904 142.306 143.419 143.397C141.934 144.488 141.507 146.434 142.463 147.739V147.751Z" fill="#AFAFFF"/>
<path d="M145.169 142.364C145.828 142.364 146.362 141.83 146.362 141.171C146.362 140.512 145.828 139.979 145.169 139.979C144.51 139.979 143.977 140.512 143.977 141.171C143.977 141.83 144.51 142.364 145.169 142.364Z" fill="#AFAFFF"/>
<path d="M140.771 145.604C141.429 145.604 141.963 145.07 141.963 144.411C141.963 143.753 141.429 143.219 140.771 143.219C140.112 143.219 139.578 143.753 139.578 144.411C139.578 145.07 140.112 145.604 140.771 145.604Z" fill="#AFAFFF"/>
<path d="M142.349 143.139C143.007 143.139 143.541 142.605 143.541 141.946C143.541 141.288 143.007 140.754 142.349 140.754C141.69 140.754 141.156 141.288 141.156 141.946C141.156 142.605 141.69 143.139 142.349 143.139Z" fill="#AFAFFF"/>
<path d="M157.468 163.322C157.4 163.322 157.321 163.322 157.254 163.299C153.879 162.512 146.893 157.899 145.959 157.235C143.563 155.537 140.851 153.422 138.883 150.688C137.285 148.472 136.509 146.188 136.644 144.107C136.723 142.892 137.263 138.797 140.863 137.21C142.303 136.58 144.609 135.973 148.04 137.998C151.1 139.798 152.563 142.408 153.845 144.703C154.948 146.672 155.893 148.37 157.614 149.135C158.098 149.349 158.311 149.912 158.098 150.395C157.884 150.879 157.321 151.093 156.838 150.879C154.543 149.855 153.395 147.808 152.18 145.637C150.954 143.443 149.683 141.182 147.073 139.64C144.44 138.088 142.843 138.425 141.628 138.954C139.535 139.877 138.658 142.284 138.534 144.23C138.399 146.3 139.49 148.28 140.424 149.574C142.235 152.083 144.789 154.063 147.061 155.683C148.456 156.673 154.891 160.79 157.681 161.443C158.199 161.567 158.514 162.073 158.39 162.59C158.289 163.029 157.895 163.322 157.468 163.322Z" fill="black"/>
</g>
</svg>
