<svg width="69" height="69" viewBox="0 0 69 69" fill="none" xmlns="http://www.w3.org/2000/svg">
<path d="M34.332 59.1786C47.179 59.1786 57.5936 48.764 57.5936 35.9169C57.5936 23.0699 47.179 12.6553 34.332 12.6553C21.4849 12.6553 11.0703 23.0699 11.0703 35.9169C11.0703 48.764 21.4849 59.1786 34.332 59.1786Z" fill="#FFDDD3"/>
<path d="M45.2184 37.1771C44.4463 37.1771 43.823 36.5538 43.823 35.7817V32.7288C43.823 27.4942 39.5659 23.2371 34.3313 23.2371C29.0967 23.2371 24.8397 27.4942 24.8397 32.7288V35.7817C24.8397 36.5538 24.2163 37.1771 23.4442 37.1771C22.6722 37.1771 22.0488 36.5538 22.0488 35.7817V32.7288C22.0488 25.9571 27.5597 20.4463 34.3313 20.4463C41.103 20.4463 46.6138 25.9571 46.6138 32.7288V35.7817C46.6138 36.5538 45.9905 37.1771 45.2184 37.1771Z" fill="#4C3127"/>
<path d="M19.748 39.7633C19.748 43.2766 22.1989 46.2162 25.4855 46.9671C26.2364 47.1371 26.9518 46.5633 26.9518 45.7912V33.7283C26.9518 32.9562 26.2364 32.3825 25.4855 32.5525C22.1989 33.3033 19.748 36.2429 19.748 39.7562V39.7633Z" fill="#FF793E"/>
<path d="M48.9166 39.7633C48.9166 43.2766 46.4658 46.2162 43.1791 46.9671C42.4283 47.1371 41.7129 46.5633 41.7129 45.7912V33.7283C41.7129 32.9562 42.4283 32.3825 43.1791 32.5525C46.4658 33.3033 48.9166 36.2429 48.9166 39.7562V39.7633Z" fill="#FF793E"/>
</svg>
