<svg width="38" height="38" viewBox="0 0 38 38" fill="none" xmlns="http://www.w3.org/2000/svg">
<path d="M12.7939 30.1767H10.7776C9.36044 30.1767 8.20703 29.0277 8.20703 27.6061V10.3943C8.20703 8.97714 9.35597 7.82373 10.7776 7.82373H12.7939C14.211 7.82373 15.3644 8.97267 15.3644 10.3943V27.6106C15.3644 29.0277 14.2155 30.1811 12.7939 30.1811V30.1767ZM29.7866 27.6061V10.3943C29.7866 8.97714 28.6376 7.82373 27.216 7.82373H25.1997C23.7826 7.82373 22.6291 8.97267 22.6291 10.3943V27.6106C22.6291 29.0277 23.7781 30.1811 25.1997 30.1811H27.216C28.6332 30.1811 29.7866 29.0322 29.7866 27.6106V27.6061Z" fill="url(#paint0_linear_819_274)"/>
<defs>
<linearGradient id="paint0_linear_819_274" x1="18.999" y1="30.1767" x2="18.999" y2="7.82373" gradientUnits="userSpaceOnUse">
<stop stop-color="#FF793E"/>
<stop offset="1" stop-color="#FFB673"/>
</linearGradient>
</defs>
</svg>
