<svg width="54" height="54" viewBox="0 0 54 54" fill="none" xmlns="http://www.w3.org/2000/svg">
<path d="M26.999 47.6182C38.3861 47.6182 47.6172 38.3871 47.6172 27C47.6172 15.6129 38.3861 6.38184 26.999 6.38184C15.6119 6.38184 6.38086 15.6129 6.38086 27C6.38086 38.3871 15.6119 47.6182 26.999 47.6182Z" fill="#FF793E"/>
<path d="M33.9323 16.9265L25.037 20.4709H19.6076C18.3803 20.4709 17.3887 21.4625 17.3887 22.6898V31.3004C17.3887 32.5276 18.3803 33.5193 19.6076 33.5193H25.037L33.9323 37.0636C35.2185 37.5742 36.6127 36.6316 36.6127 35.2473V18.7331C36.6127 17.3487 35.2185 16.4062 33.9323 16.9167V16.9265Z" fill="white"/>
</svg>
