<svg width="566" height="140" viewBox="0 0 566 140" fill="none" xmlns="http://www.w3.org/2000/svg">
<g clip-path="url(#clip0_296_460)">
<path d="M0 108.44H25.4434V113.771H15.9157V139.57H9.52084V113.771H0V108.44ZM28.331 108.44H40.5147C42.8302 108.44 44.8256 108.856 46.5009 109.689C48.1763 110.522 49.4498 111.702 50.3215 113.225C51.1933 114.753 51.6291 116.542 51.6291 118.589C51.6291 120.637 51.1592 122.527 50.2126 124.049C49.2659 125.571 47.9107 126.711 46.14 127.469L52.746 139.57H45.6224L39.677 128.52H34.7667V139.57H28.331V108.44ZM39.316 123.278C43.123 123.278 45.0095 121.715 44.9823 118.589C44.9959 117.013 44.5328 115.811 43.5861 114.985C42.6395 114.16 41.2161 113.743 39.316 113.73H34.7667V123.278H39.316ZM53.2364 139.57L64.0035 108.44H72.2849L83.0111 139.57H76.1055L73.7695 132.39H62.5257L60.1897 139.57H53.2364ZM72.135 127.36L68.2532 115.45H68.042L64.1601 127.36H72.1419H72.135ZM91.8646 139.57H85.4288V108.44H91.8646V139.57ZM121.919 139.57H116.341L102.7 119.79H102.441V139.57H96.0053V108.44H101.671L115.231 128.22H115.53V108.44H121.925V139.57H121.919ZM132.488 139.57H126.052V108.44H132.488V139.57ZM162.535 139.57H156.958L143.317 119.79H143.058V139.57H136.622V108.44H142.288L155.848 128.22H156.147V108.44H162.542V139.57H162.535ZM184.928 114.999C183.784 114.166 182.374 113.743 180.699 113.73C179.098 113.743 177.688 114.153 176.469 114.958C175.25 115.764 174.31 116.931 173.636 118.459C172.962 119.995 172.628 121.831 172.628 123.961C172.628 126.09 172.955 127.981 173.616 129.53C174.27 131.079 175.209 132.253 176.428 133.059C177.648 133.864 179.085 134.267 180.739 134.287C182.197 134.287 183.464 134.021 184.526 133.489C185.588 132.956 186.412 132.212 186.991 131.243C187.57 130.274 187.877 129.141 187.904 127.837H181.168V122.978H194.129V126.848C194.129 129.53 193.563 131.858 192.426 133.844C191.289 135.83 189.702 137.352 187.666 138.41C185.629 139.468 183.307 140 180.705 140C177.818 140 175.264 139.352 173.057 138.055C170.851 136.758 169.135 134.908 167.909 132.506C166.683 130.103 166.077 127.285 166.077 124.043C166.077 120.801 166.703 117.907 167.963 115.484C169.223 113.061 170.953 111.211 173.153 109.928C175.352 108.645 177.831 108.003 180.576 108.003C182.878 108.003 184.989 108.447 186.903 109.334C188.816 110.221 190.383 111.457 191.588 113.04C192.794 114.624 193.543 116.426 193.829 118.446H187.305C186.862 116.972 186.065 115.818 184.921 114.985L184.928 114.999ZM206.782 108.44H218.966C221.268 108.44 223.256 108.884 224.932 109.771C226.607 110.658 227.881 111.894 228.759 113.477C229.638 115.06 230.08 116.876 230.08 118.93C230.08 120.985 229.631 122.841 228.739 124.425C227.846 126.008 226.553 127.237 224.857 128.11C223.161 128.984 221.138 129.421 218.796 129.421H213.218V139.57H206.782V108.44ZM217.767 124.22C219.626 124.22 221.036 123.742 222.003 122.794C222.97 121.838 223.447 120.555 223.427 118.937C223.44 117.347 222.963 116.084 222.003 115.156C221.036 114.228 219.626 113.75 217.767 113.736H213.218V124.227H217.767V124.22ZM233.056 108.44H245.24C247.556 108.44 249.551 108.856 251.226 109.689C252.902 110.522 254.175 111.702 255.047 113.225C255.919 114.753 256.355 116.542 256.355 118.589C256.355 120.637 255.885 122.527 254.938 124.049C253.991 125.571 252.636 126.711 250.865 127.469L257.471 139.57H250.348L244.402 128.52H239.492V139.57H233.056V108.44ZM244.041 123.278C247.842 123.278 249.735 121.715 249.708 118.589C249.721 117.013 249.258 115.811 248.312 114.985C247.365 114.16 245.942 113.743 244.041 113.73H239.492V123.278H244.041ZM286.272 132.588C285.012 134.997 283.289 136.833 281.09 138.103C278.89 139.372 276.418 140.007 273.66 140.007C270.901 140.007 268.395 139.372 266.195 138.103C263.996 136.833 262.259 134.99 261.006 132.574C259.753 130.158 259.12 127.305 259.12 124.008C259.12 120.712 259.746 117.838 261.006 115.429C262.266 113.02 263.996 111.184 266.195 109.914C268.395 108.645 270.888 108.01 273.66 108.01C276.431 108.01 278.897 108.645 281.09 109.914C283.283 111.184 285.012 113.02 286.272 115.429C287.532 117.838 288.159 120.698 288.159 124.008C288.159 127.319 287.532 130.178 286.272 132.588ZM266.659 129.585C267.312 131.127 268.232 132.287 269.437 133.079C270.636 133.864 272.046 134.267 273.666 134.28C275.267 134.267 276.663 133.864 277.862 133.066C279.053 132.267 279.98 131.107 280.627 129.571C281.28 128.035 281.6 126.179 281.6 124.002C281.6 121.824 281.274 119.961 280.627 118.425C279.973 116.883 279.053 115.723 277.862 114.931C276.67 114.146 275.267 113.743 273.666 113.73C272.052 113.743 270.643 114.146 269.437 114.931C268.239 115.716 267.312 116.883 266.659 118.425C266.005 119.968 265.685 121.824 265.685 124.002C265.685 126.179 266.012 128.042 266.659 129.578V129.585ZM309.952 114.999C308.808 114.166 307.398 113.743 305.723 113.73C304.122 113.743 302.712 114.153 301.493 114.958C300.274 115.764 299.335 116.931 298.66 118.459C297.986 119.995 297.652 121.831 297.652 123.961C297.652 126.09 297.979 127.981 298.64 129.53C299.301 131.079 300.234 132.253 301.453 133.059C302.665 133.864 304.102 134.267 305.763 134.287C307.221 134.287 308.488 134.021 309.55 133.489C310.612 132.956 311.436 132.212 312.015 131.243C312.594 130.274 312.901 129.141 312.928 127.837H306.193V122.978H319.153V126.848C319.153 129.53 318.587 131.858 317.45 133.844C316.313 135.83 314.726 137.352 312.69 138.41C310.653 139.468 308.331 140 305.729 140C302.842 140 300.295 139.352 298.081 138.055C295.875 136.758 294.159 134.908 292.933 132.506C291.714 130.103 291.101 127.285 291.101 124.043C291.101 120.801 291.727 117.907 292.987 115.484C294.247 113.061 295.977 111.211 298.177 109.928C300.377 108.645 302.855 108.003 305.6 108.003C307.902 108.003 310.013 108.447 311.927 109.334C313.841 110.221 315.407 111.457 316.612 113.04C317.818 114.624 318.567 116.426 318.853 118.446H312.329C311.886 116.972 311.089 115.818 309.945 114.985L309.952 114.999ZM322.776 108.44H334.959C337.275 108.44 339.27 108.856 340.946 109.689C342.621 110.522 343.895 111.702 344.766 113.225C345.638 114.747 346.074 116.542 346.074 118.589C346.074 120.637 345.604 122.527 344.657 124.049C343.711 125.571 342.355 126.711 340.578 127.469L347.184 139.57H340.06L334.122 128.52H329.211V139.57H322.776V108.44ZM333.761 123.278C337.568 123.278 339.454 121.715 339.42 118.589C339.434 117.013 338.971 115.811 338.024 114.985C337.077 114.16 335.661 113.743 333.754 113.73H329.205V123.278H333.754H333.761ZM347.681 139.57L358.448 108.44H366.73L377.456 139.57H370.55L368.214 132.39H356.97L354.634 139.57H347.681ZM366.58 127.36L362.698 115.45H362.48L358.598 127.36H366.58ZM387.855 108.44L396.477 129.551H396.818L405.44 108.44H413.421V139.57H407.156V119.19H406.897L398.786 139.44H394.495L386.384 119.101H386.125V139.57H379.86V108.44H387.842H387.855Z" fill="url(#paint0_linear_296_460)"/>
<path d="M48.5577 32.7886C62.3146 32.7886 69.1862 38.986 69.1862 51.3738V66.2052C69.1862 78.5999 62.3077 84.7904 48.5577 84.7904H20.6285C6.87163 84.7904 0 78.593 0 66.2052V56.5952H21.0507V63.3863C21.0507 66.171 22.44 67.5634 25.2187 67.5634H43.9743C46.7529 67.5634 48.1422 66.171 48.1422 63.3863V53.674C48.1422 50.8892 46.7529 49.4969 43.9743 49.4969H20.6285C6.87844 49.4969 0 43.2995 0 30.9117V18.592C0 6.19735 6.87844 0 20.6285 0H48.5509C62.3077 0 69.1794 6.19735 69.1794 18.5852V25.5811H48.1286V21.4041C48.1286 18.6193 46.7393 17.227 43.9607 17.227H25.205C22.4264 17.227 21.0371 18.6193 21.0371 21.4041V28.6115C21.0371 31.3963 22.4264 32.7886 25.205 32.7886H48.5441H48.5577ZM126.911 57.9602H99.4036V84.2785H78.3529V0.518721H126.911C140.667 0.518721 147.539 6.71607 147.539 19.1039V39.3614C147.539 51.7561 140.661 57.9466 126.911 57.9466V57.9602ZM99.4036 41.2451H122.327C125.106 41.2451 126.495 39.8528 126.495 37.0681V21.4041C126.495 18.6193 125.106 17.227 122.327 17.227H99.4036V41.2451ZM177.239 67.0447H218.605V84.2785H155.671V0.518721H218.605V17.7525H177.239V32.6862H217.563V49.3945H177.239V67.0447ZM277.896 0.518721L299.362 84.2717H278.107L274.565 69.6519H249.245L245.703 84.2717H224.448L245.908 0.518721H277.896ZM261.953 17.8549L253.719 51.3738H270.077L261.953 17.8549ZM328.013 0.518721V33.9353L356.875 0.518721H381.78L348.853 38.7403L381.78 84.2717H358.128L336.035 53.674L328.013 62.97V84.2717H306.445V0.518721H328.013ZM409.287 0.518721V84.2717H387.719V0.518721H409.287ZM441.8 0.518721L466.596 52.1041V0.518721H487.647V84.2717H464.097L439.505 33.1026V84.2717H418.454V0.518721H441.793H441.8ZM566 84.7972H545.474V81.9784C542.559 83.7871 538.874 84.7289 534.427 84.7972H517.442C503.685 84.7972 496.814 78.5999 496.814 66.212V18.5852C496.814 6.19735 503.692 0 517.442 0H545.365C559.122 0 565.993 6.19735 565.993 18.5852V27.0417H544.942V20.8785C544.942 18.0938 543.553 16.7014 540.774 16.7014H522.019C519.24 16.7014 517.851 18.0938 517.851 20.8785V63.905C517.851 66.6897 519.24 68.0821 522.019 68.0821H541.292C543.587 68.0821 544.977 67.4542 545.46 66.2052V53.2576H531.812V36.5493H565.986V84.7972H566Z" fill="url(#paint1_linear_296_460)"/>
</g>
<defs>
<linearGradient id="paint0_linear_296_460" x1="206.714" y1="140" x2="206.714" y2="108.01" gradientUnits="userSpaceOnUse">
<stop stop-color="#333333"/>
<stop offset="1" stop-color="#595959"/>
</linearGradient>
<linearGradient id="paint1_linear_296_460" x1="283.003" y1="84.7972" x2="283.003" y2="0" gradientUnits="userSpaceOnUse">
<stop stop-color="#FF5D24"/>
<stop offset="1" stop-color="#FF793E"/>
</linearGradient>
<clipPath id="clip0_296_460">
<rect width="566" height="140" fill="white"/>
</clipPath>
</defs>
</svg>
