<svg width="38" height="38" viewBox="0 0 38 38" fill="none" xmlns="http://www.w3.org/2000/svg">
<path d="M12.7939 30.1762H10.7776C9.36044 30.1762 8.20703 29.0272 8.20703 27.6056V10.3938C8.20703 8.97665 9.35597 7.82324 10.7776 7.82324H12.7939C14.211 7.82324 15.3644 8.97218 15.3644 10.3938V27.6101C15.3644 29.0272 14.2155 30.1807 12.7939 30.1807V30.1762ZM29.7866 27.6056V10.3938C29.7866 8.97665 28.6376 7.82324 27.216 7.82324H25.1997C23.7826 7.82324 22.6291 8.97218 22.6291 10.3938V27.6101C22.6291 29.0272 23.7781 30.1807 25.1997 30.1807H27.216C28.6332 30.1807 29.7866 29.0317 29.7866 27.6101V27.6056Z" fill="url(#paint0_linear_1768_37)"/>
<defs>
<linearGradient id="paint0_linear_1768_37" x1="18.999" y1="30.1762" x2="18.999" y2="7.82324" gradientUnits="userSpaceOnUse">
<stop stop-color="#9823C9"/>
<stop offset="1" stop-color="#D676FF"/>
</linearGradient>
</defs>
</svg>
