<svg width="674" height="517" viewBox="0 0 674 517" fill="none" xmlns="http://www.w3.org/2000/svg">
<g clip-path="url(#clip0_1083_1394)">
<path d="M320.174 233.818H161.864V236.544H68.5747C58.3425 275.58 67.9676 317.431 68.5155 319.772C81.4871 357.297 126.37 376.882 194.278 376.882C262.187 376.882 309.039 360.274 320.174 317.268C320.174 317.268 330.703 273.995 320.174 233.818Z" fill="#D68D18"/>
<path d="M283.615 337.282C281.941 329.964 277.766 328.142 275.411 327.712C272.272 327.134 269.014 328.334 266.186 331.075C261.181 335.934 259.389 342.645 258.293 348.571C257.227 354.334 256.59 360.126 255.969 365.741C255.82 367.06 255.672 368.867 255.895 370.778C258.975 370.052 261.966 369.252 264.853 368.378C264.883 367.771 264.942 367.148 264.987 366.734C265.579 361.297 266.201 355.667 267.208 350.23C268.052 345.712 269.325 340.675 272.494 337.593C273.16 336.956 273.649 336.719 273.59 336.601C273.797 336.793 274.345 337.579 274.73 339.297C276.537 347.193 275.411 355.593 274.064 363.83C273.842 364.289 273.768 364.823 273.708 365.341C277.218 363.993 280.55 362.511 283.704 360.897C284.799 353.312 285.406 345.223 283.585 337.268L283.615 337.282Z" fill="#C67F18"/>
<path d="M298.17 331.653C296.956 320.942 290.988 307.179 278.164 303.609C269.413 301.165 259.107 304.483 251.91 312.038C245.084 319.209 241.93 328.749 240.153 335.282C236.688 348.067 235.459 361.178 236.214 374.334C239.294 373.934 242.3 373.474 245.232 372.956C244.64 361.06 245.795 349.208 248.934 337.653C251.347 328.764 254.383 322.616 258.485 318.29C262.513 314.068 269.398 310.572 275.721 312.35C283.643 314.542 288.174 324.127 289.137 332.645C289.685 337.49 289.507 342.408 289.315 347.608C289.196 350.971 289.093 354.408 289.167 357.889C292.439 355.919 295.49 353.801 298.303 351.49C298.333 350.304 298.347 349.149 298.392 347.934C298.584 342.63 298.792 337.134 298.155 331.623L298.17 331.653Z" fill="#C67F18"/>
<path d="M138.408 312.883C134.395 295.076 124.015 280.187 109.933 272.01C95.4509 263.61 77.5926 263.254 63.9843 270.661C63.8806 274.202 63.8806 277.654 63.9546 280.987C64.4137 280.854 64.8727 280.691 65.3021 280.395C76.2155 272.721 92.6818 272.498 105.372 279.876C117.278 286.794 126.088 299.55 129.538 314.898C133.433 332.112 130.516 349.964 126.607 368.245C129.435 369.104 132.382 369.889 135.388 370.63C139.415 351.815 142.703 331.979 138.394 312.898L138.408 312.883Z" fill="#C67F18"/>
<path d="M105.759 310.32C103.227 305.372 100.502 301.92 97.1707 299.446C91.2179 295.031 82.6886 293.831 74.9293 296.305C71.6272 297.357 68.4287 299.076 65.4375 301.313C65.941 305.505 66.4889 309.135 66.9923 312.053C69.6281 309.283 73.2116 306.394 77.6836 304.972C82.7034 303.357 88.1083 304.053 91.751 306.75C93.9129 308.35 95.7787 310.794 97.6445 314.453C104.53 327.964 104.663 344.067 103.005 358.512C105.744 360.023 108.647 361.415 111.653 362.734C113.859 346.156 114.2 326.897 105.744 310.305L105.759 310.32Z" fill="#C67F18"/>
<path d="M149.544 312.112C147.071 312.498 145.369 314.823 145.754 317.312C146.124 319.683 146.213 322.097 146.02 324.497C145.828 327.001 147.693 329.194 150.196 329.386C150.314 329.386 150.433 329.401 150.566 329.401C152.906 329.401 154.905 327.594 155.082 325.223C155.334 322.112 155.216 318.986 154.727 315.92C154.342 313.446 152.017 311.757 149.53 312.127L149.544 312.112Z" fill="#C67F18"/>
<path d="M149.842 331.431C147.266 331.268 145.222 333.268 145.104 335.771C144.571 347.86 143.312 359.993 141.461 371.963C144.378 372.571 147.34 373.134 150.405 373.622C152.33 361.237 153.633 348.675 154.181 336.171C154.299 333.668 152.345 331.549 149.842 331.431Z" fill="#C67F18"/>
<path d="M194.293 381C124.03 381 77.992 359.741 64.6354 321.12C64.0875 318.912 54.0478 275.728 64.591 235.506C65.1685 233.314 67.4192 231.995 69.6108 232.573C71.8024 233.151 73.1203 235.403 72.5428 237.595C62.5031 275.861 72.0985 317.09 72.5131 318.823C84.5075 353.475 127.806 372.778 194.278 372.778C266.466 372.778 306.343 354.289 316.191 316.246C316.279 315.89 326.319 273.521 316.191 234.869C315.613 232.677 316.931 230.425 319.122 229.847C321.314 229.284 323.565 230.588 324.142 232.781C334.819 273.506 324.601 316.453 324.157 318.26C313.229 360.511 270.745 381.015 194.278 381.015L194.293 381Z" fill="black"/>
<path d="M194.294 299.505C263.825 299.505 320.191 270.096 320.191 233.818C320.191 197.539 263.825 168.13 194.294 168.13C124.764 168.13 68.3984 197.539 68.3984 233.818C68.3984 270.096 124.764 299.505 194.294 299.505Z" fill="#FFDA99"/>
<path d="M194.295 303.609C121.396 303.609 64.2969 272.943 64.2969 233.803C64.2969 194.663 121.396 164.012 194.295 164.012C267.194 164.012 324.292 194.663 324.292 233.803C324.292 272.943 267.194 303.609 194.295 303.609ZM194.295 172.248C127.141 172.248 72.5152 199.863 72.5152 233.818C72.5152 267.773 127.141 295.387 194.295 295.387C261.448 295.387 316.074 267.758 316.074 233.818C316.074 199.878 261.448 172.248 194.295 172.248Z" fill="black"/>
<path d="M192.221 270.735C237.233 270.735 273.723 251.7 273.723 228.218C273.723 204.736 237.233 185.7 192.221 185.7C147.209 185.7 110.719 204.736 110.719 228.218C110.719 251.7 147.209 270.735 192.221 270.735Z" fill="#FFDA99"/>
<path d="M192.221 274.439C144.451 274.439 107.031 254.143 107.031 228.218C107.031 202.292 144.451 181.996 192.221 181.996C239.991 181.996 277.41 202.292 277.41 228.218C277.41 254.143 239.991 274.439 192.221 274.439ZM192.221 189.389C150.048 189.389 114.42 207.166 114.42 228.218C114.42 249.269 150.048 267.047 192.221 267.047C234.393 267.047 270.021 249.269 270.021 228.218C270.021 207.166 234.393 189.389 192.221 189.389Z" fill="#FFC76C"/>
<path d="M91.4388 326.675C92.4606 317.772 92.9048 307.253 86.034 301.49C82.2136 298.276 76.5718 297.416 71.9814 299.342C67.3909 301.268 64.0444 305.905 63.6594 310.868C67.4502 297.831 67.4206 283.713 63.5409 270.691C62.2971 266.528 60.5942 262.35 57.4845 259.328C54.3749 256.306 49.5623 254.677 45.5642 256.336C41.2848 258.113 39.1376 262.869 37.9086 267.328C35.7318 275.269 35.1839 283.639 36.339 291.802C35.5393 286.143 30.3862 275.209 23.93 273.921C10.5437 271.239 16.4669 297.846 19.1027 303.55C18.2882 299.505 12.9278 297.55 9.24065 299.402C5.5535 301.253 3.77657 305.772 4.17638 309.875C4.57619 313.979 6.73813 317.712 9.27027 320.972C21.2498 336.453 40.4851 343.149 58.8468 347.564C80.4959 352.764 88.6846 350.719 91.4536 326.66L91.4388 326.675Z" fill="#61D100"/>
<path d="M57.8696 351.593C39.5524 347.193 19.0732 340.408 5.99787 323.52C2.36996 318.823 0.474558 314.616 0.0599391 310.305C-0.532373 304.098 2.39957 298.261 7.375 295.757C8.87059 295.002 10.5735 294.631 12.306 294.631H12.3208C10.9437 287.283 10.5439 278.232 14.4383 273.298C16.8372 270.276 20.4947 269.076 24.7001 269.921C27.5729 270.498 30.0902 272.187 32.2373 274.454C32.6223 271.684 33.185 268.958 33.9254 266.276C35.9097 259.032 39.2118 254.543 43.9799 252.573C49.1923 250.41 55.7669 251.951 60.3425 256.41C64.3555 260.321 66.2657 265.476 67.4799 269.55C69.9676 277.906 70.9598 286.78 70.4415 295.55C76.409 293.061 83.7389 294.202 88.6847 298.35C97.9396 306.142 96.3107 320.334 95.5259 327.164C94.06 339.919 91.0688 347.015 85.5454 350.882C82.3322 353.134 78.5265 354.052 74.0398 354.052C69.553 354.052 64.0889 353.089 57.8845 351.593H57.8696ZM87.352 326.201C88.3441 317.564 88.5514 308.972 83.3835 304.631C80.7625 302.424 76.72 301.816 73.5659 303.135C71.4632 304.024 69.7011 305.787 68.6794 307.875C68.3684 309.268 67.9982 310.661 67.5984 312.024C67.0061 314.038 64.9774 315.327 62.9191 314.912C60.846 314.542 59.3949 312.646 59.5577 310.557C59.691 308.75 60.1352 306.987 60.8312 305.313C63.2153 294.335 62.8006 282.617 59.6022 271.876C58.6693 268.765 57.2625 264.869 54.6119 262.276C52.7313 260.454 49.5625 259.136 47.1192 260.143C44.8832 261.076 43.1063 263.862 41.8476 268.424C39.8189 275.802 39.3155 283.683 40.3816 291.224C40.6926 293.476 39.1378 295.55 36.887 295.876C34.651 296.202 32.5631 294.631 32.2373 292.379C31.5414 287.491 26.9805 278.735 23.0861 277.95C21.472 277.624 21.1018 278.083 20.8945 278.35C18.2736 281.669 20.0061 293.891 22.094 300.024C22.5678 300.868 22.9084 301.787 23.1009 302.75C23.5155 304.794 22.3309 306.824 20.3466 307.461C18.3624 308.098 16.2153 307.164 15.3416 305.283C15.1639 304.898 14.9566 304.394 14.7345 303.787C14.4679 303.49 14.1126 303.283 13.9201 303.194C12.9872 302.735 11.8322 302.69 11.0473 303.076C8.9002 304.157 7.99693 307.12 8.21904 309.475C8.48559 312.172 9.8331 315.031 12.4689 318.438C23.9746 333.312 42.8249 339.475 59.7502 343.549C71.4188 346.364 77.3271 346.512 80.7773 344.097C84.0943 341.786 86.1674 336.082 87.3076 326.171L87.352 326.201Z" fill="black"/>
<path d="M270.656 162.901C276.446 189.893 241.752 220.87 208.612 227.359C176.494 233.655 148.374 229.107 142.584 202.115C136.794 175.122 158.043 147.686 190.058 140.812C209.545 136.634 238.346 141.034 252.058 162.101C258.322 171.73 268.391 152.338 270.656 162.886V162.901Z" fill="#FFE800"/>
<path d="M164.664 26.118C117.561 36.2215 86.8344 79.1836 96.5187 124.338C103.567 157.227 127.408 169.478 158.03 169.804C169.447 169.923 181.797 168.382 194.576 165.641C207.488 162.871 219.498 159.152 229.937 154.293C257.554 141.419 274.109 120.501 267.09 87.7316C257.406 42.5769 211.768 16.0145 164.664 26.1328V26.118Z" fill="#FFE800"/>
<path d="M252.043 163.671C249.185 159.286 245.646 155.656 241.692 152.634C262.393 139.568 273.707 120.22 267.68 92.1611C257.995 47.0065 212.358 20.444 165.254 30.5623C118.15 40.6659 87.4243 83.628 97.1086 128.783C103.239 157.39 122.075 170.382 147.041 173.478C142.169 182.811 140.333 193.285 142.569 203.685C148.358 230.677 176.478 235.225 208.597 228.929C241.722 222.44 276.416 191.448 270.641 164.471C268.376 153.908 258.306 173.315 252.043 163.686V163.671Z" fill="#FFE800"/>
<path d="M185.038 235.373C159.243 235.373 143.088 224.796 138.749 204.5C136.765 195.226 137.653 185.67 141.311 176.56C115.086 171.7 98.9311 155.923 93.2893 129.597C83.22 82.6354 114.479 37.4363 164.456 26.7106C214.447 15.9849 261.476 44.3695 271.546 91.3316C277.084 117.138 269.236 137.864 248.209 153.004C250.963 155.612 253.362 158.456 255.361 161.538C256.175 162.797 256.457 163.212 261.077 160.204C263.846 158.397 267 156.353 270.331 157.73C272.449 158.604 273.856 160.589 274.507 163.641C276.64 173.567 274.048 184.456 267.015 195.122C255.079 213.24 231.92 228.366 209.383 232.795C200.527 234.529 192.398 235.388 185.053 235.388L185.038 235.373ZM185.468 32.3105C179.13 32.3105 172.644 32.9919 166.099 34.3845C120.432 44.1917 91.8233 85.2724 100.975 127.938C106.291 152.708 121.528 166.323 147.545 169.567C148.819 169.73 149.944 170.5 150.536 171.641C151.129 172.782 151.129 174.145 150.536 175.285C145.887 184.189 144.465 193.715 146.42 202.855C152.254 230.025 183.039 229.936 207.857 225.062C228.129 221.092 249.749 206.989 260.44 190.781C266.156 182.1 268.392 173.478 266.911 165.789C266.378 166.115 265.8 166.486 265.341 166.782C261.995 168.974 254.132 174.086 248.757 165.819C246.313 162.056 243.13 158.678 239.324 155.76C238.302 154.975 237.725 153.745 237.784 152.456C237.843 151.167 238.524 149.997 239.62 149.301C261.151 135.716 269.073 117.287 263.86 92.976C256.027 56.4285 223.391 32.3105 185.483 32.3105H185.468Z" fill="black"/>
<path d="M211.81 108.487C212.817 113.153 211.469 117.39 206.849 118.383C202.229 119.375 199.268 116.057 198.261 111.39C197.254 106.724 198.305 102.546 203.221 101.494C208.137 100.443 210.803 103.82 211.81 108.487Z" fill="black"/>
<path d="M151.587 121.42C152.594 126.086 151.247 130.323 146.626 131.316C142.006 132.309 139.045 128.99 138.038 124.324C137.031 119.657 138.082 115.479 142.999 114.427C147.915 113.376 150.58 116.753 151.587 121.42Z" fill="black"/>
<path d="M136.337 135.064C150.345 134.427 161.688 124.101 164.768 110.546C165.612 106.813 162.695 103.272 158.875 103.45L111.001 105.628C107.181 105.805 104.589 109.598 105.774 113.227C110.083 126.442 122.314 135.701 136.322 135.064H136.337Z" fill="black"/>
<path d="M217.703 117.598C204.672 122.768 190.087 117.998 181.72 106.916C179.41 103.865 180.624 99.4352 184.178 98.0278L228.735 80.3689C232.289 78.9615 236.198 81.3614 236.613 85.154C238.108 98.9759 230.749 112.427 217.703 117.598Z" fill="black"/>
<path d="M185.586 110.59C173.547 107.42 162.115 114.857 161.997 114.946L158.043 109.035C158.62 108.65 172.17 99.7166 187.392 103.717L185.586 110.59Z" fill="black"/>
<g opacity="0.56">
<path d="M211.336 87.2576L203.77 119.464C208.375 119.938 213.128 119.405 217.689 117.598C218.34 117.346 218.918 116.976 219.54 116.664L227.995 80.6355L211.322 87.2428L211.336 87.2576Z" fill="white"/>
</g>
<path d="M194.324 119.212C195.508 124.738 187.172 126.264 177.25 128.397C167.329 130.531 159.585 132.442 158.4 126.931C157.349 122.042 167.462 115.716 174.467 114.22C181.456 112.724 193.287 114.338 194.324 119.227V119.212Z" fill="#FF8B00"/>
<path d="M164.25 134.442C161.821 134.442 159.733 134.012 158.001 132.901C156.209 131.746 155.024 129.968 154.536 127.746C153.958 125.035 154.624 120.812 161.081 116.116C164.768 113.435 169.566 111.227 173.608 110.368C181.205 108.739 196.338 110.057 198.13 118.383C198.604 120.561 198.234 122.649 197.093 124.427C194.295 128.753 187.661 130.175 179.265 131.968L176.821 132.486C171.994 133.523 167.759 134.442 164.235 134.442H164.25ZM180.094 117.568C178.495 117.568 176.851 117.716 175.267 118.042C168.722 119.45 162.428 124.442 162.236 126.22C163.613 127.316 170.573 125.805 175.178 124.812L177.636 124.279C182.123 123.316 189.645 121.716 190.504 120.146L194.295 119.198L190.459 120.027C190.474 120.101 190.504 120.146 190.504 120.146C189.823 118.99 185.158 117.568 180.094 117.568Z" fill="black"/>
<path d="M230.336 162.723C236.793 171.197 247.647 171.211 258.293 164.041C273.161 154.012 273.886 133.908 267.415 125.435C260.959 116.961 254.503 133.657 234.083 139.449C224.547 142.16 223.88 154.264 230.336 162.738V162.723Z" fill="#FFBA00"/>
<path d="M243.368 173.167C236.986 173.167 231.285 170.456 227.212 165.123C222.563 159.034 220.978 151.375 223.051 145.153C224.621 140.412 228.16 137.049 233.002 135.671C241.739 133.197 247.677 128.575 252.46 124.857C256.887 121.405 260.382 118.664 264.513 119.227C266.794 119.524 268.822 120.812 270.525 123.064C274.464 128.22 276.078 136.516 274.731 144.693C273.191 154.116 268.126 162.16 260.471 167.315C254.651 171.241 248.758 173.182 243.353 173.182L243.368 173.167ZM263.447 127.005C262.485 127.005 259.479 129.346 257.272 131.064C252.238 134.975 245.352 140.338 235.135 143.242C232.795 143.908 231.24 145.375 230.485 147.642C229.256 151.33 230.441 156.441 233.447 160.367C238.392 166.856 246.862 167.019 256.073 160.812C263.951 155.493 266.275 147.642 266.971 143.434C267.964 137.405 266.897 131.286 264.276 127.849C263.758 127.168 263.462 127.035 263.462 127.035H263.447V127.005Z" fill="black"/>
<path d="M128.856 181.656C132.544 191.656 142.894 194.87 155.185 191.137C172.347 185.922 178.951 166.93 175.264 156.93C171.577 146.931 160.501 160.99 139.281 160.515C129.375 160.293 125.169 171.671 128.856 181.671V181.656Z" fill="#FFBA00"/>
<path d="M145.844 196.559C136.056 196.559 128.385 191.744 125.172 183.019C122.521 175.834 123.247 168.041 127.067 162.708C129.97 158.649 134.397 156.456 139.373 156.59C148.435 156.812 155.484 154.13 161.14 151.982C166.382 149.997 170.528 148.427 174.334 150.145C176.422 151.093 177.977 152.93 178.954 155.582C181.205 161.671 180.301 170.071 176.614 177.493C172.364 186.041 165.168 192.233 156.342 194.915C152.67 196.026 149.146 196.574 145.858 196.574L145.844 196.559ZM132.546 180.293C135.375 187.952 143.4 190.604 154.047 187.374C163.139 184.619 167.67 177.804 169.566 173.982C172.29 168.515 173.075 162.352 171.58 158.293C171.283 157.493 171.032 157.271 171.032 157.271C170.158 156.96 166.545 158.323 163.924 159.315C157.956 161.582 149.753 164.723 139.195 164.426C136.915 164.352 134.841 165.315 133.464 167.256C131.214 170.411 130.843 175.656 132.546 180.278V180.293Z" fill="black"/>
<path d="M160.058 5.97023C119.366 14.7108 91.6754 49.5397 94.5481 88.0575C94.8887 92.5611 100.116 94.8574 103.581 91.9686L118.152 79.8503C119.559 78.6799 121.454 78.2947 123.201 78.7984L147.116 85.7316C148.893 86.2501 150.803 85.8353 152.21 84.6354L171.149 68.5172C172.556 67.3172 174.466 66.9024 176.243 67.4209L200.113 74.3541C201.89 74.8726 203.8 74.4578 205.207 73.2578L224.146 57.1396C225.553 55.9396 227.463 55.5248 229.24 56.0433L246.713 61.0803C251.067 62.3395 254.961 58.0877 253.406 53.8212C240.198 17.5848 200.705 -2.75553 160.058 5.97023Z" fill="white"/>
<path d="M100.085 97.1833C98.8414 97.1833 97.5827 96.9315 96.3981 96.4278C93.1108 95.0352 90.8896 91.939 90.623 88.3539C87.5726 47.5695 116.433 11.3183 159.228 2.13331C201.978 -7.03688 243.114 14.1479 257.107 52.4879C258.351 55.8656 257.581 59.6137 255.138 62.2507C252.709 64.858 249.067 65.8654 245.646 64.8728L228.173 59.8359C227.669 59.6877 227.121 59.8063 226.707 60.147L207.768 76.2652C205.339 78.3244 202.081 79.0207 199.031 78.1466L175.161 71.2134C174.643 71.0653 174.095 71.1838 173.695 71.5246L154.77 87.6428C152.357 89.702 149.084 90.4131 146.034 89.5242L122.119 82.591C121.616 82.4429 121.083 82.5614 120.668 82.8873L106.097 95.0056C104.365 96.4426 102.247 97.1833 100.085 97.1833ZM160.886 9.80723C121.971 18.1626 95.7169 50.9472 98.4712 87.7613C98.5452 88.6798 99.1968 89.065 99.4781 89.1835C99.8039 89.3316 100.441 89.4649 101.077 88.9464L115.648 76.8282C118.062 74.8282 121.305 74.1615 124.296 75.0208L148.211 81.954C148.714 82.1021 149.262 81.9836 149.662 81.6429L168.601 65.5247C171.029 63.4654 174.287 62.7544 177.338 63.658L201.208 70.5912C201.726 70.7394 202.259 70.6209 202.674 70.2801L221.613 54.1619C224.027 52.1027 227.284 51.3916 230.335 52.2805L247.808 57.3174C248.608 57.5545 249.141 57.1396 249.378 56.8878C249.585 56.6656 250.029 56.0582 249.718 55.1841C237.102 20.5478 199.727 1.48147 160.886 9.80723Z" fill="black"/>
<path d="M187.321 234.395C186.773 243.047 175.771 240.721 162.073 239.847C148.376 238.973 137.167 239.877 137.715 231.24C138.262 222.588 149.813 216.292 163.51 217.166C177.207 218.04 187.869 225.759 187.321 234.41V234.395Z" fill="#FF8B00"/>
<path d="M176.923 244.38C174.065 244.38 170.881 244.129 167.416 243.847C165.624 243.699 163.759 243.551 161.848 243.432C159.938 243.314 158.058 243.225 156.266 243.136C147.263 242.721 140.155 242.38 136.423 238.218C134.735 236.336 133.965 233.907 134.158 231.033C134.839 220.248 147.87 212.574 163.759 213.611C179.662 214.633 191.583 223.862 190.901 234.647C190.724 237.536 189.658 239.832 187.747 241.492C185.141 243.743 181.469 244.395 176.938 244.395L176.923 244.38ZM161.019 220.648C150.491 220.648 141.68 225.344 141.28 231.462C141.192 232.81 141.591 233.255 141.739 233.432C143.472 235.373 150.15 235.684 156.592 235.981C158.428 236.069 160.338 236.158 162.293 236.277C164.247 236.395 166.158 236.558 167.994 236.706C174.42 237.225 181.084 237.773 183.053 236.069C183.216 235.921 183.675 235.536 183.764 234.173C184.179 227.625 174.805 221.462 163.3 220.722C162.53 220.677 161.774 220.648 161.019 220.648Z" fill="black"/>
<path d="M220.087 205.3C213.719 212.026 215.008 220.766 221.242 226.677C227.461 232.588 236.257 233.418 242.639 226.707C249.006 219.981 256.958 205.3 248.829 197.581C240.699 189.863 226.469 198.589 220.087 205.3Z" fill="#FF8B00"/>
<path d="M232.259 235.358C232.096 235.358 231.933 235.358 231.771 235.358C227.047 235.225 222.353 233.151 218.532 229.536C210.344 221.773 209.811 210.44 217.229 202.603C225.033 194.381 241.233 184.974 251.524 194.737C261.816 204.5 253.272 221.196 245.483 229.418C241.825 233.27 237.146 235.373 232.259 235.373V235.358ZM222.945 208.011C217.466 213.788 220.072 220.144 223.952 223.833C226.366 226.114 229.224 227.418 232.007 227.507C234.851 227.551 237.546 226.381 239.796 224.01C244.95 218.588 252.087 206.1 246.134 200.455C240.181 194.796 228.098 202.603 222.945 208.026V208.011Z" fill="black"/>
</g>
<g clip-path="url(#clip1_1083_1394)">
<path d="M377.225 351.584C350.814 354.062 383.37 387.883 283.81 414.669C283.81 414.669 281.435 448.39 376.898 459.127" fill="#FF0000"/>
<path d="M376.886 462.929C376.744 462.929 376.602 462.929 376.46 462.901C278.493 451.879 279.901 415.922 280.001 414.398C280.114 412.789 281.238 411.422 282.802 410.995C345.824 394.049 354.044 375.067 359.492 362.507C362.535 355.5 365.394 348.879 376.858 347.811C378.949 347.626 380.798 349.149 380.997 351.243C381.196 353.336 379.66 355.187 377.569 355.387C370.571 356.042 369.377 358.818 366.461 365.554C360.9 378.385 351.641 399.731 288.051 417.46C290.284 424.922 303.141 447.023 377.299 455.368C379.375 455.596 380.883 457.49 380.641 459.569C380.428 461.505 378.778 462.944 376.872 462.944L376.886 462.929Z" fill="black"/>
<path d="M372.15 426.631C357.216 420.821 342.41 413.558 329.937 403.348C313.95 390.247 302.558 372.532 298.803 354.888C296.84 345.703 296.968 336.304 301.235 328.985C309.555 314.688 332.383 310.43 348.626 323.873C374.611 345.376 361.597 377.089 402.402 408.218C410.993 414.769 414.463 403.832 421.261 412.02C428.543 420.821 429.795 435.488 418.445 437.952C406.342 440.572 384.467 431.416 372.15 426.631Z" fill="#FFBF00"/>
<path d="M317.162 317.08C315.655 321.979 315.171 327.419 315.441 332.915C316.323 350.929 324.715 370.268 338.383 385.761C349.036 397.837 362.505 407.392 376.301 415.538C387.679 422.245 407.804 434.805 420.178 434.164C422.383 434.05 424.203 433.424 425.668 432.427C424.402 435.118 422.07 437.155 418.443 437.938C406.339 440.558 384.465 431.401 372.148 426.617C357.214 420.807 342.408 413.544 329.934 403.334C313.948 390.233 302.556 372.518 298.801 354.874C296.852 345.689 296.966 336.29 301.233 328.971C304.618 323.161 310.407 319.045 317.162 317.066V317.08Z" fill="white"/>
<path d="M413.68 442.21C401.434 442.21 384.964 435.745 373.529 431.245L370.77 430.162C352.451 423.028 338.712 415.438 327.533 406.281C310.864 392.625 299.03 374.17 295.091 355.671C292.673 344.322 293.654 334.439 297.949 327.063C302.358 319.501 310.352 314.189 319.881 312.495C330.847 310.544 342.197 313.62 351.043 320.939C363.303 331.093 367.414 343.211 371.766 356.042C377.17 371.977 382.76 388.453 404.706 405.185C407.309 407.164 408.66 406.737 411.12 405.94C414.278 404.914 419.057 403.391 424.177 409.571C429.781 416.321 432.056 425.776 429.724 432.541C428.088 437.297 424.362 440.529 419.241 441.64C417.52 442.01 415.657 442.181 413.68 442.181V442.21ZM373.529 423.099L376.303 424.182C387.98 428.767 407.508 436.428 417.648 434.249C420.18 433.708 421.787 432.341 422.555 430.091C424.02 425.833 422.214 419.112 418.345 414.455C416.496 412.22 416.027 412.376 413.453 413.202C410.438 414.171 405.872 415.637 400.126 411.251C376.345 393.123 370.116 374.725 364.597 358.505C360.43 346.202 356.818 335.592 346.222 326.806C339.11 320.911 329.993 318.419 321.232 319.985C313.893 321.295 307.806 325.268 304.535 330.893C300.339 338.099 301.135 347.483 302.543 354.091C306.128 370.937 317.008 387.826 332.369 400.4C342.922 409.044 356.007 416.25 373.544 423.085L373.529 423.099Z" fill="black"/>
<path d="M387.866 365.625C388.52 364.329 389.117 363.005 389.9 361.823C397.011 351.086 412.059 363.931 423.537 367.334C434.901 370.695 448.227 372.147 459.549 375.693C460.217 375.893 460.871 376.106 461.526 376.306C462.322 376.548 463.133 376.775 463.929 377.018C468.011 378.228 472.15 379.41 476.36 380.535C480.57 381.646 484.737 382.685 488.89 383.668C489.701 383.853 490.526 384.052 491.337 384.237C492.019 384.394 492.688 384.536 493.356 384.693C506.541 387.612 519.526 389.706 532.057 390.888C532.057 390.888 532.284 390.945 532.369 390.916C546.535 398.649 560.815 397.196 572.464 408.503C572.464 408.546 574.853 406.281 574.853 406.324C574.867 407.05 575.934 414.128 575.934 414.868C570.885 424.224 563.176 440.458 557.274 449.358C556.235 450.925 555.695 452.463 555.524 453.93C554.671 454.627 553.86 455.439 553.177 456.507C545.625 468.056 529.397 483.962 514.961 484.788C506.811 485.258 497.58 482.154 489.502 481.057C481.139 479.918 468.196 477.967 460.018 482.553C454.571 475.19 443.662 473.382 436.138 479.491C420.706 492.022 403.824 499.613 388.563 493.105C373.33 486.611 373.927 450.042 373.33 436.485C372.377 414.384 377.568 385.975 387.866 365.625Z" fill="white"/>
<path d="M400.339 497.633C395.944 497.633 391.734 496.779 387.738 495.084C372.775 488.704 371.865 457.846 371.381 441.256C371.324 439.504 371.282 437.938 371.225 436.585C370.187 412.661 375.989 384.437 385.988 364.671L386.401 363.845C386.941 362.735 387.496 361.652 388.15 360.655C394.294 351.399 404.876 356.526 414.206 361.054C417.748 362.777 421.104 364.401 424.162 365.298C429.524 366.878 435.498 368.075 441.272 369.214C447.644 370.481 454.215 371.791 460.217 373.657L464.583 374.981C468.637 376.192 472.761 377.359 476.943 378.484C481.124 379.595 485.277 380.635 489.402 381.603L493.854 382.628C506.996 385.533 519.853 387.598 532.085 388.766L532.54 388.581L533.422 389.065C538.954 392.084 544.615 393.679 550.091 395.217C557.7 397.367 565.551 399.574 572.506 405.641C573.886 404.373 574.511 403.861 575.749 404.402L576.986 404.943L577.015 406.296C577.043 406.694 577.271 408.361 577.512 410.069C577.811 412.22 578.11 414.455 578.11 414.868V415.41L577.854 415.894C576.318 418.756 574.526 422.245 572.605 425.99C568.225 434.563 563.247 444.275 559.094 450.54C558.297 451.737 557.828 452.961 557.686 454.186L557.586 455.04L556.932 455.581C556.107 456.265 555.495 456.934 555.012 457.675C547.659 468.939 530.975 486.013 515.131 486.924C509.513 487.252 503.54 485.985 497.765 484.774C494.778 484.148 491.962 483.549 489.26 483.179L488.549 483.08C480.527 481.983 468.423 480.317 461.099 484.418L459.463 485.33L458.354 483.82C456.021 480.659 452.394 478.551 448.412 478.053C444.458 477.554 440.589 478.651 437.517 481.143C424.006 492.108 411.561 497.619 400.367 497.619L400.339 497.633ZM397.651 359.73C395.176 359.73 393.213 360.684 391.691 362.991C391.123 363.845 390.667 364.785 390.198 365.725L389.771 366.579C380.228 385.448 374.482 413.501 375.463 436.386C375.52 437.753 375.563 439.348 375.62 441.113C376.046 455.624 376.928 485.842 389.402 491.14C402.017 496.508 417.292 492.037 434.801 477.825C438.783 474.592 443.79 473.154 448.91 473.823C453.433 474.393 457.6 476.572 460.587 479.89C469.106 476.102 481.025 477.739 489.089 478.85L489.8 478.95C492.659 479.334 495.689 479.975 498.618 480.602C504.108 481.769 509.798 482.966 514.861 482.667C529.027 481.855 544.814 465.478 551.428 455.339C552.025 454.428 552.708 453.616 553.575 452.833C553.888 451.238 554.543 449.672 555.524 448.176C559.549 442.096 564.47 432.498 568.794 424.025C570.6 420.508 572.293 417.19 573.786 414.413C573.686 413.615 573.487 412.106 573.274 410.639C573.274 410.596 573.274 410.539 573.26 410.497C572.762 410.739 572.307 410.739 571.681 410.497L570.998 410.055C564.47 403.704 556.918 401.582 548.925 399.318C543.349 397.752 537.589 396.128 531.758 393.009L531.53 392.967C519.426 391.842 506.327 389.748 492.929 386.786L488.435 385.761C484.268 384.779 480.072 383.725 475.848 382.614C471.624 381.475 467.456 380.307 463.36 379.082L458.951 377.744C453.177 375.935 446.705 374.654 440.447 373.415C434.587 372.247 428.514 371.051 422.967 369.399C419.568 368.388 415.899 366.622 412.357 364.899C406.184 361.909 401.349 359.758 397.665 359.758L397.651 359.73Z" fill="black"/>
<path d="M400.354 351.584C411.362 338.498 472.862 334.937 487.042 350.573C489.019 352.752 490.043 355.529 489.73 359.061C489.247 364.714 453.05 349.747 445.639 354.119C412.913 373.443 386.899 401.454 375.649 468.697C375.649 468.697 356.946 403.163 400.34 351.584H400.354Z" fill="#FFBF00"/>
<path d="M400.339 499.313C395.717 499.313 391.293 498.416 387.069 496.622C372.349 490.356 370.386 464.781 369.689 441.313C369.632 439.575 369.589 438.009 369.532 436.67C368.494 412.49 374.354 383.938 384.466 363.931L384.865 363.133C385.448 361.966 386.017 360.812 386.728 359.744C393.669 349.263 405.445 354.974 414.903 359.559C418.388 361.239 421.673 362.834 424.603 363.703C429.894 365.269 435.839 366.451 441.571 367.59C447.971 368.858 454.599 370.182 460.672 372.076L465.01 373.401C469.049 374.597 473.16 375.764 477.327 376.889C481.494 378 485.633 379.025 489.744 379.994L494.181 381.019C507.323 383.924 520.18 385.989 532.398 387.142C532.455 387.142 532.511 387.142 532.554 387.157C533.109 387.185 533.664 387.342 534.161 387.612C535.783 388.495 537.504 389.392 539.282 390.332C548.74 395.288 559.407 400.884 565.821 408.887L576.275 409.884C577.328 409.984 578.309 410.525 578.949 411.379C579.589 412.234 579.845 413.316 579.646 414.356C576.659 430.59 565.21 446.752 555.112 461.007C553.049 463.926 551.044 466.746 549.223 469.437C538.77 484.817 520.251 491.852 497.026 489.26C490.199 488.491 483.457 487.095 476.943 485.742C472.093 484.731 467.087 483.692 462.151 482.951C459.904 482.61 457.628 482.054 455.353 481.499C448.896 479.918 443.306 478.551 438.499 482.453C424.674 493.674 411.888 499.313 400.311 499.313H400.339ZM397.694 361.439C395.66 361.439 394.195 362.222 393.071 363.916C392.545 364.714 392.118 365.597 391.692 366.466L391.265 367.334C381.835 385.975 376.16 413.701 377.142 436.314C377.199 437.681 377.241 439.291 377.298 441.071C377.682 454.129 378.578 484.731 390.056 489.616C402.06 494.728 416.766 490.342 433.748 476.543C441.486 470.263 449.834 472.314 457.188 474.108C459.236 474.607 461.284 475.119 463.318 475.432C468.438 476.216 473.558 477.269 478.508 478.295C484.851 479.619 491.422 480.972 497.893 481.698C509.641 483.023 531.118 482.61 542.979 465.151C544.843 462.417 546.862 459.555 548.953 456.607C557.714 444.246 567.528 430.39 571.269 417.033L563.475 416.292C562.379 416.193 561.384 415.609 560.744 414.712C555.552 407.406 545.056 401.91 535.783 397.054C534.218 396.228 532.682 395.43 531.231 394.647C518.843 393.451 505.829 391.358 492.531 388.424L488.023 387.385C483.841 386.402 479.631 385.348 475.393 384.223C471.14 383.084 466.973 381.902 462.862 380.677L458.425 379.325C452.736 377.544 446.307 376.263 440.092 375.038C434.189 373.87 428.088 372.646 422.455 370.98C418.928 369.94 415.202 368.132 411.589 366.38C405.104 363.233 400.737 361.453 397.665 361.453L397.694 361.439Z" fill="black"/>
<path d="M662.748 231.838C648.98 209.907 627.091 210.89 612.527 222.14C595.673 235.156 582.873 237.391 591.847 256.758C600.822 276.139 616.908 296.631 637.972 293.185C667.612 288.329 679.133 257.926 662.762 231.823L662.748 231.838Z" fill="#FFBF00"/>
<path d="M633.196 297.386C609.202 297.386 594.054 270.543 588.408 258.353C579.888 239.94 589.148 233.689 600.867 225.757C603.712 223.834 606.926 221.67 610.226 219.121C619.215 212.186 630.152 209.238 640.293 211.047C650.547 212.884 659.437 219.363 665.979 229.801C674.797 243.842 676.461 260.218 670.431 273.576C664.827 286.022 653.207 294.538 638.586 296.93C636.751 297.229 634.945 297.371 633.196 297.371V297.386ZM634.333 218.124C627.663 218.124 620.765 220.573 614.848 225.145C611.364 227.836 608.035 230.086 605.105 232.065C593.429 239.969 589.489 242.617 595.292 255.163C600.611 266.669 615.36 293.042 637.349 289.44C649.594 287.432 658.882 280.696 663.504 270.457C668.553 259.25 667.117 245.907 659.536 233.845C654.146 225.258 647.034 219.961 638.942 218.523C637.42 218.252 635.884 218.124 634.319 218.124H634.333Z" fill="black"/>
<path d="M647.503 246.562C640.192 231.61 625.244 236.508 617.535 242.831C608.618 250.151 593.456 258.866 597.894 269.375C602.331 279.899 624.803 278.717 635.84 276.937C647.417 275.071 654.913 261.714 647.503 246.548V246.562Z" fill="white"/>
<path d="M370.002 270.471C371.069 267.766 372.263 265.032 373.728 262.283C384.424 242.19 399.5 228.662 409.143 220.702C426.722 206.148 443.548 199.569 466.247 195.097C491.024 192.264 519.384 195.553 550.574 206.846C581.808 218.053 605.745 233.618 623.04 251.603C637.689 269.532 642.468 289.383 646.763 311.825C649.11 324.115 656.108 340.107 651.556 362.421C650.931 365.483 650.12 368.345 649.224 371.108C642.041 389.35 630.236 401.454 615.018 408.588C585.548 421.348 542.567 417.133 498.334 403.319C497.68 403.106 497.026 402.921 496.371 402.707C495.589 402.451 494.807 402.194 494.01 401.938C490.014 400.628 485.989 399.247 481.935 397.794C477.896 396.327 473.914 394.818 469.988 393.28C469.22 392.981 468.438 392.682 467.684 392.369C467.044 392.112 466.418 391.856 465.778 391.6C422.896 374.027 387.098 349.847 372.505 321.21C365.322 306.001 363.929 289.141 370.002 270.5V270.471Z" fill="#FFBF00"/>
<path d="M530.877 329.896C608.733 354.959 631.177 377.658 625.644 401.041C622.984 403.319 620.097 405.327 617.082 407.179C616.257 407.592 615.46 408.047 614.621 408.446C584.696 421.049 540.933 416.549 495.818 402.408C495.15 402.194 494.495 401.995 493.827 401.782C493.03 401.525 492.22 401.255 491.423 400.998C487.341 399.66 483.231 398.25 479.106 396.769C474.982 395.274 470.914 393.736 466.917 392.169C466.135 391.856 465.339 391.557 464.556 391.244C463.902 390.987 463.262 390.717 462.622 390.46C434.504 378.969 409.372 364.742 390.996 348.409C407.295 314.488 442.682 301.515 530.863 329.911L530.877 329.896Z" fill="white"/>
<path d="M528.914 347.939C526.368 347.939 524.377 347.255 524.035 347.141C517.137 345.262 512.956 341.317 511.562 335.165C511.092 333.115 512.373 331.078 514.421 330.623C516.469 330.167 518.503 331.434 518.958 333.485C519.299 335.009 520.024 338.184 526.311 339.907C527.221 340.206 529.397 340.676 530.834 339.964C531.331 339.722 532.043 339.209 532.555 337.657C533.209 335.664 535.357 334.596 537.348 335.251C539.339 335.906 540.406 338.07 539.751 340.05C538.713 343.183 536.765 345.518 534.105 346.814C532.327 347.682 530.492 347.953 528.871 347.953L528.914 347.939Z" fill="black"/>
<path d="M547.929 354.817C546.734 354.817 545.412 354.675 543.947 354.361C539.95 353.336 532.569 349.064 532.298 340.007C532.241 337.914 533.877 336.162 535.982 336.091C538.03 336.048 539.822 337.672 539.893 339.779C540.064 345.247 545.17 346.828 545.753 346.985C547.943 347.455 549.721 347.27 550.76 346.401C552.367 345.048 554.756 345.262 556.107 346.871C557.458 348.48 557.245 350.872 555.638 352.225C554.102 353.507 551.627 354.831 547.943 354.831L547.929 354.817Z" fill="black"/>
<path d="M581.78 266.897C570.772 263.294 571.625 245.608 572.692 223.792C572.891 219.819 573.275 216.145 573.759 212.627C581.183 215.931 588.195 219.648 594.865 223.706C594.865 226.099 594.837 228.534 594.723 231.012C593.671 252.828 592.803 270.514 581.795 266.911L581.78 266.897Z" fill="#ED9600"/>
<path d="M552.382 264.505C541.373 260.902 542.227 243.216 543.294 221.399C543.635 214.407 544.502 208.113 545.669 202.702C548.84 203.556 551.969 204.311 555.255 205.393C558.54 206.461 561.641 207.743 564.798 208.968C565.41 214.963 565.652 221.613 565.31 228.619C564.258 250.435 563.39 268.122 552.382 264.519V264.505Z" fill="#ED9600"/>
<path d="M523.679 247.872C512.67 244.269 513.524 226.583 514.59 204.767C514.704 202.289 514.903 199.911 515.145 197.604C521.986 197.96 529.14 198.885 536.65 200.48C536.778 204.197 536.806 208.013 536.622 211.986C535.569 233.803 534.701 251.489 523.693 247.886L523.679 247.872Z" fill="#ED9600"/>
<path d="M572.335 419.696C545.425 419.696 517.164 413.088 494.692 406.039L490.255 404.615C486.13 403.263 481.991 401.838 477.824 400.343C473.657 398.834 469.561 397.282 465.536 395.701L461.212 393.978C424.261 379.025 398.262 362.649 379.374 342.442C361.809 323.645 356.802 295.691 366.332 269.475C367.953 264.989 369.944 260.703 372.234 256.701C381.379 240.752 393.938 227.252 412.954 212.926C425.939 203.143 443.177 191.68 461.44 189.743C488.619 186.838 518.103 191.067 549.038 202.26C580.001 213.368 605.403 228.932 624.504 248.513C640.405 267.609 645.468 288.058 650.034 310.928C650.56 313.563 651.314 316.368 652.11 319.373C655.14 330.722 658.909 344.849 655.239 363.162C654.656 366.067 653.888 368.972 652.807 372.29C645.468 390.902 633.18 404.145 616.198 411.906C602.942 417.503 587.852 419.696 572.335 419.696ZM373.457 272.066C364.924 295.577 369.304 320.555 384.907 337.244C403.012 356.611 428.158 372.404 464.042 386.915L468.309 388.623C472.263 390.176 476.288 391.699 480.384 393.18C484.466 394.647 488.548 396.043 492.587 397.381L496.954 398.791C545.311 413.957 586.586 416.136 613.14 404.943C628.173 398.065 639.153 386.203 645.667 369.698C646.578 366.893 647.275 364.273 647.801 361.652C651.129 345.091 647.602 331.919 644.786 321.324C643.932 318.148 643.15 315.186 642.595 312.409C638.229 290.579 633.422 271.084 618.872 253.582C600.78 235.056 576.346 220.118 546.463 209.395C516.61 198.586 488.278 194.514 462.236 197.276C445.823 199.028 429.708 209.793 417.505 218.978C399.343 232.649 387.41 245.451 378.805 260.461C376.729 264.078 374.936 267.979 373.457 272.052V272.066Z" fill="black"/>
<path d="M536.007 411.244C539.35 400.483 532.132 388.667 519.883 384.852C507.635 381.037 494.995 386.668 491.652 397.429C488.308 408.191 495.527 420.007 507.775 423.822C520.023 427.637 532.663 422.006 536.007 411.244Z" fill="#FF0000"/>
<path d="M515.502 428.795C512.6 428.795 509.614 428.354 506.655 427.428C492.433 423 484.07 409.03 488.023 396.285C489.972 390.019 494.538 385.006 500.881 382.187C507.054 379.438 514.208 379.097 521.006 381.204C535.229 385.633 543.592 399.603 539.624 412.348C536.495 422.43 526.553 428.781 515.488 428.781L515.502 428.795ZM495.263 398.549C492.546 407.293 498.662 416.99 508.888 420.18C519.1 423.356 529.654 418.856 532.37 410.112C535.087 401.369 528.971 391.671 518.731 388.481C513.696 386.915 508.433 387.157 503.939 389.15C499.615 391.073 496.529 394.419 495.249 398.563L495.263 398.549Z" fill="black"/>
<path d="M481.46 394.25C484.803 383.488 477.585 371.672 465.336 367.857C453.088 364.042 440.448 369.673 437.105 380.435C433.761 391.196 440.98 403.013 453.228 406.828C465.477 410.643 478.116 405.011 481.46 394.25Z" fill="#FF0000"/>
<path d="M461.015 411.821C458.057 411.821 455.042 411.365 452.112 410.454C445.313 408.332 439.624 403.989 436.097 398.221C432.47 392.297 431.545 385.576 433.494 379.31C437.448 366.565 452.254 359.801 466.477 364.244C473.275 366.366 478.964 370.709 482.492 376.476C486.118 382.4 487.043 389.122 485.094 395.388C483.146 401.653 478.58 406.652 472.237 409.486C468.738 411.052 464.912 411.835 461.015 411.835V411.821ZM457.587 370.467C449.779 370.467 442.867 374.725 440.733 381.56C439.453 385.704 440.093 390.204 442.568 394.248C445.128 398.449 449.324 401.625 454.373 403.191C459.408 404.758 464.67 404.53 469.151 402.522C473.474 400.6 476.561 397.253 477.841 393.109C479.121 388.965 478.481 384.465 476.006 380.421C473.446 376.22 469.25 373.045 464.201 371.478C461.982 370.78 459.735 370.453 457.573 370.453L457.587 370.467Z" fill="black"/>
<path d="M514.362 408.304C513.993 408.304 513.609 408.247 513.239 408.133L459.363 391.358C457.357 390.731 456.248 388.609 456.874 386.601C457.5 384.593 459.633 383.468 461.624 384.109L515.5 400.884C517.506 401.511 518.615 403.633 517.989 405.641C517.477 407.264 515.984 408.318 514.362 408.318V408.304Z" fill="black"/>
<path d="M486.558 411.365C495.12 411.365 502.06 404.416 502.06 395.843C502.06 387.271 495.12 380.321 486.558 380.321C477.996 380.321 471.055 387.271 471.055 395.843C471.055 404.416 477.996 411.365 486.558 411.365Z" fill="#FF0000"/>
<path d="M486.571 415.167C484.651 415.167 482.717 414.868 480.825 414.285C470.67 411.123 464.967 400.272 468.125 390.104C471.282 379.937 482.134 374.226 492.275 377.402C497.196 378.926 501.221 382.287 503.625 386.858C506.028 391.429 506.498 396.655 504.962 401.582C503.44 406.509 500.083 410.539 495.518 412.946C492.702 414.427 489.644 415.167 486.557 415.167H486.571ZM475.378 392.354C473.458 398.52 476.914 405.1 483.087 407.022C486.074 407.948 489.245 407.663 492.005 406.21C494.778 404.758 496.812 402.308 497.736 399.318C498.661 396.327 498.376 393.152 496.926 390.389C495.475 387.627 493.029 385.576 490.042 384.65C483.869 382.728 477.298 386.188 475.392 392.354H475.378Z" fill="black"/>
<path d="M516.156 200.224C513.951 187.436 511.206 183.221 510.58 181.028C505.546 163.612 490.256 144.829 459.976 149.571C425.372 154.997 413.453 198.9 437.418 218.993" fill="#FFBF00"/>
<path d="M466.334 169.023C484.028 165.634 493.656 179.376 493.699 192.705C493.699 194.884 492.348 196.664 490.101 196.521C477.172 195.781 465.396 197.561 454.985 202.289C453.235 203.086 451.102 202.417 450.263 200.708C446.195 192.42 447.148 172.697 466.334 169.023Z" fill="white"/>
<path d="M438.555 219.078C437.574 219.078 436.607 218.708 435.867 217.953C423.863 205.863 419.482 188.96 424.432 173.837C429.296 158.955 442.367 148.489 459.377 145.812C475.748 143.248 490.596 146.695 501.164 155.524C512.13 164.68 518.146 179.02 518.601 196.991C518.658 199.085 516.994 200.836 514.903 200.879C512.798 200.936 511.063 199.27 511.02 197.176C510.622 181.441 505.545 169.066 496.314 161.348C487.311 153.829 474.937 151.052 460.558 153.316C446.207 155.566 435.668 163.911 431.643 176.201C427.589 188.59 431.273 202.531 441.258 212.585C442.737 214.08 442.723 216.472 441.243 217.953C440.504 218.694 439.537 219.064 438.569 219.064L438.555 219.078Z" fill="black"/>
<path d="M422.499 371.806C408.234 351.784 382.647 323.389 366.632 326.792C363.759 327.404 361.313 329.07 359.492 332.104C356.591 336.974 356.505 344.393 361.028 351.713C377.527 378.399 380.229 387.128 389.09 419.041" fill="white"/>
<path d="M389.103 422.857C387.439 422.857 385.918 421.761 385.448 420.08C376.616 388.296 373.928 379.794 357.813 353.735C352.906 345.803 352.309 336.789 356.249 330.181C358.524 326.35 361.753 323.972 365.849 323.089C387.866 318.376 419.483 361.011 425.599 369.613C426.822 371.321 426.424 373.7 424.717 374.91C423.011 376.135 420.65 375.722 419.426 374.027C403.184 351.2 380.015 327.888 367.442 330.523C365.451 330.95 363.972 332.075 362.777 334.069C360.843 337.33 360.217 343.154 364.285 349.733C380.94 376.676 383.713 385.419 392.787 418.044C393.342 420.066 392.161 422.159 390.142 422.729C389.8 422.829 389.459 422.871 389.118 422.871L389.103 422.857Z" fill="black"/>
<path d="M557.329 419.055C543.063 399.033 518.031 366.822 502.03 370.239C499.157 370.852 496.711 372.518 494.891 375.551C491.989 380.421 491.904 387.84 496.427 395.16C507.847 413.644 512.655 423.498 517.476 438.422" fill="white"/>
<path d="M517.476 442.224C515.869 442.224 514.39 441.199 513.864 439.59C509.142 424.979 504.505 415.466 493.198 397.168C488.305 389.25 487.694 380.222 491.619 373.614C493.909 369.783 497.138 367.405 501.22 366.522C514.902 363.617 534.231 380.079 560.401 416.848C561.624 418.557 561.226 420.935 559.519 422.145C557.812 423.37 555.451 422.971 554.228 421.262C522.895 377.26 508.573 372.703 502.798 373.956C500.807 374.383 499.328 375.508 498.133 377.502C496.199 380.763 495.573 386.587 499.641 393.166C511.19 411.849 516.196 422.145 521.075 437.254C521.715 439.248 520.619 441.398 518.628 442.039C518.244 442.167 517.846 442.224 517.462 442.224H517.476Z" fill="black"/>
<path d="M505.062 442.95C505.062 442.95 492.588 423.769 470.529 434.691C452.707 443.52 454.499 475.119 454.499 475.119C454.499 475.119 453.618 508.328 473.814 512.699C496.3 517.57 503.184 496.779 505.275 478.494" fill="white"/>
<path d="M480.141 517C477.894 517 475.533 516.729 473.058 516.203C450.231 511.261 450.899 476.529 450.928 475.048C450.857 473.966 449.221 441.27 468.934 431.515C488.632 421.775 503.125 433.466 508.032 441.014C509.099 442.665 508.644 444.873 506.994 445.941C505.358 447.009 503.14 446.553 502.073 444.901C501.589 444.161 490.922 428.568 472.091 437.895C456.603 445.556 458.025 474.635 458.039 474.934C458.039 475.532 457.484 505.537 474.552 509.225C480.753 510.563 485.731 509.823 489.756 506.932C496.028 502.432 500.053 492.734 501.717 478.11C501.931 476.159 503.709 474.735 505.657 474.977C507.606 475.205 509.014 476.97 508.786 478.921C506.88 495.625 501.874 507.003 493.895 512.742C489.941 515.59 485.318 517.014 480.113 517.014L480.141 517Z" fill="black"/>
<path d="M500.839 324.983C483.999 324.983 473.546 314.189 473.048 313.648C471.313 311.811 471.384 308.906 473.219 307.169C475.053 305.432 477.941 305.503 479.676 307.325C480.145 307.81 490.954 318.746 507.752 315.044C510.226 314.503 512.658 316.069 513.199 318.533C513.739 320.996 512.175 323.446 509.714 323.987C506.585 324.67 503.627 324.969 500.839 324.969V324.983Z" fill="black"/>
<path d="M592.602 351.997C577.014 351.997 567.399 341.047 566.93 340.505C565.28 338.583 565.493 335.692 567.414 334.04C569.319 332.388 572.207 332.602 573.856 334.51C574.283 334.994 583.884 345.675 598.718 342.086C601.178 341.488 603.653 342.997 604.236 345.461C604.834 347.925 603.326 350.402 600.866 350.986C597.964 351.698 595.205 351.997 592.602 351.997Z" fill="black"/>
</g>
<defs>
<clipPath id="clip0_1083_1394">
<rect width="329" height="381" fill="white"/>
</clipPath>
<clipPath id="clip1_1083_1394">
<rect width="394" height="372" fill="white" transform="translate(280 145)"/>
</clipPath>
</defs>
</svg>
