<svg width="930" height="449" viewBox="0 0 930 449" fill="none" xmlns="http://www.w3.org/2000/svg">
<path opacity="0.2" d="M862.922 39C866.788 39 869.922 35.866 869.922 32C869.922 28.134 866.788 25 862.922 25C859.056 25 855.922 28.134 855.922 32C855.922 35.866 859.056 39 862.922 39Z" fill="white"/>
<path opacity="0.3" d="M662.922 289.67C666.788 289.67 669.922 286.536 669.922 282.67C669.922 278.804 666.788 275.67 662.922 275.67C659.056 275.67 655.922 278.804 655.922 282.67C655.922 286.536 659.056 289.67 662.922 289.67Z" fill="white"/>
<path opacity="0.2" d="M259.109 56.5601C262.975 56.5601 266.109 53.4261 266.109 49.5601C266.109 45.6941 262.975 42.5601 259.109 42.5601C255.243 42.5601 252.109 45.6941 252.109 49.5601C252.109 53.4261 255.243 56.5601 259.109 56.5601Z" fill="white"/>
<path opacity="0.4" d="M748.441 82.8899C750.651 82.8899 752.441 81.099 752.441 78.8899C752.441 76.6808 750.651 74.8899 748.441 74.8899C746.232 74.8899 744.441 76.6808 744.441 78.8899C744.441 81.099 746.232 82.8899 748.441 82.8899Z" fill="white"/>
<path opacity="0.4" d="M893 163C895.209 163 897 161.209 897 159C897 156.791 895.209 155 893 155C890.791 155 889 156.791 889 159C889 161.209 890.791 163 893 163Z" fill="white"/>
<path opacity="0.1" d="M843.781 236.89C845.99 236.89 847.781 235.099 847.781 232.89C847.781 230.681 845.99 228.89 843.781 228.89C841.572 228.89 839.781 230.681 839.781 232.89C839.781 235.099 841.572 236.89 843.781 236.89Z" fill="white"/>
<path opacity="0.1" d="M330 322C338.837 322 346 314.837 346 306C346 297.163 338.837 290 330 290C321.163 290 314 297.163 314 306C314 314.837 321.163 322 330 322Z" fill="white"/>
<path opacity="0.1" d="M432 263C437.523 263 442 258.523 442 253C442 247.477 437.523 243 432 243C426.477 243 422 247.477 422 253C422 258.523 426.477 263 432 263Z" fill="white"/>
<path opacity="0.1" d="M897 432C905.284 432 912 425.284 912 417C912 408.716 905.284 402 897 402C888.716 402 882 408.716 882 417C882 425.284 888.716 432 897 432Z" fill="white"/>
<g opacity="0.4" filter="url(#filter0_f_1083_1485)">
<path d="M744.441 169.56C745.546 169.56 746.441 168.665 746.441 167.56C746.441 166.455 745.546 165.56 744.441 165.56C743.337 165.56 742.441 166.455 742.441 167.56C742.441 168.665 743.337 169.56 744.441 169.56Z" fill="white"/>
</g>
<path opacity="0.4" d="M556 144C557.105 144 558 143.105 558 142C558 140.895 557.105 140 556 140C554.895 140 554 140.895 554 142C554 143.105 554.895 144 556 144Z" fill="white"/>
<path opacity="0.2" d="M697 413C698.105 413 699 412.105 699 411C699 409.895 698.105 409 697 409C695.895 409 695 409.895 695 411C695 412.105 695.895 413 697 413Z" fill="white"/>
<path opacity="0.4" d="M575.109 205.56C576.214 205.56 577.109 204.665 577.109 203.56C577.109 202.455 576.214 201.56 575.109 201.56C574.005 201.56 573.109 202.455 573.109 203.56C573.109 204.665 574.005 205.56 575.109 205.56Z" fill="white"/>
<g opacity="0.4" filter="url(#filter1_f_1083_1485)">
<path d="M632.441 67.5601C632.994 67.5601 633.441 67.1123 633.441 66.5601C633.441 66.0078 632.994 65.5601 632.441 65.5601C631.889 65.5601 631.441 66.0078 631.441 66.5601C631.441 67.1123 631.889 67.5601 632.441 67.5601Z" fill="white"/>
</g>
<path opacity="0.4" d="M590.781 352.56C591.334 352.56 591.781 352.112 591.781 351.56C591.781 351.008 591.334 350.56 590.781 350.56C590.229 350.56 589.781 351.008 589.781 351.56C589.781 352.112 590.229 352.56 590.781 352.56Z" fill="white"/>
<path opacity="0.4" d="M762 301C762.552 301 763 300.552 763 300C763 299.448 762.552 299 762 299C761.448 299 761 299.448 761 300C761 300.552 761.448 301 762 301Z" fill="white"/>
<path opacity="0.6" d="M329.441 386.89C329.994 386.89 330.441 386.442 330.441 385.89C330.441 385.338 329.994 384.89 329.441 384.89C328.889 384.89 328.441 385.338 328.441 385.89C328.441 386.442 328.889 386.89 329.441 386.89Z" fill="white"/>
<path opacity="0.4" d="M29.1094 29C30.2139 29 31.1094 28.1046 31.1094 27C31.1094 25.8954 30.2139 25 29.1094 25C28.0048 25 27.1094 25.8954 27.1094 27C27.1094 28.1046 28.0048 29 29.1094 29Z" fill="white"/>
<path opacity="0.4" d="M455.781 116.22C456.886 116.22 457.781 115.325 457.781 114.22C457.781 113.115 456.886 112.22 455.781 112.22C454.677 112.22 453.781 113.115 453.781 114.22C453.781 115.325 454.677 116.22 455.781 116.22Z" fill="white"/>
<path opacity="0.4" d="M469 401.56C471.209 401.56 473 399.769 473 397.56C473 395.351 471.209 393.56 469 393.56C466.791 393.56 465 395.351 465 397.56C465 399.769 466.791 401.56 469 401.56Z" fill="white"/>
<path opacity="0.4" d="M50.4414 383.89C54.3074 383.89 57.4414 380.756 57.4414 376.89C57.4414 373.024 54.3074 369.89 50.4414 369.89C46.5754 369.89 43.4414 373.024 43.4414 376.89C43.4414 380.756 46.5754 383.89 50.4414 383.89Z" fill="white"/>
<defs>
<filter id="filter0_f_1083_1485" x="741.441" y="164.56" width="6" height="6" filterUnits="userSpaceOnUse" color-interpolation-filters="sRGB">
<feFlood flood-opacity="0" result="BackgroundImageFix"/>
<feBlend mode="normal" in="SourceGraphic" in2="BackgroundImageFix" result="shape"/>
<feGaussianBlur stdDeviation="0.5" result="effect1_foregroundBlur_1083_1485"/>
</filter>
<filter id="filter1_f_1083_1485" x="630.441" y="64.5601" width="4" height="4" filterUnits="userSpaceOnUse" color-interpolation-filters="sRGB">
<feFlood flood-opacity="0" result="BackgroundImageFix"/>
<feBlend mode="normal" in="SourceGraphic" in2="BackgroundImageFix" result="shape"/>
<feGaussianBlur stdDeviation="0.5" result="effect1_foregroundBlur_1083_1485"/>
</filter>
</defs>
</svg>
